<?xml version="1.0" encoding="iso-8859-1"?><!-- Generator: Adobe Illustrator 22.1.0, SVG Export Plug-In . SVG Version: 6.00 Build 0)  --><svg xmlns="http://www.w3.org/2000/svg" xmlns:xlink="http://www.w3.org/1999/xlink" viewBox="0 0 64 64" width="64px" height="64px"><path style="fill:none;stroke:#000000;stroke-width:2;stroke-linejoin:round;stroke-miterlimit:10;" d="M5.015,7.244l5.466,45.246c0.194,1.603,1.337,2.935,2.9,3.379l17.535,4.977c0.709,0.201,1.46,0.206,2.172,0.013l18.442-4.996c1.614-0.437,2.789-1.817,2.955-3.471l4.549-45.187C59.153,6.024,58.22,5,57.025,5H7.019C5.809,5,4.87,6.051,5.015,7.244z"/><line style="fill:none;stroke:#000000;stroke-width:2;stroke-linecap:round;stroke-linejoin:round;stroke-miterlimit:10;" x1="7" y1="9" x2="7" y2="11"/><line style="fill:none;stroke:#000000;stroke-width:2;stroke-linecap:round;stroke-linejoin:round;stroke-miterlimit:10;" x1="12" y1="9" x2="12" y2="11"/><line style="fill:none;stroke:#000000;stroke-width:2;stroke-linecap:round;stroke-linejoin:round;stroke-miterlimit:10;" x1="17" y1="9" x2="17" y2="11"/><line style="fill:none;stroke:#000000;stroke-width:2;stroke-linecap:round;stroke-linejoin:round;stroke-miterlimit:10;" x1="22" y1="9" x2="22" y2="11"/><line style="fill:none;stroke:#000000;stroke-width:2;stroke-linecap:round;stroke-linejoin:round;stroke-miterlimit:10;" x1="27" y1="9" x2="27" y2="11"/><line style="fill:none;stroke:#000000;stroke-width:2;stroke-linecap:round;stroke-linejoin:round;stroke-miterlimit:10;" x1="32" y1="9" x2="32" y2="11"/><line style="fill:none;stroke:#000000;stroke-width:2;stroke-linecap:round;stroke-linejoin:round;stroke-miterlimit:10;" x1="37" y1="9" x2="37" y2="11"/><line style="fill:none;stroke:#000000;stroke-width:2;stroke-linecap:round;stroke-linejoin:round;stroke-miterlimit:10;" x1="42" y1="9" x2="42" y2="11"/><line style="fill:none;stroke:#000000;stroke-width:2;stroke-linecap:round;stroke-linejoin:round;stroke-miterlimit:10;" x1="47" y1="9" x2="47" y2="11"/><line style="fill:none;stroke:#000000;stroke-width:2;stroke-linecap:round;stroke-linejoin:round;stroke-miterlimit:10;" x1="52" y1="9" x2="52" y2="11"/><line style="fill:none;stroke:#000000;stroke-width:2;stroke-linecap:round;stroke-linejoin:round;stroke-miterlimit:10;" x1="57" y1="9" x2="57" y2="11"/><line style="fill:none;stroke:#000000;stroke-width:2;stroke-linecap:round;stroke-miterlimit:10;" x1="40" y1="53.805" x2="42" y2="53.264"/><polyline style="fill:none;stroke:#000000;stroke-width:2;stroke-linecap:round;stroke-miterlimit:10;" points="27,54.537 32.03,55.965 36,54.889 "/><path style="fill:none;stroke:#000000;stroke-width:2;stroke-linejoin:round;stroke-miterlimit:10;" d="M47.018,17H17c-0.614,0-1.083,0.548-0.987,1.155L16.776,23h24.598l-0.709,6H25v6h14.956l-0.901,7.625l-6.961,2.122l-6.147-2.082l-0.444-2.821C25.426,39.358,25.007,39,24.515,39h-4.049c-0.614,0-1.083,0.549-0.988,1.156l1.014,6.439c0.057,0.362,0.31,0.663,0.658,0.78l10.553,3.574C31.804,50.983,31.908,51,32.013,51c0.095,0,0.19-0.014,0.282-0.042l11.643-3.548c0.374-0.114,0.646-0.439,0.691-0.827l2.891-24.465l0.475-4.019C48.064,17.514,47.607,17,47.018,17z"/></svg>