<?xml version="1.0" encoding="UTF-8"?>
<svg id="Layer_8_copy" data-name="Layer 8 copy" xmlns="http://www.w3.org/2000/svg" viewBox="0 0 1000 1000">
  <defs>
    <style>
      .cls-1 {
        fill: #ffff1e;
      }

      .cls-2 {
        fill: #ffbf0b;
      }

      .cls-3 {
        fill: #ffa4ff;
      }

      .cls-4 {
        fill: #bd44ff;
      }
    </style>
  </defs>
  <g id="Layer_22" data-name="Layer 22">
    <g id="Elements_copy" data-name="Elements copy">
      <g>
        <g>
          <path class="cls-4" d="m412.67,494.06C323.58,406.34,151.15,236.65,92.03,179.19l234.62-104.96,86.02,419.83Z"/>
          <path class="cls-2" d="m84.06,192.81c58.74,57.16,215.27,211.17,305.64,300.14L54.11,341.58l29.95-148.77Z"/>
          <path class="cls-3" d="m181.18,697.92c-61.85-61.85-95.91-144.07-95.91-231.54,0-30.34,4.13-60.04,12.07-88.49l323.71,146.01c1.01.46,2.08.68,3.15.68,1.71,0,3.4-.57,4.79-1.68,2.25-1.8,3.3-4.7,2.72-7.52l-.19-.94c-.26-1.26-.85-2.42-1.67-3.4l-75.19-366.98c18.98-3.38,38.39-5.12,58.07-5.12,87.46,0,169.69,34.06,231.54,95.91,25.77,25.77,46.7,55.09,62.36,86.84l-247.02,156.02c-4.92,3.11-4.94,10.28-.03,13.42l142.1,90.61c4.93,3.14,4.89,10.35-.07,13.44l-152.26,94.9c-5.36,3.34-4.87,11.31.87,13.96l34.38,15.86c1.09,1.09,2.37,2.01,3.82,2.68l74.6,34.41c.09.11.18.22.26.34-45.96,23.86-97.28,36.51-150.55,36.51-87.46,0-169.69-34.06-231.54-95.91Z"/>
          <path class="cls-1" d="m735.48,550.69c-4.19,2.2-6.88,6.49-7.03,11.22s2.25,9.18,6.3,11.65l124.03,75.58-155.69,74.99c-4.26,2.05-7.09,6.23-7.41,10.95-.32,4.72,1.92,9.24,5.86,11.85l97.11,64.23-278.37,87.1,116.59-116.7c3.04-3.04,4.4-7.37,3.64-11.6-.76-4.23-3.53-7.82-7.43-9.62l-111.53-51.45,154.77-96.47c3.83-2.39,6.17-6.57,6.19-11.09.02-4.51-2.27-8.72-6.08-11.15l-145.81-92.98,257.25-162.48,159.42,104.87-211.81,111.1Z"/>
        </g>
        <g>
          <g>
            <path d="m740.19,328.03c-17.9-42.32-43.53-80.33-76.16-112.97-32.64-32.63-70.64-58.26-112.97-76.16-43.83-18.54-90.37-27.94-138.34-27.94-23.83,0-47.31,2.32-70.27,6.93l5.61,27.38c21.06-4.2,42.7-6.35,64.66-6.35,87.46,0,169.69,34.06,231.54,95.91,35.94,35.94,62.48,78.77,78.42,125.51l24.21-15.29c-2.08-5.72-4.31-11.4-6.69-17.03Z"/>
            <path d="m424.01,522.68c-1.72,0-3.42-.66-4.71-1.93C333.59,436.34,128.43,234.4,74.66,182.35c-1.6-1.55-2.33-3.79-1.94-5.98s1.83-4.05,3.87-4.96l252.22-112.84c1.86-.83,3.99-.77,5.8.15,1.81.93,3.1,2.63,3.51,4.62l92.47,451.28c.59,2.89-.77,5.83-3.37,7.24-1.01.55-2.11.81-3.2.81ZM91.09,179.61c59.09,57.44,233.01,228.58,321.93,316.14l-86.37-421.52-235.56,105.38Z"/>
          </g>
          <g>
            <g>
              <path d="m160.81,257.17h0c-.09-.09-.19-.18-.28-.28.09.09.19.18.28.28Z"/>
              <path d="m577.78,749.31c-49.56,29.02-106.11,44.52-165.06,44.52-87.46,0-169.69-34.06-231.54-95.91-61.85-61.85-95.91-144.07-95.91-231.54,0-32.99,4.87-65.23,14.23-95.92l-25.65-11.57c-10.98,34.6-16.54,70.62-16.54,107.49,0,47.97,9.4,94.52,27.94,138.34,17.9,42.32,43.53,80.33,76.16,112.97,32.64,32.63,70.64,58.26,112.97,76.16,43.83,18.54,90.37,27.94,138.34,27.94s94.52-9.4,138.34-27.94c20.03-8.47,39.08-18.69,57.06-30.55l-30.34-14Z"/>
              <path d="m151.08,247.63c-.36-.35-.71-.69-1.06-1.04.35.35.71.69,1.06,1.04Z"/>
            </g>
            <path d="m980.37,429.89l-185.14-121.78c-4.31-2.83-9.88-2.89-14.24-.13l-24.25,15.32-21.52-14.15c-2.61-1.71-5.97-1.74-8.61-.08l-267.01,168.64c-4.92,3.11-4.94,10.28-.03,13.42l142.1,90.61c4.93,3.14,4.89,10.35-.07,13.44l-152.26,94.9c-5.36,3.34-4.87,11.31.87,13.96l34.38,15.86c1.09,1.09,2.37,2.01,3.82,2.68l74.6,34.41c2.43,3.02,2.43,7.6-.56,10.6l-123.47,123.59c-5.87,5.87.07,15.68,7.99,13.2l43.73-13.68-26.77,26.8c-4.28,4.28-5.08,10.92-1.94,16.1,2.43,4.01,6.74,6.34,11.24,6.34,1.31,0,2.63-.2,3.92-.6l355.73-111.3c4.84-1.51,8.38-5.68,9.09-10.7.71-5.02-1.53-10.01-5.76-12.8l-100.87-66.72,156.62-75.44c4.34-2.09,7.19-6.39,7.43-11.2.24-4.81-2.18-9.37-6.29-11.87l-124.84-76.08,211-110.68c4.12-2.16,6.79-6.34,7.02-10.99.23-4.65-2.02-9.07-5.91-11.63Zm-244.89,120.8c-4.19,2.2-6.88,6.49-7.03,11.22s2.25,9.18,6.3,11.65l124.03,75.58-155.69,74.99c-4.26,2.05-7.09,6.23-7.41,10.95-.32,4.72,1.92,9.24,5.86,11.85l97.11,64.23-278.37,87.1,116.59-116.7c3.04-3.04,4.4-7.37,3.64-11.6-.76-4.23-3.53-7.82-7.43-9.62l-111.53-51.45,154.77-96.47c3.83-2.39,6.17-6.57,6.19-11.09.02-4.51-2.27-8.72-6.08-11.15l-145.81-92.98,257.25-162.48,159.42,104.87-211.81,111.1ZM230.82,251.45l-4.24,1.5,1.86-4.1c4.79-10.58,12.11-10.89,18.57-11.16,5.54-.23,10.77-.45,15.47-6.3,3.54-4.42,1.86-5.95-.92-8.49-1.7-1.55-3.62-3.3-3.41-5.89.19-2.33,2.08-4.57,6.12-7.23,1.32-1.5,8.04-20.91,7.53-25.75l-.28-2.64,4.91,1.08c2.32.51,4.62,1.01,6.97,1.52l3.41.74-2.45,2.48c-7.22,7.31-8.99,17.02-10.69,26.41-2.11,11.62-4.29,23.63-16.67,30.92-.21,1.11.51,5.33.79,6.97.29,1.67.58,3.39.74,4.91l.27,2.53-2.5-.44c-11.15-1.97-15.06-4.85-17.64-6.76-1.37-1.01-1.94-1.43-3.08-1.43-1.02,0-2.57.37-4.72,1.13Zm-11.65,63c-.41-.41-.82-.8-1.23-1.21.83.81,1.66,1.63,2.49,2.44-.2.04-.4.07-.62.07-.78,0-1.56-.29-2.31-.87l-.1-.08-.09-.09c-.68-.69-1.09-1.64-1.09-2.54,0-.19.02-.37.05-.56-2.71-2.66-5.42-5.32-8.1-7.95,1.72-.52,3.45-1.29,5.15-2.05,3.07-1.38,5.98-2.69,8.98-2.69,2.18,0,4.07.69,5.79,2.1,3.02,2.5,2.69,5.05,2.23,6.34-1.38,3.84-7.34,6.47-11.16,7.1Zm36.89,36.26c-1.46-1.44-2.92-2.87-4.38-4.31.66-1.32,1.4-2.6,2.13-3.86.7-1.21,1.42-2.45,2.03-3.66l2.5-4.96,1.09,5.44c1.25,6.25-.79,9.49-3.36,11.34Zm9.8-48.75c-1.56.55-3.16.83-4.77.83-5.13,0-9.53-2.76-13.79-5.42-1.02-.64-2.02-1.26-3.02-1.85l-.71-.41,1.26-3.29.8.17c2.31.49,4.54.73,6.61.73,6.37,0,11.54-2.34,14.93-6.77,4.56-5.94,5.71-15.35,3.07-25.15l-1.11-4.14,3.83,1.93c1.26.63,2.8,1.28,4.29,1.91,5.04,2.12,8.68,3.65,8.68,6.51,0,7.95-4.86,15.63-9.56,23.07-.98,1.55-1.96,3.09-2.88,4.63l-.12.2-.16.16c-1.56,1.56-2.44,2.68-3.16,3.58-1.17,1.47-2.01,2.53-4.18,3.3Zm-14.63-139.97c-.55,1.14-1.17,2.42-1.32,3.33l.75,2.26-2.97,1.73-.52-.58c-.72-.8-1.09-1.77-1.12-2.88-.53-1.6-1.66-5.05-1.66-5.05-.76-2.33-1.53-4.67-2.3-7l-.86-2.58,2.71.06c4.52.09,7.18,1.04,8.37,2.99,1.48,2.42.12,5.24-1.08,7.73Zm55.22,179.93c0,3.06-1.76,5.5-3.31,7.66-.56.78-1.13,1.57-1.59,2.35l-.41.69-3.27-1.27.16-.79c.78-3.82-1.41-6.9-3.94-10.46l-.08-.11c-.36-.5-.72-1.01-1.06-1.52l-1.58-2.3,2.72-.64c1.06-.25,2.13-.38,3.17-.38,4.84,0,8.7,2.77,9.18,6.58v.18Zm-127.47-117.63c-1.24.31-2.48.62-3.72.95l-3.51.94,1.21-3.43c4.36-12.34,14.7-13.33,23.82-14.2,1.58-.15,3.12-.3,4.59-.49l4.34-.57-2.53,3.57c-6.15,8.69-15.33,10.99-24.2,13.22Zm17.53,41.75c.1-2.74.2-5.53,0-8.13l-.17-2.29,2.28.24c.58.06,1.13.09,1.65.09,1.5,0,2.77-.26,3.78-.78.25-3.92,1.45-7.32,3.67-10.39,0-.42.01-1.69.01-1.69,0-1.1-.12-2.11-.25-3.09-.62-4.94-1.16-9.21,11.41-21.36.22-.21.56-.64.95-1.54.11-.85.3-1.61.57-2.33.16-.41.35-.81.59-1.19.27-.99.52-2.05.79-3.14l.03-.11c.79-3.27,1.68-6.97,3.1-10.05l1.04-2.27,3.62,2.98c1.89,1.55,3.75,3.09,5.64,4.65l2.04,1.69-2.24,1.41c-1.29.81-2.72,1.54-4.1,2.25-2.53,1.29-5.14,2.62-6.37,4.21-.32,1.15-.62,2.07-.94,2.86-.16,1.99.25,4.36.65,6.66.7,4.09,1.37,7.95-.8,10.59-1.6,1.93-3.61,3.52-5.74,5.19-2.18,1.71-4.41,3.47-6.18,5.62-.13,3.69-.69,8.13-3.61,10.95.24.31.92.93,2.61,2.14,1.84,1.32,3.43,2.46,2.73,4.25-3.44,8.88-4.37,17.14-3.03,26.78l.54,3.83-3.37-1.9c-11.59-6.52-11.21-16.95-10.88-26.15Zm90.92,93.52c-2.98,2.07-6.7,3.32-10.29,4.4-.27,1.38-.59,2.87-.93,4.44-.12.57-.25,1.16-.37,1.75-2.49-2.45-4.98-4.9-7.47-7.35,2.08-.83,4.27-1.49,6.38-2.11l.39-.12c1.59-1.26,4.06-2.09,6.66-2.96,1.25-.42,2.66-.89,3.78-1.37l.8-.34,1.77,3.18-.71.5Zm-5.18-230.72c2.43,0,4.24,2.15,6.15,4.43.63.75,1.26,1.49,1.84,2.07l1.47,1.47-1.59,1.35c-.69.59-1.53.88-2.5.88-1.88,0-3.86-1.12-5.96-2.31-1.42-.81-3.18-1.81-4.05-1.81-.68.87-1.46,5.42,5.55,28.32,1.42,4.66,1.39,7.9-.1,9.92-.89,1.2-2.27,1.86-3.88,1.86-3.88,0-9.08-3.79-12.08-8.82l-.04-.06-.06-.13c-2.03-5.08-5.9-20.11.15-29.5,3.07-4.77,8.11-7.34,14.96-7.66h.14Zm-164.52,55.22l1.62,3.26c4.47,8.97,8.94,17.9,13.43,26.86l.86,1.72,1.71-.86c2.02-1.01,4.03-2.02,6.06-3.03,0,0,3.38-1.68,4.6-2.29,1.54,1.96,2.9,3.53,4.24,4.9,1.26,2.32,1.44,3.23,1.47,3.5-6.09,8.24-7.24,15.98-6.8,23.45,4.73,4.63,9.61,9.42,14.61,14.32-.11.35-.18.7-.18,1.06,0,.82.33,1.63.97,2.42l.14.17.17.13c.75.58,1.52.87,2.31.87.39,0,.76-.08,1.12-.2,1.1,1.08,2.19,2.15,3.3,3.24.23-.23.45-.43.6-.52,1.27.13,2.56.39,3.83.76,4.71,4.05,9.93,7.74,15.31,11.49l.67.46,2.45-2.51-.48-.65c-4.31-5.88-10-10.2-16.05-12.2-12.03-10.52-17.11-20.87-16.45-33.51.05-.86,1.85-2.37,3.16-3.47.78-.65,1.58-1.33,2.29-2.04l2.05-2.06-2.7-1.08c-3.06-1.22-5.91-3.17-8.7-5.96-.47-.84-.98-1.71-1.49-2.58-.79-1.35-1.62-2.75-2.23-3.97l-.86-1.72-1.65.83c-.49-.66-.98-1.32-1.48-1.99-6.04-8.16-12.28-16.6-24.31-18.3l-3.61-.51Zm43.81,73.8s.09.09.13.13c-.04-.04-.09-.09-.13-.13Zm-43.13-90.74c-1.46-1.93-1.12-4.44-.5-6.85l6.89-3.08c.3.61.61,1.21.91,1.82l.1.21c1.22,2.46,2.44,4.91,3.68,7.36l1.25,2.47-2.75.3c-1.08.11-2.07.17-2.95.17-3.24,0-5.41-.79-6.63-2.4Zm-26.12,10.47c-2.4-.86-4.57-1.85-6.51-2.95l6.83-3.05c.63.39,1.25.78,1.87,1.17,5.63,3.54,10.95,6.89,17.54,6.89.7,0,1.42-.04,2.13-.12l.77-.08,1.06,3.26-.67.39c-1.14.66-2.3,1.41-3.53,2.21-3.98,2.58-8.1,5.25-12.35,5.25-2.04,0-3.92-.63-5.61-1.87-2.11-1.55-1.87-5.13-1.64-8.59.05-.7.12-1.81.11-2.5Zm57.7-2.26c-2.23-6.23-4.75-13.25-2.43-18.03.98-2.02,2.71-3.46,5.14-4.27l1.09-.36.83.79c5.93,5.6,13.25,6.35,19.63,6.35.72,0,1.43-.01,2.15-.03.92-.09,1.99-.14,3.13-.14l1.59.02.05,3.78-.93.04c-1.23.05-2.46.1-3.68.13-3.2.32-5.38,1.2-6.58,2.69-1.86,2.31-1.39,6.3-.94,10.15.53,4.53,1.08,9.21-1.8,12.42-1.34,1.49-3.05,2.28-4.96,2.28h0c-4.31,0-8.96-4.2-10.15-9.17-.46-1.94-1.28-4.23-2.15-6.65Zm90.65-69.1c-.96.18-2.17.4-3.4.66l15-6.71c.05.43.02.87-.13,1.31-.88,2.63-4.73,3.47-11.46,4.73Zm-61.77,70.53c1.42-.29,2.96-.43,4.71-.43,2.19,0,4.47.23,6.47.46.79-1.15,1.67-2.39,2.59-3.67,7.74-10.86,18.32-25.71,8.56-37.08-1.26-.93-2.38-2.01-3.31-3.21l-.52-.67,2.58-2.53.66.54c1.18.96,2.25,1.97,3.18,3.01,3.17,2.19,7.2,3.09,11.46,4.05,7.59,1.71,16.19,3.64,19.54,13.98l.81,2.5h-2.63c-1.27,0-2.53.04-3.79.07-1.29.04-2.58.07-3.87.07-2.32,0-4.23-.12-6.02-.38-.82-.12-1.6-.18-2.31-.18-6.4,0-7.34,4.51-8.04,11.38l-.07.69c.15.28.7.91,2.37,2.38,1.73,1.52,3.22,2.83,2.43,4.57-3.76,8.03-10,9.06-15.01,9.06-2.52,0-5.14-.31-7.68-.61l-.4-.05c-.82.22-1.8.33-3.05.33-1.34,0-2.82-.12-4.25-.24-1.39-.12-2.81-.24-4.01-.24h-.87l-.37-3.62.85-.17Zm73.28-56.2l2.28-1.22c2.27-1.21,4.4-3.96,6.47-6.61,2.93-3.78,5.71-7.34,9.43-7.34,1.72,0,3.4.8,4.97,2.39,2.73,2.76,3.26,6.63,1.48,10.88-2.39,5.74-8.33,10.4-13.22,10.4-.72,0-1.42-.1-2.08-.28h-.02c-1.64,0-3.01-1.45-5.48-4.23-.71-.8-1.4-1.57-1.99-2.16l-1.84-1.83Zm18.26-26.98c-.95,0-1.96-.07-2.99-.18l18.12-8.1c-2.86,4.99-7.5,8.29-15.13,8.29Zm-49,27.43c.2-2.49.34-4.9.45-7.23l8.67-3.88c-1.75,4.22,1.12,8.68,4.14,13.38.7,1.09,1.49,2.32,2.18,3.5l3.22,5.56-5.74-2.88c-1.23-.62-2.75-1.27-4.23-1.91-5.4-2.32-8.91-3.83-8.7-6.55Zm195.46,377.61c-.42-1.26-.97-2.54-1.5-3.79-1.48-3.47-3.01-7.06-2.42-11.11l.03-.14c.53-2.12,1.73-3.9,3.36-5.2l4.18,20.41-3.39.6-.26-.78Zm-56.96-295.61l5.12,24.98c-1.24,2.21-2.48,4.37-3.67,6.46-2.78,4.85-5.4,9.42-7.43,13.4-3.17,6.21-8.48,9.77-14.57,9.77-1.75,0-3.55-.29-5.37-.88-1.04,3.02-2.2,6.04-3.42,9.21-5.65,14.7-11.49,29.89-4.61,44.54,1.42,3.04-.8,6.75-3.14,10.67-.79,1.32-1.6,2.68-2.2,3.92l-.83,1.72-1.73-.83c-2.66-1.28-5.32-2.57-7.97-3.86l-7.66-3.72,1.43-1.86c1.18-1.54,2.52-3.11,3.81-4.63,5.42-6.38,11.02-12.96,7.64-19.6-.82-1.62-3.2-2.75-5.73-3.95-3.96-1.88-8.44-4.01-10.09-9.08-.91-2.78-.4-7.44.65-9.31.55-.97,1.25-1.31,1.75-1.43,26.73-6,47.53-38.77,58.02-65.51Zm-28.98,9.36c.46-1.62.94-3.3.81-4.42l-.09-.8,3.35-.99.36.72c.96,1.9,1.9,3.8,2.85,5.7,1.29,2.58,2.57,5.15,3.86,7.72l1.25,2.47-2.76.3c-1.08.11-2.07.17-2.95.17-3.24,0-5.41-.79-6.63-2.4-1.79-2.37-.87-5.61-.06-8.47Zm-1.16-51.5c12.21,2.88,23.74,5.59,23.7,13.31-.03,3.35-3.68,5.69-7.55,8.16-1.31.84-2.65,1.7-3.73,2.53l-2.45,1.9-.6-3.04c-.72-3.7-6.41-7.66-10.97-10.84-2.37-1.66-4.61-3.22-6.07-4.67-.06-.01-.16-.02-.32-.02-1.01,0-2.58.42-4.09.82-1.64.44-3.19.85-4.42.85-1.45,0-2.22-.6-2.61-1.1-3.87-5.01-4.69-11.97-5.49-18.7-.08-.68-.16-1.36-.24-2.04-.54-1.93-.84-3.92-.88-5.93l-.02-.88,3.65-.39.17.86c.38,1.95.64,3.9.85,5.57,1.48,5,4.83,8.95,8.75,10.31,3.57,1.24,8.03,2.29,12.35,3.3Zm38.45,261.56c-1.23.05-2.45.1-3.68.13-3.2.32-5.38,1.2-6.58,2.69-1.86,2.31-1.4,6.3-.94,10.15.53,4.53,1.08,9.21-1.8,12.42-.07.07-.14.14-.21.21-6.09-5.99-12.31-12.11-18.64-18.34-1.57-4.88-2.6-9.8-.83-13.44.98-2.02,2.71-3.46,5.14-4.27l1.09-.36.83.79c5.93,5.6,13.25,6.35,19.63,6.35.72,0,1.44-.01,2.16-.03.92-.09,1.99-.14,3.13-.14l1.59.02.05,3.78-.93.04Zm-62.07-322.47l-4.49-8.99,2.65-.36c15.48-2.1,21.75-11.51,28.14-21.62l6.86,33.47-1.1,1.22-1.43-1.42c-.72-.72-1.52-1.68-2.3-2.61-.52-.62-1.33-1.59-1.99-2.28-4.29,7.29-9.83,11.45-15.32,11.45-4.93,0-9.15-3.4-11.02-8.87Zm31.31,30.84c2.17-1.27,4.4-2.92,6.66-4.84l2.92,14.26c-2.38,2.72-4.83,5.64-7.42,8.87l-4.02,5.02.62-6.4c.13-1.33.38-2.84.62-4.3.22-1.34.86-5.23.64-6.24-4.39-2.68-10.79-2.82-16.98-2.96-2.64-.06-5.36-.12-7.99-.38l-4.62-.45,3.59-2.94c.64-.53,1.3-1.16,1.94-1.76,1.87-1.78,3.76-3.58,6.24-4.19.83-.21,1.7-.31,2.57-.31,4.4,0,8.37,2.54,11.57,4.58,1.28.82,2.99,1.91,3.66,2.02Zm59,292.69c-5.07,0-11.6-2.87-17.36-5.41l-.11-.05c-1.23-.54-2.43-1.07-3.57-1.55l-6.08-2.55,6.5-1.1c7.08-1.2,13.38-5.96,16.83-12.72,3.01-5.89,3.26-12.27.68-17.5-.44-.9-1.09-1.73-1.94-2.49-.93-.66-1.9-1.31-2.89-1.92-2.75-1.38-6.41-2.17-10.22-2.17-.68,0-1.36.03-2.04.07-9.38.7-10.56,5.57-12.2,12.32-1.14,4.71-2.44,10.04-7.09,14.03-3.53,3.03-8.77,6.65-13.7,6.65-.26,0-.53,0-.79-.03-5.53-.44-10.07-3.76-14.47-6.97-2.41-1.76-4.67-3.42-7.03-4.58-.09-.05-.3-.09-.62-.09-.36,0-.78.06-1.26.17-.92.51-1.85,1-2.77,1.48-1.07.56-2.14,1.13-3.15,1.7-.76.66-1.35,1.34-1.71,1.97-.32.55-.58,1.11-.81,1.68-.63-.62-1.26-1.24-1.9-1.87-.6.4-1.27.61-1.96.61-.88,0-1.83-.39-2.47-1.01-.74-.76-1.11-1.63-1.11-2.57,0-.7.21-1.36.57-1.92,1.07,1.05,2.14,2.1,3.21,3.15-.1-.1-.2-.2-.31-.3,1.32-1.09,2.79-2.03,4.29-2.88,1.95-1.63,4.44-2.97,6.69-3.62,5.67-3.2,9.14-6.46,8.93-12.76-.29-8.82-6.71-15.34-18.07-18.38l-.9-.24.88-3.68.91.2c2.35.5,4.54.76,6.5.76,10.42,0,13.94-6.82,18.4-15.45,3.93-7.61,7.98-15.47,17.59-18.75,2.22-.76,4.03-1.13,5.53-1.13,2.5,0,3.78,1.07,4.42,1.97,1.97,2.76.45,7.15-.89,11.03-.35,1.01-.68,1.96-.86,2.68-2,7.71-8.88,12.26-15.53,16.67-5.23,3.46-10.63,7.04-13.17,11.98-1.72,3.34-.12,7.26,1.53,9.97,4.16,6.82,11.82,11.75,14.96,11.76.16,0,.31-.01.42-.04,11.18-2.75,15.4-10.29,12.56-22.4l-.58-2.48,2.55.13c9.03.47,19.11,3.78,27.65,9.08,1.22.62,2.37,1.39,3.35,2.24.71.51,1.39,1.03,2.06,1.55l8.36,40.78c-.49.57-.99,1.13-1.53,1.69-1.51,1.55-3.62,2.33-6.27,2.33Zm4.89,36.91c0,7.91-4.84,15.59-9.51,23.01-.12.18-.23.36-.34.54-2.38-2.34-4.81-4.74-7.27-7.16,3.16-5.9,3.72-14.1,1.43-22.6l-1.11-4.14,3.83,1.93c1.25.63,2.79,1.28,4.29,1.91,5.05,2.12,8.69,3.65,8.69,6.51Zm-18.58-110.63c3.32,0,4.91,2.41,6.08,4.16.31.47.95,1.43,1.22,1.54,0,0,.04-.01.11-.03.25-.08.53-.36.81-.76l1.31,6.39c-3.11.3-6.25.51-9.38.51-4.55,0-8.59-.43-12.33-1.32l-3.33-.79,2.41-2.43c2.04-2.05,9.85-7.28,13.11-7.28Zm23.43,79.14l2.46,12c-2.29-2.47-4.58-5.26-6.65-9.26l-1.72-3.33,3.71.55c.4.06.82.09,1.24.09.33,0,.65-.02.97-.06Zm-41.37-148.99c.9-4.65,1.89-9.79,7.83-14.73l4.41,21.54c-.94.09-1.79.23-2.59.43-3.28.83-6.24,2.46-9.37,4.19-1.15.64-2.46,1.35-3.75,2l-.8.4-1.89-3.17.73-.51c4-2.8,4.62-6.05,5.42-10.16Zm16.28,26.99s.07,0,.1,0l2.12,10.33c-1.98.77-4.23,1.15-6.77,1.15-2.11,0-4.41-.25-7.44-.8l-2.41-.44,1-2.23c3.2-7.1,8.84-8.01,13.39-8.01Zm-89.41,12.4c-1.5,3.21-5.17,4.22-8.42,5.12-2.79.77-5.43,1.49-6.07,3.27l-1.42,3.94-2.05-3.65c-2.4-4.27-2.96-7.31-1.77-9.56,1.58-2.96,5.4-3.28,9.1-3.58,2.34-.19,5.25-.43,5.97-1.46.3-.42.3-1.17.01-2.23l-.23-.85,3.46-1.25.37.8c1.81,3.98,2.15,7.07,1.05,9.44Zm3.55-104.74c4.77-5.53,8.54-9.9,3.89-17.09l-1.16-1.8,1.92-.96c1.39-.7,2.81-1.62,4.19-2.52,3.32-2.16,6.75-4.4,10.89-4.4,2.6,0,5.1.88,7.65,2.69l2.23,1.58-2.25,1.56c-14.94,10.32-19.04,24.32-23.38,39.14-1.56,5.33-3.18,10.84-5.33,16.11l-1.07,2.62-2.03-1.97c-3.83-3.7-3.27-7.89-2.81-11.25.22-1.62.42-3.13.12-4.34-2.18-8.55,2.78-14.3,7.15-19.37Zm-48.85,115.46c-3.26.24-6.43.48-9.02,2.29.13.12.25.25.38.37-.09.12-.18.25-.28.36-.72.71-1.67,1.11-2.58,1.11-.78,0-1.56-.29-2.3-.87l-.11-.08-.09-.1c-.68-.69-1.08-1.64-1.08-2.54,0-.85.31-1.68.9-2.41l.09-.11.11-.1c.09-.09.2-.15.3-.23.05.05.1.1.15.14.08-.08.17-.16.26-.24,3.93-3.76,7.99-7.64,11.14-12.94.93-1.57,2.57-2.47,4.49-2.47,2.65,0,5.83,1.66,7.91,4.13,1.46,1.74,2.11,3.63,1.82,5.31-1.29,7.59-7.02,8.01-12.07,8.38Zm177.65,185.95c-.52-.51-1.06-1.04-1.59-1.57.03.19.06.39.06.59,0,.37-.07.72-.17,1.06l-6.47-2.92c.18-.29.38-.56.63-.78.65-.61,1.49-.94,2.4-.94.19,0,.38.02.57.05.78.77,1.55,1.52,2.31,2.28-.42-.41-.82-.81-1.24-1.22.7-1.06,1.42-2.1,2.15-3.12l1.34,6.56ZM56.09,333.91c0,1.05-.42,2.01-1.16,2.61-.82.66-1.61.97-2.43.97-.9,0-1.85-.4-2.54-1.08-.66-.67-1.04-1.62-1.04-2.5,0-.94.37-1.82,1.06-2.53.62-.67,1.53-1.05,2.5-1.05.92,0,1.81.34,2.46.95.54.47,1.16,1.3,1.16,2.63Zm41.58-113.52c-.88,0-1.83-.39-2.47-1.01-.71-.72-1.11-1.67-1.11-2.57,0-.85.31-1.68.89-2.41l.06-.08.07-.07c.65-.65,1.55-1.01,2.53-1.01s1.83.33,2.51.94l.08.08c.47.47,1.02,1.29,1.02,2.56,0,.89-.39,1.84-1.01,2.47l-.08.08-.09.07c-.8.65-1.59.96-2.41.96Zm-26.13,15.53c-.55-.7-.88-1.59-.88-2.39,0-.85.31-1.68.89-2.41l.1-.12.12-.11c.68-.61,1.56-.94,2.48-.94s1.8.33,2.48.94l.08.08c.47.47,1.02,1.29,1.02,2.56,0,.89-.39,1.84-1.01,2.47-.72.71-1.67,1.11-2.58,1.11-1.14,0-2.05-.61-2.38-.88l-.18-.14-.14-.18Zm-6.51,108.81c.71.71,1.09,1.6,1.09,2.56,0,.89-.39,1.84-1.01,2.48l-.08.08-.09.07c-.8.65-1.59.96-2.41.96-.9,0-1.85-.41-2.55-1.09-.68-.7-1.04-1.58-1.04-2.5,0-1.03.44-2,1.17-2.63.62-.58,1.49-.92,2.4-.92s1.77.32,2.43.91l.08.07Zm58.54-85.39l.08.08c.47.47,1.02,1.29,1.02,2.56,0,.8-.33,1.69-.87,2.39l-.2.25-.27.17c-.56.36-1.32.78-2.25.78s-1.83-.39-2.47-1.01c-.71-.72-1.11-1.67-1.11-2.57s.38-1.84,1.03-2.5c.62-.68,1.55-1.1,2.56-1.1.91,0,1.79.34,2.48.96Zm-62.71,71.47c-.94,0-1.82-.37-2.54-1.08-.66-.68-1.05-1.62-1.05-2.51s.31-1.68.89-2.41l.07-.08.07-.07c.65-.65,1.55-1.01,2.53-1.01s1.83.33,2.51.94l.08.08c.65.65,1.02,1.59,1.02,2.56,0,.89-.39,1.84-1.01,2.47-.73.71-1.68,1.12-2.58,1.12Zm78.63-81.98c-.9,0-1.85-.41-2.54-1.09-.68-.7-1.04-1.58-1.04-2.5,0-.85.31-1.68.89-2.41l.06-.08.07-.07c.64-.64,1.56-1.01,2.53-1.01s1.82.34,2.46.95c.54.47,1.16,1.3,1.16,2.63,0,.89-.39,1.84-1.01,2.48l-.08.08-.09.07c-.8.65-1.59.96-2.41.96Zm-66.92,95.36c-.94,0-1.82-.38-2.54-1.08l-.09-.09-.08-.1c-.58-.73-.88-1.53-.88-2.32,0-.94.37-1.82,1.06-2.53.62-.67,1.53-1.05,2.51-1.05s1.82.33,2.5.94l.12.1.1.12c.58.72.89,1.55.89,2.41,0,.93-.36,1.81-1.01,2.48-.74.73-1.63,1.11-2.57,1.11Zm5.02-148.89c-.62,0-1.21-.18-1.76-.5l1.33-6.63c.14-.02.28-.04.42-.04.93,0,1.79.34,2.44.95.73.65,1.15,1.6,1.15,2.63,0,.89-.39,1.84-1.01,2.48-.72.71-1.68,1.11-2.58,1.11Zm-19.83,128.58c0,.89-.39,1.84-1.01,2.47-.72.71-1.68,1.11-2.58,1.11s-1.85-.4-2.54-1.08c-.68-.7-1.04-1.58-1.04-2.5,0-.85.31-1.68.89-2.41l.07-.08.07-.07c.65-.65,1.55-1.01,2.53-1.01s1.83.33,2.51.94l.08.07c.65.65,1.03,1.59,1.03,2.56Zm39.04-69.44c-.65-.67-1.04-1.62-1.04-2.5s.31-1.68.89-2.41l.1-.12.12-.11c.68-.6,1.55-.94,2.45-.94s1.77.33,2.45.94c.51.42,1.17,1.26,1.17,2.64,0,.89-.39,1.84-1.01,2.48-.75.74-1.63,1.11-2.58,1.11s-1.82-.38-2.54-1.09Zm35.17,41.86c-.69.68-1.6,1.05-2.51,1.05s-1.85-.4-2.54-1.08c-.65-.67-1.04-1.62-1.04-2.5s.31-1.68.89-2.41l.06-.08.07-.07c.65-.65,1.55-1.01,2.53-1.01s1.83.33,2.51.94l.12.11.1.13c.58.72.88,1.55.88,2.41,0,.94-.37,1.82-1.08,2.54Zm-51.04-83.1c.92,0,1.79.35,2.45.98.54.48,1.15,1.3,1.15,2.62,0,.93-.36,1.81-1.01,2.48l-.08.08-.09.07c-.8.65-1.59.96-2.41.96s-1.64-.3-2.39-.88l-.24-.19-.17-.26c-.34-.51-.79-1.3-.79-2.26s.37-1.81,1.06-2.53c.63-.68,1.55-1.08,2.52-1.08Zm-4.12,144.91c.47.47,1.03,1.3,1.03,2.56,0,0,0,0,0,0l-5.98-2.7c.65-.57,1.51-.91,2.41-.91.97,0,1.88.37,2.55,1.04Zm26.52-155.72c-.58-.73-.88-1.53-.88-2.32,0-.01,0-.02,0-.04,1.21,1.18,2.44,2.38,3.7,3.61-.04,0-.08.01-.11.01-.9,0-1.85-.41-2.54-1.09l-.09-.08-.07-.09Zm3.61,83.8c-.72.71-1.68,1.11-2.58,1.11-.78,0-1.56-.29-2.31-.87l-.11-.08-.09-.1c-.68-.69-1.08-1.64-1.08-2.54,0-.85.31-1.68.89-2.41l.12-.15.14-.12c.72-.61,1.57-.93,2.45-.93s1.77.34,2.47.96l.08.08c.47.47,1.02,1.29,1.02,2.56,0,.89-.39,1.84-1.01,2.47Zm-6.8,26.79c-.68-.7-1.04-1.58-1.04-2.5s.37-1.82,1.06-2.53c.62-.67,1.53-1.05,2.51-1.05s1.82.33,2.5.94l.08.08c.64.64,1.02,1.6,1.02,2.56s-.37,1.82-1.08,2.54c-.69.68-1.6,1.05-2.51,1.05s-1.82-.38-2.54-1.09Zm13.4-85.33c.63-.68,1.56-1.08,2.55-1.08s1.87.37,2.54,1.04c.64.65,1.03,1.6,1.03,2.56s-.37,1.82-1.07,2.54c-.69.68-1.6,1.05-2.51,1.05s-1.82-.38-2.54-1.09c-.68-.7-1.04-1.58-1.04-2.5s.37-1.82,1.06-2.53Zm78.68,61.98c-.71-.72-1.11-1.68-1.11-2.57,0-.05.01-.1.01-.15,1.26,1.24,2.52,2.47,3.78,3.71-.07,0-.14.02-.21.02-.88,0-1.83-.39-2.47-1.01Zm9.81,65.06c-.55-.7-.88-1.59-.88-2.39,0-.85.31-1.68.9-2.41l.1-.12.12-.1c.68-.61,1.56-.94,2.48-.94s1.8.33,2.48.94l.12.11.1.12c.58.72.89,1.56.89,2.41,0,.94-.37,1.82-1.08,2.54-.69.67-1.59,1.04-2.51,1.04-1.14,0-2.05-.62-2.39-.88l-.18-.14-.14-.18Zm34.25,4.3c0-.94.37-1.82,1.06-2.53.62-.67,1.53-1.05,2.51-1.05s1.82.33,2.5.94l.12.11.1.12c.58.72.88,1.55.88,2.41,0,1.02-.4,1.95-1.09,2.56-.69.65-1.62,1.03-2.49,1.03s-1.83-.39-2.47-1.01c-.74-.75-1.12-1.63-1.12-2.58Zm-104.61-37.89c-.34-.51-.79-1.3-.79-2.26,0-.85.31-1.68.89-2.41l.1-.12.12-.11c.68-.6,1.56-.94,2.47-.94s1.84.36,2.5,1.01c.72.72,1.1,1.6,1.1,2.57s-.36,1.82-1.01,2.48c-.71.7-1.67,1.11-2.57,1.11-1.14,0-2.05-.61-2.38-.88l-.25-.19-.17-.26Zm53.8,28.56l.08.07c.47.47,1.03,1.29,1.03,2.56,0,1.05-.42,2.01-1.16,2.62-.81.66-1.6.97-2.43.97s-1.56-.29-2.31-.87l-.11-.08-.09-.1c-.68-.69-1.08-1.64-1.08-2.54,0-.85.31-1.68.9-2.41l.09-.11.11-.1c.69-.63,1.57-.98,2.48-.98s1.8.34,2.49.97Zm5.11-36.71c-.72.71-1.67,1.11-2.58,1.11s-1.83-.39-2.47-1.01c-.71-.73-1.12-1.68-1.12-2.58,0-.85.31-1.68.89-2.41l.09-.12.11-.1c.69-.63,1.57-.98,2.48-.98s1.8.34,2.49.96l.08.08c.47.47,1.02,1.29,1.02,2.56,0,.89-.39,1.84-1.01,2.47Zm53.47,72.41c-.68-.69-1.08-1.64-1.08-2.54,0-.85.31-1.68.89-2.41l.09-.12.11-.1c.69-.63,1.57-.98,2.48-.98s1.8.34,2.49.96l.08.07c.47.47,1.03,1.29,1.03,2.56,0,.85-.29,1.65-.88,2.39l-.14.18-.18.14c-.71.56-1.58.88-2.39.88s-1.56-.29-2.31-.87l-.11-.08-.09-.1Zm-56.82-52.33c-.72.71-1.67,1.11-2.58,1.11-.78,0-1.56-.29-2.3-.87l-.11-.08-.09-.1c-.68-.69-1.08-1.64-1.08-2.54,0-.85.31-1.68.9-2.41l.1-.12.12-.1c.68-.61,1.56-.94,2.48-.94s1.81.33,2.48.94l.08.07c.47.47,1.03,1.29,1.03,2.56,0,.89-.39,1.84-1.01,2.48Zm40.06,14.96l.08.07c.47.47,1.03,1.29,1.03,2.56,0,.8-.33,1.69-.87,2.39l-.2.25-.27.17c-.56.36-1.32.78-2.25.78-.78,0-1.56-.29-2.31-.87l-.1-.08-.09-.09c-.68-.69-1.09-1.64-1.09-2.54,0-.85.31-1.68.89-2.41l.1-.12.12-.11c.68-.61,1.56-.94,2.48-.94s1.81.33,2.48.94Zm10.1,5.21c-.74-.75-1.11-1.63-1.11-2.57,0-1.04.45-2.04,1.21-2.67.67-.59,1.53-.91,2.42-.91s1.77.33,2.45.94l.12.11.1.13c.58.72.88,1.55.88,2.41,0,1.02-.4,1.95-1.09,2.56-.69.65-1.62,1.03-2.5,1.03s-1.83-.39-2.47-1.02Zm49.4,27.72c1.17,1.15,2.33,2.3,3.5,3.44,0,.04.01.09.01.13,0,.94-.36,1.82-1.01,2.48-.75.73-1.63,1.11-2.57,1.11-.88,0-1.83-.39-2.47-1.01-.71-.72-1.12-1.68-1.12-2.58,0-1.03.44-2,1.17-2.64.65-.61,1.5-.94,2.43-.94.02,0,.04,0,.07,0Zm-34.48,2.64c-.64-.78-.97-1.6-.97-2.42s.31-1.68.89-2.41l.06-.08.07-.07c.67-.67,1.57-1.04,2.52-1.04s1.82.34,2.52.96l.08.08c.64.64,1.02,1.6,1.02,2.56,0,1.02-.4,1.94-1.09,2.55-.71.68-1.57,1.03-2.5,1.03s-1.83-.39-2.47-1.01l-.08-.07-.07-.08Zm8.37-18.81c-.64-.78-.97-1.6-.97-2.42s.31-1.68.9-2.41l.12-.15.14-.12c.72-.61,1.57-.93,2.44-.93.39,0,.77.08,1.14.21.74.72,1.47,1.45,2.21,2.17.14.39.23.8.23,1.22,0,.93-.36,1.81-1.01,2.48-.74.73-1.63,1.11-2.57,1.11-.78,0-1.56-.29-2.31-.87l-.17-.13-.14-.17Zm-97.52-59.3c0,.85-.29,1.65-.87,2.39l-.14.18-.18.14c-.71.56-1.58.88-2.39.88-1.14,0-2.05-.62-2.39-.88l-.18-.14-.14-.18c-.55-.7-.88-1.59-.88-2.39,0-.85.31-1.68.89-2.41l.06-.08.07-.07c.67-.67,1.57-1.04,2.52-1.04s1.82.34,2.52.96l.08.08c.47.47,1.02,1.29,1.02,2.56Zm-.89,15.99c.58.72.89,1.56.89,2.41s-.39,1.84-1.01,2.47l-.08.08-.09.07c-.8.65-1.59.96-2.41.96-.88,0-1.83-.39-2.47-1.01-.71-.72-1.11-1.67-1.11-2.57,0-.85.31-1.68.9-2.41l.1-.12.12-.1c.68-.61,1.56-.94,2.48-.94s1.8.33,2.48.94l.12.11.1.12Zm48.33,43.43c-.71-.72-1.08-1.6-1.08-2.54,0-.85.31-1.68.89-2.41l.09-.12.11-.1c.69-.63,1.57-.98,2.48-.98s1.78.35,2.45.98c.54.47,1.16,1.3,1.16,2.63,0,.89-.39,1.84-1.01,2.48-.72.71-1.67,1.11-2.58,1.11-.78,0-1.56-.29-2.31-.87l-.1-.08-.09-.09Zm-1.79-30.24c-.64-.78-.97-1.6-.97-2.42s.31-1.68.89-2.41l.1-.12.12-.11c.68-.6,1.56-.94,2.48-.94s1.8.33,2.48.94l.12.11.1.13c.58.72.88,1.55.88,2.41,0,.93-.36,1.81-1.01,2.48-.75.74-1.63,1.11-2.58,1.11-.88,0-1.83-.39-2.47-1.01l-.08-.07-.07-.08Zm43.61,15.18c-.68-.69-1.08-1.64-1.08-2.54,0-.36.07-.71.17-1.05,1.51,1.48,3.01,2.96,4.52,4.44-.37.12-.74.19-1.1.19-.78,0-1.56-.29-2.31-.87l-.11-.08-.09-.1Zm-48.52,26.77c-.71-.72-1.08-1.6-1.08-2.54,0-.85.31-1.68.9-2.41l.09-.11.11-.1c.69-.63,1.57-.98,2.48-.98s1.8.34,2.49.97l.08.07c.65.65,1.02,1.59,1.02,2.56,0,.89-.39,1.84-1.01,2.47-.72.71-1.68,1.11-2.58,1.11-.78,0-1.56-.29-2.31-.87l-.11-.08-.09-.1Zm15.12-20.14c-.75.74-1.63,1.11-2.58,1.11s-1.82-.38-2.54-1.08l-.09-.08-.08-.1c-.58-.73-.88-1.54-.88-2.33,0-.85.31-1.68.9-2.41l.06-.08.07-.07c.66-.66,1.59-1.04,2.55-1.04s1.82.35,2.51.98l.11.1.09.12c.58.72.89,1.55.89,2.41,0,.93-.36,1.81-1.01,2.48Zm-137.28-87.09l.08.08c.47.47,1.02,1.29,1.02,2.56,0,1.05-.42,2.01-1.16,2.62-.81.66-1.6.97-2.43.97-.88,0-1.83-.39-2.47-1.01-.71-.72-1.11-1.67-1.11-2.57,0-.85.31-1.68.89-2.41l.1-.12.12-.11c.68-.61,1.56-.94,2.48-.94s1.8.33,2.48.94Zm210.87,146.03c.47.47,1.03,1.3,1.03,2.56,0,1.02-.4,1.95-1.09,2.56-.71.68-1.58,1.03-2.5,1.03s-1.86-.41-2.49-1.09c-.7-.64-1.1-1.54-1.1-2.5,0-1.01.42-1.97,1.13-2.6.62-.62,1.51-.97,2.47-.97s1.91.37,2.55,1.01Zm-29.09-44.68c0,.89-.39,1.84-1.01,2.48-.72.71-1.68,1.11-2.58,1.11s-1.83-.39-2.47-1.01c-.71-.72-1.11-1.67-1.11-2.57,0-.85.31-1.68.9-2.41l.09-.11.11-.1c.69-.63,1.57-.98,2.48-.98s1.8.34,2.49.97l.12.11.1.12c.58.72.89,1.55.89,2.41Zm12.36,53.05c.47.47,1.02,1.29,1.02,2.56,0,.93-.36,1.81-1.01,2.48-.75.74-1.63,1.11-2.58,1.11s-1.81-.37-2.47-1.01c-.71-.72-1.11-1.67-1.11-2.57,0-1.02.44-2,1.17-2.63.65-.61,1.51-.94,2.43-.94s1.8.33,2.47.94l.08.08Zm-9.26-32.33c-.88,0-1.83-.39-2.47-1.01-.71-.72-1.11-1.67-1.11-2.57,0-1.03.44-2,1.17-2.64.65-.61,1.51-.94,2.43-.94s1.8.33,2.47.94l.08.08c.64.64,1.02,1.6,1.02,2.56s-.36,1.81-1.01,2.48c-.75.74-1.63,1.11-2.58,1.11Zm6.93,53.29c0,.85-.29,1.65-.87,2.39l-.14.18-.18.14c-.3.23-.63.42-.96.56l-4.81-2.17c-.12-.36-.21-.73-.21-1.1,0-.85.31-1.68.89-2.41l.12-.15.15-.12c.72-.6,1.57-.92,2.44-.92s1.76.35,2.42.98c.54.47,1.16,1.3,1.16,2.63Zm9.8-46.6c-.88,0-1.83-.39-2.47-1.01-.71-.72-1.11-1.68-1.11-2.57,0-.96.39-1.92,1.03-2.56l.07-.07.08-.06c.7-.57,1.56-.88,2.43-.88.94,0,1.82.36,2.47,1,.72.72,1.1,1.61,1.1,2.57s-.36,1.81-1.01,2.48c-.75.74-1.63,1.11-2.58,1.11Zm9.25,50.73c.47.47,1.03,1.3,1.03,2.56,0,1.02-.4,1.95-1.09,2.56-.71.68-1.58,1.03-2.5,1.03s-1.86-.41-2.49-1.09c-.7-.64-1.1-1.54-1.1-2.5,0-1.01.42-1.97,1.13-2.6.62-.62,1.51-.97,2.47-.97s1.91.37,2.55,1.01Zm-5.91-13.92c-.88,0-1.83-.39-2.47-1.01-.74-.75-1.11-1.63-1.11-2.57,0-.85.31-1.68.89-2.41l.13-.16.16-.13c.7-.57,1.56-.88,2.44-.88s1.78.33,2.46.94l.12.11.1.13c.58.72.88,1.55.88,2.41,0,.8-.33,1.69-.87,2.39l-.14.18-.18.14c-.71.56-1.58.88-2.39.88Zm-10.82-22.88c.65.65,1.02,1.59,1.02,2.56s-.36,1.81-1.01,2.48c-.75.74-1.63,1.11-2.58,1.11s-1.81-.37-2.47-1.01c-.71-.72-1.11-1.67-1.11-2.57,0-.85.31-1.68.89-2.41l.1-.12.12-.11c.68-.61,1.56-.94,2.48-.94s1.8.33,2.48.94l.08.08Zm-14.92-4.87c.58.72.89,1.55.89,2.41,0,1.02-.4,1.95-1.09,2.56-.69.65-1.61,1.03-2.5,1.03s-1.83-.39-2.47-1.01c-.74-.75-1.11-1.63-1.11-2.57s.37-1.81,1.06-2.53c.62-.67,1.53-1.05,2.51-1.05s1.82.33,2.5.94l.12.11.1.12Zm-16.87,3.19c.47.47,1.03,1.29,1.03,2.56,0,.94-.36,1.82-1.02,2.48-.74.73-1.63,1.11-2.57,1.11-.88,0-1.83-.39-2.47-1.01l-.08-.07-.07-.08c-.64-.78-.97-1.6-.97-2.42s.31-1.68.89-2.41l.07-.08.07-.07c.67-.67,1.57-1.04,2.52-1.04s1.82.34,2.52.97l.08.07Zm-5.91-12.25c-.88,0-1.83-.39-2.47-1.01l-.08-.07-.07-.08c-.64-.78-.97-1.6-.97-2.42s.31-1.68.89-2.41l.09-.12.11-.1c.69-.63,1.58-.98,2.51-.98s1.88.38,2.54,1.04c.65.65,1.03,1.59,1.03,2.56s-.36,1.81-1.01,2.48c-.75.74-1.63,1.11-2.58,1.11Zm4.38,30.81c.58.72.88,1.55.88,2.41,0,1.02-.4,1.95-1.09,2.56-.26.24-.56.44-.87.6l-5.09-2.3c-.07-.28-.12-.57-.12-.86,0-1.04.45-2.04,1.21-2.67.67-.59,1.53-.91,2.42-.91s1.77.33,2.45.94l.12.11.1.13Zm16.59-11.87c.47.47,1.02,1.29,1.02,2.56,0,1.02-.4,1.95-1.09,2.56-.71.68-1.58,1.03-2.5,1.03s-1.82-.38-2.54-1.09c-.68-.7-1.04-1.58-1.04-2.5,0-.85.31-1.68.89-2.41l.13-.16.16-.13c.7-.57,1.56-.88,2.44-.88s1.78.33,2.46.94l.08.08Zm-3.35,20.07c.47.47,1.03,1.29,1.03,2.56,0,.52-.15,1.06-.38,1.54l-6.5-2.93c.15-.35.34-.7.6-1.02l.13-.16.16-.13c.7-.57,1.56-.88,2.44-.88s1.78.33,2.46.94l.08.08Zm-5.08-31.69c-.71.68-1.57,1.03-2.5,1.03-.78,0-1.56-.29-2.31-.87l-.17-.13-.14-.17c-.65-.78-.97-1.6-.97-2.42s.31-1.68.89-2.41l.09-.12.11-.1c.69-.63,1.57-.98,2.48-.98s1.8.34,2.49.96l.08.08c.64.64,1.02,1.6,1.02,2.56,0,1.02-.4,1.94-1.09,2.55Zm138.27,91.13c0,1.05-.42,2.01-1.16,2.61-.42.34-.84.59-1.25.75l-4.49-2.03c-.18-.43-.27-.87-.27-1.34,0-1.03.44-2,1.17-2.64.65-.61,1.49-.94,2.4-.94s1.76.33,2.44.94c.51.43,1.17,1.27,1.17,2.64Zm-13.38-16.73c0,.93-.36,1.81-1.01,2.48-.75.74-1.63,1.11-2.58,1.11-.88,0-1.83-.39-2.47-1.01-.74-.75-1.12-1.63-1.12-2.58,0-1,.36-1.89,1.03-2.56l.06-.06.07-.06c.72-.6,1.57-.92,2.44-.92s1.76.35,2.42.98c.54.47,1.15,1.3,1.15,2.63Zm-22.63-.73c.58.72.88,1.55.88,2.41,0,.93-.36,1.81-1.01,2.48-.18.18-.37.33-.57.47l-5.55-2.51c-.02-.15-.04-.29-.04-.44,0-.85.31-1.68.89-2.41l.1-.12.12-.11c.68-.61,1.56-.94,2.48-.94s1.8.33,2.48.94l.12.11.1.13Zm-6.05-5.72c-.91,0-1.81-.37-2.47-1.01-.71-.72-1.11-1.67-1.11-2.57,0-.85.31-1.68.89-2.41l.1-.12.12-.11c.68-.61,1.56-.94,2.47-.94s1.79.34,2.44.95c.73.65,1.15,1.6,1.15,2.63,0,.94-.36,1.82-1.01,2.48-.75.73-1.63,1.11-2.57,1.11Zm1.67-13.38c-.96,0-1.86-.4-2.5-1.1-.7-.64-1.09-1.54-1.09-2.49,0-1.03.44-2,1.17-2.64.62-.58,1.51-.91,2.44-.91s1.8.32,2.46.91l.12.11.1.13c.58.72.88,1.55.88,2.41,0,.94-.36,1.82-1.01,2.48-.74.73-1.63,1.11-2.57,1.11Zm20.08,10.04c-.92,0-1.86-.41-2.49-1.09-.7-.64-1.1-1.54-1.1-2.5,0-1.01.42-1.97,1.13-2.6.62-.62,1.5-.97,2.44-.97.73,0,1.42.2,2.01.58.31.31.62.61.93.91.43.64.67,1.36.67,2.09,0,1.32-.58,2.11-1.1,2.56-.69.65-1.61,1.03-2.49,1.03Zm-133.6-116.08c0,1.05-.42,2.01-1.16,2.62-.82.66-1.6.97-2.43.97s-1.56-.29-2.3-.87l-.11-.08-.09-.09c-.71-.72-1.09-1.6-1.09-2.55,0-.85.31-1.68.9-2.41l.13-.16.16-.13c.71-.58,1.54-.88,2.41-.88s1.75.33,2.43.94c.51.42,1.17,1.26,1.17,2.64Zm167.95,150.08c.65.65,1.02,1.59,1.02,2.56,0,.39-.08.76-.19,1.12l-6.47-2.92c.15-.26.33-.5.55-.73.62-.67,1.53-1.05,2.51-1.05s1.82.33,2.5.94l.08.08Zm-15.11-23.34c-.26-.27-.47-.58-.64-.9.52.51,1.04,1.02,1.56,1.53-.24-.12-.48-.27-.72-.45l-.11-.08-.09-.1Zm-76.77-28.37c.58.72.89,1.55.89,2.41s-.39,1.84-1.01,2.48c-.72.71-1.67,1.11-2.58,1.11-.78,0-1.56-.29-2.31-.87l-.1-.08-.09-.09c-.71-.72-1.08-1.6-1.08-2.54,0-1.04.45-2.04,1.21-2.67.67-.58,1.53-.91,2.41-.91s1.77.33,2.45.94l.12.11.1.12Zm-5.11-30.09l-.09-.09c-.71-.72-1.08-1.6-1.08-2.54,0-.85.31-1.68.89-2.41l.13-.16.16-.13c.7-.57,1.56-.88,2.44-.88s1.78.33,2.46.94l.08.07c.47.47,1.03,1.29,1.03,2.56,0,1.06-.42,2.01-1.16,2.62-.81.66-1.6.97-2.42.97s-1.56-.29-2.31-.87l-.1-.08Zm3.3,39.97c.65.65,1.03,1.59,1.03,2.56,0,.24-.03.49-.09.73l-6.38-2.88c.06-.09.11-.18.18-.26l.06-.08.07-.07c.67-.67,1.58-1.04,2.55-1.04s1.91.38,2.57,1.04Zm5.02-25.09c.47.47,1.02,1.29,1.02,2.56,0,.8-.33,1.69-.87,2.39l-.14.18-.18.14c-.71.56-1.58.88-2.39.88-.88,0-1.83-.39-2.47-1.01-.74-.76-1.11-1.63-1.11-2.57,0-.85.31-1.68.89-2.41l.09-.12.11-.1c.69-.63,1.57-.98,2.48-.98s1.8.34,2.49.96l.08.08Zm15.19,16.88c.58.72.88,1.55.88,2.41,0,.93-.36,1.81-1.01,2.48-.75.74-1.63,1.11-2.58,1.11-.88,0-1.83-.39-2.47-1.01l-.07-.07-.07-.08c-.65-.78-.97-1.6-.97-2.42s.31-1.68.89-2.41l.1-.12.12-.11c.68-.6,1.56-.94,2.48-.94s1.8.33,2.48.94l.12.11.1.13Zm0,13.38c.58.72.88,1.55.88,2.41,0,.8-.33,1.69-.87,2.39l-.14.18-.18.14c-.51.4-1.1.67-1.69.8l-3.77-1.7c-.34-.56-.53-1.17-.53-1.81,0-.85.31-1.68.89-2.41l.09-.12.11-.1c.69-.63,1.57-.98,2.48-.98s1.8.34,2.49.96l.12.11.1.13Zm-5.21-45.24c-.71-.72-1.09-1.6-1.09-2.54,0-.74.25-1.47.7-2.12,1.69,1.67,3.38,3.33,5.06,4.98-.67.46-1.44.73-2.17.73-.78,0-1.56-.29-2.31-.87l-.1-.08-.09-.09Zm6.74,11.62c.47.47,1.02,1.29,1.02,2.56,0,1.05-.42,2.01-1.16,2.62-.81.66-1.6.97-2.43.97s-1.56-.29-2.31-.87l-.11-.08-.09-.1c-.68-.69-1.08-1.64-1.08-2.54,0-.85.31-1.68.89-2.41l.09-.12.11-.1c.69-.63,1.57-.98,2.48-.98s1.8.34,2.49.96l.08.08Zm-115.34-10.91c.39.11.76.27,1.09.49l-1.09-.49Zm-89.41-52.18c0,1.02-.4,1.95-1.09,2.56-.69.65-1.61,1.03-2.49,1.03s-1.83-.39-2.47-1.01c-.71-.72-1.12-1.68-1.12-2.58,0-.85.31-1.68.9-2.41l.09-.11.11-.1c.69-.63,1.57-.98,2.48-.98s1.78.35,2.45.98c.54.47,1.16,1.3,1.16,2.63Zm10.7-22.61c-.74.73-1.63,1.11-2.57,1.11-.84,0-1.64-.3-2.38-.88l-.25-.19-.17-.26c-.34-.51-.79-1.3-.79-2.26,0-.85.31-1.68.89-2.41l.1-.12.12-.11c.68-.6,1.56-.94,2.47-.94s1.84.36,2.5,1.01c.72.72,1.1,1.6,1.1,2.57s-.36,1.81-1.01,2.48Zm-8.37-6.71c.47.47,1.02,1.29,1.02,2.56,0,.93-.36,1.81-1.01,2.48-.75.74-1.63,1.11-2.58,1.11-.88,0-1.83-.39-2.47-1.01l-.08-.07-.07-.08c-.64-.78-.97-1.6-.97-2.42s.31-1.68.89-2.41l.09-.12.11-.1c.69-.63,1.57-.98,2.48-.98s1.8.34,2.49.96l.08.08Zm104.75,31c0,.96-.37,1.89-1.01,2.54l-.15.15-.18.12c-.56.36-1.32.78-2.25.78s-1.81-.36-2.48-1.02c-.71-.72-1.11-1.67-1.11-2.57,0-.85.31-1.68.89-2.41l.12-.15.14-.12c.72-.61,1.57-.93,2.44-.93s1.76.35,2.42.98c.54.47,1.15,1.3,1.15,2.63Zm-91.43-19.29c.71.71,1.09,1.6,1.09,2.56s-.36,1.81-1.01,2.48l-.08.08-.09.07c-.8.65-1.59.96-2.41.96-.9,0-1.85-.41-2.54-1.08-.68-.7-1.05-1.58-1.05-2.5,0-1.01.42-1.96,1.13-2.6.62-.62,1.48-.98,2.41-.98s1.79.33,2.47.94l.08.07Zm3.41-8.36c.65.65,1.03,1.59,1.03,2.56,0,1.06-.42,2.01-1.16,2.62-.81.66-1.6.97-2.43.97s-1.56-.29-2.31-.87l-.11-.08-.09-.1c-.68-.69-1.08-1.64-1.08-2.54,0-.85.31-1.68.9-2.41l.09-.11.11-.1c.69-.63,1.57-.98,2.48-.98s1.8.34,2.49.97l.08.07Zm-3.4,38.82c.72.73,1.08,1.61,1.08,2.62,0,.93-.36,1.81-1.01,2.48l-.08.08-.09.07c-.23.19-.46.34-.69.47l-5.23-2.36c-.05-.24-.08-.49-.08-.74,0-.85.31-1.68.89-2.41l.06-.08.07-.07c.66-.66,1.56-1.02,2.54-1.02.86,0,1.69.28,2.34.8l.1.07.09.09Zm-27.6-39.36c-.88,0-1.83-.39-2.47-1.01-.71-.72-1.11-1.67-1.11-2.57,0-.85.31-1.68.9-2.41l.12-.15.14-.12c.72-.61,1.57-.93,2.45-.93s1.77.34,2.47.97l.08.07c.47.47,1.03,1.29,1.03,2.56,0,1.02-.4,1.94-1.09,2.55-.71.68-1.57,1.03-2.5,1.03Zm-13.35,26.96l-4.71-2.12c.4-.16.84-.24,1.29-.24.92,0,1.82.35,2.47.98.35.3.72.76.95,1.39Zm7.49-9.76c.72.73,1.08,1.61,1.08,2.63,0,.93-.36,1.81-1.01,2.48l-.08.08-.09.07c-.8.65-1.59.96-2.41.96-.9,0-1.85-.41-2.54-1.09-.68-.7-1.04-1.58-1.04-2.5,0-.85.31-1.68.9-2.41l.06-.08.07-.07c.66-.66,1.56-1.02,2.54-1.02.86,0,1.69.28,2.34.8l.09.07.08.09Zm-27.36-60.95c0,.94-.36,1.82-1.02,2.48-.74.73-1.63,1.11-2.57,1.11-.84,0-1.64-.3-2.39-.88l-.24-.19-.17-.26c-.34-.51-.79-1.3-.79-2.26,0-.85.31-1.68.89-2.41l.06-.08.07-.07c.65-.65,1.54-1.01,2.5-1.01s1.8.33,2.48.94c.51.42,1.17,1.26,1.17,2.64Zm5.6,30.9c.71.71,1.09,1.6,1.09,2.56s-.36,1.81-1.01,2.48l-.08.08-.09.07c-.8.65-1.59.96-2.41.96-.9,0-1.85-.4-2.54-1.08l-.09-.09-.08-.1c-.58-.73-.88-1.53-.88-2.32,0-.85.31-1.68.89-2.41l.07-.08.07-.07c.66-.66,1.59-1.04,2.54-1.04s1.85.37,2.52,1.04Zm0,11.71c.71.71,1.09,1.6,1.09,2.56s-.36,1.81-1.01,2.48c-.75.73-1.63,1.11-2.57,1.11s-1.82-.38-2.54-1.08l-.09-.09-.08-.1c-.58-.73-.88-1.53-.88-2.32,0-.85.31-1.68.89-2.41l.07-.08.07-.07c.66-.66,1.59-1.04,2.54-1.04s1.85.37,2.52,1.04Zm60.29-73.61c.64.64,1.02,1.6,1.02,2.56,0,.8-.33,1.69-.87,2.39l-.2.25-.27.17c-.56.36-1.32.78-2.25.78s-1.83-.39-2.47-1.01c-.71-.72-1.11-1.67-1.11-2.57,0-.85.31-1.68.89-2.41l.1-.12.12-.11c.68-.61,1.56-.94,2.48-.94s1.8.33,2.48.94l.08.08Zm-53.53-56.86c-.74.73-1.63,1.11-2.57,1.11-.88,0-1.83-.39-2.47-1.01l-.07-.07-.07-.08c-.65-.78-.97-1.6-.97-2.42s.31-1.68.89-2.41l.1-.12.12-.11c.68-.61,1.55-.94,2.45-.94.51,0,1.01.12,1.47.32,0-.03,0-.06,0-.09,0-.85.31-1.68.89-2.41l.07-.08.07-.07c.65-.65,1.55-1.01,2.53-1.01s1.83.33,2.51.94l.08.08c.47.47,1.03,1.29,1.03,2.56,0,.8-.33,1.69-.87,2.39l-.14.18-.18.14c-.71.56-1.58.88-2.39.88-.48,0-.98-.12-1.44-.34,0,.03,0,.06,0,.09,0,.93-.36,1.81-1.01,2.48Zm4.69,127.48c-.56.36-1.32.78-2.25.78s-1.85-.4-2.54-1.08c-.66-.67-1.05-1.62-1.05-2.51s.31-1.68.9-2.41l.06-.08.07-.07c.65-.65,1.55-1.01,2.53-1.01s1.83.33,2.51.94l.08.07c.47.47,1.03,1.29,1.03,2.56,0,.8-.33,1.69-.87,2.39l-.2.25-.27.17Zm21.93,13.19c-.82.66-1.61.97-2.43.97-.88,0-1.83-.39-2.47-1.02-.71-.72-1.11-1.67-1.11-2.57,0-.85.31-1.68.89-2.41l.07-.08.07-.07c.65-.65,1.55-1.01,2.53-1.01s1.83.33,2.51.94l.08.07c.47.47,1.03,1.29,1.03,2.56,0,1.05-.42,2.01-1.16,2.62Zm100.51,57.12c.65.65,1.03,1.59,1.03,2.56,0,.89-.39,1.84-1.01,2.48-.75.74-1.63,1.11-2.58,1.11-.88,0-1.83-.39-2.47-1.01-.74-.76-1.12-1.64-1.12-2.58,0-.85.31-1.68.89-2.41l.09-.12.11-.1c.69-.63,1.57-.98,2.48-.98s1.8.34,2.49.97l.08.07Zm-15.7-12.49c0,1.06-.42,2.01-1.16,2.62-.81.66-1.6.97-2.42.97s-1.56-.29-2.31-.87l-.1-.08-.09-.09c-.71-.72-1.08-1.6-1.08-2.54,0-.85.31-1.68.89-2.41l.09-.12.11-.1c.69-.63,1.57-.98,2.48-.98s1.8.34,2.49.97l.08.07c.47.47,1.03,1.29,1.03,2.56Zm-128.17-69.89c.65.65,1.03,1.59,1.03,2.56,0,.89-.39,1.84-1.01,2.48-.72.71-1.68,1.11-2.58,1.11s-1.85-.4-2.54-1.08c-.66-.67-1.05-1.62-1.05-2.51s.31-1.68.9-2.41l.06-.08.07-.07c.67-.67,1.57-1.04,2.52-1.04s1.82.34,2.52.97l.08.07Zm133.98,89.23c.58.72.88,1.55.88,2.41,0,.45-.09.89-.25,1.3l-6.52-2.94c.13-.27.29-.53.48-.77l.06-.08.07-.07c.66-.66,1.59-1.04,2.54-1.04s1.82.35,2.51.98l.11.1.09.12Zm5.66-27.47c-.94,0-1.82-.38-2.54-1.09-.65-.67-1.04-1.62-1.04-2.5s.31-1.68.89-2.41l.06-.08.07-.07c.64-.64,1.57-1.01,2.53-1.01s1.83.33,2.51.94l.08.08c.47.47,1.02,1.29,1.02,2.56,0,.96-.37,1.89-1.01,2.54l-.09.09-.1.08c-.71.56-1.58.88-2.39.88Zm14.2,8.9c.72.72,1.1,1.61,1.1,2.57s-.36,1.81-1.01,2.48c-.75.74-1.63,1.11-2.58,1.11-.88,0-1.83-.39-2.47-1.01l-.08-.07-.07-.08c-.64-.78-.97-1.6-.97-2.42s.31-1.68.89-2.41l.09-.12.11-.1c.69-.63,1.57-.98,2.48-.98s1.83.37,2.51,1.03Zm-1.46,20.24c.58.72.88,1.55.88,2.4s-.39,1.84-1.01,2.48c-.72.71-1.67,1.11-2.58,1.11s-1.84-.39-2.48-1.02c-.71-.72-1.11-1.67-1.11-2.57,0-.85.31-1.68.89-2.41l.09-.12.11-.1c.69-.63,1.57-.98,2.48-.98s1.8.34,2.49.96l.12.11.1.13Zm-4.38-7.39c-.78,0-1.56-.29-2.31-.87l-.1-.08-.09-.09c-.68-.69-1.09-1.64-1.09-2.54,0-.85.31-1.68.89-2.41l.09-.12.11-.1c.69-.63,1.57-.98,2.48-.98s1.8.34,2.49.97l.12.11.1.12c.58.72.88,1.55.88,2.41,0,.8-.33,1.69-.87,2.39l-.14.18-.18.14c-.71.56-1.58.88-2.39.88Zm-37.45-12.69c.58.72.89,1.55.89,2.41,0,1.05-.42,2.01-1.16,2.62-.81.66-1.6.97-2.43.97s-1.56-.29-2.3-.87l-.11-.08-.09-.1c-.68-.69-1.08-1.64-1.08-2.54,0-.85.31-1.68.89-2.41l.1-.12.12-.11c.68-.6,1.56-.94,2.48-.94s1.8.33,2.48.94l.12.11.1.12Zm10.92-12.65c0,.98-.37,1.88-1.02,2.49-.64.69-1.59,1.1-2.57,1.1s-1.82-.38-2.54-1.09c-.68-.7-1.04-1.58-1.04-2.5,0-.85.31-1.68.89-2.41l.09-.12.11-.1c.69-.63,1.58-.98,2.51-.98s1.88.38,2.54,1.04c.47.47,1.02,1.29,1.02,2.56Zm-31,9.3c.58.72.88,1.55.88,2.41s-.39,1.84-1.01,2.47c-.15.15-.32.28-.48.4l-5.65-2.55c-.01-.11-.03-.22-.03-.32,0-.85.31-1.68.89-2.41l.12-.15.14-.12c.72-.61,1.57-.92,2.45-.92s1.77.34,2.47.96l.12.11.1.13Zm6.69-115.84c.58.72.88,1.55.88,2.41,0,.8-.33,1.69-.87,2.39l-.2.25-.27.17c-.56.36-1.32.78-2.25.78s-1.85-.4-2.54-1.08c-.66-.67-1.05-1.62-1.05-2.5s.31-1.68.89-2.41l.06-.07c.63-.71,1.59-1.12,2.62-1.12s1.9.37,2.57,1.04l.07.07.07.08Zm-6.83,68.44c.47.47,1.02,1.29,1.02,2.56,0,1.05-.42,2.01-1.16,2.61-.78.63-1.53.93-2.3.96.24.14.47.29.69.48l.08.07c.47.47,1.03,1.29,1.03,2.57,0,.89-.39,1.84-1.01,2.47-.72.71-1.67,1.11-2.58,1.11-.78,0-1.56-.29-2.31-.87l-.1-.08-.09-.09c-.68-.69-1.08-1.64-1.08-2.54,0-.85.31-1.68.89-2.41l.09-.12.11-.1c.68-.62,1.53-.96,2.42-.97-.19-.11-.38-.23-.56-.38l-.1-.08-.09-.09c-.66-.67-1.06-1.59-1.08-2.47-.15.26-.32.51-.54.73-.72.7-1.67,1.11-2.57,1.11-1.14,0-2.04-.61-2.38-.88l-.25-.19-.17-.26c-.34-.51-.79-1.3-.79-2.26,0-.85.31-1.68.9-2.41l.1-.12.12-.1c.68-.61,1.56-.94,2.47-.94s1.84.36,2.5,1c.69.69,1.06,1.54,1.09,2.47.12-.22.26-.43.42-.63l.12-.15.14-.12c.72-.61,1.57-.93,2.45-.93s1.77.34,2.47.96l.08.08Zm15.07,26.79c-.75.74-1.63,1.11-2.58,1.11s-1.82-.37-2.54-1.08c-.66-.68-1.05-1.62-1.05-2.51s.31-1.68.89-2.41l.09-.12.11-.1c.69-.63,1.57-.98,2.48-.98s1.8.34,2.49.97l.12.11.1.12c.58.72.89,1.55.89,2.41s-.39,1.84-1.01,2.48Zm9.95-11.63c-.69.65-1.62,1.03-2.5,1.03s-1.83-.39-2.47-1.01c-.71-.73-1.12-1.68-1.12-2.58,0-.85.31-1.68.89-2.41l.09-.12.11-.1c.68-.62,1.54-.96,2.43-.97-.29-.16-.57-.35-.81-.59-.66-.67-1.05-1.62-1.05-2.51s.31-1.68.9-2.41l.06-.08.07-.07c.65-.65,1.55-1.01,2.53-1.01s1.83.33,2.51.94l.08.07c.47.47,1.03,1.29,1.03,2.56,0,.8-.33,1.69-.87,2.39l-.14.18-.18.14c-.32.25-1.17.82-2.26.87.24.13.47.29.68.47l.08.08c.65.65,1.02,1.59,1.02,2.56s-.4,1.95-1.09,2.56Zm-32.37,7.48c0,.94-.36,1.82-1.01,2.48-.75.73-1.63,1.11-2.57,1.11-.88,0-1.83-.39-2.47-1.01l-.08-.07-.07-.08c-.64-.78-.97-1.6-.97-2.42s.31-1.68.9-2.41l.09-.11.11-.1c.69-.63,1.57-.98,2.48-.98s1.78.35,2.45.98c.54.47,1.16,1.3,1.16,2.63Z"/>
            <path d="m424.2,524.58c-1.07,0-2.14-.22-3.15-.68L42.24,353.03c-3.26-1.47-5.07-4.99-4.36-8.5l33.93-168.52c.55-2.75,2.56-4.97,5.24-5.8,2.68-.83,5.59-.14,7.6,1.81,53.81,52.1,259.01,254.07,344.73,338.49,1.08,1.07,1.82,2.43,2.13,3.92l.19.94c.58,2.82-.47,5.72-2.72,7.52-1.38,1.11-3.08,1.68-4.79,1.68ZM54.11,341.58l335.59,151.37c-90.37-88.98-246.91-242.98-305.64-300.14l-29.95,148.77Z"/>
          </g>
        </g>
      </g>
    </g>
  </g>
</svg>