<?xml version="1.0" encoding="UTF-8"?>
<svg id="Layer_8_copy" data-name="Layer 8 copy" xmlns="http://www.w3.org/2000/svg" viewBox="0 0 1000 1000">
  <defs>
    <style>
      .cls-1 {
        fill: #f59;
      }

      .cls-2 {
        fill: #ffbf0b;
      }

      .cls-3 {
        fill: #1dbf99;
      }
    </style>
  </defs>
  <g id="Layer_22" data-name="Layer 22">
    <g id="Elements_copy" data-name="Elements copy">
      <g>
        <g>
          <path class="cls-1" d="m116.72,701.75c-3.6-9.97-11.26-19.3-21.57-26.29-10.11-6.85-21.37-10.29-31.15-10.29-7.72,0-14.52,2.15-19.1,6.46-.48,2.51-.69,5.1-.58,7.81v.47c0,12,5.67,25.91,13.48,33.07,6.1,5.6,18.53,14.9,33.27,14.23,10.46-.47,19.82-3.14,26.6-7.4,1.75-5.19,1.45-11.43-.94-18.07Z"/>
          <path class="cls-2" d="m698.07,647c12.12-8.21,25.73-13.06,38.96-14l-179.64-174.94c-5.98-5.94-12.83-9.93-20.95-12.21l-.36-.11c-5.87-1.84-11.55-2.1-17.37-.8l-1.07.24-1.1.05c-5.79.26-11.05,1.95-16.09,5.15l-.35.21c-7.21,4.27-12.79,9.85-17.06,17.06l-.43.68-92.3,135.3-119.07-132.55c-3.97-4.25-8.51-7.16-13.89-8.91l-1.01-.33-.94-.49c-5.21-2.74-10.69-3.95-16.75-3.72-14.44.65-26.87,5.53-33.17,13.05l-144.06,171.99c.19,0,.37-.03.55-.03,15.32-.51,31.59,4.51,45.82,14.15,14.23,9.64,24.93,22.89,30.14,37.3.33.91.63,1.82.91,2.73l100.48-119.97,122.8,136.71c5.92,5.81,12.7,9.73,20.71,11.97l.36.11c5.87,1.84,11.55,2.1,17.37.8l1.07-.24,1.1-.05c5.79-.26,11.05-1.95,16.08-5.15l.35-.21c7.21-4.27,12.79-9.85,17.06-17.06l.43-.68,94.49-138.51,133.99,130.48c.56-3.53,1.47-7.11,2.78-10.71,5.2-14.42,15.91-27.66,30.14-37.3Z"/>
          <path class="cls-3" d="m743.35,713.85c9.26-6.27,16.36-14.44,20.33-23.25.8-3.21,1.21-6.6,1.05-10.13-.24-5.4-1.2-12.04-3.78-18.64-4.2-3.93-10.37-6.19-17.82-6.44-10.6-.36-22.1,3.3-32.41,10.28-19.84,13.44-29.13,35.83-20.29,48.88,8.84,13.05,33.08,12.73,52.92-.71Z"/>
        </g>
        <path d="m891.34,238v6.35l-1.27-6.35h1.27Zm-2.23,502.83l2.23,11.13v-17.67c-1.8,1.57-2.73,4.04-2.23,6.55Zm-84.5,108.24c-3.24,0-6.14-2.3-6.77-5.6l-2.34-12.22h-121.39c-.64.19-1.28.27-1.92.27s-1.29-.1-1.9-.27h-37.8l-8.24,11.56c-1.35,1.89-3.47,2.9-5.63,2.9-1.39,0-2.78-.42-4-1.28-3.1-2.21-3.83-6.52-1.62-9.62l2.53-3.55h-22.93c.19.06.38.13.57.21,3.5,1.5,5.13,5.55,3.63,9.06l-14.5,33.89c-1.12,2.62-3.67,4.19-6.35,4.19-.91,0-1.83-.18-2.71-.56-3.5-1.5-5.13-5.55-3.63-9.06l14.5-33.89c.81-1.9,2.38-3.24,4.21-3.84h-52.95l13.41,11.01c2.95,2.42,3.37,6.77.95,9.71-1.36,1.66-3.34,2.52-5.34,2.52-1.54,0-3.09-.51-4.37-1.57l-26.4-21.68h-10.62l-18.78,31.12c-1.3,2.15-3.58,3.34-5.91,3.34-1.21,0-2.44-.32-3.56-.99-3.26-1.97-4.31-6.21-2.34-9.47l14.48-23.99h-18.47c-.41.8-.99,1.53-1.72,2.14l-28.37,23.56c-1.29,1.07-2.85,1.59-4.4,1.59-1.98,0-3.95-.85-5.31-2.49-2.43-2.93-2.03-7.28.9-9.72l18.17-15.09h-37.88l5.38,27.15c.74,3.74-1.69,7.37-5.43,8.11-.45.09-.9.13-1.35.13-3.23,0-6.11-2.27-6.76-5.56l-5.91-29.83h-45.51l24.04,8.77c3.58,1.31,5.42,5.27,4.12,8.85-1.02,2.8-3.67,4.54-6.48,4.54-.79,0-1.58-.13-2.37-.42l-34.64-12.64c-3.58-1.31-5.42-5.27-4.12-8.85.03-.08.07-.16.1-.25h-28.94l1.84,9.62c.72,3.74-1.74,7.36-5.48,8.08-.44.08-.88.12-1.31.12-3.24,0-6.14-2.3-6.77-5.6l-2.34-12.22h-119.15v-82.63c-5.57,6.65-11.14,13.3-16.71,19.95-10.06,12.01-27.25,16.84-42.28,17.51-15.92.71-30.89-7.05-42.28-17.51-6.68-6.13-11.69-15.01-14.61-24.32-1.01-.63-2.02-1.27-3.01-1.94-14.23-9.64-24.93-22.89-30.14-37.3-4.73-13.1-4.54-25.88.38-36.73.95-5.65,2.71-11.09,5.31-16.27,3.02-8.75,8-16.47,14.8-22.96l128.52-153.44V168.76h662.49v69.24h10.54l2.38,5.56c1.5,3.5-.13,7.56-3.63,9.06-.89.38-1.81.56-2.71.56-2.68,0-5.23-1.57-6.35-4.19l-.23-.55v40.69l7.22,5.92c2.95,2.42,3.37,6.77.96,9.71-1.36,1.66-3.34,2.52-5.34,2.52-.97,0-1.93-.23-2.83-.64v36.58l10.96-3.3c3.65-1.1,7.5.97,8.6,4.62,1.1,3.65-.97,7.5-4.62,8.6l-14.93,4.49v20.84l4.95,1.59c3.63,1.16,5.63,5.05,4.46,8.68-.94,2.93-3.65,4.79-6.57,4.79-.7,0-1.41-.11-2.11-.33l-.73-.23v16.83c.55.98.87,2.11.88,3.31l.24,28.23c.01,1.41-.4,2.72-1.11,3.81v52.46l24.87,10.87c3.49,1.53,5.08,5.59,3.56,9.09-1.13,2.59-3.67,4.14-6.33,4.14-.92,0-1.86-.19-2.76-.58l-19.35-8.46v14.6c2.2-.22,4.46.62,5.98,2.44,2.44,2.93,2.05,7.28-.88,9.72l-5.1,4.26v31.34l24.34,12.25c3.4,1.71,4.77,5.86,3.06,9.27-1.21,2.41-3.64,3.8-6.17,3.8-1.04,0-2.1-.24-3.1-.74l-18.13-9.13v16.64c.25,0,.5,0,.75.02,3.8.31,6.63,3.64,6.32,7.43l-3.82,47.34c-.18,2.27-1.45,4.2-3.25,5.31v10.84l24.41-15.08c3.24-2,7.49-1,9.5,2.24,2,3.24,1,7.49-2.24,9.5l-31.37,19.38c-.1.06-.2.1-.3.16v26.7l12.92,30.2c1.5,3.5-.13,7.56-3.63,9.06-.89.38-1.81.56-2.71.56-2.68,0-5.23-1.57-6.35-4.19l-.23-.55v40.69l7.22,5.92c2.95,2.42,3.37,6.77.96,9.71-1.36,1.66-3.34,2.52-5.34,2.52-.97,0-1.93-.23-2.83-.64v17h-21.69l1.84,9.62c.72,3.74-1.74,7.36-5.48,8.08-.44.08-.88.12-1.31.12Zm-235.43-540.52h100v-109.79h-100v109.79Zm0,125h100v-100h-100v100Zm24.54,25l75.46,73.48v-73.48h-75.46Zm-149.54-150h100v-109.79h-100v109.79Zm0,125h36.53c2.07-1.55,4.22-3.02,6.48-4.36,8.34-5.27,17.45-8.25,27.11-8.87,9.67-1.98,19.44-1.47,29.06,1.51.27.08.54.16.81.24v-88.52h-100v100Zm0,46.76l14.84-21.76h-14.84v21.76Zm-125-171.76h100v-109.79h-100v109.79Zm0,125h100v-100h-100v100Zm0,53.49l64.23,71.51h7.39l28.37-41.59v-58.41h-100v28.49Zm-120.43-178.49h95.43v-109.79h-95.43v109.79Zm0,125h29.48c3.06-.44,6.19-.76,9.39-.9,4.46-.17,8.81.13,13.02.9h43.53v-100h-95.43v100Zm94.83,25l.59.66v-.66h-.59Zm-176.87,243.2c-3.6-9.97-11.26-19.3-21.57-26.29-10.11-6.85-21.37-10.29-31.15-10.29-7.72,0-14.52,2.15-19.1,6.46-.48,2.51-.69,5.1-.58,7.81v.47c0,12,5.67,25.91,13.48,33.07,6.1,5.6,18.53,14.9,33.27,14.23,10.46-.47,19.82-3.14,26.6-7.4,1.75-5.19,1.45-11.43-.94-18.07Zm177.46,6.8h-91.87c-.21.25-.42.51-.64.76-.97,1.16-1.95,2.33-2.92,3.49v88.45h95.43v-92.7Zm0-25.77c-8.95-9.96-17.9-19.93-26.85-29.89-3.18-3.53-6.35-7.07-9.53-10.6-11.52,13.75-23.04,27.5-34.56,41.26h70.93v-.77Zm125,102.66c-7.19,1.24-14.37.75-21.56-1.5-10.13-2.84-18.92-7.97-26.39-15.38-6.47-7.2-12.94-14.4-19.4-21.6-10.88-12.12-21.77-24.23-32.65-36.35v90.63h100v-15.8Zm125-76.89h-46.35c-10.89,15.97-21.79,31.94-32.68,47.91-5.22,8.82-12.21,15.86-20.96,21.14v23.64h100v-92.7Zm0-67.95c-9.77,14.32-19.53,28.64-29.3,42.95h29.3v-42.95Zm125,104.49l-37.52-36.54h-62.48v92.7h100v-56.16Zm-63.19-61.54l-36.81-35.84v35.84h36.81Zm92.08-36.55c12.12-8.21,25.73-13.06,38.96-14l-179.64-174.94c-5.98-5.94-12.83-9.93-20.95-12.21l-.36-.11c-5.87-1.84-11.55-2.1-17.37-.8l-1.07.24-1.1.05c-5.79.26-11.05,1.95-16.09,5.15l-.35.21c-7.21,4.27-12.79,9.85-17.06,17.06l-.43.68-92.3,135.3-119.07-132.55c-3.97-4.25-8.51-7.16-13.89-8.91l-1.01-.33-.94-.49c-5.21-2.74-10.69-3.95-16.75-3.72-14.44.65-26.87,5.53-33.17,13.05l-144.06,171.99c.19,0,.37-.03.55-.03,15.32-.51,31.59,4.51,45.82,14.15,14.23,9.64,24.93,22.89,30.14,37.3.33.91.63,1.82.91,2.73l100.48-119.97,122.8,136.71c5.92,5.81,12.7,9.73,20.71,11.97l.36.11c5.87,1.84,11.55,2.1,17.37.8l1.07-.24,1.1-.05c5.79-.26,11.05-1.95,16.08-5.15l.35-.21c7.21-4.27,12.79-9.85,17.06-17.06l.43-.68,94.49-138.51,133.99,130.48c.56-3.53,1.47-7.11,2.78-10.71,5.2-14.42,15.91-27.66,30.14-37.3Zm45.28,66.84c9.26-6.27,16.36-14.44,20.33-23.25.8-3.21,1.21-6.6,1.05-10.13-.24-5.4-1.2-12.04-3.78-18.64-4.2-3.93-10.37-6.19-17.82-6.44-10.6-.36-22.1,3.3-32.41,10.28-19.84,13.44-29.13,35.83-20.29,48.88,8.84,13.05,33.08,12.73,52.92-.71Zm57.9-5.3h-8.82c1.71,5.71,2.66,11.69,2.93,17.73.71,15.93-7.05,30.89-17.51,42.28-10.1,11-27.62,17.51-42.28,17.51s-30.36-6.39-41.38-16.68v31.85h107.06v-92.7Zm0-125h-79.16l46.34,45.13c9.25,9.01,15.63,20.49,18.88,33.74,1.56,4.62,2.31,9.54,2.25,14.64.05.76.11,1.53.15,2.3.06,1.4.06,2.8.02,4.2h11.52v-100Zm0-125h-107.06v97.83l2.23,2.17h104.83v-100Zm0-125h-107.06v100h107.06v-100Zm0-134.79h-107.06v109.79h107.06v-109.79ZM278.63,877.82c-2-3.24-6.26-4.24-9.5-2.24l-31.37,19.39c-.7.43-1.28.97-1.77,1.58h25.46l14.93-9.23c3.24-2,4.25-6.26,2.24-9.5ZM879.5,345.8c2.82,0,5.46-1.74,6.48-4.54,1.31-3.58-.54-7.54-4.12-8.85l-34.64-12.64c-3.58-1.31-7.54.54-8.85,4.12-1.31,3.58.54,7.54,4.12,8.85l34.64,12.64c.78.29,1.58.42,2.37.42Zm-28.33,188.17c-3.29,1.92-4.41,6.14-2.49,9.43l18.55,31.87c1.28,2.2,3.59,3.43,5.97,3.43,1.18,0,2.37-.3,3.46-.94,3.29-1.92,4.41-6.14,2.49-9.43l-18.55-31.87c-1.92-3.29-6.14-4.41-9.43-2.49Zm-576.86,362.58h9.47c-.72-.68-1.59-1.22-2.59-1.54-2.49-.81-5.1-.13-6.88,1.54Zm410.85-53.43c-3.26-1.97-7.5-.92-9.47,2.34l-19.05,31.56c-1.97,3.26-.92,7.5,2.34,9.47,1.12.67,2.34.99,3.56.99,2.34,0,4.62-1.19,5.91-3.34l19.05-31.56c1.97-3.26.92-7.5-2.34-9.47Zm189.45-418.88l-15.94-28.5c-1.86-3.33-6.06-4.51-9.39-2.65-3.33,1.86-4.51,6.06-2.65,9.39l15.94,28.5c1.26,2.26,3.61,3.53,6.03,3.53,1.14,0,2.3-.28,3.36-.88,3.33-1.86,4.51-6.06,2.65-9.39Zm-197.71,461.35c-3.76.64-6.29,4.2-5.65,7.96l.51,3.01h14l-.9-5.32c-.64-3.76-4.2-6.29-7.96-5.65Zm163.64-605.91c1.36,1.66,3.34,2.52,5.34,2.52,1.54,0,3.09-.51,4.37-1.57l28.5-23.39c2.95-2.42,3.37-6.77.96-9.71-2.42-2.95-6.77-3.37-9.71-.96l-28.5,23.39c-2.95,2.42-3.37,6.77-.96,9.71ZM265.05,838.46c-2.27-3.07-6.59-3.71-9.65-1.45l-22.61,16.71v16.98c.4-.19.78-.4,1.15-.67l29.67-21.92c3.06-2.27,3.71-6.59,1.45-9.65Zm279.65,58.06s-.07.02-.1.03h2.83c-.87-.19-1.8-.2-2.73-.03Zm-15.59-31.32l-28.37,23.56c-2.34,1.94-3.06,5.1-2.03,7.79h14.25l24.96-20.73c2.93-2.43,3.33-6.78.9-9.72-2.43-2.93-6.78-3.34-9.72-.9Zm70.21,11.79l-23.56,19.56h21.61l10.77-8.94c2.93-2.43,3.34-6.78.9-9.72-2.43-2.93-6.78-3.33-9.72-.9Zm-270.73,10.67l-26.11-8.38c-3.63-1.17-7.51.83-8.68,4.46-1.17,3.63.83,7.51,4.46,8.68l12.84,4.12h21.86c.02-.07.06-.13.08-.2,1.17-3.63-.83-7.51-4.46-8.68Zm301.86-38.66c-3.8.29-6.65,3.6-6.36,7.4l2.78,36.77c.1,1.26.53,2.41,1.19,3.37h11.38c.86-1.25,1.31-2.79,1.19-4.41l-2.78-36.77c-.29-3.8-3.59-6.65-7.4-6.36Zm80.5,5.64c-1.62-3.45-5.74-4.93-9.18-3.31-3.45,1.62-4.93,5.73-3.31,9.18l16.96,36.03h13.04c.59-1.66.55-3.53-.26-5.25l-17.25-36.66Zm-376.35-7.11l-35.31,10.62c-3.65,1.1-5.72,4.95-4.62,8.6.9,2.99,3.64,4.91,6.61,4.91.66,0,1.33-.09,1.99-.29l35.31-10.62c3.65-1.1,5.72-4.95,4.62-8.6s-4.95-5.72-8.6-4.62Zm55.86,44.72l-28.64-23.22c-2.96-2.4-7.31-1.95-9.71,1.01-2.4,2.96-1.95,7.31,1.01,9.71l20.72,16.81h19.07c-.25-1.63-1.08-3.18-2.47-4.3Zm62.26-30.25c-3.5,1.5-5.13,5.56-3.63,9.06l10.91,25.5h15.01l-13.24-30.93c-1.5-3.5-5.55-5.13-9.06-3.63Zm-13.43,11.94c-3.47-1.57-7.56-.03-9.13,3.45l-8.66,19.17h15.14l6.09-13.49c1.57-3.47.02-7.56-3.45-9.13Zm405.17-422.38l-3.52,37.73c-.35,3.79,2.43,7.16,6.23,7.51.22.02.43.03.65.03,3.52,0,6.53-2.68,6.86-6.26l3.52-37.73c.35-3.79-2.43-7.16-6.23-7.51-3.8-.35-7.16,2.43-7.51,6.23Zm45.26,143.99c-3.16-2.13-7.45-1.3-9.58,1.86l-20.62,30.56c-2.13,3.16-1.3,7.45,1.86,9.58,1.18.8,2.53,1.18,3.85,1.18,2.22,0,4.39-1.07,5.73-3.04l20.37-30.19v-8.43c-.44-.57-.98-1.09-1.61-1.52Zm-14.07-63.58c-.19,3.81,2.75,7.04,6.55,7.23l9.13.45v-13.82l-8.45-.42c-3.79-.19-7.04,2.75-7.23,6.55Zm9.78,107.17l-4.72,49.59c-.36,3.79,2.42,7.16,6.22,7.52.22.02.44.03.66.03,1.37,0,2.66-.41,3.74-1.11v-62.2c-3.08.44-5.6,2.93-5.9,6.17Zm.82,138.7c-3.7-.93-7.45,1.31-8.38,5l-9.01,35.75c-.93,3.7,1.31,7.45,5,8.38.57.14,1.13.21,1.69.21,3.09,0,5.9-2.09,6.69-5.21l9.01-35.75c.03-.13.05-.25.08-.38v-2.63c-.5-2.54-2.4-4.7-5.08-5.37Zm-15.04-281.62c-1.89,3.31-.74,7.52,2.57,9.41,1.08.62,2.25.91,3.41.91,2.4,0,4.73-1.25,6-3.48l8.13-14.26v-27.47c-.36.38-.68.81-.95,1.28l-19.17,33.61Zm15.04-225.98c-3.7-.93-7.45,1.31-8.38,5l-9.01,35.75c-.93,3.7,1.31,7.45,5,8.38.57.14,1.13.21,1.69.21,3.09,0,5.9-2.09,6.69-5.21l9.01-35.75c.03-.13.05-.25.08-.38v-2.63c-.5-2.54-2.4-4.7-5.08-5.37Zm-113.61,568.23c-2.27-3.07-6.59-3.71-9.65-1.45l-29.67,21.92c-3.06,2.27-3.71,6.59-1.45,9.65,1.35,1.83,3.44,2.8,5.55,2.8,1.42,0,2.86-.44,4.1-1.35l29.67-21.92c3.06-2.27,3.71-6.59,1.45-9.65Zm87.07-476.03c-2.4,2.96-1.95,7.31,1.01,9.71l28.64,23.22c.61.49,1.27.85,1.97,1.11v-17.28l-21.91-17.77c-2.96-2.4-7.31-1.95-9.71,1.01Zm17.25,48.5c-1.95,3.27-.88,7.51,2.39,9.46l11.97,7.13v-16.07l-4.9-2.92c-3.27-1.95-7.51-.88-9.46,2.39Zm2.74,344.2c-2.42-2.95-6.77-3.37-9.71-.96l-28.5,23.39c-2.95,2.42-3.37,6.77-.96,9.71,1.36,1.66,3.34,2.52,5.34,2.52,1.54,0,3.09-.51,4.37-1.57l28.5-23.39c2.95-2.42,3.37-6.77.96-9.71Zm-97.81,141.41h9.47c-.72-.68-1.59-1.22-2.59-1.54-2.49-.81-5.1-.13-6.88,1.54Zm4.32-18.73c-2-3.24-6.26-4.24-9.5-2.24l-31.37,19.39c-.7.43-1.28.97-1.77,1.58h25.46l14.93-9.23c3.24-2,4.25-6.26,2.24-9.5Zm73.49-7.78c-2.4,2.96-1.95,7.31,1.01,9.71l20.72,16.81h9.88v-9.76l-21.91-17.77c-2.96-2.4-7.31-1.95-9.71,1.01Zm-17.52-22.51l-35.31,10.62c-3.65,1.1-5.72,4.95-4.62,8.6.9,2.99,3.64,4.91,6.61,4.91.66,0,1.33-.09,1.99-.29l35.31-10.62c3.65-1.1,5.72-4.95,4.62-8.6s-4.95-5.72-8.6-4.62Zm-6.01,40.14l-26.11-8.38c-3.63-1.17-7.51.83-8.68,4.46-1.17,3.63.83,7.51,4.46,8.68l12.84,4.12h21.86c.02-.07.06-.13.08-.2,1.17-3.63-.83-7.51-4.46-8.68Zm2.19-56.17c-1.31,3.58.54,7.54,4.12,8.85l34.64,12.64c.78.29,1.58.42,2.37.42,2.82,0,5.46-1.74,6.48-4.54,1.31-3.58-.54-7.54-4.12-8.85l-34.64-12.64c-3.58-1.31-7.54.54-8.85,4.12Zm45.89-98.03c2.43-2.93,2.03-7.28-.9-9.72l-28.37-23.55c-2.93-2.43-7.28-2.03-9.72.9-2.43,2.93-2.03,7.28.9,9.72l28.37,23.55c1.29,1.07,2.85,1.59,4.4,1.59,1.98,0,3.95-.85,5.31-2.49Z"/>
      </g>
    </g>
  </g>
</svg>