<?xml version="1.0" encoding="UTF-8"?>
<svg id="Layer_8_copy" data-name="Layer 8 copy" xmlns="http://www.w3.org/2000/svg" viewBox="0 0 1000 1000">
  <defs>
    <style>
      .cls-1 {
        fill: #f59;
      }

      .cls-2 {
        fill: #fff200;
      }

      .cls-3 {
        fill: #ffff7c;
      }

      .cls-4 {
        fill: #ffdc0d;
      }

      .cls-5 {
        fill: #ffbf0b;
      }

      .cls-6 {
        fill: #6785ff;
      }

      .cls-7 {
        fill: #7be0ff;
      }

      .cls-8 {
        fill: #14f9e6;
      }

      .cls-9 {
        fill: #1dbf99;
      }
    </style>
  </defs>
  <g id="Layer_22" data-name="Layer 22">
    <g id="Elements_copy" data-name="Elements copy">
      <g>
        <g>
          <path class="cls-4" d="m93.83,322.19l8.46-15.52,96.08,52.4c-3.42,4.78-6.34,9.93-8.66,15.41l-95.89-52.29Z"/>
          <circle class="cls-1" cx="263.26" cy="405.41" r="63.78" transform="translate(-191.79 568.48) rotate(-76.72)"/>
          <polygon class="cls-1" points="733.63 422.77 904.43 515.92 861.38 594.86 736.19 526.59 614.87 600.74 623.59 490.03 733.63 422.77"/>
          <polygon class="cls-7" points="577.73 600.7 463.5 521.05 588.33 465.97 577.73 600.7"/>
          <path class="cls-1" d="m422.28,430.46l92.53,50.46-70.79,31.23c-2.64,1.17-4.45,3.67-4.73,6.55-.28,2.88,1.02,5.68,3.39,7.33l118.29,82.47-136.12-74.24-153.45,93.8-170.79-93.15,43.05-78.94,125.18,68.27,34.93-21.35c17.39-3.31,32.55-12.89,43.04-26.31l75.47-46.13Z"/>
          <path class="cls-4" d="m577.74,408.61l-157.89-86.11-83.48,51.03c-2.24-5.12-5.01-9.95-8.22-14.45l92.27-56.4,157.89,86.11,122.11-74.64,7.79,14.71-130.48,79.75Z"/>
          <polygon class="cls-2" points="745.6 365.22 681.7 244.65 816.84 245.56 745.6 365.22"/>
          <polygon class="cls-4" points="901.14 302.16 856.86 383.35 804.26 354.66 813.31 339.47 864.84 367.57 900.66 301.9 901.14 302.16"/>
          <path class="cls-8" d="m138.11,198.09l125.65,68.53,153.45-93.8,157.89,86.11,153.45-93.8,172.57,94.11-44.27,81.19-33.31-18.16,34.3-57.61-33.63-.23,13.5-22.68c1.47-2.46,1.5-5.52.09-8.02-1.41-2.5-4.05-4.05-6.91-4.07l-162.5-1.1c-2.84-.03-5.43,1.44-6.89,3.85-1.46,2.41-1.55,5.41-.23,7.89l29.75,56.14-113.3,69.25-157.89-86.11-105.58,64.53c-13.84-11.54-31.63-18.5-51.01-18.5s-37.01,6.89-50.82,18.33l-118.61-64.68,44.28-81.19Z"/>
          <polygon class="cls-6" points="842.88 654.44 873.68 778.37 754.25 741.06 842.88 654.44"/>
          <circle class="cls-9" cx="544.74" cy="756.88" r="49.51"/>
          <polygon class="cls-3" points="264.49 722.42 228.09 783.57 195.43 721.96 264.49 722.42"/>
          <path class="cls-5" d="m144.14,721.91l46.64,25.44,29.83,56.29c1.35,2.55,3.98,4.18,6.87,4.25.07,0,.13,0,.2,0,2.81,0,5.43-1.48,6.87-3.91l4.23-7.1,15.9,30,26.48-44.47,141.16-86.28,62.59,34.13c-3.63,8.14-5.67,17.14-5.67,26.61,0,29.94,20.2,55.24,47.69,63.02,10.54,13.1,26.7,21.48,44.82,21.48,31.76,0,57.51-25.75,57.51-57.51,0-9.91-2.51-19.24-6.93-27.38l111.34-68.05,27.05,14.75-35.74,34.93c-2.84,2.77-4.01,6.84-3.08,10.7.93,3.86,3.81,6.95,7.6,8.13l35.6,11.12-5.23,5.11,125.6,39.23-24.56,45.04-124.74-68.02-153.46,93.8-157.89-86.11-153.45,93.8-169.1-92.22,41.88-76.8Z"/>
          <polygon class="cls-9" points="861.38 908.52 736.19 840.24 582.74 934.04 424.84 847.93 271.39 941.73 100.6 848.58 109.98 831.39 272.07 919.79 425.52 826 583.41 912.1 736.87 818.31 870.76 891.32 861.38 908.52"/>
          <polygon class="cls-6" points="99.82 555.88 86.62 587.35 271.04 679.13 422.9 590.06 589.63 671.46 730.54 581.4 854.32 642.7 881.28 615.04 730.54 543.96 583.38 646.43 425.49 560.32 269.65 645.02 99.82 555.88"/>
        </g>
        <g>
          <path d="m734.72,486.3c-1.62,0-3.08-.65-4.09-1.83-.86-1-1.33-2.3-1.33-3.67,0-3.14,2.33-5.5,5.42-5.5,1.62,0,3.08.65,4.09,1.83.86,1,1.33,2.3,1.33,3.67,0,3.14-2.33,5.5-5.42,5.5Zm-67.07,59.12c-4.5,0-4.51,7,0,7s4.51-7,0-7Zm54.56-26.97c-1.52,0-2.99.6-3.9,1.58-1.03,1.01-1.57,2.37-1.57,3.91s.56,2.97,1.53,3.87c1.02,1.09,2.47,1.71,3.98,1.71s2.92-.59,3.98-1.65l.11-.12c.98-1.12,1.5-2.43,1.5-3.81,0-1.48-.6-2.88-1.71-3.97-1.04-.96-2.47-1.51-3.93-1.51Zm-27.59,13.18c0-1.5-.6-2.93-1.7-4.03-1.05-.98-2.42-1.53-3.85-1.53s-2.8.54-3.93,1.6c-1.03,1.03-1.62,2.47-1.62,3.96s.64,3.03,1.69,3.95c1.05,1.01,2.4,1.57,3.82,1.57,1.52,0,2.89-.56,3.95-1.62,1.06-1.04,1.65-2.43,1.65-3.91Zm34.69-86.47c0,1.37.47,2.67,1.33,3.67,1.01,1.18,2.46,1.83,4.09,1.83,3.09,0,5.42-2.37,5.42-5.5,0-1.37-.47-2.68-1.33-3.67-1.01-1.18-2.46-1.83-4.09-1.83-3.09,0-5.42,2.37-5.42,5.5Zm-43.95,115.74c-1.03-1.02-2.47-1.61-3.96-1.61s-2.94.6-3.85,1.58c-1.11,1.02-1.73,2.42-1.73,3.93s.6,2.94,1.61,3.87c1.02,1.08,2.47,1.71,3.98,1.71,1.38,0,2.7-.52,3.81-1.49l.16-.14.15-.17c.88-1.04,1.39-2.42,1.39-3.77s-.5-2.68-1.43-3.76l-.13-.14Zm52.9-63.7c-4.5,0-4.51,7,0,7s4.51-7,0-7Zm44.03-11.97c-1.48,0-2.92.58-3.92,1.6-1.04,1.04-1.63,2.48-1.63,3.96s.58,2.85,1.62,3.88c1.05,1.06,2.44,1.65,3.9,1.65s2.93-.59,3.94-1.62c1.03-1.02,1.65-2.48,1.65-3.9s-.59-2.92-1.62-3.95c-1.01-1.02-2.44-1.6-3.93-1.6Zm-63.99,65.54l2.38-1.45c-.93.26-1.75.76-2.36,1.44,0,0,0,.01-.01.02Zm5.74-65.42c1.04-1.04,1.63-2.48,1.63-3.96s-.63-3-1.66-3.92c-1-1.01-2.38-1.57-3.88-1.57s-2.9.56-3.86,1.52c-1.04,1.03-1.64,2.48-1.64,3.98,0,1.57.56,2.96,1.53,3.86,1.01,1.09,2.46,1.72,3.99,1.72s2.86-.58,3.89-1.62Zm-3.26,14.65c-4.5,0-4.51,7,0,7s4.51-7,0-7Zm-22.75,42.77c-1.62,0-3.08.65-4.09,1.83-.86,1-1.33,2.3-1.33,3.67,0,3.13,2.33,5.5,5.42,5.5s5.42-2.37,5.42-5.5c0-1.37-.47-2.68-1.33-3.67-1.01-1.18-2.46-1.83-4.09-1.83Zm135.3-20.5c-1.48,0-2.9.57-3.84,1.53-1.06.97-1.69,2.44-1.69,3.95,0,1.6.63,3.08,1.69,4.02,1.04,1.01,2.4,1.57,3.83,1.57,1.52,0,2.95-.6,3.86-1.6,1.13-1.04,1.72-2.42,1.72-3.99,0-1.46-.58-2.84-1.63-3.89-1.01-1.01-2.45-1.59-3.95-1.59Zm-.04-54.89c-1.48,0-2.88.56-3.85,1.52-1.04,1.03-1.64,2.48-1.64,3.98s.59,2.92,1.62,3.94c1.04,1.06,2.43,1.64,3.9,1.64s2.96-.6,3.88-1.61c1.09-1.02,1.71-2.47,1.71-3.97s-.65-3.03-1.7-3.97c-1.01-.97-2.44-1.53-3.91-1.53Zm-174.03,93.43c-4.5,0-4.51,7,0,7s4.51-7,0-7Zm137.71-53.12c4.5,0,4.51-7,0-7s-4.51,7,0,7Zm2.37,16.25c0-1.42-.63-2.89-1.71-3.97-1.06-.98-2.45-1.52-3.93-1.52s-2.86.56-3.84,1.54c-1.03,1.03-1.62,2.48-1.62,3.96,0,1.36.51,2.73,1.39,3.78l.14.17.16.14c1.11.97,2.43,1.49,3.82,1.49,1.46,0,2.85-.58,3.91-1.64,1.07-1.08,1.68-2.52,1.68-3.94Zm-5.9-52.32c3.09,0,5.42-2.37,5.42-5.5,0-1.37-.47-2.67-1.33-3.67-1.01-1.18-2.46-1.83-4.09-1.83-3.09,0-5.42,2.37-5.42,5.5,0,1.37.47,2.68,1.33,3.67,1.01,1.18,2.46,1.83,4.09,1.83Zm18.21,61.92c-4.5,0-4.51,7,0,7s4.51-7,0-7Zm9.35-42.77c0-1.48-.59-2.92-1.62-3.95-1.01-1.02-2.44-1.6-3.93-1.6s-2.92.58-3.92,1.59c-1.04,1.04-1.63,2.48-1.63,3.96s.58,2.85,1.62,3.88c1.03,1.05,2.48,1.65,3.97,1.65s2.85-.58,3.87-1.62c1.06-1.05,1.65-2.43,1.65-3.91Zm.44,11.31c-4.5,0-4.51,7,0,7s4.51-7,0-7Zm12.04,60.05l-.09-.08c-1.05-.99-2.44-1.53-3.92-1.53s-2.91.56-3.92,1.58c-1.01,1-1.57,2.41-1.57,3.97,0,1.46.48,2.74,1.42,3.81l.13.15.15.13c1.12.98,2.44,1.5,3.82,1.5,1.46,0,2.84-.58,3.91-1.65,1.02-1.04,1.61-2.47,1.61-3.94,0-1.37-.51-2.75-1.41-3.79l-.14-.15Zm-157.44-53.06c-4.5,0-4.51,7,0,7s4.51-7,0-7Zm-49.52,35.77c1.48,0,2.86-.58,3.89-1.62,1.04-1.04,1.63-2.48,1.63-3.96,0-2-.92-3.26-1.65-3.92-1-1.01-2.42-1.59-3.89-1.59s-3,.61-3.91,1.6c-1.06,1.04-1.65,2.43-1.65,3.91s.6,2.94,1.6,3.86c1.01,1.09,2.46,1.72,3.99,1.72Zm103.34-116.14c4.5,0,4.51-7,0-7s-4.51,7,0,7Zm-102.07,154.87c-1.5,0-2.94.57-3.94,1.57-1.03,1.03-1.62,2.48-1.62,3.96s.56,2.8,1.54,3.81c.98,1.09,2.46,1.71,4.04,1.71,1.42,0,2.87-.61,3.87-1.61,1.06-1.04,1.65-2.43,1.65-3.91s-.59-2.93-1.63-3.96c-1.01-1.01-2.4-1.57-3.91-1.57Zm15.31-39.61c-1.53,0-3,.61-3.92,1.6-1.06,1.04-1.64,2.43-1.64,3.91s.6,2.94,1.6,3.87c1.03,1.1,2.42,1.71,3.92,1.71s2.93-.59,3.96-1.62c1.04-1.04,1.63-2.48,1.63-3.96s-.58-2.86-1.56-3.82c-1-1.07-2.46-1.69-3.99-1.69Zm-4.12-24.39c4.5,0,4.51-7,0-7s-4.51,7,0,7Zm-12.58-29.36c4.5,0,4.51-7,0-7s-4.51,7,0,7Zm-18.87,98.56c4.5,0,4.51-7,0-7s-4.51,7,0,7Zm50.9-70.35c-1.53,0-3,.61-3.92,1.6-1.06,1.04-1.64,2.43-1.64,3.91s.58,2.88,1.52,3.79c.97,1.14,2.42,1.79,3.99,1.79s2.9-.56,3.96-1.62c1.04-1.04,1.63-2.48,1.63-3.96s-.58-2.86-1.56-3.82c-1-1.07-2.46-1.69-3.99-1.69Zm-48.45,88.36c-1.01-1.01-2.4-1.56-3.91-1.56s-2.94.57-3.95,1.59l-.1.11c-.99,1.11-1.51,2.44-1.51,3.83,0,1.51.6,2.93,1.6,3.86,1.01,1.09,2.46,1.72,3.99,1.72s2.86-.58,3.89-1.62c1.04-1.04,1.63-2.48,1.63-3.96,0-1.4-.52-2.72-1.53-3.85l-.11-.11Zm7.62-98.99c1.42,0,2.87-.61,3.88-1.62,1.03-1.02,1.64-2.48,1.64-3.91s-.59-2.93-1.63-3.96c-1.01-1.01-2.4-1.57-3.91-1.57s-2.94.57-3.94,1.56c-1.03,1.03-1.62,2.48-1.62,3.96s.61,2.89,1.62,3.89c1.07,1.07,2.44,1.63,3.97,1.63Zm13.66,55.23c-3.09,0-5.42,2.37-5.42,5.5,0,1.37.47,2.67,1.33,3.67,1.01,1.18,2.46,1.83,4.09,1.83,3.09,0,5.42-2.37,5.42-5.5,0-1.37-.47-2.68-1.33-3.67-1.01-1.18-2.46-1.83-4.09-1.83Zm69.24-51.86c-4.5,0-4.51,7,0,7s4.51-7,0-7Zm2.1-47.53c-4.5,0-4.51,7,0,7s4.51-7,0-7Zm-13.57,25.68c-1.09,1.07-1.71,2.52-1.71,3.98s.59,2.92,1.61,3.94c1.03,1.04,2.47,1.64,3.97,1.64s2.86-.58,3.89-1.62c1.04-1.04,1.63-2.48,1.63-3.96s-.65-3.03-1.7-3.97c-1.01-.97-2.42-1.53-3.88-1.53s-2.85.55-3.81,1.52Zm27.9-31.77l.13.15.15.13c1.12.97,2.41,1.49,3.74,1.49,1.43,0,2.91-.64,3.95-1.7,1.05-1.05,1.63-2.43,1.63-3.89s-.59-2.94-1.62-3.95c-1.01-1.02-2.45-1.61-3.93-1.61s-2.91.58-3.91,1.58c-1.05,1.03-1.65,2.48-1.65,3.97,0,1.38.52,2.7,1.5,3.81Zm-2.23-30.72c-1.01-1.01-2.45-1.59-3.95-1.59s-2.98.61-3.9,1.59c-1.05,1.05-1.63,2.43-1.63,3.89,0,1.53.57,2.98,1.56,3.96,1.04,1.04,2.48,1.63,3.96,1.63s2.95-.6,3.86-1.6c1.13-1.04,1.72-2.42,1.72-3.99,0-1.41-.61-2.87-1.63-3.89Zm-53.73,77.16c1.48,0,2.92-.59,3.96-1.62,1.04-1.04,1.63-2.48,1.63-3.96s-.61-2.88-1.64-3.9c-1.03-1.03-2.44-1.59-3.96-1.59s-2.91.56-3.89,1.54c-1.08,1.08-1.69,2.52-1.69,3.96,0,1.51.6,2.94,1.61,3.87,1.02,1.08,2.47,1.71,3.98,1.71Zm141.55,47.51c-3.09,0-5.42,2.37-5.42,5.5,0,1.37.47,2.67,1.33,3.67,1.01,1.18,2.46,1.83,4.09,1.83,3.09,0,5.42-2.37,5.42-5.5,0-1.37-.47-2.68-1.33-3.67-1.01-1.18-2.46-1.83-4.09-1.83Zm-132.78-70.38c-4.5,0-4.51,7,0,7s4.51-7,0-7Zm9.14-2.66c1.42,0,2.87-.61,3.89-1.62,1.04-1.04,1.63-2.48,1.63-3.96s-.58-2.86-1.63-3.9c-1.01-1.01-2.45-1.59-3.95-1.59s-2.98.6-3.89,1.58c-1.06,1.04-1.64,2.43-1.64,3.91s.6,2.94,1.6,3.87c1.04,1.12,2.42,1.72,3.99,1.72Zm10.75-26.75c3.09,0,5.42-2.37,5.42-5.5,0-1.37-.47-2.67-1.33-3.67-1.01-1.18-2.46-1.83-4.09-1.83-3.09,0-5.42,2.37-5.42,5.5,0,1.37.47,2.68,1.33,3.67,1.01,1.18,2.46,1.83,4.09,1.83Zm-163.39,142.65c-4.5,0-4.51,7,0,7s4.51-7,0-7Zm-48.27-118c-3.09,0-5.42,2.37-5.42,5.5s2.33,5.5,5.42,5.5,5.42-2.37,5.42-5.5-2.33-5.5-5.42-5.5Zm34.21,11.82c-1-1.07-2.4-1.65-3.93-1.65s-2.92.57-3.86,1.54c-1.06.98-1.67,2.44-1.67,4.01,0,1.31.52,2.7,1.42,3.75l.09.1,9.51-4.66c-.18-1.15-.7-2.23-1.55-3.09Zm-52.91-30.62c0,1.48.58,2.88,1.52,3.79.97,1.14,2.45,1.79,4.07,1.79,1.46,0,2.84-.58,3.89-1.62,1.03-1.04,1.63-2.48,1.63-3.96s-.58-2.86-1.56-3.82c-1-1.07-2.46-1.69-3.99-1.69s-3,.61-3.92,1.6c-1.06,1.04-1.64,2.43-1.64,3.91Zm32.49,10.35c1.03-1.04,1.63-2.48,1.63-3.96s-.65-3.02-1.7-3.96c-1.03-.99-2.46-1.56-3.93-1.56s-2.88.56-3.79,1.51c-1.11,1.02-1.75,2.48-1.75,4.01s.59,2.92,1.66,3.98l.14.13c1.09.94,2.48,1.48,3.8,1.48s2.7-.52,3.83-1.52l.12-.12Zm-17.92,42.1c1.06-1.05,1.64-2.43,1.64-3.91s-.59-2.92-1.62-3.95c-1.01-1.02-2.45-1.6-3.93-1.6s-2.91.58-3.93,1.6-1.62,2.47-1.62,3.96.56,2.8,1.54,3.81c.98,1.09,2.46,1.72,4.04,1.72,1.45,0,2.83-.58,3.88-1.62Zm49.6-28.87c4.5,0,4.51-7,0-7s-4.51,7,0,7Zm-75.49,13.27c-4.5,0-4.51,7,0,7s4.51-7,0-7Zm13.98,55.92c-4.5,0-4.51,7,0,7s4.51-7,0-7Zm313.94,0c-1.48,0-2.91.58-3.91,1.58-1.04,1.03-1.64,2.47-1.64,3.97,0,.89.23,1.75.63,2.53l5.5,3c1.26-.14,2.46-.68,3.35-1.57,1.04-1.04,1.63-2.48,1.63-3.96s-.59-2.94-1.62-3.95c-1.01-1.02-2.45-1.6-3.93-1.6Zm-334.21-13.28c-4.5,0-4.51,7,0,7s4.51-7,0-7Zm-46.87-4.21l-.12-.12c-1.03-.97-2.42-1.5-3.89-1.5-1.55,0-2.98.59-3.9,1.58-1.1,1.12-1.68,2.48-1.68,3.94s.61,2.87,1.63,3.89,2.48,1.64,3.96,1.64,2.78-.56,3.8-1.55c1.12-1,1.79-2.49,1.79-3.98,0-1.36-.49-2.63-1.46-3.78l-.11-.13Zm412.98-76.09c1.39,0,2.72-.52,3.85-1.53l.09-.08c.55-.54.97-1.2,1.25-1.92l-9.67-5.28c-.67.91-1.04,2.07-1.04,3.29,0,1.47.58,2.85,1.62,3.88,1.02,1.03,2.48,1.65,3.91,1.65Zm-387.17,14.91c0-1.48-.59-2.93-1.63-3.96-1.01-1.01-2.45-1.59-3.95-1.59s-2.98.61-3.9,1.59c-1.07,1.06-1.63,2.44-1.63,3.96,0,1.43.56,2.8,1.54,3.8.96,1.08,2.45,1.72,3.98,1.72s2.93-.59,3.94-1.62c1.03-1.02,1.64-2.48,1.64-3.9Zm468.63,52.82c4.5,0,4.51-7,0-7s-4.51,7,0,7Zm-739.45-70.66c2.72,0,4.84-1.83,5.31-4.41l-9.18-5.01c-.96.98-1.54,2.35-1.54,3.92,0,1.37.47,2.68,1.33,3.67,1.01,1.18,2.46,1.83,4.09,1.83Zm640.15-4.69c1.33,0,2.62-.52,3.76-1.51l.12-.11c1.01-1.01,1.59-2.4,1.62-3.84l-8.63-4.71c-.27.18-.53.38-.75.61-1.09,1.07-1.71,2.52-1.71,3.97s.61,2.87,1.62,3.88c1.06,1.07,2.54,1.71,3.97,1.71Zm104.86,83.72l-.12-.12c-1.03-.97-2.42-1.5-3.89-1.5-1.55,0-2.98.59-3.9,1.58-1.1,1.12-1.68,2.48-1.68,3.94s.61,2.87,1.63,3.89,2.48,1.64,3.96,1.64,2.78-.56,3.8-1.55c1.12-1,1.79-2.49,1.79-3.98,0-1.36-.49-2.63-1.46-3.78l-.11-.13Zm-446.56-59.05c-1.49,0-2.9.56-3.86,1.52-1.09,1.07-1.71,2.52-1.71,3.97s.64,3,1.68,3.94c1.05,1.03,2.51,1.65,3.9,1.65s2.81-.6,3.89-1.7c1.05-1.05,1.63-2.43,1.63-3.89s-.63-2.99-1.65-3.91c-1-1.02-2.38-1.58-3.88-1.58Zm-59,50.69c4.5,0,4.51-7,0-7s-4.51,7,0,7Zm490.91,37.74c-4.5,0-4.51,7,0,7s4.51-7,0-7Zm-475.34-10.57c-1.53,0-2.99.6-3.89,1.57-1.03,1.04-1.63,2.48-1.63,3.96s.58,2.92,1.56,3.89c.24.24.51.45.79.64l8.68-5.31c-.17-1.21-.71-2.34-1.62-3.25-1.03-.97-2.41-1.5-3.89-1.5Zm17.88-23c-1.47,0-2.87.56-3.85,1.55-1.09,1.07-1.71,2.52-1.71,3.98s.56,2.79,1.54,3.8c1.01,1.13,2.49,1.78,4.04,1.78,1.48,0,2.86-.58,3.92-1.66l.1-.1c.98-1.12,1.5-2.44,1.5-3.82,0-1.52-.63-3-1.66-3.92-1-1.02-2.42-1.6-3.89-1.6Zm226.78-57.29c4.5,0,4.51-7,0-7s-4.51,7,0,7Zm117.44,47.52c-4.5,0-4.51,7,0,7s4.51-7,0-7Zm-119.22-25.22c3.09,0,5.42-2.37,5.42-5.5,0-1.37-.47-2.68-1.33-3.67-1.01-1.18-2.46-1.83-4.09-1.83-3.09,0-5.42,2.37-5.42,5.5,0,1.37.47,2.68,1.33,3.67,1.01,1.18,2.46,1.83,4.09,1.83Zm-69.68,133.3c-1.46,0-2.84.55-3.92,1.56,0,0,0,.01-.01.02l8.98,4.9.43-.26c.03-.23.07-.45.07-.68,0-1.49-.61-2.95-1.69-4.02-1.03-.97-2.4-1.51-3.85-1.51Zm-16.3-24.77c-3.09,0-5.42,2.37-5.42,5.5,0,1.37.47,2.68,1.33,3.67,1.01,1.18,2.46,1.83,4.09,1.83,3.09,0,5.42-2.37,5.42-5.5,0-1.37-.47-2.67-1.33-3.67-1.01-1.18-2.46-1.83-4.09-1.83Zm194.93-137.09c-1.04,1.03-1.64,2.47-1.64,3.97s.59,2.93,1.62,3.96c1.02,1.02,2.48,1.63,3.89,1.63,1.33,0,2.71-.54,3.83-1.5l.14-.13c1.04-1.04,1.63-2.48,1.63-3.96s-.59-2.93-1.62-3.95c-1.03-1.04-2.41-1.61-3.91-1.61s-2.84.56-3.94,1.58Zm9.47,39.72c0-1.52-.6-2.94-1.7-4.02-1.03-.97-2.41-1.5-3.86-1.5s-2.82.55-3.9,1.56c-1.04,1.03-1.64,2.47-1.64,3.97,0,1.39.52,2.71,1.51,3.84l.11.12c1.02,1.02,2.48,1.63,3.89,1.63s2.88-.62,3.96-1.7c1.05-1.05,1.63-2.43,1.63-3.89Zm-9.4-65.98c1.56,0,2.97-.56,3.99-1.59l.1-.11c.98-1.12,1.5-2.44,1.5-3.81s-.52-2.7-1.52-3.84l-.1-.11c-1.01-1.02-2.44-1.61-3.93-1.61s-2.92.58-3.95,1.63l-.1.11c-.98,1.12-1.5,2.43-1.5,3.81,0,1.51.6,2.93,1.6,3.86.7.75,1.95,1.65,3.92,1.65Zm-318.67,5.18c1.41,0,2.9-.63,3.89-1.63,1.04-1.04,1.63-2.48,1.63-3.96s-.56-2.9-1.49-3.82c-1.01-1.08-2.49-1.7-4.05-1.7s-2.9.56-3.82,1.51c-1.11,1.02-1.75,2.48-1.75,4.01,0,1.41.61,2.86,1.62,3.88,1.07,1.09,2.52,1.71,3.97,1.71Zm106,155.03c-3.09,0-5.42,2.37-5.42,5.5s2.33,5.5,5.42,5.5,5.42-2.37,5.42-5.5-2.33-5.5-5.42-5.5Zm208.85-70.34c-1.53,0-2.99.6-3.88,1.57-1.05,1.05-1.63,2.43-1.63,3.9s.56,2.84,1.47,3.8c1.02,1.13,2.5,1.78,4.05,1.78s2.92-.59,3.96-1.62c1-1,1.56-2.41,1.56-3.96s-.56-2.91-1.64-3.97c-1.04-.96-2.42-1.49-3.89-1.49Zm-138.75,21.06c-3.09,0-5.42,2.37-5.42,5.5,0,1.37.47,2.68,1.33,3.67,1.01,1.18,2.46,1.83,4.09,1.83,3.09,0,5.42-2.37,5.42-5.5,0-1.37-.47-2.67-1.33-3.67-1.01-1.18-2.46-1.83-4.09-1.83Zm-191.35-57.44c4.5,0,4.51-7,0-7s-4.51,7,0,7Zm-15.4-48.31c1.33,0,2.62-.52,3.77-1.52l.12-.11c1.04-1.04,1.63-2.48,1.63-3.96s-.58-2.84-1.55-3.81c-1.02-1.1-2.49-1.74-4.03-1.74s-2.89.58-3.92,1.62l-.1.11c-.98,1.11-1.5,2.43-1.5,3.82,0,1.52.64,3,1.68,3.94,1.05,1.03,2.51,1.64,3.9,1.64Zm29.42,69.64c-1.01-1.01-2.45-1.59-3.95-1.59s-2.99.61-3.9,1.59c-1.03,1.04-1.63,2.48-1.63,3.96s.61,2.88,1.61,3.87c1.03,1.05,2.48,1.65,3.97,1.65s2.8-.56,3.81-1.55c1.09-.98,1.71-2.43,1.71-3.97s-.59-2.93-1.63-3.96Zm-10.53-56.98c4.5,0,4.51-7,0-7s-4.51,7,0,7Zm-23.07,69.9c4.5,0,4.51-7,0-7s-4.51,7,0,7Zm112.66,50.62c-1.54,0-3.01.59-3.91,1.56-1.06,1.06-1.62,2.43-1.62,3.96,0,1.44.56,2.81,1.54,3.81.99,1.09,2.46,1.72,4.04,1.72s3-.64,3.94-1.69c.99-1.01,1.58-2.44,1.58-3.84,0-1.54-.59-2.93-1.61-3.87-.98-1.05-2.43-1.65-3.97-1.65Zm-108.51-80.45c-1.46,0-2.87.57-3.81,1.54-1.15,1.05-1.75,2.44-1.75,4.02s.64,3.02,1.69,3.95c1.02,1,2.44,1.57,3.9,1.57s2.8-.56,3.8-1.54c1.08-.96,1.72-2.45,1.72-3.98s-.56-2.9-1.63-3.96c-1.01-1.01-2.44-1.59-3.92-1.59Zm88.12,71.07c-4.5,0-4.51,7,0,7s4.51-7,0-7Zm-23.05-4.68c-1.52,0-2.99.61-3.91,1.59-1.03,1.04-1.63,2.48-1.63,3.96,0,.51.08,1.03.23,1.52l6.89,3.76c.82-.24,1.6-.65,2.31-1.27l.1-.1c1.03-1.02,1.64-2.48,1.64-3.9,0-1.5-.6-2.93-1.71-4.04-1.04-.96-2.47-1.51-3.93-1.51Zm405.93-66.84c-3.09,0-5.42,2.37-5.42,5.5,0,1.37.47,2.67,1.33,3.67,1.01,1.18,2.46,1.83,4.09,1.83,3.09,0,5.41-2.37,5.41-5.5s-2.33-5.5-5.41-5.5Zm-581.41,11.41c4.5,0,4.51-7,0-7s-4.51,7,0,7Zm-39.84,62.2c-4.5,0-4.51,7,0,7s4.51-7,0-7Zm41.94,9.79c-4.5,0-4.51,7,0,7s4.51-7,0-7Zm-32.16-53.82c4.5,0,4.51-7,0-7s-4.51,7,0,7Zm-29.34,78.14c-1.55,0-2.98.58-3.91,1.58-1.04,1.05-1.61,2.43-1.61,3.88,0,1.56.58,2.99,1.54,3.88,1.02,1.09,2.47,1.71,3.98,1.71s2.93-.6,3.86-1.6c1.08-1,1.73-2.49,1.73-4s-.61-2.88-1.71-3.97c-1.03-.96-2.41-1.49-3.88-1.49Zm52.2-76.11l.16.14c1.11.97,2.43,1.49,3.82,1.49,1.46,0,2.85-.58,3.91-1.64,1.07-1.08,1.68-2.52,1.68-3.94s-.63-2.89-1.71-3.97c-1.06-.98-2.45-1.52-3.93-1.52s-2.86.56-3.84,1.54c-1.03,1.03-1.62,2.48-1.62,3.96,0,1.36.51,2.73,1.39,3.78l.14.17Zm-18.96,95.46c-1.03-.97-2.39-1.5-3.83-1.5s-2.9.58-3.95,1.63c-1.05,1.05-1.63,2.43-1.63,3.89s.59,2.92,1.62,3.94c1.01,1.03,2.37,1.57,3.91,1.57s2.97-.55,3.96-1.56c1.04-1.04,1.63-2.48,1.63-3.96,0-1.38-.52-2.7-1.56-3.89l-.14-.13Zm-4.7-30.43c0-1.48-.59-2.92-1.62-3.95-1.03-1.03-2.41-1.6-3.91-1.6s-2.83.54-3.95,1.6c-1.03,1.03-1.63,2.47-1.63,3.96s.58,2.86,1.62,3.89c1.02,1.02,2.48,1.64,3.89,1.64,1.52,0,2.89-.56,3.95-1.62,1.06-1.04,1.65-2.43,1.65-3.91Zm26.45,3.93c0-1.37-.47-2.68-1.33-3.67-1.01-1.18-2.46-1.83-4.09-1.83-3.09,0-5.42,2.37-5.42,5.5,0,1.37.47,2.68,1.33,3.67,1.01,1.18,2.46,1.83,4.09,1.83,3.09,0,5.42-2.37,5.42-5.5Zm-16.68-46.52c-1.48,0-2.91.58-3.91,1.58-1.04,1.03-1.64,2.47-1.64,3.97s.59,2.92,1.62,3.96c1.02,1.02,2.48,1.63,3.89,1.63s2.93-.59,3.96-1.63c1.04-1.04,1.63-2.48,1.63-3.96s-.59-2.94-1.62-3.95c-1.01-1.02-2.45-1.6-3.93-1.6Zm-37.63-46.13c4.5,0,4.51-7,0-7s-4.51,7,0,7Zm64.28,47.31c-3.09,0-5.42,2.37-5.42,5.5,0,1.37.47,2.67,1.33,3.67,1.01,1.18,2.46,1.83,4.09,1.83,3.09,0,5.42-2.37,5.42-5.5,0-1.37-.47-2.68-1.33-3.67-1.01-1.18-2.46-1.83-4.09-1.83Zm-184.93-43.7c1.42,0,2.87-.61,3.88-1.62,1.03-1.02,1.64-2.48,1.64-3.91s-.59-2.93-1.63-3.96c-1.01-1.01-2.4-1.57-3.91-1.57s-2.94.57-3.94,1.56c-1.03,1.03-1.62,2.48-1.62,3.96s.61,2.89,1.62,3.89c1.07,1.07,2.44,1.63,3.97,1.63Zm-3.46,41.95c-2.11,0-3.85,1.12-4.75,2.83l9.56,5.21c.37-.76.6-1.61.6-2.54,0-1.37-.47-2.67-1.33-3.67-1.01-1.18-2.46-1.83-4.09-1.83Zm17.9-10.49c0-2-.92-3.26-1.65-3.92-1-1.01-2.42-1.59-3.89-1.59s-3,.61-3.91,1.6c-1.06,1.04-1.65,2.43-1.65,3.91s.6,2.94,1.6,3.86c1.01,1.09,2.46,1.72,3.99,1.72s2.86-.58,3.89-1.62c1.04-1.04,1.63-2.48,1.63-3.96Zm-5.63-49.05c4.5,0,4.51-7,0-7s-4.51,7,0,7Zm85.5,118.27l4.16,2.27c-.11-.15-.2-.31-.32-.46-.96-1.12-2.31-1.75-3.84-1.81Zm26.89-50.45c-1.53,0-2.97.58-3.82,1.51-1.08,1.08-1.7,2.55-1.7,4.03s.61,2.89,1.6,3.8c1.04,1.13,2.41,1.72,3.98,1.72,1.47,0,2.85-.58,3.87-1.61,1.03-1.01,1.65-2.48,1.65-3.91,0-1.53-.56-2.9-1.63-3.96-1-1-2.44-1.57-3.96-1.57Zm-10.95-3.45c0-1.48-.6-2.88-1.71-3.97-1.04-.96-2.47-1.52-3.93-1.52-1.54,0-2.98.61-3.91,1.65-1.01,1.04-1.56,2.4-1.56,3.84s.56,2.84,1.47,3.8c1.02,1.13,2.5,1.78,4.05,1.78s3.02-.64,3.96-1.69c1.04-1.08,1.63-2.49,1.63-3.89Zm-9.54-34.55c-1.03,1.01-1.57,2.37-1.57,3.91s.56,2.97,1.53,3.87c1.02,1.09,2.47,1.71,3.98,1.71s2.92-.59,3.98-1.65l.11-.12c.98-1.12,1.5-2.43,1.5-3.81,0-1.48-.6-2.88-1.71-3.97-1.04-.96-2.47-1.51-3.93-1.51s-2.99.6-3.9,1.58Zm8.76,63.14c-4.5,0-4.51,7,0,7s4.51-7,0-7Zm-6.29-76.18c4.5,0,4.51-7,0-7s-4.51,7,0,7Zm35.86,1.77c1.02,1.02,2.48,1.63,3.89,1.63,1.34,0,2.67-.54,3.72-1.48l-9.15-4.99c-.05.29-.09.58-.09.88,0,1.39.52,2.71,1.51,3.84l.11.12Zm-125.36,54.27c-.72,0-1.39.14-2.01.38l7.3,3.98c-.19-.94-.59-1.82-1.21-2.53-1.01-1.18-2.46-1.83-4.09-1.83Zm234.05-10.15c0-1.54-.64-2.96-1.76-3.96-1.02-.99-2.43-1.55-3.87-1.55s-2.87.57-3.9,1.6c-1.06,1.04-1.65,2.43-1.65,3.91,0,1.38.59,2.81,1.54,3.8,1.01,1.13,2.49,1.78,4.04,1.78,1.48,0,2.86-.58,3.89-1.62,1.08-1.08,1.7-2.52,1.7-3.96Zm-37.17-78.09c.27.76.69,1.46,1.26,2.02,1.04,1.06,2.43,1.64,3.9,1.64s2.96-.6,3.88-1.61c1.09-1.02,1.71-2.47,1.71-3.97,0-1.42-.56-2.8-1.48-3.75l-9.27,5.67Zm23.07-.15c1.53,0,2.95-.63,3.95-1.76,1.01-1.04,1.57-2.4,1.57-3.83s-.59-2.94-1.62-3.95c-1.01-1.02-2.44-1.61-3.93-1.61s-2.91.58-3.91,1.58c-1.05,1.03-1.65,2.48-1.65,3.97s.59,2.92,1.62,3.94c1.03,1.05,2.48,1.65,3.97,1.65Zm-1.37,27.49c-1.07,1.07-1.63,2.44-1.63,3.96s.64,3.02,1.69,3.95c1.01.99,2.45,1.58,3.83,1.58,1.46,0,2.85-.57,3.83-1.57,1.12-.96,1.76-2.41,1.76-3.96s-.59-2.92-1.62-3.95c-1.01-1.02-2.44-1.6-3.93-1.6s-2.92.58-3.92,1.6Zm-6.75,46.09c-4.5,0-4.51,7,0,7s4.51-7,0-7Zm20.93,34.25c-.94.84-1.54,2-1.72,3.26l7.25-4.43c-.56-.19-1.15-.31-1.75-.31-1.43,0-2.82.55-3.78,1.47Zm-141.29-96.19l-8.08-4.4c.11,1.36.62,2.56,1.49,3.37,1.01,1.09,2.46,1.72,3.99,1.72.93,0,1.81-.25,2.6-.68Zm-95.75-22.33c0-.28-.04-.55-.08-.82l-3.21,5.89c.62-.3,1.18-.71,1.65-1.23,1.06-1.08,1.64-2.44,1.64-3.83Zm11.99,55.62c4.5,0,4.51-7,0-7s-4.51,7,0,7Zm194.49,42.57l-.09-.08c-1.05-.99-2.44-1.53-3.92-1.53s-2.91.56-3.92,1.58c-1.01,1-1.57,2.41-1.57,3.97,0,1.46.48,2.74,1.42,3.81l.13.15.15.13c1.12.98,2.44,1.5,3.82,1.5,1.46,0,2.84-.58,3.91-1.65,1.02-1.04,1.61-2.47,1.61-3.94,0-1.37-.51-2.75-1.41-3.79l-.14-.15Zm-15.45,21.4c-1.48,0-2.91.58-3.92,1.59-1.05,1.05-1.63,2.43-1.63,3.89,0,1.54.56,2.91,1.62,3.95,1.02,1.03,2.48,1.65,3.91,1.65s2.94-.59,3.94-1.62c1.05-1.03,1.65-2.48,1.65-3.98,0-1.41-.61-2.87-1.63-3.89-1.01-1.01-2.44-1.59-3.92-1.59Zm15.29-61.28c-1.48,0-2.9.57-3.84,1.53-1.06.97-1.69,2.44-1.69,3.95,0,1.6.63,3.08,1.69,4.02,1.04,1.01,2.4,1.57,3.83,1.57,1.52,0,2.95-.6,3.86-1.6,1.13-1.04,1.72-2.42,1.72-3.99,0-1.46-.58-2.84-1.63-3.89-1.01-1.01-2.45-1.59-3.95-1.59Zm-11.89-20.18c-4.5,0-4.51,7,0,7s4.51-7,0-7Zm-63.02,32.07c0-1.55-.56-2.91-1.64-3.97-1.04-.96-2.42-1.49-3.89-1.49s-2.99.6-3.88,1.57c-1.05,1.05-1.63,2.43-1.63,3.9s.56,2.84,1.47,3.8c1.02,1.13,2.5,1.78,4.05,1.78s2.92-.59,3.96-1.62c1-1,1.56-2.41,1.56-3.96Zm35.43,90.74c-.81-.43-1.8-.64-2.7-.35-.84.27-1.69.8-2.09,1.61-.23.47-.47.93-.7,1.4-.42.85-.61,1.76-.35,2.7.07.24.18.48.31.72l7.02-4.29c-.28-.72-.83-1.43-1.49-1.78Zm17.81-91.35c-4.5,0-4.51,7,0,7s4.51-7,0-7Zm35.27,45.57c-3.09,0-5.42,2.37-5.42,5.5,0,1.37.47,2.68,1.33,3.67,1.01,1.18,2.46,1.83,4.09,1.83,3.09,0,5.42-2.37,5.42-5.5,0-1.37-.47-2.67-1.33-3.67-1.01-1.18-2.46-1.83-4.09-1.83Zm1.78-10.62c-4.5,0-4.51,7,0,7s4.51-7,0-7Zm6.61-48.1c-1.62,0-3.08.65-4.09,1.83-.86,1-1.33,2.3-1.33,3.67,0,3.13,2.33,5.5,5.42,5.5s5.42-2.37,5.42-5.5c0-1.37-.47-2.68-1.33-3.67-1.01-1.18-2.46-1.83-4.09-1.83Zm-39.83-24.09c1.47,0,2.85-.58,3.87-1.62,1.06-1.05,1.65-2.43,1.65-3.91s-.59-2.92-1.62-3.95c-1.01-1.02-2.44-1.6-3.93-1.6s-2.92.58-3.92,1.59c-1.04,1.04-1.63,2.48-1.63,3.96s.58,2.85,1.62,3.88c1.03,1.05,2.48,1.65,3.97,1.65Zm-154.5,7.69c1.48,0,2.92-.59,3.96-1.62,1.04-1.04,1.63-2.48,1.63-3.96s-.61-2.88-1.64-3.9c-1.03-1.03-2.44-1.59-3.96-1.59s-2.91.56-3.89,1.54c-1.08,1.08-1.69,2.52-1.69,3.96,0,1.51.6,2.94,1.61,3.87,1.02,1.08,2.47,1.71,3.98,1.71Zm505.97-49.43c3.33,0,4.2-3.83,2.59-5.82l-5.78,3.53c.4,1.26,1.46,2.29,3.19,2.29Zm-170.65,105.19l-7.57-4.76c.09,1.43.64,2.69,1.58,3.54,1.1,1.07,2.44,1.63,3.9,1.63.73,0,1.44-.14,2.09-.41Zm354.92-85.11c.31,0,.62-.03.92-.08l-6.04-3.3c.27.65.66,1.24,1.16,1.73,1.03,1.05,2.48,1.65,3.97,1.65Zm52,44.92c-4.5,0-4.51,7,0,7s4.51-7,0-7Zm-1.35-17.88c-.02.2-.06.4-.06.6,0,1.53.64,3.02,1.69,3.95,1.02,1,2.44,1.57,3.9,1.57,1.27,0,2.47-.46,3.43-1.24l-8.95-4.88Zm-523.5-5.4c-3.09,0-5.42,2.37-5.42,5.5,0,1.37.47,2.67,1.33,3.67,1.01,1.18,2.46,1.83,4.09,1.83,3.09,0,5.41-2.37,5.41-5.5s-2.33-5.5-5.41-5.5Zm9.44-52.96c3.09,0,5.42-2.37,5.42-5.5,0-.87-.21-1.7-.56-2.45l-9.27,5.66c.11.16.2.32.33.46,1.01,1.18,2.46,1.83,4.09,1.83Zm26.46-21.16l-5.25,3.21c.5.33,1.13.54,1.89.54,2.36,0,3.47-1.92,3.36-3.75Zm48.46,17.53l-6.01-3.28c-.78,2.06.26,4.88,3.13,4.88,1.4,0,2.36-.67,2.89-1.6Zm47.76,36.14c3.09,0,5.42-2.37,5.42-5.5,0-.64-.12-1.24-.3-1.81l-6.45-3.52c-2.39.58-4.08,2.67-4.08,5.33,0,3.13,2.33,5.5,5.42,5.5Zm362.67,12.99c1.25,0,2.14-.54,2.69-1.32l-5.92-3.23c-.55,2.02.51,4.55,3.23,4.55Zm-7.84,64.06c0-1.54-.64-2.96-1.76-3.96-1.02-.99-2.43-1.55-3.87-1.55s-2.87.57-3.9,1.6c-1.06,1.04-1.65,2.43-1.65,3.91,0,1.38.59,2.81,1.54,3.8,1.01,1.13,2.49,1.78,4.04,1.78,1.48,0,2.86-.58,3.89-1.62,1.08-1.08,1.7-2.52,1.7-3.96Zm-10.01-32.49c-1.62,0-3.08.65-4.09,1.83-.86,1-1.33,2.3-1.33,3.67,0,3.13,2.33,5.5,5.42,5.5s5.42-2.37,5.42-5.5c0-1.37-.47-2.68-1.33-3.67-1.01-1.18-2.46-1.83-4.09-1.83Zm-37.28,63.15c-.28,0-.55.04-.82.08l5.89,3.21c-.28-.63-.67-1.22-1.15-1.7-1.01-1.01-2.44-1.59-3.92-1.59Zm49.79-2.55c-1.43,0-2.82.55-3.78,1.47-1.13,1.01-1.78,2.49-1.78,4.05s.64,3.01,1.68,3.95c1.05,1.03,2.49,1.64,3.83,1.64s2.71-.54,3.83-1.51l.13-.12c1.04-1.04,1.63-2.48,1.63-3.96s-.63-2.99-1.65-3.91c-1-1.02-2.42-1.61-3.89-1.61Zm-209.27,1.57c-1-1-2.42-1.58-3.92-1.58s-2.95.58-3.96,1.6l-.1.11c-.98,1.11-1.5,2.43-1.5,3.82s.58,2.9,1.56,3.89c.38.38.8.7,1.26.96l8.27-5.06c-.05-1.3-.55-2.55-1.5-3.63l-.1-.11Zm-66.49,1.01c-.27,0-.53.04-.79.07l-2.13,10.14c.87.54,1.86.84,2.94.84,1.42,0,2.87-.61,3.87-1.61,1.03-1.02,1.65-2.48,1.65-3.91s-.59-2.93-1.63-3.96c-1.01-1.01-2.4-1.57-3.91-1.57Zm256.17-77.48c0,1.53.64,3.02,1.69,3.95,1.01.99,2.45,1.58,3.83,1.58,1.46,0,2.85-.57,3.83-1.57,1.12-.96,1.76-2.41,1.76-3.96s-.59-2.92-1.62-3.95c-1.01-1.02-2.44-1.6-3.93-1.6s-2.92.58-3.92,1.6c-1.07,1.07-1.63,2.44-1.63,3.96Zm-5.12,42.13c-4.5,0-4.51,7,0,7s4.51-7,0-7Zm3.81,30.89c-3.09,0-5.42,2.37-5.42,5.5,0,1.37.47,2.68,1.33,3.67,1.01,1.18,2.46,1.83,4.09,1.83,3.09,0,5.42-2.37,5.42-5.5,0-1.37-.47-2.67-1.33-3.67-1.01-1.18-2.46-1.83-4.09-1.83Zm1.78-10.62c-4.5,0-4.51,7,0,7s4.51-7,0-7Zm-663.34-7.6c-1.03-1.02-2.47-1.61-3.96-1.61s-2.94.6-3.85,1.58c-1.11,1.02-1.73,2.42-1.73,3.93s.6,2.94,1.61,3.87c1.02,1.08,2.47,1.71,3.98,1.71,1.38,0,2.7-.52,3.81-1.49l.16-.14.15-.17c.88-1.04,1.39-2.42,1.39-3.77s-.5-2.68-1.43-3.76l-.13-.14Zm-15.61-72.78c4.5,0,4.51-7,0-7s-4.51,7,0,7Zm210.41,74.09c-4.5,0-4.51,7,0,7s4.51-7,0-7Zm-185.53-30.57c0-1.5-.6-2.93-1.7-4.03-1.05-.98-2.42-1.53-3.85-1.53s-2.8.54-3.93,1.6c-1.03,1.03-1.62,2.47-1.62,3.96s.64,3.03,1.69,3.95c1.05,1.01,2.4,1.57,3.82,1.57,1.52,0,2.89-.56,3.95-1.62,1.06-1.04,1.65-2.43,1.65-3.91Zm-15.73-53.17c1.42,0,2.87-.61,3.89-1.62,1.04-1.04,1.63-2.48,1.63-3.96s-.58-2.86-1.63-3.9c-1.01-1.01-2.45-1.59-3.95-1.59s-2.98.6-3.89,1.58c-1.06,1.04-1.64,2.43-1.64,3.91s.6,2.94,1.6,3.87c1.04,1.12,2.42,1.72,3.99,1.72Zm-11.24,66.97c-4.5,0-4.51,7,0,7s4.51-7,0-7Zm25.26-46.55c1.48,0,2.86-.58,3.89-1.62,1.04-1.04,1.63-2.48,1.63-3.96s-.65-3.03-1.7-3.97c-1.01-.97-2.42-1.53-3.88-1.53s-2.85.55-3.81,1.52c-1.09,1.07-1.71,2.52-1.71,3.98s.59,2.92,1.61,3.94c1.03,1.04,2.47,1.64,3.97,1.64Zm-49.8,45.08c-1.53,0-3,.61-3.92,1.6-1.06,1.04-1.64,2.43-1.64,3.91s.6,2.94,1.6,3.87c1.03,1.1,2.42,1.71,3.92,1.71s2.93-.59,3.96-1.62c1.04-1.04,1.63-2.48,1.63-3.96s-.58-2.86-1.56-3.82c-1-1.07-2.46-1.69-3.99-1.69Zm16.15,16.84c-4.5,0-4.51,7,0,7s4.51-7,0-7Zm448.19-35.48c1.06-1.05,1.65-2.43,1.65-3.91s-.59-2.92-1.62-3.95c-.57-.57-1.27-.98-2.03-1.25l-2.25,10.69c.1,0,.21.03.31.03,1.49,0,2.93-.59,3.94-1.62Zm-449.02-6.89c-1.53,0-3,.61-3.92,1.6-1.06,1.04-1.64,2.43-1.64,3.91s.58,2.88,1.52,3.79c.97,1.14,2.42,1.79,3.99,1.79s2.9-.56,3.96-1.62c1.04-1.04,1.63-2.48,1.63-3.96s-.58-2.86-1.56-3.82c-1-1.07-2.46-1.69-3.99-1.69Zm17.61-9.35c-4.5,0-4.51,7,0,7s4.51-7,0-7Zm-72.48,6.81c-1.51,0-2.94.57-3.94,1.57-1.03,1.04-1.63,2.48-1.63,3.96,0,1.35.5,2.67,1.43,3.75l.13.14c1.04,1.04,2.48,1.64,3.96,1.64s2.93-.59,3.94-1.62c1.06-1.05,1.65-2.43,1.65-3.91s-.59-2.92-1.62-3.95c-1.01-1.02-2.4-1.58-3.92-1.58Zm48.23-31.42c-1.01-1.18-2.46-1.83-4.09-1.83-3.09,0-5.42,2.37-5.42,5.5,0,1.37.47,2.68,1.33,3.67,1.01,1.18,2.46,1.83,4.09,1.83,3.09,0,5.42-2.37,5.42-5.5,0-1.37-.47-2.68-1.33-3.67Zm-2.31-13.13c4.5,0,4.51-7,0-7s-4.51,7,0,7Zm229.95-7.57c-3.09,0-5.42,2.37-5.42,5.5,0,1.37.47,2.68,1.33,3.67,1.01,1.18,2.46,1.83,4.09,1.83,3.09,0,5.42-2.37,5.42-5.5,0-1.37-.47-2.67-1.33-3.67-1.01-1.18-2.46-1.83-4.09-1.83Zm-6.26,18.04c-4.5,0-4.51,7,0,7s4.51-7,0-7Zm-170.09,94.07c-1.5,0-2.92.59-3.86,1.59-1.06,1.07-1.67,2.5-1.67,3.93,0,1.52.64,3,1.68,3.94,1.02,1,2.44,1.57,3.9,1.57,1.54,0,2.89-.54,3.89-1.55,1.04-1.04,1.63-2.48,1.63-3.96s-.63-2.99-1.65-3.92c-1-1.02-2.43-1.6-3.92-1.6Zm-6.35,23.01c-.64,0-1.25.12-1.83.31l7.28,3.97c-.23-1.03-.75-1.98-1.57-2.8-1.03-.96-2.41-1.49-3.88-1.49Zm-20.71-15.94c-2.28,0-4.14,1.3-4.96,3.24l9.56,5.21c.51-.85.82-1.85.82-2.96,0-1.37-.47-2.67-1.33-3.67-1.01-1.18-2.46-1.83-4.09-1.83Zm24.5-64.78c4.5,0,4.51-7,0-7s-4.51,7,0,7Zm2.94,30.09c0-1.37-.47-2.68-1.33-3.67-1.01-1.18-2.46-1.83-4.09-1.83s-3.08.65-4.09,1.83c-.86,1-1.33,2.3-1.33,3.67,0,3.13,2.33,5.5,5.42,5.5s5.42-2.37,5.42-5.5Z"/>
          <path d="m919.73,775.68l-.1.18-11.1-4.71.54-1.28,10.65,5.81Zm-55.27-26.21l5.85,1.34.42-1.85-5.47-2.98-.8,3.5Zm-79.64-46.36l8.3,3.52-7.95-4.34-.35.82Zm118.88,79.43l9.98,4.23,2.89-5.29-10.52-4.46-2.34,5.52Zm-40.02-4.75l-42.88,6.03.83,5.94,42.88-6.03-.83-5.94Zm-28.55,72.93l3.12,8.64,7.94,4.33-5.42-15-5.64,2.04Zm-176.16-64.38l-30-31.22-4.33,4.16,30,31.22,4.33-4.16Zm-58.77,43.35l12.47,41.47,5.75-1.73-12.47-41.47-5.75,1.73Zm-11.85,3.56l12.48,41.47,5.75-1.73-12.48-41.47-5.75,1.73Zm78.75-89.69l21.53-37.58-3.95-2.26-2.58,1.57-20.21,35.28,5.21,2.98Zm-66.68,143.49l2.51-1.53-2.73.82.22.72Zm49.63-92.14l-29.99-31.24-4.33,4.16,29.99,31.24,4.33-4.16Zm20.75-82.7l-10.64,6.51-9,15.71,5.21,2.98,14.44-25.2Zm151.73,83.85l.83,5.94,42.88-6.02-.83-5.94-42.88,6.02Zm-166.99,57.3l7.54-4.61,4.78-16.92-5.77-1.63-6.55,23.16Zm47.09-94.04l-26.31,34.38,4.76,3.65,26.31-34.38-4.76-3.65Zm-16.49,41.91l4.76,3.65,26.32-34.39-4.76-3.65-26.32,34.39Zm-35.96,25.6l-10.19,36.03,7.54-4.61,8.42-29.8-5.77-1.63Zm94.14-51.86l11.92,39.66,2.33,1.27,3.96-1.19-12.47-41.47-5.75,1.73Zm11.85-3.57l12.47,41.46,5.75-1.73-12.47-41.46-5.75,1.73Zm-167.82,118.5l1.15,3.83,5.29-3.23-.7-2.32-5.75,1.73Zm295.68-60.38l3.8,4.65,3.1-5.69-2.26-2.76-4.64,3.8Zm-90.21,5.61l5.44,2.97.86-3.37-5.82-1.48-.48,1.88Zm80.63,2.22l6.99,8.54,3.1-5.69-5.45-6.66-4.64,3.8Zm-27.67,9.18l7.85,21.77,7.94,4.33-10.15-28.13-5.64,2.04Zm-90.71-154.45l-23.17,36.58,5.07,3.21,23.17-36.58-5.07-3.21Zm-10.46-6.62l-23.16,36.58,5.07,3.21,23.16-36.58-5.07-3.21Zm42.43,146.52l.08-.3-1.16-.29,1.08.59Zm-623.13-112.98l-5.27-2.87-10.49,18.31,5.21,2.98,10.55-18.42Zm.19,24.57l10.68-18.64-5.27-2.87-10.62,18.54,5.21,2.98Zm-8.12,42.77l-30-31.22-4.33,4.16,30,31.22,4.33-4.16Zm103.35-15.31l-1.75-.96-4.4,1.32,12.47,41.46,5.75-1.73-12.06-40.1Zm112.13,66.31l3.51,4.29,5.17-3.16-4.04-4.93-4.64,3.8Zm-9.22-119.75l-7.16,4.38-5.67,24.74,5.85,1.34,6.98-30.46Zm-245.16,46.09l-4.33,4.16,29.99,31.24,4.33-4.16-29.99-31.24Zm263.97,65.83l4.59,5.61,5.17-3.16-5.11-6.25-4.64,3.8Zm24.5-58.37l39.86,16.91,2.34-5.52-39.86-16.91-2.34,5.52Zm-261.08,65.34l5.4,2.95,3.1-10.98-5.77-1.63-2.73,9.66Zm300.6-141.66l-5.4-2.95-6.54,23.15,5.77,1.63,6.17-21.83Zm-.05,23.56l5.77,1.63,5.41-19.12-5.4-2.95-5.78,20.43Zm-44.3,64.15l39.85,16.91,2.34-5.52-39.85-16.91-2.34,5.52Zm-68.57,68.18l5.06,14,5.23-3.19-4.64-12.85-5.64,2.04Zm157.58-36.7l2.95,5.23,25.56-14.42-2.95-5.23-25.56,14.42Zm-290.08-54.7l-26.31,34.38,4.76,3.65,26.31-34.38-4.76-3.65Zm41.68,15.65l12.47,41.47,5.75-1.73-12.47-41.47-5.75,1.73Zm-85.72,67.61l5.4,2.95,3.87-13.69-5.77-1.63-3.5,12.37Zm27.55-41.35l4.76,3.65,26.32-34.39-4.76-3.65-26.32,34.39Zm177.54-23.44l-42.88,6.03.83,5.94,42.88-6.03-.83-5.94Zm148.38,16.77l-22.69,7.49,1.88,5.7,22.69-7.49-1.88-5.7Zm-132.13-85.95l-7.11,4.35-8.36,36.52,5.85,1.34,9.66-42.19h-.04Zm-97.63,121.58l-10.66,41.96,5.82,1.48,10.66-41.96-5.82-1.48Zm40.23-34.14l.83,5.94,42.88-6.02-.83-5.94-42.88,6.02Zm-29.1,97.24l4.2-2.57-3.33-.85-.87,3.42Zm53.35-46.78l4.19,11.61,5.23-3.19-3.77-10.46-5.64,2.04Zm-63.15,28.68l5.82,1.48,10.67-41.96-5.82-1.48-10.67,41.96Zm-5.32,27.34l7.33-4.48,2.47-9.74-5.82-1.48-3.99,15.7Z"/>
          <path d="m734.72,486.3c-1.62,0-3.08-.65-4.09-1.83-.86-1-1.33-2.3-1.33-3.67,0-3.14,2.33-5.5,5.42-5.5,1.62,0,3.08.65,4.09,1.83.86,1,1.33,2.3,1.33,3.67,0,3.14-2.33,5.5-5.42,5.5Zm-67.07,59.12c-4.5,0-4.51,7,0,7s4.51-7,0-7Zm54.56-26.97c-1.52,0-2.99.6-3.9,1.58-1.03,1.01-1.57,2.37-1.57,3.91s.56,2.97,1.53,3.87c1.02,1.09,2.47,1.71,3.98,1.71s2.92-.59,3.98-1.65l.11-.12c.98-1.12,1.5-2.43,1.5-3.81,0-1.48-.6-2.88-1.71-3.97-1.04-.96-2.47-1.51-3.93-1.51Zm-27.59,13.18c0-1.5-.6-2.93-1.7-4.03-1.05-.98-2.42-1.53-3.85-1.53s-2.8.54-3.93,1.6c-1.03,1.03-1.62,2.47-1.62,3.96s.64,3.03,1.69,3.95c1.05,1.01,2.4,1.57,3.82,1.57,1.52,0,2.89-.56,3.95-1.62,1.06-1.04,1.65-2.43,1.65-3.91Zm34.69-86.47c0,1.37.47,2.67,1.33,3.67,1.01,1.18,2.46,1.83,4.09,1.83,3.09,0,5.42-2.37,5.42-5.5,0-1.37-.47-2.68-1.33-3.67-1.01-1.18-2.46-1.83-4.09-1.83-3.09,0-5.42,2.37-5.42,5.5Zm-43.95,115.74c-1.03-1.02-2.47-1.61-3.96-1.61s-2.94.6-3.85,1.58c-1.11,1.02-1.73,2.42-1.73,3.93s.6,2.94,1.61,3.87c1.02,1.08,2.47,1.71,3.98,1.71,1.38,0,2.7-.52,3.81-1.49l.16-.14.15-.17c.88-1.04,1.39-2.42,1.39-3.77s-.5-2.68-1.43-3.76l-.13-.14Zm52.9-63.7c-4.5,0-4.51,7,0,7s4.51-7,0-7Zm44.03-11.97c-1.48,0-2.92.58-3.92,1.6-1.04,1.04-1.63,2.48-1.63,3.96s.58,2.85,1.62,3.88c1.05,1.06,2.44,1.65,3.9,1.65s2.93-.59,3.94-1.62c1.03-1.02,1.65-2.48,1.65-3.9s-.59-2.92-1.62-3.95c-1.01-1.02-2.44-1.6-3.93-1.6Zm-63.99,65.54l2.38-1.45c-.93.26-1.75.76-2.36,1.44,0,0,0,.01-.01.02Zm5.74-65.42c1.04-1.04,1.63-2.48,1.63-3.96s-.63-3-1.66-3.92c-1-1.01-2.38-1.57-3.88-1.57s-2.9.56-3.86,1.52c-1.04,1.03-1.64,2.48-1.64,3.98,0,1.57.56,2.96,1.53,3.86,1.01,1.09,2.46,1.72,3.99,1.72s2.86-.58,3.89-1.62Zm-3.26,14.65c-4.5,0-4.51,7,0,7s4.51-7,0-7Zm-22.75,42.77c-1.62,0-3.08.65-4.09,1.83-.86,1-1.33,2.3-1.33,3.67,0,3.13,2.33,5.5,5.42,5.5s5.42-2.37,5.42-5.5c0-1.37-.47-2.68-1.33-3.67-1.01-1.18-2.46-1.83-4.09-1.83Zm135.3-20.5c-1.48,0-2.9.57-3.84,1.53-1.06.97-1.69,2.44-1.69,3.95,0,1.6.63,3.08,1.69,4.02,1.04,1.01,2.4,1.57,3.83,1.57,1.52,0,2.95-.6,3.86-1.6,1.13-1.04,1.72-2.42,1.72-3.99,0-1.46-.58-2.84-1.63-3.89-1.01-1.01-2.45-1.59-3.95-1.59Zm-.04-54.89c-1.48,0-2.88.56-3.85,1.52-1.04,1.03-1.64,2.48-1.64,3.98s.59,2.92,1.62,3.94c1.04,1.06,2.43,1.64,3.9,1.64s2.96-.6,3.88-1.61c1.09-1.02,1.71-2.47,1.71-3.97s-.65-3.03-1.7-3.97c-1.01-.97-2.44-1.53-3.91-1.53Zm-174.03,93.43c-4.5,0-4.51,7,0,7s4.51-7,0-7Zm137.71-53.12c4.5,0,4.51-7,0-7s-4.51,7,0,7Zm2.37,16.25c0-1.42-.63-2.89-1.71-3.97-1.06-.98-2.45-1.52-3.93-1.52s-2.86.56-3.84,1.54c-1.03,1.03-1.62,2.48-1.62,3.96,0,1.36.51,2.73,1.39,3.78l.14.17.16.14c1.11.97,2.43,1.49,3.82,1.49,1.46,0,2.85-.58,3.91-1.64,1.07-1.08,1.68-2.52,1.68-3.94Zm-5.9-52.32c3.09,0,5.42-2.37,5.42-5.5,0-1.37-.47-2.67-1.33-3.67-1.01-1.18-2.46-1.83-4.09-1.83-3.09,0-5.42,2.37-5.42,5.5,0,1.37.47,2.68,1.33,3.67,1.01,1.18,2.46,1.83,4.09,1.83Zm18.21,61.92c-4.5,0-4.51,7,0,7s4.51-7,0-7Zm9.35-42.77c0-1.48-.59-2.92-1.62-3.95-1.01-1.02-2.44-1.6-3.93-1.6s-2.92.58-3.92,1.59c-1.04,1.04-1.63,2.48-1.63,3.96s.58,2.85,1.62,3.88c1.03,1.05,2.48,1.65,3.97,1.65s2.85-.58,3.87-1.62c1.06-1.05,1.65-2.43,1.65-3.91Zm.44,11.31c-4.5,0-4.51,7,0,7s4.51-7,0-7Zm12.04,60.05l-.09-.08c-1.05-.99-2.44-1.53-3.92-1.53s-2.91.56-3.92,1.58c-1.01,1-1.57,2.41-1.57,3.97,0,1.46.48,2.74,1.42,3.81l.13.15.15.13c1.12.98,2.44,1.5,3.82,1.5,1.46,0,2.84-.58,3.91-1.65,1.02-1.04,1.61-2.47,1.61-3.94,0-1.37-.51-2.75-1.41-3.79l-.14-.15Zm-157.44-53.06c-4.5,0-4.51,7,0,7s4.51-7,0-7Zm-49.52,35.77c1.48,0,2.86-.58,3.89-1.62,1.04-1.04,1.63-2.48,1.63-3.96,0-2-.92-3.26-1.65-3.92-1-1.01-2.42-1.59-3.89-1.59s-3,.61-3.91,1.6c-1.06,1.04-1.65,2.43-1.65,3.91s.6,2.94,1.6,3.86c1.01,1.09,2.46,1.72,3.99,1.72Zm103.34-116.14c4.5,0,4.51-7,0-7s-4.51,7,0,7Zm-102.07,154.87c-1.5,0-2.94.57-3.94,1.57-1.03,1.03-1.62,2.48-1.62,3.96s.56,2.8,1.54,3.81c.98,1.09,2.46,1.71,4.04,1.71,1.42,0,2.87-.61,3.87-1.61,1.06-1.04,1.65-2.43,1.65-3.91s-.59-2.93-1.63-3.96c-1.01-1.01-2.4-1.57-3.91-1.57Zm15.31-39.61c-1.53,0-3,.61-3.92,1.6-1.06,1.04-1.64,2.43-1.64,3.91s.6,2.94,1.6,3.87c1.03,1.1,2.42,1.71,3.92,1.71s2.93-.59,3.96-1.62c1.04-1.04,1.63-2.48,1.63-3.96s-.58-2.86-1.56-3.82c-1-1.07-2.46-1.69-3.99-1.69Zm-4.12-24.39c4.5,0,4.51-7,0-7s-4.51,7,0,7Zm-12.58-29.36c4.5,0,4.51-7,0-7s-4.51,7,0,7Zm-18.87,98.56c4.5,0,4.51-7,0-7s-4.51,7,0,7Zm50.9-70.35c-1.53,0-3,.61-3.92,1.6-1.06,1.04-1.64,2.43-1.64,3.91s.58,2.88,1.52,3.79c.97,1.14,2.42,1.79,3.99,1.79s2.9-.56,3.96-1.62c1.04-1.04,1.63-2.48,1.63-3.96s-.58-2.86-1.56-3.82c-1-1.07-2.46-1.69-3.99-1.69Zm-48.45,88.36c-1.01-1.01-2.4-1.56-3.91-1.56s-2.94.57-3.95,1.59l-.1.11c-.99,1.11-1.51,2.44-1.51,3.83,0,1.51.6,2.93,1.6,3.86,1.01,1.09,2.46,1.72,3.99,1.72s2.86-.58,3.89-1.62c1.04-1.04,1.63-2.48,1.63-3.96,0-1.4-.52-2.72-1.53-3.85l-.11-.11Zm7.62-98.99c1.42,0,2.87-.61,3.88-1.62,1.03-1.02,1.64-2.48,1.64-3.91s-.59-2.93-1.63-3.96c-1.01-1.01-2.4-1.57-3.91-1.57s-2.94.57-3.94,1.56c-1.03,1.03-1.62,2.48-1.62,3.96s.61,2.89,1.62,3.89c1.07,1.07,2.44,1.63,3.97,1.63Zm13.66,55.23c-3.09,0-5.42,2.37-5.42,5.5,0,1.37.47,2.67,1.33,3.67,1.01,1.18,2.46,1.83,4.09,1.83,3.09,0,5.42-2.37,5.42-5.5,0-1.37-.47-2.68-1.33-3.67-1.01-1.18-2.46-1.83-4.09-1.83Zm69.24-51.86c-4.5,0-4.51,7,0,7s4.51-7,0-7Zm2.1-47.53c-4.5,0-4.51,7,0,7s4.51-7,0-7Zm-13.57,25.68c-1.09,1.07-1.71,2.52-1.71,3.98s.59,2.92,1.61,3.94c1.03,1.04,2.47,1.64,3.97,1.64s2.86-.58,3.89-1.62c1.04-1.04,1.63-2.48,1.63-3.96s-.65-3.03-1.7-3.97c-1.01-.97-2.42-1.53-3.88-1.53s-2.85.55-3.81,1.52Zm27.9-31.77l.13.15.15.13c1.12.97,2.41,1.49,3.74,1.49,1.43,0,2.91-.64,3.95-1.7,1.05-1.05,1.63-2.43,1.63-3.89s-.59-2.94-1.62-3.95c-1.01-1.02-2.45-1.61-3.93-1.61s-2.91.58-3.91,1.58c-1.05,1.03-1.65,2.48-1.65,3.97,0,1.38.52,2.7,1.5,3.81Zm-2.23-30.72c-1.01-1.01-2.45-1.59-3.95-1.59s-2.98.61-3.9,1.59c-1.05,1.05-1.63,2.43-1.63,3.89,0,1.53.57,2.98,1.56,3.96,1.04,1.04,2.48,1.63,3.96,1.63s2.95-.6,3.86-1.6c1.13-1.04,1.72-2.42,1.72-3.99,0-1.41-.61-2.87-1.63-3.89Zm-53.73,77.16c1.48,0,2.92-.59,3.96-1.62,1.04-1.04,1.63-2.48,1.63-3.96s-.61-2.88-1.64-3.9c-1.03-1.03-2.44-1.59-3.96-1.59s-2.91.56-3.89,1.54c-1.08,1.08-1.69,2.52-1.69,3.96,0,1.51.6,2.94,1.61,3.87,1.02,1.08,2.47,1.71,3.98,1.71Zm141.55,47.51c-3.09,0-5.42,2.37-5.42,5.5,0,1.37.47,2.67,1.33,3.67,1.01,1.18,2.46,1.83,4.09,1.83,3.09,0,5.42-2.37,5.42-5.5,0-1.37-.47-2.68-1.33-3.67-1.01-1.18-2.46-1.83-4.09-1.83Zm-132.78-70.38c-4.5,0-4.51,7,0,7s4.51-7,0-7Zm9.14-2.66c1.42,0,2.87-.61,3.89-1.62,1.04-1.04,1.63-2.48,1.63-3.96s-.58-2.86-1.63-3.9c-1.01-1.01-2.45-1.59-3.95-1.59s-2.98.6-3.89,1.58c-1.06,1.04-1.64,2.43-1.64,3.91s.6,2.94,1.6,3.87c1.04,1.12,2.42,1.72,3.99,1.72Zm10.75-26.75c3.09,0,5.42-2.37,5.42-5.5,0-1.37-.47-2.67-1.33-3.67-1.01-1.18-2.46-1.83-4.09-1.83-3.09,0-5.42,2.37-5.42,5.5,0,1.37.47,2.68,1.33,3.67,1.01,1.18,2.46,1.83,4.09,1.83Zm-163.39,142.65c-4.5,0-4.51,7,0,7s4.51-7,0-7Zm-48.27-118c-3.09,0-5.42,2.37-5.42,5.5s2.33,5.5,5.42,5.5,5.42-2.37,5.42-5.5-2.33-5.5-5.42-5.5Zm34.21,11.82c-1-1.07-2.4-1.65-3.93-1.65s-2.92.57-3.86,1.54c-1.06.98-1.67,2.44-1.67,4.01,0,1.31.52,2.7,1.42,3.75l.09.1,9.51-4.66c-.18-1.15-.7-2.23-1.55-3.09Zm-52.91-30.62c0,1.48.58,2.88,1.52,3.79.97,1.14,2.45,1.79,4.07,1.79,1.46,0,2.84-.58,3.89-1.62,1.03-1.04,1.63-2.48,1.63-3.96s-.58-2.86-1.56-3.82c-1-1.07-2.46-1.69-3.99-1.69s-3,.61-3.92,1.6c-1.06,1.04-1.64,2.43-1.64,3.91Zm32.49,10.35c1.03-1.04,1.63-2.48,1.63-3.96s-.65-3.02-1.7-3.96c-1.03-.99-2.46-1.56-3.93-1.56s-2.88.56-3.79,1.51c-1.11,1.02-1.75,2.48-1.75,4.01s.59,2.92,1.66,3.98l.14.13c1.09.94,2.48,1.48,3.8,1.48s2.7-.52,3.83-1.52l.12-.12Zm-17.92,42.1c1.06-1.05,1.64-2.43,1.64-3.91s-.59-2.92-1.62-3.95c-1.01-1.02-2.45-1.6-3.93-1.6s-2.91.58-3.93,1.6-1.62,2.47-1.62,3.96.56,2.8,1.54,3.81c.98,1.09,2.46,1.72,4.04,1.72,1.45,0,2.83-.58,3.88-1.62Zm49.6-28.87c4.5,0,4.51-7,0-7s-4.51,7,0,7Zm-75.49,13.27c-4.5,0-4.51,7,0,7s4.51-7,0-7Zm13.98,55.92c-4.5,0-4.51,7,0,7s4.51-7,0-7Zm313.94,0c-1.48,0-2.91.58-3.91,1.58-1.04,1.03-1.64,2.47-1.64,3.97,0,.89.23,1.75.63,2.53l5.5,3c1.26-.14,2.46-.68,3.35-1.57,1.04-1.04,1.63-2.48,1.63-3.96s-.59-2.94-1.62-3.95c-1.01-1.02-2.45-1.6-3.93-1.6Zm-334.21-13.28c-4.5,0-4.51,7,0,7s4.51-7,0-7Zm-46.87-4.21l-.12-.12c-1.03-.97-2.42-1.5-3.89-1.5-1.55,0-2.98.59-3.9,1.58-1.1,1.12-1.68,2.48-1.68,3.94s.61,2.87,1.63,3.89,2.48,1.64,3.96,1.64,2.78-.56,3.8-1.55c1.12-1,1.79-2.49,1.79-3.98,0-1.36-.49-2.63-1.46-3.78l-.11-.13Zm412.98-76.09c1.39,0,2.72-.52,3.85-1.53l.09-.08c.55-.54.97-1.2,1.25-1.92l-9.67-5.28c-.67.91-1.04,2.07-1.04,3.29,0,1.47.58,2.85,1.62,3.88,1.02,1.03,2.48,1.65,3.91,1.65Zm-387.17,14.91c0-1.48-.59-2.93-1.63-3.96-1.01-1.01-2.45-1.59-3.95-1.59s-2.98.61-3.9,1.59c-1.07,1.06-1.63,2.44-1.63,3.96,0,1.43.56,2.8,1.54,3.8.96,1.08,2.45,1.72,3.98,1.72s2.93-.59,3.94-1.62c1.03-1.02,1.64-2.48,1.64-3.9Zm468.63,52.82c4.5,0,4.51-7,0-7s-4.51,7,0,7Zm-739.45-70.66c2.72,0,4.84-1.83,5.31-4.41l-9.18-5.01c-.96.98-1.54,2.35-1.54,3.92,0,1.37.47,2.68,1.33,3.67,1.01,1.18,2.46,1.83,4.09,1.83Zm640.15-4.69c1.33,0,2.62-.52,3.76-1.51l.12-.11c1.01-1.01,1.59-2.4,1.62-3.84l-8.63-4.71c-.27.18-.53.38-.75.61-1.09,1.07-1.71,2.52-1.71,3.97s.61,2.87,1.62,3.88c1.06,1.07,2.54,1.71,3.97,1.71Zm104.86,83.72l-.12-.12c-1.03-.97-2.42-1.5-3.89-1.5-1.55,0-2.98.59-3.9,1.58-1.1,1.12-1.68,2.48-1.68,3.94s.61,2.87,1.63,3.89,2.48,1.64,3.96,1.64,2.78-.56,3.8-1.55c1.12-1,1.79-2.49,1.79-3.98,0-1.36-.49-2.63-1.46-3.78l-.11-.13Zm-446.56-59.05c-1.49,0-2.9.56-3.86,1.52-1.09,1.07-1.71,2.52-1.71,3.97s.64,3,1.68,3.94c1.05,1.03,2.51,1.65,3.9,1.65s2.81-.6,3.89-1.7c1.05-1.05,1.63-2.43,1.63-3.89s-.63-2.99-1.65-3.91c-1-1.02-2.38-1.58-3.88-1.58Zm-59,50.69c4.5,0,4.51-7,0-7s-4.51,7,0,7Zm490.91,37.74c-4.5,0-4.51,7,0,7s4.51-7,0-7Zm-475.34-10.57c-1.53,0-2.99.6-3.89,1.57-1.03,1.04-1.63,2.48-1.63,3.96s.58,2.92,1.56,3.89c.24.24.51.45.79.64l8.68-5.31c-.17-1.21-.71-2.34-1.62-3.25-1.03-.97-2.41-1.5-3.89-1.5Zm17.88-23c-1.47,0-2.87.56-3.85,1.55-1.09,1.07-1.71,2.52-1.71,3.98s.56,2.79,1.54,3.8c1.01,1.13,2.49,1.78,4.04,1.78,1.48,0,2.86-.58,3.92-1.66l.1-.1c.98-1.12,1.5-2.44,1.5-3.82,0-1.52-.63-3-1.66-3.92-1-1.02-2.42-1.6-3.89-1.6Zm226.78-57.29c4.5,0,4.51-7,0-7s-4.51,7,0,7Zm117.44,47.52c-4.5,0-4.51,7,0,7s4.51-7,0-7Zm-119.22-25.22c3.09,0,5.42-2.37,5.42-5.5,0-1.37-.47-2.68-1.33-3.67-1.01-1.18-2.46-1.83-4.09-1.83-3.09,0-5.42,2.37-5.42,5.5,0,1.37.47,2.68,1.33,3.67,1.01,1.18,2.46,1.83,4.09,1.83Zm-69.68,133.3c-1.46,0-2.84.55-3.92,1.56,0,0,0,.01-.01.02l8.98,4.9.43-.26c.03-.23.07-.45.07-.68,0-1.49-.61-2.95-1.69-4.02-1.03-.97-2.4-1.51-3.85-1.51Zm-16.3-24.77c-3.09,0-5.42,2.37-5.42,5.5,0,1.37.47,2.68,1.33,3.67,1.01,1.18,2.46,1.83,4.09,1.83,3.09,0,5.42-2.37,5.42-5.5,0-1.37-.47-2.67-1.33-3.67-1.01-1.18-2.46-1.83-4.09-1.83Zm194.93-137.09c-1.04,1.03-1.64,2.47-1.64,3.97s.59,2.93,1.62,3.96c1.02,1.02,2.48,1.63,3.89,1.63,1.33,0,2.71-.54,3.83-1.5l.14-.13c1.04-1.04,1.63-2.48,1.63-3.96s-.59-2.93-1.62-3.95c-1.03-1.04-2.41-1.61-3.91-1.61s-2.84.56-3.94,1.58Zm9.47,39.72c0-1.52-.6-2.94-1.7-4.02-1.03-.97-2.41-1.5-3.86-1.5s-2.82.55-3.9,1.56c-1.04,1.03-1.64,2.47-1.64,3.97,0,1.39.52,2.71,1.51,3.84l.11.12c1.02,1.02,2.48,1.63,3.89,1.63s2.88-.62,3.96-1.7c1.05-1.05,1.63-2.43,1.63-3.89Zm-9.4-65.98c1.56,0,2.97-.56,3.99-1.59l.1-.11c.98-1.12,1.5-2.44,1.5-3.81s-.52-2.7-1.52-3.84l-.1-.11c-1.01-1.02-2.44-1.61-3.93-1.61s-2.92.58-3.95,1.63l-.1.11c-.98,1.12-1.5,2.43-1.5,3.81,0,1.51.6,2.93,1.6,3.86.7.75,1.95,1.65,3.92,1.65Zm-318.67,5.18c1.41,0,2.9-.63,3.89-1.63,1.04-1.04,1.63-2.48,1.63-3.96s-.56-2.9-1.49-3.82c-1.01-1.08-2.49-1.7-4.05-1.7s-2.9.56-3.82,1.51c-1.11,1.02-1.75,2.48-1.75,4.01,0,1.41.61,2.86,1.62,3.88,1.07,1.09,2.52,1.71,3.97,1.71Zm106,155.03c-3.09,0-5.42,2.37-5.42,5.5s2.33,5.5,5.42,5.5,5.42-2.37,5.42-5.5-2.33-5.5-5.42-5.5Zm208.85-70.34c-1.53,0-2.99.6-3.88,1.57-1.05,1.05-1.63,2.43-1.63,3.9s.56,2.84,1.47,3.8c1.02,1.13,2.5,1.78,4.05,1.78s2.92-.59,3.96-1.62c1-1,1.56-2.41,1.56-3.96s-.56-2.91-1.64-3.97c-1.04-.96-2.42-1.49-3.89-1.49Zm-138.75,21.06c-3.09,0-5.42,2.37-5.42,5.5,0,1.37.47,2.68,1.33,3.67,1.01,1.18,2.46,1.83,4.09,1.83,3.09,0,5.42-2.37,5.42-5.5,0-1.37-.47-2.67-1.33-3.67-1.01-1.18-2.46-1.83-4.09-1.83Zm-191.35-57.44c4.5,0,4.51-7,0-7s-4.51,7,0,7Zm-15.4-48.31c1.33,0,2.62-.52,3.77-1.52l.12-.11c1.04-1.04,1.63-2.48,1.63-3.96s-.58-2.84-1.55-3.81c-1.02-1.1-2.49-1.74-4.03-1.74s-2.89.58-3.92,1.62l-.1.11c-.98,1.11-1.5,2.43-1.5,3.82,0,1.52.64,3,1.68,3.94,1.05,1.03,2.51,1.64,3.9,1.64Zm29.42,69.64c-1.01-1.01-2.45-1.59-3.95-1.59s-2.99.61-3.9,1.59c-1.03,1.04-1.63,2.48-1.63,3.96s.61,2.88,1.61,3.87c1.03,1.05,2.48,1.65,3.97,1.65s2.8-.56,3.81-1.55c1.09-.98,1.71-2.43,1.71-3.97s-.59-2.93-1.63-3.96Zm-10.53-56.98c4.5,0,4.51-7,0-7s-4.51,7,0,7Zm-23.07,69.9c4.5,0,4.51-7,0-7s-4.51,7,0,7Zm112.66,50.62c-1.54,0-3.01.59-3.91,1.56-1.06,1.06-1.62,2.43-1.62,3.96,0,1.44.56,2.81,1.54,3.81.99,1.09,2.46,1.72,4.04,1.72s3-.64,3.94-1.69c.99-1.01,1.58-2.44,1.58-3.84,0-1.54-.59-2.93-1.61-3.87-.98-1.05-2.43-1.65-3.97-1.65Zm-108.51-80.45c-1.46,0-2.87.57-3.81,1.54-1.15,1.05-1.75,2.44-1.75,4.02s.64,3.02,1.69,3.95c1.02,1,2.44,1.57,3.9,1.57s2.8-.56,3.8-1.54c1.08-.96,1.72-2.45,1.72-3.98s-.56-2.9-1.63-3.96c-1.01-1.01-2.44-1.59-3.92-1.59Zm88.12,71.07c-4.5,0-4.51,7,0,7s4.51-7,0-7Zm-23.05-4.68c-1.52,0-2.99.61-3.91,1.59-1.03,1.04-1.63,2.48-1.63,3.96,0,.51.08,1.03.23,1.52l6.89,3.76c.82-.24,1.6-.65,2.31-1.27l.1-.1c1.03-1.02,1.64-2.48,1.64-3.9,0-1.5-.6-2.93-1.71-4.04-1.04-.96-2.47-1.51-3.93-1.51Zm405.93-66.84c-3.09,0-5.42,2.37-5.42,5.5,0,1.37.47,2.67,1.33,3.67,1.01,1.18,2.46,1.83,4.09,1.83,3.09,0,5.41-2.37,5.41-5.5s-2.33-5.5-5.41-5.5Zm-581.41,11.41c4.5,0,4.51-7,0-7s-4.51,7,0,7Zm-39.84,62.2c-4.5,0-4.51,7,0,7s4.51-7,0-7Zm41.94,9.79c-4.5,0-4.51,7,0,7s4.51-7,0-7Zm-32.16-53.82c4.5,0,4.51-7,0-7s-4.51,7,0,7Zm-29.34,78.14c-1.55,0-2.98.58-3.91,1.58-1.04,1.05-1.61,2.43-1.61,3.88,0,1.56.58,2.99,1.54,3.88,1.02,1.09,2.47,1.71,3.98,1.71s2.93-.6,3.86-1.6c1.08-1,1.73-2.49,1.73-4s-.61-2.88-1.71-3.97c-1.03-.96-2.41-1.49-3.88-1.49Zm52.2-76.11l.16.14c1.11.97,2.43,1.49,3.82,1.49,1.46,0,2.85-.58,3.91-1.64,1.07-1.08,1.68-2.52,1.68-3.94s-.63-2.89-1.71-3.97c-1.06-.98-2.45-1.52-3.93-1.52s-2.86.56-3.84,1.54c-1.03,1.03-1.62,2.48-1.62,3.96,0,1.36.51,2.73,1.39,3.78l.14.17Zm-18.96,95.46c-1.03-.97-2.39-1.5-3.83-1.5s-2.9.58-3.95,1.63c-1.05,1.05-1.63,2.43-1.63,3.89s.59,2.92,1.62,3.94c1.01,1.03,2.37,1.57,3.91,1.57s2.97-.55,3.96-1.56c1.04-1.04,1.63-2.48,1.63-3.96,0-1.38-.52-2.7-1.56-3.89l-.14-.13Zm-4.7-30.43c0-1.48-.59-2.92-1.62-3.95-1.03-1.03-2.41-1.6-3.91-1.6s-2.83.54-3.95,1.6c-1.03,1.03-1.63,2.47-1.63,3.96s.58,2.86,1.62,3.89c1.02,1.02,2.48,1.64,3.89,1.64,1.52,0,2.89-.56,3.95-1.62,1.06-1.04,1.65-2.43,1.65-3.91Zm26.45,3.93c0-1.37-.47-2.68-1.33-3.67-1.01-1.18-2.46-1.83-4.09-1.83-3.09,0-5.42,2.37-5.42,5.5,0,1.37.47,2.68,1.33,3.67,1.01,1.18,2.46,1.83,4.09,1.83,3.09,0,5.42-2.37,5.42-5.5Zm-16.68-46.52c-1.48,0-2.91.58-3.91,1.58-1.04,1.03-1.64,2.47-1.64,3.97s.59,2.92,1.62,3.96c1.02,1.02,2.48,1.63,3.89,1.63s2.93-.59,3.96-1.63c1.04-1.04,1.63-2.48,1.63-3.96s-.59-2.94-1.62-3.95c-1.01-1.02-2.45-1.6-3.93-1.6Zm-37.63-46.13c4.5,0,4.51-7,0-7s-4.51,7,0,7Zm64.28,47.31c-3.09,0-5.42,2.37-5.42,5.5,0,1.37.47,2.67,1.33,3.67,1.01,1.18,2.46,1.83,4.09,1.83,3.09,0,5.42-2.37,5.42-5.5,0-1.37-.47-2.68-1.33-3.67-1.01-1.18-2.46-1.83-4.09-1.83Zm-184.93-43.7c1.42,0,2.87-.61,3.88-1.62,1.03-1.02,1.64-2.48,1.64-3.91s-.59-2.93-1.63-3.96c-1.01-1.01-2.4-1.57-3.91-1.57s-2.94.57-3.94,1.56c-1.03,1.03-1.62,2.48-1.62,3.96s.61,2.89,1.62,3.89c1.07,1.07,2.44,1.63,3.97,1.63Zm-3.46,41.95c-2.11,0-3.85,1.12-4.75,2.83l9.56,5.21c.37-.76.6-1.61.6-2.54,0-1.37-.47-2.67-1.33-3.67-1.01-1.18-2.46-1.83-4.09-1.83Zm17.9-10.49c0-2-.92-3.26-1.65-3.92-1-1.01-2.42-1.59-3.89-1.59s-3,.61-3.91,1.6c-1.06,1.04-1.65,2.43-1.65,3.91s.6,2.94,1.6,3.86c1.01,1.09,2.46,1.72,3.99,1.72s2.86-.58,3.89-1.62c1.04-1.04,1.63-2.48,1.63-3.96Zm-5.63-49.05c4.5,0,4.51-7,0-7s-4.51,7,0,7Zm85.5,118.27l4.16,2.27c-.11-.15-.2-.31-.32-.46-.96-1.12-2.31-1.75-3.84-1.81Zm26.89-50.45c-1.53,0-2.97.58-3.82,1.51-1.08,1.08-1.7,2.55-1.7,4.03s.61,2.89,1.6,3.8c1.04,1.13,2.41,1.72,3.98,1.72,1.47,0,2.85-.58,3.87-1.61,1.03-1.01,1.65-2.48,1.65-3.91,0-1.53-.56-2.9-1.63-3.96-1-1-2.44-1.57-3.96-1.57Zm-10.95-3.45c0-1.48-.6-2.88-1.71-3.97-1.04-.96-2.47-1.52-3.93-1.52-1.54,0-2.98.61-3.91,1.65-1.01,1.04-1.56,2.4-1.56,3.84s.56,2.84,1.47,3.8c1.02,1.13,2.5,1.78,4.05,1.78s3.02-.64,3.96-1.69c1.04-1.08,1.63-2.49,1.63-3.89Zm-9.54-34.55c-1.03,1.01-1.57,2.37-1.57,3.91s.56,2.97,1.53,3.87c1.02,1.09,2.47,1.71,3.98,1.71s2.92-.59,3.98-1.65l.11-.12c.98-1.12,1.5-2.43,1.5-3.81,0-1.48-.6-2.88-1.71-3.97-1.04-.96-2.47-1.51-3.93-1.51s-2.99.6-3.9,1.58Zm8.76,63.14c-4.5,0-4.51,7,0,7s4.51-7,0-7Zm-6.29-76.18c4.5,0,4.51-7,0-7s-4.51,7,0,7Zm35.86,1.77c1.02,1.02,2.48,1.63,3.89,1.63,1.34,0,2.67-.54,3.72-1.48l-9.15-4.99c-.05.29-.09.58-.09.88,0,1.39.52,2.71,1.51,3.84l.11.12Zm-125.36,54.27c-.72,0-1.39.14-2.01.38l7.3,3.98c-.19-.94-.59-1.82-1.21-2.53-1.01-1.18-2.46-1.83-4.09-1.83Zm234.05-10.15c0-1.54-.64-2.96-1.76-3.96-1.02-.99-2.43-1.55-3.87-1.55s-2.87.57-3.9,1.6c-1.06,1.04-1.65,2.43-1.65,3.91,0,1.38.59,2.81,1.54,3.8,1.01,1.13,2.49,1.78,4.04,1.78,1.48,0,2.86-.58,3.89-1.62,1.08-1.08,1.7-2.52,1.7-3.96Zm-37.17-78.09c.27.76.69,1.46,1.26,2.02,1.04,1.06,2.43,1.64,3.9,1.64s2.96-.6,3.88-1.61c1.09-1.02,1.71-2.47,1.71-3.97,0-1.42-.56-2.8-1.48-3.75l-9.27,5.67Zm23.07-.15c1.53,0,2.95-.63,3.95-1.76,1.01-1.04,1.57-2.4,1.57-3.83s-.59-2.94-1.62-3.95c-1.01-1.02-2.44-1.61-3.93-1.61s-2.91.58-3.91,1.58c-1.05,1.03-1.65,2.48-1.65,3.97s.59,2.92,1.62,3.94c1.03,1.05,2.48,1.65,3.97,1.65Zm-1.37,27.49c-1.07,1.07-1.63,2.44-1.63,3.96s.64,3.02,1.69,3.95c1.01.99,2.45,1.58,3.83,1.58,1.46,0,2.85-.57,3.83-1.57,1.12-.96,1.76-2.41,1.76-3.96s-.59-2.92-1.62-3.95c-1.01-1.02-2.44-1.6-3.93-1.6s-2.92.58-3.92,1.6Zm-6.75,46.09c-4.5,0-4.51,7,0,7s4.51-7,0-7Zm20.93,34.25c-.94.84-1.54,2-1.72,3.26l7.25-4.43c-.56-.19-1.15-.31-1.75-.31-1.43,0-2.82.55-3.78,1.47Zm-141.29-96.19l-8.08-4.4c.11,1.36.62,2.56,1.49,3.37,1.01,1.09,2.46,1.72,3.99,1.72.93,0,1.81-.25,2.6-.68Zm-95.75-22.33c0-.28-.04-.55-.08-.82l-3.21,5.89c.62-.3,1.18-.71,1.65-1.23,1.06-1.08,1.64-2.44,1.64-3.83Zm11.99,55.62c4.5,0,4.51-7,0-7s-4.51,7,0,7Zm194.49,42.57l-.09-.08c-1.05-.99-2.44-1.53-3.92-1.53s-2.91.56-3.92,1.58c-1.01,1-1.57,2.41-1.57,3.97,0,1.46.48,2.74,1.42,3.81l.13.15.15.13c1.12.98,2.44,1.5,3.82,1.5,1.46,0,2.84-.58,3.91-1.65,1.02-1.04,1.61-2.47,1.61-3.94,0-1.37-.51-2.75-1.41-3.79l-.14-.15Zm-15.45,21.4c-1.48,0-2.91.58-3.92,1.59-1.05,1.05-1.63,2.43-1.63,3.89,0,1.54.56,2.91,1.62,3.95,1.02,1.03,2.48,1.65,3.91,1.65s2.94-.59,3.94-1.62c1.05-1.03,1.65-2.48,1.65-3.98,0-1.41-.61-2.87-1.63-3.89-1.01-1.01-2.44-1.59-3.92-1.59Zm15.29-61.28c-1.48,0-2.9.57-3.84,1.53-1.06.97-1.69,2.44-1.69,3.95,0,1.6.63,3.08,1.69,4.02,1.04,1.01,2.4,1.57,3.83,1.57,1.52,0,2.95-.6,3.86-1.6,1.13-1.04,1.72-2.42,1.72-3.99,0-1.46-.58-2.84-1.63-3.89-1.01-1.01-2.45-1.59-3.95-1.59Zm-11.89-20.18c-4.5,0-4.51,7,0,7s4.51-7,0-7Zm-63.02,32.07c0-1.55-.56-2.91-1.64-3.97-1.04-.96-2.42-1.49-3.89-1.49s-2.99.6-3.88,1.57c-1.05,1.05-1.63,2.43-1.63,3.9s.56,2.84,1.47,3.8c1.02,1.13,2.5,1.78,4.05,1.78s2.92-.59,3.96-1.62c1-1,1.56-2.41,1.56-3.96Zm35.43,90.74c-.81-.43-1.8-.64-2.7-.35-.84.27-1.69.8-2.09,1.61-.23.47-.47.93-.7,1.4-.42.85-.61,1.76-.35,2.7.07.24.18.48.31.72l7.02-4.29c-.28-.72-.83-1.43-1.49-1.78Zm17.81-91.35c-4.5,0-4.51,7,0,7s4.51-7,0-7Zm35.27,45.57c-3.09,0-5.42,2.37-5.42,5.5,0,1.37.47,2.68,1.33,3.67,1.01,1.18,2.46,1.83,4.09,1.83,3.09,0,5.42-2.37,5.42-5.5,0-1.37-.47-2.67-1.33-3.67-1.01-1.18-2.46-1.83-4.09-1.83Zm1.78-10.62c-4.5,0-4.51,7,0,7s4.51-7,0-7Zm6.61-48.1c-1.62,0-3.08.65-4.09,1.83-.86,1-1.33,2.3-1.33,3.67,0,3.13,2.33,5.5,5.42,5.5s5.42-2.37,5.42-5.5c0-1.37-.47-2.68-1.33-3.67-1.01-1.18-2.46-1.83-4.09-1.83Zm-39.83-24.09c1.47,0,2.85-.58,3.87-1.62,1.06-1.05,1.65-2.43,1.65-3.91s-.59-2.92-1.62-3.95c-1.01-1.02-2.44-1.6-3.93-1.6s-2.92.58-3.92,1.59c-1.04,1.04-1.63,2.48-1.63,3.96s.58,2.85,1.62,3.88c1.03,1.05,2.48,1.65,3.97,1.65Zm-154.5,7.69c1.48,0,2.92-.59,3.96-1.62,1.04-1.04,1.63-2.48,1.63-3.96s-.61-2.88-1.64-3.9c-1.03-1.03-2.44-1.59-3.96-1.59s-2.91.56-3.89,1.54c-1.08,1.08-1.69,2.52-1.69,3.96,0,1.51.6,2.94,1.61,3.87,1.02,1.08,2.47,1.71,3.98,1.71Zm505.97-49.43c3.33,0,4.2-3.83,2.59-5.82l-5.78,3.53c.4,1.26,1.46,2.29,3.19,2.29Zm-170.65,105.19l-7.57-4.76c.09,1.43.64,2.69,1.58,3.54,1.1,1.07,2.44,1.63,3.9,1.63.73,0,1.44-.14,2.09-.41Zm354.92-85.11c.31,0,.62-.03.92-.08l-6.04-3.3c.27.65.66,1.24,1.16,1.73,1.03,1.05,2.48,1.65,3.97,1.65Zm52,44.92c-4.5,0-4.51,7,0,7s4.51-7,0-7Zm-1.35-17.88c-.02.2-.06.4-.06.6,0,1.53.64,3.02,1.69,3.95,1.02,1,2.44,1.57,3.9,1.57,1.27,0,2.47-.46,3.43-1.24l-8.95-4.88Zm-523.5-5.4c-3.09,0-5.42,2.37-5.42,5.5,0,1.37.47,2.67,1.33,3.67,1.01,1.18,2.46,1.83,4.09,1.83,3.09,0,5.41-2.37,5.41-5.5s-2.33-5.5-5.41-5.5Zm9.44-52.96c3.09,0,5.42-2.37,5.42-5.5,0-.87-.21-1.7-.56-2.45l-9.27,5.66c.11.16.2.32.33.46,1.01,1.18,2.46,1.83,4.09,1.83Zm26.46-21.16l-5.25,3.21c.5.33,1.13.54,1.89.54,2.36,0,3.47-1.92,3.36-3.75Zm48.46,17.53l-6.01-3.28c-.78,2.06.26,4.88,3.13,4.88,1.4,0,2.36-.67,2.89-1.6Zm47.76,36.14c3.09,0,5.42-2.37,5.42-5.5,0-.64-.12-1.24-.3-1.81l-6.45-3.52c-2.39.58-4.08,2.67-4.08,5.33,0,3.13,2.33,5.5,5.42,5.5Zm362.67,12.99c1.25,0,2.14-.54,2.69-1.32l-5.92-3.23c-.55,2.02.51,4.55,3.23,4.55Zm-7.84,64.06c0-1.54-.64-2.96-1.76-3.96-1.02-.99-2.43-1.55-3.87-1.55s-2.87.57-3.9,1.6c-1.06,1.04-1.65,2.43-1.65,3.91,0,1.38.59,2.81,1.54,3.8,1.01,1.13,2.49,1.78,4.04,1.78,1.48,0,2.86-.58,3.89-1.62,1.08-1.08,1.7-2.52,1.7-3.96Zm-10.01-32.49c-1.62,0-3.08.65-4.09,1.83-.86,1-1.33,2.3-1.33,3.67,0,3.13,2.33,5.5,5.42,5.5s5.42-2.37,5.42-5.5c0-1.37-.47-2.68-1.33-3.67-1.01-1.18-2.46-1.83-4.09-1.83Zm-37.28,63.15c-.28,0-.55.04-.82.08l5.89,3.21c-.28-.63-.67-1.22-1.15-1.7-1.01-1.01-2.44-1.59-3.92-1.59Zm49.79-2.55c-1.43,0-2.82.55-3.78,1.47-1.13,1.01-1.78,2.49-1.78,4.05s.64,3.01,1.68,3.95c1.05,1.03,2.49,1.64,3.83,1.64s2.71-.54,3.83-1.51l.13-.12c1.04-1.04,1.63-2.48,1.63-3.96s-.63-2.99-1.65-3.91c-1-1.02-2.42-1.61-3.89-1.61Zm-209.27,1.57c-1-1-2.42-1.58-3.92-1.58s-2.95.58-3.96,1.6l-.1.11c-.98,1.11-1.5,2.43-1.5,3.82s.58,2.9,1.56,3.89c.38.38.8.7,1.26.96l8.27-5.06c-.05-1.3-.55-2.55-1.5-3.63l-.1-.11Zm-66.49,1.01c-.27,0-.53.04-.79.07l-2.13,10.14c.87.54,1.86.84,2.94.84,1.42,0,2.87-.61,3.87-1.61,1.03-1.02,1.65-2.48,1.65-3.91s-.59-2.93-1.63-3.96c-1.01-1.01-2.4-1.57-3.91-1.57Zm256.17-77.48c0,1.53.64,3.02,1.69,3.95,1.01.99,2.45,1.58,3.83,1.58,1.46,0,2.85-.57,3.83-1.57,1.12-.96,1.76-2.41,1.76-3.96s-.59-2.92-1.62-3.95c-1.01-1.02-2.44-1.6-3.93-1.6s-2.92.58-3.92,1.6c-1.07,1.07-1.63,2.44-1.63,3.96Zm-5.12,42.13c-4.5,0-4.51,7,0,7s4.51-7,0-7Zm3.81,30.89c-3.09,0-5.42,2.37-5.42,5.5,0,1.37.47,2.68,1.33,3.67,1.01,1.18,2.46,1.83,4.09,1.83,3.09,0,5.42-2.37,5.42-5.5,0-1.37-.47-2.67-1.33-3.67-1.01-1.18-2.46-1.83-4.09-1.83Zm1.78-10.62c-4.5,0-4.51,7,0,7s4.51-7,0-7Zm-663.34-7.6c-1.03-1.02-2.47-1.61-3.96-1.61s-2.94.6-3.85,1.58c-1.11,1.02-1.73,2.42-1.73,3.93s.6,2.94,1.61,3.87c1.02,1.08,2.47,1.71,3.98,1.71,1.38,0,2.7-.52,3.81-1.49l.16-.14.15-.17c.88-1.04,1.39-2.42,1.39-3.77s-.5-2.68-1.43-3.76l-.13-.14Zm-15.61-72.78c4.5,0,4.51-7,0-7s-4.51,7,0,7Zm210.41,74.09c-4.5,0-4.51,7,0,7s4.51-7,0-7Zm-185.53-30.57c0-1.5-.6-2.93-1.7-4.03-1.05-.98-2.42-1.53-3.85-1.53s-2.8.54-3.93,1.6c-1.03,1.03-1.62,2.47-1.62,3.96s.64,3.03,1.69,3.95c1.05,1.01,2.4,1.57,3.82,1.57,1.52,0,2.89-.56,3.95-1.62,1.06-1.04,1.65-2.43,1.65-3.91Zm-15.73-53.17c1.42,0,2.87-.61,3.89-1.62,1.04-1.04,1.63-2.48,1.63-3.96s-.58-2.86-1.63-3.9c-1.01-1.01-2.45-1.59-3.95-1.59s-2.98.6-3.89,1.58c-1.06,1.04-1.64,2.43-1.64,3.91s.6,2.94,1.6,3.87c1.04,1.12,2.42,1.72,3.99,1.72Zm-11.24,66.97c-4.5,0-4.51,7,0,7s4.51-7,0-7Zm25.26-46.55c1.48,0,2.86-.58,3.89-1.62,1.04-1.04,1.63-2.48,1.63-3.96s-.65-3.03-1.7-3.97c-1.01-.97-2.42-1.53-3.88-1.53s-2.85.55-3.81,1.52c-1.09,1.07-1.71,2.52-1.71,3.98s.59,2.92,1.61,3.94c1.03,1.04,2.47,1.64,3.97,1.64Zm-49.8,45.08c-1.53,0-3,.61-3.92,1.6-1.06,1.04-1.64,2.43-1.64,3.91s.6,2.94,1.6,3.87c1.03,1.1,2.42,1.71,3.92,1.71s2.93-.59,3.96-1.62c1.04-1.04,1.63-2.48,1.63-3.96s-.58-2.86-1.56-3.82c-1-1.07-2.46-1.69-3.99-1.69Zm16.15,16.84c-4.5,0-4.51,7,0,7s4.51-7,0-7Zm448.19-35.48c1.06-1.05,1.65-2.43,1.65-3.91s-.59-2.92-1.62-3.95c-.57-.57-1.27-.98-2.03-1.25l-2.25,10.69c.1,0,.21.03.31.03,1.49,0,2.93-.59,3.94-1.62Zm-449.02-6.89c-1.53,0-3,.61-3.92,1.6-1.06,1.04-1.64,2.43-1.64,3.91s.58,2.88,1.52,3.79c.97,1.14,2.42,1.79,3.99,1.79s2.9-.56,3.96-1.62c1.04-1.04,1.63-2.48,1.63-3.96s-.58-2.86-1.56-3.82c-1-1.07-2.46-1.69-3.99-1.69Zm17.61-9.35c-4.5,0-4.51,7,0,7s4.51-7,0-7Zm-72.48,6.81c-1.51,0-2.94.57-3.94,1.57-1.03,1.04-1.63,2.48-1.63,3.96,0,1.35.5,2.67,1.43,3.75l.13.14c1.04,1.04,2.48,1.64,3.96,1.64s2.93-.59,3.94-1.62c1.06-1.05,1.65-2.43,1.65-3.91s-.59-2.92-1.62-3.95c-1.01-1.02-2.4-1.58-3.92-1.58Zm48.23-31.42c-1.01-1.18-2.46-1.83-4.09-1.83-3.09,0-5.42,2.37-5.42,5.5,0,1.37.47,2.68,1.33,3.67,1.01,1.18,2.46,1.83,4.09,1.83,3.09,0,5.42-2.37,5.42-5.5,0-1.37-.47-2.68-1.33-3.67Zm-2.31-13.13c4.5,0,4.51-7,0-7s-4.51,7,0,7Zm229.95-7.57c-3.09,0-5.42,2.37-5.42,5.5,0,1.37.47,2.68,1.33,3.67,1.01,1.18,2.46,1.83,4.09,1.83,3.09,0,5.42-2.37,5.42-5.5,0-1.37-.47-2.67-1.33-3.67-1.01-1.18-2.46-1.83-4.09-1.83Zm-6.26,18.04c-4.5,0-4.51,7,0,7s4.51-7,0-7Zm-170.09,94.07c-1.5,0-2.92.59-3.86,1.59-1.06,1.07-1.67,2.5-1.67,3.93,0,1.52.64,3,1.68,3.94,1.02,1,2.44,1.57,3.9,1.57,1.54,0,2.89-.54,3.89-1.55,1.04-1.04,1.63-2.48,1.63-3.96s-.63-2.99-1.65-3.92c-1-1.02-2.43-1.6-3.92-1.6Zm-6.35,23.01c-.64,0-1.25.12-1.83.31l7.28,3.97c-.23-1.03-.75-1.98-1.57-2.8-1.03-.96-2.41-1.49-3.88-1.49Zm-20.71-15.94c-2.28,0-4.14,1.3-4.96,3.24l9.56,5.21c.51-.85.82-1.85.82-2.96,0-1.37-.47-2.67-1.33-3.67-1.01-1.18-2.46-1.83-4.09-1.83Zm24.5-64.78c4.5,0,4.51-7,0-7s-4.51,7,0,7Zm2.94,30.09c0-1.37-.47-2.68-1.33-3.67-1.01-1.18-2.46-1.83-4.09-1.83s-3.08.65-4.09,1.83c-.86,1-1.33,2.3-1.33,3.67,0,3.13,2.33,5.5,5.42,5.5s5.42-2.37,5.42-5.5Z"/>
          <path d="m465.32,276.63l-18.39-57.44,9.52-3.05,18.39,57.44-9.52,3.05Zm28.71-9.73l-5.66-49.43-9.93,1.14,5.66,49.43,9.93-1.14Zm21.2.33l-7.07-7.07-5.71,5.71,7.07,7.07,5.71-5.71Zm25.33,62.14l-29.92-44.08-8.27,5.62,29.92,44.08,8.27-5.62Zm-100.97-66.74l-3.71-9.29-9.51,3.8,3.71,9.29,9.51-3.8Zm-50.26,26.55l-11.79-49.81-9.73,2.3,11.79,49.81,9.73-2.3Zm244.89-30.87l-9.97-.81-4.34,53.1,9.97.81,4.34-53.1Zm-64.78,57.18l29.93,26.17,6.58-7.53-29.93-26.17-6.58,7.53Zm108.51-20.26l-.11-1.71-2.45-7.96-12.37,3.81,2.94,9.56,11.98-3.69Zm-87.01,58.11l-33.2-32.46-6.99,7.15,33.2,32.46,6.99-7.15Zm16.89-97.48l-6.14-7.89-42.05,32.71,6.14,7.89,42.05-32.71Zm-11.71,28.8l-3.8,9.51,9.29,3.71,3.8-9.51-9.29-3.71Zm-433.1,4.69l2.94,9.56,12.37-3.81-2.94-9.56-12.37,3.81Zm691.98-38.17l-9.51-1.9-1.96,9.81,9.51,1.9,1.96-9.81Zm-561.12,49.46l-1.96,9.81,9.51,1.9,1.96-9.81-9.51-1.9Zm-119.27-46.74l26.14,46.42,8.71-4.91-26.14-46.42-8.71,4.91Zm90.53,12.52l1.9,11.41,9.86-1.64-1.9-11.41-9.86,1.64Zm89.86-15.24l-9.51-1.9-1.96,9.81,9.51,1.9,1.96-9.81Zm-3.12,29.44l-48.38-22.3-4.19,9.08,48.38,22.3,4.19-9.08Zm-20.31,18.52l-33.66-20.69-5.24,8.52,33.66,20.69,5.24-8.52Zm583.77,510.68l19.69,10.74-64.65,118.55-133.55-72.83-153.46,93.8-157.89-86.11-153.45,93.8-202.04-110.19,20.18-37-21.83-11.91,65.82-120.69,40.82,22.26c.09-.18.17-.36.28-.53,1.45-2.39,4.04-3.85,6.84-3.85h.05l96.42.65c2.87.02,5.51,1.57,6.91,4.07,1.41,2.5,1.37,5.56-.09,8.02l-13.5,22.68,28.31.19,121.41-74.21,77.78,42.42c11.78-11.33,27.77-18.32,45.36-18.32,29.03,0,53.69,18.99,62.27,45.19l125.94-76.98,46.47,25.34,44.26-43.26-86.84-47.36-153.46,93.8-157.89-86.11-153.45,93.8-202.04-110.19,17.51-32.11-17.51-9.55,64.65-118.55,82.04,44.74c-20.09-14.5-33.21-38.1-33.21-64.71,0-3.77.28-7.48.79-11.12l-117.57-64.12,18.04-33.07-18.04-9.84,63.43-116.3,133.07,72.57,153.45-93.8,157.89,86.11,153.45-93.8,200.28,109.22-18.04,33.08,18.04,9.84-63.42,116.3-70.82-38.62-21.84,36.67-15.9-30-4.23,7.1c-1.44,2.43-4.06,3.91-6.87,3.91-.07,0-.13,0-.2,0-2.89-.07-5.52-1.7-6.87-4.25l-20.52-38.71-139.29,85.14-157.89-86.11-72.38,44.24c8.8,11.91,14,26.63,14,42.57,0,2.97-.2,5.9-.55,8.77l60.15-36.77,119.22,65.02,53.28-23.51c2.58-1.14,5.56-.83,7.86.79,2.3,1.63,3.57,4.35,3.35,7.15l-1.73,21.93,129.37-79.08,202.05,110.19-17.51,32.11,17.51,9.55-62.36,114.36,3.4-3.33,22.44,90.25,38.18,20.82-21.35,39.14Zm-29.89,2.59l-42.27-13.2-19.82,2.78-.83-5.94,7.27-1.02-66.51-20.78,10.78,35.86,74.16,40.44-1.46-4.04,5.64-2.04,3.76,10.41,4.71,2.57,24.56-45.04Zm-131.21-71.37l119.44,37.31-7.06-28.4-2.16-.5.8-3.5.43.23-22.81-91.77-52.1,50.92,2.35,1.28-2.55-1.08-36.33,35.5Zm-130.66-251.03l-8.72,110.71,121.32-74.15,125.19,68.27,43.05-78.94-170.8-93.15-110.04,67.26Zm-35.26-24.06l-124.84,55.08,114.23,79.64,10.61-134.72Zm-278.91-125.57l4.15-4.15,5.15,5.15,18.03-11.02-3.04-4.13,36.15-26.63,5.35,7.26,33.12-20.24-4.08.53-6.85-52.85,9.92-1.29,6.51,50.25,6.03-3.68,18.14,9.9,17.48-8.2,4.25,9.05-10.84,5.08,31.4,17.12-3.09-4.55,8.28-5.61,13.99,20.62,78.28,42.69,76.8-46.94-8.84-1.12,7.18-56.47,9.92,1.26-7.07,55.61,35.31-21.58-29.75-56.14c-1.32-2.49-1.23-5.49.23-7.89.45-.74,1.01-1.38,1.65-1.92l-44.21,11.46-2.2-8.48-41.65,25.46-5.13-2.8-13.9,12.8-6.77-7.36,11.4-10.5-40.21-21.93-4.83,2.7-4.28-7.67-65.23-35.58-7.45,23.34-9.53-3.04,8.04-25.18-16.11-8.78-21.17,30.36-8.2-5.72,13.59-19.49-39,23.84h0s-.02.01-.02.01l-23.56,14.4,16.17,4.38-2.61,9.65-25.3-6.85-11.38,6.95,3.69,9.23-9.51,3.8-3.04-7.61-16.65,10.18.46,1.32-6.06,2.11-24.73,15.12-7.29-3.98-5.67,1.97-2.17-6.25-36.72-20.02,20,49.05-9.26,3.78-20.11-49.32,9.04-3.69-61.24-33.4-18.49,4.79-11.89,21.8,48.04-12.46,2.51,9.68-51.56,13.37-1.54-5.92-10.31,18.9.73.93-2.15,1.67-11.86,21.74,27.43,14.96,3-36.74,9.97.81-3.36,41.17,16.04,8.75,5.98-47.06,9.92,1.26-6.47,50.94,25.81,14.08-.4-1.01,9.28-3.71,3.81,9.51-2.25.9,19.86,10.83c2.65-2.2,5.46-4.21,8.38-6.05l-.82-.43,23.01-44.03,8.86,4.63-17.17,32.86c6.29-2.42,12.95-4.07,19.88-4.83l12.98-24.79,8.86,4.64-10.34,19.74c16.11.56,31.02,5.93,43.34,14.7Zm400.42-111.57l-32.43-32.44-57.01,34.85,47.61-12.34,2.51,9.67,39.33.27Zm-1.62,100.02l-7.79-14.71-122.11,74.64-157.89-86.11-92.27,56.4c3.22,4.49,5.98,9.33,8.22,14.45l83.48-51.03,157.89,86.11,130.48-79.75Zm108.62-83.3l-135.14-.91,63.9,120.57,71.24-119.65Zm83.82,56.33l-35.81,65.67-51.53-28.1-9.05,15.2,52.6,28.68,44.27-81.19-.48-.26Zm-26.64,7.08l-31.83,23.46,14.68,8,17.16-31.46Zm26.57-50.03l-21.13-11.52,8.51,35.97,12.76-23.39-.14-1.05Zm-187.68-84.24l26.09,26.09-7.07,7.07-27.8-27.8-17.94,10.96,31.28,31.29-6.52,6.52,36.84.25,23.62-13.5,4.96,8.68-8.66,4.95,63.2.43c2.87.02,5.51,1.57,6.91,4.07,1.41,2.5,1.37,5.56-.09,8.02l-13.5,22.68,33.63.23-8.74,14.68,2.78,1.28-4.19,9.08-3.74-1.72-20.41,34.29,12.07,6.58-1.91-2.59,36.15-26.63,5.32,7.23,8.97-16.44-4.54,1.07-11.79-49.81.76-.18-21.09-11.5-48.85-13.23,2.61-9.65,8.49,2.3-24.27-13.24-8.06,11.1-8.09-5.87,7.3-10.05-16.85-9.19-.75.94-5.43-4.31-25.03-13.65-15.66,9.57ZM189.72,374.48c2.31-5.48,5.24-10.63,8.66-15.41l-96.08-52.4-8.46,15.52,95.89,52.29Zm73.54,94.71c35.17,0,63.78-28.61,63.78-63.78s-28.61-63.78-63.78-63.78-63.78,28.61-63.78,63.78,28.61,63.78,63.78,63.78Zm-28.98,10.53l4.06,2.21c-.35-.36-.69-.73-1.03-1.1-1.02-.35-2.02-.72-3.02-1.11Zm-133.68,55.21l170.79,93.15,153.45-93.8,136.12,74.24-118.29-82.47c-2.37-1.65-3.67-4.46-3.39-7.33.28-2.88,2.09-5.38,4.73-6.55l70.79-31.23-92.53-50.46-75.47,46.13c-10.5,13.42-25.65,23-43.04,26.31l-34.93,21.35-125.18-68.27-43.05,78.94Zm739.95,90.24l.64-.62c2.89-2.83,7.08-3.89,10.96-2.78,3.89,1.1,6.89,4.21,7.87,8.13l1.56,6.27,6.52-11.95-131.26-71.58-124.15,75.88-1.08,13.73-9.99-6.96-18.24,11.15-157.89-86.11-153.45,93.8-164.73-89.84-6.71,12.31,170.79,93.15,153.45-93.8,157.89,86.11,153.46-93.8,104.36,56.91Zm-79.84,78.03l-3.4-1.86-8.62,13.61,12.02-11.75Zm-80.88,18.15l-12.73,22.22-5.21-2.98,7.3-12.74-11.31,6.91-1.52,2.65-1.45-.83-32.58,19.92c2.59,4.78,4.53,9.98,5.68,15.46l22.04,22.96-4.33,4.16-16.51-17.2c.02.66.04,1.33.04,2,0,18.71-8.94,35.33-22.78,45.83l9.91,32.95,28.62-17.5,5.18-18.32,5.77,1.63-3.42,12.09,8.02-4.9,1.54-5.45,5.04,1.43,69.02-42.19,14.97,8.16-6.8-22.63,5.75-1.73,8.55,28.45,7.97,4.34-10.42-34.64,5.75-1.73.35,1.16,2.82-2.76-35.6-11.12c-3.79-1.18-6.68-4.27-7.6-8.13-.93-3.86.24-7.92,3.08-10.7l9-8.79-1.07-.68,19.13-30.2-5.61-3.06-18.9,29.85-5.07-3.21,18.69-29.52-7.48-4.08-53.83,32.9Zm-68.75,144.54l-9.82-32.66c-1.85,1.11-3.77,2.11-5.75,3.01l9.96,33.08,5.61-3.43Zm-115.85-109.01c0,27.3,22.21,49.51,49.51,49.51s49.51-22.21,49.51-49.51-22.21-49.51-49.51-49.51-49.51,22.21-49.51,49.51Zm-299.8-34.92l32.65,61.61,36.41-61.15-69.06-.47Zm-93.18,76.75l57.83,31.54v-.04s5.78,1.63,5.78,1.63l-.38,1.35,105.87,57.74,62.5-38.2-.72-2,5.64-2.04.31.85,85.73-52.4,157.89,86.11,17.48-10.68-10.27-34.12c-5.71,1.9-11.82,2.95-18.17,2.95-18.12,0-34.27-8.39-44.82-21.48-6.8-1.92-13.15-4.9-18.86-8.78l-14.4,8.13-2.95-5.23,12.13-6.84c-1.1-.92-2.16-1.88-3.2-2.87l-10.39,3.43-1.88-5.7,7.7-2.54c-9.85-11.47-15.83-26.36-15.83-42.63,0-9.47,2.04-18.47,5.67-26.61l-31.21-17.02-1.92,6.79-5.77-1.63,2.29-8.1-5.73-3.13-2.69,9.5-5.77-1.63,3.06-10.81-14.84-8.1-48.23,29.48-5.77,25.2-5.85-1.34,4.46-19.48-7.6,4.64-3.07,13.42-5.85-1.34,1.77-7.71-71.01,43.4-11.57,19.43,2.79,9.29-5.75,1.73-1.21-4.02-10.75,18.05-15.9-30-4.23,7.1c-1.44,2.43-4.06,3.91-6.87,3.91-.07,0-.13,0-.2,0-2.89-.07-5.52-1.7-6.87-4.25l-12.58-23.74-19.12,24.98-4.76-3.65,20.8-27.17-3.29-6.2-22.57,29.49-4.76-3.65,24.24-31.68-7.78-14.68-21.22-11.57-4.47,7.8-5.21-2.98,4.4-7.69-5.6-3.05-4.34,7.57-5.21-2.98,4.27-7.46-9.29-5.07-19.17,35.16,2.02-1.94,30,31.22-4.33,4.16-29.3-30.49-3.19,5.86,27.89,29.05-4.33,4.16-26.57-27.68-14.89,27.31Zm768.5,92.62l-133.89-73.01-153.46,93.8-157.89-86.11-153.45,93.8-162.1-88.4-9.38,17.19,170.79,93.15,153.45-93.8,157.89,86.11,153.46-93.8,125.19,68.27,9.38-17.19Zm-194.43-97.62l4.76,3.65,26.31-34.38-4.76-3.65-26.31,34.38Zm-390.2,37.98l-5.82-1.48-10.66,41.96,5.82,1.48,10.66-41.96Zm404.79-26.8l26.32-34.39-4.76-3.65-26.32,34.39,4.76,3.65Zm-66.25-45.59l30,31.22,4.33-4.16-30-31.22-4.33,4.16Zm-175.92,23.25l-39.86-16.91-2.34,5.52,39.86,16.91,2.34-5.52Zm-161.29,94.15l10.67-41.96-5.82-1.48-10.67,41.96,5.82,1.48Zm75.07-92.95l-.83-5.94-42.88,6.03.83,5.94,42.88-6.03Zm81.38,10.2l-39.85-16.91-2.34,5.52,39.85,16.91,2.34-5.52Zm-122.53,8.08l42.88-6.02-.83-5.94-42.88,6.02.83,5.94Z"/>
        </g>
      </g>
    </g>
  </g>
</svg>