<?xml version="1.0" encoding="UTF-8"?>
<svg id="Layer_8_copy" data-name="Layer 8 copy" xmlns="http://www.w3.org/2000/svg" viewBox="0 0 1000 1000">
  <defs>
    <style>
      .cls-1 {
        fill: #fff;
      }

      .cls-2 {
        fill: #ffff68;
      }

      .cls-3 {
        fill: #8e88ff;
      }

      .cls-4 {
        fill: #50dcc3;
      }
    </style>
  </defs>
  <g id="Layer_22" data-name="Layer 22">
    <g id="Elements_copy" data-name="Elements copy">
      <g>
        <g>
          <path d="m178.19,685.2c-1.01.92-1.61,2.3-1.61,3.69,0,1.31.56,2.64,1.48,3.55.94.96,2.27,1.51,3.64,1.51s2.56-.51,3.48-1.41c.99-.88,1.58-2.24,1.58-3.64s-.52-2.66-1.49-3.63c-.93-.93-2.23-1.46-3.59-1.46s-2.62.52-3.49,1.4Z"/>
          <path d="m158.29,743.09c-4.13,0-4.13,6.41,0,6.41s4.13-6.41,0-6.41Z"/>
          <path d="m178.19,717.94c-1.01.92-1.61,2.3-1.61,3.69,0,1.31.56,2.64,1.48,3.55.94.96,2.27,1.51,3.64,1.51s2.56-.51,3.48-1.41c.99-.88,1.58-2.24,1.58-3.64s-.52-2.66-1.49-3.63c-.93-.93-2.23-1.46-3.59-1.46s-2.62.52-3.49,1.4Z"/>
          <path d="m224.92,677.6c1.21,0,2.48-.49,3.48-1.36l.15-.13.13-.14c.9-1.02,1.37-2.23,1.37-3.49s-.47-2.47-1.39-3.51l-.1-.1c-.93-.93-2.24-1.47-3.6-1.47s-2.67.53-3.62,1.49l-.1.11c-.89,1.02-1.37,2.22-1.37,3.49,0,1.34.53,2.6,1.49,3.56.97.98,2.31,1.56,3.57,1.56Z"/>
          <path d="m157.3,655c2.83,0,4.96-2.17,4.96-5.04,0-1.26-.43-2.45-1.22-3.36-.93-1.08-2.26-1.67-3.74-1.67-2.83,0-4.96,2.17-4.96,5.04,0,1.26.43,2.45,1.22,3.36.93,1.08,2.26,1.67,3.74,1.67Z"/>
          <path d="m162.54,614.04c0,1.35.53,2.61,1.48,3.55.94.96,2.27,1.51,3.64,1.51s2.61-.53,3.55-1.48c.95-.93,1.51-2.27,1.51-3.58,0-1.46-.58-2.81-1.55-3.69-.92-.89-2.16-1.38-3.49-1.38s-2.6.5-3.49,1.35c-1.03.92-1.64,2.31-1.64,3.72Z"/>
          <path d="m159.57,625.91c-4.13,0-4.13,6.41,0,6.41s4.13-6.41,0-6.41Z"/>
          <path d="m177.4,637.43c0-1.36-.54-2.68-1.49-3.63-.93-.93-2.24-1.46-3.6-1.46s-2.67.53-3.59,1.46c-.98.98-1.49,2.23-1.49,3.63s.53,2.61,1.48,3.55c.94.96,2.27,1.51,3.64,1.51s2.61-.53,3.55-1.48c.95-.93,1.51-2.27,1.51-3.58Z"/>
          <path d="m176.51,754.89c2.83,0,4.96-2.17,4.96-5.04,0-1.26-.43-2.45-1.22-3.36-.93-1.08-2.26-1.67-3.74-1.67-2.83,0-4.96,2.17-4.96,5.04s2.13,5.04,4.96,5.04Z"/>
          <path d="m297.24,431.9c4.13,0,4.13-6.41,0-6.41s-4.13,6.41,0,6.41Z"/>
          <path d="m268.71,610.82c2.83,0,4.96-2.17,4.96-5.04,0-1.26-.43-2.45-1.22-3.36-.93-1.08-2.26-1.67-3.74-1.67-2.83,0-4.96,2.17-4.96,5.04,0,1.26.43,2.45,1.22,3.36.93,1.08,2.26,1.67,3.74,1.67Z"/>
          <path d="m317.09,466.47c-4.13,0-4.13,6.41,0,6.41s4.13-6.41,0-6.41Z"/>
          <path d="m311.32,511.94c4.13,0,4.13-6.41,0-6.41s-4.13,6.41,0,6.41Z"/>
          <path d="m298.2,487.73c0,1.31.56,2.64,1.48,3.55.94.96,2.27,1.51,3.64,1.51s2.57-.52,3.49-1.42c1-.9,1.57-2.22,1.57-3.63s-.54-2.68-1.49-3.63c-.93-.93-2.25-1.46-3.62-1.46s-2.74.56-3.57,1.46c-.95.95-1.49,2.27-1.49,3.63Z"/>
          <path d="m317.36,457.73c1.31,0,2.58-.55,3.56-1.55.96-.96,1.49-2.23,1.49-3.56s-.58-2.74-1.51-3.59c-.92-.93-2.18-1.45-3.55-1.45s-2.66.51-3.54,1.4c-1,.98-1.57,2.31-1.57,3.64s.59,2.75,1.54,3.61c.96.94,2.3,1.51,3.58,1.51Z"/>
          <path d="m169.78,555.28c-2.83,0-4.96,2.17-4.96,5.04,0,1.26.43,2.45,1.22,3.36.93,1.08,2.26,1.67,3.74,1.67,2.83,0,4.96-2.17,4.96-5.04,0-1.26-.43-2.45-1.22-3.36-.93-1.08-2.26-1.67-3.74-1.67Z"/>
          <path d="m183.99,593.08c.93.9,2.24,1.44,3.5,1.44,1.32,0,2.62-.52,3.54-1.41.99-.88,1.58-2.25,1.58-3.65s-.51-2.65-1.49-3.62c-.93-.93-2.19-1.44-3.56-1.44s-2.62.5-3.63,1.44c-.97.97-1.49,2.23-1.49,3.62s.59,2.77,1.55,3.62Z"/>
          <path d="m191.59,653.46c4.13,0,4.13-6.41,0-6.41s-4.13,6.41,0,6.41Z"/>
          <path d="m254.31,448.5c2.83,0,4.96-2.17,4.96-5.04,0-1.26-.43-2.45-1.22-3.36-.93-1.08-2.26-1.67-3.74-1.67-2.83,0-4.96,2.17-4.96,5.04,0,1.26.43,2.45,1.22,3.36.93,1.08,2.26,1.67,3.74,1.67Z"/>
          <path d="m244.73,586.22c4.13,0,4.13-6.41,0-6.41s-4.13,6.41,0,6.41Z"/>
          <path d="m203.4,674.21c2.83,0,4.96-2.17,4.96-5.04,0-1.26-.43-2.45-1.22-3.36-.93-1.08-2.26-1.67-3.74-1.67-2.83,0-4.96,2.17-4.96,5.04,0,1.26.43,2.45,1.22,3.36.93,1.08,2.26,1.67,3.74,1.67Z"/>
          <path d="m175.55,445.61c2.83,0,4.96-2.17,4.96-5.04,0-1.26-.43-2.45-1.22-3.36-.93-1.08-2.26-1.67-3.74-1.67-2.83,0-4.96,2.17-4.96,5.04,0,1.26.43,2.45,1.22,3.36.93,1.08,2.26,1.67,3.74,1.67Z"/>
          <path d="m160.34,697.02c0-1.26-.43-2.45-1.22-3.36-.93-1.08-2.26-1.67-3.74-1.67-2.83,0-4.96,2.17-4.96,5.04,0,1.26.43,2.45,1.22,3.36.93,1.08,2.26,1.67,3.74,1.67,2.83,0,4.96-2.17,4.96-5.04Z"/>
          <path d="m177.39,587.93c-.2-.74-.78-1.55-1.47-1.92-.74-.39-1.65-.59-2.47-.32-.77.25-1.54.73-1.92,1.47-.21.43-.43.85-.64,1.28-.39.77-.56,1.61-.32,2.47.2.74.78,1.55,1.47,1.92.74.39,1.65.59,2.47.32.77-.25,1.54-.73,1.92-1.47.21-.43.43-.85.64-1.28.39-.77.56-1.61.32-2.47Z"/>
          <path d="m179.37,659.24c-1.38,0-2.69.52-3.61,1.44-.98.98-1.49,2.23-1.49,3.62s.53,2.61,1.48,3.55c.96.98,2.23,1.51,3.58,1.51s2.68-.54,3.61-1.48c.94-.93,1.51-2.27,1.51-3.58s-.54-2.67-1.49-3.62c-.92-.93-2.2-1.45-3.59-1.45Z"/>
          <path d="m248.57,461.36c4.13,0,4.13-6.41,0-6.41s-4.13,6.41,0,6.41Z"/>
          <path d="m253.35,468.19c-2.83,0-4.96,2.17-4.96,5.04,0,1.26.43,2.45,1.22,3.36.93,1.08,2.26,1.67,3.74,1.67,2.83,0,4.96-2.17,4.96-5.04s-2.13-5.04-4.96-5.04Z"/>
          <path d="m228.47,491.96c-.78.91-1.22,2.11-1.22,3.36,0,2.87,2.13,5.04,4.96,5.04s4.96-2.17,4.96-5.04c0-1.26-.43-2.45-1.22-3.36-.93-1.08-2.26-1.67-3.74-1.67s-2.82.59-3.75,1.67Z"/>
          <path d="m228.47,448.38c1.41,0,2.7-.58,3.62-1.61.93-.96,1.44-2.2,1.44-3.51s-.54-2.69-1.49-3.62c-.93-.93-2.24-1.47-3.6-1.47s-2.67.53-3.58,1.45c-.96.94-1.51,2.27-1.51,3.64s.54,2.67,1.48,3.61c.94.96,2.27,1.51,3.64,1.51Z"/>
          <path d="m227.22,473.56c-.98.98-1.49,2.23-1.49,3.63s.59,2.76,1.55,3.62c.93.9,2.24,1.44,3.51,1.44,1.34,0,2.61-.52,3.51-1.43,1.02-.88,1.61-2.2,1.61-3.63s-.54-2.67-1.49-3.62c-.93-.93-2.24-1.47-3.6-1.47s-2.67.53-3.59,1.46Z"/>
          <path d="m711.35,468.19c-2.83,0-4.96,2.17-4.96,5.04,0,1.26.43,2.45,1.22,3.36.93,1.08,2.26,1.67,3.74,1.67,2.83,0,4.96-2.17,4.96-5.04s-2.13-5.04-4.96-5.04Z"/>
          <path d="m555.5,609.74c1.35,0,2.61-.53,3.55-1.48.99-.97,1.51-2.23,1.51-3.65,0-1.3-.56-2.63-1.49-3.56-.92-.93-2.2-1.43-3.58-1.43s-2.69.52-3.61,1.43c-.96.96-1.49,2.23-1.49,3.56s.56,2.71,1.48,3.61c.94.96,2.27,1.51,3.64,1.51Z"/>
          <path d="m609.25,495.3c4.13,0,4.13-6.41,0-6.41s-4.13,6.41,0,6.41Z"/>
          <path d="m338.82,646.71c0-1.34-.53-2.6-1.49-3.56-.93-.93-2.24-1.46-3.6-1.46s-2.67.53-3.6,1.46c-.83.83-1.31,1.89-1.44,3.01,3.29.77,6.6,1.41,9.92,1.92.12-.44.2-.89.2-1.37Z"/>
          <path d="m685.23,473.56c-.98.98-1.49,2.23-1.49,3.63s.59,2.76,1.55,3.62c.93.9,2.24,1.44,3.51,1.44,1.34,0,2.61-.52,3.51-1.43,1.02-.88,1.61-2.2,1.61-3.63s-.54-2.67-1.49-3.62c-.93-.93-2.24-1.47-3.6-1.47s-2.67.53-3.59,1.46Z"/>
          <path d="m686.48,448.38c1.41,0,2.7-.58,3.62-1.61.93-.96,1.44-2.2,1.44-3.51s-.54-2.69-1.49-3.62c-.93-.93-2.24-1.47-3.6-1.47s-2.67.53-3.58,1.45c-.96.94-1.51,2.27-1.51,3.64s.54,2.67,1.48,3.61c.94.96,2.27,1.51,3.64,1.51Z"/>
          <path d="m178.78,478.65c4.13,0,4.13-6.41,0-6.41s-4.13,6.41,0,6.41Z"/>
          <path d="m690.67,516.46c-.97.96-1.51,2.23-1.51,3.58,0,1.27.54,2.58,1.41,3.48.93,1.04,2.28,1.63,3.7,1.63,1.35,0,2.62-.53,3.56-1.49.99-.99,1.56-2.31,1.56-3.63,0-1.41-.58-2.71-1.61-3.63-.94-.9-2.23-1.42-3.54-1.42s-2.63.52-3.57,1.47Z"/>
          <path d="m650.23,508.74c4.13,0,4.13-6.41,0-6.41s-4.13,6.41,0,6.41Z"/>
          <path d="m686.48,491.96c-.78.91-1.22,2.11-1.22,3.36,0,2.87,2.13,5.04,4.96,5.04s4.96-2.17,4.96-5.04c0-1.26-.43-2.45-1.22-3.36-.93-1.08-2.26-1.67-3.74-1.67s-2.82.59-3.75,1.67Z"/>
          <path d="m599.91,633.13c1.39,0,2.7-.55,3.54-1.47,1.03-.95,1.58-2.22,1.58-3.66,0-1.3-.56-2.63-1.49-3.56-.93-.93-2.24-1.46-3.59-1.46s-2.67.53-3.59,1.46c-.96.96-1.49,2.23-1.49,3.56,0,1.47.58,2.82,1.55,3.69.92.9,2.23,1.44,3.51,1.44Z"/>
          <path d="m582.65,633.87c2.83,0,4.96-2.17,4.96-5.04,0-1.26-.43-2.45-1.22-3.36-.93-1.08-2.26-1.67-3.74-1.67-2.83,0-4.96,2.17-4.96,5.04,0,1.26.43,2.45,1.22,3.36.93,1.08,2.26,1.67,3.74,1.67Z"/>
          <path d="m153.81,773.19c-4.13,0-4.13,6.41,0,6.41s4.13-6.41,0-6.41Z"/>
          <path d="m163.06,799.84l-.07-.07c-.93-.87-2.22-1.37-3.53-1.37-1.4,0-2.72.55-3.6,1.49-.96.96-1.48,2.22-1.48,3.56s.54,2.68,1.49,3.62c.93.93,2.27,1.49,3.56,1.49s2.68-.54,3.63-1.49c.95-.95,1.49-2.27,1.49-3.63,0-1.26-.47-2.47-1.37-3.49l-.12-.13Z"/>
          <path d="m164.69,723.88c-4.13,0-4.13,6.41,0,6.41s4.13-6.41,0-6.41Z"/>
          <path d="m169.17,699.55c-4.13,0-4.13,6.41,0,6.41s4.13-6.41,0-6.41Z"/>
          <path d="m197.35,770.62c-4.13,0-4.13,6.41,0,6.41s4.13-6.41,0-6.41Z"/>
          <path d="m212.07,782.82c1.37,0,2.69-.54,3.61-1.48.96-.94,1.51-2.27,1.51-3.64,0-1.3-.56-2.63-1.49-3.56-.93-.93-2.24-1.46-3.59-1.46s-2.67.53-3.59,1.46c-.96.96-1.49,2.23-1.49,3.56,0,1.41.52,2.67,1.48,3.62.96.97,2.23,1.5,3.58,1.5Z"/>
          <path d="m215.28,800.73c4.13,0,4.13-6.41,0-6.41s-4.13,6.41,0,6.41Z"/>
          <path d="m230.78,762.93c1.34,0,2.61-.52,3.51-1.43.37-.32.67-.72.92-1.14-2.92-1.72-5.78-3.52-8.58-5.39-.59.85-.9,1.83-.9,2.91,0,1.4.59,2.77,1.55,3.62.93.9,2.24,1.44,3.51,1.44Z"/>
          <path d="m230.14,793.07c0,1.26.43,2.45,1.22,3.36.93,1.08,2.26,1.67,3.74,1.67,2.83,0,4.96-2.17,4.96-5.04,0-1.26-.43-2.45-1.22-3.36-.93-1.08-2.26-1.67-3.74-1.67-2.83,0-4.96,2.17-4.96,5.04Z"/>
          <path d="m248.31,814.38c1.39,0,2.65-.52,3.62-1.48.97-.96,1.51-2.23,1.51-3.58s-.54-2.67-1.49-3.62c-.93-.93-2.24-1.47-3.6-1.47s-2.67.53-3.6,1.46c-.95.94-1.49,2.27-1.49,3.62s.53,2.62,1.49,3.56c.97.97,2.23,1.5,3.56,1.5Z"/>
          <path d="m251.43,769.3c.27,0,.53-.04.79-.08-1.72-.79-3.42-1.61-5.1-2.44.16.3.35.59.57.85.93,1.08,2.26,1.67,3.74,1.67Z"/>
          <path d="m178.27,798.84c0,1.26.43,2.45,1.22,3.36.93,1.08,2.26,1.67,3.74,1.67,2.83,0,4.96-2.17,4.96-5.04,0-1.26-.43-2.45-1.22-3.36-.93-1.08-2.26-1.67-3.74-1.67-2.83,0-4.96,2.17-4.96,5.04Z"/>
          <path d="m197.64,750.09c1.49,0,2.82-.59,3.74-1.67.78-.91,1.22-2.11,1.22-3.36,0-2.87-2.13-5.04-4.96-5.04s-4.96,2.17-4.96,5.04c0,1.26.43,2.45,1.22,3.36.93,1.08,2.26,1.67,3.74,1.67Z"/>
          <path d="m203.11,764.87c4.13,0,4.13-6.41,0-6.41s-4.13,6.41,0,6.41Z"/>
          <path d="m180.95,774.21c0-1.3-.58-2.65-1.57-3.64-.97-.9-2.25-1.4-3.6-1.4s-2.62.51-3.52,1.41c-.95.94-1.49,2.27-1.49,3.63,0,1.28.44,2.47,1.3,3.49l.13.13c.94.95,2.27,1.49,3.63,1.49s2.77-.59,3.63-1.55c.95-.99,1.49-2.28,1.49-3.56Z"/>
          <path d="m563.6,432.86l.14.12c1.02.89,2.21,1.37,3.43,1.37,1.31,0,2.67-.58,3.62-1.55.96-.96,1.5-2.23,1.5-3.56s-.54-2.69-1.49-3.62c-.93-.93-2.24-1.47-3.6-1.47s-2.67.53-3.58,1.45c-.96.94-1.51,2.27-1.51,3.64,0,1.26.47,2.47,1.37,3.49l.12.14Z"/>
          <path d="m566.99,471.6c-4.13,0-4.13,6.41,0,6.41s4.13-6.41,0-6.41Z"/>
          <path d="m566.41,459.66c1.35,0,2.62-.53,3.56-1.49.95-.95,1.5-2.27,1.5-3.63s-.58-2.75-1.52-3.59c-.92-.93-2.18-1.44-3.55-1.44s-2.66.51-3.54,1.39c-.96.94-1.51,2.27-1.51,3.64,0,1.44.52,2.71,1.4,3.54.93,1,2.26,1.57,3.65,1.57Z"/>
          <path d="m580,526.14c-.99.99-1.55,2.33-1.55,3.69s.55,2.65,1.47,3.48c.95,1.03,2.21,1.58,3.65,1.58,1.35,0,2.61-.53,3.55-1.48.95-.93,1.51-2.27,1.51-3.58,0-1.4-.52-2.66-1.49-3.63-.92-.92-2.24-1.44-3.63-1.44s-2.72.53-3.5,1.38Z"/>
          <path d="m583,475.45c4.13,0,4.13-6.41,0-6.41s-4.13,6.41,0,6.41Z"/>
          <path d="m568.31,516.58c-1.41,0-2.73.56-3.58,1.51-.92.95-1.43,2.2-1.43,3.51s.51,2.6,1.34,3.48c.93,1.04,2.29,1.63,3.71,1.63s2.77-.59,3.63-1.55c.95-.99,1.49-2.28,1.49-3.56,0-1.35-.55-2.64-1.56-3.64-.95-.88-2.26-1.39-3.6-1.39Z"/>
          <path d="m445.4,462.19c.93,1.08,2.26,1.67,3.74,1.67,2.83,0,4.96-2.17,4.96-5.04,0-1.26-.43-2.45-1.22-3.36-.93-1.08-2.26-1.67-3.74-1.67-2.83,0-4.96,2.17-4.96,5.04,0,1.26.43,2.45,1.22,3.36Z"/>
          <path d="m568.3,488.51c-1.4,0-2.74.55-3.57,1.45-.94.93-1.44,2.17-1.44,3.58s.51,2.72,1.41,3.55c.93.99,2.26,1.57,3.65,1.57s2.68-.54,3.65-1.51l.1-.11c.9-1.02,1.37-2.23,1.37-3.49,0-1.35-.55-2.64-1.57-3.64-.95-.88-2.26-1.39-3.6-1.39Z"/>
          <path d="m449.17,476.08c-4.13,0-4.13,6.41,0,6.41s4.13-6.41,0-6.41Z"/>
          <path d="m579.77,459.06c2.83,0,4.96-2.17,4.96-5.04,0-1.26-.43-2.45-1.22-3.36-.93-1.08-2.26-1.67-3.74-1.67-2.83,0-4.96,2.17-4.96,5.04,0,1.26.43,2.45,1.22,3.36.93,1.08,2.26,1.67,3.74,1.67Z"/>
          <path d="m706.32,814.38c1.39,0,2.65-.52,3.62-1.48.97-.96,1.51-2.23,1.51-3.58s-.54-2.67-1.49-3.62c-.93-.93-2.24-1.47-3.6-1.47s-2.67.53-3.6,1.46c-.95.94-1.49,2.27-1.49,3.62s.53,2.62,1.49,3.56c.97.97,2.23,1.5,3.56,1.5Z"/>
          <path d="m719.09,789.5c.95.95,2.28,1.5,3.63,1.5s2.67-.54,3.61-1.48c.94-.93,1.51-2.27,1.51-3.58,0-1.41-.59-2.76-1.61-3.68-.92-.89-2.17-1.39-3.5-1.39s-2.67.53-3.59,1.45c-.98.99-1.54,2.31-1.54,3.61,0,1.2.47,2.38,1.37,3.43l.12.13Z"/>
          <path d="m439.74,440.15c1.29,0,2.62-.56,3.55-1.48.97-.96,1.51-2.23,1.51-3.58s-.54-2.67-1.49-3.62c-.92-.93-2.2-1.45-3.59-1.45s-2.7.52-3.61,1.44c-.95.94-1.49,2.27-1.49,3.62s.51,2.57,1.41,3.49c.9,1,2.25,1.58,3.7,1.58Z"/>
          <path d="m463.26,805.85c4.13,0,4.13-6.41,0-6.41s-4.13,6.41,0,6.41Z"/>
          <path d="m175.78,488.5c-1.34,0-2.62.51-3.52,1.41-.94.95-1.48,2.27-1.48,3.63,0,1.24.46,2.5,1.28,3.46l.13.15.15.13c1.02.89,2.23,1.37,3.5,1.37,1.34,0,2.61-.53,3.58-1.5.98-.99,1.54-2.31,1.54-3.61s-.58-2.65-1.57-3.64c-.97-.9-2.25-1.39-3.6-1.39Z"/>
          <path d="m455.58,794.33c4.13,0,4.13-6.41,0-6.41s-4.13,6.41,0,6.41Z"/>
          <path d="m490.15,773.84c4.13,0,4.13-6.41,0-6.41s-4.13,6.41,0,6.41Z"/>
          <path d="m422.16,510.71c-1.39,0-2.73.55-3.57,1.46-.95.95-1.49,2.27-1.49,3.63,0,1.2.48,2.47,1.31,3.44l.12.13c.95.95,2.27,1.49,3.63,1.49s2.69-.54,3.61-1.48c.94-.93,1.51-2.27,1.51-3.58s-.54-2.68-1.49-3.63c-.93-.93-2.25-1.46-3.62-1.46Z"/>
          <path d="m350.12,442.35c1,.86,2.27,1.35,3.48,1.35s2.47-.47,3.51-1.39l.11-.11c.95-.95,1.49-2.27,1.49-3.62s-.59-2.77-1.56-3.62c-.94-.91-2.26-1.43-3.6-1.43s-2.63.52-3.48,1.38c-1.02.93-1.61,2.27-1.61,3.68s.54,2.67,1.52,3.65l.13.12Z"/>
          <path d="m426.89,493.4c0,1.26.43,2.45,1.22,3.36.93,1.08,2.26,1.67,3.74,1.67,2.83,0,4.96-2.17,4.96-5.04,0-1.26-.43-2.45-1.22-3.36-.93-1.08-2.26-1.67-3.74-1.67-2.83,0-4.96,2.17-4.96,5.04Z"/>
          <path d="m400.97,523.46c-4.13,0-4.13,6.41,0,6.41s4.13-6.41,0-6.41Z"/>
          <path d="m490.76,797.6c0,1.34.52,2.61,1.42,3.5.88,1.02,2.2,1.61,3.63,1.61s2.66-.51,3.63-1.49c.95-.95,1.49-2.27,1.49-3.62s-.59-2.78-1.56-3.63c-.93-.89-2.24-1.4-3.59-1.4s-2.64.51-3.52,1.39c-.96.94-1.5,2.27-1.5,3.64Z"/>
          <path d="m276.11,495.94c4.13,0,4.13-6.41,0-6.41s-4.13,6.41,0,6.41Z"/>
          <path d="m165.29,468.22c1.36,0,2.68-.54,3.61-1.49.94-.93,1.51-2.27,1.51-3.58s-.54-2.67-1.49-3.62c-.93-.93-2.24-1.47-3.6-1.47s-2.67.53-3.59,1.46c-.95.95-1.49,2.27-1.49,3.62s.53,2.61,1.48,3.55c.96.97,2.23,1.51,3.58,1.51Z"/>
          <path d="m306.17,526.78c-2.83,0-4.96,2.17-4.96,5.04,0,1.26.43,2.45,1.22,3.36.93,1.08,2.26,1.67,3.74,1.67,2.83,0,4.96-2.17,4.96-5.04,0-1.26-.43-2.45-1.22-3.36-.93-1.08-2.26-1.67-3.74-1.67Z"/>
          <path d="m159.43,527.9c1.36,0,2.68-.54,3.63-1.49.95-.95,1.49-2.27,1.49-3.62s-.54-2.69-1.49-3.62c-.93-.93-2.24-1.47-3.6-1.47s-2.67.53-3.58,1.45c-.95.94-1.5,2.27-1.5,3.64s.54,2.68,1.49,3.62c.94.94,2.27,1.49,3.56,1.49Z"/>
          <path d="m293.94,497.83c-1.34,0-2.63.52-3.53,1.42-1,.98-1.57,2.31-1.57,3.64s.51,2.55,1.41,3.48c.93,1.04,2.28,1.63,3.7,1.63,1.35,0,2.62-.53,3.59-1.52l.09-.1c.9-1.02,1.37-2.23,1.37-3.5,0-1.39-.58-2.75-1.52-3.59-.92-.93-2.22-1.46-3.56-1.46Z"/>
          <path d="m294.04,464.56c4.13,0,4.13-6.41,0-6.41s-4.13,6.41,0,6.41Z"/>
          <path d="m286.92,450.69c1.37,0,2.69-.54,3.61-1.48.94-.93,1.5-2.27,1.5-3.58s-.54-2.68-1.49-3.63c-.93-.93-2.25-1.46-3.62-1.46s-2.73.55-3.57,1.46c-.98.97-1.49,2.23-1.49,3.63,0,1.31.51,2.56,1.41,3.48.88.99,2.24,1.58,3.64,1.58Z"/>
          <path d="m279.93,478.75c1.32,0,2.56-.51,3.48-1.41.99-.88,1.58-2.24,1.58-3.64s-.52-2.65-1.49-3.63c-.93-.93-2.23-1.46-3.59-1.46s-2.63.53-3.49,1.41c-1.05.96-1.6,2.23-1.6,3.68s.59,2.77,1.55,3.62c.94.92,2.24,1.44,3.57,1.44Z"/>
          <path d="m195.73,468.22c1.35,0,2.61-.53,3.55-1.48.97-.96,1.51-2.23,1.51-3.58s-.54-2.68-1.49-3.62c-.93-.93-2.24-1.47-3.6-1.47s-2.67.53-3.59,1.46c-.95.95-1.5,2.27-1.5,3.63s.53,2.61,1.48,3.55c.95.96,2.27,1.51,3.64,1.51Z"/>
          <path d="m180.7,551c4.13,0,4.13-6.41,0-6.41s-4.13,6.41,0,6.41Z"/>
          <path d="m201.19,479.93c4.13,0,4.13-6.41,0-6.41s-4.13,6.41,0,6.41Z"/>
          <path d="m212.07,451.87c1.4,0,2.71-.55,3.55-1.47,1-.93,1.57-2.26,1.57-3.64s-.59-2.77-1.56-3.63c-.93-.89-2.23-1.4-3.59-1.4s-2.64.51-3.53,1.39c-.96.94-1.51,2.27-1.51,3.64s.54,2.67,1.48,3.61c.95.97,2.23,1.5,3.58,1.5Z"/>
          <path d="m199.27,584.3c4.13,0,4.13-6.41,0-6.41s-4.13,6.41,0,6.41Z"/>
          <path d="m224.92,581.67c1.32,0,2.62-.52,3.54-1.41.99-.88,1.58-2.25,1.58-3.65s-.52-2.65-1.49-3.63c-.93-.93-2.24-1.46-3.62-1.46s-2.74.55-3.57,1.46c-.97.97-1.49,2.23-1.49,3.63s.59,2.77,1.55,3.62c.93.9,2.24,1.43,3.5,1.43Z"/>
          <path d="m537.91,786.32c1.36,0,2.68-.54,3.62-1.49.97-.96,1.51-2.23,1.51-3.58s-.54-2.67-1.49-3.62c-.93-.93-2.24-1.47-3.6-1.47s-2.67.53-3.6,1.46c-.97.97-1.49,2.23-1.49,3.62s.53,2.62,1.49,3.57c.94.94,2.27,1.5,3.56,1.5Z"/>
          <path d="m261.09,789.5c.95.95,2.28,1.5,3.63,1.5s2.67-.54,3.61-1.48c.94-.93,1.51-2.27,1.51-3.58,0-1.41-.59-2.76-1.61-3.68-.92-.89-2.17-1.39-3.5-1.39s-2.67.53-3.59,1.45c-.98.99-1.54,2.31-1.54,3.61,0,1.2.47,2.38,1.37,3.43l.12.13Z"/>
          <path d="m339.51,529.42c-1.39,0-2.74.55-3.58,1.46-.95.95-1.49,2.27-1.49,3.63s.59,2.67,1.53,3.54c.9.96,2.2,1.51,3.59,1.51,1.27,0,2.48-.47,3.52-1.39l.1-.09c.94-.93,1.51-2.27,1.51-3.58,0-1.38-.55-2.68-1.57-3.7-.95-.88-2.26-1.39-3.6-1.39Z"/>
          <path d="m263.3,494.02c4.13,0,4.13-6.41,0-6.41s-4.13,6.41,0,6.41Z"/>
          <path d="m339.56,496.7c-1.37,0-2.66.52-3.51,1.38-1.02.93-1.6,2.28-1.6,3.68,0,1.32.58,2.67,1.48,3.49.93.99,2.26,1.56,3.64,1.56s2.69-.55,3.54-1.46c.99-.92,1.58-2.26,1.58-3.59s-.55-2.68-1.57-3.7c-.95-.88-2.21-1.36-3.56-1.36Z"/>
          <path d="m550.34,798.81c4.13,0,4.13-6.41,0-6.41s-4.13,6.41,0,6.41Z"/>
          <path d="m264.72,693.94c1.39,0,2.76-.59,3.62-1.55.97-.99,1.5-2.24,1.5-3.51s-.45-2.41-1.34-3.47l-.1-.12-.12-.11c-.95-.88-2.23-1.37-3.59-1.37s-2.65.51-3.54,1.39c-.98.99-1.54,2.33-1.54,3.68s.56,2.63,1.49,3.56c.95.95,2.27,1.49,3.63,1.49Z"/>
          <path d="m264.72,510.32c1.3,0,2.55-.51,3.48-1.42,1.03-.92,1.64-2.28,1.64-3.64,0-1.25-.45-2.41-1.34-3.46l-.1-.12-.11-.11c-.95-.89-2.21-1.38-3.57-1.38-1.42,0-2.73.54-3.58,1.45-1.01,1.02-1.54,2.27-1.54,3.61s.56,2.63,1.49,3.56c.95.95,2.28,1.5,3.63,1.5Z"/>
          <path d="m310.01,628.11c2.83,0,4.96-2.17,4.96-5.04,0-1.26-.43-2.45-1.22-3.36-.93-1.08-2.26-1.67-3.74-1.67-2.83,0-4.96,2.17-4.96,5.04,0,1.26.43,2.45,1.22,3.36.93,1.08,2.26,1.67,3.74,1.67Z"/>
          <path d="m348.43,636.75c2.83,0,4.96-2.17,4.96-5.04s-2.13-5.04-4.96-5.04-4.96,2.17-4.96,5.04,2.13,5.04,4.96,5.04Z"/>
          <path d="m368.81,643.66c1.35,0,2.62-.53,3.56-1.49.95-.95,1.49-2.27,1.49-3.62s-.58-2.75-1.52-3.6c-.92-.93-2.22-1.46-3.58-1.46s-2.7.54-3.5,1.41c-1,.98-1.57,2.31-1.57,3.64s.59,2.76,1.55,3.62c.96.93,2.3,1.49,3.57,1.49Z"/>
          <path d="m351.66,545.87c-4.13,0-4.13,6.41,0,6.41s4.13-6.41,0-6.41Z"/>
          <path d="m360.63,533.71c-4.13,0-4.13,6.41,0,6.41s4.13-6.41,0-6.41Z"/>
          <path d="m354.04,483.8c0,2.87,2.13,5.04,4.96,5.04s4.96-2.17,4.96-5.04-2.13-5.04-4.96-5.04-4.96,2.17-4.96,5.04Z"/>
          <path d="m359.47,516.54c-1.36,0-2.69.54-3.62,1.47-.95.93-1.45,2.17-1.45,3.59s.54,2.76,1.48,3.62c1,.98,2.24,1.5,3.57,1.5s2.62-.53,3.56-1.49c.95-.95,1.49-2.27,1.49-3.63,0-1.43-.52-2.67-1.56-3.7-.94-.88-2.18-1.36-3.49-1.36Z"/>
          <path d="m379.21,488.91c.94.95,2.27,1.5,3.64,1.5s2.69-.53,3.56-1.42c.95-.95,1.49-2.27,1.49-3.63s-.58-2.74-1.51-3.59c-.92-.93-2.23-1.47-3.59-1.47s-2.63.52-3.47,1.38c-1.02.93-1.61,2.27-1.61,3.68s.53,2.6,1.48,3.55Z"/>
          <path d="m344.59,460.02c2.83,0,4.96-2.17,4.96-5.04s-2.13-5.04-4.96-5.04-4.96,2.17-4.96,5.04,2.13,5.04,4.96,5.04Z"/>
          <path d="m373.44,497.85c-4.13,0-4.13,6.41,0,6.41s4.13-6.41,0-6.41Z"/>
          <path d="m374.37,449.46c2.83,0,4.96-2.17,4.96-5.04s-2.13-5.04-4.96-5.04-4.96,2.17-4.96,5.04,2.13,5.04,4.96,5.04Z"/>
          <path d="m379.3,542.3c-1.41,0-2.76.54-3.58,1.43-.97.97-1.48,2.23-1.48,3.62,0,1.32.51,2.57,1.41,3.49.9,1,2.25,1.57,3.7,1.57s2.75-.59,3.61-1.55c.9-.92,1.44-2.24,1.44-3.51,0-1.41-.54-2.69-1.47-3.55-.9-.96-2.22-1.51-3.64-1.51Z"/>
          <path d="m368.68,467.9c.95.95,2.27,1.49,3.63,1.49,1.26,0,2.47-.47,3.51-1.39l.1-.09c.94-.93,1.51-2.27,1.51-3.58s-.54-2.6-1.5-3.57c-.92-.98-2.2-1.51-3.6-1.51s-2.67.53-3.54,1.41c-.98.9-1.53,2.24-1.53,3.68,0,1.2.48,2.48,1.31,3.43l.12.13Z"/>
          <path d="m386.24,454.32c4.13,0,4.13-6.41,0-6.41s-4.13,6.41,0,6.41Z"/>
          <path d="m340.8,480.77c.97-.96,1.51-2.23,1.51-3.58s-.54-2.67-1.49-3.62c-.93-.93-2.24-1.47-3.6-1.47s-2.67.53-3.6,1.46-1.49,2.27-1.49,3.62.51,2.57,1.41,3.49c.9,1,2.25,1.58,3.7,1.58,1.33,0,2.59-.53,3.55-1.48Z"/>
          <path d="m332.58,437.83c1.34,0,2.6-.53,3.57-1.49.95-.95,1.49-2.27,1.49-3.62s-.53-2.62-1.43-3.5c-.92-.98-2.25-1.55-3.65-1.55s-2.75.56-3.59,1.47c-.97.95-1.5,2.23-1.5,3.58s.53,2.64,1.39,3.47c.89,1.04,2.24,1.64,3.73,1.64Z"/>
          <path d="m329.89,524.11c4.13,0,4.13-6.41,0-6.41s-4.13,6.41,0,6.41Z"/>
          <path d="m390.08,492.73c-4.13,0-4.13,6.41,0,6.41s4.13-6.41,0-6.41Z"/>
          <path d="m492.07,489.53c4.13,0,4.13-6.41,0-6.41s-4.13,6.41,0,6.41Z"/>
          <path d="m520.25,460.72c4.13,0,4.13-6.41,0-6.41s-4.13,6.41,0,6.41Z"/>
          <path d="m512.22,475.26c1.36,0,2.68-.54,3.62-1.49.95-.95,1.49-2.27,1.49-3.62s-.56-2.63-1.5-3.58c-.95-.94-2.23-1.46-3.63-1.46s-2.67.51-3.56,1.41c-.99.99-1.55,2.31-1.55,3.63,0,1.38.55,2.69,1.47,3.55.93.99,2.26,1.56,3.65,1.56Z"/>
          <path d="m501.68,445.35c4.13,0,4.13-6.41,0-6.41s-4.13,6.41,0,6.41Z"/>
          <path d="m517.69,429.98c4.13,0,4.13-6.41,0-6.41s-4.13,6.41,0,6.41Z"/>
          <path d="m455.94,494.79c.95.95,2.28,1.5,3.63,1.5s2.68-.54,3.61-1.48c.97-.96,1.51-2.23,1.51-3.58s-.54-2.67-1.49-3.62c-.93-.93-2.2-1.44-3.59-1.44s-2.69.52-3.61,1.44c-.95.95-1.49,2.27-1.49,3.62,0,1.24.46,2.45,1.31,3.44l.12.13Z"/>
          <path d="m389.88,516.58c-1.42,0-2.78.55-3.6,1.44-.97.96-1.51,2.23-1.51,3.58s.51,2.6,1.34,3.48c.93,1.04,2.29,1.63,3.71,1.63s2.71-.55,3.55-1.47c.99-.93,1.56-2.26,1.56-3.64s-.53-2.62-1.43-3.5c-.91-.97-2.23-1.53-3.64-1.53Z"/>
          <path d="m480.55,462.64c4.13,0,4.13-6.41,0-6.41s-4.13,6.41,0,6.41Z"/>
          <path d="m466.46,452.4c4.13,0,4.13-6.41,0-6.41s-4.13,6.41,0,6.41Z"/>
          <path d="m475.97,443.7c1.41,0,2.7-.58,3.61-1.61.97-.99,1.5-2.24,1.5-3.51s-.48-2.42-1.45-3.52l-.09-.1c-.91-.92-2.22-1.45-3.59-1.45s-2.7.53-3.63,1.47l-.09.1c-.9,1.02-1.37,2.23-1.37,3.49,0,1.34.53,2.6,1.48,3.55.97.98,2.33,1.57,3.64,1.57Z"/>
          <path d="m472.46,468.63c-1.38,0-2.69.52-3.61,1.43-.95.94-1.49,2.27-1.49,3.63s.56,2.65,1.48,3.56c.98.98,2.23,1.5,3.63,1.5,1.3,0,2.63-.55,3.55-1.48.94-.93,1.51-2.27,1.51-3.58s-.54-2.68-1.49-3.63c-.92-.93-2.2-1.43-3.58-1.43Z"/>
          <path d="m500.05,465.78c2.83,0,4.96-2.17,4.96-5.04,0-1.26-.43-2.45-1.22-3.36-.93-1.08-2.26-1.67-3.74-1.67-2.83,0-4.96,2.17-4.96,5.04,0,1.26.43,2.45,1.22,3.36.93,1.08,2.26,1.67,3.74,1.67Z"/>
          <path d="m392.17,719.7c.95-1.9.05-4.79-2.72-4.79-3.16,0-3.9,3.76-2.21,5.52,1.65-.22,3.29-.46,4.93-.73Z"/>
          <path d="m402.61,501.69c-.98,1.01-1.5,2.24-1.5,3.57s.56,2.64,1.48,3.55c.95.96,2.27,1.51,3.64,1.51s2.61-.53,3.55-1.48c.95-.93,1.51-2.27,1.51-3.58,0-1.4-.52-2.65-1.49-3.62-.91-.92-2.23-1.45-3.6-1.45s-2.75.56-3.59,1.5Z"/>
          <path d="m402.25,431.26c4.13,0,4.13-6.41,0-6.41s-4.13,6.41,0,6.41Z"/>
          <path d="m399.18,450.18c0,2.87,2.13,5.04,4.96,5.04s4.96-2.17,4.96-5.04-2.13-5.04-4.96-5.04-4.96,2.17-4.96,5.04Z"/>
          <path d="m391.02,433.16c1.34,0,2.61-.53,3.58-1.5.96-.98,1.47-2.23,1.47-3.61s-.5-2.65-1.43-3.58c-.96-.95-2.25-1.47-3.64-1.47s-2.76.56-3.6,1.47c-.97.96-1.51,2.23-1.51,3.58s.55,2.6,1.51,3.58c.99.97,2.31,1.53,3.62,1.53Z"/>
          <path d="m480.65,793.36c1.35,0,2.62-.53,3.56-1.49.95-.95,1.49-2.27,1.49-3.62s-.53-2.62-1.49-3.57c-.93-.93-2.25-1.46-3.62-1.46s-2.73.55-3.56,1.44c-.97.96-1.51,2.23-1.51,3.58,0,1.26.54,2.58,1.41,3.48.93,1.04,2.28,1.63,3.7,1.63Z"/>
          <path d="m396.65,472.48l.1.1c.95.95,2.27,1.49,3.63,1.49s2.67-.54,3.61-1.48c.94-.93,1.51-2.27,1.51-3.58s-.45-2.41-1.34-3.46l-.11-.13-.12-.11c-.95-.88-2.21-1.36-3.56-1.36-1.42,0-2.73.53-3.58,1.45-.96.98-1.47,2.23-1.47,3.62,0,1.2.48,2.47,1.33,3.46Z"/>
          <path d="m424.84,447.27c4.13,0,4.13-6.41,0-6.41s-4.13,6.41,0,6.41Z"/>
          <path d="m491.43,677.79c4.13,0,4.13-6.41,0-6.41s-4.13,6.41,0,6.41Z"/>
          <path d="m509.84,779.32c1.36,0,2.69-.54,3.63-1.49.95-.95,1.49-2.27,1.49-3.62s-.53-2.62-1.43-3.5c-.92-.98-2.25-1.55-3.65-1.55s-2.75.56-3.59,1.47c-.97.95-1.5,2.23-1.5,3.58s.55,2.69,1.46,3.54c.94,1.01,2.21,1.57,3.59,1.57Z"/>
          <path d="m475.97,685.77c1.35,0,2.62-.53,3.56-1.48.99-.99,1.56-2.31,1.56-3.63s-.61-2.72-1.58-3.6c-.92-.93-2.18-1.44-3.55-1.44s-2.65.51-3.54,1.39c-1,.98-1.57,2.31-1.57,3.64s.55,2.69,1.47,3.54c.93,1,2.26,1.57,3.65,1.57Z"/>
          <path d="m279.93,785.19c1.22,0,2.4-.47,3.45-1.39l.11-.11c.66-.65,1.1-1.49,1.32-2.39-3.25-.95-6.47-1.96-9.67-3.03-.22.57-.34,1.18-.34,1.79,0,1.39.59,2.75,1.54,3.61.96.94,2.3,1.51,3.58,1.51Z"/>
          <path d="m522.17,800.09c4.13,0,4.13-6.41,0-6.41s-4.13,6.41,0,6.41Z"/>
          <path d="m450.45,695.08c4.13,0,4.13-6.41,0-6.41s-4.13,6.41,0,6.41Z"/>
          <path d="m416.52,432.55c4.13,0,4.13-6.41,0-6.41s-4.13,6.41,0,6.41Z"/>
          <path d="m280.08,806.52c0,1.26.43,2.45,1.22,3.36.93,1.08,2.26,1.67,3.74,1.67,2.83,0,4.96-2.17,4.96-5.04,0-1.26-.43-2.45-1.22-3.36-.93-1.08-2.26-1.67-3.74-1.67-2.83,0-4.96,2.17-4.96,5.04Z"/>
          <path d="m419.7,467.9c.95.95,2.27,1.49,3.63,1.49s2.67-.54,3.61-1.48c.97-.96,1.51-2.23,1.51-3.58s-.57-2.72-1.48-3.56c-.91-.97-2.24-1.52-3.64-1.52s-2.71.54-3.54,1.43c-.99.92-1.57,2.29-1.57,3.65s.53,2.62,1.49,3.56Z"/>
          <path d="m726.24,627.66c-1.32,0-2.61.51-3.51,1.38-.86.77-1.38,1.89-1.52,3.11,1.93-.62,3.86-1.25,5.78-1.87,1.02-.33,2.01-.66,2.97-1-.05-.05-.08-.1-.13-.15-.93-.93-2.24-1.46-3.59-1.46Z"/>
          <path d="m679.05,628.48c4.13,0,4.13-6.41,0-6.41s-4.13,6.41,0,6.41Z"/>
          <path d="m734.11,495.94c4.13,0,4.13-6.41,0-6.41s-4.13,6.41,0,6.41Z"/>
          <path d="m577.71,716.15c1.38,0,2.69-.55,3.54-1.47.99-.92,1.58-2.26,1.58-3.59s-.54-2.67-1.49-3.62c-.94-.95-2.22-1.47-3.61-1.47s-2.62.5-3.65,1.46c-.92.92-1.43,2.21-1.43,3.63s.59,2.76,1.54,3.62c.96.93,2.21,1.44,3.51,1.44Z"/>
          <path d="m638.96,493.54c0-1.3-.58-2.65-1.57-3.64-.97-.9-2.25-1.39-3.6-1.39s-2.62.51-3.52,1.41c-.94.95-1.48,2.27-1.48,3.63,0,1.24.46,2.5,1.28,3.46l.13.15.15.13c1.02.89,2.23,1.37,3.5,1.37,1.34,0,2.61-.53,3.58-1.5.98-.99,1.54-2.31,1.54-3.61Z"/>
          <path d="m638.71,544.59c-4.13,0-4.13,6.41,0,6.41s4.13-6.41,0-6.41Z"/>
          <path d="m519.2,591.03c1.36,0,2.68-.54,3.62-1.48.99-.97,1.51-2.23,1.51-3.64,0-1.3-.56-2.63-1.49-3.56-.93-.93-2.25-1.46-3.62-1.46s-2.74.55-3.57,1.46c-.93.93-1.49,2.26-1.49,3.56,0,1.42.52,2.67,1.49,3.63.96.96,2.23,1.49,3.57,1.49Z"/>
          <path d="m706.58,461.36c4.13,0,4.13-6.41,0-6.41s-4.13,6.41,0,6.41Z"/>
          <path d="m722.72,510.32c1.3,0,2.55-.51,3.48-1.42,1.03-.92,1.64-2.28,1.64-3.64,0-1.25-.45-2.41-1.34-3.46l-.1-.12-.11-.11c-.95-.89-2.21-1.38-3.57-1.38-1.42,0-2.73.54-3.58,1.45-1.01,1.02-1.54,2.27-1.54,3.61s.56,2.63,1.49,3.56c.95.95,2.28,1.5,3.63,1.5Z"/>
          <path d="m721.31,494.02c4.13,0,4.13-6.41,0-6.41s-4.13,6.41,0,6.41Z"/>
          <path d="m639.7,726.69c1.31,0,2.56-.51,3.48-1.41.99-.88,1.58-2.24,1.58-3.64s-.52-2.66-1.49-3.63c-.93-.93-2.23-1.46-3.59-1.46s-2.62.52-3.49,1.4c-1.01.92-1.61,2.3-1.61,3.69,0,1.31.56,2.64,1.48,3.55.94.96,2.27,1.51,3.64,1.51Z"/>
          <path d="m606.96,727.87c1.35,0,2.62-.53,3.56-1.49.99-.99,1.5-2.21,1.5-3.63s-.53-2.62-1.49-3.57c-.93-.93-2.24-1.46-3.59-1.46s-2.66.53-3.58,1.44c-.97.96-1.51,2.23-1.51,3.58s.54,2.67,1.48,3.61c.94.95,2.27,1.5,3.64,1.5Z"/>
          <path d="m617.58,632.32c4.13,0,4.13-6.41,0-6.41s-4.13,6.41,0,6.41Z"/>
          <path d="m630.35,642.48c1.35,0,2.61-.53,3.55-1.48.95-.93,1.51-2.27,1.51-3.58s-.54-2.68-1.49-3.63c-.93-.93-2.24-1.46-3.6-1.46s-2.67.53-3.59,1.46c-.98.98-1.49,2.23-1.49,3.63s.53,2.61,1.48,3.55c.94.96,2.27,1.51,3.64,1.51Z"/>
          <path d="m622.7,730.29c4.13,0,4.13-6.41,0-6.41s-4.13,6.41,0,6.41Z"/>
          <path d="m600.29,535.63c-4.13,0-4.13,6.41,0,6.41s4.13-6.41,0-6.41Z"/>
          <path d="m603.4,448.38c1.21,0,2.48-.49,3.51-1.38l.12-.12c.95-.95,1.49-2.27,1.49-3.62s-.54-2.69-1.49-3.62c-.94-.95-2.21-1.47-3.58-1.47s-2.6.51-3.61,1.45c-.96.94-1.5,2.27-1.5,3.64s.54,2.68,1.49,3.62c.94.94,2.27,1.49,3.56,1.49Z"/>
          <path d="m599.84,479.63c.94.94,2.27,1.49,3.56,1.49s2.64-.57,3.63-1.55c.96-.96,1.49-2.23,1.49-3.56s-.55-2.69-1.56-3.69c-.95-.89-2.21-1.38-3.54-1.38s-2.59.5-3.57,1.43c-.96.94-1.5,2.27-1.5,3.64,0,1.27.47,2.48,1.39,3.52l.1.11Z"/>
          <path d="m526.01,479.92c-4.13,0-4.13,6.41,0,6.41s4.13-6.41,0-6.41Z"/>
          <path d="m512.22,689.26c1.35,0,2.67-.54,3.61-1.48.94-.93,1.51-2.27,1.51-3.58,0-1.38-.55-2.69-1.58-3.72l-.12-.11c-.95-.82-2.17-1.27-3.43-1.27-1.35,0-2.64.53-3.5,1.42-1.02.94-1.6,2.28-1.6,3.68s.53,2.61,1.49,3.56c.95.95,2.27,1.49,3.63,1.49Z"/>
          <path d="m568.35,807.39c1.27,0,2.48-.47,3.49-1.36l.14-.12.12-.14c.9-1.02,1.37-2.23,1.37-3.49,0-1.35-.55-2.64-1.57-3.64-.95-.88-2.26-1.39-3.59-1.39s-2.67.54-3.5,1.43c-.69.64-1.51,1.78-1.51,3.6,0,1.44.51,2.72,1.41,3.55.93.99,2.26,1.56,3.65,1.56Z"/>
          <path d="m548.42,481.84c-4.13,0-4.13,6.41,0,6.41s4.13-6.41,0-6.41Z"/>
          <path d="m541.47,470.58c1.35,0,2.62-.53,3.56-1.49.95-.95,1.49-2.27,1.49-3.62s-.59-2.78-1.56-3.63c-.93-.89-2.22-1.4-3.55-1.4s-2.61.51-3.49,1.39c-1,.98-1.57,2.31-1.57,3.64s.54,2.67,1.48,3.61c.94.96,2.27,1.5,3.64,1.5Z"/>
          <path d="m528.62,451.87c1.3,0,2.63-.56,3.56-1.49.95-.95,1.49-2.27,1.49-3.62s-.53-2.62-1.49-3.57c-.93-.93-2.25-1.46-3.62-1.46s-2.73.55-3.56,1.44c-.97.95-1.5,2.23-1.5,3.58s.55,2.7,1.46,3.54c.95,1.03,2.22,1.57,3.66,1.57Z"/>
          <path d="m550.34,444.71c4.13,0,4.13-6.41,0-6.41s-4.13,6.41,0,6.41Z"/>
          <path d="m596.42,508c1.36,0,2.68-.54,3.62-1.49.92-.92,1.43-2.21,1.43-3.62s-.51-2.67-1.5-3.64c-.95-.88-2.21-1.36-3.56-1.36s-2.74.55-3.56,1.43c-.96.96-1.49,2.23-1.49,3.57s.51,2.61,1.34,3.48c.93,1.04,2.29,1.63,3.71,1.63Z"/>
          <path d="m603.46,551.63c-1.35,0-2.59.5-3.62,1.46-.34.34-.6.73-.83,1.15,2.35.71,4.7,1.42,7.05,2.13.81.24,1.61.49,2.42.73,0-.13.04-.25.04-.38,0-1.36-.54-2.67-1.49-3.62-.94-.95-2.21-1.47-3.58-1.47Z"/>
          <path d="m546.15,510.78c-1.49,0-2.82.59-3.74,1.67-.78.91-1.22,2.11-1.22,3.36,0,2.87,2.13,5.04,4.96,5.04s4.96-2.17,4.96-5.04c0-1.26-.43-2.45-1.22-3.36-.93-1.08-2.26-1.67-3.74-1.67Z"/>
          <path d="m534.41,504.2c.96.93,2.2,1.44,3.5,1.44,1.39,0,2.65-.52,3.62-1.48.97-.96,1.51-2.23,1.51-3.58s-.55-2.68-1.56-3.69c-.96-.9-2.22-1.4-3.53-1.4s-2.57.5-3.6,1.46c-.95.94-1.49,2.27-1.49,3.62s.59,2.77,1.55,3.62Z"/>
          <path d="m653.74,468.22c1.35,0,2.61-.53,3.55-1.48.97-.96,1.51-2.23,1.51-3.58s-.54-2.68-1.49-3.62c-.93-.93-2.24-1.47-3.6-1.47s-2.67.53-3.59,1.46c-.95.95-1.5,2.27-1.5,3.63s.53,2.61,1.48,3.55c.95.96,2.27,1.51,3.64,1.51Z"/>
          <path d="m659.2,479.93c4.13,0,4.13-6.41,0-6.41s-4.13,6.41,0,6.41Z"/>
          <path d="m662.83,535.63l.12.14.13.12c1.02.9,2.23,1.37,3.5,1.37,1.33,0,2.6-.53,3.58-1.51.94-.95,1.47-2.27,1.47-3.61,0-1.26-.47-2.52-1.29-3.48l-.13-.14-.08-.07c-.96-.9-2.24-1.4-3.59-1.4s-2.66.52-3.59,1.45c-.93.92-1.44,2.21-1.44,3.64,0,1.33.44,2.51,1.3,3.49Z"/>
          <path d="m636.92,523.82c0,1.26.43,2.45,1.22,3.36.93,1.08,2.26,1.67,3.74,1.67,2.83,0,4.96-2.17,4.96-5.04,0-1.26-.43-2.45-1.22-3.36-.93-1.08-2.26-1.67-3.74-1.67-2.83,0-4.96,2.17-4.96,5.04Z"/>
          <path d="m712.31,448.5c2.83,0,4.96-2.17,4.96-5.04,0-1.26-.43-2.45-1.22-3.36-.93-1.08-2.26-1.67-3.74-1.67-2.83,0-4.96,2.17-4.96,5.04,0,1.26.43,2.45,1.22,3.36.93,1.08,2.26,1.67,3.74,1.67Z"/>
          <path d="m670.08,451.87c1.4,0,2.71-.55,3.55-1.47,1-.93,1.57-2.26,1.57-3.64s-.59-2.77-1.56-3.63c-.93-.89-2.23-1.4-3.59-1.4s-2.64.51-3.53,1.39c-.96.94-1.51,2.27-1.51,3.64s.54,2.67,1.48,3.61c.95.97,2.23,1.5,3.58,1.5Z"/>
          <path d="m679.05,522.19c4.13,0,4.13-6.41,0-6.41s-4.13,6.41,0,6.41Z"/>
          <path d="m670.08,502.14c1.39,0,2.7-.55,3.54-1.47,1.03-.95,1.58-2.22,1.58-3.66,0-1.34-.53-2.6-1.49-3.56-.93-.93-2.24-1.46-3.62-1.46s-2.65.52-3.52,1.41c-.97.89-1.55,2.24-1.55,3.62,0,1.46.57,2.82,1.55,3.68.95.93,2.2,1.44,3.51,1.44Z"/>
          <path d="m636.79,478.65c4.13,0,4.13-6.41,0-6.41s-4.13,6.41,0,6.41Z"/>
          <path d="m506.18,497.01c.89,1.04,2.22,1.64,3.66,1.64s2.66-.51,3.63-1.49c.95-.95,1.49-2.27,1.49-3.63s-.53-2.62-1.43-3.5c-.92-.98-2.25-1.55-3.65-1.55s-2.75.56-3.59,1.47c-.97.95-1.5,2.23-1.5,3.58s.53,2.64,1.39,3.47Z"/>
          <path d="m633.55,445.61c2.83,0,4.96-2.17,4.96-5.04,0-1.26-.43-2.45-1.22-3.36-.93-1.08-2.26-1.67-3.74-1.67-2.83,0-4.96,2.17-4.96,5.04,0,1.26.43,2.45,1.22,3.36.93,1.08,2.26,1.67,3.74,1.67Z"/>
          <path d="m623.3,468.22c1.36,0,2.68-.54,3.61-1.49.94-.93,1.51-2.27,1.51-3.58s-.54-2.67-1.49-3.62c-.93-.93-2.24-1.47-3.6-1.47s-2.67.53-3.59,1.46c-.95.95-1.49,2.27-1.49,3.62s.53,2.61,1.48,3.55c.96.97,2.23,1.51,3.58,1.51Z"/>
          <path d="m617.43,527.9c1.36,0,2.68-.54,3.63-1.49.95-.95,1.49-2.27,1.49-3.62s-.54-2.69-1.49-3.62c-.93-.93-2.24-1.47-3.6-1.47s-2.67.53-3.58,1.45c-.95.94-1.5,2.27-1.5,3.64s.54,2.68,1.49,3.62c.94.94,2.27,1.49,3.56,1.49Z"/>
          <path class="cls-2" d="m765.06,668.04c9.62-1.86,20.44-1.93,30.16-.22l26.33,14.69v21.6c-15.31-8.46-35.11-13.11-55.81-13.11-.23,0-.46,0-.69,0v-22.96Z"/>
          <path class="cls-4" d="m913.73,699.82c-2.02,3.63-5.86,5.88-10.02,5.88-1.96,0-3.83-.49-5.56-1.45l-96.38-53.75c-9.6-5.35-22.81-8.03-36.03-8.03s-26.43,2.68-36.02,8.03l-54.78,30.55c-26.02,14.51-68.34,14.51-94.36,0l-54.77-30.55c-19.19-10.7-52.86-10.7-72.05,0l-54.77,30.55c-26.01,14.51-68.34,14.51-94.36,0l-96.37-53.75c-2.67-1.49-4.6-3.93-5.44-6.87-.83-2.94-.47-6.03,1.01-8.7,1.49-2.67,3.93-4.6,6.87-5.44,2.94-.84,6.03-.48,8.71,1.02l96.37,53.75c19.19,10.7,52.86,10.7,72.05,0l54.78-30.55c26.01-14.51,68.34-14.51,94.36,0l54.77,30.55c19.19,10.7,52.86,10.7,72.05,0l54.78-30.55c26.01-14.51,68.34-14.51,94.36,0l96.38,53.75c5.51,3.08,7.5,10.06,4.42,15.58Z"/>
          <path class="cls-2" d="m765.06,578.27c9.62-1.86,20.44-1.93,30.16-.22l26.33,14.69v21.6c-15.31-8.46-35.11-13.11-55.81-13.11-.23,0-.46,0-.69,0v-22.96Z"/>
          <path class="cls-4" d="m913.73,610.05c-2.02,3.63-5.86,5.88-10.02,5.88-1.96,0-3.83-.49-5.56-1.45l-96.38-53.75c-9.6-5.35-22.81-8.03-36.02-8.03s-26.43,2.68-36.03,8.03l-54.78,30.55c-26.01,14.5-68.34,14.5-94.36,0l-54.77-30.55c-19.19-10.7-52.86-10.7-72.05,0l-54.77,30.55c-26.01,14.51-68.34,14.51-94.36,0l-96.37-53.75c-2.67-1.49-4.6-3.93-5.44-6.87-.83-2.94-.47-6.03,1.01-8.7,1.49-2.67,3.93-4.6,6.87-5.44,2.94-.84,6.03-.47,8.71,1.02l96.37,53.75c19.19,10.7,52.86,10.7,72.05,0l54.77-30.54c26.02-14.51,68.35-14.51,94.36,0l54.77,30.55c19.19,10.7,52.86,10.7,72.05,0l54.78-30.55c26.01-14.51,68.34-14.51,94.36,0l96.38,53.75c5.51,3.08,7.5,10.06,4.42,15.58Z"/>
          <polygon class="cls-3" points="639.22 394.89 639.22 311.82 736.23 311.82 736.23 213.66 639.22 213.66 639.22 116.22 541.06 116.22 541.06 214.37 638.08 214.37 638.08 311.1 541.06 311.1 541.06 394.89 442.29 394.89 442.29 311.25 539.3 311.25 539.3 213.09 442.29 213.09 442.29 115.65 344.13 115.65 344.13 212.74 247.12 212.74 247.12 115.53 737.51 115.53 737.51 394.89 639.22 394.89"/>
          <rect class="cls-3" x="247.12" y="310.89" width="97.01" height="83.99"/>
          <polygon class="cls-3" points="148.25 115.53 148.97 115.53 148.97 213.45 245.98 213.45 245.98 310.18 148.97 310.18 148.97 394.89 148.25 394.89 148.25 115.53"/>
          <rect class="cls-3" x="344.13" y="213.81" width="97.01" height="96.73"/>
          <path class="cls-2" d="m821.56,158.86v365.71c-15.31-8.46-35.11-13.11-55.81-13.11-.23,0-.46,0-.69,0v-88.97h.07V158.86h56.43Z"/>
          <path class="cls-1" d="m167.99,422.5c.2.33.43.65.71.92.97.98,2.33,1.57,3.64,1.57,1.22,0,2.4-.47,3.45-1.39l.11-.1c.3-.3.54-.64.75-1h9.52c-.37.21-.72.44-1.01.74-.98.9-1.55,2.24-1.55,3.68,0,1.35.53,2.61,1.48,3.55.93.94,2.27,1.51,3.58,1.51s2.49-.48,3.53-1.4l.08-.08c.94-.93,1.51-2.27,1.51-3.58,0-1.4-.52-2.65-1.49-3.63-.32-.32-.7-.57-1.09-.79h174.37c.89,1.22,2.31,1.99,3.98,1.99s3.09-.77,3.98-1.99h85.51c.22.03.43.07.65.07.24,0,.46-.04.68-.07h18.09c.91.84,2.06,1.3,3.35,1.3,1.21,0,2.43-.49,3.34-1.3h12.14c-.19.54-.31,1.13-.31,1.75,0,1.26.43,2.45,1.22,3.36.93,1.08,2.26,1.67,3.74,1.67,2.83,0,4.96-2.17,4.96-5.04,0-.61-.11-1.2-.3-1.75h26.89c.04,1.19.45,2.32,1.2,3.2.93,1.08,2.26,1.67,3.74,1.67,2.77,0,4.86-2.08,4.94-4.87h31.53c.18.83.54,1.6,1.08,2.24.93,1.08,2.26,1.67,3.74,1.67,2.44,0,4.36-1.62,4.84-3.91h41.4c.2.33.43.65.71.92.97.98,2.33,1.57,3.64,1.57,1.22,0,2.4-.47,3.45-1.39l.11-.1c.3-.3.54-.64.75-1h9.52c-.37.21-.72.44-1.01.74-.98.9-1.55,2.24-1.55,3.68,0,1.35.53,2.61,1.48,3.55.93.94,2.27,1.51,3.58,1.51s2.49-.48,3.53-1.4l.08-.08c.94-.93,1.51-2.27,1.51-3.58,0-1.4-.52-2.65-1.49-3.63-.32-.32-.7-.57-1.09-.79h88.36v46.14c-1.22.08-2.36.57-3.15,1.38-1.05.96-1.6,2.23-1.6,3.68s.59,2.77,1.55,3.62c.85.83,2.01,1.32,3.21,1.4v35.73c-10.24,2.24-19.74,5.7-27.93,10.27l-22.41,12.5c-.13-1.48-1.15-2.87-3.07-2.87-3.28,0-3.95,4.04-2.01,5.71l-21.2,11.82c-.23-.85-.67-1.66-1.3-2.28-.93-.93-2.24-1.46-3.59-1.46s-2.67.53-3.59,1.46c-.96.96-1.49,2.23-1.49,3.56s.46,2.48,1.3,3.4c-5.44,2.41-12.37,3.84-19.58,4.28.02-.17.05-.34.05-.52,0-1.26-.43-2.45-1.22-3.36-.93-1.08-2.26-1.67-3.74-1.67-2.83,0-4.96,2.17-4.96,5.04,0,.18.03.35.04.52-8.42-.52-16.48-2.37-22.21-5.57l-54.77-30.55c-7.32-4.08-15.68-7.27-24.68-9.51-.39-1.11-1.36-2-2.89-2-.93,0-1.64.34-2.16.85-8.42-1.71-17.31-2.61-26.38-2.61-2.03,0-4.05.06-6.07.15.17-.13.34-.25.49-.41.95-.95,1.5-2.27,1.5-3.63,0-1.83-.84-2.98-1.51-3.59-.91-.93-2.21-1.46-3.57-1.46s-2.75.56-3.59,1.47c-.97.96-1.51,2.23-1.51,3.58s.55,2.69,1.47,3.54c.32.34.69.61,1.09.85-9.76.84-19.14,2.73-27.76,5.57-.07-1.54-1.09-3.03-3.08-3.03-2.91,0-3.76,3.19-2.56,5.07-3.86,1.52-7.55,3.24-11,5.16l-24.05,13.41c-.69-.33-1.46-.52-2.25-.52-1.35,0-2.62.5-3.48,1.38-.91.79-1.44,1.94-1.56,3.21l-23.44,13.07c-12.65,7.06-36.58,7.58-50.92,1.58.45-.77.72-1.63.72-2.5,0-1.3-.55-2.58-1.49-3.5-.93-.99-2.26-1.55-3.67-1.55s-2.62.51-3.46,1.37c-.45.41-.79.9-1.06,1.43l-41.38-23.08c1.26-.02,2.45-.51,3.33-1.35,1.07-.87,1.71-2.26,1.71-3.71,0-1.37-.54-2.68-1.55-3.68-.95-.89-2.21-1.38-3.57-1.38s-2.74.55-3.56,1.44c-.95.95-1.49,2.27-1.49,3.62,0,.91.26,1.81.7,2.58l-44.87-25.02c-3.53-1.97-7.34-3.17-11.24-3.6.05-.29.09-.59.09-.9,0-1.34-.53-2.6-1.49-3.56-.93-.93-2.24-1.46-3.62-1.46s-2.65.52-3.52,1.41c-.97.89-1.55,2.24-1.55,3.62,0,.52.09,1.01.23,1.48-.51.12-1.03.25-1.54.39-3.92,1.11-7.5,2.98-10.58,5.47-.39-1.13-1.35-2.03-2.9-2.03-3.64,0-4.07,4.99-1.28,6.16-1.16,1.4-2.2,2.91-3.11,4.53-1.07,1.92-1.91,3.92-2.53,5.98-.46-.13-.94-.23-1.44-.23-2.83,0-4.96,2.17-4.96,5.04,0,1.26.43,2.45,1.22,3.36.93,1.08,2.26,1.67,3.74,1.67.08,0,.15-.02.22-.02.1,2.28.47,4.57,1.11,6.82,1.59,5.61,4.72,10.51,9.01,14.25-.78.92-1.23,2.05-1.23,3.24,0,1.41.51,2.67,1.48,3.62.93.94,2.27,1.51,3.58,1.51s2.69-.54,3.61-1.48c.42-.41.74-.9.99-1.43l85.09,47.45c-.03.22-.07.45-.07.67,0,1.29.56,2.63,1.49,3.56.95.95,2.28,1.5,3.63,1.5,1.17,0,2.27-.43,3.16-1.16,7.1,3.93,15.18,7.03,23.86,9.24,12.48,5.91,27.39,9.13,42.54,9.66.16.23.33.45.53.65.96.97,2.23,1.51,3.58,1.51s2.69-.54,3.61-1.48c.2-.2.37-.42.53-.64,4.59-.14,9.17-.52,13.66-1.15.76,1.75,2.45,2.93,4.52,2.93,2.69,0,4.74-1.98,4.92-4.65,8.95-2.02,17.39-5.08,24.76-9.19l7.83-4.37c.24,1.36,1.25,2.57,3.04,2.57,3.15,0,3.89-3.74,2.22-5.5l41.68-23.25c2.07-1.16,4.36-2.17,6.8-3.03.21.57.51,1.1.9,1.56.93,1.08,2.26,1.67,3.74,1.67,2.83,0,4.96-2.17,4.96-5.04,0-.24-.03-.47-.06-.7,9.5-1.77,20.13-1.81,29.69-.13l52.4,29.22c7.15,3.99,15.31,7.13,24.08,9.36,16.5,7.82,37.28,10.94,57.2,9.34-.77.91-1.21,2.03-1.21,3.22,0,1.36.54,2.68,1.48,3.61.94.95,2.27,1.5,3.64,1.5s2.62-.53,3.56-1.49c.95-.95,1.5-2.27,1.5-3.63s-.53-2.62-1.49-3.57c-.15-.15-.33-.28-.5-.41,12.55-1.73,24.5-5.37,34.49-10.94l8.11-4.52c-.04.24-.07.48-.07.73,0,1.36.54,2.67,1.48,3.61.95.97,2.22,1.5,3.58,1.5.07,0,.13-.02.2-.02l-52.83,29.46c-1.39.77-2.91,1.46-4.54,2.08-.23-.05-.48-.08-.74-.08-1.1,0-1.9.46-2.41,1.13-7.97,2.36-17.8,3.1-26.95,2.23.01-.15.03-.29.03-.45,0-1.26-.43-2.45-1.22-3.36-.93-1.08-2.26-1.67-3.74-1.67-2.41,0-4.31,1.59-4.82,3.84-3.67-.92-7.03-2.16-9.82-3.72l-38.12-21.26c-.26-.65-.65-1.23-1.13-1.67-.92-.93-2.24-1.47-3.62-1.47-.25,0-.5.04-.75.07l-11.15-6.22c-13.16-7.34-29.7-11.84-47.28-12.98,1.24-.11,2.42-.64,3.19-1.51.95-.99,1.49-2.28,1.49-3.56,0-1.35-.53-2.62-1.5-3.58-.94-.94-2.22-1.45-3.6-1.45s-2.67.53-3.53,1.4c-1.04.94-1.61,2.23-1.61,3.63,0,1.26.54,2.57,1.41,3.48.68.75,1.58,1.26,2.56,1.49-2.4-.13-4.81-.2-7.24-.2-7.8,0-15.47.66-22.83,1.94-.08-1.24-.59-2.42-1.45-3.29-.92-.93-2.2-1.44-3.59-1.44s-2.69.52-3.61,1.44c-.95.95-1.49,2.27-1.49,3.62,0,.63.13,1.23.34,1.79-8.54,2.22-16.49,5.31-23.47,9.21l-54.77,30.55c-13.68,7.63-40.52,7.63-54.2,0l-96.37-53.75c-6.95-3.87-14.99-4.81-22.63-2.64-7.65,2.17-13.99,7.19-17.87,14.14-3.87,6.94-4.81,14.98-2.64,22.63,2.17,7.65,7.19,14,14.14,17.87l10.54,5.88c-.35.7-.56,1.46-.56,2.22,0,1.37.55,2.7,1.53,3.67l.09.08c1.02.9,2.23,1.37,3.5,1.37,1.4,0,2.76-.59,3.62-1.55.25-.26.47-.55.66-.86l67.9,37.87c.17,1.1.69,2.13,1.46,2.83.99.97,2.24,1.51,3.52,1.51.67,0,1.36-.16,2.01-.44l2.11,1.18c4.83,2.69,10.11,5,15.73,6.91,0,0-.01.01-.02.02-.95.95-1.49,2.27-1.49,3.63s.51,2.56,1.41,3.48c.88.99,2.24,1.58,3.65,1.58s2.69-.54,3.61-1.48c.94-.93,1.51-2.27,1.51-3.58,0-.38-.05-.74-.13-1.11,3.88,1.83,7.99,3.4,12.27,4.7-.07.35-.11.71-.11,1.08,0,1.35.53,2.62,1.49,3.56.98.98,2.23,1.49,3.63,1.49s2.6-.53,3.55-1.48c.6-.59,1.02-1.36,1.27-2.17,25.75,5.28,55.38,2.07,76.38-9.64l12.87-7.18c.9.86,2.08,1.36,3.41,1.36,2.83,0,4.96-2.17,4.96-5.04,0-.32-.04-.63-.09-.94l33.62-18.75c11.74-6.55,30.33-8.44,46.04-5.68l23.66,13.2c-3.74.38-3.63,6.38.37,6.38,2.68,0,3.61-2.71,2.8-4.61l15.26,8.51c0,1.24.44,2.42,1.21,3.33.93,1.08,2.26,1.67,3.74,1.67,1,0,1.9-.28,2.66-.75l2.69,1.5c7.15,3.99,15.31,7.13,24.08,9.36,25.83,12.24,62.15,12.94,89.19,2.11,0,.07-.02.13-.02.2,0,1.47.55,2.78,1.54,3.67.95.93,2.2,1.44,3.52,1.44s2.48-.47,3.49-1.36l.15-.13.14-.16c.81-.96,1.27-2.22,1.27-3.46s-.46-2.45-1.29-3.42l-.1-.12-.11-.11c-.14-.13-.29-.23-.44-.34.44-.23.89-.46,1.32-.7l11.86-6.61s.03,0,.05,0c1.35,0,2.67-.54,3.62-1.48.3-.3.55-.64.76-.99l7.34-4.09c.26.58.61,1.13,1.06,1.58.95.95,2.27,1.49,3.63,1.49s2.76-.59,3.62-1.55c.97-.99,1.5-2.24,1.5-3.51,0-1.05-.34-2.03-.97-2.95l10.7-5.97v14.02c-10.24,2.24-19.74,5.7-27.93,10.27l-54.78,30.55c-13.67,7.63-40.52,7.63-54.2,0l-7.18-4.01c-.44-1.02-1.36-1.8-2.8-1.8-.13,0-.24.02-.36.04l-44.43-24.78c-2.88-1.6-5.91-3.07-9.09-4.4-.25-.65-.63-1.26-1.13-1.75-.92-.93-2.2-1.45-3.59-1.45-.83,0-1.62.21-2.33.56-12.15-4.06-25.85-6.24-39.97-6.24-20.83,0-40.76,4.71-56.1,13.27l-54.78,30.55c-13.68,7.63-40.53,7.63-54.2,0l-23.33-13.01c-.18-.82-.54-1.58-1.08-2.21-.93-1.08-2.26-1.67-3.74-1.67-.58,0-1.12.11-1.63.28l-14.59-8.14c.02-.19.05-.37.05-.56,0-1.26-.43-2.45-1.22-3.36-.93-1.08-2.26-1.67-3.74-1.67-1.22,0-2.29.42-3.14,1.11l-19.48-10.86c.38-.72.61-1.51.61-2.34,0-1.36-.54-2.67-1.49-3.62-.93-.93-2.24-1.47-3.6-1.47s-2.67.53-3.6,1.46c-.31.31-.55.66-.77,1.04l-15.63-8.72c-6.95-3.87-14.99-4.81-22.63-2.64-7.65,2.17-13.99,7.19-17.87,14.14-8,14.34-2.84,32.51,11.5,40.5l96.37,53.75c3.46,1.93,7.15,3.65,11.03,5.17-.45.23-.86.51-1.19.86-.94.95-1.49,2.27-1.49,3.63s.56,2.65,1.49,3.56c.93.93,2.27,1.49,3.56,1.49s2.48-.47,3.52-1.39l.1-.09c.94-.93,1.5-2.27,1.5-3.58,0-.69-.14-1.36-.4-1.99,1.95.61,3.93,1.17,5.95,1.68,14.5,6.87,32.31,10.11,49.94,9.71.21.84.63,1.62,1.24,2.25.89.99,2.25,1.58,3.64,1.58s2.65-.52,3.62-1.48c.82-.81,1.31-1.85,1.45-2.96,6.21-.63,12.32-1.72,18.15-3.28-1.28,1.87-.46,5.15,2.5,5.15,3.69,0,4.08-5.12,1.15-6.2,5.74-1.76,11.16-3.98,16.13-6.67-.33.69-.52,1.44-.52,2.22,0,1.2.48,2.47,1.31,3.43l.12.13c.95.95,2.27,1.49,3.63,1.49s2.69-.54,3.61-1.48c.94-.93,1.51-2.27,1.51-3.58s-.54-2.68-1.49-3.63c-.81-.81-1.9-1.28-3.09-1.39l32.13-17.92c.22.64.55,1.25,1.02,1.8l.12.13c.95.95,2.28,1.5,3.63,1.5s2.68-.54,3.61-1.49c.97-.96,1.51-2.23,1.51-3.58,0-1.22-.41-2.32-1.16-3.22l9.7-5.41c11.74-6.55,30.33-8.44,46.04-5.68l52.4,29.22c7.15,3.99,15.31,7.13,24.08,9.36,5.23,2.48,10.89,4.49,16.82,6.02-.11.41-.18.83-.18,1.27,0,1.36.54,2.68,1.49,3.62.93.93,2.27,1.49,3.56,1.49s2.68-.54,3.63-1.49c.76-.76,1.24-1.75,1.41-2.81,22.61,3.72,47.59,1.09,66.85-7.89.01.01.02.03.03.04.93,1.08,2.26,1.67,3.74,1.67,2.83,0,4.96-2.17,4.96-5.04,0-.42-.06-.82-.16-1.21l39.67-22.12v5.31c-1.2.08-2.35.54-3.2,1.34l-.07.06-.12.13c-.9,1.02-1.37,2.23-1.37,3.5,0,1.39.59,2.75,1.54,3.61.87.86,2.05,1.37,3.22,1.47v30.08h-66.57c.39-.74.63-1.57.63-2.41,0-1.34-.53-2.67-1.43-3.56-.96-.96-2.26-1.49-3.64-1.49s-2.65.52-3.55,1.43c-.95.94-1.49,2.27-1.49,3.62,0,.84.24,1.67.62,2.41h-76.82c.66-.25,1.27-.63,1.78-1.14.94-.93,1.51-2.27,1.51-3.58,0-1.47-.56-2.79-1.55-3.68-.91-.88-2.2-1.38-3.54-1.38s-2.7.53-3.51,1.41c-1.03.96-1.57,2.22-1.57,3.65,0,1.36.55,2.65,1.47,3.48.53.57,1.16.98,1.86,1.24h-47.26c.93-.95,1.46-2.26,1.46-3.6,0-1.24-.46-2.45-1.33-3.47l-.1-.11c-.94-.94-2.27-1.47-3.63-1.47s-2.69.55-3.53,1.45c-1.02.94-1.58,2.22-1.58,3.6,0,1.26.53,2.56,1.41,3.48.04.04.09.07.13.11h-85.21c.93-.95,1.47-2.25,1.47-3.6,0-1.85-.86-3-1.55-3.63-.92-.89-2.17-1.38-3.52-1.38s-2.69.52-3.59,1.42c-.97.96-1.51,2.23-1.51,3.58,0,1.26.54,2.57,1.41,3.48.04.04.09.07.13.12h-90.13c.68-.25,1.29-.63,1.75-1.13,1.02-.94,1.58-2.21,1.58-3.59s-.55-2.68-1.56-3.69c-.94-.88-2.21-1.37-3.56-1.37s-2.74.54-3.56,1.43c-.95.95-1.49,2.27-1.49,3.63,0,1.24.46,2.45,1.33,3.46l.1.1c.52.52,1.16.9,1.85,1.16h-27.03s0-.03,0-.04c0-1.4-.52-2.65-1.49-3.63-.91-.91-2.23-1.43-3.6-1.43s-2.76.54-3.59,1.43c-.97.97-1.49,2.23-1.49,3.63,0,.02,0,.03,0,.04h-91.07c.39-.74.63-1.57.63-2.41,0-1.34-.53-2.67-1.43-3.56-.96-.96-2.26-1.49-3.64-1.49s-2.65.52-3.55,1.43c-.95.94-1.49,2.27-1.49,3.62,0,.84.24,1.67.62,2.41h-55.97v-87.44c.25.04.51.08.77.08,1.35,0,2.62-.53,3.56-1.49.99-.99,1.5-2.21,1.5-3.63s-.53-2.62-1.49-3.57c-.93-.93-2.24-1.46-3.59-1.46-.25,0-.49.04-.74.07v-38.72c.3-.19.58-.41.83-.66.96-.94,1.51-2.27,1.51-3.64,0-1.3-.56-2.63-1.49-3.56-.26-.26-.54-.47-.84-.67v-78.25c.86.66,1.9,1.03,3.08,1.03,1.43,0,2.72-.51,3.62-1.43.95-.95,1.49-2.27,1.49-3.62,0-1.27-.47-2.48-1.43-3.56l-.13-.12c-.94-.88-2.19-1.37-3.51-1.37-1.16,0-2.24.4-3.13,1.09v-23.35c.29-.19.57-.41.83-.67.97-.96,1.51-2.23,1.51-3.58s-.54-2.67-1.49-3.62c-.26-.26-.54-.48-.85-.67v-59.91c.16,1.45,1.18,2.79,3.06,2.79,4.13,0,4.13-6.41,0-6.41-1.88,0-2.9,1.34-3.06,2.79v-11.42c.3-.2.58-.42.84-.68.96-.96,1.49-2.23,1.49-3.56s-.55-2.69-1.56-3.69c-.24-.23-.5-.42-.78-.6v-24.2c.25-.16.49-.33.72-.52l.12-.12c.95-.95,1.49-2.27,1.49-3.62s-.54-2.69-1.49-3.62c-.26-.26-.55-.48-.85-.68v-16.47h19.81Z"/>
          <path class="cls-2" d="m223,842.71h542.06v-84.9c9.62-1.86,20.44-1.93,30.16-.22l26.33,14.69v95.52H223v-25.08Z"/>
          <path class="cls-4" d="m913.73,789.59c-2.02,3.63-5.86,5.88-10.02,5.88-1.96,0-3.83-.49-5.56-1.45l-96.38-53.75c-9.6-5.35-22.81-8.03-36.03-8.03s-26.43,2.68-36.02,8.03l-54.78,30.55c-26.02,14.5-68.34,14.5-94.36,0l-54.77-30.55c-19.19-10.7-52.86-10.7-72.05,0l-54.77,30.55c-26.01,14.51-68.34,14.51-94.36,0l-96.37-53.75c-2.67-1.49-4.6-3.93-5.44-6.87-.83-2.94-.47-6.03,1.01-8.7,1.49-2.67,3.93-4.6,6.87-5.44,2.94-.84,6.04-.48,8.71,1.01l96.37,53.75c19.19,10.7,52.86,10.7,72.05,0l54.78-30.54c26.01-14.51,68.34-14.51,94.36,0l54.77,30.55c19.19,10.7,52.86,10.7,72.05,0l54.78-30.55c26.01-14.5,68.34-14.51,94.36,0l96.38,53.75c5.51,3.08,7.5,10.06,4.42,15.58Z"/>
        </g>
        <path d="m181.67,683.79c1.35,0,2.66.53,3.59,1.46.98.97,1.49,2.23,1.49,3.63s-.59,2.77-1.58,3.64c-.92.9-2.17,1.41-3.48,1.41s-2.7-.55-3.64-1.51c-.92-.9-1.48-2.23-1.48-3.55,0-1.39.6-2.77,1.61-3.69.86-.88,2.15-1.4,3.49-1.4Zm-23.38,59.3c-4.13,0-4.13,6.41,0,6.41s4.13-6.41,0-6.41Zm19.9-25.15c-1.01.92-1.61,2.3-1.61,3.69,0,1.31.56,2.64,1.48,3.55.94.96,2.27,1.51,3.64,1.51s2.56-.51,3.48-1.41c.99-.88,1.58-2.24,1.58-3.64s-.52-2.66-1.49-3.63c-.93-.93-2.23-1.46-3.59-1.46s-2.62.52-3.49,1.4Zm46.73-40.35c1.21,0,2.48-.49,3.48-1.36l.15-.13.13-.14c.9-1.02,1.37-2.23,1.37-3.49s-.47-2.47-1.39-3.51l-.1-.1c-.93-.93-2.24-1.47-3.6-1.47s-2.67.53-3.62,1.49l-.1.11c-.89,1.02-1.37,2.22-1.37,3.49,0,1.34.53,2.6,1.49,3.56.97.98,2.31,1.56,3.57,1.56Zm-67.62-22.6c2.83,0,4.96-2.17,4.96-5.04,0-1.26-.43-2.45-1.22-3.36-.93-1.08-2.26-1.67-3.74-1.67-2.83,0-4.96,2.17-4.96,5.04,0,1.26.43,2.45,1.22,3.36.93,1.08,2.26,1.67,3.74,1.67Zm10.36-35.91c1.35,0,2.61-.53,3.55-1.48.95-.93,1.51-2.27,1.51-3.58,0-1.46-.58-2.81-1.55-3.69-.92-.89-2.16-1.38-3.49-1.38s-2.6.5-3.49,1.35c-1.03.92-1.64,2.31-1.64,3.72s.53,2.61,1.48,3.55c.94.96,2.27,1.51,3.64,1.51Zm-8.09,6.82c-4.13,0-4.13,6.41,0,6.41s4.13-6.41,0-6.41Zm12.77,16.57c1.35,0,2.61-.53,3.55-1.48.95-.93,1.51-2.27,1.51-3.58s-.54-2.68-1.49-3.63c-.93-.93-2.24-1.46-3.6-1.46s-2.67.53-3.59,1.46c-.98.98-1.49,2.23-1.49,3.63s.53,2.61,1.48,3.55c.94.96,2.27,1.51,3.64,1.51Zm4.17,112.41c2.83,0,4.96-2.17,4.96-5.04,0-1.26-.43-2.45-1.22-3.36-.93-1.08-2.26-1.67-3.74-1.67-2.83,0-4.96,2.17-4.96,5.04s2.13,5.04,4.96,5.04Zm120.73-322.98c4.13,0,4.13-6.41,0-6.41s-4.13,6.41,0,6.41Zm-28.52,178.91c2.83,0,4.96-2.17,4.96-5.04,0-1.26-.43-2.45-1.22-3.36-.93-1.08-2.26-1.67-3.74-1.67-2.83,0-4.96,2.17-4.96,5.04,0,1.26.43,2.45,1.22,3.36.93,1.08,2.26,1.67,3.74,1.67Zm48.37-144.34c-4.13,0-4.13,6.41,0,6.41s4.13-6.41,0-6.41Zm-5.76,45.47c4.13,0,4.13-6.41,0-6.41s-4.13,6.41,0,6.41Zm-13.12-24.21c0,1.31.56,2.64,1.48,3.55.94.96,2.27,1.51,3.64,1.51s2.57-.52,3.49-1.42c1-.9,1.57-2.22,1.57-3.63s-.54-2.68-1.49-3.63c-.93-.93-2.25-1.46-3.62-1.46s-2.74.56-3.57,1.46c-.95.95-1.49,2.27-1.49,3.63Zm19.15-30c1.31,0,2.58-.55,3.56-1.55.96-.96,1.49-2.23,1.49-3.56s-.58-2.74-1.51-3.59c-.92-.93-2.18-1.45-3.55-1.45s-2.66.51-3.54,1.4c-1,.98-1.57,2.31-1.57,3.64s.59,2.75,1.54,3.61c.96.94,2.3,1.51,3.58,1.51Zm-147.57,97.54c-2.83,0-4.96,2.17-4.96,5.04,0,1.26.43,2.45,1.22,3.36.93,1.08,2.26,1.67,3.74,1.67,2.83,0,4.96-2.17,4.96-5.04,0-1.26-.43-2.45-1.22-3.36-.93-1.08-2.26-1.67-3.74-1.67Zm14.21,37.81c.93.9,2.24,1.44,3.5,1.44,1.32,0,2.62-.52,3.54-1.41.99-.88,1.58-2.25,1.58-3.65s-.51-2.65-1.49-3.62c-.93-.93-2.19-1.44-3.56-1.44s-2.62.5-3.63,1.44c-.97.97-1.49,2.23-1.49,3.62s.59,2.77,1.55,3.62Zm7.59,60.37c4.13,0,4.13-6.41,0-6.41s-4.13,6.41,0,6.41Zm62.72-204.96c2.83,0,4.96-2.17,4.96-5.04,0-1.26-.43-2.45-1.22-3.36-.93-1.08-2.26-1.67-3.74-1.67-2.83,0-4.96,2.17-4.96,5.04,0,1.26.43,2.45,1.22,3.36.93,1.08,2.26,1.67,3.74,1.67Zm-9.58,137.73c4.13,0,4.13-6.41,0-6.41s-4.13,6.41,0,6.41Zm-41.33,87.99c2.83,0,4.96-2.17,4.96-5.04,0-1.26-.43-2.45-1.22-3.36-.93-1.08-2.26-1.67-3.74-1.67-2.83,0-4.96,2.17-4.96,5.04,0,1.26.43,2.45,1.22,3.36.93,1.08,2.26,1.67,3.74,1.67Zm-27.85-228.59c2.83,0,4.96-2.17,4.96-5.04,0-1.26-.43-2.45-1.22-3.36-.93-1.08-2.26-1.67-3.74-1.67-2.83,0-4.96,2.17-4.96,5.04,0,1.26.43,2.45,1.22,3.36.93,1.08,2.26,1.67,3.74,1.67Zm-15.21,251.41c0-1.26-.43-2.45-1.22-3.36-.93-1.08-2.26-1.67-3.74-1.67-2.83,0-4.96,2.17-4.96,5.04,0,1.26.43,2.45,1.22,3.36.93,1.08,2.26,1.67,3.74,1.67,2.83,0,4.96-2.17,4.96-5.04Zm11.19-109.86c-.21.43-.43.85-.64,1.28-.39.77-.56,1.61-.32,2.47.2.74.78,1.55,1.47,1.92.74.39,1.65.59,2.47.32.77-.25,1.54-.73,1.92-1.47.21-.43.43-.85.64-1.28.39-.77.56-1.61.32-2.47-.2-.74-.78-1.55-1.47-1.92-.74-.39-1.65-.59-2.47-.32-.77.25-1.54.73-1.92,1.47Zm7.84,72.08c-1.38,0-2.69.52-3.61,1.44-.98.98-1.49,2.23-1.49,3.62s.53,2.61,1.48,3.55c.96.98,2.23,1.51,3.58,1.51s2.68-.54,3.61-1.48c.94-.93,1.51-2.27,1.51-3.58s-.54-2.67-1.49-3.62c-.92-.93-2.2-1.45-3.59-1.45Zm69.2-197.88c4.13,0,4.13-6.41,0-6.41s-4.13,6.41,0,6.41Zm4.77,6.83c-2.83,0-4.96,2.17-4.96,5.04,0,1.26.43,2.45,1.22,3.36.93,1.08,2.26,1.67,3.74,1.67,2.83,0,4.96-2.17,4.96-5.04s-2.13-5.04-4.96-5.04Zm-24.88,23.77c-.78.91-1.22,2.11-1.22,3.36,0,2.87,2.13,5.04,4.96,5.04s4.96-2.17,4.96-5.04c0-1.26-.43-2.45-1.22-3.36-.93-1.08-2.26-1.67-3.74-1.67s-2.82.59-3.75,1.67Zm0-43.58c1.41,0,2.7-.58,3.62-1.61.93-.96,1.44-2.2,1.44-3.51s-.54-2.69-1.49-3.62c-.93-.93-2.24-1.47-3.6-1.47s-2.67.53-3.58,1.45c-.96.94-1.51,2.27-1.51,3.64s.54,2.67,1.48,3.61c.94.96,2.27,1.51,3.64,1.51Zm-1.25,25.18c-.98.98-1.49,2.23-1.49,3.63s.59,2.76,1.55,3.62c.93.9,2.24,1.44,3.51,1.44,1.34,0,2.61-.52,3.51-1.43,1.02-.88,1.61-2.2,1.61-3.63s-.54-2.67-1.49-3.62c-.93-.93-2.24-1.47-3.6-1.47s-2.67.53-3.59,1.46Zm484.13-5.37c-2.83,0-4.96,2.17-4.96,5.04,0,1.26.43,2.45,1.22,3.36.93,1.08,2.26,1.67,3.74,1.67,2.83,0,4.96-2.17,4.96-5.04s-2.13-5.04-4.96-5.04Zm-155.85,141.54c1.35,0,2.61-.53,3.55-1.48.99-.97,1.51-2.23,1.51-3.65,0-1.3-.56-2.63-1.49-3.56-.92-.93-2.2-1.43-3.58-1.43s-2.69.52-3.61,1.43c-.96.96-1.49,2.23-1.49,3.56s.56,2.71,1.48,3.61c.94.96,2.27,1.51,3.64,1.51Zm53.75-114.44c4.13,0,4.13-6.41,0-6.41s-4.13,6.41,0,6.41Zm-270.44,151.42c0-1.34-.53-2.6-1.49-3.56-.93-.93-2.24-1.46-3.6-1.46s-2.67.53-3.6,1.46c-.83.83-1.31,1.89-1.44,3.01,3.29.77,6.6,1.41,9.92,1.92.12-.44.2-.89.2-1.37Zm346.41-173.15c-.98.98-1.49,2.23-1.49,3.63s.59,2.76,1.55,3.62c.93.9,2.24,1.44,3.51,1.44,1.34,0,2.61-.52,3.51-1.43,1.02-.88,1.61-2.2,1.61-3.63s-.54-2.67-1.49-3.62c-.93-.93-2.24-1.47-3.6-1.47s-2.67.53-3.59,1.46Zm1.25-25.18c1.41,0,2.7-.58,3.62-1.61.93-.96,1.44-2.2,1.44-3.51s-.54-2.69-1.49-3.62c-.93-.93-2.24-1.47-3.6-1.47s-2.67.53-3.58,1.45c-.96.94-1.51,2.27-1.51,3.64s.54,2.67,1.48,3.61c.94.96,2.27,1.51,3.64,1.51Zm-507.7,30.27c4.13,0,4.13-6.41,0-6.41s-4.13,6.41,0,6.41Zm511.89,37.81c-.97.96-1.51,2.23-1.51,3.58,0,1.27.54,2.58,1.41,3.48.93,1.04,2.28,1.63,3.7,1.63,1.35,0,2.62-.53,3.56-1.49.99-.99,1.56-2.31,1.56-3.63,0-1.41-.58-2.71-1.61-3.63-.94-.9-2.23-1.42-3.54-1.42s-2.63.52-3.57,1.47Zm-40.44-7.72c4.13,0,4.13-6.41,0-6.41s-4.13,6.41,0,6.41Zm36.25-16.78c-.78.91-1.22,2.11-1.22,3.36,0,2.87,2.13,5.04,4.96,5.04s4.96-2.17,4.96-5.04c0-1.26-.43-2.45-1.22-3.36-.93-1.08-2.26-1.67-3.74-1.67s-2.82.59-3.75,1.67Zm-86.57,141.17c1.39,0,2.7-.55,3.54-1.47,1.03-.95,1.58-2.22,1.58-3.66,0-1.3-.56-2.63-1.49-3.56-.93-.93-2.24-1.46-3.59-1.46s-2.67.53-3.59,1.46c-.96.96-1.49,2.23-1.49,3.56,0,1.47.58,2.82,1.55,3.69.92.9,2.23,1.44,3.51,1.44Zm-17.26.74c2.83,0,4.96-2.17,4.96-5.04,0-1.26-.43-2.45-1.22-3.36-.93-1.08-2.26-1.67-3.74-1.67-2.83,0-4.96,2.17-4.96,5.04,0,1.26.43,2.45,1.22,3.36.93,1.08,2.26,1.67,3.74,1.67Zm-428.84,139.32c-4.13,0-4.13,6.41,0,6.41s4.13-6.41,0-6.41Zm9.25,26.65l-.07-.07c-.93-.87-2.22-1.37-3.53-1.37-1.4,0-2.72.55-3.6,1.49-.96.96-1.48,2.22-1.48,3.56s.54,2.68,1.49,3.62c.93.93,2.27,1.49,3.56,1.49s2.68-.54,3.63-1.49c.95-.95,1.49-2.27,1.49-3.63,0-1.26-.47-2.47-1.37-3.49l-.12-.13Zm1.63-75.96c-4.13,0-4.13,6.41,0,6.41s4.13-6.41,0-6.41Zm4.48-24.33c-4.13,0-4.13,6.41,0,6.41s4.13-6.41,0-6.41Zm28.17,71.08c-4.13,0-4.13,6.41,0,6.41s4.13-6.41,0-6.41Zm19.84,7.07c0-1.3-.56-2.63-1.49-3.56-.93-.93-2.24-1.46-3.59-1.46s-2.67.53-3.59,1.46c-.96.96-1.49,2.23-1.49,3.56,0,1.41.52,2.67,1.48,3.62.96.97,2.23,1.5,3.58,1.5s2.69-.54,3.61-1.48c.96-.94,1.51-2.27,1.51-3.64Zm-1.91,16.62c-4.13,0-4.13,6.41,0,6.41s4.13-6.41,0-6.41Zm15.51-31.39c1.34,0,2.61-.52,3.51-1.43.37-.32.67-.72.92-1.14-2.92-1.72-5.78-3.52-8.58-5.39-.59.85-.9,1.83-.9,2.91,0,1.4.59,2.77,1.55,3.62.93.9,2.24,1.44,3.51,1.44Zm-.65,30.15c0,1.26.43,2.45,1.22,3.36.93,1.08,2.26,1.67,3.74,1.67,2.83,0,4.96-2.17,4.96-5.04,0-1.26-.43-2.45-1.22-3.36-.93-1.08-2.26-1.67-3.74-1.67-2.83,0-4.96,2.17-4.96,5.04Zm18.17,21.31c1.39,0,2.65-.52,3.62-1.48.97-.96,1.51-2.23,1.51-3.58s-.54-2.67-1.49-3.62c-.93-.93-2.24-1.47-3.6-1.47s-2.67.53-3.6,1.46c-.95.94-1.49,2.27-1.49,3.62s.53,2.62,1.49,3.56c.97.97,2.23,1.5,3.56,1.5Zm3.12-45.09c.27,0,.53-.04.79-.08-1.72-.79-3.42-1.61-5.1-2.44.16.3.35.59.57.85.93,1.08,2.26,1.67,3.74,1.67Zm-68.19,24.5c-2.83,0-4.96,2.17-4.96,5.04,0,1.26.43,2.45,1.22,3.36.93,1.08,2.26,1.67,3.74,1.67,2.83,0,4.96-2.17,4.96-5.04,0-1.26-.43-2.45-1.22-3.36-.93-1.08-2.26-1.67-3.74-1.67Zm18.15-45.39c.78-.91,1.22-2.11,1.22-3.36,0-2.87-2.13-5.04-4.96-5.04s-4.96,2.17-4.96,5.04c0,1.26.43,2.45,1.22,3.36.93,1.08,2.26,1.67,3.74,1.67s2.82-.59,3.74-1.67Zm1.73,10.05c-4.13,0-4.13,6.41,0,6.41s4.13-6.41,0-6.41Zm-22.16,15.75c0-1.3-.58-2.65-1.57-3.64-.97-.9-2.25-1.4-3.6-1.4s-2.62.51-3.52,1.41c-.95.94-1.49,2.27-1.49,3.63,0,1.28.44,2.47,1.3,3.49l.13.13c.94.95,2.27,1.49,3.63,1.49s2.77-.59,3.63-1.55c.95-.99,1.49-2.28,1.49-3.56Zm382.64-341.35l.14.12c1.02.89,2.21,1.37,3.43,1.37,1.31,0,2.67-.58,3.62-1.55.96-.96,1.5-2.23,1.5-3.56s-.54-2.69-1.49-3.62c-.93-.93-2.24-1.47-3.6-1.47s-2.67.53-3.58,1.45c-.96.94-1.51,2.27-1.51,3.64,0,1.26.47,2.47,1.37,3.49l.12.14Zm3.39,38.74c-4.13,0-4.13,6.41,0,6.41s4.13-6.41,0-6.41Zm-.58-11.93c1.35,0,2.62-.53,3.56-1.49.95-.95,1.5-2.27,1.5-3.63s-.58-2.75-1.52-3.59c-.92-.93-2.18-1.44-3.55-1.44s-2.66.51-3.54,1.39c-.96.94-1.51,2.27-1.51,3.64,0,1.44.52,2.71,1.4,3.54.93,1,2.26,1.57,3.65,1.57Zm13.59,66.48c-.99.99-1.55,2.33-1.55,3.69s.55,2.65,1.47,3.48c.95,1.03,2.21,1.58,3.65,1.58,1.35,0,2.61-.53,3.55-1.48.95-.93,1.51-2.27,1.51-3.58,0-1.4-.52-2.66-1.49-3.63-.92-.92-2.24-1.44-3.63-1.44s-2.72.53-3.5,1.38Zm3-50.7c4.13,0,4.13-6.41,0-6.41s-4.13,6.41,0,6.41Zm-14.69,41.13c-1.41,0-2.73.56-3.58,1.51-.92.95-1.43,2.2-1.43,3.51s.51,2.6,1.34,3.48c.93,1.04,2.29,1.63,3.71,1.63s2.77-.59,3.63-1.55c.95-.99,1.49-2.28,1.49-3.56,0-1.35-.55-2.64-1.56-3.64-.95-.88-2.26-1.39-3.6-1.39Zm-122.91-54.38c.93,1.08,2.26,1.67,3.74,1.67,2.83,0,4.96-2.17,4.96-5.04,0-1.26-.43-2.45-1.22-3.36-.93-1.08-2.26-1.67-3.74-1.67-2.83,0-4.96,2.17-4.96,5.04,0,1.26.43,2.45,1.22,3.36Zm122.9,26.32c-1.4,0-2.74.55-3.57,1.45-.94.93-1.44,2.17-1.44,3.58s.51,2.72,1.41,3.55c.93.99,2.26,1.57,3.65,1.57s2.68-.54,3.65-1.51l.1-.11c.9-1.02,1.37-2.23,1.37-3.49,0-1.35-.55-2.64-1.57-3.64-.95-.88-2.26-1.39-3.6-1.39Zm-119.13-12.43c-4.13,0-4.13,6.41,0,6.41s4.13-6.41,0-6.41Zm130.6-17.02c2.83,0,4.96-2.17,4.96-5.04,0-1.26-.43-2.45-1.22-3.36-.93-1.08-2.26-1.67-3.74-1.67-2.83,0-4.96,2.17-4.96,5.04,0,1.26.43,2.45,1.22,3.36.93,1.08,2.26,1.67,3.74,1.67Zm126.55,355.32c1.39,0,2.65-.52,3.62-1.48.97-.96,1.51-2.23,1.51-3.58s-.54-2.67-1.49-3.62c-.93-.93-2.24-1.47-3.6-1.47s-2.67.53-3.6,1.46c-.95.94-1.49,2.27-1.49,3.62s.53,2.62,1.49,3.56c.97.97,2.23,1.5,3.56,1.5Zm12.78-24.89c.95.95,2.28,1.5,3.63,1.5s2.67-.54,3.61-1.48c.94-.93,1.51-2.27,1.51-3.58,0-1.41-.59-2.76-1.61-3.68-.92-.89-2.17-1.39-3.5-1.39s-2.67.53-3.59,1.45c-.98.99-1.54,2.31-1.54,3.61,0,1.2.47,2.38,1.37,3.43l.12.13Zm-279.36-349.35c1.29,0,2.62-.56,3.55-1.48.97-.96,1.51-2.23,1.51-3.58s-.54-2.67-1.49-3.62c-.92-.93-2.2-1.45-3.59-1.45s-2.7.52-3.61,1.44c-.95.94-1.49,2.27-1.49,3.62s.51,2.57,1.41,3.49c.9,1,2.25,1.58,3.7,1.58Zm23.52,365.7c4.13,0,4.13-6.41,0-6.41s-4.13,6.41,0,6.41ZM175.78,488.5c-1.34,0-2.62.51-3.52,1.41-.94.95-1.48,2.27-1.48,3.63,0,1.24.46,2.5,1.28,3.46l.13.15.15.13c1.02.89,2.23,1.37,3.5,1.37,1.34,0,2.61-.53,3.58-1.5.98-.99,1.54-2.31,1.54-3.61s-.58-2.65-1.57-3.64c-.97-.9-2.25-1.39-3.6-1.39Zm279.79,305.82c4.13,0,4.13-6.41,0-6.41s-4.13,6.41,0,6.41Zm34.58-20.49c4.13,0,4.13-6.41,0-6.41s-4.13,6.41,0,6.41Zm-68-263.13c-1.39,0-2.73.55-3.57,1.46-.95.95-1.49,2.27-1.49,3.63,0,1.2.48,2.47,1.31,3.44l.12.13c.95.95,2.27,1.49,3.63,1.49s2.69-.54,3.61-1.48c.94-.93,1.51-2.27,1.51-3.58s-.54-2.68-1.49-3.63c-.93-.93-2.25-1.46-3.62-1.46Zm-72.04-68.36c1,.86,2.27,1.35,3.48,1.35s2.47-.47,3.51-1.39l.11-.11c.95-.95,1.49-2.27,1.49-3.62s-.59-2.77-1.56-3.62c-.94-.91-2.26-1.43-3.6-1.43s-2.63.52-3.48,1.38c-1.02.93-1.61,2.27-1.61,3.68s.54,2.67,1.52,3.65l.13.12Zm76.78,51.06c0,1.26.43,2.45,1.22,3.36.93,1.08,2.26,1.67,3.74,1.67,2.83,0,4.96-2.17,4.96-5.04,0-1.26-.43-2.45-1.22-3.36-.93-1.08-2.26-1.67-3.74-1.67-2.83,0-4.96,2.17-4.96,5.04Zm-25.92,30.06c-4.13,0-4.13,6.41,0,6.41s4.13-6.41,0-6.41Zm89.79,274.14c0,1.34.52,2.61,1.42,3.5.88,1.02,2.2,1.61,3.63,1.61s2.66-.51,3.63-1.49c.95-.95,1.49-2.27,1.49-3.62s-.59-2.78-1.56-3.63c-.93-.89-2.24-1.4-3.59-1.4s-2.64.51-3.52,1.39c-.96.94-1.5,2.27-1.5,3.64Zm-214.65-301.67c4.13,0,4.13-6.41,0-6.41s-4.13,6.41,0,6.41Zm-110.81-27.72c1.36,0,2.68-.54,3.61-1.49.94-.93,1.51-2.27,1.51-3.58s-.54-2.67-1.49-3.62c-.93-.93-2.24-1.47-3.6-1.47s-2.67.53-3.59,1.46c-.95.95-1.49,2.27-1.49,3.62s.53,2.61,1.48,3.55c.96.97,2.23,1.51,3.58,1.51Zm140.88,58.57c-2.83,0-4.96,2.17-4.96,5.04,0,1.26.43,2.45,1.22,3.36.93,1.08,2.26,1.67,3.74,1.67,2.83,0,4.96-2.17,4.96-5.04,0-1.26-.43-2.45-1.22-3.36-.93-1.08-2.26-1.67-3.74-1.67Zm-143.12-.37c.95-.95,1.49-2.27,1.49-3.62s-.54-2.69-1.49-3.62c-.93-.93-2.24-1.47-3.6-1.47s-2.67.53-3.58,1.45c-.95.94-1.5,2.27-1.5,3.64s.54,2.68,1.49,3.62c.94.94,2.27,1.49,3.56,1.49s2.68-.54,3.63-1.49Zm130.89-28.58c-1.34,0-2.63.52-3.53,1.42-1,.98-1.57,2.31-1.57,3.64s.51,2.55,1.41,3.48c.93,1.04,2.28,1.63,3.7,1.63,1.35,0,2.62-.53,3.59-1.52l.09-.1c.9-1.02,1.37-2.23,1.37-3.5,0-1.39-.58-2.75-1.52-3.59-.92-.93-2.22-1.46-3.56-1.46Zm.09-33.27c4.13,0,4.13-6.41,0-6.41s-4.13,6.41,0,6.41Zm-7.12-13.87c1.37,0,2.69-.54,3.61-1.48.94-.93,1.5-2.27,1.5-3.58s-.54-2.68-1.49-3.63c-.93-.93-2.25-1.46-3.62-1.46s-2.73.55-3.57,1.46c-.98.97-1.49,2.23-1.49,3.63,0,1.31.51,2.56,1.41,3.48.88.99,2.24,1.58,3.64,1.58Zm-6.99,28.07c1.32,0,2.56-.51,3.48-1.41.99-.88,1.58-2.24,1.58-3.64s-.52-2.65-1.49-3.63c-.93-.93-2.23-1.46-3.59-1.46s-2.63.53-3.49,1.41c-1.05.96-1.6,2.23-1.6,3.68s.59,2.77,1.55,3.62c.94.92,2.24,1.44,3.57,1.44Zm-84.2-10.54c1.35,0,2.61-.53,3.55-1.48.97-.96,1.51-2.23,1.51-3.58s-.54-2.68-1.49-3.62c-.93-.93-2.24-1.47-3.6-1.47s-2.67.53-3.59,1.46c-.95.95-1.5,2.27-1.5,3.63s.53,2.61,1.48,3.55c.95.96,2.27,1.51,3.64,1.51Zm-15.03,82.79c4.13,0,4.13-6.41,0-6.41s-4.13,6.41,0,6.41Zm20.49-71.08c4.13,0,4.13-6.41,0-6.41s-4.13,6.41,0,6.41Zm10.88-28.06c1.4,0,2.71-.55,3.55-1.47,1-.93,1.57-2.26,1.57-3.64s-.59-2.77-1.56-3.63c-.93-.89-2.23-1.4-3.59-1.4s-2.64.51-3.53,1.39c-.96.94-1.51,2.27-1.51,3.64s.54,2.67,1.48,3.61c.95.97,2.23,1.5,3.58,1.5Zm-12.8,132.43c4.13,0,4.13-6.41,0-6.41s-4.13,6.41,0,6.41Zm25.65-2.63c1.32,0,2.62-.52,3.54-1.41.99-.88,1.58-2.25,1.58-3.65s-.52-2.65-1.49-3.63c-.93-.93-2.24-1.46-3.62-1.46s-2.74.55-3.57,1.46c-.97.97-1.49,2.23-1.49,3.63s.59,2.77,1.55,3.62c.93.9,2.24,1.43,3.5,1.43Zm312.99,204.65c1.36,0,2.68-.54,3.62-1.49.97-.96,1.51-2.23,1.51-3.58s-.54-2.67-1.49-3.62c-.93-.93-2.24-1.47-3.6-1.47s-2.67.53-3.6,1.46c-.97.97-1.49,2.23-1.49,3.62s.53,2.62,1.49,3.57c.94.94,2.27,1.5,3.56,1.5Zm-276.82,3.18c.95.95,2.28,1.5,3.63,1.5s2.67-.54,3.61-1.48c.94-.93,1.51-2.27,1.51-3.58,0-1.41-.59-2.76-1.61-3.68-.92-.89-2.17-1.39-3.5-1.39s-2.67.53-3.59,1.45c-.98.99-1.54,2.31-1.54,3.61,0,1.2.47,2.38,1.37,3.43l.12.13Zm78.43-260.07c-1.39,0-2.74.55-3.58,1.46-.95.95-1.49,2.27-1.49,3.63s.59,2.67,1.53,3.54c.9.96,2.2,1.51,3.59,1.51,1.27,0,2.48-.47,3.52-1.39l.1-.09c.94-.93,1.51-2.27,1.51-3.58,0-1.38-.55-2.68-1.57-3.7-.95-.88-2.26-1.39-3.6-1.39Zm-76.21-35.41c4.13,0,4.13-6.41,0-6.41s-4.13,6.41,0,6.41Zm76.26,2.69c-1.37,0-2.66.52-3.51,1.38-1.02.93-1.6,2.28-1.6,3.68,0,1.32.58,2.67,1.48,3.49.93.99,2.26,1.56,3.64,1.56s2.69-.55,3.54-1.46c.99-.92,1.58-2.26,1.58-3.59s-.55-2.68-1.57-3.7c-.95-.88-2.21-1.36-3.56-1.36Zm210.79,302.11c4.13,0,4.13-6.41,0-6.41s-4.13,6.41,0,6.41Zm-285.63-104.87c1.39,0,2.76-.59,3.62-1.55.97-.99,1.5-2.24,1.5-3.51s-.45-2.41-1.34-3.47l-.1-.12-.12-.11c-.95-.88-2.23-1.37-3.59-1.37s-2.65.51-3.54,1.39c-.98.99-1.54,2.33-1.54,3.68s.56,2.63,1.49,3.56c.95.95,2.27,1.49,3.63,1.49Zm0-183.62c1.3,0,2.55-.51,3.48-1.42,1.03-.92,1.64-2.28,1.64-3.64,0-1.25-.45-2.41-1.34-3.46l-.1-.12-.11-.11c-.95-.89-2.21-1.38-3.57-1.38-1.42,0-2.73.54-3.58,1.45-1.01,1.02-1.54,2.27-1.54,3.61s.56,2.63,1.49,3.56c.95.95,2.28,1.5,3.63,1.5Zm45.3,117.79c2.83,0,4.96-2.17,4.96-5.04,0-1.26-.43-2.45-1.22-3.36-.93-1.08-2.26-1.67-3.74-1.67-2.83,0-4.96,2.17-4.96,5.04,0,1.26.43,2.45,1.22,3.36.93,1.08,2.26,1.67,3.74,1.67Zm38.42,8.64c2.83,0,4.96-2.17,4.96-5.04s-2.13-5.04-4.96-5.04-4.96,2.17-4.96,5.04,2.13,5.04,4.96,5.04Zm20.38,6.91c1.35,0,2.62-.53,3.56-1.49.95-.95,1.49-2.27,1.49-3.62s-.58-2.75-1.52-3.6c-.92-.93-2.22-1.46-3.58-1.46s-2.7.54-3.5,1.41c-1,.98-1.57,2.31-1.57,3.64s.59,2.76,1.55,3.62c.96.93,2.3,1.49,3.57,1.49Zm-17.15-97.79c-4.13,0-4.13,6.41,0,6.41s4.13-6.41,0-6.41Zm8.96-12.17c-4.13,0-4.13,6.41,0,6.41s4.13-6.41,0-6.41Zm-6.59-49.91c0,2.87,2.13,5.04,4.96,5.04s4.96-2.17,4.96-5.04-2.13-5.04-4.96-5.04-4.96,2.17-4.96,5.04Zm5.43,32.74c-1.36,0-2.69.54-3.62,1.47-.95.93-1.45,2.17-1.45,3.59s.54,2.76,1.48,3.62c1,.98,2.24,1.5,3.57,1.5s2.62-.53,3.56-1.49c.95-.95,1.49-2.27,1.49-3.63,0-1.43-.52-2.67-1.56-3.7-.94-.88-2.18-1.36-3.49-1.36Zm19.74-27.63c.94.95,2.27,1.5,3.64,1.5s2.69-.53,3.56-1.42c.95-.95,1.49-2.27,1.49-3.63s-.58-2.74-1.51-3.59c-.92-.93-2.23-1.47-3.59-1.47s-2.63.52-3.47,1.38c-1.02.93-1.61,2.27-1.61,3.68s.53,2.6,1.48,3.55Zm-34.62-28.89c2.83,0,4.96-2.17,4.96-5.04s-2.13-5.04-4.96-5.04-4.96,2.17-4.96,5.04,2.13,5.04,4.96,5.04Zm28.84,37.83c-4.13,0-4.13,6.41,0,6.41s4.13-6.41,0-6.41Zm.93-48.39c2.83,0,4.96-2.17,4.96-5.04s-2.13-5.04-4.96-5.04-4.96,2.17-4.96,5.04,2.13,5.04,4.96,5.04Zm4.94,92.85c-1.41,0-2.76.54-3.58,1.43-.97.97-1.48,2.23-1.48,3.62,0,1.32.51,2.57,1.41,3.49.9,1,2.25,1.57,3.7,1.57s2.75-.59,3.61-1.55c.9-.92,1.44-2.24,1.44-3.51,0-1.41-.54-2.69-1.47-3.55-.9-.96-2.22-1.51-3.64-1.51Zm-10.63-74.4c.95.95,2.27,1.49,3.63,1.49,1.26,0,2.47-.47,3.51-1.39l.1-.09c.94-.93,1.51-2.27,1.51-3.58s-.54-2.6-1.5-3.57c-.92-.98-2.2-1.51-3.6-1.51s-2.67.53-3.54,1.41c-.98.9-1.53,2.24-1.53,3.68,0,1.2.48,2.48,1.31,3.43l.12.13Zm17.57-13.59c4.13,0,4.13-6.41,0-6.41s-4.13,6.41,0,6.41Zm-45.44,26.45c.97-.96,1.51-2.23,1.51-3.58s-.54-2.67-1.49-3.62c-.93-.93-2.24-1.47-3.6-1.47s-2.67.53-3.6,1.46-1.49,2.27-1.49,3.62.51,2.57,1.41,3.49c.9,1,2.25,1.58,3.7,1.58,1.33,0,2.59-.53,3.55-1.48Zm-8.23-42.93c1.34,0,2.6-.53,3.57-1.49.95-.95,1.49-2.27,1.49-3.62s-.53-2.62-1.43-3.5c-.92-.98-2.25-1.55-3.65-1.55s-2.75.56-3.59,1.47c-.97.95-1.5,2.23-1.5,3.58s.53,2.64,1.39,3.47c.89,1.04,2.24,1.64,3.73,1.64Zm-2.68,86.28c4.13,0,4.13-6.41,0-6.41s-4.13,6.41,0,6.41Zm60.19-31.38c-4.13,0-4.13,6.41,0,6.41s4.13-6.41,0-6.41Zm101.99-3.19c4.13,0,4.13-6.41,0-6.41s-4.13,6.41,0,6.41Zm28.17-28.81c4.13,0,4.13-6.41,0-6.41s-4.13,6.41,0,6.41Zm-8.03,14.54c1.36,0,2.68-.54,3.62-1.49.95-.95,1.49-2.27,1.49-3.62s-.56-2.63-1.5-3.58c-.95-.94-2.23-1.46-3.63-1.46s-2.67.51-3.56,1.41c-.99.99-1.55,2.31-1.55,3.63,0,1.38.55,2.69,1.47,3.55.93.99,2.26,1.56,3.65,1.56Zm-10.54-29.91c4.13,0,4.13-6.41,0-6.41s-4.13,6.41,0,6.41Zm16.01-15.37c4.13,0,4.13-6.41,0-6.41s-4.13,6.41,0,6.41Zm-61.74,64.8c.95.95,2.28,1.5,3.63,1.5s2.68-.54,3.61-1.48c.97-.96,1.51-2.23,1.51-3.58s-.54-2.67-1.49-3.62c-.93-.93-2.2-1.44-3.59-1.44s-2.69.52-3.61,1.44c-.95.95-1.49,2.27-1.49,3.62,0,1.24.46,2.45,1.31,3.44l.12.13Zm-66.06,21.79c-1.42,0-2.78.55-3.6,1.44-.97.96-1.51,2.23-1.51,3.58s.51,2.6,1.34,3.48c.93,1.04,2.29,1.63,3.71,1.63s2.71-.55,3.55-1.47c.99-.93,1.56-2.26,1.56-3.64s-.53-2.62-1.43-3.5c-.91-.97-2.23-1.53-3.64-1.53Zm90.66-53.94c4.13,0,4.13-6.41,0-6.41s-4.13,6.41,0,6.41Zm-14.09-10.25c4.13,0,4.13-6.41,0-6.41s-4.13,6.41,0,6.41Zm9.51-8.7c1.41,0,2.7-.58,3.61-1.61.97-.99,1.5-2.24,1.5-3.51s-.48-2.42-1.45-3.52l-.09-.1c-.91-.92-2.22-1.45-3.59-1.45s-2.7.53-3.63,1.47l-.09.1c-.9,1.02-1.37,2.23-1.37,3.49,0,1.34.53,2.6,1.48,3.55.97.98,2.33,1.57,3.64,1.57Zm-3.51,24.93c-1.38,0-2.69.52-3.61,1.43-.95.94-1.49,2.27-1.49,3.63s.56,2.65,1.48,3.56c.98.98,2.23,1.5,3.63,1.5,1.3,0,2.63-.55,3.55-1.48.94-.93,1.51-2.27,1.51-3.58s-.54-2.68-1.49-3.63c-.92-.93-2.2-1.43-3.58-1.43Zm27.58-2.85c2.83,0,4.96-2.17,4.96-5.04,0-1.26-.43-2.45-1.22-3.36-.93-1.08-2.26-1.67-3.74-1.67-2.83,0-4.96,2.17-4.96,5.04,0,1.26.43,2.45,1.22,3.36.93,1.08,2.26,1.67,3.74,1.67Zm-107.88,253.92c.95-1.9.05-4.79-2.72-4.79-3.16,0-3.9,3.76-2.21,5.52,1.65-.22,3.29-.46,4.93-.73Zm10.45-218.01c-.98,1.01-1.5,2.24-1.5,3.57s.56,2.64,1.48,3.55c.95.96,2.27,1.51,3.64,1.51s2.61-.53,3.55-1.48c.95-.93,1.51-2.27,1.51-3.58,0-1.4-.52-2.65-1.49-3.62-.91-.92-2.23-1.45-3.6-1.45s-2.75.56-3.59,1.5Zm-.36-70.43c4.13,0,4.13-6.41,0-6.41s-4.13,6.41,0,6.41Zm-3.07,18.92c0,2.87,2.13,5.04,4.96,5.04s4.96-2.17,4.96-5.04-2.13-5.04-4.96-5.04-4.96,2.17-4.96,5.04Zm-8.16-17.03c1.34,0,2.61-.53,3.58-1.5.96-.98,1.47-2.23,1.47-3.61s-.5-2.65-1.43-3.58c-.96-.95-2.25-1.47-3.64-1.47s-2.76.56-3.6,1.47c-.97.96-1.51,2.23-1.51,3.58s.55,2.6,1.51,3.58c.99.97,2.31,1.53,3.62,1.53Zm89.63,360.2c1.35,0,2.62-.53,3.56-1.49.95-.95,1.49-2.27,1.49-3.62s-.53-2.62-1.49-3.57c-.93-.93-2.25-1.46-3.62-1.46s-2.73.55-3.56,1.44c-.97.96-1.51,2.23-1.51,3.58,0,1.26.54,2.58,1.41,3.48.93,1.04,2.28,1.63,3.7,1.63Zm-84.01-320.88l.1.1c.95.95,2.27,1.49,3.63,1.49s2.67-.54,3.61-1.48c.94-.93,1.51-2.27,1.51-3.58s-.45-2.41-1.34-3.46l-.11-.13-.12-.11c-.95-.88-2.21-1.36-3.56-1.36-1.42,0-2.73.53-3.58,1.45-.96.98-1.47,2.23-1.47,3.62,0,1.2.48,2.47,1.33,3.46Zm28.19-25.21c4.13,0,4.13-6.41,0-6.41s-4.13,6.41,0,6.41Zm66.59,230.51c4.13,0,4.13-6.41,0-6.41s-4.13,6.41,0,6.41Zm18.41,101.54c1.36,0,2.69-.54,3.63-1.49.95-.95,1.49-2.27,1.49-3.62s-.53-2.62-1.43-3.5c-.92-.98-2.25-1.55-3.65-1.55s-2.75.56-3.59,1.47c-.97.95-1.5,2.23-1.5,3.58s.55,2.69,1.46,3.54c.94,1.01,2.21,1.57,3.59,1.57Zm-33.87-93.56c1.35,0,2.62-.53,3.56-1.48.99-.99,1.56-2.31,1.56-3.63s-.61-2.72-1.58-3.6c-.92-.93-2.18-1.44-3.55-1.44s-2.65.51-3.54,1.39c-1,.98-1.57,2.31-1.57,3.64s.55,2.69,1.47,3.54c.93,1,2.26,1.57,3.65,1.57Zm-196.04,99.42c1.22,0,2.4-.47,3.45-1.39l.11-.11c.66-.65,1.1-1.49,1.32-2.39-3.25-.95-6.47-1.96-9.67-3.03-.22.57-.34,1.18-.34,1.79,0,1.39.59,2.75,1.54,3.61.96.94,2.3,1.51,3.58,1.51Zm242.24,14.9c4.13,0,4.13-6.41,0-6.41s-4.13,6.41,0,6.41Zm-71.72-105.01c4.13,0,4.13-6.41,0-6.41s-4.13,6.41,0,6.41Zm-33.94-262.53c4.13,0,4.13-6.41,0-6.41s-4.13,6.41,0,6.41Zm-136.43,373.98c0,1.26.43,2.45,1.22,3.36.93,1.08,2.26,1.67,3.74,1.67,2.83,0,4.96-2.17,4.96-5.04,0-1.26-.43-2.45-1.22-3.36-.93-1.08-2.26-1.67-3.74-1.67-2.83,0-4.96,2.17-4.96,5.04Zm139.62-338.62c.95.95,2.27,1.49,3.63,1.49s2.67-.54,3.61-1.48c.97-.96,1.51-2.23,1.51-3.58s-.57-2.72-1.48-3.56c-.91-.97-2.24-1.52-3.64-1.52s-2.71.54-3.54,1.43c-.99.92-1.57,2.29-1.57,3.65s.53,2.62,1.49,3.56Zm306.54,159.76c-1.32,0-2.61.51-3.51,1.38-.86.77-1.38,1.89-1.52,3.11,1.93-.62,3.86-1.25,5.78-1.87,1.02-.33,2.01-.66,2.97-1-.05-.05-.08-.1-.13-.15-.93-.93-2.24-1.46-3.59-1.46Zm-47.2.82c4.13,0,4.13-6.41,0-6.41s-4.13,6.41,0,6.41Zm55.07-132.55c4.13,0,4.13-6.41,0-6.41s-4.13,6.41,0,6.41Zm-156.41,220.21c1.38,0,2.69-.55,3.54-1.47.99-.92,1.58-2.26,1.58-3.59s-.54-2.67-1.49-3.62c-.94-.95-2.22-1.47-3.61-1.47s-2.62.5-3.65,1.46c-.92.92-1.43,2.21-1.43,3.63s.59,2.76,1.54,3.62c.96.93,2.21,1.44,3.51,1.44Zm61.25-222.61c0-1.3-.58-2.65-1.57-3.64-.97-.9-2.25-1.39-3.6-1.39s-2.62.51-3.52,1.41c-.94.95-1.48,2.27-1.48,3.63,0,1.24.46,2.5,1.28,3.46l.13.15.15.13c1.02.89,2.23,1.37,3.5,1.37,1.34,0,2.61-.53,3.58-1.5.98-.99,1.54-2.31,1.54-3.61Zm-.25,51.06c-4.13,0-4.13,6.41,0,6.41s4.13-6.41,0-6.41Zm-119.51,46.43c1.36,0,2.68-.54,3.62-1.48.99-.97,1.51-2.23,1.51-3.64,0-1.3-.56-2.63-1.49-3.56-.93-.93-2.25-1.46-3.62-1.46s-2.74.55-3.57,1.46c-.93.93-1.49,2.26-1.49,3.56,0,1.42.52,2.67,1.49,3.63.96.96,2.23,1.49,3.57,1.49Zm187.38-129.67c4.13,0,4.13-6.41,0-6.41s-4.13,6.41,0,6.41Zm16.14,48.96c1.3,0,2.55-.51,3.48-1.42,1.03-.92,1.64-2.28,1.64-3.64,0-1.25-.45-2.41-1.34-3.46l-.1-.12-.11-.11c-.95-.89-2.21-1.38-3.57-1.38-1.42,0-2.73.54-3.58,1.45-1.01,1.02-1.54,2.27-1.54,3.61s.56,2.63,1.49,3.56c.95.95,2.28,1.5,3.63,1.5Zm-1.42-16.3c4.13,0,4.13-6.41,0-6.41s-4.13,6.41,0,6.41Zm-81.6,232.67c1.31,0,2.56-.51,3.48-1.41.99-.88,1.58-2.24,1.58-3.64s-.52-2.66-1.49-3.63c-.93-.93-2.23-1.46-3.59-1.46s-2.62.52-3.49,1.4c-1.01.92-1.61,2.3-1.61,3.69,0,1.31.56,2.64,1.48,3.55.94.96,2.27,1.51,3.64,1.51Zm-32.75,1.18c1.35,0,2.62-.53,3.56-1.49.99-.99,1.5-2.21,1.5-3.63s-.53-2.62-1.49-3.57c-.93-.93-2.24-1.46-3.59-1.46s-2.66.53-3.58,1.44c-.97.96-1.51,2.23-1.51,3.58s.54,2.67,1.48,3.61c.94.95,2.27,1.5,3.64,1.5Zm10.62-95.54c4.13,0,4.13-6.41,0-6.41s-4.13,6.41,0,6.41Zm12.77,10.16c1.35,0,2.61-.53,3.55-1.48.95-.93,1.51-2.27,1.51-3.58s-.54-2.68-1.49-3.63c-.93-.93-2.24-1.46-3.6-1.46s-2.67.53-3.59,1.46c-.98.98-1.49,2.23-1.49,3.63s.53,2.61,1.48,3.55c.94.96,2.27,1.51,3.64,1.51Zm-7.65,87.81c4.13,0,4.13-6.41,0-6.41s-4.13,6.41,0,6.41Zm-22.41-194.67c-4.13,0-4.13,6.41,0,6.41s4.13-6.41,0-6.41Zm3.11-87.25c1.21,0,2.48-.49,3.51-1.38l.12-.12c.95-.95,1.49-2.27,1.49-3.62s-.54-2.69-1.49-3.62c-.94-.95-2.21-1.47-3.58-1.47s-2.6.51-3.61,1.45c-.96.94-1.5,2.27-1.5,3.64s.54,2.68,1.49,3.62c.94.94,2.27,1.49,3.56,1.49Zm-3.56,31.25c.94.94,2.27,1.49,3.56,1.49s2.64-.57,3.63-1.55c.96-.96,1.49-2.23,1.49-3.56s-.55-2.69-1.56-3.69c-.95-.89-2.21-1.38-3.54-1.38s-2.59.5-3.57,1.43c-.96.94-1.5,2.27-1.5,3.64,0,1.27.47,2.48,1.39,3.52l.1.11Zm-73.83.29c-4.13,0-4.13,6.41,0,6.41s4.13-6.41,0-6.41Zm-13.79,209.34c1.35,0,2.67-.54,3.61-1.48.94-.93,1.51-2.27,1.51-3.58,0-1.38-.55-2.69-1.58-3.72l-.12-.11c-.95-.82-2.17-1.27-3.43-1.27-1.35,0-2.64.53-3.5,1.42-1.02.94-1.6,2.28-1.6,3.68s.53,2.61,1.49,3.56c.95.95,2.27,1.49,3.63,1.49Zm56.14,118.13c1.27,0,2.48-.47,3.49-1.36l.14-.12.12-.14c.9-1.02,1.37-2.23,1.37-3.49,0-1.35-.55-2.64-1.57-3.64-.95-.88-2.26-1.39-3.59-1.39s-2.67.54-3.5,1.43c-.69.64-1.51,1.78-1.51,3.6,0,1.44.51,2.72,1.41,3.55.93.99,2.26,1.56,3.65,1.56Zm-19.93-325.55c-4.13,0-4.13,6.41,0,6.41s4.13-6.41,0-6.41Zm-6.96-11.26c1.35,0,2.62-.53,3.56-1.49.95-.95,1.49-2.27,1.49-3.62s-.59-2.78-1.56-3.63c-.93-.89-2.22-1.4-3.55-1.4s-2.61.51-3.49,1.39c-1,.98-1.57,2.31-1.57,3.64s.54,2.67,1.48,3.61c.94.96,2.27,1.5,3.64,1.5Zm-12.85-18.71c1.3,0,2.63-.56,3.56-1.49.95-.95,1.49-2.27,1.49-3.62s-.53-2.62-1.49-3.57c-.93-.93-2.25-1.46-3.62-1.46s-2.73.55-3.56,1.44c-.97.95-1.5,2.23-1.5,3.58s.55,2.7,1.46,3.54c.95,1.03,2.22,1.57,3.66,1.57Zm21.72-7.16c4.13,0,4.13-6.41,0-6.41s-4.13,6.41,0,6.41Zm46.08,63.29c1.36,0,2.68-.54,3.62-1.49.92-.92,1.43-2.21,1.43-3.62s-.51-2.67-1.5-3.64c-.95-.88-2.21-1.36-3.56-1.36s-2.74.55-3.56,1.43c-.96.96-1.49,2.23-1.49,3.57s.51,2.61,1.34,3.48c.93,1.04,2.29,1.63,3.71,1.63Zm7.04,43.62c-1.35,0-2.59.5-3.62,1.46-.34.34-.6.73-.83,1.15,2.35.71,4.7,1.42,7.05,2.13.81.24,1.61.49,2.42.73,0-.13.04-.25.04-.38,0-1.36-.54-2.67-1.49-3.62-.94-.95-2.21-1.47-3.58-1.47Zm-57.31-40.85c-1.49,0-2.82.59-3.74,1.67-.78.91-1.22,2.11-1.22,3.36,0,2.87,2.13,5.04,4.96,5.04s4.96-2.17,4.96-5.04c0-1.26-.43-2.45-1.22-3.36-.93-1.08-2.26-1.67-3.74-1.67Zm-11.75-6.58c.96.93,2.2,1.44,3.5,1.44,1.39,0,2.65-.52,3.62-1.48.97-.96,1.51-2.23,1.51-3.58s-.55-2.68-1.56-3.69c-.96-.9-2.22-1.4-3.53-1.4s-2.57.5-3.6,1.46c-.95.94-1.49,2.27-1.49,3.62s.59,2.77,1.55,3.62Zm119.33-35.98c1.35,0,2.61-.53,3.55-1.48.97-.96,1.51-2.23,1.51-3.58s-.54-2.68-1.49-3.62c-.93-.93-2.24-1.47-3.6-1.47s-2.67.53-3.59,1.46c-.95.95-1.5,2.27-1.5,3.63s.53,2.61,1.48,3.55c.95.96,2.27,1.51,3.64,1.51Zm5.46,11.71c4.13,0,4.13-6.41,0-6.41s-4.13,6.41,0,6.41Zm3.64,55.7l.12.14.13.12c1.02.9,2.23,1.37,3.5,1.37,1.33,0,2.6-.53,3.58-1.51.94-.95,1.47-2.27,1.47-3.61,0-1.26-.47-2.52-1.29-3.48l-.13-.14-.08-.07c-.96-.9-2.24-1.4-3.59-1.4s-2.66.52-3.59,1.45c-.93.92-1.44,2.21-1.44,3.64,0,1.33.44,2.51,1.3,3.49Zm-25.92-11.81c0,1.26.43,2.45,1.22,3.36.93,1.08,2.26,1.67,3.74,1.67,2.83,0,4.96-2.17,4.96-5.04,0-1.26-.43-2.45-1.22-3.36-.93-1.08-2.26-1.67-3.74-1.67-2.83,0-4.96,2.17-4.96,5.04Zm75.39-75.32c2.83,0,4.96-2.17,4.96-5.04,0-1.26-.43-2.45-1.22-3.36-.93-1.08-2.26-1.67-3.74-1.67-2.83,0-4.96,2.17-4.96,5.04,0,1.26.43,2.45,1.22,3.36.93,1.08,2.26,1.67,3.74,1.67Zm-42.23,3.37c1.4,0,2.71-.55,3.55-1.47,1-.93,1.57-2.26,1.57-3.64s-.59-2.77-1.56-3.63c-.93-.89-2.23-1.4-3.59-1.4s-2.64.51-3.53,1.39c-.96.94-1.51,2.27-1.51,3.64s.54,2.67,1.48,3.61c.95.97,2.23,1.5,3.58,1.5Zm8.97,70.32c4.13,0,4.13-6.41,0-6.41s-4.13,6.41,0,6.41Zm-8.97-20.05c1.39,0,2.7-.55,3.54-1.47,1.03-.95,1.58-2.22,1.58-3.66,0-1.34-.53-2.6-1.49-3.56-.93-.93-2.24-1.46-3.62-1.46s-2.65.52-3.52,1.41c-.97.89-1.55,2.24-1.55,3.62,0,1.46.57,2.82,1.55,3.68.95.93,2.2,1.44,3.51,1.44Zm-33.29-23.5c4.13,0,4.13-6.41,0-6.41s-4.13,6.41,0,6.41Zm-130.6,18.36c.89,1.04,2.22,1.64,3.66,1.64s2.66-.51,3.63-1.49c.95-.95,1.49-2.27,1.49-3.63s-.53-2.62-1.43-3.5c-.92-.98-2.25-1.55-3.65-1.55s-2.75.56-3.59,1.47c-.97.95-1.5,2.23-1.5,3.58s.53,2.64,1.39,3.47Zm127.37-51.39c2.83,0,4.96-2.17,4.96-5.04,0-1.26-.43-2.45-1.22-3.36-.93-1.08-2.26-1.67-3.74-1.67-2.83,0-4.96,2.17-4.96,5.04,0,1.26.43,2.45,1.22,3.36.93,1.08,2.26,1.67,3.74,1.67Zm-10.25,22.6c1.36,0,2.68-.54,3.61-1.49.94-.93,1.51-2.27,1.51-3.58s-.54-2.67-1.49-3.62c-.93-.93-2.24-1.47-3.6-1.47s-2.67.53-3.59,1.46c-.95.95-1.49,2.27-1.49,3.62s.53,2.61,1.48,3.55c.96.97,2.23,1.51,3.58,1.51Zm-5.87,59.69c1.36,0,2.68-.54,3.63-1.49.95-.95,1.49-2.27,1.49-3.62s-.54-2.69-1.49-3.62c-.93-.93-2.24-1.47-3.6-1.47s-2.67.53-3.58,1.45c-.95.94-1.5,2.27-1.5,3.64s.54,2.68,1.49,3.62c.94.94,2.27,1.49,3.56,1.49Zm239.71,174.45v21.6l61.08,34.06c9.94,5.54,15.46,15.97,15.26,26.62,6.2,6.36,7.79,16.27,3.25,24.42-3.77,6.76-10.79,10.58-18.02,10.58-3.4,0-6.84-.84-10.02-2.61l-5.84-3.25c-4.76-.14-9.45-1.42-13.62-3.75l-32.09-17.89v120.05H240.27v-26.06h-35.59v-43.4h-83.98v-420.22h-.07V87.92h644.49v52.62h74.75v44.38h17.27v359.49l61.08,34.06c9.94,5.54,15.46,15.97,15.26,26.62,6.2,6.36,7.79,16.26,3.25,24.42-3.77,6.76-10.79,10.58-18.02,10.58-3.4,0-6.84-.84-10.02-2.61l-5.84-3.25c-4.76-.14-9.45-1.42-13.63-3.75l-32.09-17.89v21.6l61.08,34.06c9.94,5.54,15.46,15.97,15.26,26.62,6.2,6.36,7.79,16.27,3.25,24.42-3.77,6.76-10.79,10.58-18.02,10.58-3.4,0-6.84-.84-10.02-2.61l-5.84-3.25c-4.76-.14-9.45-1.42-13.63-3.75l-32.09-17.89Zm-44.22-161.62c-26.02-14.51-68.34-14.51-94.36,0l-54.78,30.55c-19.19,10.7-52.86,10.7-72.05,0l-54.77-30.55c-26.01-14.51-68.34-14.51-94.36,0l-54.77,30.54c-19.19,10.7-52.86,10.7-72.05,0l-96.37-53.75c-2.67-1.49-5.76-1.85-8.71-1.02-2.94.84-5.38,2.77-6.87,5.44-1.49,2.67-1.85,5.76-1.01,8.7.84,2.94,2.77,5.38,5.44,6.87l96.37,53.75c26.01,14.5,68.34,14.5,94.36,0l54.77-30.55c19.19-10.7,52.86-10.7,72.05,0l54.77,30.55c26.01,14.5,68.34,14.5,94.36,0l54.78-30.55c9.6-5.35,22.81-8.03,36.03-8.03s26.43,2.68,36.02,8.03l96.38,53.75c1.73.96,3.6,1.45,5.56,1.45,4.16,0,8-2.25,10.02-5.88,3.08-5.51,1.09-12.5-4.42-15.58l-96.38-53.75Zm-17.7,37.32c-9.72-1.71-20.54-1.63-30.16.22v22.96c.23,0,.46,0,.69,0,20.7,0,40.5,4.66,55.81,13.11v-21.6l-26.33-14.69Zm-73.46,27.73c0-2.87,2.13-5.04,4.96-5.04,1.49,0,2.82.59,3.74,1.67.76.89,1.18,2.04,1.21,3.25,1.94-.53,3.91-1.01,5.91-1.45v-14.02l-28.07,15.65c.6.25,1.16.61,1.61,1.07.96.95,1.49,2.22,1.49,3.57,0,1.04-.33,2.06-.91,2.91,3.43-1.79,7.06-3.4,10.87-4.81-.52-.82-.82-1.79-.82-2.81Zm43.3-94.32c.23,0,.46,0,.69,0,20.7,0,40.5,4.66,55.81,13.11V158.86h-56.43v263.63h-.07v88.97ZM247.12,212.74h97.01v-97.08h98.16v97.44h97.01v98.16h-97.01v83.64h98.77v-83.78h97.01v-96.73h-97.01v-98.16h98.16v97.44h97.01v98.16h-97.01v83.07h98.29V115.53H247.12v97.21Zm97.01,1.07v96.73h97.01v-96.73h-97.01Zm-97.01,181.08h97.01v-83.99h-97.01v83.99Zm-98.88,0h.72v-84.71h97.01v-96.73h-97.01v-97.92h-.72v279.35Zm65.38,417.93c0,.85-.23,1.67-.63,2.41h91.07s0-.03,0-.04c0-1.4.51-2.66,1.49-3.63.83-.89,2.18-1.43,3.59-1.43s2.69.52,3.6,1.43c.98.98,1.49,2.23,1.49,3.63,0,.01,0,.03,0,.04h27.03c-.69-.25-1.33-.64-1.85-1.16l-.1-.1c-.87-1.01-1.33-2.22-1.33-3.46,0-1.36.54-2.68,1.49-3.63.83-.89,2.17-1.43,3.56-1.43s2.62.49,3.56,1.37c1.01,1.01,1.56,2.32,1.56,3.69s-.56,2.65-1.58,3.59c-.46.5-1.07.88-1.75,1.13h90.13s-.09-.07-.13-.12c-.88-.91-1.41-2.22-1.41-3.48,0-1.35.53-2.62,1.51-3.58.9-.9,2.21-1.42,3.59-1.42s2.6.49,3.52,1.38c.69.62,1.55,1.78,1.55,3.63,0,1.34-.54,2.65-1.47,3.6h85.21s-.09-.07-.13-.11c-.88-.92-1.41-2.23-1.41-3.48,0-1.38.56-2.66,1.58-3.6.84-.9,2.14-1.45,3.53-1.45s2.69.54,3.63,1.47l.1.11c.87,1.02,1.33,2.23,1.33,3.47,0,1.34-.53,2.65-1.46,3.6h47.26c-.7-.26-1.33-.67-1.86-1.24-.91-.84-1.47-2.12-1.47-3.48,0-1.43.54-2.7,1.57-3.65.81-.88,2.11-1.41,3.51-1.41s2.64.5,3.54,1.38c.99.9,1.55,2.21,1.55,3.68,0,1.31-.56,2.65-1.51,3.58-.51.52-1.12.89-1.78,1.14h76.82c-.39-.74-.62-1.57-.62-2.41,0-1.36.54-2.68,1.49-3.62.9-.91,2.2-1.43,3.55-1.43s2.68.53,3.64,1.49c.89.89,1.43,2.22,1.43,3.56,0,.85-.23,1.67-.63,2.41h66.57v-30.08c-1.16-.09-2.34-.61-3.22-1.47-.95-.86-1.54-2.22-1.54-3.61,0-1.27.47-2.47,1.37-3.5l.12-.13.07-.06c.85-.8,2-1.26,3.2-1.34v-5.31l-39.67,22.12c.09.39.16.8.16,1.21,0,2.87-2.13,5.04-4.96,5.04-1.49,0-2.82-.59-3.74-1.67-.01-.01-.02-.03-.03-.04-19.26,8.98-44.24,11.61-66.85,7.89-.17,1.06-.66,2.05-1.41,2.81-.95.95-2.27,1.49-3.63,1.49s-2.63-.56-3.56-1.49c-.95-.94-1.49-2.27-1.49-3.62,0-.43.08-.86.18-1.27-5.93-1.53-11.59-3.54-16.82-6.02-8.77-2.23-16.93-5.37-24.08-9.36l-52.4-29.22c-15.71-2.76-34.3-.87-46.04,5.68l-9.7,5.41c.75.91,1.16,2.01,1.16,3.22,0,1.35-.53,2.62-1.51,3.58-.93.94-2.25,1.49-3.61,1.49s-2.68-.55-3.63-1.5l-.12-.13c-.47-.54-.8-1.15-1.02-1.8l-32.13,17.92c1.19.11,2.28.57,3.09,1.39.95.95,1.49,2.27,1.49,3.63s-.56,2.65-1.51,3.58c-.92.94-2.24,1.48-3.61,1.48s-2.68-.54-3.63-1.49l-.12-.13c-.83-.96-1.31-2.24-1.31-3.43,0-.77.19-1.53.52-2.22-4.97,2.69-10.4,4.91-16.13,6.67,2.92,1.08,2.54,6.2-1.15,6.2-2.96,0-3.79-3.28-2.5-5.15-5.84,1.56-11.94,2.65-18.15,3.28-.14,1.11-.62,2.15-1.45,2.96-.97.97-2.22,1.48-3.62,1.48s-2.75-.59-3.64-1.58c-.61-.62-1.02-1.4-1.24-2.25-17.62.4-35.43-2.84-49.94-9.71-2.02-.51-4-1.07-5.95-1.68.26.62.4,1.3.4,1.99,0,1.31-.56,2.65-1.5,3.58l-.1.09c-1.04.92-2.25,1.39-3.52,1.39s-2.63-.56-3.56-1.49c-.93-.92-1.49-2.25-1.49-3.56s.54-2.68,1.49-3.63c.32-.35.74-.63,1.19-.86-3.88-1.53-7.57-3.25-11.03-5.17l-96.37-53.75c-14.34-7.99-19.5-26.16-11.5-40.5,3.87-6.94,10.22-11.97,17.87-14.14,7.65-2.17,15.69-1.24,22.63,2.64l15.63,8.72c.22-.37.46-.73.77-1.04.93-.93,2.24-1.46,3.6-1.46s2.67.53,3.6,1.47c.94.94,1.49,2.26,1.49,3.62,0,.83-.23,1.62-.61,2.34l19.48,10.86c.85-.69,1.92-1.11,3.14-1.11,1.49,0,2.82.59,3.74,1.67.78.91,1.22,2.11,1.22,3.36,0,.19-.03.37-.05.56l14.59,8.14c.51-.17,1.05-.28,1.63-.28,1.49,0,2.82.59,3.74,1.67.54.63.9,1.39,1.08,2.21l23.33,13.01c13.68,7.63,40.53,7.63,54.2,0l54.78-30.55c15.34-8.56,35.27-13.27,56.1-13.27,14.12,0,27.82,2.17,39.97,6.24.71-.35,1.5-.56,2.33-.56,1.39,0,2.66.51,3.59,1.45.5.49.87,1.1,1.13,1.75,3.17,1.33,6.21,2.8,9.09,4.4l44.43,24.78c.12-.01.23-.04.36-.04,1.44,0,2.37.79,2.8,1.8l7.18,4.01c13.68,7.63,40.53,7.63,54.2,0l54.78-30.55c8.19-4.57,17.69-8.03,27.93-10.27v-14.02l-10.7,5.97c.63.91.97,1.9.97,2.95,0,1.27-.53,2.52-1.5,3.51-.86.96-2.22,1.55-3.62,1.55s-2.68-.54-3.63-1.49c-.45-.45-.8-.99-1.06-1.58l-7.34,4.09c-.22.35-.46.69-.76.99-.94.94-2.26,1.48-3.62,1.48-.02,0-.03,0-.05,0l-11.86,6.61c-.43.24-.88.47-1.32.7.15.11.3.21.44.34l.11.11.1.12c.83.97,1.29,2.18,1.29,3.42s-.46,2.5-1.27,3.46l-.14.16-.15.13c-1.02.89-2.23,1.36-3.49,1.36s-2.57-.51-3.52-1.44c-.98-.89-1.54-2.2-1.54-3.67,0-.07.02-.13.02-.2-27.04,10.83-63.36,10.12-89.19-2.11-8.77-2.23-16.93-5.37-24.08-9.36l-2.69-1.5c-.76.47-1.66.75-2.66.75-1.49,0-2.82-.59-3.74-1.67-.78-.91-1.21-2.09-1.21-3.33l-15.26-8.51c.81,1.9-.12,4.61-2.8,4.61-4,0-4.11-5.99-.37-6.38l-23.66-13.2c-15.71-2.76-34.3-.87-46.04,5.68l-33.62,18.75c.05.3.09.61.09.94,0,2.87-2.13,5.04-4.96,5.04-1.32,0-2.51-.49-3.41-1.36l-12.87,7.18c-21,11.71-50.64,14.92-76.38,9.64-.25.81-.67,1.57-1.27,2.17-.95.95-2.21,1.48-3.55,1.48s-2.65-.52-3.63-1.49c-.96-.94-1.49-2.21-1.49-3.56,0-.37.04-.73.11-1.08-4.28-1.31-8.39-2.88-12.27-4.7.08.36.13.73.13,1.11,0,1.31-.56,2.65-1.51,3.58-.92.94-2.24,1.48-3.61,1.48s-2.76-.59-3.65-1.58c-.9-.92-1.41-2.17-1.41-3.48s.54-2.68,1.49-3.63c0,0,.01-.01.02-.02-5.62-1.9-10.9-4.21-15.73-6.91l-2.11-1.18c-.65.28-1.33.44-2.01.44-1.28,0-2.53-.54-3.52-1.51-.77-.7-1.28-1.72-1.46-2.83l-67.9-37.87c-.19.31-.41.6-.66.86-.85.96-2.22,1.55-3.62,1.55-1.27,0-2.48-.48-3.5-1.37l-.09-.08c-.98-.97-1.53-2.3-1.53-3.67,0-.76.21-1.52.56-2.22l-10.54-5.88c-6.94-3.87-11.97-10.22-14.14-17.87-2.17-7.65-1.24-15.69,2.64-22.63,3.87-6.95,10.22-11.97,17.87-14.14,7.65-2.17,15.69-1.24,22.63,2.64l96.37,53.75c13.68,7.63,40.53,7.63,54.2,0l54.77-30.55c6.99-3.9,14.93-6.99,23.47-9.21-.22-.57-.34-1.17-.34-1.79,0-1.35.54-2.67,1.49-3.62.92-.92,2.23-1.44,3.61-1.44s2.66.51,3.59,1.44c.87.87,1.37,2.05,1.45,3.29,7.35-1.28,15.03-1.94,22.83-1.94,2.43,0,4.84.07,7.24.2-.98-.23-1.88-.74-2.56-1.49-.88-.92-1.41-2.22-1.41-3.48,0-1.4.57-2.68,1.61-3.63.86-.88,2.16-1.4,3.53-1.4s2.65.52,3.6,1.45c.97.96,1.5,2.23,1.5,3.58,0,1.28-.54,2.58-1.49,3.56-.77.86-1.95,1.4-3.19,1.51,17.58,1.14,34.12,5.64,47.28,12.98l11.15,6.22c.25-.03.49-.07.75-.07,1.38,0,2.7.54,3.62,1.47.49.44.87,1.02,1.13,1.67l38.12,21.26c2.8,1.56,6.15,2.79,9.82,3.72.51-2.25,2.4-3.84,4.82-3.84,1.49,0,2.82.59,3.74,1.67.78.91,1.22,2.11,1.22,3.36,0,.15-.02.3-.03.45,9.14.88,18.98.13,26.95-2.23.51-.67,1.31-1.13,2.41-1.13.26,0,.51.03.74.08,1.63-.62,3.15-1.31,4.54-2.08l52.83-29.46c-.07,0-.13.02-.2.02-1.35,0-2.62-.53-3.58-1.5-.94-.94-1.48-2.26-1.48-3.61,0-.25.04-.49.07-.73l-8.11,4.52c-9.99,5.57-21.94,9.22-34.49,10.94.17.13.35.25.5.41.96.95,1.49,2.22,1.49,3.57s-.54,2.68-1.5,3.63c-.94.96-2.21,1.49-3.56,1.49s-2.7-.55-3.64-1.5c-.94-.94-1.48-2.25-1.48-3.61,0-1.2.44-2.32,1.21-3.22-19.92,1.6-40.7-1.52-57.2-9.34-8.77-2.23-16.93-5.37-24.08-9.36l-52.4-29.22c-9.56-1.68-20.18-1.64-29.69.13.03.23.06.46.06.7,0,2.87-2.13,5.04-4.96,5.04-1.49,0-2.82-.59-3.74-1.67-.39-.46-.7-.99-.9-1.56-2.45.87-4.73,1.88-6.8,3.03l-41.68,23.25c1.67,1.77.93,5.5-2.22,5.5-1.79,0-2.8-1.2-3.04-2.57l-7.83,4.37c-7.37,4.11-15.8,7.17-24.76,9.19-.19,2.67-2.23,4.65-4.92,4.65-2.07,0-3.77-1.17-4.52-2.93-4.5.63-9.07,1.01-13.66,1.15-.16.23-.33.45-.53.64-.92.94-2.24,1.48-3.61,1.48s-2.62-.54-3.58-1.51c-.2-.19-.37-.42-.53-.65-15.15-.53-30.06-3.75-42.54-9.66-8.68-2.21-16.76-5.31-23.86-9.24-.89.73-1.99,1.16-3.16,1.16-1.35,0-2.68-.55-3.63-1.5-.94-.94-1.49-2.27-1.49-3.56,0-.23.04-.45.07-.67l-85.09-47.45c-.25.53-.57,1.02-.99,1.43-.92.94-2.24,1.48-3.61,1.48s-2.65-.56-3.58-1.51c-.96-.95-1.48-2.2-1.48-3.62,0-1.2.45-2.33,1.23-3.24-4.29-3.75-7.42-8.65-9.01-14.25-.64-2.25-1-4.54-1.11-6.82-.08,0-.15.02-.22.02-1.49,0-2.82-.59-3.74-1.67-.78-.91-1.22-2.11-1.22-3.36,0-2.87,2.13-5.04,4.96-5.04.51,0,.98.09,1.44.23.62-2.06,1.46-4.06,2.53-5.98.9-1.62,1.95-3.13,3.11-4.53-2.79-1.17-2.36-6.16,1.28-6.16,1.55,0,2.52.9,2.9,2.03,3.08-2.49,6.66-4.36,10.58-5.47.51-.15,1.02-.27,1.54-.39-.13-.47-.23-.96-.23-1.48,0-1.38.58-2.73,1.55-3.62.87-.88,2.16-1.41,3.52-1.41s2.69.53,3.62,1.46c.96.96,1.49,2.23,1.49,3.56,0,.31-.03.61-.09.9,3.9.43,7.71,1.64,11.24,3.6l44.87,25.02c-.44-.77-.7-1.67-.7-2.58,0-1.35.54-2.67,1.49-3.62.82-.89,2.16-1.44,3.56-1.44s2.62.49,3.57,1.38c1.01,1.01,1.55,2.31,1.55,3.68,0,1.45-.64,2.84-1.71,3.71-.87.84-2.07,1.32-3.33,1.35l41.38,23.08c.27-.53.61-1.03,1.06-1.43.84-.86,2.12-1.37,3.46-1.37s2.75.57,3.67,1.55c.94.92,1.49,2.21,1.49,3.5,0,.87-.27,1.73-.72,2.5,14.34,6,38.27,5.48,50.92-1.58l23.44-13.07c.11-1.27.65-2.42,1.56-3.21.86-.87,2.13-1.38,3.48-1.38.8,0,1.56.19,2.25.52l24.05-13.41c3.45-1.92,7.13-3.64,11-5.16-1.2-1.88-.35-5.07,2.56-5.07,1.99,0,3.01,1.49,3.08,3.03,8.62-2.83,18-4.73,27.76-5.57-.4-.24-.77-.51-1.09-.85-.92-.85-1.47-2.16-1.47-3.54s.54-2.63,1.51-3.58c.84-.91,2.19-1.47,3.59-1.47s2.65.53,3.57,1.46c.67.61,1.51,1.76,1.51,3.59,0,1.36-.55,2.68-1.5,3.63-.15.15-.32.27-.49.41,2.01-.09,4.03-.15,6.07-.15,9.07,0,17.96.89,26.38,2.61.51-.51,1.22-.85,2.16-.85,1.53,0,2.5.89,2.89,2,9,2.24,17.36,5.43,24.68,9.51l54.77,30.55c5.73,3.2,13.79,5.05,22.21,5.57-.02-.17-.04-.34-.04-.52,0-2.87,2.13-5.04,4.96-5.04,1.49,0,2.82.59,3.74,1.67.78.91,1.22,2.11,1.22,3.36,0,.18-.03.35-.05.52,7.21-.45,14.14-1.87,19.58-4.28-.84-.92-1.3-2.09-1.3-3.4s.53-2.6,1.49-3.56c.93-.93,2.24-1.46,3.59-1.46s2.67.53,3.59,1.46c.62.62,1.06,1.43,1.3,2.28l21.2-11.82c-1.94-1.66-1.27-5.71,2.01-5.71,1.92,0,2.94,1.39,3.07,2.87l22.41-12.5c8.19-4.57,17.69-8.03,27.93-10.27v-35.73c-1.2-.09-2.36-.57-3.21-1.4-.96-.85-1.55-2.21-1.55-3.62s.55-2.72,1.6-3.68c.79-.81,1.94-1.29,3.15-1.38v-46.14h-88.36c.4.22.78.47,1.09.79.98.98,1.49,2.23,1.49,3.63,0,1.31-.56,2.65-1.51,3.58l-.08.08c-1.04.92-2.25,1.4-3.53,1.4s-2.65-.56-3.58-1.51c-.95-.94-1.48-2.2-1.48-3.55,0-1.44.56-2.79,1.55-3.68.29-.29.64-.53,1.01-.74h-9.52c-.21.36-.46.7-.75,1l-.11.1c-1.04.91-2.23,1.39-3.45,1.39-1.31,0-2.67-.59-3.64-1.57-.27-.27-.5-.59-.71-.92h-41.4c-.48,2.29-2.4,3.91-4.84,3.91-1.49,0-2.82-.59-3.74-1.67-.54-.63-.9-1.41-1.08-2.24h-31.53c-.09,2.79-2.17,4.87-4.94,4.87-1.49,0-2.82-.59-3.74-1.67-.75-.87-1.17-2-1.2-3.2h-26.89c.19.55.3,1.14.3,1.75,0,2.87-2.13,5.04-4.96,5.04-1.49,0-2.82-.59-3.74-1.67-.78-.91-1.22-2.11-1.22-3.36,0-.63.12-1.21.31-1.75h-12.14c-.91.81-2.13,1.3-3.34,1.3-1.3,0-2.44-.46-3.35-1.3h-18.09c-.23.03-.45.07-.68.07-.22,0-.44-.04-.65-.07h-85.51c-.89,1.22-2.31,1.99-3.98,1.99s-3.09-.77-3.98-1.99h-174.37c.4.22.78.47,1.09.79.98.98,1.49,2.23,1.49,3.63,0,1.31-.56,2.65-1.51,3.58l-.08.08c-1.04.92-2.25,1.4-3.53,1.4s-2.65-.56-3.58-1.51c-.95-.94-1.48-2.2-1.48-3.55,0-1.44.56-2.79,1.55-3.68.29-.29.64-.53,1.01-.74h-9.52c-.21.36-.46.7-.75,1l-.11.1c-1.04.91-2.23,1.39-3.45,1.39-1.31,0-2.67-.59-3.64-1.57-.27-.27-.5-.59-.71-.92h-19.81v16.47c.3.19.59.41.85.68.94.93,1.49,2.25,1.49,3.62s-.54,2.67-1.49,3.62l-.12.12c-.23.2-.47.37-.72.52v24.2c.28.17.54.37.78.6,1.01.99,1.56,2.3,1.56,3.69s-.53,2.6-1.49,3.56c-.26.26-.54.48-.84.68v11.42c.16-1.45,1.18-2.79,3.06-2.79,4.13,0,4.13,6.41,0,6.41-1.88,0-2.9-1.33-3.06-2.79v59.91c.3.19.59.41.85.67.94.94,1.49,2.26,1.49,3.62s-.54,2.62-1.51,3.58c-.26.26-.53.48-.83.67v23.35c.89-.69,1.97-1.09,3.13-1.09,1.32,0,2.57.49,3.51,1.37l.13.12c.96,1.09,1.43,2.3,1.43,3.56,0,1.35-.54,2.67-1.49,3.62-.91.92-2.19,1.43-3.62,1.43-1.18,0-2.22-.36-3.08-1.03v78.25c.3.19.58.41.84.67.93.93,1.49,2.27,1.49,3.56,0,1.37-.55,2.7-1.51,3.64-.25.25-.53.47-.83.66v38.72c.24-.03.49-.07.74-.07,1.36,0,2.66.53,3.59,1.46.96.95,1.49,2.22,1.49,3.57s-.5,2.64-1.5,3.63c-.94.96-2.21,1.49-3.56,1.49-.26,0-.51-.04-.77-.08v87.44h55.97c-.39-.74-.62-1.57-.62-2.41,0-1.36.54-2.68,1.49-3.62.9-.91,2.2-1.43,3.55-1.43s2.68.53,3.64,1.49c.89.89,1.43,2.22,1.43,3.56Zm607.93-40.54l-26.33-14.69c-9.72-1.71-20.54-1.63-30.16.22v84.9H223v25.08h598.56v-95.52Zm-8.63-52.01c-26.02-14.51-68.34-14.5-94.36,0l-54.78,30.55c-19.19,10.7-52.86,10.7-72.05,0l-54.77-30.55c-26.01-14.51-68.34-14.51-94.36,0l-54.78,30.54c-19.19,10.7-52.86,10.7-72.05,0l-96.37-53.75c-2.67-1.49-5.76-1.85-8.71-1.01-2.94.84-5.38,2.77-6.87,5.44-1.49,2.67-1.85,5.76-1.01,8.7.84,2.94,2.77,5.38,5.44,6.87l96.37,53.75c26.01,14.5,68.34,14.5,94.36,0l54.77-30.55c19.19-10.7,52.86-10.7,72.05,0l54.77,30.55c26.01,14.5,68.34,14.51,94.36,0l54.78-30.55c9.6-5.35,22.81-8.03,36.02-8.03s26.43,2.68,36.03,8.03l96.38,53.75c1.73.96,3.6,1.45,5.56,1.45,4.16,0,8-2.25,10.02-5.88,3.08-5.51,1.09-12.5-4.42-15.58l-96.38-53.75Zm-47.18-29.27c20.7,0,40.5,4.66,55.81,13.11v-21.6l-26.33-14.69c-9.72-1.71-20.54-1.63-30.16.22v22.96c.23,0,.46,0,.69,0Zm132.41,13.25c1.73.96,3.6,1.45,5.56,1.45,4.16,0,8-2.25,10.02-5.88,3.07-5.51,1.09-12.5-4.42-15.58l-96.38-53.75c-26.02-14.51-68.34-14.51-94.36,0l-54.78,30.55c-19.19,10.7-52.86,10.7-72.05,0l-54.77-30.55c-26.01-14.51-68.34-14.51-94.36,0l-54.78,30.55c-19.19,10.7-52.86,10.7-72.05,0l-96.37-53.75c-2.67-1.49-5.77-1.85-8.71-1.02-2.94.84-5.38,2.77-6.87,5.44-1.49,2.67-1.85,5.76-1.01,8.7.84,2.94,2.77,5.38,5.44,6.87l96.37,53.75c26.01,14.5,68.34,14.5,94.36,0l54.77-30.55c19.19-10.7,52.86-10.7,72.05,0l54.77,30.55c26.01,14.51,68.34,14.51,94.36,0l54.78-30.55c9.6-5.35,22.81-8.03,36.02-8.03s26.43,2.68,36.03,8.03l96.38,53.75Z"/>
      </g>
    </g>
  </g>
</svg>