<?xml version="1.0" encoding="UTF-8"?>
<svg id="Layer_8_copy" data-name="Layer 8 copy" xmlns="http://www.w3.org/2000/svg" viewBox="0 0 1000 1000">
  <defs>
    <style>
      .cls-1 {
        fill: #fff;
      }

      .cls-2 {
        fill: #ffff68;
      }

      .cls-3 {
        fill: #ff67e2;
      }

      .cls-4 {
        fill: #7be0ff;
      }

      .cls-5 {
        fill: #50f8c3;
      }
    </style>
  </defs>
  <g id="Layer_22" data-name="Layer 22">
    <g id="Elements_copy" data-name="Elements copy">
      <g>
        <g>
          <polygon class="cls-1" points="137.18 74.64 850.83 74.64 784.31 225.19 213.65 225.19 137.18 74.64"/>
          <polygon class="cls-1" points="128.47 682.25 87.49 641.27 215.45 513.32 256.96 553.77 128.47 682.25"/>
          <polygon class="cls-4" points="270.05 540.72 228.49 500.23 385.48 343.24 426.5 384.26 270.05 540.72"/>
          <polygon class="cls-1" points="161.36 936.63 72.62 847.89 270.29 650.23 359.59 738.4 161.36 936.63"/>
          <polygon class="cls-3" points="372.68 725.35 283.34 637.14 526.34 394.13 615.12 482.91 372.68 725.35"/>
          <path class="cls-2" d="m512.96,839.32l-69.42-136.69,182.74-182.74c3.91-3.91,3.91-10.24,0-14.15l-3.97-3.97,12.36-12.36c3.6-3.6,3.6-9.43,0-13.03l-101.81-101.81c-3.6-3.6-9.43-3.6-13.03,0l-161.08,161.08-19.4-38.2,106.7-106.7c3.6-3.6,3.6-9.43,0-13.03l-54.05-54.05c-1.73-1.73-4.07-2.7-6.51-2.7s-4.79.97-6.51,2.7l-84.81,84.81-80.67-158.84h560l-260.53,589.66Z"/>
          <path class="cls-3" d="m561.07,893.78l-23.98-47.21L800.82,249.67h4.62c4.85,0,9.24-2.86,11.2-7.29l53.74-121.62h32.24l-341.55,773.02Z"/>
          <polygon class="cls-5" points="611.93 921.14 589.96 877.87 849.66 290.09 905.03 164.78 946.12 164.78 611.93 921.14"/>
        </g>
        <g>
          <path d="m128.47,704.56c-2.37,0-4.73-.9-6.53-2.71l-54.05-54.05c-3.61-3.61-3.61-9.46,0-13.07l140.94-140.94c3.58-3.58,9.36-3.61,12.98-.08l54.75,53.35c1.77,1.73,2.78,4.09,2.79,6.56.02,2.47-.96,4.85-2.71,6.59l-141.64,141.64c-1.8,1.8-4.17,2.71-6.53,2.71Zm-40.98-63.29l40.98,40.98,128.49-128.49-41.51-40.45-127.95,127.95Z"/>
          <path d="m805.44,249.67H206.14c-4.61,0-8.83-2.59-10.91-6.7L106.19,67.68c-1.93-3.79-1.75-8.32.48-11.95,2.23-3.63,6.18-5.84,10.43-5.84h765.79c4.14,0,8,2.09,10.26,5.56s2.61,7.84.94,11.63l-77.45,175.29c-1.96,4.43-6.35,7.29-11.2,7.29Zm-591.8-24.48h583.82l66.63-150.81H137.05l76.6,150.81Z"/>
          <path d="m981.71,141.59c-2.77-4.25-7.5-6.81-12.57-6.81h-50.86l8.83-19.98c1.37-3.09,1.08-6.67-.77-9.5-1.85-2.83-5-4.54-8.38-4.54h-51.35l14.83-33.57c.58-1.3.9-2.67,1.01-4.06l.44-1h-.4c0-2.39-.66-4.76-2-6.82-2.31-3.54-6.25-5.68-10.47-5.68H104.22c-4.35,0-8.38,2.26-10.65,5.96-2.27,3.7-2.46,8.32-.49,12.2l89.03,175.29,93.46,184.02-66.72,66.72c-1.74,1.74-2.71,4.11-2.7,6.57.02,2.46,1.02,4.82,2.78,6.54l5.65,5.5c-2.43,1.41-1.91,6,1.59,6,1.41,0,2.33-.76,2.77-1.74l8.9,8.67c.19,1.31,1.1,2.49,2.71,2.64l18.15,17.69c-1.06.15-2.05.61-2.89,1.39-.96.96-1.49,2.23-1.49,3.56,0,1.42.52,2.67,1.49,3.63.93.94,2.27,1.49,3.57,1.49s2.68-.54,3.62-1.48c.81-.8,1.3-1.87,1.44-3.01l9.24,9c1.79,1.74,4.11,2.61,6.43,2.61s4.72-.9,6.51-2.7l44.13-44.13,19.4,38.2-76.03,76.03c-.14.12-.28.24-.41.37l-210.69,210.69c-3.61,3.61-3.61,9.46,0,13.07l17.68,17.68c-2.72,3.9-2.35,9.3,1.13,12.78l87.66,87.66c3.91,3.91,10.24,3.91,14.15,0l204.27-204.27,47.04-47.04,77.65,152.9c2.13,4.2,6.45,6.84,11.14,6.84.11,0,.23,0,.34,0,4.83-.13,9.15-3.03,11.1-7.44l1.48-3.34,26.12,51.44c1.71,3.36,5.16,5.47,8.91,5.47.09,0,.18,0,.27,0,3.86-.1,7.32-2.42,8.88-5.96l3.46-7.84,25.2,49.61c2.56,5.04,7.74,8.21,13.37,8.21.13,0,.27,0,.41,0,5.79-.16,10.97-3.63,13.32-8.93L982.87,155.84c2.05-4.64,1.62-10-1.15-14.25Zm-711.69,399.14l-41.55-40.49,157.01-157.01,41.02,41.02-156.48,156.48Zm-174.73,284.49l27.23-27.23,2.17,11.16,8.99-1.75-3.35-17.22,30.39-30.39,19.66-12.09-2.88-4.69,81.49-81.49-3.08,5.39,7.95,4.54,6.97-12.2-6.1-3.48,5.55-5.55,26.88,26.54.22,2.89-.24.02,3.49,45.31,9.13-.7-.24-3.15.24-.02-2.66-34.53,25.2,24.88-1.28,1.9,7.6,5.12.32-.47,4.6,4.55-2.59,2.43,1.58,1.68-1.58,1.49,6.27,6.67,4.48-4.21,7.88,7.78-26.17,26.17-24.46-31.21-7.21,5.65,25.14,32.08-9.65,9.65-30.59-30.59-6.48,6.48,30.59,30.59-17.18,17.18,3.4-6.08-7.99-4.48-19.27,34.41-67.64,67.64,2.65-4.42-8.71-5.23-4.71,7.85,7.85,4.71-12.88,12.88-46.39-4.97-.82,7.62-38.16-38.16,2.54-1.76-5.22-7.53-3.9,2.71-13.91-13.91,3.72-19.34,9.24-9.24-.44,7.13,48.15,3,.57-9.14-46.38-2.88Zm57.62,102.95l-12.13-12.13,37.2,3.98-11.14,11.14-13.92-2.98Zm219.77-202.82l-89.34-88.21,243.01-243.01,88.78,88.78-242.44,242.44Zm140.28,113.97l-69.42-136.69,182.74-182.74c3.91-3.91,3.91-10.24,0-14.15l-3.97-3.97,12.36-12.36c3.6-3.6,3.6-9.43,0-13.03l-101.81-101.81c-3.6-3.6-9.43-3.6-13.03,0l-161.08,161.08-19.4-38.2,106.7-106.7c3.6-3.6,3.6-9.43,0-13.03l-54.05-54.05c-1.73-1.73-4.07-2.7-6.51-2.7s-4.79.97-6.51,2.7l-84.81,84.81-89.76-176.74-13.59-26.76c1.32.46,2.69.7,4.07.7,3.19,0,6.39-1.23,8.81-3.67,4.82-4.87,4.79-12.72-.08-17.54l-32.49-32.19c-2.46-2.44-5.69-3.62-8.9-3.58l-37.62-74.07h39.11c1.56.7,3.27,1.09,5.04,1.09.69,0,1.39-.06,2.09-.18,1.05-.18,2.04-.5,2.97-.91h60.01l2.2,3.11c2.42,3.42,6.25,5.25,10.14,5.25,2.47,0,4.97-.74,7.14-2.27,2.21-1.56,3.74-3.71,4.56-6.09h78.21c1.68,4.87,6.29,8.36,11.72,8.36.04,0,.07,0,.11,0,5.4-.04,9.95-3.54,11.61-8.36h127.94c1.91,1.1,4.05,1.68,6.22,1.68s4.28-.56,6.21-1.68h101.58c-3.28,1.2-6.04,3.77-7.36,7.31l-15.99,42.86c-2.39,6.42.87,13.56,7.29,15.96,1.43.53,2.89.79,4.33.79,5.03,0,9.76-3.08,11.62-8.07l15.99-42.86c2.39-6.42-.87-13.56-7.29-15.96-.02,0-.04-.01-.06-.02h101.38c-2.03.64-3.93,1.8-5.47,3.5l-29.03,32.09c-4.6,5.08-4.2,12.92.88,17.52,2.37,2.15,5.35,3.21,8.32,3.21,3.38,0,6.75-1.38,9.2-4.08l29.03-32.09c4.6-5.08,4.2-12.92-.88-17.52-1.37-1.24-2.93-2.1-4.58-2.62h93.03c1.56.7,3.27,1.09,5.04,1.09.69,0,1.39-.06,2.09-.18,1.05-.18,2.04-.5,2.97-.91h28.85l-6.15,13.92-14.6-10.06c-5.64-3.89-13.37-2.46-17.25,3.18s-2.46,13.37,3.18,17.25l18.47,12.72-17.23,39c-4.82-3.09-11.3-2.52-15.5,1.72-4.82,4.87-4.79,12.72.08,17.54l4.8,4.76-6.28,14.22c-3.75-1.03-7.92-.29-11.16,2.37l-35.34,29.04c-5.19,4.26-6.01,11.85-1.95,17.13h20.18l10.7-8.8-269.83,610.69Zm48.11,54.45l-23.98-47.21L857.78,120.76h44.84l-341.55,773.02Zm50.87,27.36l-21.97-43.27,259.7-587.78,55.37-125.31h41.09l-334.19,756.36Zm-480.16-293.51c0,2.87-2.13,5.04-4.96,5.04-1.49,0-2.82-.59-3.74-1.67-.78-.91-1.22-2.11-1.22-3.36,0-2.87,2.13-5.04,4.96-5.04,1.49,0,2.82.59,3.74,1.67.78.91,1.22,2.11,1.22,3.36Zm-4.13,66.87s.08-.01.13-.01c.47,0,.91.08,1.33.19l-.64.64-.82-.82Zm-6.89-86.43c4.13,0,4.13,6.41,0,6.41s-4.13-6.41,0-6.41Zm2.56-8.96c-2.27,0-3.28-1.94-3.06-3.68l2.69-2.69c.12-.01.23-.04.36-.04,4.13,0,4.13,6.41,0,6.41Zm14.83,77.85c-.9-.89-1.42-2.16-1.42-3.5s.55-2.7,1.5-3.64c.88-.88,2.17-1.39,3.52-1.39s2.66.51,3.59,1.4c.97.86,1.56,2.22,1.56,3.63s-.54,2.67-1.49,3.62c-.97.97-2.23,1.49-3.63,1.49s-2.75-.59-3.63-1.61Zm-7.96-9.23c-.94.96-2.21,1.49-3.56,1.49-1.43,0-2.78-.59-3.7-1.63-.88-.91-1.41-2.22-1.41-3.48,0-1.35.54-2.62,1.51-3.58.83-.89,2.17-1.44,3.56-1.44s2.69.53,3.62,1.46c.96.95,1.49,2.22,1.49,3.57s-.54,2.68-1.49,3.62Zm-21.01-23.59c.97.97,1.49,2.22,1.49,3.62s-.53,2.62-1.51,3.58c-.93.94-2.25,1.49-3.61,1.49s-2.68-.55-3.63-1.5l-.12-.13c-.85-.99-1.31-2.2-1.31-3.44,0-1.39.52-2.65,1.49-3.63.82-.89,2.17-1.44,3.58-1.44s2.7.53,3.61,1.44Zm-14.06-20.87c-.93.94-2.24,1.48-3.61,1.48-.18,0-.35-.03-.52-.05l5.58-5.58c.02.19.06.38.06.57,0,1.35-.54,2.62-1.51,3.58Zm-19.14,19.57l-1.56-1.56,4.35-4.35c.1.41.17.84.17,1.28,0,2.14-1.19,3.89-2.96,4.64Zm60.14,6.86c-4.13,0-4.13-6.41,0-6.41s4.13,6.41,0,6.41Zm-34.58-17.93c-4.13,0-4.13-6.41,0-6.41s4.13,6.41,0,6.41Zm6.97,43.6c.22-.05.46-.07.72-.07,2.34,0,3.35,2.05,3.04,3.83l-3.76-3.76Zm-6.97-11.6c3.57,0,4.04,4.77,1.45,6.08l-4.26-4.26c.43-1.02,1.36-1.82,2.81-1.82Zm84.52-33.3c2.55,0,3.52,2.45,2.92,4.32l-1.94,1.94c-.3.09-.62.15-.98.15-4.13,0-4.13-6.41,0-6.41Zm-4.42-56.5c.94.94,1.49,2.26,1.49,3.62s-.56,2.65-1.51,3.58c-.94.95-2.2,1.48-3.55,1.48s-2.69-.55-3.64-1.51c-.91-.9-1.42-2.16-1.42-3.55,0-1.26.47-2.52,1.29-3.48l.11-.12c.94-.94,2.25-1.46,3.63-1.46s2.66.51,3.59,1.45Zm7.62-10.72c-4.13,0-4.13-6.41,0-6.41s4.13,6.41,0,6.41Zm1.59,24.75c.91-.91,2.23-1.44,3.61-1.44s2.66.51,3.59,1.45c.94.94,1.49,2.26,1.49,3.62s-.54,2.62-1.51,3.58c-.93.94-2.25,1.48-3.61,1.48s-2.68-.55-3.63-1.5l-.12-.12c-.83-.96-1.31-2.24-1.31-3.44,0-1.36.54-2.68,1.49-3.62Zm-4.74,22.33c.87-.97,2.2-1.54,3.64-1.54s2.76.57,3.68,1.56c.9.89,1.42,2.17,1.42,3.49s-.47,2.47-1.37,3.49l-.09.1c-.96.98-2.29,1.53-3.66,1.53s-2.64-.57-3.63-1.55l-.11-.11c-.87-1.02-1.32-2.23-1.32-3.45,0-1.31.51-2.55,1.44-3.51Zm-38.35,9.38c-.86.96-2.22,1.55-3.62,1.55s-2.68-.54-3.63-1.5l-.12-.12c-.92-1.07-1.38-2.24-1.38-3.5,0-1.38.57-2.67,1.61-3.61.85-.87,2.15-1.38,3.51-1.38s2.61.48,3.56,1.36c1.03,1.03,1.56,2.28,1.56,3.63s-.52,2.57-1.5,3.58Zm92.25-48.73c-1.3,0-2.63-.56-3.56-1.49-.97-.97-1.49-2.23-1.49-3.62s.53-2.63,1.5-3.58c.92-.92,2.23-1.44,3.58-1.44s2.67.53,3.6,1.46c.96.95,1.49,2.22,1.49,3.57s-.54,2.68-1.49,3.62c-.95.95-2.27,1.49-3.63,1.49Zm-14.03-29.25c-1.3,0-2.63-.56-3.57-1.49-.96-.94-1.49-2.21-1.49-3.56s.51-2.66,1.49-3.63c.93-.93,2.24-1.46,3.6-1.46s2.67.53,3.6,1.46c.95.95,1.49,2.27,1.49,3.63s-.56,2.65-1.51,3.58c-.94.94-2.26,1.48-3.62,1.48Zm-55.28,58.01c4.13,0,4.13,6.41,0,6.41s-4.13-6.41,0-6.41Zm49.35-16.42c1.03-.96,2.28-1.46,3.65-1.46s2.67.52,3.61,1.47c.94.94,1.49,2.26,1.49,3.62s-.59,2.67-1.58,3.59c-.85.92-2.16,1.47-3.54,1.47s-2.56-.51-3.51-1.44c-.96-.86-1.54-2.22-1.54-3.62s.51-2.71,1.43-3.63Zm-39.37-46.61c.81.96,1.27,2.22,1.27,3.46s-.46,2.45-1.28,3.41l-.13.15-.15.13c-1.02.9-2.23,1.37-3.49,1.37-1.36,0-2.68-.55-3.63-1.5-.22-.22-.42-.46-.59-.72l7.07-7.07c.25.16.49.34.71.54l.11.11.1.12Zm-21.17,109.87c.9.88,1.43,2.17,1.43,3.5s-.54,2.68-1.49,3.62c-.94.94-2.27,1.49-3.63,1.49s-2.65-.56-3.59-1.57c-.91-.85-1.46-2.16-1.46-3.54s.53-2.63,1.5-3.58c.84-.91,2.19-1.47,3.59-1.47s2.73.56,3.65,1.55Zm-20.21-70.18c.71.89,1.11,2.02,1.11,3.22,0,2.87-2.13,5.04-4.96,5.04-1.24,0-2.35-.43-3.22-1.19l7.07-7.07Zm22.42-20.04c1.03,1.03,1.58,2.34,1.58,3.72s-.56,2.65-1.51,3.58c-.94.94-2.26,1.48-3.61,1.48s-2.68-.54-3.63-1.49c-.44-.43-.77-.93-1.02-1.47l6.73-6.73c.48.21.94.47,1.34.82l.12.11Zm-10.62,35.17c.87-.92,2.16-1.46,3.54-1.46s2.67.54,3.59,1.47c.93.84,1.51,2.2,1.51,3.59s-.5,2.63-1.49,3.62l-.11.11c-.98.86-2.2,1.32-3.45,1.32-1.37,0-2.7-.55-3.64-1.5-.95-.95-1.48-2.21-1.48-3.55s.57-2.64,1.53-3.6Zm48.69-75.62c.1.41.17.84.17,1.28,0,2.87-2.13,5.04-4.96,5.04-.47,0-.91-.08-1.34-.19l6.13-6.13Zm6.96,25.77c.78.91,1.22,2.11,1.22,3.36,0,2.87-2.13,5.04-4.96,5.04-1.49,0-2.82-.59-3.74-1.67-.78-.91-1.22-2.11-1.22-3.36,0-2.87,2.13-5.04,4.96-5.04,1.49,0,2.82.59,3.74,1.67Zm-46.32,89.08c-1.49,0-2.82-.59-3.74-1.67-.78-.91-1.22-2.11-1.22-3.36,0-2.87,2.13-5.04,4.96-5.04,1.49,0,2.82.59,3.74,1.67.78.91,1.22,2.11,1.22,3.36,0,2.87-2.13,5.04-4.96,5.04Zm51.94-19.33l-2.76,2.76c.5-1.28,1.48-2.27,2.76-2.76Zm-.08-39.25c-1.49,0-2.82-.59-3.74-1.67-.78-.91-1.22-2.11-1.22-3.36,0-2.87,2.13-5.04,4.96-5.04,1.49,0,2.82.59,3.74,1.67.78.91,1.22,2.11,1.22,3.36,0,2.87-2.13,5.04-4.96,5.04Zm-4.45-445.67l-40.02-27.56c-5.64-3.89-7.07-11.61-3.18-17.25,3.89-5.64,11.61-7.07,17.25-3.18l40.02,27.56c5.64,3.89,7.07,11.61,3.18,17.25-2.41,3.49-6.28,5.37-10.23,5.37-2.43,0-4.88-.71-7.03-2.19Zm62.39,73.53c4.36,5.28,3.62,13.1-1.66,17.46l-24.14,19.94h-31.43c-.11-3.69,1.42-7.39,4.49-9.93l35.27-29.14c5.28-4.36,13.1-3.62,17.46,1.66Zm-54.86-31.32c-2.16,1.5-4.63,2.23-7.08,2.23-3.92,0-7.78-1.85-10.19-5.32-3.92-5.62-2.53-13.35,3.09-17.27l45.87-31.95c5.62-3.92,13.35-2.53,17.27,3.09,3.92,5.62,2.53,13.35-3.09,17.27l-45.87,31.95Zm85.03-71.36c4.35-5.29,12.17-6.06,17.46-1.71l35.34,29.03c5.29,4.35,6.06,12.17,1.71,17.46-2.45,2.99-6.01,4.53-9.59,4.53-2.77,0-5.56-.92-7.87-2.82l-35.34-29.03c-5.29-4.35-6.06-12.17-1.71-17.46Zm454.24,10.23c-1.98-6.56,1.74-13.48,8.3-15.46,6.56-1.98,13.48,1.74,15.46,8.3l13.21,43.81c1.98,6.56-1.74,13.48-8.3,15.46-1.19.36-2.4.53-3.58.53-5.33,0-10.25-3.46-11.87-8.83l-13.21-43.81Zm-432.28,91.2c-1.66,0-3.34-.33-4.96-1.04l-41.92-18.33c-6.28-2.74-9.14-10.06-6.4-16.33s10.06-9.14,16.33-6.4l41.92,18.33c6.28,2.74,9.14,10.06,6.4,16.33-2.04,4.66-6.59,7.44-11.37,7.44Zm393.91,36.46c.18.73.28,1.47.33,2.2h-60.86c.36-.13.73-.24,1.11-.33l44.41-10.94c6.66-1.64,13.37,2.42,15.01,9.08Zm-94.63-111.48c-2.23-7.98,2.44-16.26,10.43-18.49,7.99-2.23,16.26,2.44,18.49,10.43l15.66,56.17c2.23,7.98-2.44,16.26-10.43,18.49-1.35.38-2.7.56-4.04.56-6.57,0-12.6-4.35-14.45-10.98l-15.66-56.17Zm-58.04,107.5l2.64,6.18h-26.39c-.56-5.27,2.33-10.51,7.46-12.7,6.3-2.69,13.59.23,16.28,6.53Zm-178.7-38.05c4.39,5.26,3.69,13.08-1.57,17.47l-32.05,26.76h-30.38c-.35-3.91,1.16-7.92,4.4-10.63l42.13-35.17c5.26-4.39,13.08-3.69,17.47,1.57Zm268.19,32.11l-44.41,10.94c-1,.25-2,.36-2.98.36-5.58,0-10.64-3.78-12.04-9.44-1.64-6.65,2.43-13.37,9.08-15.01l44.41-10.94c6.65-1.64,13.37,2.42,15.01,9.08,1.64,6.65-2.43,13.37-9.08,15.01Zm92.06-68.84c3.87,5.65,2.42,13.37-3.23,17.24l-37.74,25.83c-2.14,1.47-4.58,2.17-7,2.17-3.96,0-7.84-1.89-10.25-5.4-3.87-5.65-2.42-13.37,3.23-17.24l37.74-25.83c5.65-3.87,13.37-2.42,17.24,3.23Zm-160.75,40.12c3.2,6.06.88,13.56-5.18,16.76-1.85.97-3.83,1.44-5.78,1.44-4.45,0-8.76-2.4-10.98-6.62l-21.36-40.46c-3.2-6.06-.88-13.56,5.18-16.76,6.06-3.2,13.56-.88,16.76,5.18l21.36,40.46Zm-51.37-20.25l-15.19,43.14c-1.79,5.1-6.58,8.29-11.7,8.29-1.37,0-2.76-.23-4.12-.71-6.46-2.28-9.86-9.36-7.58-15.82l15.19-43.14c2.28-6.46,9.36-9.86,15.82-7.58,6.46,2.28,9.86,9.36,7.58,15.82Zm-111.64-66.84l-4.37,46.8c-.6,6.43-6.01,11.25-12.34,11.25-.39,0-.78-.02-1.17-.05-6.82-.64-11.83-6.68-11.2-13.5l4.37-46.8c.64-6.82,6.7-11.84,13.5-11.2,6.82.64,11.83,6.68,11.2,13.5Zm34.1,28.76c-3.6-5.83-1.79-13.47,4.04-17.07l38.93-24.04c5.83-3.6,13.47-1.79,17.07,4.04,3.6,5.83,1.79,13.47-4.04,17.07l-38.93,24.04c-2.03,1.25-4.28,1.85-6.51,1.85-4.16,0-8.22-2.09-10.57-5.89Zm-27.59,97.35l36.58,1.81h-43.68c2.05-1.26,4.5-1.93,7.1-1.81Zm44.89-68.16l-23.78,41.69c-2.29,4.01-6.48,6.26-10.79,6.26-2.08,0-4.19-.53-6.13-1.63-5.95-3.39-8.02-10.97-4.63-16.92l23.78-41.69c3.39-5.95,10.97-8.02,16.92-4.63,5.95,3.39,8.02,10.97,4.63,16.92ZM184.28,855.27l8.12,4.24-22.56,43.26-8.12-4.24,22.56-43.26Zm27.06-36.28l6.48,6.48-5.23,5.23-6.48-6.48,5.23-5.23Zm13.92-14.62l-9.16.17-.93-48.79,9.16-.17.93,48.79Zm17.89,20.46l-41.18,26.15-4.91-7.73,41.18-26.15,4.91,7.73Zm36.65-95.81l8.98-1.8,1.74,8.71-8.98,1.8-1.74-8.71Zm-8.65,56.94l-5.08-7.62,5.23-3.49,5.08,7.62-5.23,3.49Zm-3.53-65.8l.67-3.02-.67-.15,10.46-47.05,8.94,1.99-.67,3.02.67.15-10.46,47.05-8.94-1.99Zm-94.69,126.45l-22.57,43.26-8.12-4.24,22.57-43.26,8.12,4.24Zm-11.59-16.32l-11.16-45.48,8.9-2.18,11.16,45.48-8.9,2.18Zm36.55-54.94l-6.97-5.23,5.5-7.33,6.97,5.23-5.5,7.33Zm-11.23,38.29l-21.62-43.74,8.21-4.06,21.62,43.74-8.21,4.06Zm-90.79,39.2l48.48-5.54,1.04,9.1-48.48,5.54-1.04-9.1Zm145.75-134.44l8.71,1.74-1.8,8.98-8.71-1.74,1.8-8.98Zm1.47,36.23l9.1,1.02-5.17,46.17-9.1-1.02,5.17-46.17Zm-38.21-22.65l1.58-1.42-1.58-1.75,46.73-42.12,6.13,6.8-1.58,1.42,1.58,1.75-46.73,42.12-6.13-6.8Zm33.22,5.15l1.74,5.23-8.69,2.9-1.74-5.23,8.69-2.9Zm13.05,94.97l5.56,7.28-33.26,25.39-5.56-7.28,33.26-25.39Z"/>
        </g>
      </g>
    </g>
  </g>
</svg>