<?xml version="1.0" encoding="UTF-8"?>
<svg id="Layer_8_copy" data-name="Layer 8 copy" xmlns="http://www.w3.org/2000/svg" viewBox="0 0 1000 1000">
  <defs>
    <style>
      .cls-1 {
        fill: #f59;
      }

      .cls-2 {
        fill: #ffff32;
      }

      .cls-3 {
        fill: #ffff68;
      }

      .cls-4 {
        fill: #ee91ff;
      }

      .cls-5 {
        fill: #7be0ff;
      }

      .cls-6 {
        fill: #8e88ff;
      }

      .cls-7 {
        fill: #8972ff;
      }
    </style>
  </defs>
  <g id="Layer_22" data-name="Layer 22">
    <g id="Elements_copy" data-name="Elements copy">
      <g>
        <g>
          <path d="m126.35,694.03l-19.16,5.5v14.36l22.97-6.59c3.66-1.05,5.78-4.87,4.73-8.54-1.05-3.66-4.86-5.78-8.54-4.73Z"/>
          <path d="m135.88,500.37c.25.03.49.04.73.04,3.49,0,6.48-2.63,6.85-6.18l3.86-36.67c.4-3.79-2.35-7.19-6.14-7.58-3.77-.4-7.18,2.35-7.58,6.14l-3.86,36.67c-.4,3.79,2.35,7.19,6.14,7.58Z"/>
          <path d="m113.29,489.63c2.19,0,4.35-1.04,5.69-2.99,2.16-3.14,1.37-7.44-1.77-9.6l-10.02-6.9v16.76l2.19,1.51c1.2.82,2.56,1.22,3.91,1.22Z"/>
          <path d="m114.36,443.47c.38,0,.77-.03,1.16-.1,3.76-.64,6.29-4.2,5.65-7.96l-6.17-36.35c-.63-3.71-4.11-6.22-7.82-5.67v42.08l.38,2.24c.57,3.37,3.49,5.75,6.79,5.75Z"/>
          <path d="m134.41,561.25c-3.55-1.38-7.55.38-8.93,3.93l-16.46,42.27c-1.38,3.55.38,7.55,3.93,8.93.82.32,1.67.47,2.5.47,2.76,0,5.37-1.67,6.43-4.4l16.46-42.27c1.38-3.55-.38-7.55-3.93-8.93Z"/>
          <path d="m205,487.66c-3.26-1.97-7.5-.92-9.47,2.34l-19.05,31.57c-1.97,3.26-.92,7.5,2.34,9.47,1.12.67,2.34.99,3.56.99,2.34,0,4.62-1.19,5.91-3.34l19.05-31.57c1.97-3.26.92-7.5-2.34-9.47Z"/>
          <path d="m208.56,579.77c-1.92-3.29-6.14-4.41-9.43-2.49-3.29,1.92-4.41,6.14-2.49,9.43l18.55,31.87c1.28,2.2,3.59,3.43,5.97,3.43,1.18,0,2.37-.3,3.46-.94,3.29-1.92,4.41-6.14,2.49-9.43l-18.55-31.87Z"/>
          <path d="m229.49,770.4c-3.27-1.88-7.43-.77-9.35,2.45l11.98.25c-.59-1.09-1.47-2.03-2.62-2.7Z"/>
          <path d="m111.01,509.98c-1.08-1.07-2.42-1.7-3.82-1.91v17.56l20.3,20.11c1.35,1.33,3.1,2,4.86,2s3.55-.68,4.9-2.04c2.68-2.71,2.66-7.08-.05-9.76l-26.2-25.95Z"/>
          <path d="m166.99,596.16c-3.52-1.47-7.56.2-9.02,3.72l-16.54,39.77c-1.46,3.52.2,7.56,3.72,9.02.87.36,1.76.53,2.65.53,2.7,0,5.27-1.6,6.37-4.25l16.54-39.77c1.46-3.52-.2-7.56-3.72-9.02Z"/>
          <path d="m168.03,460.82c1.34,1.9,3.48,2.92,5.64,2.92,1.38,0,2.76-.41,3.97-1.26,3.11-2.2,3.86-6.5,1.66-9.62l-25.88-36.66c-2.2-3.11-6.5-3.86-9.62-1.66-3.11,2.2-3.86,6.5-1.66,9.62l25.88,36.66Z"/>
          <path d="m181,547.3l-28.43,23.49c-2.94,2.43-3.35,6.78-.92,9.71,1.36,1.65,3.34,2.51,5.32,2.51,1.55,0,3.1-.52,4.39-1.58l28.43-23.49c2.94-2.43,3.35-6.78.92-9.71-2.43-2.94-6.78-3.35-9.71-.92Z"/>
          <path d="m397.2,569.08l14.5,33.9c1.12,2.62,3.67,4.19,6.35,4.19.91,0,1.83-.18,2.71-.56,3.5-1.5,5.13-5.55,3.63-9.06l-14.5-33.9c-1.5-3.5-5.55-5.13-9.06-3.63-3.5,1.5-5.13,5.55-3.63,9.06Z"/>
          <path d="m118.53,262.48c-2.5-2.87-6.86-3.17-9.74-.67l-1.6,1.4v18.3l10.67-9.3c2.87-2.5,3.17-6.86.67-9.74Z"/>
          <path d="m380.99,565.13c.76.27,1.53.39,2.29.39,2.85,0,5.51-1.77,6.51-4.61l12.25-34.78c1.27-3.59-.62-7.53-4.22-8.8-3.6-1.27-7.53.62-8.8,4.22l-12.25,34.78c-1.27,3.59.62,7.53,4.22,8.8Z"/>
          <path d="m258.07,710.57c1.24,0,2.49-.33,3.62-1.03l31.37-19.38c3.24-2,4.25-6.26,2.24-9.5-2-3.24-6.26-4.25-9.5-2.24l-31.37,19.38c-3.24,2-4.25,6.26-2.24,9.5,1.3,2.11,3.56,3.27,5.88,3.27Z"/>
          <path d="m349.86,542.67l-33.62-1.66c2.1,4.82,4.46,9.54,7.04,14.16l25.91,1.28c.12,0,.23,0,.35,0,3.65,0,6.7-2.87,6.89-6.56.19-3.81-2.75-7.04-6.55-7.23Z"/>
          <path d="m141.77,251.98c.79,0,1.58-.14,2.32-.41-6.56-3.73-13.23-7.64-19.07-11.32l12.37,10.16c1.28,1.05,2.83,1.57,4.38,1.57Z"/>
          <path d="m176.19,481.38l-36.98,25.76c-3.13,2.18-3.9,6.48-1.72,9.61,1.34,1.93,3.49,2.96,5.67,2.96,1.36,0,2.74-.4,3.94-1.24l36.98-25.76c3.13-2.18,3.9-6.48,1.72-9.61-2.18-3.13-6.48-3.9-9.61-1.72Z"/>
          <path d="m401.89,620.55c2.43,0,4.78-1.28,6.04-3.56,1.85-3.33.64-7.53-2.7-9.38l-32.28-17.87c-3.33-1.84-7.53-.64-9.38,2.7-1.85,3.33-.64,7.53,2.7,9.38l32.28,17.87c1.06.59,2.21.86,3.34.86Z"/>
          <path d="m210.23,407.26l-15.43,47.36c-1.18,3.62.8,7.52,4.42,8.7.71.23,1.43.34,2.14.34,2.91,0,5.61-1.85,6.56-4.76l15.43-47.36c1.18-3.62-.8-7.52-4.42-8.7-3.62-1.18-7.52.8-8.7,4.42Z"/>
          <path d="m179.15,415.58c1.24,0,2.49-.33,3.62-1.03l31.37-19.39c3.24-2,4.25-6.26,2.24-9.5-2-3.24-6.26-4.25-9.5-2.24l-31.37,19.39c-3.24,2-4.25,6.26-2.24,9.5,1.3,2.11,3.56,3.27,5.88,3.27Z"/>
          <path d="m175,269.15c-2.95,2.42-3.38,6.77-.96,9.71,1.36,1.66,3.34,2.52,5.34,2.52,1.54,0,3.09-.51,4.37-1.57l3.78-3.1c-3.9-2.5-7.81-5-11.71-7.5-.14-.09-.32-.2-.52-.32l-.3.25Z"/>
          <path d="m366.03,535.42l-2.19-44.41c-.19-3.81-3.46-6.74-7.23-6.55-3.81.19-6.74,3.43-6.55,7.23l2.19,44.41c.18,3.69,3.23,6.56,6.89,6.56.12,0,.23,0,.35,0,3.81-.19,6.74-3.43,6.55-7.23Z"/>
          <path d="m961.43,783.29c-2.44-2.93-6.79-3.33-9.72-.89l-6.38,5.31,17.68.36c.09-1.67-.42-3.38-1.58-4.77Z"/>
          <path d="m126.24,677.23c1.16,0,2.33-.29,3.4-.9,3.31-1.88,4.47-6.1,2.59-9.41l-22.89-40.27c-.55-.96-1.29-1.73-2.15-2.31v26.46l13.04,22.94c1.27,2.24,3.6,3.49,6.01,3.49Z"/>
          <path d="m737.09,770.4c-3.31-1.9-7.52-.75-9.42,2.55l-5.83,10.17,15.72.32,2.08-3.63c1.9-3.31.75-7.52-2.55-9.42Z"/>
          <path d="m807.75,769.62l-18.15,14.9,21.22.43,5.68-4.66c2.95-2.42,3.38-6.77.96-9.71-2.42-2.95-6.77-3.37-9.71-.96Z"/>
          <path d="m720.82,754.32c-2.42-2.95-6.77-3.38-9.71-.96l-28.5,23.39c-1.71,1.41-2.57,3.46-2.51,5.52l17.12.35,22.66-18.59c2.95-2.42,3.38-6.77.96-9.71Z"/>
          <path d="m653.76,747.35l-28.49-23.39c-2.95-2.42-7.29-1.99-9.71.95-2.42,2.95-1.99,7.29.95,9.71l28.49,23.39c1.28,1.05,2.83,1.57,4.38,1.57,1.99,0,3.97-.86,5.34-2.52,2.42-2.95,1.99-7.29-.95-9.71Z"/>
          <path d="m259.81,732.7c-1.5-3.5-5.55-5.13-9.06-3.63-3.5,1.5-5.13,5.55-3.63,9.06l14.5,33.9c.27.63.62,1.19,1.04,1.69l10.43.21c1.74-1.94,2.32-4.78,1.22-7.33l-14.5-33.9Z"/>
          <path d="m920.87,771.88c.85,0,1.71-.16,2.54-.49,3.54-1.4,5.28-5.42,3.87-8.96l-6.43-16.2c-6.63-4.25-13.26-8.49-19.9-12.74l13.49,34.03c1.07,2.71,3.67,4.36,6.42,4.36Z"/>
          <path d="m657.23,669.9c-3.81.18-6.75,3.4-6.57,7.21l1.92,41.54c.17,3.7,3.22,6.58,6.89,6.58.11,0,.22,0,.32,0,3.81-.18,6.75-3.4,6.57-7.21l-1.92-41.54c-.18-3.81-3.39-6.76-7.21-6.57Z"/>
          <path d="m694.6,605.41c-2.98,1.29-4.71,4.55-3.97,7.84l9.79,43.5c.72,3.21,3.57,5.39,6.72,5.39.5,0,1.01-.06,1.52-.17,3.72-.84,6.05-4.53,5.22-8.25l-9.49-42.19c-3.3-2-6.57-4.03-9.78-6.11Z"/>
          <path d="m971.85,778.88l7.04,5.77c1.28,1.05,2.83,1.57,4.37,1.57.02,0,.03,0,.05,0-3.82-2.45-7.64-4.89-11.46-7.34Z"/>
          <path d="m900.81,766.89c-3.76.64-6.29,4.2-5.65,7.96l2.01,11.87,14.05.29-2.45-14.46c-.64-3.76-4.2-6.28-7.96-5.65Z"/>
          <path d="m758.49,676.24c-.31,3.8,2.52,7.13,6.32,7.43.19.02.38.02.56.02,3.56,0,6.58-2.74,6.87-6.34l2.02-24.98c-2.25-1.44-4.5-2.88-6.74-4.32-2.12-1.36-4.26-2.69-6.43-4.02l-2.6,32.21Z"/>
          <path d="m843.02,745.77c.88.38,1.8.56,2.71.56,2.68,0,5.23-1.57,6.35-4.19l13.42-31.36-11.78-7.54-14.32,33.47c-1.5,3.5.13,7.56,3.63,9.06Z"/>
          <path d="m818.47,704.17c-.36,3.79,2.42,7.16,6.22,7.52.22.02.44.03.66.03,3.52,0,6.52-2.68,6.86-6.25l1.44-15.08c-4.36-2.79-8.71-5.58-13.07-8.37l-2.11,22.14Z"/>
          <path d="m696.08,709.27c-3.26-1.97-7.5-.93-9.48,2.33l-19.09,31.54c-1.97,3.26-.93,7.5,2.33,9.48,1.12.68,2.35,1,3.57,1,2.33,0,4.61-1.19,5.91-3.33l19.09-31.54c1.97-3.26.93-7.5-2.33-9.48Z"/>
          <path d="m641.85,774.02c-3.09,1.13-4.87,4.24-4.46,7.37l14.63.3-1.31-3.57c-1.31-3.58-5.28-5.41-8.85-4.1Z"/>
          <path d="m393.21,766.89c-3.76.64-6.29,4.2-5.65,7.96l.24,1.43,14.05.29-.68-4.03c-.64-3.76-4.19-6.29-7.96-5.65Z"/>
          <path d="m406.09,728.15c-1.4-3.54-5.42-5.27-8.96-3.87-3.54,1.4-5.28,5.42-3.87,8.96l13.59,34.28c1.07,2.71,3.67,4.36,6.42,4.36.85,0,1.71-.16,2.54-.49,3.54-1.4,5.28-5.42,3.87-8.96l-13.59-34.28Z"/>
          <path d="m445.79,696.83c1.32,1.21,2.99,1.81,4.66,1.81,1.87,0,3.73-.75,5.09-2.24,2.57-2.81,2.38-7.18-.43-9.75l-27.19-24.9c-2.81-2.57-7.17-2.38-9.75.43-2.57,2.81-2.38,7.18.43,9.75l27.19,24.9Z"/>
          <path d="m355.35,699.18c-3.5-1.5-7.56.13-9.06,3.63l-14.5,33.9c-1.5,3.5.13,7.56,3.63,9.06.88.38,1.8.56,2.71.56,2.68,0,5.23-1.57,6.35-4.19l14.5-33.9c1.5-3.5-.13-7.56-3.63-9.06Z"/>
          <path d="m313.52,739.18l-28.37-23.55c-2.93-2.44-7.28-2.03-9.72.9-2.43,2.93-2.03,7.28.9,9.72l28.37,23.55c1.29,1.07,2.85,1.59,4.4,1.59,1.98,0,3.95-.85,5.31-2.49,2.43-2.93,2.03-7.28-.9-9.72Z"/>
          <path d="m410.87,717.11c3.46,0,6.45-2.6,6.85-6.13.43-3.79-2.3-7.2-6.08-7.63l-36.64-4.13c-3.78-.42-7.2,2.3-7.63,6.08-.43,3.79,2.3,7.2,6.08,7.63l36.64,4.13c.26.03.52.04.78.04Z"/>
          <path d="m622.2,767.84c-3.75-.71-7.35,1.76-8.06,5.5l-1.42,7.54,13.99.29.99-5.28c.71-3.75-1.76-7.35-5.5-8.06Z"/>
          <path d="m557.36,743.75c-2.32-3.02-6.65-3.59-9.67-1.27l-34.55,26.54c-3.02,2.32-3.59,6.65-1.27,9.68.03.05.07.08.11.13l10.76.22,33.35-25.62c3.02-2.32,3.59-6.65,1.27-9.68Z"/>
          <path d="m480.04,773.99l-28.5-23.39c-2.95-2.42-7.29-1.99-9.71.96-2.42,2.95-1.99,7.29.96,9.71l20.18,16.56,19.51.4c-.26-1.6-1.07-3.12-2.43-4.23Z"/>
          <path d="m549.74,774.24c-1.27,1.55-1.75,3.49-1.49,5.33l19.35.4-8.15-6.68c-2.94-2.42-7.29-1.99-9.71.96Z"/>
          <path d="m472.07,706.31c-1.05-3.66-4.87-5.78-8.54-4.73l-35.44,10.17c-3.66,1.05-5.78,4.87-4.73,8.54.87,3.03,3.63,5,6.63,5,.63,0,1.27-.09,1.91-.27l35.44-10.17c3.66-1.05,5.78-4.87,4.73-8.54Z"/>
          <polygon class="cls-4" points="340.67 251.61 190.73 171.42 346.31 80.37 340.67 251.61"/>
          <path class="cls-1" d="m413.52,808.12l-40.81-35.19,6.93-14.91c1.61-3.46.11-7.56-3.35-9.16-3.46-1.61-7.56-.1-9.17,3.35l-5.28,11.36-3.67-3.16c-1.99-1.71-4.13-3.17-6.39-4.37-.1-3.51-2.84-6.43-6.41-6.68l-18.87-1.32c-3.79-.26-7.1,2.6-7.37,6.4-.04.57,0,1.12.09,1.66-3.71,1.99-7.06,4.65-9.89,7.93-1.17,1.36-2.21,2.78-3.13,4.25-2.05-.51-4.3-.09-6.05,1.35l-5.79,4.75,8.75.18c-3.85,10.37-2.51,22.12,3.71,31.39l-164.27-3.37c9.69-.45,19.14-4.92,25.61-13.11l13.74-17.4,20.07.41,10.29-8.45c2.95-2.42,3.38-6.77.96-9.71-2.42-2.95-6.77-3.37-9.71-.96l-19.43,15.94,36.32-45.99-5.03,13.48c-1.33,3.57.48,7.54,4.05,8.88.79.3,1.61.44,2.41.44,2.8,0,5.43-1.71,6.47-4.49l12.89-34.55c1.2-3.21-.16-6.75-3.04-8.39,2.21-5.37,3.03-11.24,2.34-17.16-.66-5.62-2.64-10.87-5.73-15.41l13.4-17.44c2.32-3.02,1.75-7.35-1.27-9.68-3.02-2.32-7.35-1.75-9.67,1.27l-12.41,16.16c-5.86-3.77-12.53-5.55-19.14-5.46l-9.16-40.72c-.84-3.72-4.53-6.06-8.25-5.22-3.72.84-6.05,4.53-5.22,8.25l9.14,40.6c-5.03,2.2-9.62,5.63-13.25,10.23l-2.19,2.78-7.87-14.44c-1.82-3.35-6.02-4.58-9.36-2.76-3.35,1.82-4.58,6.01-2.76,9.36l10.69,19.62-9.9,12.53-.68-14.7c-.18-3.81-3.44-6.77-7.21-6.57-3.81.18-6.75,3.4-6.57,7.21l1.05,22.64c.1,2.08,1.1,3.9,2.62,5.1l-32.92,41.69c-11.83,14.99-9.27,36.81,5.72,48.64h0c5.48,4.32,11.87,6.72,18.35,7.3l-66.48-1.36v-467.41c.68,1.33,1.45,2.62,2.31,3.87,5.25,7.61,13.16,12.73,22.25,14.4l11.23,2.06v23.72l10.46-17.33c.81-1.34,1.1-2.85.95-4.3l14.42,2.65c-.37.1-.74.23-1.1.4-3.45,1.62-4.93,5.73-3.3,9.18l17.25,36.66c1.18,2.5,3.66,3.96,6.25,3.96.98,0,1.98-.21,2.93-.66,3.45-1.62,4.93-5.73,3.3-9.18l-17.25-36.66c-.51-1.07-1.25-1.96-2.15-2.61l29.98,5.5-1.61.06c-3.81.15-6.77,3.36-6.62,7.17.15,3.72,3.2,6.63,6.89,6.63.09,0,.18,0,.28,0l20.54-.81c3.81-.15,6.77-3.36,6.62-7.17-.02-.38-.07-.75-.14-1.12l4.41.81c1.02.19,2.04.33,3.05.42l29.73,19.03c-.2.38-.38.77-.51,1.19-1.16,3.63.83,7.51,4.46,8.68l4.31,1.38c-8.3,13.16-15,28.65-19.52,45.32-6.04,22.23-7.88,45.46-5.56,68.8-.47.75-.79,1.6-.94,2.53l-4.7,29.16c-.61,3.76,1.95,7.3,5.71,7.91.37.06.74.09,1.11.09,2.4,0,4.59-1.27,5.83-3.25,1.19,4.14,2.49,8.28,3.94,12.39.54,1.53,1.1,3.05,1.67,4.57l-4.16,3.47c-2.93,2.44-3.32,6.79-.88,9.72,1.36,1.63,3.33,2.48,5.3,2.48,1.56,0,3.13-.53,4.42-1.6l.84-.7c6.55,14.52,14.63,28.4,24.09,41.41-1.53,1.14-2.59,2.91-2.76,4.97l-3.82,47.34c-.31,3.8,2.52,7.13,6.32,7.43.19.02.38.02.56.02,3.56,0,6.58-2.74,6.87-6.34l3.24-40.11c7.39,8.79,15.44,17.1,24.09,24.84,7.22,6.45,14.78,12.35,21.26,17.21l-2.37,24.87c-.36,3.79,2.42,7.16,6.22,7.52.22.02.44.03.66.03,3.52,0,6.52-2.68,6.86-6.25l1.76-18.49c2.27.76,4.64,1.33,7.05,1.71,3.21.87,6.47,1.29,9.72,1.29,8.84,0,17.57-3.11,24.74-8.72l35.37-8.52c3.71-.89,5.99-4.62,5.09-8.32-.89-3.71-4.62-5.98-8.32-5.09l-16.94,4.08c5.13-11.12,6.19-22.61,2.94-32.66-3.44-10.62-9.68-18.83-20.25-26.62,0,0,0,0,0,0-.25-.18-.5-.37-.75-.56-3.95-3.2-7.76-6.52-11.43-9.93l-.47-22.7c-.08-3.76-3.15-6.76-6.9-6.76-.05,0-.1,0-.14,0-3.81.08-6.83,3.23-6.76,7.04l.17,8.07c-2.02-2.25-3.99-4.54-5.89-6.86-7.26-9.95-13.42-20.36-18.37-31.07-3.69-9.64-6.42-19.54-8.16-29.56-.08-.87-.15-1.73-.22-2.6.65,4.19,1.52,8.34,2.6,12.42,1.6-.51,3.02-1.58,3.91-3.15l19.17-33.61c1.89-3.31.74-7.52-2.57-9.41-3.31-1.89-7.52-.73-9.41,2.57l-14.08,24.68c-.24-6.44-.07-12.85.51-19.18,1.41-8.03,3.51-15.81,6.25-23.24,2.2-4.61,4.67-9.02,7.38-13.23l68.76,44.02-8.57,5.29c-3.24,2-4.25,6.25-2.25,9.5,1.3,2.11,3.56,3.28,5.88,3.28,1.24,0,2.49-.33,3.62-1.03l14.22-8.78,15.37,9.84c-.18.08-.36.16-.54.25-3.37,1.78-4.66,5.95-2.88,9.32l17.22,32.61c1.01,1.91,2.78,3.13,4.74,3.53-.95,10.02-1.78,20.41-2.11,30.96-3.13.45-5.65,3.01-5.9,6.3-.28,3.6,2.27,6.77,5.78,7.33.19,12.53,1.31,25.13,3.96,37.46-1.07-.92-2.44-1.52-3.95-1.64l-36.77-2.8c-3.8-.29-7.11,2.56-7.4,6.36s2.56,7.11,6.36,7.4l36.77,2.8c.18.01.36.02.53.02,2.85,0,5.35-1.76,6.38-4.31,2.61,9.53,6.22,18.84,11.17,27.76,5.6,10.11,12.73,19.05,20.63,25.84,8.5,7.32,16.89,12.78,27.42,17.72-.61.81-1.05,1.77-1.25,2.83l-6.82,36.23c-.71,3.75,1.76,7.35,5.5,8.06.43.08.86.12,1.29.12,3.25,0,6.15-2.31,6.77-5.62l6.82-36.23c.01-.07.02-.14.03-.21,12.27,4.42,25.28,6.1,36.57,7.14,1.03.56,2.16.85,3.3.85.85,0,1.7-.17,2.5-.48,1.41.06,2.83.09,4.24.09,4.21,0,8.41-.25,12.55-.73l13.63,41.35c.96,2.9,3.65,4.74,6.55,4.74.72,0,1.44-.11,2.16-.35,3.62-1.19,5.59-5.09,4.39-8.71l-13.03-39.54c1.41-.36,2.81-.75,4.17-1.17,7.09-2.19,13.88-5.17,20.25-8.84l29.1-8.35c3.66-1.05,5.78-4.87,4.73-8.54-.95-3.32-4.18-5.36-7.51-4.93,4.98-5.81,9.31-12.19,12.85-19.04,2.42-4.69,4.52-9.41,6.35-14.15l16.96,10.86,8.34,15.31c1.25,2.3,3.62,3.6,6.06,3.6,1.12,0,2.25-.27,3.3-.84,1.81-.99,3-2.67,3.42-4.54l40.38,25.85-9.66,25.91c-1.33,3.57.48,7.54,4.05,8.88.79.3,1.61.44,2.41.44,2.8,0,5.43-1.71,6.47-4.49l8.62-23.12,15.73,10.07c-.64.08-1.27.24-1.89.5-3.5,1.5-5.13,5.55-3.63,9.06l14.5,33.9c1.12,2.62,3.67,4.19,6.35,4.19.91,0,1.83-.18,2.71-.56,3.5-1.5,5.13-5.55,3.63-9.06l-14.24-33.28,62.61,40.09,2.4,11.98,14.13.29-.39-1.94,53.64,34.35-486.56-9.97Z"/>
          <path class="cls-5" d="m124.04,754.62l65.1-82.45c7.38-9.34,20.98-10.94,30.32-3.56,4.53,3.57,7.39,8.69,8.06,14.42.67,5.73-.92,11.37-4.5,15.9l-65.1,82.45c-7.38,9.34-20.98,10.94-30.32,3.56h0c-9.34-7.38-10.94-20.98-3.57-30.32Z"/>
          <path class="cls-4" d="m354.64,627.47c10.64,4.84,14.92,18.38,9.55,30.17h0c-5.37,11.79-18.39,17.45-29.03,12.61-5.04-2.29-8.83-6.61-10.68-12.16-1.93-5.79-1.53-12.18,1.12-18.01s7.21-10.33,12.84-12.68c2.67-1.12,5.43-1.67,8.15-1.67s5.49.58,8.03,1.74Z"/>
          <path class="cls-1" d="m438.63,531.59c-.12,1.06-.24,2.13-.36,3.2l-9.87-18.7,11.15,7.14c-.3,2.79-.61,5.58-.92,8.36Z"/>
          <path class="cls-4" d="m898.69,478.49c13.98,0,25.35,11.37,25.35,25.35s-11.37,25.35-25.35,25.35-25.35-11.37-25.35-25.35,11.37-25.35,25.35-25.35Z"/>
          <path class="cls-1" d="m573.45,608.96c-1.35,7.07-3,13.33-5.05,19.04-1.09,2.19-2.24,4.24-3.47,6.17-.45.47-.9.93-1.36,1.38-.25.15-.49.29-.74.43-.86.25-1.73.48-2.62.69-3.03.14-6.17.08-9.48-.18-4.43-.82-8.52-1.87-12.35-3.17-1.46-.76-2.86-1.56-4.21-2.41-.66-.63-1.31-1.27-1.94-1.94-.79-1.26-1.54-2.58-2.25-3.93-1.34-3.98-2.42-8.28-3.25-12.98-1.08-10.97-1.09-22.14-.53-33.35l47.25,30.25Z"/>
          <path class="cls-2" d="m387.04,336.5c23.61-.94,47.87,4.21,68.33,14.52,22.16,11.16,38.62,27.66,47.61,47.71,8.29,18.49,12.67,37.94,13.77,61.21.84,17.68-.53,35.64-2.13,52.42-.71,7.44-1.59,15.12-2.44,22.54-2.7,23.63-5.48,47.94-3.93,72.19-.18.93-.21,1.91-.08,2.91l1.32,9.82s0,.01,0,.02v.02c.17,1.27.6,2.45,1.23,3.48.04.14.07.29.11.43-.13,1.43.07,2.92.67,4.33l1.37,3.25c.12,1.7.73,3.39,1.85,4.84h0s0,.01,0,.01l.41.53.09.21c.29.68.65,1.31,1.08,1.88.59,1.32,1.5,2.52,2.72,3.46l1.01.78.48.62c.89,1.15,2,2.02,3.22,2.61.75.7,1.63,1.28,2.63,1.7.03.01.07.03.1.04l.05.03c1.3,1,2.78,1.59,4.29,1.8l4.41,1.86c1.39.59,2.84.8,4.25.68.22.06.45.12.67.17,1.04.64,2.23,1.08,3.51,1.25l9.85,1.32c.12.02.23.03.34.04,1.14.31,2.35.41,3.6.24h0s0,0,0,0l2.88-.39c1.34.3,2.76.3,4.15-.04,2.14.17,4.36-.43,6.19-1.85h0s.03-.02.04-.03l1.17-.9c.98-.29,1.91-.76,2.76-1.38h.03c2.17-.93,3.79-2.6,4.7-4.59.92-1.02,1.58-2.23,1.94-3.5l.88-1.14c.88-1.14,1.45-2.44,1.71-3.76l2.9-6.87c.5-1.2.73-2.44.71-3.67,1.25-4.23,2.34-8.7,3.3-13.48.37-.8.63-1.66.75-2.58l1.32-9.85c.1-.77.11-1.53.02-2.26,1.84-20.6,1.56-41.51,1.04-62.84l-.12-4.64c-.48-19.17-.94-37.27,1.74-55.53,5.03-34.36,32.72-65.81,65.84-74.77,18.43-4.99,38.07-2.65,55.29,6.58,15.72,8.42,29.54,24.23,38.93,44.51,7.28,15.73,12.82,33.01,17.96,56.02l.56,2.52c2.92,13.1,5.92,26.54,10.37,39.68.07.96.29,1.92.69,2.86l3.72,8.81s.01.03.02.04h0c.49,1.17,1.2,2.18,2.06,3,.65,1.17,1.31,2.33,1.98,3.46.28,1.25.83,2.45,1.66,3.53l5.79,7.5c.6.78,1.3,1.43,2.08,1.95.9,1.55,2.27,2.84,4,3.64,1.38,1.59,3.33,2.7,5.58,3l.15.02c.37.11.75.2,1.13.26,1.13.6,2.39.97,3.72,1.05,1.32.31,2.66.31,3.93.03.52.06,1.06.06,1.59.02,1.92.11,3.75-.39,5.29-1.35l.76-.1c2.21-.3,4.12-1.37,5.5-2.91,0,0,.01,0,.02-.01l.13-.05c1.48-.62,2.71-1.6,3.62-2.79l4.49-3.47c.96-.74,1.73-1.64,2.3-2.64.83-.54,1.58-1.22,2.21-2.04l5.79-7.5c.72-.93,1.23-1.96,1.53-3.02,1.85-2.95,3.6-5.99,5.26-9.13.72-.76,1.31-1.66,1.75-2.68l3.74-8.85c.45-1.07.68-2.18.71-3.27.65-2.04,1.24-4.08,1.78-6.11,7.89,8.17,18.94,13.27,31.17,13.27,9.31,0,17.94-2.96,25.01-7.98-3.53,18.43-10.43,36.18-20.38,52.15-14.86,23.86-34.06,40.42-57.07,49.23-9.69,3.71-20.65,5.21-30.85,4.21-12.08-1.18-20.81-3.57-31.12-8.55-6.7-3.23-12.79-8.12-18.46-12.85-17.44-14.55-30.81-38.83-39.75-72.16-1.04-3.89-1.99-9.46-3.09-15.91-2.25-13.2-5.04-29.63-10.71-42.94-5.29-12.43-15.56-27.05-34.3-26.16-8.34.4-15.46,3.67-20.61,9.46-12.59,14.19-10.79,39.43-9.47,57.85.24,3.32.44,6.19.52,8.51.14,4.4.33,8.85.52,13.15.69,16.07,1.34,31.24-.25,46.51-2.08,19.91-5.71,43.18-16.88,64.79-10.05,19.45-27.81,34.3-48.74,40.76-10.1,3.12-21.9,4.27-33.2,3.24-10.89-.99-23.51-2.59-34.51-6.96-13.61-5.4-22.59-10.68-32.04-18.82-6.3-5.42-12.05-12.66-16.63-20.93-18.05-32.57-15.92-73.12-12.5-108.58.69-7.17,1.51-14.54,2.3-21.67,2.85-25.59,5.78-51.92,3.94-78.23.16-.89.18-1.81.05-2.75l-1.32-9.83s0,0,0-.01h0c-.16-1.17-.52-2.24-1.06-3.2-.45-1.93-.93-3.83-1.46-5.68.05-1.29-.17-2.61-.7-3.88l-3.74-8.85c-.14-.33-.3-.65-.47-.96-.28-.63-.64-1.23-1.08-1.8l-5.79-7.5c-.59-.76-1.28-1.41-2.04-1.92l-7.06-5.46c-.74-.57-1.55-1.01-2.38-1.32-.59-.44-1.24-.82-1.94-1.12l-8.85-3.74c-1.15-.49-2.33-.69-3.52-.71-2.31-.69-4.65-1.33-7.03-1.89-.99-.58-2.11-.97-3.32-1.13l-9.81-1.32s-.02,0-.03,0h-.01c-1.33-.18-2.64-.06-3.85.31-2.93-.07-5.87-.04-8.82.07-1.08-.27-2.22-.34-3.39-.19l-9.81,1.32s-.02,0-.02,0h-.02c-1.24.17-2.39.58-3.41,1.19-4.07.96-8.11,2.1-12.1,3.4-1.01.05-2.04.28-3.03.7l-8.85,3.73c-1.11.47-2.08,1.14-2.88,1.95-3.41,1.83-6.74,3.79-9.98,5.87-1.01.31-1.98.8-2.86,1.48l-7.5,5.79c-.95.73-1.71,1.62-2.28,2.6-2.08,1.95-4.1,3.96-6.04,6.03-.99.57-1.89,1.34-2.63,2.3l-5.79,7.5c-.77,1-1.3,2.11-1.6,3.25-1.31,2.12-2.56,4.29-3.76,6.5-.8.8-1.47,1.77-1.94,2.88l-3.73,8.85c-.47,1.12-.7,2.29-.71,3.44-1.28,4.11-2.39,8.29-3.33,12.54-.48.91-.81,1.92-.96,3l-1.32,9.85c-.16,1.21-.08,2.4.22,3.51-.23,5.39-.19,10.81.11,16.25-.22,1-.27,2.04-.12,3.11l1.32,9.85c.15,1.12.5,2.16,1.01,3.09,1.43,6.5,3.23,12.93,5.4,19.27.08.92.3,1.84.68,2.73l3.73,8.83s0,0,0,.01h0c.41.99.98,1.86,1.66,2.6,3.89,7.59,8.34,15.03,13.3,22.25.3.74.71,1.46,1.22,2.12l5.73,7.42s.04.05.06.08c.59.76,1.27,1.4,2.03,1.92,5.57,6.35,11.56,12.45,17.91,18.26-3.71.4-7.4,1.34-11,2.84-9.84,4.1-17.76,11.86-22.3,21.83-2.51,5.51-3.82,11.36-3.93,17.19-.44-.39-.89-.77-1.33-1.17-27.78-24.82-48.81-55.96-60.81-90.05-12.57-35.71-14.3-72.69-4.99-106.93,4.82-17.73,12.28-33.86,21.58-46.66,10.88-14.97,22.7-26.82,38.32-38.43,24.33-18.08,55.92-28.76,88.97-30.09Z"/>
          <path d="m263.96,372.3c-2.36,2.38-4.65,4.82-6.88,7.33l-5.59-3.58,12.46-3.75Z"/>
          <path class="cls-6" d="m222.74,323.87l3.6,18.77c-1.34,4.88-4.32,9.1-8.54,12.01-4.75,3.27-10.48,4.51-16.15,3.46l-103.33-18.96c-5.67-1.04-10.6-4.23-13.87-8.97-3.27-4.75-4.5-10.48-3.46-16.15h0c1.04-5.67,4.23-10.6,8.97-13.87,3.65-2.52,7.88-3.82,12.21-3.82,1.31,0,2.63.12,3.94.36l103.33,18.96c5.36.98,10.04,3.9,13.3,8.23Z"/>
          <path d="m78.89,292.31c-3.09,2.8-5.62,6.1-7.5,9.77v-14.57l7.5,4.8Z"/>
          <polygon class="cls-3" points="82.11 852.3 82.11 823.89 331.68 829 365.44 858.11 82.11 852.3"/>
          <path class="cls-7" d="m416.72,876.76c-5.75.42-11.32-1.41-15.69-5.18l-79.57-68.6c-9.01-7.77-10.02-21.43-2.25-30.44,3.76-4.37,9-7.01,14.76-7.43.54-.04,1.09-.06,1.63-.06,5.17,0,10.11,1.83,14.06,5.24l79.56,68.6c4.37,3.77,7.01,9.01,7.43,14.76.43,5.75-1.41,11.32-5.18,15.69-3.76,4.37-9,7.01-14.75,7.43Z"/>
          <path class="cls-3" d="m930.18,869.68l-480.72-9.86c.31-2.34.39-4.74.21-7.15-.6-8.14-3.98-15.65-9.58-21.45l444.25,9.11,45.84,29.35Z"/>
        </g>
        <path d="m134.88,698.76c1.05,3.66-1.06,7.48-4.73,8.54l-22.97,6.59v-14.36l19.16-5.5c3.67-1.05,7.49,1.07,8.54,4.73Zm1-198.4c.25.03.49.04.73.04,3.49,0,6.48-2.63,6.85-6.18l3.86-36.67c.4-3.79-2.35-7.19-6.14-7.58-3.77-.4-7.18,2.35-7.58,6.14l-3.86,36.67c-.4,3.79,2.35,7.19,6.14,7.58Zm-22.6-10.73c2.19,0,4.35-1.04,5.69-2.99,2.16-3.14,1.37-7.44-1.77-9.6l-10.02-6.9v16.76l2.19,1.51c1.2.82,2.56,1.22,3.91,1.22Zm1.08-46.16c.38,0,.77-.03,1.16-.1,3.76-.64,6.29-4.2,5.65-7.96l-6.17-36.35c-.63-3.71-4.11-6.22-7.82-5.67v42.08l.38,2.24c.57,3.37,3.49,5.75,6.79,5.75Zm20.05,117.78c-3.55-1.38-7.55.38-8.93,3.93l-16.46,42.27c-1.38,3.55.38,7.55,3.93,8.93.82.32,1.67.47,2.5.47,2.76,0,5.37-1.67,6.43-4.4l16.46-42.27c1.38-3.55-.38-7.55-3.93-8.93Zm70.58-73.59c-3.26-1.97-7.5-.92-9.47,2.34l-19.05,31.57c-1.97,3.26-.92,7.5,2.34,9.47,1.12.67,2.34.99,3.56.99,2.34,0,4.62-1.19,5.91-3.34l19.05-31.57c1.97-3.26.92-7.5-2.34-9.47Zm3.56,92.11c-1.92-3.29-6.14-4.41-9.43-2.49-3.29,1.92-4.41,6.14-2.49,9.43l18.55,31.87c1.28,2.2,3.59,3.43,5.97,3.43,1.18,0,2.37-.3,3.46-.94,3.29-1.92,4.41-6.14,2.49-9.43l-18.55-31.87Zm20.93,190.62c-3.27-1.88-7.43-.77-9.35,2.45l11.98.25c-.59-1.09-1.47-2.03-2.62-2.7Zm-118.49-260.42c-1.08-1.07-2.42-1.7-3.82-1.91v17.56l20.3,20.11c1.35,1.33,3.1,2,4.86,2s3.55-.68,4.9-2.04c2.68-2.71,2.66-7.08-.05-9.76l-26.2-25.95Zm55.98,86.18c-3.52-1.47-7.56.2-9.02,3.72l-16.54,39.77c-1.46,3.52.2,7.56,3.72,9.02.87.36,1.76.53,2.65.53,2.7,0,5.27-1.6,6.37-4.25l16.54-39.77c1.46-3.52-.2-7.56-3.72-9.02Zm1.05-135.34c1.34,1.9,3.48,2.92,5.64,2.92,1.38,0,2.76-.41,3.97-1.26,3.11-2.2,3.86-6.5,1.66-9.62l-25.88-36.66c-2.2-3.11-6.5-3.86-9.62-1.66-3.11,2.2-3.86,6.5-1.66,9.62l25.88,36.66Zm12.97,86.49l-28.43,23.49c-2.94,2.43-3.35,6.78-.92,9.71,1.36,1.65,3.34,2.51,5.32,2.51,1.55,0,3.1-.52,4.39-1.58l28.43-23.49c2.94-2.43,3.35-6.78.92-9.71-2.43-2.94-6.78-3.35-9.71-.92Zm216.21,21.77l14.5,33.9c1.12,2.62,3.67,4.19,6.35,4.19.91,0,1.83-.18,2.71-.56,3.5-1.5,5.13-5.55,3.63-9.06l-14.5-33.9c-1.5-3.5-5.55-5.13-9.06-3.63-3.5,1.5-5.13,5.55-3.63,9.06ZM118.53,262.48c-2.5-2.87-6.86-3.17-9.74-.67l-1.6,1.4v18.3l10.67-9.3c2.87-2.5,3.17-6.86.67-9.74Zm262.46,302.65c.76.27,1.53.39,2.29.39,2.85,0,5.51-1.77,6.51-4.61l12.25-34.78c1.27-3.59-.62-7.53-4.22-8.8-3.6-1.27-7.53.62-8.8,4.22l-12.25,34.78c-1.27,3.59.62,7.53,4.22,8.8Zm-122.92,145.44c1.24,0,2.49-.33,3.62-1.03l31.37-19.38c3.24-2,4.25-6.26,2.24-9.5-2-3.24-6.26-4.25-9.5-2.24l-31.37,19.38c-3.24,2-4.25,6.26-2.24,9.5,1.3,2.11,3.56,3.27,5.88,3.27Zm91.79-167.89l-33.62-1.66c2.1,4.82,4.46,9.54,7.04,14.16l25.91,1.28c.12,0,.23,0,.35,0,3.65,0,6.7-2.87,6.89-6.56.19-3.81-2.75-7.04-6.55-7.23ZM141.77,251.98c.79,0,1.58-.14,2.32-.41-6.56-3.73-13.23-7.64-19.07-11.32l12.37,10.16c1.28,1.05,2.83,1.57,4.38,1.57Zm34.42,229.4l-36.98,25.76c-3.13,2.18-3.9,6.48-1.72,9.61,1.34,1.93,3.49,2.96,5.67,2.96,1.36,0,2.74-.4,3.94-1.24l36.98-25.76c3.13-2.18,3.9-6.48,1.72-9.61-2.18-3.13-6.48-3.9-9.61-1.72Zm225.7,139.17c2.43,0,4.78-1.28,6.04-3.56,1.85-3.33.64-7.53-2.7-9.38l-32.28-17.87c-3.33-1.84-7.53-.64-9.38,2.7-1.85,3.33-.64,7.53,2.7,9.38l32.28,17.87c1.06.59,2.21.86,3.34.86Zm-191.66-213.29l-15.43,47.36c-1.18,3.62.8,7.52,4.42,8.7.71.23,1.43.34,2.14.34,2.91,0,5.61-1.85,6.56-4.76l15.43-47.36c1.18-3.62-.8-7.52-4.42-8.7-3.62-1.18-7.52.8-8.7,4.42Zm-31.08,8.31c1.24,0,2.49-.33,3.62-1.03l31.37-19.39c3.24-2,4.25-6.26,2.24-9.5-2-3.24-6.26-4.25-9.5-2.24l-31.37,19.39c-3.24,2-4.25,6.26-2.24,9.5,1.3,2.11,3.56,3.27,5.88,3.27Zm-4.15-146.43c-2.95,2.42-3.38,6.77-.96,9.71,1.36,1.66,3.34,2.52,5.34,2.52,1.54,0,3.09-.51,4.37-1.57l3.78-3.1c-3.9-2.5-7.81-5-11.71-7.5-.14-.09-.32-.2-.52-.32l-.3.25Zm191.03,266.28l-2.19-44.41c-.19-3.81-3.46-6.74-7.23-6.55-3.81.19-6.74,3.43-6.55,7.23l2.19,44.41c.18,3.69,3.23,6.56,6.89,6.56.12,0,.23,0,.35,0,3.81-.19,6.74-3.43,6.55-7.23Zm595.4,247.87c-2.44-2.93-6.79-3.33-9.72-.89l-6.38,5.31,17.68.36c.09-1.67-.42-3.38-1.58-4.77Zm-835.2-106.06c1.16,0,2.33-.29,3.4-.9,3.31-1.88,4.47-6.1,2.59-9.41l-22.89-40.27c-.55-.96-1.29-1.73-2.15-2.31v26.46l13.04,22.94c1.27,2.24,3.6,3.49,6.01,3.49Zm610.86,93.17c-3.31-1.9-7.52-.75-9.42,2.55l-5.83,10.17,15.72.32,2.08-3.63c1.9-3.31.75-7.52-2.55-9.42Zm70.66-.78l-18.15,14.9,21.22.43,5.68-4.66c2.95-2.42,3.38-6.77.96-9.71-2.42-2.95-6.77-3.37-9.71-.96Zm-86.93-15.3c-2.42-2.95-6.77-3.38-9.71-.96l-28.5,23.39c-1.71,1.41-2.57,3.46-2.51,5.52l17.12.35,22.66-18.59c2.95-2.42,3.38-6.77.96-9.71Zm-67.06-6.96l-28.49-23.39c-2.95-2.42-7.29-1.99-9.71.95-2.42,2.95-1.99,7.29.95,9.71l28.49,23.39c1.28,1.05,2.83,1.57,4.38,1.57,1.99,0,3.97-.86,5.34-2.52,2.42-2.95,1.99-7.29-.95-9.71Zm-393.95-14.66c-1.5-3.5-5.55-5.13-9.06-3.63-3.5,1.5-5.13,5.55-3.63,9.06l14.5,33.9c.27.63.62,1.19,1.04,1.69l10.43.21c1.74-1.94,2.32-4.78,1.22-7.33l-14.5-33.9Zm661.06,39.18c.85,0,1.71-.16,2.54-.49,3.54-1.4,5.28-5.42,3.87-8.96l-6.43-16.2c-6.63-4.25-13.26-8.49-19.9-12.74l13.49,34.03c1.07,2.71,3.67,4.36,6.42,4.36Zm-263.64-101.97c-3.81.18-6.75,3.4-6.57,7.21l1.92,41.54c.17,3.7,3.22,6.58,6.89,6.58.11,0,.22,0,.32,0,3.81-.18,6.75-3.4,6.57-7.21l-1.92-41.54c-.18-3.81-3.39-6.76-7.21-6.57Zm37.37-64.49c-2.98,1.29-4.71,4.55-3.97,7.84l9.79,43.5c.72,3.21,3.57,5.39,6.72,5.39.5,0,1.01-.06,1.52-.17,3.72-.84,6.05-4.53,5.22-8.25l-9.49-42.19c-3.3-2-6.57-4.03-9.78-6.11Zm277.25,173.47l7.04,5.77c1.28,1.05,2.83,1.57,4.37,1.57.02,0,.03,0,.05,0-3.82-2.45-7.64-4.89-11.46-7.34Zm-71.04-11.99c-3.76.64-6.29,4.2-5.65,7.96l2.01,11.87,14.05.29-2.45-14.46c-.64-3.76-4.2-6.28-7.96-5.65Zm-142.33-90.65c-.31,3.8,2.52,7.13,6.32,7.43.19.02.38.02.56.02,3.56,0,6.58-2.74,6.87-6.34l2.02-24.98c-2.25-1.44-4.5-2.88-6.74-4.32-2.12-1.36-4.26-2.69-6.43-4.02l-2.6,32.21Zm84.54,69.53c.88.38,1.8.56,2.71.56,2.68,0,5.23-1.57,6.35-4.19l13.42-31.36-11.78-7.54-14.32,33.47c-1.5,3.5.13,7.56,3.63,9.06Zm-24.56-41.61c-.36,3.79,2.42,7.16,6.22,7.52.22.02.44.03.66.03,3.52,0,6.52-2.68,6.86-6.25l1.44-15.08c-4.36-2.79-8.71-5.58-13.07-8.37l-2.11,22.14Zm-122.39,5.1c-3.26-1.97-7.5-.93-9.48,2.33l-19.09,31.54c-1.97,3.26-.93,7.5,2.33,9.48,1.12.68,2.35,1,3.57,1,2.33,0,4.61-1.19,5.91-3.33l19.09-31.54c1.97-3.26.93-7.5-2.33-9.48Zm-54.23,64.75c-3.09,1.13-4.87,4.24-4.46,7.37l14.63.3-1.31-3.57c-1.31-3.58-5.28-5.41-8.85-4.1Zm-248.63-7.13c-3.76.64-6.29,4.2-5.65,7.96l.24,1.43,14.05.29-.68-4.03c-.64-3.76-4.19-6.29-7.96-5.65Zm12.88-38.74c-1.4-3.54-5.42-5.27-8.96-3.87-3.54,1.4-5.28,5.42-3.87,8.96l13.59,34.28c1.07,2.71,3.67,4.36,6.42,4.36.85,0,1.71-.16,2.54-.49,3.54-1.4,5.28-5.42,3.87-8.96l-13.59-34.28Zm39.7-31.32c1.32,1.21,2.99,1.81,4.66,1.81,1.87,0,3.73-.75,5.09-2.24,2.57-2.81,2.38-7.18-.43-9.75l-27.19-24.9c-2.81-2.57-7.17-2.38-9.75.43-2.57,2.81-2.38,7.18.43,9.75l27.19,24.9Zm-90.43,2.36c-3.5-1.5-7.56.13-9.06,3.63l-14.5,33.9c-1.5,3.5.13,7.56,3.63,9.06.88.38,1.8.56,2.71.56,2.68,0,5.23-1.57,6.35-4.19l14.5-33.9c1.5-3.5-.13-7.56-3.63-9.06Zm-41.84,40l-28.37-23.55c-2.93-2.44-7.28-2.03-9.72.9-2.43,2.93-2.03,7.28.9,9.72l28.37,23.55c1.29,1.07,2.85,1.59,4.4,1.59,1.98,0,3.95-.85,5.31-2.49,2.43-2.93,2.03-7.28-.9-9.72Zm97.35-22.07c3.46,0,6.45-2.6,6.85-6.13.43-3.79-2.3-7.2-6.08-7.63l-36.64-4.13c-3.78-.42-7.2,2.3-7.63,6.08-.43,3.79,2.3,7.2,6.08,7.63l36.64,4.13c.26.03.52.04.78.04Zm211.33,50.73c-3.75-.71-7.35,1.76-8.06,5.5l-1.42,7.54,13.99.29.99-5.28c.71-3.75-1.76-7.35-5.5-8.06Zm-64.84-24.09c-2.32-3.02-6.65-3.59-9.67-1.27l-34.55,26.54c-3.02,2.32-3.59,6.65-1.27,9.68.03.05.07.08.11.13l10.76.22,33.35-25.62c3.02-2.32,3.59-6.65,1.27-9.68Zm-77.32,30.24l-28.5-23.39c-2.95-2.42-7.29-1.99-9.71.96-2.42,2.95-1.99,7.29.96,9.71l20.18,16.56,19.51.4c-.26-1.6-1.07-3.12-2.43-4.23Zm69.7.25c-1.27,1.55-1.75,3.49-1.49,5.33l19.35.4-8.15-6.68c-2.94-2.42-7.29-1.99-9.71.96Zm-77.67-67.92c-1.05-3.66-4.87-5.78-8.54-4.73l-35.44,10.17c-3.66,1.05-5.78,4.87-4.73,8.54.87,3.03,3.63,5,6.63,5,.63,0,1.27-.09,1.91-.27l35.44-10.17c3.66-1.05,5.78-4.87,4.73-8.54Zm-112.47-421.9l-209.82-112.21,217.7-127.41-7.88,239.62Zm-13.3-204.05l-155.58,91.05,149.95,80.19,5.63-171.24Zm531.95,696.97l101.44,64.95-63.33-1.29c-6.46-.85-13.02-1.09-19.33-.85-3.71.14-7.59.44-11.48.97l-1.22-.78-409.56-8.39c-1.19-.19-2.41-.27-3.64-.21-.42.02-.83.07-1.25.11l-29.8-.61c5.6,5.8,8.97,13.31,9.58,21.45.02.21.02.43.03.64-.03,1.69-.16,3.37-.19,5.06,0,.17,0,.32,0,.45-.07.29-.15.65-.25,1.12-.7,3.39-1.74,6.65-2.99,9.88-.51,1.31-.83,2.62-1.02,3.91l-.84-.02c-.91,1.43-1.93,2.81-3.06,4.12-6.84,7.93-16.52,12-26.25,12-34.6,0-59.95-40.6-83.43-60.84,0,0-249.57-5.11-249.57-5.11l-33.28-.68V246.28l58.36,37.37c.42.06.84.12,1.27.2l37.86,6.95-14.29-12.75c-2.84-2.54-3.09-6.9-.55-9.74,2.54-2.84,6.9-3.09,9.74-.55l26.24,23.42c1.19,1.06,1.92,2.45,2.19,3.91l31.17,5.72c0-1.18.28-2.37.91-3.46l4.84-8.44c3.88,2.48,7.76,4.97,11.64,7.45l-4.02,7c3.7.95,7.12,2.47,10.18,4.47.65-.38,1.38-.66,2.16-.81,3.74-.72,7.36,1.73,8.08,5.48l1.6,8.36c3.08,5.87,4.49,12.65,3.76,19.63l1.58,8.23c.72,3.74-1.74,7.36-5.48,8.08-.44.08-.88.12-1.31.12-.31,0-.6-.04-.9-.08-1.29,1.83-2.77,3.54-4.41,5.1l6.8,4.36c.26-.11.52-.22.79-.3l35.31-10.62c2.88-.87,5.88.24,7.56,2.54,2.01-1.63,4.06-3.23,6.18-4.82l-13.44-4.9c-3.58-1.31-5.42-5.27-4.12-8.85,1.31-3.58,5.26-5.42,8.85-4.12l11.22,4.1c2.84,2.27,5.18,4.69,6.71,7.29,25.93-16.85,57.87-26.75,91.01-28.08,26.59-1.06,54,4.77,77.15,16.43,25.89,13.04,45.24,32.55,55.94,56.42,9.12,20.33,14.13,42.48,15.33,67.72.89,18.81-.52,37.54-2.19,54.98-.73,7.61-1.61,15.37-2.47,22.88-.62,5.4-1.24,10.84-1.81,16.3l47.66,30.52c.69-15.09.45-30.53.05-47.02l-.12-4.62c-.48-19.08-.98-38.81,1.92-58.59,2.92-19.95,12.37-39.86,26.61-56.08,14.33-16.32,32.91-28.2,52.34-33.46,22.88-6.19,47.21-3.32,68.49,8.09,19.14,10.26,35.75,29.01,46.76,52.82,7.84,16.94,13.76,35.34,19.19,59.65l.56,2.52c3.37,15.09,6.57,29.43,11.75,43.15,2.46,5.2,5.13,9.92,8.06,14.25,1.52,1.7,3.08,3.28,4.7,4.77.82.52,1.64,1.01,2.46,1.47.28.08.56.16.84.23.46,0,.92,0,1.38,0,.72-.18,1.43-.39,2.15-.6,1.53-.83,3.05-1.74,4.56-2.73,2.83-2.53,5.56-5.31,8.21-8.41,3.93-5.63,7.46-11.76,10.53-18.3,2.48-6.6,4.34-13.13,5.56-19.52.03-.43.06-.85.09-1.27.35-5.51,1.49-10.69,3.32-15.46,0-.27-.02-.54-.02-.81,0-23.9,19.45-43.35,43.35-43.35s43.35,19.45,43.35,43.35c0,.75-.02,1.51-.06,2.25,1.7,4.94,2.44,10.08,2.12,15.15-1.77,28.15-10.58,55.69-25.5,79.65-16.98,27.26-39.15,46.28-65.91,56.53-12.25,4.69-26.1,6.58-39.03,5.32-14.19-1.38-24.97-4.35-37.19-10.25-8.54-4.12-15.92-10.03-22.16-15.23-20.34-16.97-35.69-44.33-45.6-81.33-1.26-4.7-2.27-10.65-3.45-17.55-4.73-27.81-10.68-54.88-26.41-54.14-4.63.22-6.78,2.06-8,3.43-7.56,8.52-5.94,31.12-4.98,44.62.24,3.37.47,6.55.55,9.22.14,4.3.33,8.7.51,12.95.6,14.07,1.22,28.56.19,43.12,1.92-1.86,4.83-2.51,7.45-1.42,3.52,1.46,5.18,5.5,3.72,9.02l-14.5,34.85,50.88,32.58,30.52-32.85c1.33-1.43,3.12-2.16,4.93-2.2,2.08,1.2,4.15,2.41,6.2,3.62,1.36,2.53,1.05,5.74-1.02,7.97l-28.82,31.02,32.75,20.97c.53-1.34,1.47-2.53,2.79-3.34l31.37-19.38c3.24-2,7.49-1,9.5,2.24,2,3.24,1,7.49-2.24,9.5l-29.8,18.42,12.27,7.86c2.45-2.83,6.72-3.2,9.62-.8l28.37,23.55c.96.79,1.64,1.79,2.05,2.88l9.43,6.04c3.43-.52,6.7,1.59,7.65,4.9l26.29,16.83,8.19-17.62c1.6-3.46,5.71-4.96,9.17-3.35,3.46,1.61,4.96,5.71,3.35,9.16l-8.97,19.32Zm-4.92-273.49c0,13.98,11.37,25.35,25.35,25.35s25.35-11.37,25.35-25.35-11.37-25.35-25.35-25.35-25.35,11.37-25.35,25.35Zm-346.62,108.22c.83,4.7,1.91,9,3.25,12.98.71,1.36,1.46,2.67,2.25,3.93.63.66,1.27,1.31,1.94,1.94,1.35.85,2.75,1.65,4.21,2.41,3.83,1.3,7.92,2.35,12.35,3.17,3.31.26,6.45.32,9.48.18.89-.21,1.76-.44,2.62-.69.25-.14.49-.29.74-.43.46-.45.91-.91,1.36-1.38,1.23-1.93,2.38-3.97,3.47-6.17,2.05-5.71,3.7-11.97,5.05-19.04l-47.25-30.25c-.57,11.21-.55,22.39.53,33.35Zm-266.98-207.04c-9.3,12.8-16.76,28.93-21.58,46.66-9.31,34.24-7.58,71.22,4.99,106.93,12,34.09,33.03,65.23,60.81,90.05.44.39.89.78,1.33,1.17.11-5.83,1.42-11.68,3.93-17.19,4.54-9.98,12.46-17.73,22.3-21.83,3.6-1.5,7.3-2.44,11-2.84-6.35-5.81-12.34-11.91-17.91-18.26-.75-.52-1.44-1.16-2.03-1.92-.02-.03-.04-.05-.06-.08l-5.73-7.42c-.51-.67-.92-1.38-1.22-2.12-4.96-7.22-9.4-14.65-13.3-22.25-.68-.74-1.25-1.61-1.66-2.59h0s0-.02,0-.02l-3.73-8.83c-.38-.89-.6-1.81-.68-2.73-2.17-6.34-3.97-12.78-5.4-19.27-.51-.94-.86-1.98-1.01-3.09l-1.32-9.85c-.14-1.07-.09-2.12.12-3.11-.3-5.44-.33-10.86-.11-16.25-.3-1.11-.38-2.3-.22-3.51l1.32-9.85c.15-1.08.48-2.09.96-3,.94-4.25,2.05-8.44,3.33-12.54,0-1.15.24-2.32.71-3.44l3.73-8.85c.47-1.11,1.13-2.08,1.94-2.88,1.2-2.21,2.45-4.37,3.76-6.5.3-1.15.82-2.26,1.6-3.25l5.79-7.5c.74-.96,1.64-1.73,2.63-2.3,1.95-2.06,3.96-4.07,6.04-6.03.57-.98,1.33-1.86,2.28-2.6l7.5-5.79c.88-.68,1.85-1.17,2.86-1.48,3.24-2.08,6.57-4.04,9.98-5.87.8-.81,1.77-1.48,2.88-1.95l8.85-3.73c.99-.42,2.01-.64,3.03-.7,3.99-1.3,8.03-2.44,12.1-3.4,1.01-.6,2.16-1.02,3.41-1.18h.02s.02,0,.02,0l9.81-1.32c1.17-.16,2.31-.08,3.39.19,2.95-.12,5.89-.14,8.82-.07,1.21-.37,2.52-.5,3.85-.32h.01s.02,0,.03,0l9.81,1.32c1.21.16,2.33.56,3.32,1.13,2.37.57,4.72,1.2,7.03,1.89,1.2.02,2.37.22,3.52.71l8.85,3.74c.71.3,1.36.68,1.94,1.12.84.31,1.64.75,2.38,1.32l7.06,5.46c.76.52,1.45,1.16,2.04,1.92l5.79,7.5c.44.57.8,1.17,1.08,1.8.17.31.33.63.47.96l3.74,8.85c.53,1.27.76,2.59.7,3.88.52,1.85,1.01,3.75,1.46,5.68.54.96.9,2.03,1.06,3.19h0s0,.02,0,.02l1.32,9.83c.13.94.1,1.87-.05,2.75,1.84,26.3-1.09,52.64-3.94,78.23-.79,7.13-1.61,14.49-2.3,21.67-3.41,35.46-5.54,76.01,12.5,108.58,4.58,8.27,10.33,15.51,16.63,20.93,9.45,8.14,18.43,13.41,32.04,18.82,11,4.37,23.62,5.97,34.51,6.96,11.3,1.03,23.1-.12,33.2-3.24,20.92-6.46,38.69-21.32,48.74-40.76,11.17-21.61,14.8-44.88,16.88-64.79,1.6-15.27.94-30.44.25-46.51-.19-4.3-.38-8.75-.52-13.15-.07-2.32-.28-5.19-.52-8.51-1.32-18.43-3.12-43.67,9.47-57.85,5.14-5.79,12.27-9.07,20.61-9.46,18.74-.89,29,13.73,34.3,26.16,5.67,13.3,8.46,29.74,10.71,42.94,1.1,6.45,2.05,12.02,3.09,15.91,8.94,33.34,22.31,57.62,39.75,72.16,5.67,4.73,11.76,9.61,18.46,12.85,10.31,4.98,19.04,7.37,31.12,8.55,10.2.99,21.15-.5,30.85-4.21,23.01-8.81,42.21-25.38,57.07-49.23,9.94-15.97,16.85-33.72,20.38-52.15-7.07,5.02-15.7,7.98-25.01,7.98-12.23,0-23.28-5.1-31.17-13.27-.54,2.03-1.13,4.07-1.78,6.11-.03,1.1-.26,2.2-.71,3.27l-3.74,8.85c-.43,1.02-1.03,1.92-1.75,2.68-1.66,3.14-3.41,6.18-5.26,9.13-.31,1.06-.81,2.09-1.53,3.02l-5.79,7.5c-.64.82-1.39,1.51-2.21,2.04-.57.99-1.34,1.89-2.3,2.64l-4.49,3.47c-.92,1.19-2.14,2.16-3.62,2.79l-.13.05s-.01,0-.02.01c-1.38,1.54-3.29,2.61-5.5,2.91l-.76.1c-1.54.96-3.37,1.46-5.29,1.35-.53.04-1.07.03-1.59-.02-1.27.27-2.62.28-3.93-.03-1.33-.08-2.59-.44-3.72-1.05-.38-.06-.75-.15-1.13-.26l-.15-.02c-2.25-.3-4.2-1.41-5.58-3-1.74-.8-3.11-2.09-4-3.64-.77-.52-1.47-1.18-2.08-1.95l-5.79-7.5c-.83-1.08-1.38-2.28-1.66-3.53-.67-1.13-1.33-2.28-1.98-3.46-.86-.82-1.57-1.83-2.06-3h0s-.01-.03-.02-.05l-3.72-8.81c-.39-.93-.62-1.9-.69-2.86-4.45-13.14-7.45-26.58-10.37-39.68l-.56-2.52c-5.14-23.01-10.68-40.28-17.96-56.02-9.38-20.28-23.21-36.09-38.93-44.51-17.22-9.23-36.86-11.56-55.29-6.58-33.12,8.96-60.81,40.41-65.84,74.77-2.67,18.26-2.22,36.36-1.74,55.53l.12,4.64c.51,21.32.79,42.24-1.04,62.84.09.74.08,1.49-.02,2.26l-1.32,9.85c-.12.92-.38,1.78-.75,2.58-.95,4.78-2.04,9.25-3.3,13.48.02,1.22-.2,2.47-.71,3.67l-2.9,6.87c-.26,1.33-.83,2.62-1.71,3.76l-.88,1.14c-.37,1.27-1.02,2.47-1.94,3.5-.9,1.99-2.53,3.66-4.7,4.57h-.03c-.84.64-1.78,1.1-2.76,1.4l-1.17.9s-.03.02-.04.03h0c-1.84,1.42-4.05,2.02-6.19,1.85-1.39.34-2.81.34-4.15.04l-2.88.39s0,0,0,0h0c-1.24.17-2.46.07-3.6-.24-.11-.01-.23-.02-.34-.04l-9.85-1.32c-1.29-.17-2.47-.61-3.51-1.25-.22-.06-.45-.11-.67-.17-1.4.12-2.86-.09-4.25-.68l-4.41-1.86c-1.52-.2-3-.8-4.29-1.8l-.05-.03s-.07-.03-.1-.04c-1-.42-1.88-1-2.63-1.7-1.23-.59-2.34-1.46-3.22-2.61l-.48-.62-1.01-.78c-1.22-.95-2.14-2.14-2.72-3.46-.42-.57-.79-1.2-1.08-1.88l-.09-.21-.41-.53s0,0,0,0h0c-1.12-1.46-1.73-3.15-1.85-4.85l-1.37-3.25c-.6-1.42-.81-2.9-.67-4.33-.04-.14-.07-.29-.11-.43-.63-1.03-1.06-2.21-1.23-3.48v-.02s0-.01,0-.02l-1.32-9.82c-.13-1-.1-1.97.08-2.91-1.55-24.25,1.23-48.56,3.93-72.19.85-7.42,1.73-15.1,2.44-22.54,1.6-16.78,2.96-34.74,2.13-52.42-1.1-23.27-5.48-42.72-13.77-61.21-8.99-20.05-25.45-36.55-47.61-47.71-20.46-10.31-44.72-15.47-68.33-14.52-33.05,1.32-64.65,12.01-88.97,30.09-15.62,11.61-27.44,23.46-38.32,38.43Zm182.21,92.97c1.2-15.92,1.6-31.87.01-47.48-.26-1.51-.54-2.98-.85-4.42l-7.08,11.72c-1.3,2.15-3.58,3.33-5.91,3.33-1.21,0-2.44-.32-3.56-.99-3.26-1.97-4.31-6.21-2.34-9.47l13.1-21.69c-.65-1.13-1.33-2.23-2.03-3.3-1.53-1.69-3.15-3.31-4.86-4.85-2.8-1.85-5.8-3.57-8.98-5.13-1.96-.71-3.95-1.34-5.97-1.94-.72,1.13-1.75,2.08-3.08,2.64-.89.38-1.81.56-2.71.56-2.68,0-5.23-1.57-6.35-4.19l-.81-1.9c-6.54-.48-13.19-.43-19.86.17-3.46.62-6.91,1.4-10.32,2.3l-4.95,10.96c-1.15,2.55-3.66,4.06-6.29,4.06-.95,0-1.91-.2-2.84-.61-3.02-1.36-4.58-4.63-3.9-7.75-5.19,2.73-10.19,5.79-14.94,9.15-.42.36-.83.73-1.24,1.09l30.34,19.43c.36-1.36,1.12-2.62,2.29-3.58l28.5-23.37c2.94-2.42,7.29-1.99,9.71.96,2.42,2.95,1.99,7.29-.96,9.71l-28.49,23.36,33.07,21.18,1.51-.93c3.24-2,7.5-1,9.5,2.25,1.18,1.91,1.31,4.16.56,6.1l19.73,12.63Zm-13.55,18.11l9.87,18.7c.12-1.07.24-2.14.36-3.2.31-2.78.62-5.56.92-8.36l-11.15-7.14Zm-64.21,141.55h0c5.37-11.8,1.08-25.33-9.55-30.17-2.54-1.16-5.27-1.74-8.03-1.74s-5.47.56-8.15,1.67c-5.63,2.35-10.19,6.85-12.84,12.68s-3.05,12.22-1.12,18.01c1.85,5.55,5.64,9.87,10.68,12.16,10.64,4.84,23.66-.82,29.03-12.62Zm-112.69-281.6l5.59,3.58c2.22-2.5,4.51-4.94,6.88-7.33l-12.46,3.75Zm-167.06-45.88c3.27,4.75,8.2,7.93,13.87,8.97l103.33,18.96c5.68,1.04,11.41-.19,16.15-3.46,4.22-2.91,7.19-7.12,8.54-12.01l-3.6-18.77c-3.26-4.32-7.94-7.24-13.3-8.23l-103.33-18.96c-1.32-.24-2.63-.36-3.94-.36-4.34,0-8.57,1.31-12.21,3.82-4.75,3.27-7.93,8.2-8.97,13.87h0c-1.04,5.67.19,11.41,3.46,16.15Zm-13.05-28.09c1.88-3.67,4.41-6.97,7.5-9.77l-7.5-4.8v14.57Zm56.22,482.86h0c9.34,7.38,22.94,5.78,30.32-3.56l65.1-82.45c3.57-4.53,5.17-10.17,4.5-15.9-.67-5.73-3.54-10.85-8.06-14.42-9.34-7.38-22.94-5.78-30.32,3.56l-65.1,82.45c-7.38,9.34-5.78,22.94,3.57,30.32Zm309.05,68.7c-.43-5.75-3.06-10.99-7.43-14.76l-79.56-68.6c-3.95-3.41-8.9-5.24-14.06-5.24-.54,0-1.08.02-1.63.06-5.75.43-10.99,3.06-14.76,7.43-7.77,9.01-6.76,22.67,2.25,30.44l79.57,68.6c4.37,3.77,9.94,5.6,15.69,5.18,5.75-.43,10.99-3.06,14.75-7.43,3.77-4.37,5.61-9.94,5.18-15.69Zm409.78-69.89l.39,1.94-14.13-.29-2.4-11.98-62.61-40.09,14.24,33.28c1.5,3.5-.13,7.56-3.63,9.06-.88.38-1.81.56-2.71.56-2.68,0-5.23-1.57-6.35-4.19l-14.5-33.9c-1.5-3.5.13-7.56,3.63-9.06.62-.27,1.26-.43,1.89-.5l-15.73-10.07-8.62,23.12c-1.04,2.78-3.67,4.49-6.47,4.49-.8,0-1.62-.14-2.41-.44-3.57-1.33-5.39-5.31-4.05-8.88l9.66-25.91-40.38-25.85c-.42,1.87-1.61,3.55-3.42,4.54-1.05.57-2.18.84-3.3.84-2.44,0-4.81-1.3-6.06-3.6l-8.34-15.31-16.96-10.86c-1.83,4.73-3.93,9.46-6.35,14.15-3.54,6.85-7.87,13.23-12.85,19.04,3.33-.43,6.56,1.61,7.51,4.93,1.05,3.66-1.06,7.48-4.73,8.54l-29.1,8.35c-6.37,3.67-13.16,6.65-20.25,8.84-1.37.42-2.76.8-4.17,1.17l13.03,39.54c1.19,3.62-.77,7.52-4.39,8.71-.72.24-1.44.35-2.16.35-2.9,0-5.6-1.84-6.55-4.74l-13.63-41.35c-4.14.48-8.35.73-12.55.73-1.42,0-2.83-.04-4.24-.09-.8.31-1.65.48-2.5.48-1.13,0-2.26-.28-3.3-.85-11.29-1.04-24.3-2.72-36.57-7.14-.01.07-.02.14-.03.21l-6.82,36.23c-.62,3.31-3.52,5.62-6.77,5.62-.42,0-.85-.04-1.29-.12-3.75-.71-6.21-4.31-5.5-8.06l6.82-36.23c.2-1.06.64-2.02,1.25-2.83-10.53-4.94-18.92-10.4-27.42-17.72-7.89-6.8-15.02-15.73-20.63-25.84-4.94-8.92-8.56-18.23-11.17-27.76-1.03,2.55-3.53,4.31-6.38,4.31-.18,0-.35,0-.53-.02l-36.77-2.8c-3.8-.29-6.65-3.6-6.36-7.4s3.61-6.65,7.4-6.36l36.77,2.8c1.52.12,2.88.72,3.95,1.64-2.65-12.33-3.77-24.94-3.96-37.46-3.51-.56-6.05-3.73-5.78-7.33.25-3.29,2.76-5.84,5.9-6.3.33-10.55,1.16-20.94,2.11-30.96-1.96-.4-3.73-1.62-4.74-3.53l-17.22-32.61c-1.78-3.37-.49-7.54,2.88-9.32.18-.09.36-.17.54-.25l-15.37-9.84-14.22,8.78c-1.13.7-2.38,1.03-3.62,1.03-2.31,0-4.57-1.16-5.88-3.28-2-3.24-1-7.49,2.25-9.5l8.57-5.29-68.76-44.02c-2.71,4.2-5.18,8.62-7.38,13.23-2.75,7.43-4.84,15.21-6.25,23.24-.58,6.33-.75,12.74-.51,19.18l14.08-24.68c1.89-3.31,6.1-4.46,9.41-2.57,3.31,1.89,4.46,6.1,2.57,9.41l-19.17,33.61c-.9,1.57-2.32,2.64-3.91,3.15-1.09-4.09-1.95-8.23-2.6-12.42.07.87.14,1.73.22,2.6,1.74,10.01,4.47,19.92,8.16,29.56,4.95,10.7,11.11,21.12,18.37,31.07,1.9,2.32,3.87,4.6,5.89,6.86l-.17-8.07c-.08-3.81,2.95-6.96,6.76-7.04.05,0,.1,0,.14,0,3.75,0,6.82,3,6.9,6.76l.47,22.7c3.68,3.41,7.48,6.73,11.43,9.93.25.19.5.37.75.56,0,0,0,0,0,0,10.57,7.79,16.81,16,20.25,26.62,3.25,10.06,2.19,21.55-2.94,32.66l16.94-4.08c3.7-.89,7.43,1.39,8.32,5.09.89,3.71-1.39,7.43-5.09,8.32l-35.37,8.52c-7.17,5.6-15.9,8.72-24.74,8.72-3.25,0-6.51-.42-9.72-1.29-2.41-.38-4.78-.95-7.05-1.71l-1.76,18.49c-.34,3.57-3.34,6.25-6.86,6.25-.22,0-.44-.01-.66-.03-3.79-.36-6.58-3.73-6.22-7.52l2.37-24.87c-6.48-4.86-14.04-10.76-21.26-17.21-8.66-7.74-16.71-16.05-24.09-24.84l-3.24,40.11c-.29,3.61-3.31,6.34-6.87,6.34-.19,0-.37,0-.56-.02-3.8-.31-6.63-3.63-6.32-7.43l3.82-47.34c.17-2.06,1.22-3.83,2.76-4.97-9.46-13.01-17.54-26.9-24.09-41.41l-.84.7c-1.29,1.08-2.86,1.6-4.42,1.6-1.98,0-3.94-.84-5.3-2.48-2.44-2.93-2.05-7.28.88-9.72l4.16-3.47c-.57-1.52-1.13-3.04-1.67-4.57-1.45-4.11-2.76-8.25-3.94-12.39-1.24,1.98-3.42,3.25-5.83,3.25-.37,0-.74-.03-1.11-.09-3.76-.61-6.32-4.15-5.71-7.91l4.7-29.16c.15-.93.48-1.78.94-2.53-2.32-23.34-.48-46.57,5.56-68.8,4.53-16.67,11.22-32.16,19.52-45.32l-4.31-1.38c-3.63-1.16-5.63-5.05-4.46-8.68.14-.42.31-.82.51-1.19l-29.73-19.03c-1.02-.1-2.04-.23-3.05-.42l-4.41-.81c.08.36.13.73.14,1.12.15,3.81-2.82,7.02-6.62,7.17l-20.54.81c-.09,0-.18,0-.28,0-3.69,0-6.74-2.91-6.89-6.63-.15-3.81,2.82-7.02,6.62-7.17l1.61-.06-29.98-5.5c.89.66,1.64,1.54,2.15,2.61l17.25,36.66c1.62,3.45.14,7.56-3.3,9.18-.95.45-1.95.66-2.93.66-2.59,0-5.07-1.46-6.25-3.96l-17.25-36.66c-1.62-3.45-.14-7.56,3.3-9.18.36-.17.73-.3,1.1-.4l-14.42-2.65c.16,1.45-.14,2.95-.95,4.3l-10.46,17.33v-23.72l-11.23-2.06c-9.1-1.67-17-6.78-22.25-14.4-.86-1.25-1.63-2.55-2.31-3.87v467.41l66.48,1.36c-6.48-.57-12.87-2.97-18.35-7.3h0c-14.99-11.83-17.55-33.65-5.72-48.64l32.92-41.69c-1.51-1.2-2.52-3.02-2.62-5.1l-1.05-22.64c-.18-3.81,2.77-7.04,6.57-7.21,3.77-.19,7.04,2.77,7.21,6.57l.68,14.7,9.9-12.53-10.69-19.62c-1.82-3.35-.59-7.54,2.76-9.36,3.34-1.82,7.54-.59,9.36,2.76l7.87,14.44,2.19-2.78c3.64-4.61,8.22-8.03,13.25-10.23l-9.14-40.6c-.84-3.72,1.5-7.41,5.22-8.25,3.71-.84,7.41,1.5,8.25,5.22l9.16,40.72c6.61-.09,13.28,1.7,19.14,5.46l12.41-16.16c2.32-3.02,6.65-3.59,9.67-1.27,3.02,2.32,3.59,6.65,1.27,9.68l-13.4,17.44c3.09,4.55,5.07,9.8,5.73,15.41.7,5.93-.13,11.79-2.34,17.16,2.89,1.65,4.24,5.18,3.04,8.39l-12.89,34.55c-1.04,2.78-3.67,4.49-6.47,4.49-.8,0-1.62-.14-2.41-.44-3.57-1.33-5.39-5.31-4.05-8.88l5.03-13.48-36.32,45.99,19.43-15.94c2.95-2.42,7.29-1.99,9.71.96,2.42,2.95,1.99,7.29-.96,9.71l-10.29,8.45-20.07-.41-13.74,17.4c-6.47,8.19-15.92,12.66-25.61,13.11l164.27,3.37c-6.22-9.27-7.56-21.02-3.71-31.39l-8.75-.18,5.79-4.75c1.75-1.44,4.01-1.86,6.05-1.35.92-1.47,1.97-2.89,3.13-4.25,2.83-3.28,6.18-5.95,9.89-7.93-.09-.54-.13-1.09-.09-1.66.27-3.8,3.57-6.66,7.37-6.4l18.87,1.32c3.57.25,6.32,3.18,6.41,6.68,2.26,1.2,4.41,2.66,6.39,4.37l3.67,3.16,5.28-11.36c1.6-3.46,5.71-4.96,9.17-3.35,3.46,1.61,4.96,5.71,3.35,9.16l-6.93,14.91,40.81,35.19,486.56,9.97-53.64-34.35Z"/>
      </g>
    </g>
  </g>
</svg>