<?xml version="1.0" encoding="UTF-8"?>
<svg id="Layer_8_copy" data-name="Layer 8 copy" xmlns="http://www.w3.org/2000/svg" viewBox="0 0 1000 1000">
  <defs>
    <style>
      .cls-1 {
        fill: #ffff32;
      }

      .cls-2 {
        fill: #ee91ff;
      }

      .cls-3 {
        fill: #7be0ff;
      }
    </style>
  </defs>
  <g id="Layer_22" data-name="Layer 22">
    <g id="Elements_copy" data-name="Elements copy">
      <g>
        <g>
          <path class="cls-3" d="m865.68,694.3c1.83-6.3,6.49-11.45,13.12-14.51,4.15-1.92,8.75-2.88,13.49-2.88,3.38,0,6.84.49,10.25,1.48,16.39,4.76,26.53,19.65,22.6,33.18h0c-3.93,13.53-20.47,20.67-36.86,15.9-8.19-2.38-15.05-7.32-19.29-13.9-3.96-6.14-5.13-12.98-3.3-19.28Z"/>
          <path class="cls-1" d="m140.53,502.68c3.11-10.69,14.07-17.38,26.61-17.38,3.34,0,6.8.48,10.25,1.48,8.19,2.38,15.05,7.32,19.29,13.9,3.96,6.14,5.13,12.98,3.3,19.28h0c-1.83,6.3-6.49,11.45-13.12,14.51-7.12,3.28-15.55,3.78-23.74,1.4-16.39-4.76-26.53-19.65-22.6-33.18Z"/>
          <g>
            <path class="cls-3" d="m631.75,450.62c.2-.22.4-.45.59-.67l21.52,38.11c-7.74,3.73-15.67,7.9-23.85,12.56-9.07,5.16-18.06,10.67-26.76,15.99-16.9,10.34-34.32,21-52.48,29.2-8.61,3.38-16.28,5.7-23.54,7.14-.25.02-.5.03-.74.04-.03-.14-.07-.27-.1-.41-.03-1.06-.03-2.11,0-3.17.4-1.68.88-3.37,1.44-5.06,1.81-3.52,3.94-7.03,6.42-10.58,6.92-8.19,15.33-16.2,25.97-24.71,5.39-4.05,10.9-8.04,16.27-11.93,10.66-7.72,21.69-15.7,32.13-24.42,9.2-7.67,16.77-14.9,23.13-22.09Z"/>
            <path class="cls-3" d="m453.63,133.51l73.06,129.36c-10.72-.14-21.7.38-32.87,1.59-29.36,3.18-55.54,8.28-80.02,15.59-15.41,4.6-30.66,10.02-45.7,16.21l85.54-162.76Z"/>
            <path class="cls-2" d="m280.81,366.68c43.72-30.33,90.38-53.03,138.71-67.47,23.31-6.96,48.31-11.83,76.45-14.87,25.12-2.72,49.03-1.76,71.07,2.86,12.11,2.54,24.13,7.09,34.76,13.16,12.55,7.17,23.31,17.35,32.91,31.12,4.18,6,6.99,13.33,8.97,19.04,1.8,5.19,2.83,11.6,3.14,19.6.45,11.61-2.69,24-9.87,39.01-5,10.44-13,20.12-20.17,28.23-5.69,6.43-12.55,12.97-20.97,19.99-9.92,8.28-20.66,16.06-31.05,23.58-4.37,3.17-8.84,6.4-13.29,9.7l-.07-.09-8.09,6.25.12.15c-8.53,7.11-15.73,14-21.97,21.03l-.28-.22-6.23,8.06s-.01.02-.03.04l.36.28c-1.29,2-2.49,4-3.6,6l-.55-.23-4.03,9.56.63.27s-.01.04-.02.07l-.77-.1-1.08,8-.33.05.17,1.22-.18,1.36.37.05,1.07,8,.13-.02s1.89,4.48,1.9,4.51l-.55.43,1.36,1.76-.63.83,1.63,1.26.11.26-.33.8,2.45,1.04.64.83s-.05.37-.04.37c.03,0,.05,0,.08.01l.29.04.7.91.81-.62,1.76,1.36.65-.84,2.21.93.37-.87,3.75.5.09-.64.06.46,10.63-1.43-.07-.52c5.95-1.37,12.11-3.23,18.69-5.64l.1.23,9.55-4.03-.09-.21c17.69-8.36,34.31-18.54,50.47-28.43,8.57-5.24,17.42-10.66,26.22-15.67,19.83-11.29,37.98-19.56,55.48-25.3,8.13-2.66,16.43-4.64,24.65-5.87,11.37-1.71,23.45-3.31,35.33-2.63,37.28,2.15,57.3,16.05,67.54,27.33,8.88,9.8,14.73,20.19,17.39,30.89,2.82,11.36,2.91,22.1.33,37.08-2.97,17.19-12.42,33.81-29.75,52.3-3.83,4.08-10.65,8.61-17.88,13.4-17.18,11.38-36.65,24.29-37.84,44.69-.81,13.92,10.4,24.57,21.89,27.9,16.45,4.77,33.46-.06,48.77-6.15l.03.07,6.79-2.9c.05-.02.1-.04.15-.06l-.19-.44c4.13-2.16,8.22-4.42,12.25-6.77.23,7.88,2.7,15.73,7.33,22.9,6.86,10.63,17.7,18.54,30.52,22.26,1,.29,2.01.54,3.01.78-5.14,3.39-10.42,6.53-15.8,9.37-19.51,10.31-38.06,16.98-55.15,19.85-23.18,3.88-42.69,3.66-61.4-.7-17.34-4.04-33.75-12.54-47.46-24.58-17.08-15-27.27-44.77-11.54-77.47,9.21-19.15,23.87-33.78,39.38-49.28,11.94-11.92,24.28-24.24,34.12-38.93,9.61-14.33,6.12-24.52,3.18-29.32-4.92-8.03-15.21-12.61-27.67-12.61-2.09,0-4.24.13-6.44.39-35.98,4.32-65.36,23.09-93.77,41.24-11.01,7.04-22.39,14.31-33.79,20.45-12.1,6.51-25.21,12.48-38.96,17.72-12.68,4.83-26.2,7.85-41.34,9.23-14.25,1.3-29.27-1.73-43.42-8.77-6.28-3.12-12.29-7.78-16.91-13.12-8.3-9.59-12.43-17.69-16.74-28.45-6.73-16.79-7.52-38.05-2.13-56.89,4.8-16.77,14.06-32.65,29.14-49.98,14.28-16.41,31.81-29.05,50.37-42.42,19.41-13.99,37.92-28.76,52.51-47.92,2.35-3.09,4.66-6.38,5.43-10.18,1.25-6.18-1.9-12.59-6.51-16.9-5.24-4.89-13.1-8.45-19.27-10.38-3.74-1.17-7.64-2.18-11.71-3.04l.05-.4-10.63-1.43-.04.33c-13.41-1-27.7-.67-43.8,1.01l-.02-.16-10.63,1.43.02.17c-28.21,4.65-56.52,12.53-84.41,23.5,0,0-.05-.12-.06-.12-.02,0-.04.02-.06.03l-9.48,4,.05.12c-32.99,14.85-65.42,34.09-96.66,57.33,0,0-.06-.08-.08-.06l-8,6.18s-.04.03-.07.05l.06.08c-23.58,18.92-46.23,40-67.67,62.95-1.2-3.42-2.83-6.76-4.9-9.97-6.86-10.63-17.7-18.54-30.52-22.26-4.79-1.39-9.59-2.11-14.31-2.23,33.33-36.95,71.02-70.13,112.15-98.67Z"/>
            <path class="cls-3" d="m275.99,471.52c8.66-7.68,17.46-15.06,26.4-22.11,32.56-24.64,66.44-44.73,100.87-59.8,29.63-12.04,59.75-20.41,89.68-24.92,18.41-2.17,34.13-2.54,48.66-1.13,6.06,1.07,11.62,2.48,16.78,4.27,2.01,1.02,3.91,2.1,5.73,3.27.56.53,1.12,1.07,1.67,1.62-1.13,1.99-2.41,4.01-3.82,6.06-8.82,10.38-19.08,19.24-27.98,26.31-5.37,4.04-10.89,8.02-16.27,11.9-18.66,13.45-37.96,27.36-53.76,45.52-17.07,19.62-27.65,37.92-33.28,57.6-6.67,23.3-5.66,48.76,2.79,69.83,4.97,12.41,10.08,22.44,20.18,34.1,6.31,7.29,14.52,13.65,23.12,17.93,17.47,8.69,36.19,12.42,54.14,10.78,16.98-1.55,32.24-4.97,46.65-10.46,14.56-5.55,28.46-11.87,41.32-18.8,12.06-6.49,23.76-13.97,35.08-21.2,16.32-10.43,32.1-20.51,48.73-27.81l19.12,33.85c-.73.73-1.45,1.45-2.18,2.18-16.02,16-32.59,32.54-43.28,54.76-17.55,36.5-10.97,77.15,16.37,101.17,16.17,14.2,35.57,24.24,56.11,29.03,11.4,2.66,22.99,3.99,35.25,3.99,10.71,0,21.94-1.01,34.01-3.03,2.95-.49,5.93-1.1,8.94-1.79l22.54,39.91-763.2-2.17,189.64-360.85Z"/>
          </g>
        </g>
        <path d="m528.44,709.19c-.53-4.25-.12-6.98,1.32-8.61.91-1.03,2.21-1.58,3.77-1.58s3.25.53,4.88,1.04c1.32.41,2.67.84,3.64.86l2.23-1.12,2.23,2.8-.52.63c-.72.86-1.66,1.4-2.81,1.6-1.75.88-3.49,1.75-5.23,2.61-2.21,1.1-4.41,2.2-6.61,3.3l-2.53,1.27-.35-2.81Zm24.17,12.13l-2.15-1.52-.89,2.48c-3.33,9.33.21,17.21,3.62,24.84,2.53,5.65,5.15,11.49,4.86,17.88-.13,2.91,3.72,4.54,9.1,6.83,1.54.66,3.14,1.33,4.43,1.98l2.39,1.2.48-2.63c1.61-8.87-.09-15.22-6.28-23.42-2.31-3.07-3.6-6.78-4.96-10.72-2.12-6.13-4.31-12.46-10.6-16.92Zm-12.74-41.97c2.57,2.88,3.99,4.39,5.73,4.4.69.2,1.42.3,2.17.3,5.11,0,11.3-4.87,13.8-10.86,1.85-4.45,1.31-8.48-1.54-11.36-1.64-1.66-3.38-2.5-5.18-2.5-3.88,0-6.77,3.72-9.83,7.66-2.16,2.78-4.39,5.65-6.77,6.91l-2.4,1.27,1.93,1.91c.65.64,1.38,1.47,2.1,2.28Zm-12.31,73.81c.92,0,1.96-.06,3.08-.18l2.88-.31-1.3-2.58c-1.35-2.68-2.69-5.36-4.03-8.05-.99-1.98-1.98-3.97-2.98-5.96l-.38-.75-3.49,1.04.09.83c.13,1.17-.37,2.92-.85,4.61-.85,2.98-1.81,6.37.06,8.84,1.28,1.69,3.54,2.51,6.92,2.51Zm-105.28,13.51c.79.71,1.6,1.44,2.24,2.09l1.96,1.95,1.24-2.47c.63-1.26,1.41-2.56,2.16-3.82,2.1-3.53,4.27-7.17,4.28-11.09,0-5.4-2.09-10.68-4.12-15.79-.76-1.92-1.55-3.91-2.21-5.87l-.28-.82-3.66.67.04.87c.42,10.15-1.38,18.65-5.87,27.55-1,2.03.96,3.8,4.21,6.74Zm18.71,7.17c-.97-1.08-2.08-2.14-3.31-3.14l-.69-.56-2.7,2.64.55.71c.98,1.26,2.14,2.39,3.46,3.35,10.19,11.87-.85,27.37-8.91,38.7-.96,1.35-1.89,2.65-2.72,3.86-2.08-.24-4.46-.48-6.76-.48-1.83,0-3.43.15-4.92.45l-.88.18.38,3.78h.9c1.25,0,2.72.12,4.17.24,1.49.12,3.04.25,4.43.25,1.3,0,2.32-.11,3.18-.34l.44.05c2.65.31,5.39.64,8.02.64,4.82,0,11.69-.98,15.65-9.45.87-1.83-.7-3.2-2.52-4.79-1.74-1.52-2.31-2.18-2.47-2.47l.08-.74c.74-7.17,1.72-11.88,8.4-11.88.75,0,1.56.06,2.41.19,1.87.28,3.88.41,6.32.41,1.33,0,2.67-.04,4.01-.07l-.03-1,.13,1c1.28-.04,2.56-.07,3.84-.07h2.75l-.85-2.62c-3.49-10.8-12.48-12.81-20.41-14.6-4.45-1-8.66-1.94-11.96-4.23Zm129.98-67.84c.71.04,1.43.08,2.13.08,1.38,0,2.5-.16,3.52-.5l1.23-.41c5.41-1.78,11.53-3.8,12.94-8.03,1.14-3.43-1.19-7.22-3.67-11.24-.81-1.31-1.64-2.67-2.27-3.9l-1.06-2.1-1.9,1.39c-7.85,5.73-11.48,14.3-14.68,21.86l-1.18,2.78h3.02c.63,0,1.28.04,1.92.08Zm-90.93,51.97c1.58.68,3.22,1.39,4.54,2.05l6.02,3.04-3.38-5.83c-.72-1.23-1.54-2.52-2.28-3.66-3.38-5.24-6.57-10.2-3.88-14.88.67-1.16,6.82-2.31,10.13-2.93,7.03-1.31,11.05-2.19,11.96-4.94,1.1-3.3-3.36-6.17-8.53-9.5-1.31-.84-4.47-2.88-5.63-3.95.49-.21,1.49-.46,3.52-.46,1.63,0,3.53.15,5.43.3,1.83.15,3.73.3,5.39.3,2.45,0,5.41-.29,6.57-2.55,1.2-2.34-.43-5.1-1.76-6.96l-.36-.51-.58-.21c-8.6-3.13-15.12-4.65-19.95-4.65-14.48,0-14.83,12.88-15.33,30.71-.15,5.32-.31,11.34-.83,17.84-.22,2.82,3.42,4.39,8.96,6.77Zm26.21,25.73l3.66-.98c1.28-.34,2.57-.67,3.86-.99,9.28-2.33,18.87-4.73,25.29-13.8l2.64-3.73-4.53.59c-1.55.2-3.18.36-4.77.51-9.53.9-20.34,1.93-24.89,14.83l-1.26,3.58Zm-69.38-66.18c-.4,2.27.55,4.57,2.83,6.85,1.9,1.91,3.75,2.84,5.64,2.84,4.84,0,7.62-5.9,10.57-12.15,1.67-3.54,3.39-7.19,5.35-9.41l.59-.67-2.54-2.8-.73.52c-2.19,1.58-5.42,3.08-8.56,4.53-6.34,2.93-12.34,5.7-13.15,10.29Zm346.2,114.96l1.48-4.12c.67-1.86,3.42-2.61,6.33-3.42,3.38-.93,7.22-1.99,8.79-5.35,1.16-2.48.8-5.7-1.09-9.86l-.38-.84-3.61,1.31.24.89c.3,1.1.3,1.89-.01,2.33-.75,1.08-3.79,1.32-6.23,1.52-3.86.31-7.86.64-9.5,3.73-1.25,2.35-.66,5.52,1.84,9.98l2.15,3.81Zm-89.42-16.24h.02c4.63,0,7.72-2.36,10.2-4.26,2.13-1.63,3.82-2.92,6.11-2.92,2.53,0,5.74,1.6,9.8,4.88.62.5,1.46.75,2.56.75,3.63,0,11.62-2.95,13.29-7.57.49-1.35.83-4.01-2.33-6.62-1.79-1.48-3.77-2.2-6.04-2.2-3.13,0-6.17,1.36-9.38,2.81-3.03,1.36-6.17,2.77-9.13,2.77-3.16,0-5.87-1.61-8.53-5.05l-1.94-2.51-1.43,2.84c-1.16,2.31-2.31,4.62-3.47,6.93l-.27.54c-1.09,2.18-2.17,4.35-3.27,6.54l-1.23,2.45,2.71.42c.8.12,1.58.19,2.33.19ZM422.28,262.68c.79.71,1.6,1.44,2.24,2.09l1.96,1.95,1.24-2.47c.63-1.26,1.41-2.56,2.16-3.82,2.1-3.53,4.27-7.17,4.28-11.09,0-5.4-2.09-10.68-4.12-15.79-.76-1.92-1.55-3.91-2.21-5.87l-.28-.82-3.66.67.04.87c.42,10.15-1.38,18.65-5.87,27.55-1,2.03.96,3.8,4.21,6.74Zm141.36,524.92c-1.11,0-2.28-.06-3.42-.11-1.18-.06-2.39-.11-3.59-.11-4.77,0-10.66.95-14.01,8.35l-1.05,2.33,2.52.46c3.17.58,5.57.84,7.78.84,7.09,0,11.97-2.81,15.35-8.84l1.81-3.22-3.69.25c-.56.04-1.12.05-1.7.05Zm-118.29-564.39c4.84,0,7.62-5.9,10.57-12.15,1.67-3.54,3.39-7.19,5.35-9.41l.59-.67-2.54-2.8-.73.52c-2.19,1.58-5.42,3.08-8.56,4.53-6.34,2.93-12.34,5.7-13.15,10.29-.4,2.27.55,4.57,2.83,6.85,1.9,1.91,3.75,2.84,5.64,2.84Zm217.98,562.8c3.3,5.52,6.42,10.73,5.31,17.21l-.15.85,3.52,1.16.39-.77c.63-1.25,1.39-2.5,2.12-3.71,2.04-3.36,4.14-6.83,4.14-11.14v-.16c-.61-5.46-5.44-9.42-11.51-9.42-1.34,0-2.72.2-4.09.58l-2.48.7,1.29,2.23c.48.83.97,1.65,1.46,2.48Zm-153.68,2.47c-3.18,0-6.23-1.48-9.18-2.92-2.83-1.38-5.51-2.68-8.28-2.68-.54,0-1.08.05-1.59.15-9.87,1.97-9.88,10.34-9.9,17.72-.01,6.43-.02,12.5-5.17,15.92l-1.7,1.13,1.16,1.68c2.3,3.33,7.52,8.6,11.76,8.6,1.81,0,3.3-.97,4.08-2.66,3.52-7.6,7.41-12.27,11.17-16.79,3.91-4.7,7.96-9.56,11.5-17.51l1.52-3.42-3.69.63c-.56.09-1.12.14-1.69.14Zm116.04-125.27c.92,0,1.96-.06,3.08-.18l2.88-.31-1.3-2.58c-1.29-2.56-2.57-5.12-3.85-7.69l-.11-.22c-1.01-2.03-2.03-4.07-3.05-6.11l-.38-.75-3.49,1.04.09.83c.13,1.17-.37,2.92-.85,4.62-.85,2.98-1.81,6.36.06,8.84,1.28,1.69,3.54,2.51,6.92,2.51Zm-1.33,125.67c-.78,2.23-1.52,4.34-8.43,6.92-2.1.59-3.45,1.14-3.71,1.25l-.88.37,1.33,3.67.91-.28c1.3-.39,2.5-.8,3.5-1.17,2.35-.65,6.02-1.43,10.14-1.43,3.49,0,6.74.56,9.65,1.66.28,1.2.46,4.77.54,6.57.18,3.7.38,7.53,1.05,10.11.65,2.44,1.28,4.86,1.9,7.26l.05.18c.67,2.57,1.34,5.14,2.03,7.72l.2.76,3.52-.09.16-.77c.46-2.18,2.26-5.75,3.84-8.9,1.59-3.17,2.97-5.92,3.24-7.64,1.82-12.31,2.76-29.45-9.97-36.18l-.63-.33-.7.14c-15.26,3.05-16.48,6.52-17.76,10.2Zm-484.91-10l-.63-.33-.7.14c-15.26,3.05-16.48,6.52-17.76,10.2-.78,2.23-1.52,4.34-8.43,6.92-2.1.59-3.45,1.14-3.71,1.25l-.88.37,1.33,3.67.91-.28c1.3-.39,2.5-.8,3.5-1.17,2.35-.65,6.02-1.43,10.14-1.43,3.49,0,6.74.56,9.65,1.66.28,1.2.46,4.77.54,6.57.18,3.7.38,7.53,1.05,10.11.65,2.44,1.28,4.86,1.9,7.26l.05.18c.67,2.57,1.34,5.14,2.03,7.72l.2.76,3.52-.09.16-.77c.46-2.18,2.26-5.75,3.84-8.9,1.59-3.17,2.97-5.92,3.24-7.64,1.82-12.31,2.76-29.45-9.97-36.18Zm209.47-271.65c-.99-1.98-1.97-3.96-2.97-5.95l-.38-.75-3.49,1.04.09.83c.13,1.17-.37,2.92-.85,4.62-.85,2.98-1.81,6.36.06,8.84,1.28,1.69,3.54,2.51,6.92,2.51.92,0,1.96-.06,3.08-.18l2.88-.31-1.3-2.58c-1.36-2.69-2.7-5.37-4.04-8.06Zm-46.69,183.29l1.21,1.88c4.85,7.51.92,12.07-4.06,17.85-4.57,5.3-9.75,11.3-7.47,20.23.32,1.26.1,2.84-.12,4.53-.47,3.51-1.07,7.89,2.94,11.75l2.12,2.05,1.12-2.73c2.25-5.5,3.93-11.25,5.56-16.82,4.54-15.47,8.82-30.09,24.41-40.87l2.35-1.62-2.33-1.65c-2.66-1.89-5.28-2.81-7.99-2.81-4.32,0-7.9,2.34-11.37,4.6-1.43.94-2.92,1.9-4.37,2.63l-2,1Zm116.35,12c1.32,0,2.76-.2,4.28-.58,5.47-1.37,10.64-3.18,15.64-4.93,1.85-.65,3.71-1.3,5.59-1.93l.86-.29-.84-3.71-.9.11c-2.16.27-4.12.41-5.84.41-8.9,0-10-3.26-11.4-7.4-.63-1.88-1.35-4.02-2.97-5.64-1.43-1.43-3.24-2.19-5.23-2.19-5.01,0-10.19,4.94-10.26,9.79-.08,6.4,1.19,10.83,3.87,13.55,1.84,1.86,4.26,2.81,7.19,2.81Zm-92.83-76.19c6.46.14,13.14.29,17.73,3.09.23,1.05-.44,5.11-.67,6.51-.25,1.52-.51,3.09-.64,4.49l-.64,6.68,4.2-5.24c8.03-10.03,14.8-17.14,21.99-24.68,7.02-7.36,14.28-14.98,22.79-25.56.5-.63,3.63-6.86,5.95-12.14,5.17-11.72,4.55-13.98,3.48-15.28l-1.4-1.7-1.56,1.56c-5.58,5.58-11.83,13.51-18.45,21.91-11.16,14.17-23.81,30.21-35.06,36.79-.7-.12-2.48-1.26-3.82-2.11-3.33-2.13-7.48-4.79-12.08-4.79-.92,0-1.82.11-2.69.33-2.6.64-4.57,2.52-6.52,4.38-.67.63-1.35,1.29-2.03,1.84l-3.75,3.07,4.82.47c2.74.27,5.59.33,8.34.39Zm10.96,90.45c1.27,1.69,3.54,2.51,6.92,2.51.92,0,1.96-.06,3.08-.18l2.88-.31-1.3-2.58c-1.36-2.68-2.69-5.37-4.04-8.06-.99-1.98-1.97-3.96-2.97-5.95l-.38-.75-3.49,1.04.09.83c.13,1.17-.37,2.92-.85,4.61-.85,2.98-1.81,6.36.06,8.84Zm-27.23-76.02c.09.71.17,1.41.25,2.13.83,7.03,1.7,14.29,5.74,19.52.41.52,1.21,1.15,2.72,1.15,1.29,0,2.9-.43,4.62-.89,1.59-.42,3.23-.86,4.28-.86.17,0,.27.01.33.02,1.53,1.51,3.86,3.14,6.34,4.87,4.77,3.33,10.7,7.46,11.46,11.32l.62,3.18,2.56-1.98c1.12-.87,2.52-1.76,3.89-2.64,4.04-2.58,7.86-5.02,7.88-8.52.04-8.06-12-10.9-24.74-13.9-4.51-1.06-9.17-2.16-12.9-3.45-4.09-1.43-7.58-5.55-9.13-10.77-.22-1.74-.49-3.78-.89-5.82l-.18-.9-3.81.41.02.92c.05,2.1.36,4.18.92,6.2Zm-36.02-56.84c16.76,0,19.76-15.25,20.48-30.11.37-1.15,6.51-4.68,8.89-4.8.46.36,3.17,2.46,3.17,2.46l-.18-4.31c-.05-1.21.56-3.63,1.62-6.47.4-1.06,3.47-2.32,5.31-3.07,3.1-1.27,6.02-2.47,6.21-5.01.52-6.59-.23-12.03-.88-16.82-1.07-7.82-2-14.58,3.13-23.74,3.39-6.06,10.13-6.87,16.28-6.87,2.1,0,4.27.11,6.45.21h.13c.79.04,1.58.08,2.36.12l6.56.27-5.29-3.88c-6.4-4.7-11.9-6.99-16.82-6.99-5.8,0-9.92,3.23-12.9,6.23l-20.7-8.61-.86.52c-2.01,1.2-3.24,2.85-3.64,4.88-1.03,5.25,3.94,11.88,8.74,18.3,3.81,5.09,8.56,11.42,7.28,13.99-3.23,6.49-6.09,13.26-8.87,19.84-7.65,18.11-15.56,36.84-31.79,50.02l-3.56,2.9,4.55.64c1.51.21,2.97.32,4.34.32Zm-83.81,232.33h.02c4.63,0,7.72-2.36,10.2-4.26,2.13-1.63,3.82-2.92,6.11-2.92,2.53,0,5.74,1.6,9.8,4.88.62.5,1.46.75,2.56.75,3.63,0,11.62-2.95,13.29-7.57.49-1.35.83-4.01-2.33-6.62-1.79-1.48-3.77-2.2-6.04-2.2-3.13,0-6.17,1.36-9.38,2.81-3.03,1.36-6.17,2.77-9.13,2.77-3.16,0-5.87-1.61-8.53-5.05l-1.94-2.51-1.43,2.84c-1.16,2.31-2.31,4.62-3.47,6.93l-.27.54c-1.09,2.18-2.17,4.35-3.27,6.54l-1.23,2.45,2.71.42c.8.12,1.58.19,2.33.19Zm-15.01-26.79c-.59-5.46-5.43-9.42-11.5-9.42-1.34,0-2.72.2-4.09.58l-2.48.7,1.29,2.23c.48.83.97,1.65,1.46,2.48,3.3,5.52,6.42,10.73,5.31,17.21l-.15.85,3.52,1.16.39-.77c.63-1.25,1.39-2.5,2.12-3.71,2.04-3.36,4.14-6.83,4.14-11.14v-.16Zm28.63-82.86l2.64-3.73-4.53.59c-1.54.2-3.14.35-4.79.51-9.53.91-20.32,1.94-24.87,14.82l-1.26,3.58,3.66-.98c1.29-.34,2.58-.67,3.88-.99,9.27-2.32,18.85-4.72,25.27-13.8Zm53.5-95.78l-2.39,1.27,1.92,1.91c.62.62,1.34,1.42,2.08,2.26,2.58,2.9,4.01,4.42,5.72,4.42h.02c.69.2,1.42.3,2.17.3,5.11,0,11.31-4.87,13.81-10.86,1.85-4.44,1.31-8.48-1.55-11.36-1.64-1.66-3.39-2.5-5.19-2.5-3.89,0-6.78,3.72-9.84,7.67-2.15,2.77-4.38,5.64-6.75,6.9Zm-25.4,8.57c1.54.66,3.13,1.35,4.41,1.99l5.99,3.01-3.37-5.8c-.72-1.23-1.55-2.52-2.28-3.66-3.38-5.24-6.57-10.2-3.88-14.88.67-1.16,6.81-2.31,10.12-2.92,7.03-1.32,11.05-2.19,11.97-4.94,1.11-3.31-3.36-6.19-8.54-9.52-1.3-.84-4.45-2.87-5.61-3.93.49-.21,1.49-.45,3.52-.45,1.64,0,3.55.15,5.43.3,1.83.15,3.73.3,5.38.3,2.46,0,5.43-.29,6.59-2.55,1.21-2.34-.43-5.1-1.76-6.96l-.36-.51-.58-.21c-8.6-3.13-15.13-4.65-19.96-4.65-14.47,0-14.83,12.87-15.32,30.74-.15,5.31-.32,11.32-.83,17.81-.22,2.84,3.45,4.41,9.08,6.83Zm-53.1,55.34c1.25,0,2.73.12,4.18.25,1.5.12,3.04.25,4.44.25,1.31,0,2.33-.11,3.18-.34l.42.05c2.65.31,5.39.64,8.02.64,5.23,0,11.74-1.07,15.67-9.46.83-1.81-.73-3.18-2.54-4.77-1.74-1.53-2.32-2.19-2.47-2.48l.07-.72c.73-7.18,1.71-11.89,8.39-11.89.75,0,1.56.06,2.42.19,1.86.27,3.86.4,6.28.4,1.35,0,2.69-.04,4.04-.08,1.32-.04,2.64-.07,3.96-.07h2.75l-.85-2.62c-3.49-10.79-12.47-12.81-20.4-14.59-4.45-1-8.66-1.95-11.97-4.23-.97-1.09-2.09-2.14-3.32-3.15l-.69-.56-2.7,2.64.55.7c.98,1.26,2.14,2.39,3.46,3.35,10.19,11.87-.86,27.38-8.94,38.72-.96,1.34-1.87,2.63-2.7,3.83-2.09-.24-4.47-.48-6.76-.48-1.82,0-3.43.15-4.92.45l-.88.18.38,3.78h.9Zm144.4-208.02c4.84,0,7.62-5.9,10.57-12.15,1.67-3.54,3.39-7.19,5.35-9.41l.59-.67-2.54-2.8-.73.52c-2.19,1.58-5.43,3.08-8.56,4.53-6.34,2.93-12.34,5.7-13.15,10.29-.4,2.27.55,4.57,2.83,6.85,1.9,1.91,3.75,2.84,5.64,2.84Zm47.15,27.89c4.45,2.78,9.05,5.66,14.41,5.66,1.67,0,3.35-.29,4.97-.87,2.26-.8,3.14-1.91,4.36-3.43.75-.94,1.68-2.1,3.31-3.74l.17-.17.13-.21c.97-1.62,1.99-3.23,3.04-4.91,4.88-7.75,9.93-15.76,9.93-24.02,0-2.99-3.8-4.59-9.07-6.8-1.56-.66-3.18-1.34-4.48-1.99l-4-2.02,1.16,4.32c2.76,10.23,1.57,20.04-3.19,26.25-3.55,4.63-8.95,7.08-15.61,7.08-2.17,0-4.48-.26-6.89-.76l-.83-.17-1.32,3.43.74.43c1.05.61,2.1,1.26,3.16,1.93Zm-115.25,152.68c-1.24-2.03-4.02-3.02-8.74-3.12l-2.83-.06.89,2.69c.81,2.44,1.61,4.87,2.41,7.31,0,0,1.18,3.6,1.73,5.27.03,1.16.43,2.18,1.17,3.01l.54.61,3.1-1.8-.78-2.36c.16-.96.8-2.29,1.38-3.48,1.25-2.6,2.68-5.54,1.13-8.07Zm-29.01,63.63c1.28-1.66,4-3.05,6.65-4.4,1.44-.74,2.94-1.5,4.28-2.34l2.34-1.47-2.13-1.76c-1.97-1.64-3.92-3.24-5.89-4.86l-3.78-3.11-1.08,2.37c-1.48,3.22-2.41,7.08-3.23,10.5l-.03.11c-.28,1.14-.54,2.24-.82,3.28-.25.4-.45.82-.62,1.24-.29.75-.48,1.55-.6,2.43-.41.93-.77,1.38-1,1.6-13.12,12.68-12.56,17.14-11.91,22.3.13,1.02.26,2.08.26,3.23,0,0,0,1.32-.01,1.76-2.32,3.2-3.58,6.76-3.83,10.85-1.05.54-2.37.81-3.94.81-.54,0-1.12-.03-1.72-.1l-2.39-.25.18,2.39c.21,2.72.1,5.64,0,8.49-.34,9.61-.74,20.49,11.36,27.3l3.52,1.98-.56-4c-1.41-10.07-.43-18.7,3.16-27.97.73-1.87-.93-3.06-2.85-4.44-1.77-1.27-2.47-1.91-2.73-2.24,3.05-2.94,3.64-7.58,3.77-11.43,1.85-2.24,4.18-4.08,6.45-5.86,2.22-1.75,4.33-3.4,6-5.42,2.27-2.75,1.57-6.79.84-11.06-.41-2.4-.84-4.88-.68-6.95.33-.83.64-1.78.98-2.99Zm80.75,55.66c-.52.12-1.25.48-1.83,1.49-1.1,1.95-1.63,6.83-.68,9.72,1.72,5.29,6.4,7.51,10.53,9.48,2.64,1.25,5.13,2.44,5.98,4.13,3.53,6.93-2.32,13.81-7.98,20.47-1.35,1.59-2.74,3.23-3.97,4.83l-1.49,1.95,8,3.88c2.77,1.35,5.54,2.7,8.32,4.03l1.8.87.87-1.8c.62-1.29,1.47-2.71,2.3-4.09,2.45-4.09,4.76-7.96,3.28-11.14-7.18-15.3-1.09-31.17,4.81-46.51,1.27-3.31,2.48-6.46,3.57-9.62,1.9.61,3.78.92,5.61.92,6.36,0,11.9-3.72,15.21-10.2,2.12-4.16,4.85-8.92,7.76-13.99,8.69-15.17,19.5-34.05,20.93-49.24l.25-2.65-2.62.5c-1.38.27-3.06.47-4.68.67-5.28.65-9.84,1.21-10.7,4.18-8.31,28.99-32.54,74.78-65.26,82.12Zm126.77-287.33c-5.27,0-9.6,3.14-10.79,7.87l-.03.15c-.61,4.22.98,7.97,2.53,11.6.55,1.3,1.12,2.64,1.56,3.95l.27.82,3.65-.65-.02-.86c-.19-6.56,3.63-11.27,7.67-16.25l.07-.09c.59-.73,1.18-1.45,1.75-2.18l1.59-2.03-2.36-1.04c-1.95-.86-3.93-1.29-5.9-1.29Zm-13.16-34.44c2.9,3,5.91,6.1,8.6,11.12.7,1.3,1.98,2.05,3.52,2.05,3.41,0,7.6-3.65,9.45-5.95l1.47-1.83-2.04-1.16c-3.7-2.11-3.71-5.79-3.72-10.06,0-4.71-.02-11.16-8.13-12.55-.41-.07-.83-.11-1.26-.11-2.21,0-4.31.88-6.55,1.82-2.27.95-4.62,1.94-7.06,1.94-.44,0-.87-.03-1.29-.09l-3.87-.58,1.8,3.47c2.81,5.42,6,8.72,9.09,11.92Zm-158.61,311.78l-.28-2.64c-.17-1.58-.47-3.38-.77-5.13-.29-1.71-1.04-6.12-.82-7.28,12.93-7.61,15.21-20.15,17.41-32.28,1.78-9.8,3.62-19.94,11.16-27.58l2.56-2.59-3.56-.77c-2.45-.53-4.85-1.06-7.27-1.59l-5.12-1.12.29,2.76c.54,5.05-6.48,25.32-7.86,26.88-4.23,2.78-6.2,5.12-6.39,7.55-.21,2.7,1.79,4.53,3.56,6.15,2.91,2.65,4.66,4.25.96,8.87-4.9,6.11-10.36,6.34-16.15,6.58-6.74.28-14.38.6-19.39,11.65l-1.94,4.28,4.43-1.57c2.25-.8,3.86-1.18,4.93-1.18,1.18,0,1.78.44,3.21,1.49,2.7,1.99,6.78,5,18.42,7.06l2.62.46Zm134.78,50.3c-1.14,0-2.36-.06-3.44-.11-1.19-.06-2.42-.12-3.64-.12-4.75,0-10.64.95-13.98,8.37l-1.05,2.33,2.51.46c3.17.58,5.56.84,7.77.84,7.1,0,11.98-2.81,15.36-8.83l1.81-3.22-3.68.24c-.55.04-1.1.05-1.66.05Zm-15.55-63.49c2.18,1.23,4.02,3.03,5.35,5.21.24,2.97.69,6.12,1.38,9.59-.21.33-.46.57-.75.72-11.97,6.36-13.32,13.36-14.51,19.54-.83,4.29-1.48,7.69-5.65,10.61l-.76.53,1.98,3.31.83-.42c1.35-.68,2.71-1.43,3.91-2.09,3.27-1.8,6.35-3.5,9.78-4.37,1.54-.39,3.28-.57,5.45-.57,1.25,0,2.56.06,3.89.12,1.26.06,2.7.12,4.1.12h2.45l-.48-2.4c-.88-4.37-2.04-8.73-3.15-12.94-1.01-3.83-2.06-7.8-2.89-11.72,1.04-3.15.43-7.4-1.63-11.23-.29-4.4-.06-8.46.68-12.4l1.2-6.36-13.45,13.45,2.3,1.29Zm-86.36,65.51l-3.61,1.31.24.89c.3,1.1.3,1.89-.01,2.33-.75,1.08-3.79,1.32-6.23,1.52-3.86.31-7.86.64-9.5,3.73-1.25,2.35-.66,5.52,1.84,9.98l2.15,3.81,1.48-4.12c.67-1.86,3.42-2.61,6.33-3.42,3.38-.93,7.22-1.99,8.79-5.35,1.16-2.48.8-5.7-1.09-9.86l-.38-.84Zm-17.63-14.76l.13-.21c.97-1.61,1.99-3.22,3.01-4.84,4.91-7.76,9.98-15.79,9.98-24.09,0-2.99-3.8-4.59-9.06-6.8-1.56-.66-3.17-1.33-4.48-2l-3.99-2.02,1.16,4.32c2.75,10.24,1.55,20.05-3.21,26.26-3.55,4.63-8.94,7.07-15.59,7.07-2.16,0-4.48-.26-6.9-.76l-.83-.17-1.32,3.43.74.43c1.05.61,2.1,1.26,3.16,1.93,4.45,2.78,9.04,5.66,14.4,5.66,1.68,0,3.35-.29,4.98-.87,2.27-.8,3.15-1.91,4.37-3.45.75-.94,1.67-2.1,3.3-3.73l.17-.17Zm8.65-165.18c2.19,1.24,4.26,2.41,6.22,2.41,1.02,0,1.9-.31,2.62-.92l1.66-1.41-1.54-1.54c-.61-.6-1.26-1.38-1.92-2.16-2-2.38-3.89-4.62-6.42-4.62h-.15c-7.15.33-12.41,3.02-15.62,8-6.32,9.81-2.28,25.5-.16,30.81l.07.14.04.06c3.14,5.25,8.56,9.21,12.62,9.21,1.69,0,3.13-.69,4.05-1.94,1.56-2.1,1.59-5.49.1-10.36-7.31-23.91-6.5-28.66-5.79-29.57.9,0,2.74,1.05,4.22,1.89Zm685.1,274.92c-2.85,4.86-8.06,7.85-13.7,7.85h-.04l-816.67-2.32c-5.55-.02-10.69-2.93-13.55-7.68-2.86-4.75-3.04-10.66-.45-15.57l11.51-21.9-77.35-.22c-5.55-.02-10.69-2.93-13.55-7.68-2.86-4.75-3.04-10.66-.45-15.57l152.27-289.73c-1,.55-2.02,1.08-3.08,1.57-6.8,3.13-14.26,4.72-21.87,4.72-5.26,0-10.59-.75-15.83-2.28-26.98-7.84-43.23-33.84-36.23-57.97,1.62-5.56,4.34-10.54,7.89-14.82,2.1-4.49,4.99-8.53,8.66-12.04,3.95-4.69,7.88-9.26,11.71-13.58,35.38-39.99,75.7-75.79,119.82-106.41,16.57-11.5,33.56-21.93,50.89-31.29l118.78-226c2.7-5.14,8-8.4,13.81-8.49,5.83-.11,11.21,3.01,14.06,8.07l39.39,69.74,12.58-23.94c2.7-5.14,8-8.4,13.81-8.49,5.82-.05,11.2,3.01,14.06,8.07l98.34,174.13c2.04,2.55,4.03,5.21,5.98,8,4.85,6.96,8.11,14.66,10.46,21.11l70,123.95c8.06-.88,16.4-1.37,24.93-.88,44.03,2.54,68.46,19.81,81.2,33.86,11.13,12.27,18.53,25.56,21.99,39.51,4.39,17.68,2.78,32.82.62,45.29-3.3,19.13-13.14,37.88-29.96,57.13l19.45,34.44c8.23-7.94,20.02-16.8,34.29-20.48,16.84-4.34,32.7-.24,45.88,11.86,7.44,6.83,12.72,17.46,14.39,28.4,2.07,7.4,2.2,15.25-.03,22.92h0c-3.01,10.35-9.82,18.7-18.75,24.24-8.08,7.58-16.88,14.64-26.14,20.94l71,125.72c2.78,4.92,2.73,10.95-.12,15.83Zm-101.35-190.31c4.25,6.58,11.1,11.52,19.29,13.9,16.39,4.76,32.93-2.37,36.86-15.9h0c3.93-13.53-6.21-28.42-22.6-33.18-3.41-.99-6.87-1.48-10.25-1.48-4.74,0-9.34.97-13.49,2.88-6.63,3.06-11.29,8.21-13.12,14.51s-.66,13.14,3.3,19.28Zm-260.36-240.87c-10.45,8.72-21.47,16.7-32.13,24.42-5.37,3.89-10.88,7.88-16.27,11.93-10.63,8.51-19.05,16.51-25.97,24.71-2.48,3.55-4.61,7.06-6.42,10.58-.56,1.69-1.04,3.37-1.44,5.06-.03,1.05-.03,2.11,0,3.17.03.14.07.27.1.41.25-.01.49-.03.74-.04,7.26-1.43,14.93-3.76,23.54-7.14,18.16-8.2,35.58-18.86,52.48-29.2,8.7-5.32,17.69-10.83,26.76-15.99,7.75-4.41,15.27-8.39,22.62-11.97.31-.38.63-.76.94-1.11l-21.23-37.59c-.2.22-.4.45-.59.67-6.37,7.19-13.93,14.42-23.13,22.09Zm-240.52-176.44c15.04-6.19,30.29-11.61,45.7-16.21,8.13-2.43,16.46-4.61,25.02-6.56-.17-.22-.34-.44-.52-.65-1.32-.96-2.48-2.09-3.46-3.35l-.55-.71,2.7-2.64.69.56c1.23,1,2.34,2.06,3.31,3.14,1.33.92,2.82,1.62,4.41,2.2,15.26-3.22,31.29-5.73,48.42-7.59,9.59-1.04,19.03-1.57,28.29-1.61,1.35-.35,2.72-.62,4.1-.83l-27.51-48.72c-.25-.02-.51-.04-.76-.06-1.9-.15-3.8-.3-5.43-.3-2.03,0-3.03.25-3.52.46,1.16,1.06,4.32,3.1,5.63,3.95,5.16,3.33,9.62,6.2,8.53,9.5-.91,2.75-4.93,3.63-11.96,4.94-3.31.62-9.46,1.76-10.13,2.93-2.69,4.68.5,9.63,3.88,14.88.73,1.14,1.56,2.42,2.28,3.66l3.38,5.83-6.02-3.04c-1.32-.67-2.95-1.37-4.54-2.05-5.54-2.38-9.18-3.95-8.96-6.77.52-6.5.68-12.53.83-17.84.49-17.83.85-30.71,15.33-30.71,1.02,0,2.14.08,3.31.22l-16.31-28.89-1.29,1.28-1.36-1.99c-3.13-4.59-5.7-6.82-7.85-6.82-1.71,0-3.49,1.37-5.56,2.96-2.97,2.29-6.33,4.88-11.17,4.88-.69,0-1.4-.06-2.11-.17l-6.17-.96,5.58-2.8c1.43-.72,3.04-1.35,4.6-1.97,2.98-1.18,6.7-2.64,7.19-4.24,1.77-5.67,3.01-12.62,1.72-19.24l-4.19-7.42-26.3,50.04c1.36,2.42,3.74,4.06,10.04,4.06,1.71,0,3.68-.14,5.84-.41l.9-.11.84,3.71-.86.29c-1.88.63-3.74,1.28-5.59,1.93-5,1.75-10.17,3.56-15.64,4.93-1.18.3-2.32.48-3.39.55l-27.52,52.36c.05,1.36-.1,2.65-.48,3.8.83,3.93,1.88,7.89,2.89,11.72,1.12,4.21,2.27,8.57,3.15,12.94l.48,2.4h-2.45c-1.41,0-2.84-.07-4.1-.12-1.32-.06-2.63-.12-3.89-.12-2.18,0-3.91.18-5.45.57-2.97.75-5.68,2.13-8.47,3.65l-5.56,10.58Zm-199.43,169.08c4.71.12,9.52.83,14.31,2.23,12.82,3.72,23.66,11.63,30.52,22.26,2.07,3.21,3.7,6.55,4.9,9.97,21.44-22.96,44.09-44.04,67.67-62.95l-.06-.08s.05-.04.07-.05l8-6.18s.08.06.08.06c31.24-23.24,63.68-42.48,96.66-57.33l-.05-.12,9.48-4s.04-.02.06-.03c0,0,.06.12.06.12,27.89-10.97,56.2-18.85,84.41-23.5l-.02-.17,10.63-1.43.02.16c16.1-1.68,30.39-2.01,43.8-1.01l.04-.33,10.63,1.43-.05.4c4.08.86,7.97,1.87,11.71,3.04,6.17,1.93,14.03,5.49,19.27,10.38,4.61,4.3,7.76,10.72,6.51,16.9-.77,3.8-3.08,7.09-5.43,10.18-14.59,19.16-33.1,33.94-52.51,47.92-18.56,13.37-36.08,26-50.37,42.42-15.08,17.33-24.34,33.21-29.14,49.98-5.39,18.84-4.6,40.1,2.13,56.89,4.31,10.76,8.43,18.86,16.74,28.45,4.62,5.33,10.62,9.99,16.91,13.12,14.15,7.04,29.17,10.07,43.42,8.77,15.14-1.38,28.66-4.4,41.34-9.23,13.75-5.24,26.86-11.2,38.96-17.72,11.4-6.14,22.78-13.41,33.79-20.45,28.41-18.15,57.79-36.92,93.77-41.24,2.2-.26,4.35-.39,6.44-.39,12.46,0,22.75,4.59,27.67,12.61,2.94,4.8,6.44,14.98-3.18,29.32-9.85,14.69-22.19,27.01-34.12,38.93-2.26,2.26-4.5,4.49-6.7,6.73.05.02.1.03.14.05-2.85,3.2-5.91,6.23-9.02,9.2-9.41,10.17-17.78,20.77-23.81,33.31-15.73,32.7-5.53,62.47,11.54,77.47,13.71,12.04,30.11,20.54,47.46,24.58,18.71,4.36,38.22,4.59,61.4.7,17.09-2.86,35.65-9.54,55.15-19.85,5.37-2.84,10.65-5.98,15.8-9.37-1-.23-2.01-.49-3.01-.78-12.82-3.72-23.66-11.63-30.52-22.26-4.63-7.17-7.1-15.02-7.33-22.9-4.04,2.35-8.12,4.62-12.25,6.77l.19.44c-.05.02-.1.04-.15.06l-6.79,2.9-.03-.07c-15.31,6.1-32.32,10.92-48.77,6.15-11.49-3.33-22.7-13.99-21.89-27.9,1.19-20.4,20.66-33.31,37.84-44.69,7.23-4.79,14.05-9.31,17.88-13.4,17.33-18.49,26.79-35.11,29.75-52.3,2.58-14.98,2.49-25.72-.33-37.08-2.65-10.7-8.5-21.09-17.39-30.89-10.23-11.28-30.25-25.18-67.54-27.33-11.88-.68-23.96.92-35.33,2.63-8.22,1.23-16.51,3.21-24.65,5.87-17.5,5.73-35.64,14.01-55.48,25.3-8.79,5.01-17.65,10.43-26.22,15.67-16.16,9.89-32.78,20.06-50.47,28.43l.09.21-9.55,4.03-.1-.23c-6.58,2.41-12.74,4.27-18.69,5.64l.07.52-10.63,1.43-.06-.46-.09.64-3.75-.5-.37.87-2.21-.93-.65.84-1.76-1.36-.81.62-.7-.91-.29-.04s-.05,0-.08-.01c0,0,.04-.37.04-.37l-.64-.83-2.45-1.04.33-.8-.11-.26-1.63-1.26.63-.83-1.36-1.76.55-.43s-1.9-4.51-1.9-4.51l-.13.02-1.07-8-.37-.05.18-1.36-.17-1.22.33-.05,1.08-8,.77.1s.01-.04.02-.07l-.63-.27,4.03-9.56.55.23c1.12-2.01,2.32-4,3.6-6l-.36-.28s.02-.03.03-.04l6.23-8.06.28.22c6.23-7.03,13.43-13.93,21.97-21.03l-.12-.15,8.09-6.25.07.09c4.45-3.3,8.91-6.53,13.29-9.7,10.39-7.52,21.13-15.3,31.05-23.58,8.42-7.02,15.28-13.56,20.97-19.99,7.17-8.1,15.18-17.79,20.17-28.23,7.19-15.01,10.32-27.4,9.87-39.01-.31-8-1.34-14.41-3.14-19.6-1.98-5.71-4.79-13.04-8.97-19.04-9.59-13.77-20.36-23.95-32.91-31.12-10.63-6.07-22.65-10.63-34.76-13.16-5.16-1.08-10.43-1.95-15.78-2.63.2.39.4.79.59,1.18-.82-.27-1.6-.66-2.32-1.15.16-.07.32-.13.48-.19-17.16-2.07-35.26-2.1-54.04-.07-28.14,3.05-53.14,7.91-76.45,14.87-48.33,14.43-94.99,37.13-138.71,67.47-41.12,28.53-78.82,61.72-112.15,98.67Zm507.67,199.91c1.37-2.84,2.83-5.59,4.38-8.26-.41.01-.81.03-1.22.04-3.34.33-5.61,1.25-6.87,2.81-1.94,2.41-1.46,6.58-.98,10.6.2,1.68.39,3.39.43,5.03,1.21-3.43,2.63-6.85,4.26-10.23Zm-154.04-302.52c.91.69,1.64,1.43,2.19,2.25,3.73,2.79,9.49,4.98,13.78,5.25l.35.02c4.16-.03,7.89-1.77,10.96-5-2.56-.63-5.2-1.2-7.97-1.68-6.18-.6-12.58-.88-19.31-.83Zm17.79,37.35c7.28-6.11,15.01-13.24,21.87-21.31,1.22-1.77,2.31-3.5,3.32-5.22-.04-.01-.08-.03-.11-.05-9.72,2.29-19.7,4.74-25.05,14.52l-.02,12.07Zm-376.96,135.78c8.19,2.38,16.62,1.88,23.74-1.4,6.63-3.06,11.29-8.21,13.12-14.51h0c1.83-6.3.66-13.14-3.3-19.28-4.25-6.58-11.1-11.52-19.29-13.9-3.45-1-6.91-1.48-10.25-1.48-12.55,0-23.51,6.7-26.61,17.38-3.93,13.53,6.21,28.42,22.6,33.18Zm-76.78,296.51l97.76.28c7.01-3.44,14.39-5.23,22.17-5.38l2.04-.04v5.49l21.61.06c1.5-1.56,3.04-3.03,4.57-4.49,4.11-3.93,8.34-7.98,11.63-13.51.97-1.64,2.68-2.58,4.69-2.58,2.77,0,6.09,1.73,8.26,4.31,1.53,1.82,2.2,3.79,1.9,5.54-1.35,7.93-7.33,8.37-12.6,8.75-3.16.23-6.23.46-8.81,2l108.67.31c2.65-2.92,5.93-5.34,10.33-6.84,2.32-.79,4.21-1.18,5.78-1.18,2.61,0,3.95,1.12,4.62,2.05,1.15,1.61,1.16,3.75.7,6.03l146.64.42c1.1-.36,2.26-.55,3.45-.55.09,0,.19.01.28.02.12,0,.24-.02.37-.02,1.33,0,2.63.22,3.88.57l18.55.05c2.74-2.34,4.99-4.89,7.06-7.26,4.13-4.73,8.02-9.19,14.12-9.19,4.48,0,9.69,2.42,16.37,7.6,1.28-.99,2.96-2.74,3.21-3.37-.4-2.34-1.59-4.64-2.85-7.07-2.22-4.28-4.74-9.13-2.66-14.82,2.12-5.76,7.38-7.43,12.47-9.05.66-.21,1.28-.41,1.91-.62.62-.21,1.19-.43,1.71-.67,1.17-3.56,2.64-6.54,4.48-9.08-.01-.58-.03-1.18-.06-1.79-.26-7.08-.61-16.7,14.08-24.03h0s.04-.05.11-.18c.21-1.15.49-2.19.86-3.17.46-3.74-.04-9.26-1.91-12.23-.31-.5-.65-.98-1-1.42l-11.35-5.68c-1.32-.15-2.76-.22-4.39-.22-2.28,0-4.68.14-7,.27l-2.13.12c-1.2.17-2.52.26-3.84.26-.89,0-1.8-.04-2.72-.12l-.97-.08.22-3.93.97.02c.41.01.82.02,1.23.02,1.71,0,3.46-.08,4.8-.15,8.55-1.23,14.9-7.08,20.47-13.22l.59-.65,3.07,2.11-.39.78c-1.18,2.35-2.35,4.69-3.52,7.03,0,0-1.52,3.04-2.22,4.45,4.02,1.01,7.2,2.92,9.71,5.8,5.38,2.69,10.77,5.38,16.16,8.07l3.57,1.78-3.56,1.79c-1.44.73-3.04,1.36-4.59,1.97-3.03,1.2-6.47,2.55-7.33,4.28-.2,1.32-.5,2.45-.9,3.36-.42,2.83-.22,6.05-.03,9.16.31,5.1.64,10.37-1.55,14.76-.91,1.8-3.21,1.8-4.19,1.8-.85,0-1.79-.07-2.77-.14-.98-.07-1.99-.14-2.9-.14-1.84,0-2.25.32-2.26.32-.09.11-.18.22-.28.34-.05,3.84-.78,7.72-5.14,10.46-1.13,3.9-1.81,8.07-2.47,12.11-1.51,9.29-2.93,18.03-9.51,22.69-4.32,3.06-9.5,5.18-15.12,6.99l115.02.33c7.8-4.36,16.07-6.63,24.85-6.8l2.04-.04v6.92l20.27.06c1.92-2.1,3.92-4.02,5.91-5.92,4.11-3.93,8.34-7.98,11.63-13.51.97-1.64,2.68-2.58,4.69-2.58,2.77,0,6.09,1.73,8.26,4.31,1.53,1.82,2.2,3.79,1.9,5.54-1.35,7.93-7.33,8.37-12.6,8.75-3.95.29-7.78.57-10.66,3.43l107.82.31-22.54-39.91c-3.01.69-5.99,1.29-8.94,1.79-12.07,2.02-23.29,3.03-34.01,3.03-2.68,0-5.31-.07-7.93-.2-.84.94-1.75,1.68-3.39,2.26-1.62.58-3.3.87-4.98.87-5.36,0-9.95-2.88-14.4-5.66-.22-.14-.44-.27-.65-.41-1.3-.27-2.6-.55-3.9-.85-12.13-2.83-23.87-7.51-34.78-13.78.04,2.46.24,4.98.61,7.59l.56,4-3.52-1.98c-8.56-4.82-10.86-11.68-11.36-18.68-2.61-1.97-5.15-4.02-7.62-6.19-14.99-13.16-23.72-31.33-25.68-51.07l-2.01,2.01c-.74.74-1.58,1.45-2.39,2.13-1.37,1.15-3.25,2.73-3.3,3.62-.68,13.2,4.62,24,17.18,34.99,6.31,2.08,12.26,6.6,16.75,12.74l.5.68-2.56,2.62-.7-.48c-5.62-3.91-11.07-7.77-15.99-11.99-1.32-.39-2.66-.65-3.99-.79-.45.26-1.46,1.44-1.85,1.89-1.39,1.62-2.97,3.47-5.06,3.47-4.6,0-14.11-3.55-14.52-8.18-.26-2.76-.71-5.51-1.19-8.42-1.86-11.27-3.78-22.91,5.67-35.68-.03-.28-.22-1.24-1.53-3.66-1.4-1.43-2.82-3.08-4.43-5.12-1.27.64-4.8,2.4-4.8,2.4-2.11,1.05-4.22,2.1-6.32,3.16l-1.79.9-.9-1.79c-4.68-9.35-9.36-18.68-14.02-28.04l-1.69-3.4,3.76.53c12.56,1.77,19.08,10.59,25.38,19.11.51.7,1.03,1.39,1.54,2.08l1.72-.87.9,1.79c.63,1.27,1.49,2.73,2.32,4.14.54.91,1.07,1.82,1.56,2.7,2.92,2.91,5.89,4.94,9.09,6.22l2.66,1.06c-.99-10.27-.15-20.96,2.61-31.6-1.38,1.46-3.11,2.24-5.03,2.24h0c-4.5,0-9.35-4.38-10.59-9.57-.48-2.02-1.34-4.42-2.25-6.95-2.33-6.5-4.96-13.83-2.53-18.83,1.03-2.11,2.83-3.61,5.37-4.45l1.13-.38.87.82c6.2,5.84,13.84,6.63,20.49,6.63.75,0,1.5-.01,2.25-.03.96-.09,2.08-.14,3.26-.14h.6c6-9.51,13.03-18,20.41-25.98-.68-.63-1.3-1.3-1.86-2.02l-.55-.7,2.7-2.64.69.56c.68.55,1.32,1.13,1.92,1.71,4.32-4.55,8.74-8.97,13.11-13.33.73-.73,1.45-1.45,2.18-2.18l-19.12-33.85c-.55.24-1.1.49-1.65.73,2.03,3.45,4.05,6.9,6.1,10.34-1.28,5.04-3.64,9.97-7.02,14.2-.29.36-.58.74-.88,1.13-2.27,2.94-4.59,5.94-7.58,5.94-2.62,0-4.6-2.38-6.51-4.66-.63-.76-1.29-1.54-1.9-2.15l-1.96-1.96,2.48-1.25c1.44-.72,3.16-1.43,4.69-2.05,1.91-.78,6.36-2.61,6.75-3.52.26-3.15-.92-7.57-2.18-12.15-12.73,6.46-25.11,14.32-37.79,22.42,2.2-.82,4.5-1,6.58-1,1.22,0,2.49.06,3.6.12,1.13.05,2.3.11,3.41.11.57,0,1.14-.01,1.7-.05l3.69-.25-1.81,3.22c-3.38,6.03-8.26,8.83-15.35,8.83-2.21,0-4.61-.26-7.78-.84l-2.52-.46,1.05-2.33c.88-1.94,1.93-3.43,3.1-4.59-10.36,6.61-21.03,13.33-32,19.24-1.59.85-3.19,1.7-4.81,2.53-1.73,4.33-3.6,7.85-6.48,8.1-15.73,1.42-20.11,12.64-24.74,24.52-.23.59-.46,1.18-.69,1.76,4.2,1.52,7.98,3.9,11.64,6.21,5.88,3.7,11.43,7.2,18.31,7.2.73,0,1.48-.04,2.23-.12l.81-.09,1.11,3.4-.7.41c-1.19.69-2.4,1.47-3.69,2.3-4.16,2.69-8.46,5.48-12.9,5.48-2.13,0-4.1-.66-5.85-1.95-2.2-1.61-1.96-5.35-1.71-8.97.05-.73.12-1.89.12-2.61-10.54-3.8-16.9-9.78-18.4-17.33-.67-3.39-.33-7.05.91-10.76-13.37,4.74-27.52,7.77-43.12,9.19-4.39.4-8.83.47-13.28.24-1.5.8-2.96,1.68-3.08,2.19-1.49,12.87-5.43,18.55-10.43,25.75-1.91,2.76-4.08,5.88-6.34,9.77l-1.3,2.25-1.84-1.83c-.62-.61-1.39-1.26-2.14-1.89-2.4-2.01-4.67-3.91-4.68-6.53-.03-6.27,4.85-10.62,9.57-14.82,3.13-2.79,6.09-5.42,7.1-8.23.9-2.49,1.67-5.12,2.35-7.84-10.18-1.69-20.32-4.99-30.07-9.84-3.83-1.9-7.57-4.24-11.11-6.87.45.45.89.91,1.32,1.4,1.91,2.22,1.69,5.43,1.48,8.53-.13,1.94-.27,3.95.11,5.58.2.85.38,1.73.56,2.61,1.3,6.39,2.38,10.31,7.75,10.31.9,0,1.91-.11,3.01-.33l6.49-1.31-7.03,7.04c-1.55,1.55-3.09,3.1-4.66,4.66l-1.71,1.7-1.36-1.99c-3.13-4.59-5.7-6.82-7.85-6.82-1.71,0-3.49,1.37-5.56,2.96-2.97,2.29-6.33,4.88-11.17,4.88-.69,0-1.4-.06-2.11-.17l-6.17-.96,5.58-2.8c1.43-.72,3.04-1.35,4.6-1.97,2.98-1.18,6.7-2.64,7.19-4.24,3.02-9.69,4.51-23.14-5.53-32.24-.72-.65-1.55-1.32-2.4-1.96-.85-.3-1.7-.58-2.55-.87l-.3-.1c-2.14-.73-4.3-1.46-6.37-2.27-5.73,3.96-7.9,12.89-5.8,24.03l1.12,5.94-4.45-4.1c-3.73-3.45-6.78-8.26-9.73-12.92-4.76-7.52-9.25-14.6-15.58-14.6-1.92,0-3.96.61-6.24,1.87-5.01,2.77-10.79,9.76-17.47,17.86l-1.97,2.38c-1.13,1.38-1.66,2.54-1.48,3.29.38,1.59,3.97,3.16,7.14,4.54,6.73,2.93,15.93,6.93,13.6,17.57l-.78,3.56-2.58-2.58c-1.4-1.39-2.72-2.83-4-4.22-3.16-3.43-6.14-6.67-9.95-9.12-1.53-.99-3.62-1.74-5.65-2.46-4.03-1.44-7.84-2.8-9.08-6.26-.79-2.19-.3-4.71,1.5-7.72,7.21-12.09,19.4-17.33,31.19-22.4,8.51-3.66,17.31-7.44,24.06-13.78l2.6-2.45.72,3.5c1.63,7.88,6.97,11.25,12.58,13.64.48-.15,1-.23,1.56-.23,3.27,0,7.47,2.67,9.77,4.32,3.61,1.28,7.52,2.79,11.08,5.09-2.7-2.33-5.23-4.83-7.5-7.46-10.1-11.66-15.21-21.69-20.18-34.1-.46-1.15-.89-2.32-1.3-3.49-1.55,1.85-3.14,3.65-4.72,5.43-4.1,4.63-8.34,9.42-11.44,14.71l-.45.77-3.45-1.52.26-.85c1.43-4.62,3.26-9.3,5.03-13.83,4.99-12.77,9.7-24.83,5.52-34.08-2.44-5.41-7.78-9.56-16.34-12.69l-2.94-1.08,2.21-2.21c.73-.73,1.57-1.44,2.38-2.12,1.14-.96,3.25-2.74,3.25-3.47,0-3.91-2.57-9.93-5.43-11.11-2.93-1.2-6.32-1.87-9.55-1.87-6.65,0-11.92,2.72-14.47,7.48-6.81,12.72-11.68,16.78-19.05,22.93-2.47,2.06-5.22,4.36-8.43,7.29-2.22,2.03-2.41,6.44-2.64,11.54-.31,7.02-.67,14.97-6.25,21.16l-1.41,1.56-1.49-1.48c-.75-.75-1.59-1.75-2.4-2.72-.54-.65-1.39-1.66-2.08-2.38-4.48,7.62-10.26,11.96-15.99,11.96-5.15,0-9.55-3.55-11.51-9.26l-4.69-9.39,2.77-.38c16.55-2.24,23.01-12.48,29.86-23.33,3.42-5.42,6.96-11.02,11.84-15.64,1.41-1.34,3.42-1.5,4.82-1.5.94,0,1.96.08,2.87.16.91.07,1.83.15,2.65.15,1.21,0,2.04-.17,2.46-.49,8.41-6.58,8.39-17.4,6.89-25.31l-.15-.77,3.21-1.44.48.62c2.62,3.39,5.42,5.04,8.58,5.04s6.23-1.43,9.32-2.82c3.15-1.42,6.13-2.75,9.14-2.75,2.27,0,4.21.75,5.91,2.31,6.75,6.13,10.42,13.77,13.96,21.16,1.79,3.74,3.56,7.4,5.67,10.81.22-5.77.89-11.55,2-17.27-.6.23-1.18.47-1.8.68l-4.71,1.58,2.31-4.4c2.58-4.93,5.41-9.46,8.47-13.7,5.2-15.06,13.47-29.47,25.54-44.47-.73-1.73-1.16-4.68-1.81-9.1-.33-2.23-1.01-6.86-1.4-7.56l.35-.25-.51-2.65.77-.3c1.43-.57,2.95-1,4.41-1.41.99-.28,1.99-.56,2.92-.88.88-2.42,2.22-4.72,3.51-6.95.73-1.25,1.48-2.55,2.12-3.82l2.61-5.18,1.14,5.68c1.72,8.58-2.52,11.73-6.13,13.3-.11.47-.19.92-.23,1.38-.43,4.11-.82,7.37-1.19,9.94,8.34-9.44,17.62-17.74,27.26-25.43l-2.86-2.85,4.74,1.35c7.84-6.17,15.89-11.98,23.82-17.69,5.38-3.88,10.91-7.86,16.27-11.9.78-.62,1.58-1.27,2.37-1.91-.23,0-.45-.02-.69-.02-.97,0-1.97.04-2.99.08h-.13c-1.13.05-2.54.1-3.87.1-.08,0-.16,0-.25,0-.13,0-.27,0-.4,0-3.65,0-7.7-.35-10.06-2.93-1.4-1.53-2-3.62-1.76-6.22.31-3.5,1.64-7,2.93-10.39,2.16-5.69,4.2-11.06,1.65-16.12-.94-.76-1.73-1.54-2.36-2.32-1.44-.89-3.31-1.65-5.15-2.37-.89.04-1.79.09-2.69.14-3.75,8.3-9.77,14.98-15.61,21.45-7.91,8.76-16.09,17.83-18.48,30.92-1.99,10.82-5.32,16.3-9.89,16.3-1.81,0-3.64-.92-5.45-2.72-1.83-1.83-2.59-3.69-2.25-5.51.62-3.34,4.64-5.13,8.19-6.71.95-.42,3.39-1.51,3.97-2.07,1.19-20.23,10.33-36.12,21.78-50.08-8.99,1.36-17.99,3.07-26.99,5.12,1.6.87,2.62,1.85,2.54,3.36-.41,7.73-3.04,13.65-7.82,17.58-1.58,6.93-4.55,19.27-14.73,19.27-1.88,0-3.94-.45-6.1-1.33-2.5-1-2.28-4.65-1.96-10.17.09-1.51.18-3.06.18-4.35v-2.11l2.11.11c.78.04,1.57.06,2.35.06,6.05,0,10.95-1.28,14.57-3.79.17-.74.33-1.45.49-2.11,1.14-4.79,1.33-9.84,1.52-14.72v-.19c-15.43,3.81-30.85,8.63-46.16,14.43,3.96,5.06,6.38,10.49,6.86,15.81.65,7.28-2.06,14.1-8.06,20.26-1.58,1.61-3.78,2.43-6.55,2.43-5.29,0-12.11-3-18.13-5.65l-.11-.05c-1.28-.57-2.53-1.12-3.72-1.61l-6.35-2.66,6.79-1.15c7.4-1.26,13.97-6.22,17.58-13.28,1.76-3.44,2.61-7.04,2.55-10.51-.14.05-.27.11-.41.16-17.06,7.47-33.99,16.17-50.69,26.05,5.37,3.26,11.38,3.78,16.75,3.78.75,0,1.5-.01,2.25-.03.96-.09,2.08-.14,3.26-.14l1.66.02.06,3.94-.97.04c-1.28.06-2.56.11-3.84.14-3.34.33-5.61,1.25-6.87,2.81-1.94,2.41-1.46,6.58-.98,10.6.55,4.73,1.13,9.62-1.88,12.97-1.4,1.56-3.19,2.38-5.18,2.38h0c-4.5,0-9.35-4.38-10.59-9.57-.48-2.04-1.35-4.44-2.26-6.99-1.48-4.13-3.08-8.61-3.42-12.61-12.89,8.11-25.63,16.92-38.17,26.41-8.94,7.05-17.74,14.43-26.4,22.11l-.92,1.74c1.3,1.51,2.14,3.37,2.37,5.45v.16c.01,4.31-2.1,7.78-4.13,11.14-.73,1.21-1.49,2.46-2.12,3.71l-.39.77-3.52-1.16.15-.85c.29-1.69.29-3.29.07-4.84l-8.02,15.26c.06.01.11.02.17.03,7.27,1.31,15.5,2.8,15.7,12.87.07,3.38-2.02,6.24-4.23,9.27-2.27,3.11-4.62,6.33-4.65,10.21l-.02,3.75-3.1-2.11c-6.81-4.63-10.82-9.21-14.57-13.66l-7.5,14.27,4.36-.57-2.64,3.73c-2.04,2.88-4.4,5.09-6.97,6.84l-55.77,106.12.04,3.18-.97.04c-.26.01-.52.02-.78.03l-10.49,19.95c-.1,2.45-.67,4.72-2.31,6.53-.58.65-1.24,1.17-1.94,1.55l-12.22,23.24c2.81,2.73,5.67,4.66,8.74,5.89l2.82,1.12-2.14,2.15c-.74.74-1.58,1.45-2.39,2.13-1.37,1.15-3.25,2.73-3.3,3.62-.68,13.2,4.62,24,17.18,34.99,6.31,2.08,12.26,6.6,16.75,12.74l.5.68-2.56,2.62-.7-.48c-5.62-3.91-11.07-7.77-15.99-11.99-1.32-.39-2.66-.65-3.99-.79-.45.26-1.46,1.44-1.85,1.89-1.39,1.62-2.97,3.47-5.06,3.47-4.6,0-14.11-3.55-14.52-8.18-.26-2.76-.71-5.51-1.19-8.42-1.86-11.27-3.78-22.91,5.67-35.68-.01-.15-.09-.51-.35-1.18l-62.86,119.6Z"/>
      </g>
    </g>
  </g>
</svg>