<?xml version="1.0" encoding="UTF-8"?>
<svg id="Layer_8_copy" data-name="Layer 8 copy" xmlns="http://www.w3.org/2000/svg" viewBox="0 0 1023.36 990.08">
  <defs>
    <style>
      .cls-1 {
        fill: #b2c2ff;
      }
    </style>
  </defs>
  <g id="Other_Shapes_copy" data-name="Other Shapes copy">
    <polygon class="cls-1" points="502.12 118.69 898.03 819.72 134.83 817.55 502.12 118.69"/>
    <path d="m954.26,892.76L558.34,191.74l-8.56,16.28-57.97-102.64c-2.86-5.06-8.27-8.11-14.06-8.07-5.81.09-11.11,3.34-13.81,8.49L70.93,853.63c-2.58,4.91-2.41,10.82.45,15.57,2.86,4.76,8,7.67,13.55,7.68l113.16.32-7.04,13.39,763.2,2.17Zm-748.06-69.17l-.63-.33-.7.14c-15.26,3.05-16.48,6.52-17.76,10.2-.78,2.23-1.52,4.34-8.43,6.92-2.1.59-3.45,1.14-3.71,1.25l-.88.37,1.19,3.27-16.92-.05c.51-2.94,1.08-5.88,1.9-8.69,4.36-2.74,5.09-6.62,5.14-10.46.1-.12.19-.23.28-.34,0,0,.42-.32,2.26-.32.91,0,1.92.07,2.9.14.99.07,1.92.14,2.77.14.98,0,3.29,0,4.19-1.8,2.19-4.39,1.87-9.66,1.55-14.76-.19-3.12-.39-6.33.03-9.16.4-.91.7-2.04.9-3.36.86-1.73,4.29-3.08,7.33-4.28,1.55-.61,3.14-1.24,4.59-1.97l3.56-1.79-3.57-1.78c-5.4-2.69-10.78-5.38-16.16-8.07-2.5-2.88-5.69-4.78-9.71-5.8.7-1.4,2.22-4.45,2.22-4.45,1.17-2.34,2.33-4.68,3.52-7.03l.39-.78-3.07-2.11-.59.65c-5.31,5.85-11.32,11.42-19.27,13.01l25.24-48.03c1.22-.79,2.38-1.54,3.51-2.19l.7-.41-1.09-3.35,5.89-11.21c1.22.53,2.75.79,4.65.79.92,0,1.96-.06,3.08-.18l2.88-.31-1.3-2.58c-1.29-2.56-2.57-5.12-3.85-7.69l-.11-.21,21.48-40.88,1.35.25c3.17.58,5.57.84,7.78.84,7.09,0,11.97-2.81,15.35-8.83l1.81-3.22-3.69.25c-.56.04-1.12.05-1.7.05-1.11,0-2.28-.06-3.41-.11-1.12-.05-2.38-.12-3.6-.12-3.03,0-6.52.39-9.52,2.58l23.65-44.99,1.13.35c9.27,2.9,19.93,10.96,18.14,32.79-.38.91-4.84,2.74-6.75,3.52-1.52.62-3.25,1.33-4.69,2.05l-2.48,1.25,1.96,1.96c.62.61,1.27,1.39,1.9,2.15,1.91,2.29,3.89,4.65,6.51,4.66h0c2.98,0,5.3-3,7.58-5.94.3-.39.59-.77.88-1.13,8.23-10.29,10.51-24.69,5.55-35.01-3.62-7.52-10.36-11.66-18.98-11.66-2.77,0-5.75.46-8.85,1.32l10.85-20.65c.24,0,.48.04.71.04,4.44,0,8.49-1.71,11.7-4.94,4.03-4.04,6.52-10.29,6.49-16.3,0-1.77.4-2.42.96-3.33.7-1.13,1.57-2.53,1.57-5.45,0-.98,2.78-4.57,6.21-7.14,4.02-3.02,6.92-13.46,10.28-25.54,2.67-9.58,5.98-21.51,8.91-23.46l.61-.41,2.35-8.24,16.38-31.17c3.34,2.71,7.2,4.01,11.92,4.01,3.32,0,6.68-.63,9.94-1.25,3.06-.58,6.23-1.17,9.17-1.17,1.26,0,2.4.1,3.48.32,1.32.61,2.76,1.14,4.29,1.58l.86.24,1.43-3.49-.78-.43c-1.4-.77-2.91-1.35-4.5-1.71-14.04-6.87-10.05-25.46-7.12-39.05.35-1.63.69-3.19.97-4.63,3.75-1.13,7.64-2.43,10.75-4.6l.74-.52-1.85-3.32-.83.36c-1.17.51-2.64,1-3.95,1.43-2.72.91-5.29,1.78-6.96,3.09l-.41.12c-.55.16-1.1.33-1.66.5l39.57-75.28c2.01,1,3.74,2.02,4.42,3.38,3.53,6.93-2.32,13.81-7.98,20.47-1.35,1.59-2.74,3.23-3.97,4.83l-1.49,1.95,8,3.88c2.77,1.35,5.54,2.7,8.32,4.03l1.8.87.87-1.8c.62-1.29,1.47-2.71,2.3-4.09,2.45-4.09,4.76-7.96,3.28-11.14-7.18-15.3-1.09-31.17,4.81-46.51,1.27-3.31,2.48-6.46,3.57-9.62,1.9.61,3.78.92,5.61.92,6.36,0,11.9-3.72,15.21-10.2,2.12-4.16,4.85-8.92,7.76-13.99,8.69-15.17,19.5-34.05,20.93-49.24l.25-2.65-2.62.5c-1.38.27-3.06.47-4.68.67-5.28.65-9.84,1.21-10.7,4.18-5.36,18.69-17.34,44.35-33.95,62.2l44.8-85.25c3.04,2.27,5.6,5.04,8.28,7.95,1.28,1.39,2.6,2.83,4,4.22l2.58,2.58.78-3.56c2.22-10.08-5.95-14.2-12.53-17.1l15.69-29.85c1.14-.37,2.22-.56,3.27-.56,6.33,0,10.82,7.09,15.58,14.6,2.95,4.66,6,9.47,9.73,12.92l4.45,4.1-1.12-5.94c-.58-3.05-.82-5.92-.77-8.58l15.13,26.79c-1.1.44-2.2.91-3.2,1.41l-5.58,2.8,6.17.96c.71.11,1.42.17,2.11.17,1.18,0,2.26-.16,3.28-.42l23.09,40.88c-1.09,5.06-1.27,11.43-1.46,18.6-.15,5.32-.31,11.34-.83,17.84-.22,2.82,3.42,4.39,8.96,6.77,1.58.68,3.22,1.39,4.54,2.05l6.02,3.04-3.38-5.83c-.72-1.23-1.54-2.52-2.28-3.66-3.38-5.24-6.57-10.2-3.88-14.88.37-.65,2.46-1.29,4.81-1.85l22.84,40.44c-.43.87-.83,1.81-1.19,2.82l-1.26,3.58,3.66-.98c.53-.14,1.07-.28,1.61-.41l3.09,5.47-3.27.56c-.56.09-1.12.14-1.69.14-3.18,0-6.23-1.48-9.18-2.92-2.83-1.38-5.51-2.68-8.28-2.68-.54,0-1.08.05-1.59.15-9.87,1.97-9.88,10.34-9.9,17.72-.01,6.43-.02,12.5-5.17,15.92l-1.7,1.13,1.16,1.68c2.3,3.33,7.52,8.6,11.76,8.6,1.81,0,3.3-.97,4.08-2.66,3.52-7.6,7.41-12.27,11.17-16.79,3.91-4.7,7.96-9.56,11.5-17.51l1.32-2.97,26.42,46.78c-1.67,1.28-3.5,2.47-5.61,3.49,0,0-.02,0-.03,0-1.12-.18-2.85-1.06-4.53-1.93-3.17-1.63-6.77-3.47-10.68-3.47-.12,0-.24.01-.37.02-.09,0-.18-.02-.28-.02-1.35,0-2.66.23-3.88.68l-.98.36-.12.45c-5.41,2.99-6.06,8.83-6.54,13.22-.24,2.23-.49,4.53-1.32,5.38-17.25,17.81-34.22,37.56-35.88,65.66-.58.56-3.02,1.65-3.97,2.07-3.55,1.58-7.57,3.37-8.19,6.71-.34,1.82.42,3.67,2.25,5.51,1.81,1.81,3.64,2.72,5.45,2.72,4.57,0,7.9-5.49,9.89-16.3,2.39-13.09,10.57-22.16,18.48-30.92,6.09-6.74,12.36-13.71,16.07-22.49.66.27,1.33.54,1.99.8,1.91.76,3.89,1.54,5.38,2.47.63.78,1.42,1.56,2.36,2.32,2.55,5.05.51,10.43-1.65,16.12-1.29,3.39-2.62,6.89-2.93,10.39-.23,2.59.36,4.68,1.76,6.22,2.36,2.58,6.41,2.93,10.06,2.93.13,0,.27,0,.4,0,.08,0,.16,0,.25,0,1.33,0,2.74-.05,3.87-.09h.13c1.02-.04,2.02-.07,2.99-.08.57,0,1.13.01,1.65.05l2.13.14v-.04l.64.04.03-15.32c5.35-9.77,15.33-12.23,25.05-14.52.05.02.1.04.14.06,0,0,.01,0,.02,0l10.9,19.3c1.24,3.85,3.15,7.02,5.5,9.73l10.6,18.77-.56,1.01c-1.96,3.55-4.97,8.22-8.45,13.62-11.47,17.83-27.15,42.18-25.19,57.01l-10.14,16.25,3.36.2c1.08.06,2.11.1,3.05.1,11.12,0,13.44-4.57,16.38-10.35.71-1.39,1.44-2.83,2.36-4.38l.29-.48v-.56c-.09-13.1,6.55-22.64,12.98-31.87,5.05-7.25,9.82-14.1,11.42-22.42l.08-.39c.33-1.69.76-3.96.81-6.42l23.62,41.82c-6.63,6.23-13.5,12.67-21.59,19.21-18.56,15.01-18.61,40.28-16.22,63.03l.34,3.25,2.74-1.79c9.55-6.23,8.43-15.17,7.54-22.36-.6-4.79-1.16-9.31.87-12.98,8.27-14.95,20.8-25.63,33.58-35.5l11.95,21.15c-.52,1.24-1.04,2.5-1.57,3.83-.33.85-.26,1.82.23,2.87,1.17,2.52,5.67,6.65,10.51,9.55l39.18,69.38c-.56.24-1.07.45-1.47.61-1.52.62-3.25,1.33-4.69,2.05l-2.48,1.25,1.96,1.96c.62.61,1.27,1.39,1.9,2.15,1.91,2.29,3.89,4.65,6.51,4.66h0c1.57,0,2.96-.84,4.25-2.05l11.01,19.49c-.72-.72-1.48-1.43-2.31-2.11l-.69-.56-2.7,2.64.55.7c.98,1.26,2.14,2.39,3.46,3.35,10.19,11.87-.86,27.38-8.94,38.72-.96,1.34-1.87,2.63-2.7,3.83-2.09-.24-4.47-.48-6.76-.48-1.82,0-3.43.15-4.92.45l-.88.18.38,3.78h.9c1.25,0,2.73.12,4.18.25,1.5.12,3.04.25,4.44.25,1.31,0,2.33-.11,3.18-.34l.42.05c2.65.31,5.39.64,8.02.64,5.23,0,11.74-1.07,15.67-9.46.83-1.81-.73-3.18-2.54-4.77-1.74-1.53-2.32-2.19-2.47-2.48l.07-.72c.64-6.3,1.47-10.69,6.18-11.68l47.35,83.84c-4.26,3.68-8.89,3.89-13.75,4.09-6.74.28-14.38.6-19.39,11.65l-1.94,4.28,4.43-1.57c2.25-.8,3.86-1.18,4.93-1.18,1.18,0,1.78.44,3.21,1.49,2.7,1.99,6.78,5,18.42,7.06l2.62.46-.28-2.64c-.17-1.58-.47-3.38-.77-5.13-.29-1.71-1.04-6.12-.82-7.28,2.66-1.56,4.85-3.34,6.7-5.28l11.74,20.78c-.62-.27-1.21-.55-1.75-.82l-3.99-2.02,1.16,4.32c2.75,10.24,1.55,20.05-3.21,26.26-3.55,4.63-8.94,7.07-15.59,7.07-2.16,0-4.48-.26-6.9-.76l-.83-.17-1.32,3.43.74.43c1.05.61,2.1,1.26,3.16,1.93,4.45,2.78,9.04,5.66,14.4,5.66,1.68,0,3.35-.29,4.98-.87,2.27-.8,3.15-1.91,4.37-3.45.75-.94,1.67-2.1,3.3-3.73l.17-.17.13-.21c.97-1.61,1.99-3.22,3.01-4.84,3.02-4.78,6.1-9.66,8.02-14.64l15.93,28.21-72.59-.21c-.4-.64-.98-1.3-1.77-1.96-1.79-1.48-3.77-2.2-6.04-2.2-3.13,0-6.17,1.36-9.38,2.81-.99.44-1.98.89-2.98,1.29l-11.02-.03c-1.25-.83-2.47-1.99-3.66-3.54l-1.94-2.51-1.43,2.84c-.54,1.06-1.06,2.13-1.59,3.19l-21.66-.06c.3-.52.61-1.03.92-1.54,2.04-3.36,4.14-6.83,4.14-11.14v-.16c-.61-5.46-5.44-9.42-11.51-9.42-1.34,0-2.72.2-4.09.58l-2.48.7,1.29,2.23c.48.83.97,1.65,1.46,2.48,3.14,5.24,6.1,10.21,5.43,16.26l-14.29-.04c-.04-9.4-2.37-18.78-11.02-23.35l-.63-.33-.7.14c-15.26,3.05-16.48,6.52-17.76,10.2-.78,2.23-1.52,4.34-8.43,6.92-2.1.59-3.45,1.14-3.71,1.25l-.88.37,1.33,3.67.91-.28c1.3-.39,2.5-.8,3.5-1.17,2.35-.65,6.02-1.43,10.14-1.43,3.49,0,6.74.56,9.65,1.66.11.48.21,1.35.29,2.33l-41.79-.12c.56-3.41,1.19-6.86,2.14-10.12,4.36-2.74,5.09-6.62,5.14-10.46.1-.12.19-.23.28-.34,0,0,.42-.32,2.26-.32.91,0,1.92.07,2.9.14.99.07,1.92.14,2.77.14.98,0,3.29,0,4.19-1.8,2.19-4.39,1.87-9.66,1.55-14.76-.19-3.12-.39-6.33.03-9.16.4-.91.7-2.04.9-3.36.86-1.73,4.29-3.08,7.33-4.28,1.55-.61,3.14-1.24,4.59-1.97l3.56-1.79-3.57-1.78c-5.4-2.69-10.78-5.38-16.16-8.07-2.5-2.88-5.69-4.78-9.71-5.8.7-1.4,2.22-4.45,2.22-4.45,1.17-2.34,2.33-4.68,3.52-7.03l.39-.78-3.07-2.11-.59.65c-5.57,6.14-11.92,11.99-20.47,13.22-1.34.07-3.09.15-4.8.15-.41,0-.82,0-1.23-.02l-.97-.02-.22,3.93.97.08c.92.08,1.83.12,2.72.12,1.32,0,2.64-.09,3.84-.26l2.13-.12c2.32-.13,4.72-.27,7-.27,1.63,0,3.07.07,4.39.22l11.35,5.68c.35.44.68.92,1,1.42,1.87,2.97,2.37,8.48,1.91,12.23-.37.99-.66,2.03-.86,3.17-.08.13-.12.18-.11.18h0c-14.69,7.33-14.34,16.95-14.08,24.03.02.6.04,1.2.06,1.79-1.84,2.54-3.31,5.52-4.48,9.08-.52.24-1.09.47-1.71.67-.63.21-1.26.41-1.91.62-5.09,1.62-10.36,3.29-12.47,9.05-.31.84-.5,1.66-.63,2.46l-70.06-.2c2.12-2.97,4.19-6.37,6.12-10.69l1.52-3.42-3.69.63c-.56.09-1.12.14-1.69.14-3.18,0-6.23-1.48-9.18-2.92-2.83-1.38-5.51-2.68-8.28-2.68-.54,0-1.08.05-1.59.15-9.87,1.97-9.88,10.34-9.9,17.72,0,.33,0,.65,0,.98l-33.6-.1c.91-4.23,2.74-6.81,7.67-6.81.75,0,1.56.06,2.41.19,1.87.28,3.88.41,6.32.41,1.33,0,2.67-.04,4.01-.07l-.03-1,.13,1c1.28-.04,2.56-.07,3.84-.07h2.75l-.85-2.62c-3.49-10.8-12.48-12.81-20.41-14.6-4.45-1-8.66-1.94-11.96-4.23-.97-1.08-2.08-2.14-3.31-3.14l-.69-.56-2.7,2.64.55.71c.98,1.26,2.14,2.39,3.46,3.35,6.42,7.47,4.42,16.38.04,24.78l-109.67-.31c-2-12.44,2.86-25.1,7.6-37.43,1.27-3.31,2.48-6.46,3.57-9.62,1.9.61,3.78.92,5.61.92,6.36,0,11.9-3.72,15.21-10.2,2.12-4.16,4.85-8.92,7.76-13.99,8.69-15.17,19.5-34.05,20.93-49.24l.25-2.65-2.62.5c-1.38.27-3.06.47-4.68.67-5.28.65-9.84,1.21-10.7,4.18-8.31,28.99-32.54,74.78-65.26,82.12-.52.12-1.25.48-1.83,1.49-1.1,1.95-1.63,6.83-.68,9.72,1.72,5.29,6.4,7.51,10.53,9.48,2.64,1.25,5.13,2.44,5.98,4.13,1.69,3.32,1.22,6.62-.34,9.9l-50.39-.14c1.65-.77,2.46-1.77,3.51-3.09.75-.94,1.67-2.1,3.3-3.73l.17-.17.13-.21c.97-1.61,1.99-3.22,3.01-4.84,4.91-7.76,9.98-15.79,9.98-24.09,0-2.99-3.8-4.59-9.06-6.8-1.56-.66-3.17-1.33-4.48-2l-3.99-2.02,1.16,4.32c2.75,10.24,1.55,20.05-3.21,26.26-3.55,4.63-8.94,7.07-15.59,7.07-2.16,0-4.48-.26-6.9-.76l-.83-.17-1.32,3.43.74.43c1.05.61,2.1,1.26,3.16,1.93,2.62,1.64,5.29,3.3,8.13,4.4l-27.6-.08c-.18-.18-.38-.35-.59-.53-1.79-1.48-3.77-2.2-6.04-2.2-3.04,0-5.98,1.28-9.09,2.68l-16.08-.05c-.63-.61-1.25-1.3-1.88-2.1l-1.94-2.51-1.43,2.84c-.3.59-.59,1.18-.88,1.76l-21.52-.06s.04-.07.07-.11c2.04-3.36,4.14-6.83,4.14-11.14v-.16c-.61-5.46-5.44-9.42-11.51-9.42-1.34,0-2.72.2-4.09.58l-2.48.7,1.29,2.23c.48.83.97,1.65,1.46,2.48,2.89,4.83,5.63,9.42,5.53,14.83l-14.41-.04c-.27-8.91-2.79-17.58-11-21.93Zm-6.43,21.88l-23.07-.07c1.16-.36,2.23-.72,3.14-1.06,2.35-.65,6.02-1.43,10.14-1.43,3.49,0,6.74.56,9.65,1.66.05.22.1.54.14.9Zm132.37-420.62c1.13.41,1.61.66,1.8.81l.21.69c1.13,3.58,2.54,8.03.86,11.09-1,1.82-3.01,3.11-6.16,3.96-2.35.63-4.56,1.51-6.7,2.46l9.98-19Zm289.84-24.44c-3.46,9.26-9.38,14.5-16.62,14.55l-.35-.02c-4.29-.26-10.05-2.46-13.78-5.25-.64-.95-1.5-1.8-2.63-2.58-.53-.78-.72-1.43-.56-1.95,2.61-8.56,7.78-14.72,16.28-19.38l.83-.46.06-.33c2.07-1.05,4.24-1.96,6.47-2.81l10.3,18.24Zm-143.48-254.05l4.12,7.29c-3.47,2.21-7.2,4.06-10.98,5.77l6.87-13.06ZM111.88,843.94c.96.08,1.86.12,2.73.12,7.09,0,11.97-2.81,15.35-8.84l1.81-3.22-3.69.25c-.56.04-1.12.05-1.7.05-1.11,0-2.28-.06-3.42-.11-1.18-.06-2.39-.11-3.59-.11-.42,0-.84.01-1.28.03l8.86-16.85c.91.41,1.9.83,2.95,1.27,1.54.66,3.14,1.33,4.43,1.98l2.39,1.2.48-2.63c1.17-6.47.58-11.6-2.22-17.08l12.27-23.34c.47-.04.94-.08,1.38-.14l2.13-.12c2.32-.13,4.72-.27,7-.27,1.63,0,3.07.07,4.39.22l11.35,5.68c.35.44.68.92,1,1.42,1.87,2.97,2.37,8.48,1.91,12.23-.37.99-.66,2.03-.86,3.17-.08.13-.12.18-.11.18h0c-14.69,7.33-14.34,16.95-14.08,24.03.02.6.04,1.2.06,1.79-1.84,2.54-3.31,5.52-4.48,9.08-.52.24-1.09.47-1.71.67-.63.21-1.26.41-1.91.62-5.09,1.62-10.36,3.29-12.47,9.05-.13.35-.24.69-.33,1.03l-29.28-.08.67-1.27Zm393.37-102.23c-5,1.75-10.17,3.56-15.64,4.93-1.52.39-2.96.58-4.28.58-2.93,0-5.35-.94-7.19-2.81-2.68-2.72-3.95-7.15-3.87-13.55.07-4.85,5.25-9.79,10.26-9.79,1.99,0,3.79.76,5.23,2.19,1.61,1.62,2.33,3.75,2.97,5.64,1.4,4.13,2.5,7.4,11.4,7.4,1.71,0,3.68-.14,5.84-.41l.9-.11.84,3.71-.86.29c-1.88.63-3.74,1.28-5.59,1.93Zm20.81,5.17l2.54,2.8-.59.67c-1.96,2.21-3.68,5.87-5.35,9.41-2.95,6.25-5.73,12.15-10.57,12.15-1.89,0-3.74-.93-5.64-2.84-2.28-2.28-3.24-4.59-2.83-6.85.82-4.59,6.81-7.36,13.15-10.29,3.14-1.45,6.37-2.95,8.56-4.53l.73-.52Zm12.27-28.9c-3.13-4.59-5.7-6.82-7.85-6.82-1.71,0-3.49,1.37-5.56,2.96-2.97,2.29-6.33,4.88-11.17,4.88-.69,0-1.4-.06-2.11-.17l-6.17-.96,5.58-2.8c1.43-.72,3.04-1.35,4.6-1.97,2.98-1.18,6.7-2.64,7.19-4.24,3.02-9.69,4.51-23.14-5.53-32.24-.72-.65-1.55-1.32-2.4-1.96-.85-.3-1.7-.58-2.55-.87l-.3-.1c-2.14-.73-4.3-1.46-6.37-2.27-5.73,3.96-7.9,12.89-5.8,24.03l1.12,5.94-4.45-4.1c-3.73-3.45-6.78-8.26-9.73-12.92-4.76-7.52-9.25-14.6-15.58-14.6-1.92,0-3.96.61-6.24,1.87-5.01,2.77-10.79,9.76-17.47,17.86l-1.97,2.38c-1.13,1.38-1.66,2.54-1.48,3.29.38,1.59,3.97,3.16,7.14,4.54,6.73,2.93,15.93,6.93,13.6,17.57l-.78,3.56-2.58-2.58c-1.4-1.39-2.72-2.83-4-4.22-3.16-3.43-6.14-6.67-9.95-9.12-1.53-.99-3.62-1.74-5.65-2.46-4.03-1.44-7.84-2.8-9.08-6.26-.79-2.19-.3-4.71,1.5-7.72,7.21-12.09,19.4-17.33,31.19-22.4,8.51-3.66,17.31-7.44,24.06-13.78l2.6-2.45.72,3.5c1.63,7.88,6.97,11.25,12.58,13.64.48-.15,1-.23,1.56-.23,3.27,0,7.47,2.67,9.77,4.32,5.75,2.03,12.25,4.67,16.91,10.09,1.91,2.22,1.69,5.43,1.48,8.53-.13,1.94-.27,3.95.11,5.58.2.85.38,1.73.56,2.61,1.3,6.39,2.38,10.31,7.75,10.31.9,0,1.91-.11,3.01-.33l6.49-1.31-7.03,7.04c-1.55,1.55-3.09,3.1-4.66,4.66l-1.71,1.7-1.36-1.99Zm-41.54,64.26c2.03,5.11,4.12,10.39,4.12,15.79,0,3.92-2.18,7.57-4.28,11.09-.75,1.26-1.53,2.56-2.16,3.82l-1.24,2.47-1.96-1.95c-.65-.64-1.46-1.38-2.24-2.09-3.25-2.93-5.21-4.71-4.21-6.74,4.48-8.9,6.29-17.4,5.87-27.55l-.04-.87,3.66-.67.28.82c.66,1.96,1.45,3.95,2.21,5.87Zm-102.08-52.43l2.33,1.65-2.35,1.62c-15.6,10.78-19.88,25.39-24.41,40.87-1.63,5.57-3.32,11.32-5.56,16.82l-1.12,2.73-2.12-2.05c-4-3.86-3.41-8.24-2.94-11.75.23-1.69.44-3.27.12-4.53-2.28-8.93,2.9-14.93,7.47-20.23,4.98-5.77,8.92-10.33,4.06-17.85l-1.21-1.88,2-1c1.45-.73,2.94-1.69,4.37-2.63,3.47-2.26,7.05-4.6,11.37-4.6,2.71,0,5.33.92,7.99,2.81Zm180.25-115.01c1.2,0,2.42.06,3.59.11,1.14.05,2.31.11,3.42.11.57,0,1.14-.01,1.7-.05l3.69-.25-1.81,3.22c-3.38,6.03-8.26,8.84-15.35,8.84-2.21,0-4.61-.26-7.78-.84l-2.52-.46,1.05-2.33c3.34-7.41,9.24-8.35,14.01-8.35Zm-221.18,108.22l3.56.77-2.56,2.59c-7.54,7.63-9.38,17.77-11.16,27.58-2.2,12.13-4.48,24.67-17.41,32.28-.22,1.16.53,5.57.82,7.28.3,1.75.6,3.54.77,5.13l.28,2.64-2.62-.46c-11.64-2.06-15.72-5.07-18.42-7.06-1.43-1.06-2.03-1.49-3.21-1.49-1.07,0-2.68.39-4.93,1.18l-4.43,1.57,1.94-4.28c5-11.05,12.64-11.37,19.39-11.65,5.79-.24,11.25-.47,16.15-6.58,3.7-4.62,1.95-6.21-.96-8.87-1.77-1.62-3.78-3.45-3.56-6.15.2-2.44,2.17-4.77,6.39-7.55,1.38-1.56,8.4-21.83,7.86-26.88l-.29-2.76,5.12,1.12c2.42.53,4.83,1.06,7.27,1.59Zm110.5,104.99l.48,2.4h-2.45c-1.41,0-2.84-.07-4.1-.12-1.32-.06-2.63-.12-3.89-.12-2.18,0-3.91.18-5.45.57-3.43.87-6.51,2.57-9.78,4.37-1.2.66-2.56,1.41-3.91,2.09l-.83.42-1.98-3.31.76-.53c4.17-2.92,4.83-6.31,5.65-10.61,1.19-6.18,2.55-13.19,14.51-19.54.29-.16.54-.4.75-.72-.69-3.48-1.15-6.62-1.38-9.59-1.33-2.19-3.18-3.99-5.35-5.21l-2.3-1.29,13.45-13.45-1.2,6.36c-.74,3.95-.96,8-.68,12.4,2.06,3.83,2.68,8.08,1.63,11.23.83,3.93,1.88,7.89,2.89,11.72,1.12,4.21,2.27,8.57,3.15,12.94Zm-37.34-115.24c-.03,3.5-3.84,5.94-7.88,8.52-1.37.88-2.77,1.77-3.89,2.64l-2.56,1.98-.62-3.18c-.76-3.86-6.69-8-11.46-11.32-2.48-1.73-4.81-3.36-6.34-4.87-.06-.01-.17-.02-.33-.02-1.05,0-2.69.44-4.28.86-1.71.46-3.33.89-4.62.89-1.51,0-2.32-.63-2.72-1.15-4.04-5.23-4.9-12.5-5.74-19.52-.08-.71-.17-1.42-.25-2.13-.57-2.01-.88-4.1-.92-6.2l-.02-.92,3.81-.41.18.9c.4,2.04.67,4.08.89,5.82,1.55,5.22,5.04,9.34,9.13,10.77,3.73,1.29,8.39,2.39,12.9,3.45,12.75,3,24.78,5.84,24.74,13.9Zm173-91.4l3.8-3.67-5.29,67.56c-.95,5.85-6.99,8.86-11.84,11.27-1.8.9-5.14,2.56-5.32,3.34-1.49,12.87-5.43,18.55-10.43,25.75-1.91,2.76-4.08,5.88-6.34,9.77l-1.3,2.25-1.84-1.83c-.62-.61-1.39-1.26-2.14-1.89-2.4-2.01-4.67-3.91-4.68-6.53-.03-6.27,4.85-10.62,9.57-14.82,3.13-2.79,6.09-5.42,7.1-8.23,4.36-12.1,5.9-27.6,7.25-41.27,1.2-12.1,2.15-21.66,4.79-26.09l.96-1.6,1.02.52c1.91-1.23,8.23-7.83,10.71-10.42,1.65-1.72,3.05-3.18,3.99-4.1Zm4.75,130.75c-2.21,1.1-4.41,2.2-6.61,3.3l-2.53,1.27-.35-2.81c-.53-4.25-.12-6.98,1.32-8.61.91-1.03,2.21-1.58,3.77-1.58s3.25.53,4.88,1.04c1.32.41,2.67.84,3.64.86l2.23-1.12,2.23,2.8-.52.63c-.72.86-1.66,1.4-2.81,1.6-1.75.88-3.49,1.75-5.23,2.61Zm-50.89-72.42c1.12-6.48-2-11.68-5.29-17.19-.5-.83-1-1.66-1.48-2.5l-1.29-2.23,2.48-.7c1.37-.38,2.75-.58,4.1-.58,6.08,0,10.91,3.95,11.49,9.4v.16c.01,4.31-2.09,7.79-4.13,11.15-.74,1.23-1.5,2.48-2.12,3.72l-.39.77-3.52-1.16.15-.85Zm33.53,106.81c.48-1.69.98-3.45.85-4.61l-.09-.83,3.49-1.04.38.75c1,1.99,1.99,3.98,2.98,5.96,1.34,2.69,2.68,5.37,4.03,8.05l1.3,2.58-2.88.31c-1.12.12-2.16.18-3.08.18-3.38,0-5.65-.82-6.92-2.51-1.87-2.48-.91-5.86-.06-8.84Zm-22.55-228.18v.82c0,1.99.08,4,.17,5.93.21,5.01.43,10.2-.74,15.41-2.92,13.01-7.94,20-15.35,21.34-1.03.19-2.17.64-3.37,1.11-2,.79-4.03,1.59-6.27,1.59-5.68,0-9.82-5.17-13.4-16.76l-1.13-3.66,3.65,1.17c2.95.94,5.7,1.42,8.18,1.42,12.5,0,17.69-12.35,23.19-25.42.41-.97.82-1.95,1.23-2.92l.32-.75,3.52.72Zm46.98,153.35c3.06-3.94,5.95-7.66,9.83-7.66,1.8,0,3.54.84,5.18,2.5,2.85,2.88,3.4,6.92,1.54,11.36-2.5,5.99-8.69,10.86-13.8,10.86-.75,0-1.48-.1-2.17-.3-1.74,0-3.16-1.51-5.73-4.4-.71-.8-1.45-1.63-2.1-2.28l-1.93-1.91,2.4-1.27c2.38-1.27,4.61-4.14,6.77-6.91Zm-24.89-137.42c.89-2.88.86-5.11.84-7.26-.04-2.83-.07-5.75,1.89-9.51-.71-1.66-2.39-2.92-4.01-4.13-3.33-2.5-7.9-5.92-2.93-13.42,3.49-5.27,4.55-11.7,5.58-17.91,1.65-9.99,3.36-20.33,15.27-25.21.72-.29,1.37-.44,1.98-.44,2.33,0,3.26,1.9,3.82,3.03.66,1.36.92,1.67,1.89,1.67h2v2c0,10.12-4.23,20.34-8.71,31.17-4.14,10.01-8.41,20.35-8.82,30.23-.72,17.45-1.55,18.83-12.68,21.18-3.2.68-7.57,1.6-13.23,3.43l-.88.29-1.46-3.56.83-.42c.52-.26,1.15-.57,1.87-.93,13.99-6.9,16.5-9.36,16.76-10.21Zm35.34,72.4c-.71.91-1.53,5.67,5.78,29.58,1.49,4.86,1.46,8.25-.1,10.35-.92,1.25-2.36,1.94-4.05,1.94-4.04,0-9.47-3.95-12.62-9.19l-.04-.07-.07-.14c-2.12-5.3-6.15-21.01.17-30.81,3.21-4.98,8.47-7.66,15.63-7.98h.15c2.53,0,4.42,2.24,6.41,4.62.66.78,1.3,1.55,1.9,2.15l1.53,1.53-1.64,1.4c-.72.62-1.6.93-2.62.93-1.96,0-4.02-1.17-6.2-2.41-1.49-.84-3.33-1.89-4.23-1.89Zm-207.18,114.25l1.3,2.58-2.88.31c-1.12.12-2.16.18-3.08.18-3.38,0-5.65-.82-6.92-2.51-1.87-2.48-.91-5.86-.06-8.84.48-1.69.98-3.45.85-4.61l-.09-.83,3.49-1.04.38.75c1,1.99,1.99,3.97,2.97,5.95,1.34,2.69,2.68,5.38,4.04,8.06Zm-39.49-206.02c1.28-2.57-3.47-8.91-7.28-13.99-4.81-6.42-9.78-13.05-8.74-18.3.4-2.03,1.62-3.68,3.64-4.88l.86-.52,20.7,8.61c2.98-3,7.1-6.23,12.9-6.23,4.92,0,10.42,2.29,16.82,6.99l5.29,3.88-6.56-.27c-.78-.03-1.56-.07-2.36-.11h-.13c-2.18-.11-4.35-.22-6.45-.22-6.15,0-12.89.82-16.28,6.87-5.12,9.16-4.2,15.91-3.13,23.74.66,4.8,1.4,10.23.88,16.82-.19,2.54-3.12,3.74-6.21,5.01-1.84.75-4.91,2.02-5.31,3.07-1.07,2.84-1.68,5.26-1.62,6.47l.18,4.31s-2.71-2.1-3.17-2.46c-2.38.13-8.52,3.65-8.89,4.8-.72,14.86-3.72,30.11-20.48,30.11-1.37,0-2.82-.11-4.34-.32l-4.55-.64,3.56-2.9c16.22-13.18,24.13-31.91,31.79-50.02,2.78-6.58,5.64-13.36,8.87-19.84Zm13.89-43.48c-1.89,0-3.74-.93-5.64-2.84-2.28-2.28-3.24-4.59-2.83-6.85.82-4.59,6.81-7.36,13.15-10.29,3.13-1.45,6.37-2.94,8.56-4.53l.73-.52,2.54,2.8-.59.67c-1.96,2.21-3.68,5.87-5.35,9.41-2.95,6.25-5.73,12.15-10.57,12.15Zm-55.26,25.79c1.11-6.49-2-11.7-5.3-17.21-.49-.83-.99-1.65-1.46-2.48l-1.29-2.23,2.48-.7c1.37-.38,2.75-.58,4.09-.58,6.07,0,10.9,3.96,11.5,9.42v.16c.01,4.31-2.1,7.78-4.13,11.14-.73,1.21-1.49,2.46-2.12,3.71l-.39.77-3.52-1.16.15-.85Zm123.17-9.83c4.75-6.21,5.95-16.02,3.19-26.25l-1.16-4.32,4,2.02c1.3.66,2.92,1.34,4.48,1.99,5.27,2.21,9.07,3.81,9.07,6.8,0,8.26-5.05,16.27-9.93,24.02-1.05,1.67-2.08,3.29-3.04,4.91l-.13.21-.17.17c-1.63,1.63-2.56,2.8-3.31,3.74-1.22,1.53-2.1,2.63-4.36,3.43-1.63.58-3.3.87-4.97.87-5.36,0-9.96-2.88-14.41-5.66-1.06-.67-2.11-1.32-3.16-1.93l-.74-.43,1.32-3.43.83.17c2.41.5,4.73.76,6.89.76,6.67,0,12.06-2.45,15.61-7.08Zm-212.59,237.73c-1.3.33-2.59.65-3.88.99l-3.66.98,1.26-3.58c4.55-12.88,15.34-13.91,24.87-14.82,1.65-.16,3.26-.31,4.79-.51l4.53-.59-2.64,3.73c-6.42,9.08-16,11.48-25.27,13.8Zm416.09-242.94c-2.51-4.46-3.1-7.63-1.85-9.98,1.65-3.1,5.82-3.43,9.5-3.73,2.44-.2,5.48-.44,6.23-1.51.31-.44.31-1.22,0-2.33l-.25-.89,3.61-1.31.38.84c1.9,4.15,2.26,7.37,1.1,9.85-1.57,3.36-5.4,4.41-8.79,5.35-2.91.8-5.66,1.56-6.32,3.41l-1.48,4.11-2.14-3.81Zm-156.16,8.42c-4.04,4.98-7.86,9.68-7.67,16.25l.02.86-3.65.65-.27-.82c-.44-1.32-1.01-2.66-1.56-3.95-1.54-3.63-3.14-7.38-2.53-11.6l.03-.15c1.19-4.73,5.52-7.87,10.79-7.87,1.97,0,3.96.44,5.9,1.29l2.36,1.04-1.59,2.03c-.58.73-1.16,1.46-1.75,2.18l-.07.09Zm-213.34,228.02c-.17,2.08.26,4.55.68,6.95.74,4.27,1.43,8.3-.84,11.06-1.67,2.02-3.77,3.67-6,5.42-2.27,1.79-4.6,3.62-6.45,5.86-.13,3.85-.73,8.49-3.77,11.43.25.33.96.97,2.73,2.24,1.92,1.38,3.58,2.57,2.85,4.44-3.59,9.27-4.57,17.89-3.16,27.97l.56,4-3.52-1.98c-12.1-6.81-11.71-17.7-11.36-27.3.1-2.86.21-5.77,0-8.49l-.18-2.39,2.39.25c.6.06,1.18.1,1.72.1,1.57,0,2.9-.27,3.94-.81.26-4.09,1.52-7.65,3.83-10.85,0-.44.01-1.76.01-1.76,0-1.15-.13-2.21-.26-3.23-.65-5.16-1.21-9.62,11.91-22.3.23-.22.58-.67,1-1.6.12-.89.31-1.68.6-2.43.16-.42.37-.84.62-1.24.28-1.04.54-2.14.82-3.28l.03-.11c.82-3.42,1.76-7.27,3.23-10.5l1.08-2.37,3.78,3.11c1.97,1.62,3.91,3.22,5.89,4.86l2.13,1.76-2.34,1.47c-1.35.85-2.84,1.61-4.28,2.34-2.65,1.35-5.37,2.74-6.65,4.4-.34,1.2-.65,2.16-.98,2.99Zm192.78-122.75c4.99-12.77,9.7-24.83,5.52-34.08-2.44-5.41-7.78-9.56-16.34-12.69l-2.94-1.08,2.21-2.21c.73-.73,1.57-1.44,2.38-2.12,1.14-.96,3.25-2.74,3.25-3.47,0-3.91-2.57-9.93-5.43-11.11-2.93-1.2-6.32-1.87-9.55-1.87-6.65,0-11.92,2.72-14.47,7.48-6.81,12.72-11.68,16.78-19.05,22.93-2.47,2.06-5.22,4.36-8.43,7.29-2.22,2.03-2.41,6.44-2.64,11.54-.31,7.02-.67,14.97-6.25,21.16l-1.41,1.56-1.49-1.48c-.75-.75-1.59-1.75-2.4-2.72-.54-.65-1.39-1.66-2.08-2.38-4.48,7.62-10.26,11.96-15.99,11.96-5.15,0-9.55-3.55-11.51-9.26l-4.69-9.39,2.77-.38c16.55-2.24,23.01-12.48,29.86-23.33,3.42-5.42,6.96-11.02,11.84-15.64,1.41-1.34,3.42-1.5,4.82-1.5.94,0,1.96.08,2.87.16.91.07,1.83.15,2.65.15,1.21,0,2.04-.17,2.46-.49,8.41-6.58,8.39-17.4,6.89-25.31l-.15-.77,3.21-1.44.48.62c2.62,3.39,5.42,5.04,8.58,5.04s6.23-1.43,9.32-2.82c3.15-1.42,6.13-2.75,9.14-2.75,2.27,0,4.21.75,5.91,2.31,6.75,6.13,10.42,13.77,13.96,21.16,4.97,10.35,9.66,20.12,22.37,25.52l1.51.64-.33,1.6c-2.4,11.65-9.74,19.93-16.83,27.95-4.1,4.63-8.34,9.42-11.44,14.71l-.45.77-3.45-1.52.26-.85c1.43-4.62,3.26-9.3,5.03-13.83Zm-153.85,12.77c3.06-3.94,5.96-7.67,9.84-7.67,1.8,0,3.54.84,5.19,2.5,2.85,2.88,3.4,6.92,1.55,11.36-2.5,5.99-8.69,10.86-13.81,10.86-.75,0-1.48-.1-2.17-.3h-.02c-1.71,0-3.14-1.51-5.72-4.42-.74-.83-1.46-1.64-2.08-2.26l-1.92-1.91,2.39-1.27c2.37-1.26,4.6-4.13,6.75-6.9Zm17.47,23.17c-.71.91-1.52,5.66,5.79,29.57,1.49,4.87,1.45,8.25-.1,10.36-.93,1.25-2.37,1.94-4.05,1.94-4.05,0-9.48-3.96-12.62-9.21l-.04-.06-.07-.14c-2.12-5.3-6.16-21,.16-30.81,3.21-4.98,8.46-7.67,15.62-8h.15c2.54,0,4.42,2.24,6.42,4.62.66.78,1.31,1.56,1.92,2.16l1.54,1.54-1.66,1.41c-.72.61-1.6.92-2.62.92-1.96,0-4.03-1.17-6.22-2.41-1.48-.84-3.33-1.89-4.22-1.89Zm-27.54,28.27c-.58,1.19-1.22,2.53-1.38,3.48l.78,2.36-3.1,1.8-.54-.61c-.75-.83-1.14-1.84-1.17-3.01-.55-1.67-1.73-5.27-1.73-5.27-.8-2.44-1.59-4.87-2.41-7.31l-.89-2.69,2.83.06c4.72.1,7.49,1.09,8.74,3.12,1.55,2.53.13,5.47-1.13,8.07Zm89.36-19.42c.23-1.4.9-5.46.67-6.51-4.59-2.8-11.27-2.95-17.73-3.09-2.75-.06-5.6-.13-8.34-.39l-4.82-.47,3.75-3.07c.67-.55,1.36-1.21,2.03-1.84,1.95-1.86,3.92-3.74,6.52-4.38.87-.22,1.77-.33,2.69-.33,4.6,0,8.74,2.65,12.08,4.79,1.34.86,3.12,2,3.82,2.11,11.25-6.58,23.9-22.62,35.06-36.79,6.62-8.4,12.87-16.32,18.45-21.91l1.56-1.56,1.4,1.7c1.07,1.3,1.69,3.56-3.48,15.28-2.33,5.27-5.46,11.51-5.95,12.14-8.51,10.58-15.77,18.2-22.79,25.56-7.19,7.54-13.96,14.64-21.99,24.68l-4.2,5.24.64-6.68c.13-1.39.39-2.97.64-4.49Zm-83.47-66.57c1.33,1.87,2.97,4.62,1.76,6.96-1.16,2.26-4.13,2.55-6.59,2.55-1.65,0-3.55-.15-5.38-.3-1.88-.15-3.78-.3-5.43-.3-2.03,0-3.03.24-3.52.45,1.16,1.06,4.31,3.09,5.61,3.93,5.18,3.34,9.65,6.21,8.54,9.52-.91,2.75-4.94,3.63-11.97,4.94-3.3.62-9.45,1.76-10.12,2.92-2.68,4.68.51,9.63,3.88,14.88.73,1.14,1.56,2.42,2.28,3.66l3.37,5.8-5.99-3.01c-1.28-.64-2.87-1.33-4.41-1.99-5.63-2.42-9.31-4-9.08-6.83.52-6.49.68-12.5.83-17.81.5-17.87.85-30.74,15.32-30.74,4.83,0,11.36,1.52,19.96,4.65l.58.21.36.51Zm81.98-62.35c.48-1.7.98-3.45.85-4.62l-.09-.83,3.49-1.04.38.75c1,1.99,1.98,3.97,2.97,5.95,1.34,2.69,2.68,5.38,4.04,8.06l1.3,2.58-2.88.31c-1.12.12-2.16.18-3.08.18-3.38,0-5.65-.82-6.92-2.51-1.87-2.48-.91-5.86-.06-8.84Zm35.17-87.74l.06,3.94-.97.04c-1.28.06-2.56.11-3.84.14-3.34.33-5.61,1.25-6.87,2.81-1.94,2.41-1.46,6.58-.98,10.6.55,4.73,1.13,9.62-1.88,12.97-1.4,1.56-3.19,2.38-5.18,2.38h0c-4.5,0-9.35-4.38-10.59-9.57-.48-2.04-1.35-4.44-2.26-6.99-2.32-6.47-4.94-13.8-2.52-18.79,1.03-2.11,2.83-3.61,5.37-4.45l1.13-.38.87.82c6.2,5.84,13.84,6.63,20.49,6.63.75,0,1.5-.01,2.25-.03.96-.09,2.08-.14,3.26-.14l1.66.02Zm65.02,32.75c-1.84,2.3-6.04,5.95-9.45,5.95-1.54,0-2.82-.75-3.52-2.05-2.7-5.01-5.7-8.12-8.6-11.12-3.09-3.2-6.28-6.49-9.09-11.92l-1.8-3.47,3.87.58c.42.06.86.09,1.29.09,2.44,0,4.79-.98,7.06-1.94,2.24-.94,4.34-1.82,6.55-1.82.43,0,.86.04,1.26.11,8.11,1.39,8.12,7.84,8.13,12.55,0,4.27.02,7.95,3.72,10.06l2.04,1.16-1.47,1.83Zm8.51-248.8c3.14-1.45,6.37-2.95,8.56-4.53l.73-.52,2.54,2.8-.59.67c-1.96,2.21-3.68,5.87-5.35,9.41-2.95,6.25-5.73,12.15-10.57,12.15-1.89,0-3.74-.93-5.64-2.84-2.28-2.28-3.24-4.59-2.83-6.85.82-4.59,6.81-7.36,13.15-10.29Zm-48.47,144.79c1.32-3.21,2.46-5.98,4.95-6.12,7.61-.41,14.88-2.4,21.92-4.33,6.44-1.76,13.09-3.58,20-4.19l3.58-.31-1.62,3.21c-.64,1.28-1.23,2.77-1.8,4.21-1.57,3.97-3.19,8.06-6.58,9.75-1.02.51-2,1.03-2.96,1.54-4.46,2.36-8.67,4.59-14.88,4.89-4.48.2-9.11.8-14.01,1.43-6.27.81-12.76,1.64-19.23,1.64-4.75,0-8.97-.45-12.88-1.38l-3.48-.82,2.52-2.53c2.13-2.14,10.28-7.6,13.69-7.6,3.47,0,5.13,2.51,6.34,4.34.32.49.99,1.5,1.28,1.61,0,0,.05-.01.12-.03,1-.33,2.33-3.56,3.04-5.3Zm9.83-152.3c-2.68-2.72-3.95-7.15-3.87-13.55.07-4.85,5.25-9.79,10.26-9.79,1.99,0,3.79.76,5.23,2.19,1.61,1.62,2.33,3.75,2.97,5.64,1.4,4.13,2.5,7.4,11.4,7.4,1.71,0,3.68-.14,5.84-.41l.9-.11.84,3.71-.86.29c-1.88.63-3.74,1.28-5.59,1.93-5,1.75-10.17,3.56-15.64,4.93-1.52.39-2.96.58-4.28.58-2.93,0-5.35-.94-7.19-2.81Zm-13.62,107.12l3.68-.24-1.81,3.22c-3.39,6.03-8.27,8.83-15.36,8.83-2.21,0-4.6-.26-7.77-.84l-2.51-.46,1.05-2.33c3.34-7.41,9.23-8.37,13.98-8.37,1.22,0,2.45.06,3.64.12,1.08.05,2.3.11,3.44.11.56,0,1.11-.01,1.66-.05Zm57.8,146.68c1.43-.57,2.95-1,4.41-1.41.99-.28,1.99-.56,2.92-.88.88-2.42,2.22-4.72,3.51-6.95.73-1.25,1.48-2.55,2.12-3.82l2.61-5.18,1.14,5.68c1.72,8.58-2.52,11.73-6.13,13.3-.11.47-.19.92-.23,1.38-1.99,18.87-3.07,19.67-5.33,19.67-2.62,0-3.1-3.23-4.24-11.04-.33-2.23-1.01-6.86-1.4-7.56l.35-.25-.51-2.65.77-.3Zm11.83-106.3l5.97-1.85-3.79,4.97c-5.22,6.86-6.09,14.43-6.46,22.24,3.05,1.27,5.38,2.36,5.26,4.61-.41,7.73-3.04,13.65-7.82,17.58-1.58,6.93-4.55,19.27-14.73,19.27-1.88,0-3.94-.45-6.1-1.33-2.5-1-2.28-4.65-1.96-10.17.09-1.51.18-3.06.18-4.35v-2.11l2.11.11c.78.04,1.57.06,2.35.06,6.05,0,10.95-1.28,14.57-3.79.17-.74.33-1.45.49-2.11,1.14-4.79,1.33-9.84,1.52-14.72l.02-.45c-2.55-1.14-5.12-2.57-5.61-4.89-.21-.99-.66-2.09-1.13-3.25-1.15-2.82-2.59-6.33-.87-9.97,1.84-3.91,6.93-7.04,16-9.85Zm-49.33-87.27c4.48-8.9,6.29-17.4,5.87-27.55l-.04-.87,3.66-.67.28.82c.66,1.96,1.45,3.95,2.21,5.87,2.03,5.11,4.12,10.39,4.12,15.79,0,3.92-2.18,7.57-4.28,11.09-.75,1.26-1.53,2.56-2.16,3.82l-1.24,2.47-1.96-1.95c-.65-.64-1.46-1.38-2.24-2.09-3.25-2.93-5.21-4.71-4.21-6.74Zm-50.48,32.98l-1.98-3.31.76-.53c4.17-2.92,4.83-6.31,5.65-10.61,1.19-6.18,2.55-13.19,14.51-19.54.29-.16.54-.4.75-.72-.69-3.48-1.15-6.62-1.38-9.59-1.33-2.19-3.18-3.99-5.35-5.21l-2.3-1.29,13.45-13.45-1.2,6.36c-.74,3.95-.96,8-.68,12.4,2.06,3.83,2.68,8.08,1.63,11.23.83,3.93,1.88,7.89,2.89,11.72,1.12,4.21,2.27,8.57,3.15,12.94l.48,2.4h-2.45c-1.41,0-2.84-.07-4.1-.12-1.32-.06-2.63-.12-3.89-.12-2.18,0-3.91.18-5.45.57-3.43.87-6.51,2.57-9.78,4.37-1.2.66-2.56,1.41-3.91,2.09l-.83.42Zm85.36-14.84c7.93,1.78,16.92,3.8,20.41,14.6l.85,2.62h-2.75c-1.29,0-2.57.04-3.84.07l-.13-1,.03,1c-1.34.04-2.67.07-4.01.07-2.45,0-4.46-.13-6.32-.41-.85-.12-1.66-.19-2.41-.19-6.68,0-7.67,4.7-8.4,11.88l-.08.74c.16.29.73.95,2.47,2.47,1.82,1.59,3.39,2.97,2.52,4.79-3.95,8.46-10.82,9.44-15.65,9.45-2.64,0-5.38-.32-8.02-.64l-.44-.05c-.86.23-1.88.34-3.18.34-1.39,0-2.94-.13-4.43-.25-1.45-.12-2.92-.24-4.17-.24h-.9l-.38-3.78.88-.18c1.48-.3,3.09-.45,4.92-.45,2.3,0,4.67.24,6.76.48.83-1.21,1.75-2.51,2.72-3.86,8.07-11.33,19.11-26.82,8.91-38.7-1.32-.96-2.48-2.09-3.46-3.35l-.55-.71,2.7-2.64.69.56c1.23,1,2.34,2.06,3.31,3.14,3.3,2.28,7.51,3.23,11.96,4.23Zm-275.07,396.69c1.49-.3,3.09-.45,4.92-.45,2.29,0,4.67.24,6.76.48.83-1.2,1.74-2.49,2.7-3.83,8.08-11.34,19.13-26.85,8.94-38.72-1.32-.97-2.48-2.09-3.46-3.35l-.55-.7,2.7-2.64.69.56c1.23,1,2.35,2.06,3.32,3.15,3.31,2.28,7.52,3.23,11.97,4.23,7.93,1.78,16.91,3.8,20.4,14.59l.85,2.62h-2.75c-1.32,0-2.64.04-3.96.07-1.35.04-2.69.08-4.04.08-2.43,0-4.42-.13-6.28-.4-.86-.12-1.67-.19-2.42-.19-6.69,0-7.67,4.71-8.39,11.89l-.07.72c.16.29.73.96,2.47,2.48,1.81,1.58,3.36,2.95,2.54,4.77-3.93,8.39-10.44,9.46-15.67,9.46-2.63,0-5.37-.32-8.02-.64l-.42-.05c-.86.23-1.88.34-3.18.34-1.4,0-2.94-.13-4.44-.25-1.45-.12-2.93-.25-4.18-.25h-.9l-.38-3.78.88-.18Zm-30.15-1.49c-2.33-6.5-4.96-13.83-2.53-18.83,1.03-2.11,2.83-3.61,5.37-4.45l1.13-.38.87.82c6.2,5.84,13.84,6.63,20.49,6.63.75,0,1.5-.01,2.25-.03.96-.09,2.08-.14,3.26-.14l1.66.02.06,3.94-.97.04c-1.28.06-2.56.11-3.84.14-3.34.33-5.61,1.25-6.87,2.81-1.94,2.41-1.46,6.58-.98,10.6.55,4.73,1.13,9.61-1.88,12.97-1.4,1.56-3.19,2.38-5.18,2.38h0c-4.5,0-9.35-4.38-10.59-9.57-.48-2.02-1.34-4.42-2.25-6.95Zm11.86,96.96c-4.6,0-14.11-3.55-14.52-8.18-.26-2.76-.71-5.51-1.19-8.42-1.86-11.27-3.78-22.91,5.67-35.68-.03-.28-.22-1.24-1.53-3.66-1.4-1.43-2.82-3.08-4.43-5.12-1.27.64-4.8,2.4-4.8,2.4-2.11,1.05-4.22,2.1-6.32,3.16l-1.79.9-.9-1.79c-4.68-9.35-9.36-18.68-14.02-28.04l-1.69-3.4,3.76.53c12.56,1.77,19.08,10.59,25.38,19.11.51.7,1.03,1.39,1.54,2.08l1.72-.87.9,1.79c.63,1.27,1.49,2.73,2.32,4.14.54.91,1.07,1.82,1.56,2.7,2.92,2.91,5.89,4.94,9.09,6.22l2.82,1.12-2.14,2.15c-.74.74-1.58,1.45-2.39,2.13-1.37,1.15-3.25,2.73-3.3,3.62-.68,13.2,4.62,24,17.18,34.99,6.31,2.08,12.26,6.6,16.75,12.74l.5.68-2.56,2.62-.7-.48c-5.62-3.91-11.07-7.77-15.99-11.99-1.32-.39-2.66-.65-3.99-.79-.45.26-1.46,1.44-1.85,1.89-1.39,1.62-2.97,3.47-5.06,3.47Zm153.68-405.17l-.94-.25.92-3.84.95.2c2.46.52,4.74.79,6.79.79,10.88,0,14.56-7.12,19.21-16.13,4.1-7.94,8.34-16.16,18.36-19.58,2.32-.79,4.21-1.18,5.78-1.18,2.61,0,3.95,1.12,4.62,2.05,2.05,2.88.47,7.47-.93,11.51-.36,1.05-.71,2.04-.9,2.79-2.09,8.05-9.27,12.8-16.22,17.4-5.46,3.61-11.1,7.35-13.75,12.51-1.8,3.49-.13,7.58,1.59,10.41,4.34,7.12,12.34,12.27,15.62,12.27.17,0,.32-.02.44-.05,11.67-2.88,16.08-10.75,13.11-23.39l-.61-2.59,2.66.14c9.43.49,19.95,3.94,28.87,9.48,1.27.64,2.47,1.45,3.5,2.34,10.18,7.28,16.53,16.67,17.34,25.71.65,7.28-2.06,14.1-8.06,20.26-1.58,1.61-3.78,2.43-6.55,2.43-5.29,0-12.11-3-18.13-5.65l-.11-.05c-1.28-.57-2.53-1.12-3.72-1.61l-6.35-2.66,6.79-1.15c7.4-1.26,13.97-6.22,17.58-13.28,3.14-6.15,3.4-12.81.71-18.28-.46-.94-1.14-1.81-2.02-2.6-.97-.69-1.98-1.36-3.01-2.01-2.87-1.44-6.69-2.26-10.67-2.26-.71,0-1.42.03-2.13.08-9.79.73-11.02,5.82-12.74,12.86-1.19,4.91-2.55,10.48-7.4,14.65-3.68,3.17-9.16,6.94-14.3,6.94-.28,0-.55,0-.82-.03-5.78-.46-10.52-3.92-15.1-7.28-2.52-1.84-4.88-3.57-7.34-4.78-.1-.05-.32-.1-.65-.1-.38,0-.82.06-1.31.18-.96.53-1.93,1.04-2.9,1.55-1.12.59-2.24,1.18-3.29,1.77-.79.69-1.41,1.4-1.78,2.05-1.81,3.14-2.34,6.58-1.49,9.69.9,3.27,3.29,6.07,6.9,8.08l4.7,2.62-5.28,1.08c-1.24.25-2.43.38-3.56.38-3.66,0-6.68-1.37-8.76-3.97-2.88-3.61-3.33-9-2.54-12.48,1.23-5.35,5.28-8.33,9.49-10.75,2.04-1.7,4.63-3.1,6.99-3.78,5.92-3.34,9.54-6.75,9.32-13.33-.3-9.2-7-16.02-18.87-19.19Zm-99.43,194.44l-3.66.98,1.26-3.58c4.55-12.89,15.34-13.92,24.86-14.82,1.5-.14,3.21-.3,4.8-.51l4.53-.59-2.64,3.73c-6.42,9.07-16.01,11.48-25.29,13.8-1.29.32-2.58.65-3.87.99Zm83.18-219.88l-1.65-2.41,2.84-.67c1.11-.26,2.22-.4,3.31-.4,5.05,0,9.08,2.89,9.59,6.87l.02.19c0,3.19-1.83,5.75-3.45,8-.58.81-1.18,1.64-1.67,2.45l-.43.73-3.41-1.32.17-.83c.81-3.99-1.47-7.2-4.11-10.92l-.08-.11c-.37-.53-.75-1.05-1.11-1.58Zm-65.39,168.88c.39-4.31,6.71-8.72,10.6-10.49l1.86-.84.81,1.87c2.45,5.67,8.43,6.75,14.75,7.89,7.27,1.31,15.5,2.8,15.7,12.87.07,3.38-2.02,6.24-4.23,9.27-2.27,3.11-4.62,6.33-4.65,10.21l-.02,3.75-3.1-2.11c-7.2-4.89-11.27-9.74-15.21-14.42-3.79-4.51-7.7-9.17-14.55-13.96-1.4-.97-2.1-2.41-1.95-4.04Zm16.26-53.12c-2.15-2.44-2.96-4.85-2.4-7.16,1.22-5.07,8.53-7.94,16.99-11.27,3.14-1.23,6.38-2.5,9.28-3.9,1.47-.71,4.11-2.24,7.17-4.02,6.6-3.82,14.8-8.57,18.56-9.36l2.88-.61-.49,2.9c-.94,5.52-3.81,12.19-6.86,19.24-2.73,6.32-5.54,12.84-6.93,18.58l-1.62,6.65-2.22-6.47c-.51-1.48-1.14-2.77-1.75-4.01-.88-1.79-1.78-3.62-2.19-5.83-9.52,1.96-19,3.92-28.52,5.89l-1.14.23-.77-.87Zm408.68,195.04c6.2,5.84,13.84,6.63,20.49,6.63.75,0,1.5-.01,2.25-.03.96-.09,2.08-.14,3.26-.14l1.66.02.06,3.94-.97.04c-1.28.06-2.56.11-3.84.14-3.34.33-5.61,1.25-6.87,2.81-1.94,2.41-1.46,6.58-.98,10.6.55,4.73,1.13,9.61-1.88,12.97-1.4,1.56-3.19,2.38-5.18,2.38h0c-4.5,0-9.35-4.38-10.59-9.57-.48-2.02-1.34-4.42-2.25-6.95-2.33-6.5-4.96-13.83-2.53-18.83,1.03-2.11,2.83-3.61,5.37-4.45l1.13-.38.87.82Zm-37.88,5.44c.48-1.7.98-3.45.85-4.62l-.09-.83,3.49-1.04.38.75c1.03,2.04,2.04,4.08,3.05,6.11l.11.22c1.28,2.56,2.55,5.12,3.85,7.69l1.3,2.58-2.88.31c-1.12.12-2.16.18-3.08.18-3.38,0-5.65-.82-6.92-2.51-1.87-2.48-.91-5.86-.06-8.84Zm-31.59,34.04c2.48,4.03,4.81,7.82,3.67,11.24-1.41,4.23-7.53,6.25-12.94,8.03l-1.23.41c-1.02.34-2.14.5-3.52.5-.7,0-1.41-.04-2.13-.08-.64-.04-1.28-.08-1.92-.08h-3.02l1.18-2.78c3.2-7.56,6.83-16.13,14.68-21.86l1.9-1.39,1.06,2.1c.63,1.24,1.46,2.59,2.27,3.9Zm-18.94,63.05c6.18,8.2,7.89,14.55,6.28,23.42l-.48,2.63-2.39-1.2c-1.29-.65-2.88-1.32-4.43-1.98-5.39-2.29-9.24-3.92-9.1-6.83.29-6.39-2.33-12.23-4.86-17.88-3.42-7.62-6.95-15.5-3.62-24.84l.89-2.48,2.15,1.52c6.3,4.46,8.49,10.79,10.6,16.92,1.36,3.94,2.65,7.65,4.96,10.72Zm125.07,21.88l.5.68-2.56,2.62-.7-.48c-5.62-3.91-11.07-7.77-15.99-11.99-1.32-.39-2.66-.65-3.99-.79-.45.26-1.46,1.44-1.85,1.89-1.39,1.62-2.97,3.47-5.06,3.47-4.6,0-14.11-3.55-14.52-8.18-.26-2.76-.71-5.51-1.19-8.42-1.86-11.27-3.78-22.91,5.67-35.68-.03-.28-.22-1.24-1.53-3.66-1.4-1.43-2.82-3.08-4.43-5.12-1.27.64-4.8,2.4-4.8,2.4-2.11,1.05-4.22,2.1-6.32,3.16l-1.79.9-.9-1.79c-4.68-9.35-9.36-18.68-14.02-28.04l-1.69-3.4,3.76.53c12.56,1.77,19.08,10.59,25.38,19.11.51.7,1.03,1.39,1.54,2.08l1.72-.87.9,1.79c.63,1.27,1.49,2.73,2.32,4.14.54.91,1.07,1.82,1.56,2.7,2.92,2.91,5.89,4.94,9.09,6.22l2.82,1.12-2.14,2.15c-.74.74-1.58,1.45-2.39,2.13-1.37,1.15-3.25,2.73-3.3,3.62-.68,13.2,4.62,24,17.18,34.99,6.31,2.08,12.26,6.6,16.75,12.74Zm18.54-34.05c-.65-5.16-1.21-9.62,11.91-22.3.23-.22.58-.67,1-1.6.12-.89.31-1.68.6-2.43.16-.42.37-.84.62-1.24.28-1.04.54-2.14.82-3.28l.03-.11c.82-3.42,1.76-7.27,3.23-10.5l1.08-2.37,3.78,3.11c1.97,1.62,3.91,3.22,5.89,4.86l2.13,1.76-2.34,1.47c-1.35.85-2.84,1.61-4.28,2.34-2.65,1.35-5.37,2.74-6.65,4.4-.34,1.2-.65,2.16-.98,2.99-.17,2.08.26,4.55.68,6.95.74,4.27,1.43,8.3-.84,11.06-1.67,2.02-3.77,3.67-6,5.42-2.27,1.79-4.6,3.62-6.45,5.86-.13,3.85-.73,8.49-3.77,11.43.25.33.96.97,2.73,2.24,1.92,1.38,3.58,2.57,2.85,4.44-3.59,9.27-4.57,17.89-3.16,27.97l.56,4-3.52-1.98c-12.1-6.81-11.71-17.7-11.36-27.3.1-2.86.21-5.77,0-8.49l-.18-2.39,2.39.25c.6.06,1.18.1,1.72.1,1.57,0,2.9-.27,3.94-.81.26-4.09,1.52-7.65,3.83-10.85,0-.44.01-1.76.01-1.76,0-1.15-.13-2.21-.26-3.23Zm-238.71-264.05c-.19-2.63-.4-5.6.75-7.93,3.04-6.14,8.68-6.9,13.65-7.57,3.79-.51,7.08-.96,9.38-3.36.56-3.36,1.35-6.89,3.14-10.11-.53-.8-1.93-1.99-3-2.88-.83-.7-1.67-1.4-2.39-2.12l-5.48-5.46,7.44,2.12c1.7.48,3.27.73,4.69.73,5.92,0,8.93-4.35,12.41-9.39,3.84-5.56,8.19-11.86,17.27-12.44l2.13-.14v18.52l-2.34-.4c-.86-.15-1.73-.22-2.58-.22-4.68,0-8.73,2.24-13.02,4.62-1.4.77-2.83,1.56-4.29,2.28-2.93,1.44-5.11,3.28-6.68,5.62-.39,4.8-1.55,8.41-3.54,11.01-.09.56-.17,1.11-.25,1.67-1.45,9.71-3.09,20.68-22.99,23.81.42,3.15-.2,6.17-1.77,8.6-1.71,2.64-4.36,4.35-7.46,4.82-11.66,1.74-17.01,4.63-17.09,6.13-.66,13.9-9.59,24.74-24.49,29.73l-4.71,1.58,2.31-4.4c11.55-22.06,27.89-36.29,48.86-50.85.29-.54.13-2.75.04-3.95Zm19.43,244.19c-2.03,0-3.03.25-3.52.46,1.16,1.06,4.32,3.1,5.63,3.95,5.16,3.33,9.62,6.2,8.53,9.5-.91,2.75-4.93,3.63-11.96,4.94-3.31.62-9.46,1.76-10.13,2.93-2.69,4.68.5,9.63,3.88,14.88.73,1.14,1.56,2.42,2.28,3.66l3.38,5.83-6.02-3.04c-1.32-.67-2.95-1.37-4.54-2.05-5.54-2.38-9.18-3.95-8.96-6.77.52-6.5.68-12.53.83-17.84.49-17.83.85-30.71,15.33-30.71,4.83,0,11.36,1.52,19.95,4.65l.58.21.36.51c1.33,1.87,2.97,4.62,1.76,6.96-1.16,2.26-4.12,2.55-6.57,2.55-1.66,0-3.56-.15-5.39-.3-1.9-.15-3.8-.3-5.43-.3Zm49.2,47.28l-2.64,3.73c-6.42,9.07-16.01,11.48-25.29,13.8-1.29.32-2.58.65-3.86.99l-3.66.98,1.26-3.58c4.55-12.9,15.36-13.93,24.89-14.83,1.6-.15,3.22-.31,4.77-.51l4.53-.59Zm23.63,23.34l3.69-.25-1.81,3.22c-3.38,6.03-8.26,8.84-15.35,8.84-2.21,0-4.6-.26-7.78-.84l-2.52-.46,1.05-2.33c3.34-7.4,9.24-8.35,14.01-8.35,1.2,0,2.42.06,3.59.11,1.14.05,2.31.11,3.42.11.57,0,1.14-.01,1.7-.05Zm20.94-161.21c.34-.3.94-.66,1.83-.66,1.43,0,2.98.86,5.61,2.39,1.66.97,4.15,2.41,5.19,2.44,4.75-2.85,3.49-13.1,2.47-21.35-.87-7.05-1.24-10.83.53-12.83.65-.74,1.57-1.14,2.57-1.14,1.21,0,2.54.55,4.21,1.75l.08.06.15.13c2.84,3.03,7.09,6.97,11.89,6.97,3.87,0,7.76-2.64,11.58-7.86,2.88-3.94,2.28-10.69,1.69-17.22-.25-2.82-.51-5.73-.51-8.49v-.47l.21-.42c1.47-2.94,4.63-4.63,8.67-4.63,6.92,0,14.5,5.03,14.75,12.51.5,14.4-10.19,19.85-20.52,25.11-8.29,4.23-16.86,8.59-20.43,17.65-.3.76-.61,1.58-.92,2.42-2.14,5.71-4.16,11.1-7.75,11.42-15.73,1.42-20.11,12.64-24.74,24.52-.23.59-.46,1.18-.69,1.76,4.2,1.52,7.98,3.9,11.64,6.21,5.88,3.7,11.43,7.2,18.31,7.2.73,0,1.48-.04,2.23-.12l.81-.09,1.11,3.4-.7.41c-1.19.69-2.4,1.47-3.69,2.3-4.16,2.69-8.46,5.48-12.9,5.48-2.13,0-4.1-.66-5.85-1.95-2.2-1.61-1.96-5.35-1.71-8.97.05-.73.12-1.89.12-2.61-10.54-3.8-16.9-9.78-18.4-17.33-1.74-8.73,3.19-19.18,13.18-27.97Zm-26.86-85.68l.65-.28.68.2c13.86,3.96,16.47,20.92,17.23,33.34.09,1.74-.68,4.69-1.58,8.12-.9,3.42-1.92,7.3-1.92,9.52v.79l-3.43.82-.36-.7c-1.21-2.39-2.39-4.76-3.58-7.14l-.22-.45c-1.06-2.13-2.13-4.27-3.22-6.44-1.2-2.38-2.18-6.1-3.13-9.69-.46-1.74-1.37-5.17-1.88-6.29-1.23-.19-2.49-.29-3.78-.29-6.33,0-11.99,2.25-15.63,4.14-.92.58-2.02,1.22-3.19,1.87l-.83.46-2.05-3.3.77-.54s1.26-.88,3.39-1.99c6.23-3.95,6.52-6.16,6.82-8.5.5-3.86.96-7.5,15.27-13.64Zm-23.55-117.84l-2.7-3.44,4.37.21c5.11.25,8.11,1.44,9.44,3.74,1.75,3.04-.18,6.76-1.89,10.04-1.13,2.18-2.54,4.88-2.03,6.09.21.5.87.91,1.97,1.24l.88.27-.81,3.75-.92-.12c-4.52-.6-7.44-2-8.93-4.3-2.01-3.11-.87-6.92.14-10.29.87-2.9,1.69-5.64.47-7.19Zm71.31,142.91l-1.23-3.78.93-.32c1.43-.49,2.78-.96,4.03-1.41.47-.82.65-3.66.91-7.83.16-2.59.37-5.82.72-10.06.24-2.95,4.41-4.05,13.07-6.07,3.63-.85,7.37-1.72,9.06-2.56l4.16-2.07-1.35,4.45c-.51,1.68-.96,3.22-1.37,4.63-3.75,12.9-4.76,16.38-23.11,23.02-.86.58-1.87.86-3.14,1.21-.54.15-1.11.3-1.74.5l-.94.29Zm-145.09,23.07c2.06,0,4.36.2,6.58.39,2.18.19,4.41.38,6.34.38h4.83l-3.41,3.41c-1.39,1.39-2.88,2.71-4.31,3.99-3.52,3.14-6.85,6.11-8.7,9.81-1.11,2.22-.88,5.3-.63,8.56.1,1.39.21,2.83.21,4.25v5.04l-3.46-3.67c-8.6-9.13-11.05-22.05-5.59-29.43,1.8-2.43,5.29-2.74,8.14-2.74Zm199.69,11.68c1.22,0,2.49.06,3.6.12,1.13.05,2.3.11,3.41.11.57,0,1.14-.01,1.7-.05l3.69-.25-1.81,3.22c-3.38,6.03-8.26,8.83-15.35,8.83-2.21,0-4.61-.26-7.78-.84l-2.52-.46,1.05-2.33c3.34-7.41,9.24-8.35,14.01-8.35Zm38.83,103.5c1.65-.16,3.26-.31,4.79-.51l4.53-.59-2.64,3.73c-6.42,9.08-16,11.48-25.27,13.8-1.3.33-2.59.65-3.88.99l-3.66.98,1.26-3.58c4.55-12.88,15.34-13.91,24.87-14.82Z"/>
  </g>
</svg>