<?xml version="1.0" encoding="UTF-8"?>
<svg id="Layer_8_copy" data-name="Layer 8 copy" xmlns="http://www.w3.org/2000/svg" viewBox="0 0 880.77 990.08">
  <defs>
    <style>
      .cls-1 {
        fill: #f7941d;
      }

      .cls-2 {
        fill: #ffff7c;
      }
    </style>
  </defs>
  <g id="Other_Shapes_copy" data-name="Other Shapes copy">
    <g>
      <path class="cls-1" d="m184.94,252.21c64.87-64.87,151.12-100.6,242.87-100.6s177.99,35.73,242.86,100.6,100.6,151.12,100.6,242.86c0,11.24-.55,22.51-1.64,33.69H85.98c-1.09-11.17-1.64-22.45-1.64-33.69,0-91.74,35.73-177.99,100.6-242.86Z"/>
      <path class="cls-2" d="m653.19,750.22c-62.45,54.35-142.49,84.29-225.38,84.29s-162.94-29.93-225.38-84.29c-56.34-49.04-95.05-114.87-110.5-187.18h671.76c-15.45,72.31-54.16,138.14-110.5,187.18Z"/>
      <path d="m625.77,679.62c1.29,1.95,1.38,4.49.88,6.7-.51,2.22-2.14,4-4,5.2-1.85,1.19-4.62,1.45-6.7.88-2.23-.61-3.95-2.11-5.2-4-.45-.68-.92-1.35-1.4-2.01-2.42-3.02-5.17-5.75-8.17-8.18-3.42-2.53-7.1-4.67-10.99-6.38-3.79-1.48-7.73-2.55-11.75-3.19-3.79-.42-7.61-.43-11.39-.02-3.74.6-7.41,1.6-10.94,2.97-3.85,1.7-7.49,3.82-10.88,6.32-3.16,2.54-6.04,5.41-8.58,8.56-2.26,3.07-4.2,6.37-5.76,9.86-.43,1.31-1.12,2.47-2.1,3.46-.59.45-1.17.91-1.76,1.36-1.98,1.27-4.48,1.38-6.7.88-2.07-.47-4.14-2.19-5.2-4-.64-1-.98-2.08-1.03-3.23-.26-1.16-.21-2.31.16-3.47.61-1.52,1.24-3.03,1.93-4.51,1.62-3.5,3.64-6.8,5.97-9.86,2.76-3.62,5.68-7.02,9.13-10.01,6.89-5.98,14.77-10.54,23.48-13.31,4.35-1.38,8.88-2.15,13.43-2.55,4.65-.41,9.2-.04,13.81.6,3.92.54,7.77,1.49,11.49,2.84,4.35,1.58,8.61,3.51,12.55,5.95,7.91,4.89,14.63,11.38,19.75,19.14Zm-206.36,35.57c-4.36-3.98-9.24-7.53-14.48-10.28-5.2-2.73-10.79-4.93-16.52-6.22s-11.74-1.94-17.61-1.56c-2.01.13-3.99.41-5.98.68-1.13.27-2.12.79-2.96,1.56-.95.61-1.69,1.43-2.24,2.44-1.09,1.86-1.55,4.61-.88,6.7.68,2.1,1.99,4.14,4,5.2.69.29,1.39.58,2.08.88,1.39.37,2.77.39,4.16.09,3.68-.37,7.39-.33,11.07.08,4.3.67,8.5,1.84,12.54,3.45,4.01,1.79,7.82,4,11.36,6.6,3.42,2.72,6.53,5.81,9.28,9.21,2.3,3.11,4.27,6.45,5.86,9.98,1.42,3.59,2.42,7.33,3,11.15.43,4.05.39,8.14-.06,12.19-.69,4.42-1.87,8.75-3.5,12.91-1.82,4.15-4.09,8.08-6.79,11.72-2.54,3.15-5.39,6.03-8.55,8.56-1.94,1.41-3.96,2.7-6.07,3.84-1.88,1.01-3.44,3.17-4,5.2-.57,2.08-.31,4.85.88,6.7,1.2,1.86,2.98,3.49,5.2,4,2.33.53,4.57.27,6.7-.88,10.2-5.48,18.69-14.14,24.5-24.11,5.83-10.01,9.13-21.55,9.39-33.13.26-11.66-2.88-23.43-9.07-33.33-3.12-4.99-6.94-9.66-11.29-13.63Zm-45.76-107.33c3.66-.4,7.34-.39,11,0,3.7.59,7.31,1.57,10.79,2.95,3.05,1.38,5.94,3.06,8.64,5.04.75.75,1.62,1.3,2.61,1.62,1.04.54,2.15.79,3.35.75,2.13,0,4.68-.95,6.15-2.55,1.52-1.66,2.65-3.83,2.55-6.15-.1-2.16-.79-4.74-2.55-6.15-3.24-2.6-6.58-4.97-10.31-6.82-3.63-1.8-7.45-3.33-11.36-4.38-3.94-1.05-8.05-1.66-12.11-1.93-4.12-.27-8.15.08-12.23.65-3.39.47-6.72,1.28-9.94,2.46-3.65,1.35-7.24,2.98-10.55,5.03-3.26,2.03-6.36,4.41-9.19,7.02-2.85,2.63-5.3,5.59-7.62,8.7-2.16,2.89-4.02,6.02-5.51,9.31-1.78,3.93-3.28,7.93-4.14,12.16-.47,2.31-.34,4.62.88,6.7,1.06,1.8,3.12,3.52,5.2,4,2.23.51,4.73.4,6.7-.88,1.83-1.18,3.55-2.99,4-5.2.54-2.65,1.32-5.23,2.29-7.75,1.48-3.3,3.31-6.42,5.45-9.33,2.23-2.75,4.74-5.26,7.49-7.5,2.74-2.01,5.67-3.74,8.76-5.14,3.11-1.22,6.34-2.09,9.64-2.62Zm124.17,65.53c-2.54-4.5-5.86-8.7-9.6-12.26-3.75-3.57-8.02-6.72-12.56-9.2-9.79-5.35-20.85-8-31.99-7.9-12.22.11-24.08,3.33-35.1,8.46-1.24.57-2.46,1.18-3.66,1.81-1.88.98-3.44,3.19-4,5.2-.57,2.08-.31,4.85.88,6.7,1.2,1.86,2.98,3.49,5.2,4,2.34.53,4.55.25,6.7-.88,1.82-.95,3.68-1.83,5.56-2.65,5.59-2.25,11.4-3.89,17.36-4.79,4.86-.56,9.77-.6,14.64-.05,3.93.62,7.77,1.65,11.48,3.09,3.6,1.59,7.02,3.57,10.2,5.91,2.6,2.11,4.98,4.46,7.09,7.06,1.7,2.34,3.18,4.83,4.39,7.45.98,2.55,1.7,5.19,2.14,7.88.3,2.9.3,5.82,0,8.72-.45,2.68-1.15,5.3-2.13,7.83-.92,2-2.02,3.91-3.3,5.7-1.04,1.27-2.16,2.48-3.38,3.58-1.6,1.45-2.55,4.04-2.55,6.15s.95,4.68,2.55,6.15c1.66,1.52,3.83,2.65,6.15,2.55,2.37-.11,4.37-.94,6.15-2.55,2.15-1.94,3.93-4.15,5.66-6.46,1.29-1.72,2.41-3.57,3.36-5.5,1.25-2.54,2.35-5.2,3.16-7.91.84-2.81,1.27-5.67,1.64-8.58.65-5.06.28-10.15-.66-15.15-.93-5.01-2.86-9.91-5.36-14.35Zm-167.94,39.4c-1.26-4.68-3.09-9.25-5.28-13.57-2.2-4.35-4.98-8.31-8.04-12.09-2.65-3.27-5.66-6.25-8.98-8.84-3.97-3.09-8.07-5.83-12.67-7.89-4.62-2.07-9.34-3.77-14.32-4.75-4.96-.98-10.07-1.53-15.13-1.43-10.15.21-20.13,2.68-29.16,7.32-.96.49-1.91,1.02-2.84,1.57-1.89,1.12-3.41,3.08-4,5.2-.57,2.08-.31,4.85.88,6.7,1.2,1.86,2.98,3.49,5.2,4,2.28.52,4.65.34,6.7-.88,1.84-1.09,3.76-2.05,5.72-2.92,3.86-1.51,7.88-2.57,11.98-3.22,4.51-.51,9.07-.51,13.58,0,4.19.66,8.31,1.75,12.26,3.29,3.61,1.59,7.04,3.57,10.22,5.91,3.06,2.48,5.85,5.28,8.32,8.35,2.65,3.58,4.89,7.44,6.68,11.52,1.59,4.06,2.74,8.29,3.41,12.6.45,4.06.48,8.15.04,12.21-.07.44-.13.88-.21,1.31-.36,1.16-.41,2.31-.16,3.47.05,1.16.4,2.24,1.03,3.23,1.06,1.8,3.12,3.52,5.2,4,2.23.51,4.73.4,6.7-.88,1.8-1.16,3.6-3,4-5.2.86-4.81,1.33-9.69,1.09-14.57-.24-4.85-.97-9.76-2.23-14.45Zm197.32-320.37h2v-3.12h3.12v-2h-3.12v-3.12h-2v3.12h-3.12v2h3.12v3.12Zm0,39.54h2v-3.12h3.12v-2h-3.12v-3.12h-2v3.12h-3.12v2h3.12v3.12Zm0-222.13h2v-3.12h3.12v-2h-3.12v-3.12h-2v3.12h-3.12v2h3.12v3.12Zm0,71.53h2v-3.12h3.12v-2h-3.12v-3.12h-2v3.12h-3.12v2h3.12v3.12Zm0-39.54h2v-3.12h3.12v-2h-3.12v-3.12h-2v3.12h-3.12v2h3.12v3.12Zm0,79.07h2v-3.12h3.12v-2h-3.12v-3.12h-2v3.12h-3.12v2h3.12v3.12Zm0,39.54h2v-3.12h3.12v-2h-3.12v-3.12h-2v3.12h-3.12v2h3.12v3.12Zm0,111.06h2v-3.12h3.12v-2h-3.12v-3.12h-2v3.12h-3.12v2h3.12v3.12Zm-19.77-130.83h2v-3.12h3.12v-2h-3.12v-3.12h-2v3.12h-3.12v2h3.12v3.12Zm0,39.54h2v-3.12h3.12v-2h-3.12v-3.12h-2v3.12h-3.12v2h3.12v3.12Zm0-79.07h2v-3.12h3.12v-2h-3.12v-3.12h-2v3.12h-3.12v2h3.12v3.12Zm0,111.07h2v-3.12h3.12v-2h-3.12v-3.12h-2v3.12h-3.12v2h3.12v3.12Zm19.77,98.84h2v-3.12h3.12v-2h-3.12v-3.12h-2v3.12h-3.12v2h3.12v3.12Zm-19.77-249.44h2v-3.12h3.12v-2h-3.12v-3.12h-2v3.12h-3.12v2h3.12v3.12Zm0-71.53h2v-3.12h3.12v-2h-3.12v-3.12h-2v3.12h-3.12v2h3.12v3.12Zm0,39.54h2v-3.12h3.12v-2h-3.12v-3.12h-2v3.12h-3.12v2h3.12v3.12Zm59.3,281.43h2v-3.12h3.12v-2h-3.12v-3.12h-2v3.12h-3.12v2h3.12v3.12Zm0-39.54h2v-3.12h3.12v-2h-3.12v-3.12h-2v3.12h-3.12v2h3.12v3.12Zm0-39.53h2v-3.12h3.12v-2h-3.12v-3.12h-2v3.12h-3.12v2h3.12v3.12Zm-19.77-241.9h2v-3.12h3.12v-2h-3.12v-3.12h-2v3.12h-3.12v2h3.12v3.12Zm-39.53,261.66h2v-3.12h3.12v-2h-3.12v-3.12h-2v3.12h-3.12v2h3.12v3.12Zm59.3-170.37h2v-3.12h3.12v-2h-3.12v-3.12h-2v3.12h-3.12v2h3.12v3.12Zm0,111.06h2v-3.12h3.12v-2h-3.12v-3.12h-2v3.12h-3.12v2h3.12v3.12Zm0-71.53h2v-3.12h3.12v-2h-3.12v-3.12h-2v3.12h-3.12v2h3.12v3.12Zm0,39.54h2v-3.12h3.12v-2h-3.12v-3.12h-2v3.12h-3.12v2h3.12v3.12Zm-19.77,91.3h2v-3.12h3.12v-2h-3.12v-3.12h-2v3.12h-3.12v2h3.12v3.12Zm0-39.53h2v-3.12h3.12v-2h-3.12v-3.12h-2v3.12h-3.12v2h3.12v3.12Zm0,79.07h2v-3.12h3.12v-2h-3.12v-3.12h-2v3.12h-3.12v2h3.12v3.12Zm0-111.06h2v-3.12h3.12v-2h-3.12v-3.12h-2v3.12h-3.12v2h3.12v3.12Zm0-150.6h2v-3.12h3.12v-2h-3.12v-3.12h-2v3.12h-3.12v2h3.12v3.12Zm0,32h2v-3.12h3.12v-2h-3.12v-3.12h-2v3.12h-3.12v2h3.12v3.12Zm0,79.07h2v-3.12h3.12v-2h-3.12v-3.12h-2v3.12h-3.12v2h3.12v3.12Zm0-39.54h2v-3.12h3.12v-2h-3.12v-3.12h-2v3.12h-3.12v2h3.12v3.12Zm-98.84,19.77h2v-3.12h3.12v-2h-3.12v-3.12h-2v3.12h-3.12v2h3.12v3.12Zm0-79.07h2v-3.12h3.12v-2h-3.12v-3.12h-2v3.12h-3.12v2h3.12v3.12Zm59.3,249.44h2v-3.12h3.12v-2h-3.12v-3.12h-2v3.12h-3.12v2h3.12v3.12Zm-59.3-209.9h2v-3.12h3.12v-2h-3.12v-3.12h-2v3.12h-3.12v2h3.12v3.12Zm0,79.07h2v-3.12h3.12v-2h-3.12v-3.12h-2v3.12h-3.12v2h3.12v3.12Zm19.77,130.83h2v-3.12h3.12v-2h-3.12v-3.12h-2v3.12h-3.12v2h3.12v3.12Zm-19.77-320.97h2v-3.12h3.12v-2h-3.12v-3.12h-2v3.12h-3.12v2h3.12v3.12Zm19.77,281.43h2v-3.12h3.12v-2h-3.12v-3.12h-2v3.12h-3.12v2h3.12v3.12Zm-19.77-59.3h2v-3.12h3.12v-2h-3.12v-3.12h-2v3.12h-3.12v2h3.12v3.12Zm-19.77-91.3h2v-3.12h3.12v-2h-3.12v-3.12h-2v3.12h-3.12v2h3.12v3.12Zm0-71.53h2v-3.12h3.12v-2h-3.12v-3.12h-2v3.12h-3.12v2h3.12v3.12Zm0,32h2v-3.12h3.12v-2h-3.12v-3.12h-2v3.12h-3.12v2h3.12v3.12Zm39.54,150.6h2v-3.12h3.12v-2h-3.12v-3.12h-2v3.12h-3.12v2h3.12v3.12Zm-19.77,19.77h2v-3.12h3.12v-2h-3.12v-3.12h-2v3.12h-3.12v2h3.12v3.12Zm0,39.53h2v-3.12h3.12v-2h-3.12v-3.12h-2v3.12h-3.12v2h3.12v3.12Zm0,39.54h2v-3.12h3.12v-2h-3.12v-3.12h-2v3.12h-3.12v2h3.12v3.12Zm-19.77-320.97h2v-3.12h3.12v-2h-3.12v-3.12h-2v3.12h-3.12v2h3.12v3.12Zm19.77,19.77h2v-3.12h3.12v-2h-3.12v-3.12h-2v3.12h-3.12v2h3.12v3.12Zm39.54,222.13h2v-3.12h3.12v-2h-3.12v-3.12h-2v3.12h-3.12v2h3.12v3.12Zm0-71.53h2v-3.12h3.12v-2h-3.12v-3.12h-2v3.12h-3.12v2h3.12v3.12Zm0-39.54h2v-3.12h3.12v-2h-3.12v-3.12h-2v3.12h-3.12v2h3.12v3.12Zm0,71.53h2v-3.12h3.12v-2h-3.12v-3.12h-2v3.12h-3.12v2h3.12v3.12Zm0-111.06h2v-3.12h3.12v-2h-3.12v-3.12h-2v3.12h-3.12v2h3.12v3.12Zm0-111.07h2v-3.12h3.12v-2h-3.12v-3.12h-2v3.12h-3.12v2h3.12v3.12Zm-19.77,209.9h2v-3.12h3.12v-2h-3.12v-3.12h-2v3.12h-3.12v2h3.12v3.12Zm19.77-170.37h2v-3.12h3.12v-2h-3.12v-3.12h-2v3.12h-3.12v2h3.12v3.12Zm0,32h2v-3.12h3.12v-2h-3.12v-3.12h-2v3.12h-3.12v2h3.12v3.12Zm-19.77,19.77h2v-3.12h3.12v-2h-3.12v-3.12h-2v3.12h-3.12v2h3.12v3.12Zm0,39.53h2v-3.12h3.12v-2h-3.12v-3.12h-2v3.12h-3.12v2h3.12v3.12Zm0,39.54h2v-3.12h3.12v-2h-3.12v-3.12h-2v3.12h-3.12v2h3.12v3.12Zm0-150.6h2v-3.12h3.12v-2h-3.12v-3.12h-2v3.12h-3.12v2h3.12v3.12Zm0,39.54h2v-3.12h3.12v-2h-3.12v-3.12h-2v3.12h-3.12v2h3.12v3.12Zm19.77,281.43h2v-3.12h3.12v-2h-3.12v-3.12h-2v3.12h-3.12v2h3.12v3.12Zm0-39.54h2v-3.12h3.12v-2h-3.12v-3.12h-2v3.12h-3.12v2h3.12v3.12Zm91.3-91.3h2v-3.12h3.12v-2h-3.12v-3.12h-2v3.12h-3.12v2h3.12v3.12Zm98.84,12.23h2v-3.12h3.12v-2h-3.12v-3.12h-2v3.12h-3.12v2h3.12v3.12Zm0-32h2v-3.12h3.12v-2h-3.12v-3.12h-2v3.12h-3.12v2h3.12v3.12Zm0,71.53h2v-3.12h3.12v-2h-3.12v-3.12h-2v3.12h-3.12v2h3.12v3.12Zm0,39.53h2v-3.12h3.12v-2h-3.12v-3.12h-2v3.12h-3.12v2h3.12v3.12Zm0,39.54h2v-3.12h3.12v-2h-3.12v-3.12h-2v3.12h-3.12v2h3.12v3.12Zm19.77-19.77h2v-3.12h3.12v-2h-3.12v-3.12h-2v3.12h-3.12v2h3.12v3.12Zm-19.77-170.37h2v-3.12h3.12v-2h-3.12v-3.12h-2v3.12h-3.12v2h3.12v3.12Zm0-39.53h2v-3.12h3.12v-2h-3.12v-3.12h-2v3.12h-3.12v2h3.12v3.12Zm-19.77-19.77h2v-3.12h3.12v-2h-3.12v-3.12h-2v3.12h-3.12v2h3.12v3.12Zm0,150.6h2v-3.12h3.12v-2h-3.12v-3.12h-2v3.12h-3.12v2h3.12v3.12Zm39.53,39.53h2v-3.12h3.12v-2h-3.12v-3.12h-2v3.12h-3.12v2h3.12v3.12Zm-39.53,39.54h2v-3.12h3.12v-2h-3.12v-3.12h-2v3.12h-3.12v2h3.12v3.12Zm0-39.54h2v-3.12h3.12v-2h-3.12v-3.12h-2v3.12h-3.12v2h3.12v3.12Zm0-150.6h2v-3.12h3.12v-2h-3.12v-3.12h-2v3.12h-3.12v2h3.12v3.12Zm0,79.07h2v-3.12h3.12v-2h-3.12v-3.12h-2v3.12h-3.12v2h3.12v3.12Zm0-39.54h2v-3.12h3.12v-2h-3.12v-3.12h-2v3.12h-3.12v2h3.12v3.12Zm71.53,39.54h2v-3.12h3.12v-2h-3.12v-3.12h-2v3.12h-3.12v2h3.12v3.12Zm-32,32h2v-3.12h3.12v-2h-3.12v-3.12h-2v3.12h-3.12v2h3.12v3.12Zm32,39.53h2v-3.12h3.12v-2h-3.12v-3.12h-2v3.12h-3.12v2h3.12v3.12Zm-91.3-209.9h2v-3.12h3.12v-2h-3.12v-3.12h-2v3.12h-3.12v2h3.12v3.12Zm91.3,249.44h2v-3.12h3.12v-2h-3.12v-3.12h-2v3.12h-3.12v2h3.12v3.12Zm19.77-59.3h2v-3.12h3.12v-2h-3.12v-3.12h-2v3.12h-3.12v2h3.12v3.12Zm-32-71.53h2v-3.12h3.12v-2h-3.12v-3.12h-2v3.12h-3.12v2h3.12v3.12Zm32,150.6h2v-3.12h3.12v-2h-3.12v-3.12h-2v3.12h-3.12v2h3.12v3.12Zm0-39.54h2v-3.12h3.12v-2h-3.12v-3.12h-2v3.12h-3.12v2h3.12v3.12Zm-19.77-59.3h2v-3.12h3.12v-2h-3.12v-3.12h-2v3.12h-3.12v2h3.12v3.12Zm-32-71.53h2v-3.12h3.12v-2h-3.12v-3.12h-2v3.12h-3.12v2h3.12v3.12Zm0-39.54h2v-3.12h3.12v-2h-3.12v-3.12h-2v3.12h-3.12v2h3.12v3.12Zm-130.83-59.3h2v-3.12h3.12v-2h-3.12v-3.12h-2v3.12h-3.12v2h3.12v3.12Zm130.83,138.37h2v-3.12h3.12v-2h-3.12v-3.12h-2v3.12h-3.12v2h3.12v3.12Zm19.77,51.76h2v-3.12h3.12v-2h-3.12v-3.12h-2v3.12h-3.12v2h3.12v3.12Zm0,39.53h2v-3.12h3.12v-2h-3.12v-3.12h-2v3.12h-3.12v2h3.12v3.12Zm0,39.54h2v-3.12h3.12v-2h-3.12v-3.12h-2v3.12h-3.12v2h3.12v3.12Zm0-118.6h2v-3.12h3.12v-2h-3.12v-3.12h-2v3.12h-3.12v2h3.12v3.12Zm-118.6-111.06h2v-3.12h3.12v-2h-3.12v-3.12h-2v3.12h-3.12v2h3.12v3.12Zm0,229.67h2v-3.12h3.12v-2h-3.12v-3.12h-2v3.12h-3.12v2h3.12v3.12Zm-19.77-281.43h2v-3.12h3.12v-2h-3.12v-3.12h-2v3.12h-3.12v2h3.12v3.12Zm0,32h2v-3.12h3.12v-2h-3.12v-3.12h-2v3.12h-3.12v2h3.12v3.12Zm19.77,170.37h2v-3.12h3.12v-2h-3.12v-3.12h-2v3.12h-3.12v2h3.12v3.12Zm0-111.07h2v-3.12h3.12v-2h-3.12v-3.12h-2v3.12h-3.12v2h3.12v3.12Zm39.54-39.53h2v-3.12h3.12v-2h-3.12v-3.12h-2v3.12h-3.12v2h3.12v3.12Zm-39.54,111.06h2v-3.12h3.12v-2h-3.12v-3.12h-2v3.12h-3.12v2h3.12v3.12Zm0,79.07h2v-3.12h3.12v-2h-3.12v-3.12h-2v3.12h-3.12v2h3.12v3.12Zm-19.77,19.77h2v-3.12h3.12v-2h-3.12v-3.12h-2v3.12h-3.12v2h3.12v3.12Zm-12.23-281.43h2v-3.12h3.12v-2h-3.12v-3.12h-2v3.12h-3.12v2h3.12v3.12Zm12.23,241.9h2v-3.12h3.12v-2h-3.12v-3.12h-2v3.12h-3.12v2h3.12v3.12Zm0-111.06h2v-3.12h3.12v-2h-3.12v-3.12h-2v3.12h-3.12v2h3.12v3.12Zm0-39.54h2v-3.12h3.12v-2h-3.12v-3.12h-2v3.12h-3.12v2h3.12v3.12Zm0,111.07h2v-3.12h3.12v-2h-3.12v-3.12h-2v3.12h-3.12v2h3.12v3.12Zm-150.6-71.53h2v-3.12h3.12v-2h-3.12v-3.12h-2v3.12h-3.12v2h3.12v3.12Zm170.37,19.77h2v-3.12h3.12v-2h-3.12v-3.12h-2v3.12h-3.12v2h3.12v3.12Zm39.54,150.6h2v-3.12h3.12v-2h-3.12v-3.12h-2v3.12h-3.12v2h3.12v3.12Zm0-39.54h2v-3.12h3.12v-2h-3.12v-3.12h-2v3.12h-3.12v2h3.12v3.12Zm0-39.53h2v-3.12h3.12v-2h-3.12v-3.12h-2v3.12h-3.12v2h3.12v3.12Zm-19.77-202.36h2v-3.12h3.12v-2h-3.12v-3.12h-2v3.12h-3.12v2h3.12v3.12Zm19.77,130.83h2v-3.12h3.12v-2h-3.12v-3.12h-2v3.12h-3.12v2h3.12v3.12Zm0-39.54h2v-3.12h3.12v-2h-3.12v-3.12h-2v3.12h-3.12v2h3.12v3.12Zm-19.77-59.3h2v-3.12h3.12v-2h-3.12v-3.12h-2v3.12h-3.12v2h3.12v3.12Zm19.77,130.83h2v-3.12h3.12v-2h-3.12v-3.12h-2v3.12h-3.12v2h3.12v3.12Zm-19.77,98.84h2v-3.12h3.12v-2h-3.12v-3.12h-2v3.12h-3.12v2h3.12v3.12Zm0-190.13h2v-3.12h3.12v-2h-3.12v-3.12h-2v3.12h-3.12v2h3.12v3.12Zm-19.77-91.3h2v-3.12h3.12v-2h-3.12v-3.12h-2v3.12h-3.12v2h3.12v3.12Zm19.77,241.9h2v-3.12h3.12v-2h-3.12v-3.12h-2v3.12h-3.12v2h3.12v3.12Zm-19.77-209.9h2v-3.12h3.12v-2h-3.12v-3.12h-2v3.12h-3.12v2h3.12v3.12Zm19.77,98.84h2v-3.12h3.12v-2h-3.12v-3.12h-2v3.12h-3.12v2h3.12v3.12Zm0,71.53h2v-3.12h3.12v-2h-3.12v-3.12h-2v3.12h-3.12v2h3.12v3.12Zm0-32h2v-3.12h3.12v-2h-3.12v-3.12h-2v3.12h-3.12v2h3.12v3.12Zm-340.73-39.54h2v-3.12h3.12v-2h-3.12v-3.12h-2v3.12h-3.12v2h3.12v3.12Zm-32,71.53h2v-3.12h3.12v-2h-3.12v-3.12h-2v3.12h-3.12v2h3.12v3.12Zm0,39.53h2v-3.12h3.12v-2h-3.12v-3.12h-2v3.12h-3.12v2h3.12v3.12Zm0,39.54h2v-3.12h3.12v-2h-3.12v-3.12h-2v3.12h-3.12v2h3.12v3.12Zm-19.77-249.44h2v-3.12h3.12v-2h-3.12v-3.12h-2v3.12h-3.12v2h3.12v3.12Zm51.76-12.23h2v-3.12h3.12v-2h-3.12v-3.12h-2v3.12h-3.12v2h3.12v3.12Zm-32,71.53h2v-3.12h3.12v-2h-3.12v-3.12h-2v3.12h-3.12v2h3.12v3.12Zm0-39.53h2v-3.12h3.12v-2h-3.12v-3.12h-2v3.12h-3.12v2h3.12v3.12Zm0,118.6h2v-3.12h3.12v-2h-3.12v-3.12h-2v3.12h-3.12v2h3.12v3.12Zm0-39.54h2v-3.12h3.12v-2h-3.12v-3.12h-2v3.12h-3.12v2h3.12v3.12Zm-19.77,130.83h2v-3.12h3.12v-2h-3.12v-3.12h-2v3.12h-3.12v2h3.12v3.12Zm-19.77-209.9h2v-3.12h3.12v-2h-3.12v-3.12h-2v3.12h-3.12v2h3.12v3.12Zm19.77,249.44h2v-3.12h3.12v-2h-3.12v-3.12h-2v3.12h-3.12v2h3.12v3.12Zm0-190.13h2v-3.12h3.12v-2h-3.12v-3.12h-2v3.12h-3.12v2h3.12v3.12Zm-19.77-19.77h2v-3.12h3.12v-2h-3.12v-3.12h-2v3.12h-3.12v2h3.12v3.12Zm19.77,59.3h2v-3.12h3.12v-2h-3.12v-3.12h-2v3.12h-3.12v2h3.12v3.12Zm0,32h2v-3.12h3.12v-2h-3.12v-3.12h-2v3.12h-3.12v2h3.12v3.12Zm0,39.54h2v-3.12h3.12v-2h-3.12v-3.12h-2v3.12h-3.12v2h3.12v3.12Zm-19.77-91.3h2v-3.12h3.12v-2h-3.12v-3.12h-2v3.12h-3.12v2h3.12v3.12Zm39.53-111.06h2v-3.12h3.12v-2h-3.12v-3.12h-2v3.12h-3.12v2h3.12v3.12Zm32,261.66h2v-3.12h3.12v-2h-3.12v-3.12h-2v3.12h-3.12v2h3.12v3.12Zm0-79.07h2v-3.12h3.12v-2h-3.12v-3.12h-2v3.12h-3.12v2h3.12v3.12Zm-12.23-202.36h2v-3.12h3.12v-2h-3.12v-3.12h-2v3.12h-3.12v2h3.12v3.12Zm0,32h2v-3.12h3.12v-2h-3.12v-3.12h-2v3.12h-3.12v2h3.12v3.12Zm12.23,138.37h2v-3.12h3.12v-2h-3.12v-3.12h-2v3.12h-3.12v2h3.12v3.12Zm0-118.6h2v-3.12h3.12v-2h-3.12v-3.12h-2v3.12h-3.12v2h3.12v3.12Zm0,39.53h2v-3.12h3.12v-2h-3.12v-3.12h-2v3.12h-3.12v2h3.12v3.12Zm0,150.6h2v-3.12h3.12v-2h-3.12v-3.12h-2v3.12h-3.12v2h3.12v3.12Zm-12.23,19.77h2v-3.12h3.12v-2h-3.12v-3.12h-2v3.12h-3.12v2h3.12v3.12Zm0,39.54h2v-3.12h3.12v-2h-3.12v-3.12h-2v3.12h-3.12v2h3.12v3.12Zm0-229.67h2v-3.12h3.12v-2h-3.12v-3.12h-2v3.12h-3.12v2h3.12v3.12Zm0,150.6h2v-3.12h3.12v-2h-3.12v-3.12h-2v3.12h-3.12v2h3.12v3.12Zm0-39.54h2v-3.12h3.12v-2h-3.12v-3.12h-2v3.12h-3.12v2h3.12v3.12Zm0-71.53h2v-3.12h3.12v-2h-3.12v-3.12h-2v3.12h-3.12v2h3.12v3.12Zm0,39.54h2v-3.12h3.12v-2h-3.12v-3.12h-2v3.12h-3.12v2h3.12v3.12Zm-39.54-79.07h2v-3.12h3.12v-2h-3.12v-3.12h-2v3.12h-3.12v2h3.12v3.12Zm-98.84,130.83h2v-3.12h3.12v-2h-3.12v-3.12h-2v3.12h-3.12v2h3.12v3.12Zm0-71.53h2v-3.12h3.12v-2h-3.12v-3.12h-2v3.12h-3.12v2h3.12v3.12Zm0,39.54h2v-3.12h3.12v-2h-3.12v-3.12h-2v3.12h-3.12v2h3.12v3.12Zm19.77,91.3h2v-3.12h3.12v-2h-3.12v-3.12h-2v3.12h-3.12v2h3.12v3.12Zm0-150.6h2v-3.12h3.12v-2h-3.12v-3.12h-2v3.12h-3.12v2h3.12v3.12Zm0,39.54h2v-3.12h3.12v-2h-3.12v-3.12h-2v3.12h-3.12v2h3.12v3.12Zm0,71.53h2v-3.12h3.12v-2h-3.12v-3.12h-2v3.12h-3.12v2h3.12v3.12Zm0-39.54h2v-3.12h3.12v-2h-3.12v-3.12h-2v3.12h-3.12v2h3.12v3.12Zm0,118.6h2v-3.12h3.12v-2h-3.12v-3.12h-2v3.12h-3.12v2h3.12v3.12Zm-32,0h2v-3.12h3.12v-2h-3.12v-3.12h-2v3.12h-3.12v2h3.12v3.12Zm12.23-59.3h2v-3.12h3.12v-2h-3.12v-3.12h-2v3.12h-3.12v2h3.12v3.12Zm-32,0h2v-3.12h3.12v-2h-3.12v-3.12h-2v3.12h-3.12v2h3.12v3.12Zm0,39.54h2v-3.12h3.12v-2h-3.12v-3.12h-2v3.12h-3.12v2h3.12v3.12Zm19.77-19.77h2v-3.12h3.12v-2h-3.12v-3.12h-2v3.12h-3.12v2h3.12v3.12Zm12.23,19.77h2v-3.12h3.12v-2h-3.12v-3.12h-2v3.12h-3.12v2h3.12v3.12Zm-12.23-59.3h2v-3.12h3.12v-2h-3.12v-3.12h-2v3.12h-3.12v2h3.12v3.12Zm0-39.54h2v-3.12h3.12v-2h-3.12v-3.12h-2v3.12h-3.12v2h3.12v3.12Zm71.53,79.07h2v-3.12h3.12v-2h-3.12v-3.12h-2v3.12h-3.12v2h3.12v3.12Zm0-150.6h2v-3.12h3.12v-2h-3.12v-3.12h-2v3.12h-3.12v2h3.12v3.12Zm0,39.54h2v-3.12h3.12v-2h-3.12v-3.12h-2v3.12h-3.12v2h3.12v3.12Zm0,32h2v-3.12h3.12v-2h-3.12v-3.12h-2v3.12h-3.12v2h3.12v3.12Zm-19.77,98.84h2v-3.12h3.12v-2h-3.12v-3.12h-2v3.12h-3.12v2h3.12v3.12Zm19.77-59.3h2v-3.12h3.12v-2h-3.12v-3.12h-2v3.12h-3.12v2h3.12v3.12Zm19.77-19.77h2v-3.12h3.12v-2h-3.12v-3.12h-2v3.12h-3.12v2h3.12v3.12Zm0,39.53h2v-3.12h3.12v-2h-3.12v-3.12h-2v3.12h-3.12v2h3.12v3.12Zm222.13-71.53h2v-3.12h3.12v-2h-3.12v-3.12h-2v3.12h-3.12v2h3.12v3.12Zm-241.9-98.84h2v-3.12h3.12v-2h-3.12v-3.12h-2v3.12h-3.12v2h3.12v3.12Zm19.77,98.84h2v-3.12h3.12v-2h-3.12v-3.12h-2v3.12h-3.12v2h3.12v3.12Zm-39.54,0h2v-3.12h3.12v-2h-3.12v-3.12h-2v3.12h-3.12v2h3.12v3.12Zm0,71.53h2v-3.12h3.12v-2h-3.12v-3.12h-2v3.12h-3.12v2h3.12v3.12Zm0-39.53h2v-3.12h3.12v-2h-3.12v-3.12h-2v3.12h-3.12v2h3.12v3.12Zm19.77,98.84h2v-3.12h3.12v-2h-3.12v-3.12h-2v3.12h-3.12v2h3.12v3.12Zm-19.77-170.37h2v-3.12h3.12v-2h-3.12v-3.12h-2v3.12h-3.12v2h3.12v3.12Zm0-39.54h2v-3.12h3.12v-2h-3.12v-3.12h-2v3.12h-3.12v2h3.12v3.12Zm39.54,190.13h2v-3.12h3.12v-2h-3.12v-3.12h-2v3.12h-3.12v2h3.12v3.12Zm190.13-39.54h2v-3.12h3.12v-2h-3.12v-3.12h-2v3.12h-3.12v2h3.12v3.12Zm0,39.54h2v-3.12h3.12v-2h-3.12v-3.12h-2v3.12h-3.12v2h3.12v3.12Zm-19.77-320.97h2v-3.12h3.12v-2h-3.12v-3.12h-2v3.12h-3.12v2h3.12v3.12Zm0,39.54h2v-3.12h3.12v-2h-3.12v-3.12h-2v3.12h-3.12v2h3.12v3.12Zm19.77,202.36h2v-3.12h3.12v-2h-3.12v-3.12h-2v3.12h-3.12v2h3.12v3.12Zm0-71.53h2v-3.12h3.12v-2h-3.12v-3.12h-2v3.12h-3.12v2h3.12v3.12Zm-19.77-98.84h2v-3.12h3.12v-2h-3.12v-3.12h-2v3.12h-3.12v2h3.12v3.12Zm19.77,138.37h2v-3.12h3.12v-2h-3.12v-3.12h-2v3.12h-3.12v2h3.12v3.12Zm-19.77,91.3h2v-3.12h3.12v-2h-3.12v-3.12h-2v3.12h-3.12v2h3.12v3.12Zm0-190.13h2v-3.12h3.12v-2h-3.12v-3.12h-2v3.12h-3.12v2h3.12v3.12Zm0,150.6h2v-3.12h3.12v-2h-3.12v-3.12h-2v3.12h-3.12v2h3.12v3.12Zm19.77-130.83h2v-3.12h3.12v-2h-3.12v-3.12h-2v3.12h-3.12v2h3.12v3.12Zm-39.53-111.06h2v-3.12h3.12v-2h-3.12v-3.12h-2v3.12h-3.12v2h3.12v3.12Zm19.77,320.97h2v-3.12h3.12v-2h-3.12v-3.12h-2v3.12h-3.12v2h3.12v3.12Zm0-190.13h2v-3.12h3.12v-2h-3.12v-3.12h-2v3.12h-3.12v2h3.12v3.12Zm0,39.54h2v-3.12h3.12v-2h-3.12v-3.12h-2v3.12h-3.12v2h3.12v3.12Zm-19.77-130.83h2v-3.12h3.12v-2h-3.12v-3.12h-2v3.12h-3.12v2h3.12v3.12Zm19.77,162.83h2v-3.12h3.12v-2h-3.12v-3.12h-2v3.12h-3.12v2h3.12v3.12Zm39.54-150.6h2v-3.12h3.12v-2h-3.12v-3.12h-2v3.12h-3.12v2h3.12v3.12Zm0-71.53h2v-3.12h3.12v-2h-3.12v-3.12h-2v3.12h-3.12v2h3.12v3.12Zm0,39.54h2v-3.12h3.12v-2h-3.12v-3.12h-2v3.12h-3.12v2h3.12v3.12Zm0,71.53h2v-3.12h3.12v-2h-3.12v-3.12h-2v3.12h-3.12v2h3.12v3.12Zm12.23,170.37h2v-3.12h3.12v-2h-3.12v-3.12h-2v3.12h-3.12v2h3.12v3.12Zm0-39.53h2v-3.12h3.12v-2h-3.12v-3.12h-2v3.12h-3.12v2h3.12v3.12Zm-12.23-91.3h2v-3.12h3.12v-2h-3.12v-3.12h-2v3.12h-3.12v2h3.12v3.12Zm12.23,170.37h2v-3.12h3.12v-2h-3.12v-3.12h-2v3.12h-3.12v2h3.12v3.12Zm-12.23,19.77h2v-3.12h3.12v-2h-3.12v-3.12h-2v3.12h-3.12v2h3.12v3.12Zm-19.77-249.44h2v-3.12h3.12v-2h-3.12v-3.12h-2v3.12h-3.12v2h3.12v3.12Zm0-71.53h2v-3.12h3.12v-2h-3.12v-3.12h-2v3.12h-3.12v2h3.12v3.12Zm0,39.54h2v-3.12h3.12v-2h-3.12v-3.12h-2v3.12h-3.12v2h3.12v3.12Zm19.77,241.9h2v-3.12h3.12v-2h-3.12v-3.12h-2v3.12h-3.12v2h3.12v3.12Zm0-111.06h2v-3.12h3.12v-2h-3.12v-3.12h-2v3.12h-3.12v2h3.12v3.12Zm0,32h2v-3.12h3.12v-2h-3.12v-3.12h-2v3.12h-3.12v2h3.12v3.12Zm0,39.54h2v-3.12h3.12v-2h-3.12v-3.12h-2v3.12h-3.12v2h3.12v3.12Zm-59.3-170.37h2v-3.12h3.12v-2h-3.12v-3.12h-2v3.12h-3.12v2h3.12v3.12Zm-39.54,150.6h2v-3.12h3.12v-2h-3.12v-3.12h-2v3.12h-3.12v2h3.12v3.12Zm0,39.53h2v-3.12h3.12v-2h-3.12v-3.12h-2v3.12h-3.12v2h3.12v3.12Zm0,39.54h2v-3.12h3.12v-2h-3.12v-3.12h-2v3.12h-3.12v2h3.12v3.12Zm0-111.06h2v-3.12h3.12v-2h-3.12v-3.12h-2v3.12h-3.12v2h3.12v3.12Zm0-39.54h2v-3.12h3.12v-2h-3.12v-3.12h-2v3.12h-3.12v2h3.12v3.12Zm0-79.07h2v-3.12h3.12v-2h-3.12v-3.12h-2v3.12h-3.12v2h3.12v3.12Zm-19.77-51.76h2v-3.12h3.12v-2h-3.12v-3.12h-2v3.12h-3.12v2h3.12v3.12Zm19.77,91.3h2v-3.12h3.12v-2h-3.12v-3.12h-2v3.12h-3.12v2h3.12v3.12Zm-19.77,91.3h2v-3.12h3.12v-2h-3.12v-3.12h-2v3.12h-3.12v2h3.12v3.12Zm0,39.54h2v-3.12h3.12v-2h-3.12v-3.12h-2v3.12h-3.12v2h3.12v3.12Zm19.77-202.36h2v-3.12h3.12v-2h-3.12v-3.12h-2v3.12h-3.12v2h3.12v3.12Zm-19.77,241.9h2v-3.12h3.12v-2h-3.12v-3.12h-2v3.12h-3.12v2h3.12v3.12Zm0-111.06h2v-3.12h3.12v-2h-3.12v-3.12h-2v3.12h-3.12v2h3.12v3.12Zm0-118.6h2v-3.12h3.12v-2h-3.12v-3.12h-2v3.12h-3.12v2h3.12v3.12Zm0,39.54h2v-3.12h3.12v-2h-3.12v-3.12h-2v3.12h-3.12v2h3.12v3.12Zm0,39.53h2v-3.12h3.12v-2h-3.12v-3.12h-2v3.12h-3.12v2h3.12v3.12Zm39.54,0h2v-3.12h3.12v-2h-3.12v-3.12h-2v3.12h-3.12v2h3.12v3.12Zm19.77,170.37h2v-3.12h3.12v-2h-3.12v-3.12h-2v3.12h-3.12v2h3.12v3.12Zm0-39.54h2v-3.12h3.12v-2h-3.12v-3.12h-2v3.12h-3.12v2h3.12v3.12Zm-19.77-241.9h2v-3.12h3.12v-2h-3.12v-3.12h-2v3.12h-3.12v2h3.12v3.12Zm-19.77-19.77h2v-3.12h3.12v-2h-3.12v-3.12h-2v3.12h-3.12v2h3.12v3.12Zm19.77,51.76h2v-3.12h3.12v-2h-3.12v-3.12h-2v3.12h-3.12v2h3.12v3.12Zm19.77,59.3h2v-3.12h3.12v-2h-3.12v-3.12h-2v3.12h-3.12v2h3.12v3.12Zm0,39.54h2v-3.12h3.12v-2h-3.12v-3.12h-2v3.12h-3.12v2h3.12v3.12Zm0,39.54h2v-3.12h3.12v-2h-3.12v-3.12h-2v3.12h-3.12v2h3.12v3.12Zm0,32h2v-3.12h3.12v-2h-3.12v-3.12h-2v3.12h-3.12v2h3.12v3.12Zm-19.77,59.3h2v-3.12h3.12v-2h-3.12v-3.12h-2v3.12h-3.12v2h3.12v3.12Zm0,39.54h2v-3.12h3.12v-2h-3.12v-3.12h-2v3.12h-3.12v2h3.12v3.12Zm0-229.67h2v-3.12h3.12v-2h-3.12v-3.12h-2v3.12h-3.12v2h3.12v3.12Zm0,150.6h2v-3.12h3.12v-2h-3.12v-3.12h-2v3.12h-3.12v2h3.12v3.12Zm0-39.54h2v-3.12h3.12v-2h-3.12v-3.12h-2v3.12h-3.12v2h3.12v3.12Zm-39.54,118.6h2v-3.12h3.12v-2h-3.12v-3.12h-2v3.12h-3.12v2h3.12v3.12Zm39.54-150.6h2v-3.12h3.12v-2h-3.12v-3.12h-2v3.12h-3.12v2h3.12v3.12Zm460.41,189.7c-.23,1.54-.69,2.98-1.33,4.32-14.46,84.53-57.96,161.88-123.1,218.58-67.95,59.14-155.04,91.72-245.24,91.72s-177.29-32.57-245.24-91.72c-65.14-56.7-108.63-134.05-123.1-218.58-.64-1.34-1.11-2.79-1.33-4.32-2.68-18.1-4.03-36.63-4.03-55.05,0-50.44,9.88-99.38,29.37-145.47,18.82-44.5,45.77-84.47,80.08-118.78,34.32-34.31,74.28-61.26,118.78-80.08,46.08-19.49,95.02-29.37,145.47-29.37s99.38,9.88,145.47,29.37c44.5,18.82,84.47,45.77,118.78,80.08,34.31,34.32,61.26,74.28,80.08,118.78,19.49,46.08,29.37,95.02,29.37,145.47,0,18.42-1.36,36.94-4.03,55.05Zm-26.38-63.99h.05c-.01-.5-.04-1-.05-1.49v1.49Zm-39.54-150.6h.57c-.19-.37-.38-.74-.57-1.1v1.1Zm-12.23-19.77h1.55c-.51-.84-1.02-1.67-1.55-2.5v2.5Zm-605.46,39.54h1.06v-2.32c-.35.77-.72,1.54-1.06,2.32Zm-29.53,139.76c0,11.24.55,22.51,1.64,33.69h9.18v-1.09h-3.12v-2h3.12v-3.12h2v3.12h3.12v2h-3.12v1.09h30v-1.09h-3.12v-2h3.12v-3.12h2v3.12h3.12v2h-3.12v1.09h37.54v-1.09h-3.12v-2h3.12v-3.12h2v3.12h3.12v2h-3.12v1.09h37.54v-1.09h-3.12v-2h3.12v-3.12h2v3.12h3.12v2h-3.12v1.09h37.53v-1.09h-3.12v-2h3.12v-3.12h2v3.12h3.12v2h-3.12v1.09h30v-1.09h-3.12v-2h3.12v-3.12h2v3.12h3.12v2h-3.12v1.09h37.54v-1.09h-3.12v-2h3.12v-3.12h2v3.12h3.12v2h-3.12v1.09h37.54v-1.09h-3.12v-2h3.12v-3.12h2v3.12h3.12v2h-3.12v1.09h37.53v-1.09h-3.12v-2h3.12v-3.12h2v3.12h3.12v2h-3.12v1.09h30v-1.09h-3.12v-2h3.12v-3.12h2v3.12h3.12v2h-3.12v1.09h37.54v-1.09h-3.12v-2h3.12v-3.12h2v3.12h3.12v2h-3.12v1.09h37.54v-1.09h-3.12v-2h3.12v-3.12h2v3.12h3.12v2h-3.12v1.09h37.53v-1.09h-3.12v-2h3.12v-3.12h2v3.12h3.12v2h-3.12v1.09h30v-1.09h-3.12v-2h3.12v-3.12h2v3.12h3.12v2h-3.12v1.09h37.54v-1.09h-3.12v-2h3.12v-3.12h2v3.12h3.12v2h-3.12v1.09h37.54v-1.09h-3.12v-2h3.12v-3.12h2v3.12h3.12v2h-3.12v1.09h37.53v-1.09h-3.12v-2h3.12v-3.12h2v3.12h3.12v2h-3.12v1.09h30v-1.09h-3.12v-2h3.12v-3.12h2v3.12h3.12v2h-3.12v1.09h37.54v-1.09h-3.12v-2h3.12v-3.12h1.08c.72-9.14,1.09-18.32,1.09-27.48,0-2.32-.04-4.62-.08-6.93h-.09v3.12h-2v-3.12h-3.12v-2h3.12v-3.12h1.94c-.4-11.58-1.37-23.07-2.89-34.42h-2.17v-2h1.9c-2.79-19.88-7.29-39.34-13.43-58.21v.91h-3.12v3.12h-2v-3.12h-3.12v-2h3.12v-3.12h2v3.12h2.77c-5.64-17.12-12.64-33.75-20.93-49.76h-1.61v3.12h-2v-3.12h-3.12v-2h3.12v-3.12h.92c-2.67-4.95-5.46-9.83-8.37-14.65h-2.78v3.12h-2v-3.12h-3.12v-2h3.12v-3.12h1.62c-13.62-21.64-29.76-41.92-48.28-60.45-26.66-26.66-56.93-48.38-89.71-64.74v2.59h-2v-3.12h-3.12v-1.97c-14.66-7.01-29.81-12.95-45.34-17.79h-1.31v3.12h-2v-3.12h-3.12v-1.93c-30.89-8.97-63.22-13.63-96.27-13.63-30.38,0-60.14,3.94-88.74,11.54v2.03h3.12v2h-3.12v3.12h-2v-3.12h-3.12v-2h3.12v-1.5c-19.71,5.36-38.86,12.48-57.24,21.27h3.06v2h-3.12v3.12h-2v-3.12h-2.03c-33.19,16.42-63.84,38.32-90.79,65.27-29.42,29.42-52.82,63.25-69.64,99.98h1.63v3.12h3.12v2h-3.12v3.12h-2v-3.12h-1.94c-6.62,15.11-12.13,30.69-16.49,46.65h.66v3.12h3.12v2h-3.12v3.12h-2v-3.12h0c-7.12,27.76-10.81,56.59-10.81,86Zm621.31,197.88c-.67-.6-1.36-1.19-2.06-1.76-3.18-2.34-6.61-4.31-10.22-5.91-3.95-1.54-8.07-2.64-12.26-3.29-4.51-.51-9.07-.51-13.58,0-4.1.64-8.12,1.71-11.98,3.22-1.96.87-3.87,1.83-5.72,2.92-2.05,1.21-4.42,1.4-6.7.88-2.22-.5-4-2.14-5.2-4-1.19-1.85-1.45-4.62-.88-6.7.58-2.12,2.11-4.08,4-5.2.93-.55,1.88-1.08,2.84-1.57,9.03-4.64,19.01-7.11,29.16-7.32,5.06-.11,10.17.45,15.13,1.43,4.97.98,9.69,2.69,14.32,4.75,4.61,2.06,8.7,4.8,12.67,7.89.12.1.24.2.36.3,7.01-10.74,13.42-21.84,19.17-33.27-1.24-.78-2.32-1.89-3-3.04-1.22-2.08-1.35-4.4-.88-6.7.86-4.23,2.36-8.23,4.14-12.16,1.49-3.29,3.34-6.42,5.51-9.31,2.32-3.1,4.77-6.07,7.62-8.7,1.61-1.48,3.31-2.88,5.08-4.2,4.23-12.48,7.74-25.22,10.5-38.17h-21.34c-4.89,1.16-9.95,1.83-14.97,2.01-5.2.18-10.4-.31-15.53-1.19-1.32-.23-2.62-.51-3.92-.82h-58.17c2.6,1.06,5.15,2.23,7.63,3.52,4.45,2.32,8.53,5.14,12.45,8.27,3,2.4,5.76,5.1,8.17,8.09,2.85,3.54,5.4,7.22,7.28,11.37,1.87,4.12,3.43,8.35,4.15,12.83.41,2.6.76,5.24.78,7.88.02,2.65-.31,5.26-.71,7.87-.64,4.13-2.14,8.13-4.11,11.81-1.9,3.55-4.46,6.9-7.37,9.68-6.45,6.17-14.8,10.02-23.76,10.32-2.33.08-4.48-1.02-6.15-2.55-1.71-1.57-2.45-3.9-2.55-6.15-.1-2.17,1.04-4.64,2.55-6.15,1.63-1.63,3.87-2.47,6.15-2.55.39-.01.78-.04,1.17-.07,1.47-.27,2.91-.66,4.3-1.17,1.53-.72,2.98-1.58,4.36-2.56,1.48-1.23,2.84-2.6,4.07-4.07,1.12-1.57,2.1-3.23,2.92-4.97.69-1.84,1.2-3.73,1.54-5.67.24-2.4.22-4.8-.01-7.2-.48-2.88-1.26-5.69-2.32-8.41-1.29-2.83-2.86-5.53-4.7-8.04-2.41-2.97-5.16-5.65-8.14-8.04-4.15-3.06-8.66-5.58-13.38-7.67-1.77-.72-3.56-1.4-5.38-2-2.23-.75-3.93-2.03-5.2-4-1.27-1.98-1.38-4.48-.88-6.7.3-1.31,1.1-2.62,2.1-3.67h-83.49c1.15,2.11,2.44,4.15,3.87,6.09,2.59,3.2,5.52,6.11,8.73,8.69,3.65,2.7,7.58,4.99,11.74,6.81,3.96,1.55,8.08,2.68,12.29,3.34,3.8.42,7.63.45,11.43.05.61-.09,1.23-.18,1.84-.3,1.54-.41,3.08-.41,4.62,0,.69.29,1.39.58,2.08.88,2.01,1.06,3.32,3.09,4,5.2.68,2.09.21,4.84-.88,6.7-1.02,1.74-3.16,3.61-5.2,4-1.96.37-3.94.64-5.93.87-5.76.67-11.51.24-17.22-.71-5.77-.96-11.26-2.9-16.58-5.32-5.28-2.4-10.03-5.59-14.53-9.21-4.55-3.66-8.39-7.99-11.8-12.72-3.18-4.41-5.64-9.27-7.42-14.37h-45.3c-.38.75-.75,1.5-1.09,2.27-1.33,3.38-2.3,6.89-2.88,10.48-.35,3.3-.35,6.62,0,9.92.57,3.53,1.52,6.98,2.83,10.31,1.53,3.4,3.42,6.63,5.63,9.63,2.25,2.77,4.77,5.3,7.54,7.54,2.55,1.87,5.27,3.5,8.14,4.82,2.02.93,3.34,3.16,4,5.2.72,2.24.19,4.68-.88,6.7-.99,1.88-3.18,3.44-5.2,4-1.16.36-2.31.41-3.47.16-1.16-.05-2.24-.4-3.23-1.03-.81-.37-1.61-.77-2.39-1.18-3.79-2.01-7.29-4.59-10.54-7.39-3.28-2.83-6.04-6.09-8.65-9.54-2.17-2.87-4.05-5.96-5.59-9.22-1.83-3.89-3.41-7.94-4.37-12.14-1.97-8.53-1.94-17.29.04-25.81.37-1.6.85-3.17,1.38-4.72h-54.45c1.51,1.58,3.1,3.08,4.8,4.46,1.46,1.07,2.96,2.08,4.53,2.99,2,1.15,3.3,3.05,4,5.2.72,2.24.19,4.68-.88,6.7-.99,1.88-3.18,3.44-5.2,4-2.19.6-4.74.26-6.7-.88-.97-.56-1.93-1.15-2.86-1.78-7.87-5.3-14.52-12.42-19.19-20.69h-57.52c-4.89,1.16-9.95,1.83-14.97,2.01-5.2.18-10.4-.31-15.53-1.19-1.32-.23-2.62-.51-3.92-.82h-58.17c2.6,1.06,5.15,2.23,7.63,3.52,4.45,2.32,8.53,5.14,12.45,8.27,3,2.4,5.76,5.1,8.17,8.09,2.85,3.54,5.4,7.22,7.28,11.37,1.87,4.12,3.43,8.35,4.15,12.83.41,2.6.76,5.24.78,7.88.02,2.65-.31,5.26-.71,7.87-.64,4.13-2.14,8.13-4.11,11.81-1.9,3.55-4.46,6.9-7.37,9.68-6.45,6.17-14.8,10.02-23.76,10.32-2.33.08-4.48-1.02-6.15-2.55-1.71-1.57-2.45-3.9-2.55-6.15-.1-2.17,1.04-4.64,2.55-6.15,1.63-1.63,3.87-2.47,6.15-2.55.39-.01.78-.04,1.17-.07,1.47-.27,2.91-.66,4.3-1.17,1.53-.72,2.98-1.58,4.36-2.56,1.48-1.23,2.84-2.6,4.07-4.07,1.12-1.57,2.1-3.23,2.92-4.97.69-1.84,1.2-3.73,1.54-5.67.24-2.4.22-4.8-.01-7.2-.48-2.88-1.26-5.69-2.32-8.41-1.29-2.83-2.86-5.53-4.7-8.04-2.41-2.97-5.16-5.65-8.14-8.04-4.15-3.06-8.66-5.58-13.38-7.67-1.77-.72-3.56-1.4-5.38-2-2.23-.75-3.93-2.03-5.2-4-1.27-1.98-1.38-4.48-.88-6.7.3-1.31,1.1-2.62,2.1-3.67h-83.49c1.15,2.11,2.44,4.15,3.87,6.09,2.59,3.2,5.52,6.11,8.73,8.69,3.65,2.7,7.58,4.99,11.74,6.81,3.96,1.55,8.08,2.68,12.29,3.34,3.8.42,7.63.45,11.43.05.61-.09,1.23-.18,1.84-.3,1.54-.41,3.08-.41,4.62,0,.69.29,1.39.58,2.08.88,2.01,1.06,3.32,3.09,4,5.2.68,2.09.21,4.84-.88,6.7-1.02,1.74-3.16,3.61-5.2,4-1.96.37-3.94.64-5.93.87-5.76.67-11.51.24-17.22-.71-5.77-.96-11.26-2.9-16.58-5.32-5.28-2.4-10.03-5.59-14.53-9.21-4.55-3.66-8.39-7.99-11.8-12.72-3.18-4.41-5.64-9.27-7.42-14.37h-32.73c7.46,34.92,20.35,68.34,38.03,99.08,5.28-3.62,11.02-6.5,17.19-8.46,4.35-1.38,8.88-2.15,13.43-2.55,4.65-.41,9.2-.04,13.81.6,3.92.54,7.77,1.49,11.49,2.84,4.35,1.58,8.61,3.51,12.55,5.95,7.91,4.89,14.63,11.38,19.75,19.14,1.29,1.95,1.38,4.49.88,6.7-.51,2.22-2.14,4-4,5.2-1.85,1.19-4.62,1.45-6.7.88-2.23-.61-3.95-2.11-5.2-4-.45-.68-.92-1.35-1.4-2.01-2.42-3.02-5.17-5.75-8.17-8.18-3.42-2.53-7.1-4.67-10.99-6.38-3.79-1.48-7.73-2.55-11.75-3.19-3.79-.42-7.61-.43-11.39-.02-3.74.6-7.41,1.6-10.94,2.97-3.34,1.47-6.51,3.28-9.5,5.36,10.36,16.07,22.08,31.31,35.06,45.54,6.74-5.12,14.54-8.87,22.89-10.48,9.32-1.8,19.19-1.58,28.16,1.75,1.47.41,2.75,1.16,3.84,2.24.45.59.91,1.17,1.36,1.76,1.27,1.98,1.38,4.48.88,6.7-.47,2.07-2.19,4.14-4,5.2-1,.64-2.08.98-3.23,1.03-1.16.26-2.31.21-3.47-.16-2.47-.92-5.02-1.57-7.62-2.01-3.24-.35-6.51-.34-9.75,0-3.44.55-6.81,1.48-10.05,2.75-2.41,1.09-4.71,2.37-6.9,3.84,5.24,5.19,10.66,10.23,16.25,15.1,8.59,7.47,17.52,14.47,26.73,21,.75-1.64,2.02-3.08,3.55-3.99.98-.58,1.96-1.15,2.95-1.71,8.65-4.86,17.98-8.86,27.62-11.27,5.12-1.28,10.39-2.1,15.65-2.46,5.28-.36,10.48.02,15.71.77,4.08.58,8.08,1.59,11.9,3.13,4.2,1.69,8.22,3.62,11.95,6.19,7.37,5.08,13.83,11.62,18.17,19.51,2.1,3.82,3.82,8,4.79,12.26.98,4.31,1.45,8.84,1.05,13.25,0,1.57-.4,3.03-1.19,4.39-.45.59-.91,1.17-1.36,1.76-1.57,1.71-3.9,2.45-6.15,2.55-2.17.1-4.64-1.04-6.15-2.55-1.44-1.44-2.74-4.05-2.55-6.15.19-2.16.18-4.32-.03-6.47-.42-2.53-1.11-5-2.03-7.39-1.25-2.73-2.78-5.31-4.55-7.73-2.21-2.72-4.71-5.19-7.43-7.4-3.03-2.23-6.29-4.13-9.73-5.66-3.42-1.31-6.96-2.22-10.58-2.8-5.05-.58-10.14-.53-15.18.05-7.05,1.05-13.91,3.07-20.51,5.76-3.9,1.69-7.69,3.61-11.38,5.71,54.72,34.76,118.52,53.52,184.12,53.52,6.09,0,12.15-.18,18.2-.5-.96-1.43-1.4-3.19-1.48-4.89-.1-2.17,1.04-4.64,2.55-6.15.79-.85,1.72-1.45,2.8-1.8,1.04-.54,2.15-.79,3.35-.75.92-.1,1.84-.17,2.77-.2,1.81-.06,3.62.03,5.42.24,2.54.3,5.07.65,7.54,1.3,1.75.46,3.48,1.03,5.16,1.72,2.35.96,4.68,1.96,6.89,3.21,1.55.88,3.05,1.87,4.52,2.93,3.66-.62,7.32-1.29,10.95-2.03-6.67-6.15-11.51-14.11-14.25-22.73-1.41-4.44-2.16-9.13-2.45-13.77-.3-4.65.14-9.29.92-13.88.79-4.62,2.33-8.96,4.22-13.25,1.87-4.26,4.44-8.02,7.34-11.63,1.41-1.76,3.99-2.45,6.15-2.55,2.32-.1,4.49,1.03,6.15,2.55,1.6,1.47,2.55,4.02,2.55,6.15.05,1.2-.2,2.31-.75,3.35-.32.99-.86,1.85-1.61,2.6-1.8,2.46-3.33,5.1-4.59,7.87-1.29,3.28-2.21,6.68-2.77,10.16-.39,3.61-.4,7.24,0,10.84.54,3.34,1.42,6.61,2.65,9.77,1.23,2.69,2.72,5.25,4.46,7.65,1.94,2.36,4.11,4.52,6.48,6.45,2.62,1.92,5.43,3.57,8.37,4.94,19.53-5.4,38.55-12.51,56.82-21.26-3.06-3.27-5.76-7-7.84-10.96-2.2-4.19-3.97-8.71-5.03-13.34-1.08-4.68-1.65-9.57-1.52-14.38.07-2.77.42-5.52.85-8.25.31-1.99.76-3.96,1.34-5.9,2.74-9.1,8.04-17.52,15.34-23.65,7.26-6.09,15.92-10.56,25.26-12.37,9.32-1.8,19.19-1.58,28.16,1.75,1.47.41,2.75,1.16,3.84,2.24.45.59.91,1.17,1.36,1.76,1.27,1.98,1.38,4.48.88,6.7-.47,2.07-2.19,4.14-4,5.2-1,.64-2.08.98-3.23,1.03-1.16.26-2.31.21-3.47-.16-2.47-.92-5.02-1.57-7.62-2.01-3.24-.35-6.51-.34-9.75,0-3.44.55-6.81,1.48-10.05,2.75-3.02,1.36-5.89,3.03-8.57,4.99-2.25,1.84-4.31,3.89-6.16,6.14-1.6,2.2-2.96,4.55-4.1,7.02-1.12,2.88-1.92,5.86-2.42,8.91-.37,3.42-.36,6.87,0,10.29.55,3.44,1.46,6.81,2.74,10.06,1.29,2.84,2.86,5.54,4.71,8.05,1.33,1.6,2.76,3.11,4.31,4.5.43.39.8.83,1.11,1.3,21.61-11.79,42.04-25.94,60.86-42.32,19.73-17.17,37.3-36.41,52.47-57.26Z"/>
    </g>
  </g>
</svg>