<?xml version="1.0" encoding="UTF-8"?>
<svg id="Layer_8_copy" data-name="Layer 8 copy" xmlns="http://www.w3.org/2000/svg" viewBox="0 0 1360.81 1193.97">
  <defs>
    <style>
      .cls-1 {
        fill: #6785ff;
      }
    </style>
  </defs>
  <g id="Other_Shapes_copy" data-name="Other Shapes copy">
    <g>
      <path class="cls-1" d="m581.97,220.47l415.19,706.51H198.2c124.9-230.19,290.53-535.28,383.76-706.51ZM182.12,956.63h840.94c5.32,0,10.23-2.85,12.87-7.46,2.64-4.61,2.61-10.29-.09-14.87L598.51,190.1c19.86-36.44,35.25-64.64,44.68-81.8l534.95,910.3H148.49c10.72-19.75,21.96-40.48,33.62-61.98Z"/>
      <path d="m1274.36,1063.59L717.02,115.17c-1.44-2.44-4.4-3.52-7.07-2.57q-2.24.8-9.22,13.45c-2.27,4.11-5.15,9.36-8.59,15.63l-38.34-65.24c-3.08-5.23-9.44-7.54-15.15-5.51-4.53,1.61-6.15,4.5-8.39,8.49-1.03,1.83-2.53,4.53-4.47,8.06-3.85,6.98-9.46,17.21-16.57,30.21-6.92,12.65-15.5,28.37-25.65,46.99l-37.56-63.92c-3.61-6.14-11.06-8.84-17.76-6.45-5.29,1.89-7.26,5.41-9.36,9.13-.91,1.61-2.23,4-3.94,7.1-3.39,6.14-8.32,15.13-14.57,26.56-11.84,21.64-29.17,53.44-51.53,94.51-37.65,69.16-90.04,165.56-155.73,286.52-111.84,205.95-224.98,414.52-226.11,416.6-2.49,4.59-2.38,10.16.29,14.65,2.67,4.49,7.51,7.24,12.74,7.24h73.31c-22.91,42.23-36.8,67.83-37.22,68.6-2.13,3.92-2.03,8.67.25,12.5s6.41,6.18,10.87,6.18h74.62c-6.76,12.46-10.56,19.46-10.77,19.86-.99,1.83-.95,4.05.12,5.83,1.06,1.79,2.99,2.88,5.07,2.88h1072.99c2.12,0,4.07-1.13,5.12-2.97,1.05-1.84,1.04-4.1-.03-5.92ZM104.93,926.98C243.29,671.93,477.51,240.45,533.59,138.14l33.43,56.89c-5.18,9.51-10.66,19.57-16.43,30.18-42.83,78.69-102.45,188.37-177.19,326-76.96,141.71-154.45,284.5-203.97,375.77h-64.49ZM581.97,220.47l415.19,706.51H198.2c124.9-230.19,290.53-535.28,383.76-706.51ZM182.12,956.63h840.94c5.32,0,10.23-2.85,12.87-7.46,2.64-4.61,2.61-10.29-.09-14.87L598.51,190.1c19.86-36.44,35.25-64.64,44.68-81.8l534.95,910.3H148.49c10.72-19.75,21.96-40.48,33.62-61.98Z"/>
    </g>
  </g>
</svg>