<?xml version="1.0" encoding="UTF-8"?>
<svg id="Layer_8_copy" data-name="Layer 8 copy" xmlns="http://www.w3.org/2000/svg" viewBox="0 0 935.71 891.07">
  <g id="Other_Shapes_copy" data-name="Other Shapes copy">
    <path d="m103.87,103.72v697.51h697.51V103.72H103.87Zm637.51,214.71h-141.32v-154.71h141.32v154.71Zm-358.02,212.5v-152.5h156.7v152.5h-156.7Zm156.7,60v150.3h-156.7v-150.3h156.7Zm-216.7-60h-159.49v-152.5h159.49v152.5Zm60-212.5v-154.71h156.7v154.71h-156.7Zm216.7,60h141.32v152.5h-141.32v-152.5Zm-276.7-214.71v154.71h-159.49v-154.71h159.49Zm-159.49,427.22h159.49v150.3h-159.49v-150.3Zm436.19,150.3v-150.3h141.32v150.3h-141.32Z"/>
  </g>
</svg>