<?xml version="1.0" encoding="UTF-8"?>
<svg id="Layer_8_copy" data-name="Layer 8 copy" xmlns="http://www.w3.org/2000/svg" viewBox="0 0 1031.76 912.86">
  <g id="Other_Shapes_copy" data-name="Other Shapes copy">
    <g>
      <g>
        <path d="m475.11,603.91c-18.46-23.34-29.48-52.84-29.48-84.91,0-75.67,61.34-137.01,137.01-137.01,9.19,0,18.17.91,26.85,2.64-25.09-31.74-63.93-52.1-107.53-52.1-75.67,0-137.01,61.34-137.01,137.01,0,66.48,47.35,121.89,110.16,134.37Z"/>
        <path d="m724.95,199.96c79.38,64.74,130.08,163.32,130.08,273.74,0,195-158.08,353.07-353.07,353.07-50.64,0-98.78-10.66-142.32-29.86,60.8,49.59,138.42,79.33,223,79.33,194.99,0,353.07-158.07,353.07-353.07,0-144.36-86.64-268.48-210.76-323.21Z"/>
      </g>
      <g>
        <path d="m465.01,623.19h3.12v2h-3.12v3.12h-2v-3.12h-3.12v-2h3.12v-3.12h2v3.12Zm0,36.42h-2v3.12h-3.12v2h3.12v3.12h2v-3.12h3.12v-2h-3.12v-3.12Zm0,71.53h-2v3.12h-3.12v2h3.12v3.12h2v-3.12h3.12v-2h-3.12v-3.12Zm0-32h-2v3.12h-3.12v2h3.12v3.12h2v-3.12h3.12v-2h-3.12v-3.12Zm-12.23,12.23h-2v3.12h-3.12v2h3.12v3.12h2v-3.12h3.12v-2h-3.12v-3.12Zm0,39.54h-2v3.12h-3.12v2h3.12v3.12h2v-3.12h3.12v-2h-3.12v-3.12Zm0,39.53h-2v3.12h-3.12v2h3.12v3.12h2v-3.12h3.12v-2h-3.12v-3.12Zm12.23-19.77h-2v3.12h-3.12v2h3.12v3.12h2v-3.12h3.12v-2h-3.12v-3.12Zm59.3,19.77h-2v3.12h-3.12v2h3.12v3.12h2v-3.12h3.12v-2h-3.12v-3.12Zm19.77-170.37h-2v3.12h-3.12v2h3.12v3.12h2v-3.12h3.12v-2h-3.12v-3.12Zm0,39.54h-2v3.12h-3.12v2h3.12v3.12h2v-3.12h3.12v-2h-3.12v-3.12Zm91.3-400.04h-2v3.12h-3.12v2h3.12v3.12h2v-3.12h3.12v-2h-3.12v-3.12Zm-170.37,550.63h-2v3.12h-3.12v2h3.12v3.12h2v-3.12h3.12v-2h-3.12v-3.12Zm19.77-19.77h-2v3.12h-3.12v2h3.12v3.12h2v-3.12h3.12v-2h-3.12v-3.12Zm-111.06-79.07h-2v3.12h-3.12v2h3.12v3.12h2v-3.12h3.12v-2h-3.12v-3.12Zm19.77,59.3h-2v3.12h-3.12v2h3.12v3.12h2v-3.12h3.12v-2h-3.12v-3.12Zm19.76-130.83h-2v3.12h-3.12v2h3.12v3.12h2v-3.12h3.12v-2h-3.12v-3.12Zm0-39.53h-2v3.12h-3.12v2h3.12v3.12h2v-3.12h3.12v-2h-3.12v-3.12Zm-39.53,190.13h-2v3.12h-3.12v2h3.12v3.12h2v-3.12h3.12v-2h-3.12v-3.12Zm79.07-111.06h-2v3.12h-3.12v2h3.12v3.12h2v-3.12h3.12v-2h-3.12v-3.12Zm-79.07,71.53h-2v3.12h-3.12v2h3.12v3.12h2v-3.12h3.12v-2h-3.12v-3.12Zm170.37-51.76h-2v3.12h-3.12v2h3.12v3.12h2v-3.12h3.12v-2h-3.12v-3.12Zm-170.37-19.77h-2v3.12h-3.12v2h3.12v3.12h2v-3.12h3.12v-2h-3.12v-3.12Zm79.07-79.07h-2v3.12h-3.12v2h3.12v3.12h2v-3.12h3.12v-2h-3.12v-3.12Zm-39.54,79.07h-2v3.12h-3.12v2h3.12v3.12h2v-3.12h3.12v-2h-3.12v-3.12Zm19.77,130.83h-2v3.12h-3.12v2h3.12v3.12h2v-3.12h3.12v-2h-3.12v-3.12Zm19.77-170.37h-2v3.12h-3.12v2h3.12v3.12h2v-3.12h3.12v-2h-3.12v-3.12Zm-39.54,71.53h-2v3.12h-3.12v2h3.12v3.12h2v-3.12h3.12v-2h-3.12v-3.12Zm0,39.54h-2v3.12h-3.12v2h3.12v3.12h2v-3.12h3.12v-2h-3.12v-3.12Zm0,39.53h-2v3.12h-3.12v2h3.12v3.12h2v-3.12h3.12v-2h-3.12v-3.12Zm241.9-582.63h-2v3.12h-3.12v2h3.12v3.12h2v-3.12h3.12v-2h-3.12v-3.12Zm-19.77,582.63h-2v3.12h-3.12v2h3.12v3.12h2v-3.12h3.12v-2h-3.12v-3.12Zm19.77-511.1h-2v3.12h-3.12v2h3.12v3.12h2v-3.12h3.12v-2h-3.12v-3.12Zm0,39.53h-2v3.12h-3.12v2h3.12v3.12h2v-3.12h3.12v-2h-3.12v-3.12Zm0-71.53h-2v3.12h-3.12v2h3.12v3.12h2v-3.12h3.12v-2h-3.12v-3.12Zm-18.42,247.01h1.77v-2h-1.43c-.11.67-.22,1.34-.34,2Zm-263.01,145.48h-2v3.12h-3.12v2h3.12v3.12h2v-3.12h3.12v-2h-3.12v-3.12Zm281.43-471.57h-2v3.12h-3.12v2h3.12v3.12h2v-3.12h3.12v-2h-3.12v-3.12Zm0,190.13h-2v3.12h-3.12v2h3.12v3.12h2v-3.12h3.12v-2h-3.12v-3.12Zm0,39.54h-2v3.12h-3.12v2h3.12v3.12h2v-3.12h3.12v-2h-3.12v-3.12Zm0,222.13h-2v3.12h-3.12v2h3.12v3.12h2v-3.12h3.12v-2h-3.12v-3.12Zm0-71.53h-2v3.12h-3.12v2h3.12v3.12h2v-3.12h3.12v-2h-3.12v-3.12Zm0,32h-2v3.12h-3.12v2h3.12v3.12h2v-3.12h3.12v-2h-3.12v-3.12Zm0-150.6h-2v3.12h-3.12v2h3.12v3.12h2v-3.12h3.12v-2h-3.12v-3.12Zm0,39.53h-2v3.12h-3.12v2h3.12v3.12h2v-3.12h3.12v-2h-3.12v-3.12Zm0,39.54h-2v3.12h-3.12v2h3.12v3.12h2v-3.12h3.12v-2h-3.12v-3.12Zm-91.3,130.83h-2v3.12h-3.12v2h3.12v3.12h2v-3.12h3.12v-2h-3.12v-3.12Zm-19.76,91.3h-2v3.12h-3.12v2h3.12v3.12h2v-3.12h3.12v-2h-3.12v-3.12Zm19.76-51.76h-2v3.12h-3.12v2h3.12v3.12h2v-3.12h3.12v-2h-3.12v-3.12Zm0,32h-2v3.12h-3.12v2h3.12v3.12h2v-3.12h3.12v-2h-3.12v-3.12Zm-19.76,59.3h-2v3.12h-3.12v2h3.12v3.12h2v-3.12h3.12v-2h-3.12v-3.12Zm19.76-19.77h-2v3.12h-3.12v2h3.12v3.12h2v-3.12h3.12v-2h-3.12v-3.12Zm0-150.6h-2v3.12h-3.12v2h3.12v3.12h2v-3.12h3.12v-2h-3.12v-3.12Zm-19.76,209.9h-2v3.12h-3.12v2h3.12v3.12h2v-3.12h3.12v-2h-3.12v-3.12Zm59.3-19.77h-2v3.12h-3.12v2h3.12v3.12h2v-3.12h3.12v-2h-3.12v-3.12Zm0-228.8c-.66.73-1.33,1.44-2,2.16v.09h-.09c-.64.67-1.28,1.34-1.94,2h2.02v3.12h2v-3.12h3.12v-2h-3.12v-2.25Zm12.23,209.03h-2v3.12h-3.12v2h3.12v3.12h2v-3.12h3.12v-2h-3.12v-3.12Zm-51.76,19.77h-2v3.12h-3.12v2h3.12v3.12h2v-3.12h3.12v-2h-3.12v-3.12Zm51.76-241.9h-1.7c-.1.14-.2.27-.3.41v2.71h-1.98c-.38.5-.75,1.01-1.14,1.51v.49h3.12v3.12h2v-3.12h3.12v-2h-3.12v-3.12Zm-32,32h-1.33c-.22.16-.45.32-.67.48v2.64h-3.12v2h3.12v3.12h2v-3.12h3.12v-2h-3.12v-3.12Zm0,190.13h-2v3.12h-3.12v2h3.12v3.12h2v-3.12h3.12v-2h-3.12v-3.12Zm32-491.33h-2v3.12h-3.12v2h3.12v3.12h2v-3.12h3.12v-2h-3.12v-3.12Zm-71.53-150.6h-2v3.12h-3.12v2h3.12v3.12h2v-3.12h3.12v-2h-3.12v-3.12Zm-19.77,98.84h-2v3.12h-3.12v2h3.12v3.12h2v-3.12h3.12v-2h-3.12v-3.12Zm0,32h-2v3.12h-3.12v2h3.12v3.12h2v-3.12h3.12v-2h-3.12v-3.12Zm0,39.54h-2v3.12h-3.12v2h3.12v3.12h2v-3.12h3.12v-2h-3.12v-3.12Zm19.77-51.76h-2v3.12h-3.12v2h3.12v3.12h2v-3.12h3.12v-2h-3.12v-3.12Zm0-39.54h-2v3.12h-3.12v2h3.12v3.12h2v-3.12h3.12v-2h-3.12v-3.12Zm0-39.54h-2v3.12h-3.12v2h3.12v3.12h2v-3.12h3.12v-2h-3.12v-3.12Zm-39.54-39.53h-2v3.12h-3.12v2h3.12v3.12h2v-3.12h3.12v-2h-3.12v-3.12Zm-19.77,130.83h-2v3.12h-3.12v2h3.12v3.12h2v-3.12h3.12v-2h-3.12v-3.12Zm0-32h-2v3.12h-3.12v2h3.12v3.12h2v-3.12h3.12v-2h-3.12v-3.12Zm0-39.54h-2v3.12h-3.12v2h3.12v3.12h2v-3.12h3.12v-2h-3.12v-3.12Zm0,111.07h-2v3.12h-3.12v2h3.12v3.12h2v-3.12h3.12v-2h-3.12v-3.12Zm0-150.6h-2v3.12h-3.12v2h3.12v3.12h2v-3.12h3.12v-2h-3.12v-3.12Zm39.54,39.53h-2v3.12h-3.12v2h3.12v3.12h2v-3.12h3.12v-2h-3.12v-3.12Zm19.77,91.3h-2v3.12h-3.12v2h3.12v3.12h2v-3.12h3.12v-2h-3.12v-3.12Zm-19.77-130.83h-2v3.12h-3.12v2h3.12v3.12h2v-3.12h3.12v-2h-3.12v-3.12Zm91.3,170.37h-2v3.12h-3.12v2h3.12v3.12h2v-3.12h3.12v-2h-3.12v-3.12Zm0,39.54h-2v3.12h-3.12v2h3.12v3.12h2v-3.12h3.12v-2h-3.12v-3.12Zm39.54,301.2h-2v3.12h-3.12v2h3.12v3.12h2v-3.12h3.12v-2h-3.12v-3.12Zm-19.77-511.1h-2v3.12h-3.12v2h3.12v3.12h2v-3.12h3.12v-2h-3.12v-3.12Zm0,79.07h-2v3.12h-3.12v2h3.12v3.12h2v-3.12h3.12v-2h-3.12v-3.12Zm-19.77,19.77h-2v3.12h-3.12v2h3.12v3.12h2v-3.12h3.12v-2h-3.12v-3.12Zm19.77-59.3h-2v3.12h-3.12v2h3.12v3.12h2v-3.12h3.12v-2h-3.12v-3.12Zm-19.77,19.77h-2v3.12h-3.12v2h3.12v3.12h2v-3.12h3.12v-2h-3.12v-3.12Zm-51.76-59.3h-2v3.12h-3.12v2h3.12v3.12h2v-3.12h3.12v-2h-3.12v-3.12Zm-190.13,451.8h-2v3.12h-3.12v2h3.12v3.12h2v-3.12h3.12v-2h-3.12v-3.12Zm190.13-261.67h-2v3.12h-3.12v2h3.12v2.52c.4.2.8.4,1.21.6h.79v-3.12h3.12v-2h-3.12v-3.12Zm51.76-170.37h-2v3.12h-3.12v2h3.12v3.12h2v-3.12h3.12v-2h-3.12v-3.12Zm-71.53,150.6h-2v3.12h-3.12v2h3.12v3.12h2v-3.12h3.12v-2h-3.12v-3.12Zm59.3-170.37h-2v3.12h-3.12v2h3.12v3.12h2v-3.12h3.12v-2h-3.12v-3.12Zm-19.77,19.77h-2v3.12h-3.12v2h3.12v3.12h2v-3.12h3.12v-2h-3.12v-3.12Zm-190.13,79.07h-2v3.12h-3.12v2h3.12v3.12h2v-3.12h3.12v-2h-3.12v-3.12Zm0,32h-2v3.12h-3.12v2h3.12v3.12h2v-3.12h3.12v-2h-3.12v-3.12Zm0,79.07h-2v3.12h-3.12v2h3.12v3.12h2v-3.12h3.12v-2h-3.12v-3.12Zm0-39.54h-2v3.12h-3.12v2h3.12v3.12h2v-3.12h3.12v-2h-3.12v-3.12Zm19.76-91.3h-2v3.12h-3.12v2h3.12v3.12h2v-3.12h3.12v-2h-3.12v-3.12Zm0-39.54h-2v3.12h-3.12v2h3.12v3.12h2v-3.12h3.12v-2h-3.12v-3.12Zm0-39.53h-2v3.12h-3.12v2h3.12v3.12h2v-3.12h3.12v-2h-3.12v-3.12Zm-39.53,380.27h-2v3.12h-3.12v2h3.12v3.12h2v-3.12h3.12v-2h-3.12v-3.12Zm39.53-269.2h-2v3.12h-3.12v2h3.12v3.12h2v-3.12h3.12v-2h-3.12v-3.12Zm-19.76-51.76h-2v3.12h-3.12v2h3.12v3.12h2v-3.12h3.12v-2h-3.12v-3.12Zm-19.77,202.36h-2v3.12h-3.12v2h3.12v3.12h2v-3.12h2.4c.24-.55.47-1.09.72-1.64v-.36h-3.12v-3.12Zm0,150.6h-2v3.12h-3.12v2h3.12v3.12h2v-3.12h3.12v-2h-3.12v-3.12Zm0-412.26h-2v3.12h-3.12v2h3.12v3.12h2v-3.12h3.12v-2h-3.12v-3.12Zm19.77,19.77h-2v3.12h-3.12v2h3.12v3.12h2v-3.12h3.12v-2h-3.12v-3.12Zm39.53-39.53h-2v3.12h-3.12v2h3.12v3.12h2v-3.12h3.12v-2h-3.12v-3.12Zm0,190.13h-2v3.12h-3.12v2h3.12v3.12h2v-3.12h3.12v-2h-3.12v-3.12Zm32-150.6h-2v3.12h-3.12v2h3.12v3.12h2v-3.12h3.12v-2h-3.12v-3.12Zm-12.23-19.77h-2v3.12h-3.12v2h3.12v3.12h2v-3.12h3.12v-2h-3.12v-3.12Zm12.23-19.77h-2v3.12h-3.12v2h3.12v3.12h2v-3.12h3.12v-2h-3.12v-3.12Zm-51.76,170.37h-2v3.12h-3.12v2h3.12v3.12h2v-3.12h3.12v-2h-3.12v-3.12Zm51.76-51.76h-2v3.12h-3.12v2h3.12v3.12h2v-3.12h3.12v-2h-3.12v-3.12Zm0-39.54h-2v3.12h-3.12v2h3.12v3.12h2v-3.12h3.12v-2h-3.12v-3.12Zm0,71.53h-2v3.12h-3.12v2h3.12v3.12h2v-3.12h3.12v-2h-3.12v-3.12Zm-32-111.07h-2v3.12h-3.12v2h3.12v3.12h2v-3.12h3.12v-2h-3.12v-3.12Zm0,111.07h-2v3.12h-3.12v2h3.12v3.12h2v-3.12h3.12v-2h-3.12v-3.12Zm-19.77,59.3h-2v3.12h-3.12v2h3.12v3.12h2v-3.12h3.12v-2h-3.12v-3.12Zm51.76-19.77h-2v3.12h-3.12v2h3.12v3.12h2v-3.12h3.12v-2h-3.12v-3.12Zm-32-71.53h-2v3.12h-3.12v2h3.12v3.12h2v-3.12h3.12v-2h-3.12v-3.12Zm0-39.54h-2v3.12h-3.12v2h3.12v3.12h2v-3.12h3.12v-2h-3.12v-3.12Zm71.53,602.4h-2v3.12h-3.12v2h3.12v3.12h2v-3.12h3.12v-2h-3.12v-3.12Zm261.66-491.33h-2v3.12h-3.12v2h3.12v3.12h2v-3.12h3.12v-2h-3.12v-3.12Zm0,39.54h-2v3.12h-3.12v2h3.12v3.12h2v-3.12h3.12v-2h-3.12v-3.12Zm-32,301.2h-2v3.12h-3.12v2h3.12v3.12h2v-3.12h3.12v-2h-3.12v-3.12Zm19.77,51.76h-2v3.12h-3.12v2h3.12v3.12h2v-3.12h3.12v-2h-3.12v-3.12Zm12.23-281.43h-2v3.12h-3.12v2h3.12v3.12h2v-3.12h3.12v-2h-3.12v-3.12Zm0-150.6h-2v3.12h-3.12v2h3.12v3.12h2v-3.12h3.12v-2h-3.12v-3.12Zm0-32h-2v3.12h-3.12v2h3.12v3.12h2v-3.12h3.12v-2h-3.12v-3.12Zm0,222.13h-2v3.12h-3.12v2h3.12v3.12h2v-3.12h3.12v-2h-3.12v-3.12Zm0,190.13h-2v3.12h-3.12v2h3.12v3.12h2v-3.12h3.12v-2h-3.12v-3.12Zm0-39.54h-2v3.12h-3.12v2h3.12v3.12h2v-3.12h3.12v-2h-3.12v-3.12Zm-12.23,59.3h-2v3.12h-3.12v2h3.12v3.12h2v-3.12h3.12v-2h-3.12v-3.12Zm12.23,19.77h-2v3.12h-3.12v2h3.12v3.12h2v-3.12h3.12v-2h-3.12v-3.12Zm0-118.6h-2v3.12h-3.12v2h3.12v3.12h2v-3.12h3.12v-2h-3.12v-3.12Zm0-71.53h-2v3.12h-3.12v2h3.12v3.12h2v-3.12h3.12v-2h-3.12v-3.12Zm0,39.54h-2v3.12h-3.12v2h3.12v3.12h2v-3.12h3.12v-2h-3.12v-3.12Zm-12.23,51.76h-2v3.12h-3.12v2h3.12v3.12h2v-3.12h3.12v-2h-3.12v-3.12Zm0-222.13h-2v3.12h-3.12v2h3.12v3.12h2v-3.12h3.12v-2h-3.12v-3.12Zm0-79.07h-2v3.12h-3.12v2h3.12v3.12h2v-3.12h3.12v-2h-3.12v-3.12Zm0,39.53h-2v3.12h-3.12v2h3.12v3.12h2v-3.12h3.12v-2h-3.12v-3.12Zm0-79.07h-2v3.12h-3.12v2h3.12v3.12h2v-3.12h3.12v-2h-3.12v-3.12Zm0-32h-2v3.12h-3.12v2h3.12v3.12h2v-3.12h3.12v-2h-3.12v-3.12Zm-19.77,471.57h-2v3.12h-3.12v2h3.12v3.12h2v-3.12h3.12v-2h-3.12v-3.12Zm0,32h-2v3.12h-3.12v2h3.12v3.12h2v-3.12h3.12v-2h-3.12v-3.12Zm19.77-170.37h-2v3.12h-3.12v2h3.12v3.12h2v-3.12h3.12v-2h-3.12v-3.12Zm0-150.6h-2v3.12h-3.12v2h3.12v3.12h2v-3.12h3.12v-2h-3.12v-3.12Zm0,118.6h-2v3.12h-3.12v2h3.12v3.12h2v-3.12h3.12v-2h-3.12v-3.12Zm30-260.97h2v-3.12h.56c-.84-1.15-1.7-2.29-2.56-3.43v1.43h-3.12v2h3.12v3.12Zm-30,372.03h-2v3.12h-3.12v2h3.12v3.12h2v-3.12h3.12v-2h-3.12v-3.12Zm0-190.13h-2v3.12h-3.12v2h3.12v3.12h2v-3.12h3.12v-2h-3.12v-3.12Zm0,39.53h-2v3.12h-3.12v2h3.12v3.12h2v-3.12h3.12v-2h-3.12v-3.12Zm12.23-91.3h-2v3.12h-3.12v2h3.12v3.12h2v-3.12h3.12v-2h-3.12v-3.12Zm59.3-19.77h-2v3.12h-3.12v2h3.12v3.12h2v-3.12h3.12v-2h-3.12v-3.12Zm0-39.54h-2v3.12h-3.12v2h3.12v3.12h2v-3.12h3.12v-2h-3.12v-3.12Zm-39.54-39.53h-2v3.12h-3.12v2h3.12v3.12h2v-3.12h3.12v-2h-3.12v-3.12Zm39.54,150.6h-2v3.12h-3.12v2h3.12v3.12h2v-3.12h3.12v-2h-3.12v-3.12Zm-19.77,98.84h-2v3.12h-3.12v2h3.12v3.12h2v-3.12h3.12v-2h-3.12v-3.12Zm0,71.53h-2v3.12h-3.12v2h3.12v3.12h2v-3.12h3.12v-2h-3.12v-3.12Zm0-39.53h-2v3.12h-3.12v2h3.12v3.12h2v-3.12h3.12v-2h-3.12v-3.12Zm19.77,19.77h-2v3.12h-3.12v2h3.12v3.12h2v-3.12h3.12v-2h-3.12v-3.12Zm19.77-130.83h-2v3.12h-3.12v2h3.12v3.12h2v-3.12h3.12v-2h-3.12v-3.12Zm0,79.07h-2v3.12h-3.12v2h3.12v3.12h1.91c.03-.12.06-.24.09-.36v-2.76h.65c.15-.67.3-1.33.45-2h-1.11v-3.12Zm0-39.54h-2v3.12h-3.12v2h3.12v3.12h2v-3.12h3.12v-2h-3.12v-3.12Zm-39.54,0h-2v3.12h-3.12v2h3.12v3.12h2v-3.12h3.12v-2h-3.12v-3.12Zm19.77-19.77h-2v3.12h-3.12v2h3.12v3.12h2v-3.12h3.12v-2h-3.12v-3.12Zm0,39.54h-2v3.12h-3.12v2h3.12v3.12h2v-3.12h3.12v-2h-3.12v-3.12Zm0,32h-2v3.12h-3.12v2h3.12v3.12h2v-3.12h3.12v-2h-3.12v-3.12Zm0-150.6h-2v3.12h-3.12v2h3.12v3.12h2v-3.12h3.12v-2h-3.12v-3.12Zm-39.54,39.54h-2v3.12h-3.12v2h3.12v3.12h2v-3.12h3.12v-2h-3.12v-3.12Zm0,39.53h-2v3.12h-3.12v2h3.12v3.12h2v-3.12h3.12v-2h-3.12v-3.12Zm0,71.53h-2v3.12h-3.12v2h3.12v3.12h2v-3.12h3.12v-2h-3.12v-3.12Zm0-32h-2v3.12h-3.12v2h3.12v3.12h2v-3.12h3.12v-2h-3.12v-3.12Zm19.77-59.3h-2v3.12h-3.12v2h3.12v3.12h2v-3.12h3.12v-2h-3.12v-3.12Zm-19.77-59.3h-2v3.12h-3.12v2h3.12v3.12h2v-3.12h3.12v-2h-3.12v-3.12Zm0-32h-2v3.12h-3.12v2h3.12v3.12h2v-3.12h3.12v-2h-3.12v-3.12Zm0-39.54h-2v3.12h-3.12v2h3.12v3.12h2v-3.12h3.12v-2h-3.12v-3.12Zm19.77,19.77h-2v3.12h-3.12v2h3.12v3.12h2v-3.12h3.12v-2h-3.12v-3.12Zm0,39.54h-2v3.12h-3.12v2h3.12v3.12h2v-3.12h3.12v-2h-3.12v-3.12Zm-19.77,202.36h-2v3.12h-3.12v2h3.12v3.12h2v-3.12h3.12v-2h-3.12v-3.12Zm19.77-170.37h-2v3.12h-3.12v2h3.12v3.12h2v-3.12h3.12v-2h-3.12v-3.12Zm0-111.07h-2v3.12h-3.12v2h3.12v3.12h2v-3.12h3.12v-2h-3.12v-3.12Zm-19.77,320.97h-2v3.12h-3.12v2h3.12v3.12h2v-3.12h3.12v-2h-3.12v-3.12Zm-130.83,130.83h-2v3.12h-3.12v2h3.12v3.12h2v-3.12h3.12v-2h-3.12v-3.12Zm39.54-523.33h-2v3.12h-3.12v2h3.12v3.12h2v-3.12h3.12v-2h-3.12v-3.12Zm0-39.54h-2v3.12h-3.12v2h3.12v3.12h2v-3.12h3.12v-2h-3.12v-3.12Zm0,111.06h-2v3.12h-3.12v2h3.12v3.12h2v-3.12h3.12v-2h-3.12v-3.12Zm0-39.53h-2v3.12h-3.12v2h3.12v3.12h2v-3.12h3.12v-2h-3.12v-3.12Zm-19.77,400.04h-2v3.12h-3.12v2h3.12v3.12h2v-3.12h3.12v-2h-3.12v-3.12Zm0,32h-2v3.12h-3.12v2h3.12v3.12h2v-3.12h3.12v-2h-3.12v-3.12Zm0,39.54h-2v3.12h-3.12v2h3.12v3.12h2v-3.12h3.12v-2h-3.12v-3.12Zm19.77-241.9h-2v3.12h-3.12v2h3.12v3.12h2v-3.12h3.12v-2h-3.12v-3.12Zm0,39.54h-2v3.12h-3.12v2h3.12v3.12h2v-3.12h3.12v-2h-3.12v-3.12Zm0,32h-2v3.12h-3.12v2h3.12v3.12h2v-3.12h3.12v-2h-3.12v-3.12Zm-19.77,59.3h-2v3.12h-3.12v2h3.12v3.12h2v-3.12h3.12v-2h-3.12v-3.12Zm19.77-209.9h-2v3.12h-3.12v2h3.12v3.12h2v-3.12h3.12v-2h-3.12v-3.12Zm0-32h-2v3.12h-3.12v2h3.12v3.12h2v-3.12h3.12v-2h-3.12v-3.12Zm0,71.53h-2v3.12h-3.12v2h3.12v3.12h2v-3.12h3.12v-2h-3.12v-3.12Zm0-111.06h-2v3.12h-3.12v2h3.12v3.12h2v-3.12h3.12v-2h-3.12v-3.12Zm-19.77-98.84h-2v3.12h-3.12v2h3.12v3.12h2v-3.12h3.12v-2h-3.12v-3.12Zm0-32h-2v3.12h-3.12v2h3.12v3.12h2v-3.12h3.12v-2h-3.12v-3.12Zm19.77,392.5h-2v3.12h-3.12v2h3.12v3.12h2v-3.12h3.12v-2h-3.12v-3.12Zm-19.77-320.96h-2v3.12h-3.12v2h3.12v3.12h2v-3.12h3.12v-2h-3.12v-3.12Zm0,39.53h-2v3.12h-3.12v2h3.12v3.12h2v-3.12h3.12v-2h-3.12v-3.12Zm-19.77,392.5h-2v3.12h-3.12v2h3.12v3.12h2v-3.12h3.12v-2h-3.12v-3.12Zm79.07-111.07h-2v3.12h-3.12v2h3.12v3.12h2v-3.12h3.12v-2h-3.12v-3.12Zm-79.07,79.07h-2v3.12h-3.12v2h3.12v3.12h2v-3.12h3.12v-2h-3.12v-3.12Zm19.77-511.1h-2v3.12h-3.12v2h3.12v3.12h2v-3.12h3.12v-2h-3.12v-3.12Zm0,340.73h-2v3.12h-3.12v2h3.12v3.12h2v-3.12h3.12v-2h-3.12v-3.12Zm0-39.54h-2v3.12h-3.12v2h3.12v3.12h2v-3.12h3.12v-2h-3.12v-3.12Zm0,71.53h-2v3.12h-3.12v2h3.12v3.12h2v-3.12h3.12v-2h-3.12v-3.12Zm0-182.6h-2v3.12h-3.12v2h3.12v3.12h2v-3.12h3.12v-2h-3.12v-3.12Zm0,32h-2v3.12h-3.12v2h3.12v3.12h2v-3.12h3.12v-2h-3.12v-3.12Zm0,39.54h-2v3.12h-3.12v2h3.12v3.12h2v-3.12h3.12v-2h-3.12v-3.12Zm0,150.6h-2v3.12h-3.12v2h3.12v3.12h2v-3.12h3.12v-2h-3.12v-3.12Zm59.3-320.97h-2v3.12h-3.12v2h3.12v3.12h2v-3.12h3.12v-2h-3.12v-3.12Zm0-32h-2v3.12h-3.12v2h3.12v3.12h2v-3.12h3.12v-2h-3.12v-3.12Zm-39.53,412.26h-2v3.12h-3.12v2h3.12v3.12h2v-3.12h3.12v-2h-3.12v-3.12Zm19.76,19.77h-2v3.12h-3.12v2h3.12v3.12h2v-3.12h3.12v-2h-3.12v-3.12Zm19.77-320.97h-2v3.12h-3.12v2h3.12v3.12h2v-3.12h3.12v-2h-3.12v-3.12Zm-19.77,352.96h-2v3.12h-3.12v2h3.12v3.12h2v-3.12h3.12v-2h-3.12v-3.12Zm19.77-503.56h-2v3.12h-3.12v2h3.12v3.12h2v-3.12h3.12v-2h-3.12v-3.12Zm0,301.2h-2v3.12h-3.12v2h3.12v3.12h2v-3.12h3.12v-2h-3.12v-3.12Zm-19.77,130.83h-2v3.12h-3.12v2h3.12v3.12h2v-3.12h3.12v-2h-3.12v-3.12Zm19.77-91.3h-2v3.12h-3.12v2h3.12v3.12h2v-3.12h3.12v-2h-3.12v-3.12Zm0,32h-2v3.12h-3.12v2h3.12v3.12h2v-3.12h3.12v-2h-3.12v-3.12Zm0-111.07h-2v3.12h-3.12v2h3.12v3.12h2v-3.12h3.12v-2h-3.12v-3.12Zm0-71.53h-2v3.12h-3.12v2h3.12v3.12h2v-3.12h3.12v-2h-3.12v-3.12Zm0,32h-2v3.12h-3.12v2h3.12v3.12h2v-3.12h3.12v-2h-3.12v-3.12Zm0-111.07h-2v3.12h-3.12v2h3.12v3.12h2v-3.12h3.12v-2h-3.12v-3.12Zm-19.77-91.3h-2v3.12h-3.12v2h3.12v3.12h2v-3.12h3.12v-2h-3.12v-3.12Zm0,32h-2v3.12h-3.12v2h3.12v3.12h2v-3.12h3.12v-2h-3.12v-3.12Zm0,39.54h-2v3.12h-3.12v2h3.12v3.12h2v-3.12h3.12v-2h-3.12v-3.12Zm-19.76,432.03h-2v3.12h-3.12v2h3.12v3.12h2v-3.12h3.12v-2h-3.12v-3.12Zm0-32h-2v3.12h-3.12v2h3.12v3.12h2v-3.12h3.12v-2h-3.12v-3.12Zm19.76-360.5h-2v3.12h-3.12v2h3.12v3.12h2v-3.12h3.12v-2h-3.12v-3.12Zm-2-142.36h2v-3.12h1.9c-1.29-.99-2.59-1.97-3.9-2.94v.94h-3.12v2h3.12v3.12Zm2,404.03h-2v3.12h-3.12v2h3.12v3.12h2v-3.12h3.12v-2h-3.12v-3.12Zm0-222.13h-2v3.12h-3.12v2h3.12v3.12h2v-3.12h3.12v-2h-3.12v-3.12Zm0,111.06h-2v3.12h-3.12v2h3.12v3.12h2v-3.12h3.12v-2h-3.12v-3.12Zm0,71.53h-2v3.12h-3.12v2h3.12v3.12h2v-3.12h3.12v-2h-3.12v-3.12Zm0-32h-2v3.12h-3.12v2h3.12v3.12h2v-3.12h3.12v-2h-3.12v-3.12Zm0-79.07h-2v3.12h-3.12v2h3.12v3.12h2v-3.12h3.12v-2h-3.12v-3.12Zm0-39.54h-2v3.12h-3.12v2h3.12v3.12h2v-3.12h3.12v-2h-3.12v-3.12Zm-340.73-71.53h-2v3.12h-3.12v2h3.12v3.12h2v-3.12h3.12v-2h-3.12v-3.12Zm-91.3-19.77h-2v3.12h-3.12v2h3.12v3.12h2v-3.12h3.12v-2h-3.12v-3.12Zm0-39.53h-2v3.12h-3.12v2h3.12v3.12h2v-3.12h3.12v-2h-3.12v-3.12Zm0-71.53h-2v3.12h-3.12v2h3.12v3.12h2v-3.12h3.12v-2h-3.12v-3.12Zm0,412.26h-2v3.12h-3.12v2h3.12v3.12h2v-3.12h3.12v-2h-3.12v-3.12Zm-19.77,59.3h-2v3.12h-3.12v2h3.12v3.12h2v-3.12h3.12v-2h-3.12v-3.12Zm0-79.07h-2v3.12h-3.12v2h3.12v3.12h2v-3.12h3.12v-2h-3.12v-3.12Zm0,39.53h-2v3.12h-3.12v2h3.12v3.12h2v-3.12h3.12v-2h-3.12v-3.12Zm19.77-130.83h-2v3.12h-3.12v2h3.12v3.12h2v-3.12h3.12v-2h-3.12v-3.12Zm0,39.54h-2v3.12h-3.12v2h3.12v3.12h2v-3.12h3.12v-2h-3.12v-3.12Zm-19.77,12.23h-2v3.12h-3.12v2h3.12v3.12h2v-3.12h3.12v-2h-3.12v-3.12Zm19.77,19.77h-2v3.12h-3.12v2h3.12v3.12h2v-3.12h3.12v-2h-3.12v-3.12Zm0-222.13h-2v3.12h-3.12v2h3.12v3.12h2v-3.12h3.12v-2h-3.12v-3.12Zm0,39.54h-2v3.12h-3.12v2h3.12v3.12h2v-3.12h3.12v-2h-3.12v-3.12Zm0,32h-2v3.12h-3.12v2h3.12v3.12h2v-3.12h3.12v-2h-3.12v-3.12Zm432.03,320.97h-2v3.12h-3.12v2h3.12v1.17c1.41-1.05,2.81-2.1,4.2-3.17h-2.2v-3.12ZM282.42,247.35h-2v3.12h-3.12v2h3.12v3.12h2v-3.12h3.12v-2h-3.12v-3.12Zm-19.77,464.03h-2v3.12h-3.12v2h3.12v3.12h2v-3.12h3.12v-2h-3.12v-3.12Zm49.76,60.26c.67.42,1.33.85,2,1.27v-2.22h-2v.96Zm-49.76-544.05h-2v3.12h-3.12v2h3.12v3.12h2v-3.12h3.12v-2h-3.12v-3.12Zm430.03,543.3c.11-.07.21-.14.32-.21h-.32v.21Zm-430.03-511.31h-2v3.12h-3.12v2h3.12v3.12h2v-3.12h3.12v-2h-3.12v-3.12Zm54.88,515.26v-1.04h-1.69c.56.35,1.13.69,1.69,1.04Zm266.08,35.38h-2v3.12h-3.12v2h3.12v2.43c.67-.15,1.33-.32,2-.47v-1.95h3.12v-2h-3.12v-3.12Zm-320.97-281.43h-2v3.12h-3.12v2h3.12v3.12h2v-3.12h3.12v-2h-3.12v-3.12Zm0-229.67h-2v3.12h-3.12v2h3.12v3.12h2v-3.12h3.12v-2h-3.12v-3.12Zm0,150.6h-2v3.12h-3.12v2h3.12v3.12h2v-3.12h3.12v-2h-3.12v-3.12Zm0,39.53h-2v3.12h-3.12v2h3.12v3.12h2v-3.12h3.12v-2h-3.12v-3.12Zm0-79.07h-2v3.12h-3.12v2h3.12v3.12h2v-3.12h3.12v-2h-3.12v-3.12Zm0-71.53h-2v3.12h-3.12v2h3.12v3.12h2v-3.12h3.12v-2h-3.12v-3.12Zm0,39.54h-2v3.12h-3.12v2h3.12v3.12h2v-3.12h3.12v-2h-3.12v-3.12Zm19.77,91.3h-2v3.12h-3.12v2h3.12v3.12h2v-3.12h3.12v-2h-3.12v-3.12Zm32-294.96c-.67.42-1.33.84-2,1.27v.73h2v-1.99Zm3.12-1.12v-.81c-.44.27-.88.54-1.32.81h1.32Zm-3.12,73.95h-2v3.12h-3.12v2h3.12v3.12h2v-3.12h3.12v-2h-3.12v-3.12Zm0-39.54h-2v3.12h-3.12v2h3.12v3.12h2v-3.12h3.12v-2h-3.12v-3.12Zm-12.23,471.57h-2v3.12h-3.12v2h3.12v3.12h2v-3.12h3.12v-2h-3.12v-3.12Zm0,71.53h-2v3.12h-3.12v2h3.12v3.12h2v-3.12h3.12v-2h-3.12v-3.12Zm0-39.54h-2v3.12h-3.12v2h3.12v3.12h2v-3.12h3.12v-2h-3.12v-3.12Zm12.23-352.96h-2v3.12h-3.12v2h3.12v3.12h2v-3.12h3.12v-2h-3.12v-3.12Zm0,71.53h-2v3.12h-3.12v2h3.12v3.12h2v-3.12h3.12v-2h-3.12v-3.12Zm0-150.6h-2v3.12h-3.12v2h3.12v3.12h2v-3.12h3.12v-2h-3.12v-3.12Zm0,229.67h-2v3.12h-3.12v2h3.12v3.12h2v-3.12h3.12v-2h-3.12v-3.12Zm0-39.54h-2v3.12h-3.12v2h3.12v3.12h2v-3.12h3.12v-2h-3.12v-3.12Zm0-150.6h-2v3.12h-3.12v2h3.12v3.12h2v-3.12h3.12v-2h-3.12v-3.12Zm0,79.07h-2v3.12h-3.12v2h3.12v3.12h2v-3.12h3.12v-2h-3.12v-3.12Zm-12.23,241.9h-2v3.12h-3.12v2h3.12v3.12h2v-3.12h3.12v-2h-3.12v-3.12Zm0-190.13h-2v3.12h-3.12v2h3.12v3.12h2v-3.12h3.12v-2h-3.12v-3.12Zm0-190.13h-2v3.12h-3.12v2h3.12v3.12h2v-3.12h3.12v-2h-3.12v-3.12Zm0-32h-2v3.12h-3.12v2h3.12v3.12h2v-3.12h3.12v-2h-3.12v-3.12Zm0,71.53h-2v3.12h-3.12v2h3.12v3.12h2v-3.12h3.12v-2h-3.12v-3.12Zm0-111.07h-2v3.12h-3.12v2h3.12v3.12h2v-3.12h3.12v-2h-3.12v-3.12Zm0,150.6h-2v3.12h-3.12v2h3.12v3.12h2v-3.12h3.12v-2h-3.12v-3.12Zm-19.77,360.5h-2v3.12h-3.12v2h3.12v3.12h2v-3.12h3.12v-2h-3.12v-3.12Zm0,32h-2v3.12h-3.12v2h3.12v3.12h2v-3.12h3.12v-2h-3.12v-3.12Zm19.77-170.37h-2v3.12h-3.12v2h3.12v3.12h2v-3.12h3.12v-2h-3.12v-3.12Zm0-32h-2v3.12h-3.12v2h3.12v3.12h2v-3.12h3.12v-2h-3.12v-3.12Zm0-39.54h-2v3.12h-3.12v2h3.12v3.12h2v-3.12h3.12v-2h-3.12v-3.12Zm0-111.06h-2v3.12h-3.12v2h3.12v3.12h2v-3.12h3.12v-2h-3.12v-3.12Zm0,222.13h-2v3.12h-3.12v2h3.12v3.12h2v-3.12h3.12v-2h-3.12v-3.12Zm-19.77,59.3h-2v3.12h-3.12v2h3.12v3.12h2v-3.12h3.12v-2h-3.12v-3.12Zm19.77-249.44h-2v3.12h-3.12v2h3.12v3.12h2v-3.12h3.12v-2h-3.12v-3.12Zm-150.6,79.07h-2v3.12h-.21c.03.67.08,1.33.11,2h.09v1.63c.03.5.07.99.1,1.49h1.9v-3.12h3.12v-2h-3.12v-3.12Zm12.23-59.3h-2v3.12h-3.12v2h3.12v3.12h2v-3.12h3.12v-2h-3.12v-3.12Zm-10.11-14.65h1v-2h-.66c-.11.67-.23,1.33-.34,2Zm10.11-17.35h-2v3.12h-3.12v2h3.12v3.12h2v-3.12h3.12v-2h-3.12v-3.12Zm-9.81,135.95h.7v-2h-1.04c.11.67.23,1.33.34,2Zm12.92,51.51v-1.75h-.58c.19.58.39,1.17.58,1.75Zm38.05,79.32h1.49v-2h-2.77c.42.67.85,1.33,1.28,2Zm-1.63-2.56v-2.56h-1.61c.53.86,1.07,1.71,1.61,2.56Zm-36.42-298.64v-1.52c-.17.51-.34,1.01-.5,1.52h.5Zm16.65,14.65h-2v3.12h-3.12v2h3.12v3.12h2v-3.12h3.12v-2h-3.12v-3.12Zm0-39.54h-2v3.12h-3.12v2h3.12v3.12h2v-3.12h3.12v-2h-3.12v-3.12Zm0,111.07h-2v3.12h-3.12v2h3.12v3.12h2v-3.12h3.12v-2h-3.12v-3.12Zm39.54,229.67h-2v3.12h-3.12v1.06c.23.31.46.63.69.94h2.42v3.12h2v-3.12h3.12v-2h-3.12v-3.12Zm-59.3-170.37h-2v3.12h-3.12v2h3.12v3.12h2v-3.12h3.12v-2h-3.12v-3.12Zm0-39.54h-2v3.12h-3.12v2h3.12v3.12h2v-3.12h3.12v-2h-3.12v-3.12Zm0,79.07h-2v3.12h-3.12v2h3.12v3.12h2v-3.12h3.12v-2h-3.12v-3.12Zm19.77-138.37h-2v3.12h-3.12v2h3.12v3.12h2v-3.12h3.12v-2h-3.12v-3.12Zm59.3,249.44h-2v3.12h-3.12v2h3.12v3.12h2v-3.12h3.12v-2h-3.12v-3.12Zm0-111.06h-2v3.12h-3.12v2h3.12v3.12h2v-3.12h3.12v-2h-3.12v-3.12Zm0,32h-2v3.12h-3.12v2h3.12v3.12h2v-3.12h3.12v-2h-3.12v-3.12Zm0,39.53h-2v3.12h-3.12v2h3.12v3.12h2v-3.12h3.12v-2h-3.12v-3.12Zm-19.77-360.5h-1.9s-.07.09-.1.13v2.98h-2.25c-.29.39-.58.78-.86,1.17v.83h3.12v3.12h2v-3.12h3.12v-2h-3.12v-3.12Zm412.26,39.54h-2v3.12h-3.12v2h3.12v3.12h2v-3.12h3.12v-2h-3.12v-3.12Zm-392.5-51.76h-2v3.12h-3.12v2h3.12v3.12h2v-3.12h3.12v-2h-3.12v-3.12Zm0,111.06h-2v3.12h-3.12v2h3.12v3.12h2v-3.12h3.12v-2h-3.12v-3.12Zm0,39.54h-2v3.12h-3.12v2h3.12v3.12h2v-3.12h3.12v-2h-3.12v-3.12Zm0,111.06h-2v3.12h-3.12v2h3.12v3.12h2v-3.12h3.12v-2h-3.12v-3.12Zm0-190.13h-2v3.12h-3.12v2h3.12v3.12h2v-3.12h3.12v-2h-3.12v-3.12Zm0-39.53h-2v3.12h-3.12v2h3.12v3.12h2v-3.12h3.12v-2h-3.12v-3.12Zm0,190.13h-2v3.12h-3.12v2h3.12v3.12h2v-3.12h3.12v-2h-3.12v-3.12Zm0-39.53h-2v3.12h-3.12v2h3.12v3.12h2v-3.12h3.12v-2h-3.12v-3.12Zm-59.3,59.3h-2v3.12h-3.12v2h3.12v3.12h2v-3.12h3.12v-2h-3.12v-3.12Zm39.54,39.54h-2v3.12h-3.12v2h3.12v3.12h2v-3.12h3.12v-2h-3.12v-3.12Zm0-39.54h-2v3.12h-3.12v2h3.12v3.12h2v-3.12h3.12v-2h-3.12v-3.12Zm0,71.53h-2v3.12h-3.12v2h3.12v3.12h2v-3.12h3.12v-2h-3.12v-3.12Zm0,39.54h-2v3.12h-3.12v2h3.12v3.12h2v-3.12h3.12v-2h-3.12v-3.12Zm0-150.6h-2v3.12h-3.12v2h3.12v3.12h2v-3.12h3.12v-2h-3.12v-3.12Zm0-71.53h-2v3.12h-3.12v2h3.12v3.12h2v-3.12h3.12v-2h-3.12v-3.12Zm0,32h-2v3.12h-3.12v2h3.12v3.12h2v-3.12h3.12v-2h-3.12v-3.12Zm0,229.67h-2v3.12h-3.12v2h3.12v3.12h2v-3.12h3.12v-2h-3.12v-3.12Zm620.17-233.66h2v-3.12h2.68c-.14-.67-.28-1.33-.42-2h-2.26v-3.12h-2v3.12h-3.12v2h3.12v3.12Zm-528.87,142.36h-2v3.12h-3.12v2h3.12v3.12h2v-3.12h3.12v-2h-3.12v-3.12Zm-91.3-209.9h-2v3.12h-3.12v2h3.12v3.12h2v-3.12h3.12v-2h-3.12v-3.12Zm622.17,94.42v-3.12h-2v3.12h-3.12v2h3.12v3.12h2v-3.12h3.12v-2h-3.12Zm-693.7,16.65h-1.89c-.04.57-.08,1.14-.11,1.72v1.4h-.08c-.04.67-.08,1.33-.11,2h.19v3.12h2v-3.12h3.12v-2h-3.12v-3.12Zm71.53-150.6h-2v3.12h-3.12v2h3.12v3.12h2v-3.12h3.12v-2h-3.12v-3.12Zm562.86,380.27h-2v3.12h-3.12v2h3.12v1.66c.92-1.21,1.82-2.43,2.73-3.66h-.73v-3.12ZM203.35,318.88h-2v3.12h-3.12v2h3.12v3.12h2v-3.12h3.12v-2h-3.12v-3.12Zm.5-34.42h2.62v-2h-1.34c-.43.67-.86,1.33-1.28,2Zm-.5,73.95h-2v3.12h-3.12v2h3.12v3.12h2v-3.12h3.12v-2h-3.12v-3.12Zm-19.77,241.9h-2v3.12h-3.12v2h3.12v3.12h2v-3.12h3.12v-2h-3.12v-3.12Zm0-71.53h-2v3.12h-3.12v2h3.12v3.12h2v-3.12h3.12v-2h-3.12v-3.12Zm19.77-130.83h-2v3.12h-3.12v2h3.12v3.12h2v-3.12h3.12v-2h-3.12v-3.12Zm-19.77,162.83h-2v3.12h-3.12v2h3.12v3.12h2v-3.12h3.12v-2h-3.12v-3.12Zm19.77-275.53c-.49.78-.98,1.55-1.46,2.33h1.46v-2.33Zm0,295.29h-2v3.12h-3.12v2h3.12v3.12h2v-3.12h3.12v-2h-3.12v-3.12Zm0,39.53h-2v3.12h-3.12v2h3.12v3.12h2v-3.12h3.12v-2h-3.12v-3.12Zm0-71.53h-2v3.12h-3.12v2h3.12v3.12h2v-3.12h3.12v-2h-3.12v-3.12Zm0-39.54h-2v3.12h-3.12v2h3.12v3.12h2v-3.12h3.12v-2h-3.12v-3.12Zm0-79.07h-2v3.12h-3.12v2h3.12v3.12h2v-3.12h3.12v-2h-3.12v-3.12Zm0,39.53h-2v3.12h-3.12v2h3.12v3.12h2v-3.12h3.12v-2h-3.12v-3.12Zm39.54,229.67h-2v3.12h-3.12v2h3.12v3.12h2v-3.12h3.12v-2h-3.12v-3.12Zm150.6-118.6h-2v3.12h-3.12v2h3.12v3.12h2v-3.12h3.12v-2h-3.12v-3.12Zm39.53,190.13h-2v3.12h-3.12v2h3.12v3.12h2v-3.12h3.12v-2h-3.12v-3.12Zm-41.53-213.89h2v-3.12h.33c-.79-1.01-1.57-2.04-2.33-3.07v1.07h-3.12v2h3.12v3.12Zm-17.77-329.2h-2v3.12h-3.12v2h3.12v3.12h2v-3.12h3.12v-2h-3.12v-3.12Zm59.3,432.03h-2v3.12h-3.12v2h3.12v3.12h2v-3.12h3.12v-2h-3.12v-3.12Zm0,71.53h-2v3.12h-3.12v2h3.12v3.12h2v-3.12h3.12v-2h-3.12v-3.12Zm0-32h-2v3.12h-3.12v2h3.12v3.12h2v-3.12h3.12v-2h-3.12v-3.12Zm-59.3-320.97h-2v3.12h-3.12v2h3.12v3.12h2v-3.12h3.12v-2h-3.12v-3.12Zm0-79.07h-2v3.12h-3.12v2h3.12v3.12h2v-3.12h3.12v-2h-3.12v-3.12Zm0-39.54h-2v3.12h-3.12v2h3.12v3.12h2v-3.12h3.12v-2h-3.12v-3.12Zm19.77,360.5h-2v3.12h-3.12v2h3.12v3.12h2v-3.12h3.12v-2h-3.12v-3.12Zm39.53,0h-2v3.12h-3.12v2h3.12v3.12h2v-3.12h3.12v-2h-3.12v-3.12Zm91.3,19.77h-2v3.12h-3.12v2h3.12v3.12h2v-3.12h3.12v-2h-3.12v-3.12Zm-130.83,59.3h-2v3.12h-3.12v2h3.12v3.12h2v-3.12h3.12v-2h-3.12v-3.12Zm0,32h-2v3.12h-3.12v2h3.12v3.12h2v-3.12h3.12v-2h-3.12v-3.12Zm34.41-146.33v.84h1.31c-.44-.28-.87-.56-1.31-.84Zm76.65,74.79h-2v3.12h-3.12v2h3.12v3.12h2v-3.12h3.12v-2h-3.12v-3.12Zm0-39.54h-2v3.12h-3.12v2h3.12v3.12h2v-3.12h3.12v-2h-3.12v-3.12Zm0,111.07h-2v3.12h-3.12v2h3.12v3.12h2v-3.12h3.12v-2h-3.12v-3.12Zm0-32h-2v3.12h-3.12v2h3.12v3.12h2v-3.12h3.12v-2h-3.12v-3.12Zm19.77-19.77h-2v3.12h-3.12v2h3.12v3.12h2v-3.12h3.12v-2h-3.12v-3.12Zm0,71.53h-2v3.12h-3.12v2h3.12v3.12h2v-3.12h3.12v-2h-3.12v-3.12Zm-209.9-170.37h-2v3.12h-3.12v2h3.12v3.12h2v-3.12h3.12v-2h-3.12v-3.12Zm190.13,190.13h-2v3.12h-3.12v2h3.12v3.12h2v-3.12h3.12v-2h-3.12v-3.12Zm-19.77-91.3h-2v3.12h-3.12v2h3.12v3.12h2v-3.12h3.12v-2h-3.12v-3.12Zm0,32h-2v3.12h-3.12v2h3.12v3.12h2v-3.12h3.12v-2h-3.12v-3.12Zm0,39.54h-2v3.12h-3.12v2h3.12v3.12h2v-3.12h3.12v-2h-3.12v-3.12Zm-2-142.36h2v-3.07c-1.72-.21-3.42-.47-5.12-.75v.7h3.12v3.12Zm2,31.3h-2v3.12h-3.12v2h3.12v3.12h2v-3.12h3.12v-2h-3.12v-3.12Zm-51.76-51.89c-.67-.39-1.34-.79-2-1.19v2.01h2v-.82Zm-39.53,71.65h-2v3.12h-3.12v2h3.12v3.12h2v-3.12h3.12v-2h-3.12v-3.12Zm209.9-360.5h-2v3.12h-3.12v2h3.12v3.12h2v-3.12h3.12v-2h-3.12v-3.12Zm0,39.53h-2v3.12h-3.12v2h3.12v3.12h2v-3.12h3.12v-2h-3.12v-3.12Zm-19.77-130.83h-2v3.12h-3.12v2h3.12v3.12h2v-3.12h3.12v-2h-3.12v-3.12Zm0,150.6h-1.51c.51.36,1.01.73,1.51,1.1v-1.1Zm0-39.54h-2v3.12h-3.12v2h3.12v3.12h2v-3.12h3.12v-2h-3.12v-3.12Zm0-71.53h-2v3.12h-3.12v2h3.12v3.12h2v-3.12h3.12v-2h-3.12v-3.12Zm-209.9-59.3h-2v3.12h-3.12v2h3.12v3.12h2v-3.12h3.12v-2h-3.12v-3.12Zm213.02,173.85v-.37h-.47c.16.12.31.25.47.37Zm48.65,16.28h-2v3.12h-3.12v2h3.12v3.12h2v-3.12h3.12v-2h-3.12v-3.12Zm0,32h-2v3.12h-3.12v2h3.12v3.12h2v-3.12h3.12v-2h-3.12v-3.12Zm0-71.53h-2v3.12h-3.12v2h3.12v3.12h2v-3.12h3.12v-2h-3.12v-3.12Zm-32-79.07h-2v3.12h-3.12v2h3.12v3.12h2v-3.12h3.12v-2h-3.12v-3.12Zm0-32h-2v3.12h-3.12v2h3.12v3.12h2v-3.12h3.12v-2h-3.12v-3.12Zm0-39.54h-2v3.12h-3.12v2h3.12v3.12h2v-3.12h3.12v-2h-3.12v-3.12Zm34.8,266.78h.31v-2h-.54c.08.67.16,1.33.23,2Zm-54.57-175.49h-2v3.12h-3.12v2h3.12v3.12h2v-3.12h3.12v-2h-3.12v-3.12Zm-130.83-91.3h-2v3.12h-3.12v2h3.12v3.12h2v-3.12h3.12v-2h-3.12v-3.12Zm51.76,130.83h-2v3.12h-3.12v2h3.12v3.12h2v-3.12h3.12v-2h-3.12v-3.12Zm-51.76-91.3h-2v3.12h-3.12v2h3.12v3.12h2v-3.12h3.12v-2h-3.12v-3.12Zm0,71.53h-2v3.12h-3.12v2h3.12v3.12h2v-3.12h3.12v-2h-3.12v-3.12Zm0,39.53h-2v3.12h-3.12v1.95c1.69-.73,3.4-1.43,5.12-2.09v-2.98Zm51.76-59.3h-2v3.12h-3.12v2h3.12v3.12h2v-3.12h3.12v-2h-3.12v-3.12Zm-51.76-19.77h-2v3.12h-3.12v2h3.12v3.12h2v-3.12h3.12v-2h-3.12v-3.12Zm51.76-51.76h-2v3.12h-3.12v2h3.12v3.12h2v-3.12h3.12v-2h-3.12v-3.12Zm59.3,51.76h-2v3.12h-3.12v2h3.12v3.12h2v-3.12h3.12v-2h-3.12v-3.12Zm-59.3-12.23h-2v3.12h-3.12v2h3.12v3.12h2v-3.12h3.12v-2h-3.12v-3.12Zm59.3-19.77h-2v3.12h-3.12v2h3.12v3.12h2v-3.12h3.12v-2h-3.12v-3.12Zm0,71.53h-2v3.12h-3.12v2h3.12v3.12h2v-3.12h3.12v-2h-3.12v-3.12Zm-59.3-130.83h-2v3.12h-3.12v2h3.12v3.12h2v-3.12h3.12v-2h-3.12v-3.12Zm59.3,19.77h-2v3.12h-3.12v2h3.12v3.12h2v-3.12h3.12v-2h-3.12v-3.12Zm-39.53,523.33h-2v3.12h-3.12v2h3.12v3.12h2v-3.12h3.12v-2h-3.12v-3.12Zm-190.13,0h-2v3.12h-3.12v2h3.12v3.12h2v-3.12h3.12v-2h-3.12v-3.12Zm19.77-503.56h-2v3.12h-3.12v2h3.12v3.12h2v-3.12h3.12v-2h-3.12v-3.12Zm0-39.54h-2v3.12h-3.12v2h3.12v3.12h2v-3.12h3.12v-2h-3.12v-3.12Zm-19.77,582.63h-2v3.12h-3.12v2h3.12v3.12h2v-3.12h3.12v-2h-3.12v-3.12Zm0-150.6h-2v3.12h-3.12v2h3.12v3.12h2v-3.12h3.12v-2h-3.12v-3.12Zm0,39.53h-2v3.12h-3.12v2h3.12v3.12h2v-3.12h3.12v-2h-3.12v-3.12Zm0-79.07h-2v3.12h-3.12v2h3.12v3.12h2v-3.12h3.12v-2h-3.12v-3.12Zm0,118.6h-2v3.12h-3.12v2h3.12v3.12h2v-3.12h3.12v-2h-3.12v-3.12Zm19.77-249.44h-2v3.12h-3.12v2h3.12v3.12h2v-3.12h3.12v-2h-3.12v-3.12Zm0,39.53h-2v3.12h-3.12v2h3.12v3.12h2v-3.12h3.12v-2h-3.12v-3.12Zm0-71.53h-2v3.12h-3.12v2h3.12v3.12h2v-3.12h3.12v-2h-3.12v-3.12Zm0-39.54h-2v3.12h-3.12v2h3.12v3.12h2v-3.12h3.12v-2h-3.12v-3.12Zm0-111.06h-2v3.12h-3.12v2h3.12v3.12h2v-3.12h3.12v-2h-3.12v-3.12Zm0,32h-2v3.12h-3.12v2h3.12v3.12h2v-3.12h3.12v-2h-3.12v-3.12Zm0,39.53h-2v3.12h-3.12v2h3.12v3.12h2v-3.12h3.12v-2h-3.12v-3.12Zm-19.77,91.3h-2v3.12h-3.12v2h3.12v3.12h2v-3.12h3.12v-2h-3.12v-3.12Zm0-222.13h-2v3.12h-3.12v2h3.12v3.12h2v-3.12h3.12v-2h-3.12v-3.12Zm0,39.54h-2v3.12h-3.12v2h3.12v3.12h2v-3.12h3.12v-2h-3.12v-3.12Zm-19.77,503.56h-2v3.12h-3.12v2h3.12v3.12h2v-3.12h3.12v-2h-3.12v-3.12Zm0-71.53h-2v3.12h-3.12v2h3.12v3.12h2v-3.12h3.12v-2h-3.12v-3.12Zm0-39.54h-2v3.12h-3.12v2h3.12v3.12h2v-3.12h3.12v-2h-3.12v-3.12Zm0,79.07h-2v3.12h-3.12v2h3.12v3.12h2v-3.12h3.12v-2h-3.12v-3.12Zm19.77-439.57h-2v3.12h-3.12v2h3.12v3.12h2v-3.12h3.12v-2h-3.12v-3.12Zm0,229.67h-2v3.12h-3.12v2h3.12v3.12h2v-3.12h3.12v-2h-3.12v-3.12Zm0-190.13h-2v3.12h-3.12v2h3.12v3.12h2v-3.12h3.12v-2h-3.12v-3.12Zm19.77,209.9h-2v3.12h-3.12v2h3.12v3.12h2v-3.12h3.12v-2h-3.12v-3.12Zm-19.77,19.77h-2v3.12h-3.12v2h3.12v3.12h2v-3.12h3.12v-2h-3.12v-3.12Zm0-79.07h-2v3.12h-3.12v2h3.12v3.12h2v-3.12h3.12v-2h-3.12v-3.12Zm0-111.07h-2v3.12h-3.12v2h3.12v3.12h2v-3.12h3.12v-2h-3.12v-3.12Zm0,39.54h-2v3.12h-3.12v2h3.12v3.12h2v-3.12h3.12v-2h-3.12v-3.12Zm281.43,352.96h-2v3.12h-3.12v2h3.12v3.12h2v-3.12h3.12v-2h-3.12v-3.12Zm-12.23-130.83h-2v3.12h-3.12v2h3.12v3.12h2v-3.12h3.12v-2h-3.12v-3.12Zm-81.07,5.12v3.12h2v-3.12h3.12v-1.25c-2.61.49-5.25.91-7.91,1.25h2.79Zm81.07,34.42h-2v3.12h-3.12v2h3.12v3.12h2v-3.12h3.12v-2h-3.12v-3.12Zm12.23,59.3h-2v3.12h-3.12v2h3.12v3.12h2v-3.12h3.12v-2h-3.12v-3.12Zm0-79.07h-2v3.12h-3.12v2h3.12v3.12h2v-3.12h3.12v-2h-3.12v-3.12Zm0,39.54h-2v3.12h-3.12v2h3.12v3.12h2v-3.12h3.12v-2h-3.12v-3.12Zm0-79.07h-2v3.12h-3.12v2h3.12v3.12h2v-3.12h3.12v-2h-3.12v-3.12Zm-12.23,98.84h-2v3.12h-3.12v2h3.12v3.12h2v-3.12h3.12v-2h-3.12v-3.12Zm-19.77,19.77h-2v3.12h-3.12v2h3.12v3.12h2v-3.12h3.12v-2h-3.12v-3.12Zm0-39.54h-2v3.12h-3.12v2h3.12v3.12h2v-3.12h3.12v-2h-3.12v-3.12Zm0,71.53h-2v3.12h-3.12v2h3.12v3.12h2v-3.12h3.12v-2h-3.12v-3.12Zm0-111.07h-2v3.12h-3.12v2h3.12v3.12h2v-3.12h3.12v-2h-3.12v-3.12Zm-229.67-71.53h-2v3.12h-3.12v2h3.12v3.12h2v-3.12h3.12v-2h-3.12v-3.12Zm249.44,162.83h-2v3.12h-3.12v2h3.12v3.12h2v-3.12h3.12v-2h-3.12v-3.12Zm0,39.54h-2v3.12h-3.12v2h3.12v3.12h2v-3.12h3.12v-2h-3.12v-3.12Zm-249.44-51.76h-2v3.12h-3.12v2h3.12v3.12h2v-3.12h3.12v-2h-3.12v-3.12Zm0,32h-2v3.12h-3.12v2h3.12v3.12h2v-3.12h3.12v-2h-3.12v-3.12Zm0,39.53h-2v3.12h-3.12v2h3.12v3.12h2v-3.12h3.12v-2h-3.12v-3.12Zm0-150.6h-2v3.12h-3.12v2h3.12v3.12h2v-3.12h3.12v-2h-3.12v-3.12Zm0-39.53h-2v3.12h-3.12v2h3.12v3.12h2v-3.12h3.12v-2h-3.12v-3.12Zm0,79.07h-2v3.12h-3.12v2h3.12v3.12h2v-3.12h3.12v-2h-3.12v-3.12Zm229.67-529.48c-.67-.16-1.33-.32-2-.47v2.2h-3.12v2h3.12v3.12h2v-3.12h3.12v-2h-3.12v-1.73Zm51.76,398.64h-2v3.12h-3.12v2h3.12v3.12h2v-3.12h3.12v-2h-3.12v-3.12Zm0,150.6h-2v3.12h-3.12v2h3.12v3.12h2v-3.12h3.12v-2h-3.12v-3.12Zm0,71.53h-2v3.12h-3.12v2h3.12v3.12h2v-3.12h3.12v-2h-3.12v-3.12Zm0-111.07h-2v3.12h-3.12v2h3.12v3.12h2v-3.12h3.12v-2h-3.12v-3.12Zm0,71.53h-2v3.12h-3.12v2h3.12v3.12h2v-3.12h3.12v-2h-3.12v-3.12Zm0-111.06h-2v3.12h-3.12v2h3.12v3.12h2v-3.12h3.12v-2h-3.12v-3.12Zm0-39.54h-2v3.12h-3.12v2h3.12v3.12h2v-3.12h3.12v-2h-3.12v-3.12Z"/>
        <path d="m501.96,626.55c-41.11,0-79.98-15.78-109.45-44.43-29.41-28.59-46.27-66.88-47.49-107.82-.05-1.58-.07-3.18-.07-4.77,0-86.58,70.43-157.01,157.01-157.01s157.01,70.43,157.01,157.01c0,1.59-.02,3.18-.07,4.75-1.22,40.96-18.09,79.25-47.5,107.84-29.47,28.65-68.34,44.43-109.45,44.43Zm0-274.02c-64.52,0-117.01,52.49-117.01,117.01,0,1.2.02,2.4.05,3.6.91,30.47,13.48,59,35.4,80.31,21.96,21.35,50.93,33.11,81.56,33.11s59.6-11.76,81.56-33.11c21.92-21.31,34.49-49.83,35.4-80.33.03-1.18.05-2.38.05-3.57,0-64.52-52.49-117.01-117.01-117.01Z"/>
        <path d="m501.96,846.78c-50.36,0-99.22-9.87-145.22-29.33-44.43-18.79-84.32-45.69-118.58-79.94-34.25-34.25-61.15-74.15-79.94-118.58-19.46-46.01-29.33-94.87-29.33-145.22s9.87-99.21,29.33-145.22c18.79-44.43,45.69-84.32,79.94-118.58,34.26-34.26,74.15-61.15,118.58-79.94,46.01-19.46,94.87-29.33,145.22-29.33s99.21,9.87,145.22,29.33c44.43,18.79,84.32,45.69,118.58,79.94s61.15,74.15,79.94,118.58c19.46,46.01,29.33,94.87,29.33,145.22s-9.87,99.22-29.33,145.22c-18.79,44.43-45.69,84.32-79.94,118.58s-74.15,61.15-118.58,79.94c-46.01,19.46-94.87,29.33-145.22,29.33Zm0-706.14c-88.97,0-172.61,34.65-235.52,97.56s-97.55,146.55-97.55,235.51,34.64,172.61,97.55,235.52c62.91,62.91,146.55,97.55,235.52,97.55s172.61-34.64,235.51-97.55c62.91-62.91,97.56-146.55,97.56-235.52s-34.65-172.6-97.56-235.51c-62.91-62.91-146.55-97.56-235.51-97.56Z"/>
      </g>
      <g>
        <path d="m502.92,627.48l-6.94-21.07c1.98.08,3.98.14,5.98.14,7.49,0,14.84-.61,22-1.77l4.69,14.23c2.34,7.1-1.52,14.76-8.62,17.1-1.41.46-2.84.68-4.24.68-5.69,0-10.98-3.61-12.86-9.31Zm-164.98-153.78l2.71,4.66c2.51,4.32,7.05,6.73,11.72,6.73,2.31,0,4.66-.59,6.8-1.84,2.89-1.68,4.91-4.26,5.95-7.18-.04-.79-.08-1.58-.1-2.37h-27.07Zm-.54,85c7.19-2.06,11.35-9.56,9.28-16.75-2.06-7.19-9.57-11.35-16.75-9.28l-48,13.77c-7.19,2.06-11.35,9.56-9.28,16.75,1.71,5.94,7.12,9.81,13.01,9.81,1.24,0,2.49-.17,3.74-.53l48-13.77Zm33.64-48.64l-1.02,1.68c-3.88,6.39-1.84,14.72,4.55,18.6,1.74,1.06,3.63,1.67,5.53,1.88-3.64-7.05-6.68-14.46-9.06-22.16Zm-157.74,19.37l49.62,5.59c.52.06,1.03.09,1.53.09,6.8,0,12.66-5.11,13.44-12.03.84-7.43-4.51-14.14-11.94-14.97l-49.62-5.59c-7.43-.83-14.13,4.51-14.97,11.94-.84,7.43,4.51,14.14,11.94,14.97Zm192.4,111.72c2.67,3.47,6.68,5.29,10.75,5.29,2.88,0,5.78-.91,8.24-2.8l46.79-35.94c1.41-1.08,2.54-2.39,3.39-3.84-10.52-2.11-20.6-5.43-30.1-9.8l-36.58,28.1c-5.93,4.56-7.05,13.06-2.49,18.99Zm137.64,178.45c-3.76.64-6.89,2.78-8.89,5.69,6.78-.62,13.51-1.43,20.18-2.43-2.97-2.65-7.06-3.98-11.29-3.26Zm-129.07-92.51c-6.88-2.94-14.83.25-17.78,7.12l-19.64,45.9c-2.94,6.88.25,14.83,7.12,17.78,1.74.74,3.54,1.1,5.32,1.1,5.26,0,10.26-3.08,12.46-8.22l19.64-45.9c2.94-6.88-.25-14.83-7.12-17.78Zm20.9-77.32l-49.09,41.98c-5.68,4.86-6.35,13.41-1.49,19.09,2.68,3.13,6.48,4.74,10.3,4.74,3.11,0,6.24-1.07,8.79-3.25l49.09-41.98c5.68-4.86,6.35-13.41,1.49-19.09-4.86-5.69-13.41-6.35-19.09-1.49Zm-178.25-47.35c-1.25-7.37-8.24-12.34-15.62-11.09-7.37,1.25-12.34,8.24-11.09,15.62l8.35,49.23c1.12,6.61,6.85,11.28,13.33,11.28.75,0,1.51-.06,2.28-.19,7.37-1.25,12.34-8.24,11.09-15.62l-8.35-49.23Zm95.9,155.75l-38.6-31.69c-5.78-4.75-14.31-3.91-19.06,1.87s-3.91,14.31,1.87,19.06l38.6,31.69c2.52,2.07,5.56,3.08,8.58,3.08,3.91,0,7.8-1.69,10.47-4.95,4.75-5.78,3.91-14.31-1.87-19.06Zm-6.38-89.15l-48.8,10.65c-7.31,1.6-11.94,8.81-10.34,16.12,1.38,6.33,6.99,10.66,13.22,10.66.96,0,1.93-.1,2.9-.31l48.8-10.65c7.31-1.6,11.94-8.81,10.34-16.12-1.59-7.31-8.81-11.93-16.12-10.34Zm-167.92-141.97c-6.88-2.94-14.84.25-17.78,7.12l-4.64,10.85c2.95,14.39,6.78,28.46,11.42,42.15l18.12-42.35c2.94-6.88-.25-14.84-7.12-17.78Zm208.86,94.72c.85.16,1.69.24,2.52.24,6.38,0,12.07-4.54,13.29-11.04l7.41-39.34c-7.54-6.75-14.32-14.32-20.21-22.57-2.3,1.94-3.98,4.65-4.58,7.84l-9.24,49.06c-1.38,7.35,3.45,14.43,10.8,15.81Zm-143.79,92.56c2,2.15,4.03,4.27,6.08,6.36-.48-1.04-1.09-2.04-1.86-2.97-1.2-1.45-2.64-2.58-4.22-3.39Zm-71.2-237.03l4.08-3.6h-24.89c.47.85,1.03,1.66,1.7,2.41,2.68,3.03,6.41,4.58,10.16,4.58,3.18,0,6.38-1.12,8.96-3.39Zm44.98,94.71c-6.78-3.15-14.84-.21-17.99,6.58l-19.04,40.99c3.63,7.98,7.54,15.81,11.73,23.46,4.56-.49,8.76-3.29,10.84-7.75l21.03-45.28c3.15-6.78.21-14.84-6.58-17.99Zm73.36,27.16c-4.74,5.78-3.9,14.31,1.88,19.06l38.6,31.68c2.52,2.07,5.56,3.07,8.58,3.07,3.92,0,7.8-1.69,10.48-4.95,4.74-5.78,3.9-14.31-1.88-19.06l-38.6-31.68c-5.78-4.75-14.31-3.9-19.06,1.88Zm475.74,97.26c-1.31,3.58-1,7.35.54,10.54,5.41-6.15,10.62-12.48,15.6-18.99-6.68-1.75-13.72,1.84-16.14,8.46Zm2.53-86.02l-19.64-45.91c-2.94-6.88-10.9-10.07-17.78-7.12-6.88,2.94-10.07,10.9-7.12,17.78l19.64,45.91c2.2,5.14,7.2,8.22,12.46,8.22,1.78,0,3.58-.35,5.32-1.1,6.88-2.94,10.07-10.9,7.12-17.78Zm-322.49,192.5c-7.3-1.63-14.54,2.97-16.16,10.27l-1.35,6.03c8.8,1.85,17.71,3.37,26.73,4.55l1.05-4.69c1.63-7.3-2.97-14.54-10.27-16.16Zm262.81-204.5c-6.49-3.72-14.76-1.48-18.48,5.01l-24.84,43.32c-3.72,6.49-1.48,14.76,5.01,18.48,2.12,1.22,4.44,1.8,6.72,1.8,4.69,0,9.26-2.44,11.76-6.81l24.84-43.32c3.72-6.49,1.48-14.76-5.01-18.48Zm-10.54-58.63c3.26,0,6.51-1.22,9.03-3.68l44.78-43.8c5.1-4.99,5.19-13.16.2-18.25-.12-.12-.25-.23-.37-.34h-17.72c-.05.05-.11.09-.16.14l-44.78,43.8c-5.1,4.99-5.19,13.16-.2,18.25,2.53,2.58,5.88,3.88,9.23,3.88Zm10.44,143.32c-7.34,1.41-12.16,8.5-10.75,15.85l9.4,49.05c.69,3.58,2.73,6.56,5.5,8.51,7.05-5.28,13.9-10.82,20.53-16.6l-8.82-46.05c-1.41-7.34-8.5-12.16-15.85-10.75Zm-203.08,6.1c-6.09-4.34-14.55-2.92-18.89,3.17l-28.97,40.66c-4.34,6.09-2.92,14.55,3.17,18.89,2.38,1.7,5.13,2.51,7.85,2.51,4.23,0,8.4-1.98,11.04-5.68l28.97-40.66c4.34-6.09,2.92-14.55-3.17-18.89Zm-25.25,110.67c-7.46.56-13.05,7.07-12.48,14.53l.82,10.87c9,.83,18.09,1.32,27.27,1.46l-1.09-14.37c-.56-7.46-7.07-13.02-14.53-12.48Zm162.27-288.97c-7.47.34-13.25,6.68-12.9,14.15l2.6,56.26c.33,7.26,6.33,12.92,13.52,12.92.21,0,.42,0,.64-.01,7.47-.34,13.25-6.68,12.9-14.15l-2.6-56.26c-.34-7.47-6.73-13.24-14.15-12.9Zm-81.6,216.96c-6.4-3.86-14.73-1.81-18.59,4.59l-25.8,42.74c-3.87,6.4-1.81,14.73,4.59,18.59,2.19,1.32,4.6,1.95,6.99,1.95,4.59,0,9.06-2.33,11.61-6.54l25.8-42.74c3.87-6.4,1.81-14.73-4.59-18.59Zm5.04-79.2c-2.58-7.02-10.35-10.62-17.38-8.05-7.02,2.58-10.62,10.36-8.05,17.38l17.2,46.88c2.01,5.48,7.2,8.88,12.71,8.88,1.55,0,3.12-.27,4.66-.83,7.02-2.58,10.62-10.36,8.05-17.38l-17.2-46.88Zm240.44-25.62l-38.6,31.68c-5.78,4.75-6.62,13.28-1.88,19.06,2.68,3.26,6.56,4.95,10.48,4.95,3.02,0,6.06-1.01,8.58-3.07l13.28-10.9c8.82-13.68,16.72-28,23.61-42.89-4.76-2.81-10.96-2.53-15.48,1.18Zm-34.06-85.64c2.43,0,4.89-.65,7.11-2.02l42.48-26.25c6.36-3.93,8.33-12.28,4.4-18.64-3.93-6.36-12.28-8.33-18.64-4.4l-42.48,26.25c-6.36,3.93-8.33,12.28-4.4,18.64,2.56,4.14,7,6.43,11.53,6.43Zm30.35,16.21c-5.76-4.78-14.29-3.98-19.07,1.77-4.78,5.75-3.98,14.29,1.77,19.07l38.42,31.89c1.19.99,2.51,1.73,3.88,2.25,3.55-8.58,6.77-17.32,9.65-26.22l-34.64-28.76Zm-165.52,157.61l-40.17,29.69c-6.01,4.45-7.29,12.92-2.84,18.94,2.66,3.59,6.75,5.49,10.9,5.49,2.8,0,5.62-.86,8.04-2.65l40.17-29.69c6.01-4.45,7.29-12.92,2.84-18.94s-12.92-7.29-18.94-2.84Zm-32.12-99.25c4.75-5.78,3.91-14.31-1.87-19.06l-18.16-14.91c-7.53,5.82-15.69,10.88-24.36,15.05l25.33,20.79c2.52,2.07,5.56,3.08,8.59,3.08,3.91,0,7.8-1.69,10.47-4.95Zm-9.69,61.82c2.68,3.26,6.56,4.95,10.48,4.95,3.02,0,6.06-1.01,8.58-3.07l38.6-31.68c5.78-4.75,6.62-13.28,1.88-19.06-4.75-5.78-13.28-6.62-19.06-1.88l-38.6,31.68c-5.78,4.75-6.62,13.28-1.88,19.06Z"/>
        <path d="m501.96,846.78c-50.36,0-99.22-9.87-145.22-29.33-44.43-18.79-84.32-45.69-118.58-79.94-34.25-34.25-61.15-74.15-79.94-118.58-19.46-46.01-29.33-94.87-29.33-145.22v-20h255.53l.58,19.4c.91,30.49,13.48,59.02,35.4,80.33,21.96,21.35,50.93,33.11,81.56,33.11s59.6-11.76,81.56-33.11c21.92-21.31,34.49-49.83,35.4-80.33l.58-19.4h255.53v20c0,50.36-9.87,99.22-29.33,145.22-18.79,44.43-45.69,84.32-79.94,118.58s-74.15,61.15-118.58,79.94c-46.01,19.46-94.87,29.33-145.22,29.33ZM169.48,493.71c4.79,81.44,38.8,157.35,96.97,215.52,62.91,62.91,146.55,97.55,235.52,97.55s172.61-34.64,235.51-97.55c58.17-58.17,92.18-134.07,96.97-215.52h-177.32c-5.16,33.53-21.02,64.39-45.72,88.41-29.47,28.65-68.34,44.43-109.45,44.43s-79.98-15.78-109.45-44.43c-24.7-24.02-40.56-54.88-45.72-88.41h-177.32Z"/>
      </g>
    </g>
  </g>
</svg>