<?xml version="1.0" encoding="UTF-8"?>
<svg id="Layer_8_copy" data-name="Layer 8 copy" xmlns="http://www.w3.org/2000/svg" viewBox="0 0 1031.76 1119.35">
  <g id="Other_Shapes_copy" data-name="Other Shapes copy">
    <g>
      <path d="m898.26,1046.99H154.72c-11.05,0-20-8.95-20-20V126.29c0-11.05,8.95-20,20-20h743.54c11.05,0,20,8.95,20,20v900.69c0,11.05-8.95,20-20,20Zm-723.54-40h703.54V146.29H174.72v860.69Z"/>
      <g>
        <path d="m386.27,832.12c1.04.56,2.16.82,3.26.82,2.46,0,4.84-1.32,6.09-3.64l14.03-26.14c1.8-3.36.54-7.54-2.82-9.34-3.36-1.8-7.54-.54-9.34,2.82l-14.03,26.14c-1.8,3.36-.54,7.54,2.82,9.34Z"/>
        <path d="m366.51,862.74c-.98,3.68,1.2,7.46,4.88,8.45l35.61,9.53c.6.16,1.2.24,1.79.24,3.05,0,5.84-2.03,6.66-5.12.98-3.68-1.2-7.46-4.88-8.45l-35.61-9.53c-3.68-.98-7.46,1.2-8.45,4.88Z"/>
        <path d="m365.25,900.82l-28.37-23.57c-2.93-2.44-7.28-2.03-9.72.9-2.44,2.93-2.03,7.28.9,9.72l28.37,23.57c1.29,1.07,2.85,1.59,4.41,1.59,1.98,0,3.95-.85,5.31-2.49,2.44-2.93,2.03-7.28-.9-9.72Z"/>
        <path d="m388.66,777.78c1.3,1.1,2.88,1.64,4.46,1.64,1.96,0,3.9-.83,5.27-2.44l23.85-28.12c2.47-2.91,2.11-7.26-.8-9.73-2.91-2.46-7.26-2.11-9.73.8l-23.85,28.12c-2.47,2.91-2.11,7.26.8,9.73Z"/>
        <path d="m462.35,832.41c.87.36,1.76.53,2.65.53,2.7,0,5.27-1.6,6.37-4.25l16.54-39.77c1.46-3.52-.2-7.56-3.72-9.02-3.52-1.46-7.56.2-9.02,3.72l-16.54,39.77c-1.46,3.52.2,7.56,3.72,9.02Z"/>
        <path d="m430.15,800.13c.82.32,1.67.47,2.5.47,2.76,0,5.37-1.67,6.43-4.4l16.46-42.27c1.38-3.55-.38-7.55-3.93-8.93-3.55-1.38-7.55.37-8.93,3.93l-16.46,42.27c-1.38,3.55.38,7.55,3.93,8.93Z"/>
        <path d="m474.17,766.76c1.55,0,3.1-.52,4.39-1.58l28.44-23.49c2.94-2.43,3.35-6.78.92-9.71-2.43-2.94-6.78-3.35-9.71-.92l-28.44,23.49c-2.94,2.43-3.35,6.78-.92,9.71,1.36,1.65,3.34,2.51,5.32,2.51Z"/>
        <path d="m417.14,807.8c-3.31,1.88-4.47,6.1-2.59,9.41l22.89,40.27c1.27,2.24,3.6,3.49,6,3.49,1.16,0,2.33-.29,3.4-.9,3.31-1.88,4.47-6.1,2.59-9.41l-22.89-40.27c-1.88-3.31-6.1-4.47-9.41-2.59Z"/>
        <path d="m355.55,788.57c1.29,2.19,3.59,3.41,5.96,3.41,1.19,0,2.39-.31,3.49-.95,3.29-1.93,4.39-6.16,2.46-9.44l-18.58-31.65c-1.93-3.29-6.16-4.39-9.44-2.46-3.29,1.93-4.39,6.16-2.46,9.44l18.58,31.65Z"/>
        <path d="m260.06,882.39c1.87,0,3.73-.75,5.09-2.24,2.57-2.81,2.38-7.17-.43-9.75l-27.19-24.9c-2.81-2.57-7.18-2.38-9.75.43s-2.38,7.17.43,9.75l27.19,24.9c1.32,1.21,2.99,1.81,4.66,1.81Z"/>
        <path d="m227.67,790.91c.91,0,1.83-.18,2.71-.56,3.5-1.5,5.13-5.55,3.63-9.06l-14.5-33.9c-1.5-3.5-5.55-5.13-9.06-3.63-3.5,1.5-5.13,5.55-3.63,9.06l14.5,33.9c1.12,2.62,3.67,4.19,6.35,4.19Z"/>
        <path d="m243.03,832.85c3.57,0,6.6-2.76,6.87-6.38.29-3.8-2.56-7.11-6.36-7.4l-36.78-2.8c-3.79-.28-7.11,2.56-7.4,6.36-.29,3.8,2.56,7.11,6.36,7.4l36.78,2.8c.18.01.35.02.53.02Z"/>
        <path d="m220.48,900.86c3.46,0,6.45-2.6,6.85-6.13.43-3.79-2.3-7.2-6.08-7.63l-36.64-4.13c-3.8-.44-7.2,2.3-7.63,6.08-.43,3.79,2.3,7.2,6.08,7.63l36.64,4.13c.26.03.52.04.78.04Z"/>
        <path d="m210.78,956.29c-.64-3.76-4.2-6.29-7.96-5.65-3.76.64-6.29,4.2-5.65,7.96l6.17,36.35c.57,3.37,3.49,5.75,6.79,5.75.38,0,.77-.03,1.16-.1,3.76-.64,6.29-4.2,5.65-7.96l-6.17-36.35Z"/>
        <path d="m229.29,946.18l-13.6-34.28c-1.4-3.54-5.41-5.28-8.96-3.87-3.54,1.4-5.27,5.42-3.87,8.96l13.6,34.28c1.07,2.71,3.67,4.36,6.42,4.36.85,0,1.71-.16,2.54-.49,3.54-1.4,5.27-5.42,3.87-8.96Z"/>
        <path d="m283.27,837.67l-18.55-31.87c-1.92-3.29-6.14-4.41-9.43-2.49-3.29,1.92-4.41,6.14-2.49,9.43l18.55,31.87c1.28,2.2,3.59,3.43,5.97,3.43,1.18,0,2.37-.3,3.46-.94,3.29-1.92,4.41-6.14,2.49-9.43Z"/>
        <path d="m325.58,800.74c-3.26,1.98-4.3,6.22-2.32,9.48l23.69,39.03c1.3,2.14,3.57,3.32,5.91,3.32,1.22,0,2.45-.32,3.57-1,3.26-1.98,4.3-6.22,2.32-9.48l-23.69-39.03c-1.98-3.26-6.22-4.3-9.48-2.32Z"/>
        <path d="m239.6,909.03c.63,0,1.27-.09,1.91-.27l35.44-10.17c3.66-1.05,5.78-4.87,4.73-8.54-1.05-3.66-4.87-5.78-8.54-4.73l-35.44,10.17c-3.66,1.05-5.78,4.87-4.73,8.54.87,3.03,3.63,5,6.63,5Z"/>
        <path d="m476.69,833.41c-3.35,1.82-4.58,6.01-2.76,9.36l15.15,27.79c1.25,2.3,3.62,3.6,6.06,3.6,1.12,0,2.25-.27,3.3-.84,3.35-1.82,4.58-6.01,2.76-9.36l-15.15-27.79c-1.82-3.35-6.01-4.58-9.36-2.76Z"/>
        <path d="m244.12,783.32l36.77,2.81c.18.01.36.02.53.02,3.57,0,6.6-2.75,6.87-6.38.29-3.8-2.56-7.12-6.36-7.41l-36.77-2.81c-3.8-.28-7.12,2.56-7.41,6.35-.29,3.8,2.56,7.12,6.36,7.41Z"/>
        <path d="m728.92,786.73c1.12,2.62,3.67,4.19,6.35,4.19.91,0,1.83-.18,2.71-.56,3.5-1.5,5.13-5.55,3.63-9.06l-14.5-33.9c-1.5-3.5-5.55-5.13-9.06-3.63-3.5,1.5-5.13,5.55-3.63,9.06l14.5,33.9Z"/>
        <path d="m664.17,798.59s.1,0,.15,0c3.81-.08,6.83-3.23,6.76-7.04l-.76-36.87c-.08-3.81-3.19-6.81-7.04-6.76-3.81.08-6.83,3.23-6.76,7.04l.76,36.87c.08,3.76,3.15,6.76,6.9,6.76Z"/>
        <path d="m706.97,822.63c-.29,3.8,2.56,7.11,6.36,7.4l36.78,2.8c.18.01.36.02.53.02,3.57,0,6.6-2.76,6.87-6.38.29-3.8-2.56-7.11-6.36-7.4l-36.78-2.8c-3.82-.29-7.11,2.56-7.4,6.36Z"/>
        <path d="m683.49,785.57l32.28,17.87c1.06.59,2.21.86,3.34.86,2.43,0,4.78-1.29,6.04-3.56,1.85-3.33.64-7.53-2.7-9.38l-32.28-17.87c-3.33-1.84-7.53-.64-9.38,2.7-1.85,3.33-.64,7.53,2.7,9.38Z"/>
        <path d="m790.87,837.67l-18.55-31.87c-1.92-3.29-6.14-4.41-9.43-2.49-3.29,1.92-4.41,6.14-2.49,9.43l18.55,31.87c1.28,2.2,3.59,3.43,5.97,3.43,1.18,0,2.37-.3,3.46-.94,3.29-1.92,4.41-6.14,2.49-9.43Z"/>
        <path d="m763,880.57c1.32,1.21,2.99,1.81,4.66,1.81,1.87,0,3.73-.75,5.09-2.24,2.57-2.81,2.38-7.18-.43-9.75l-27.19-24.9c-2.81-2.57-7.17-2.38-9.75.43-2.57,2.81-2.38,7.18.43,9.75l27.19,24.9Z"/>
        <path d="m751.72,783.32l36.78,2.81c.18.01.36.02.53.02,3.57,0,6.6-2.75,6.87-6.38.29-3.8-2.56-7.12-6.36-7.41l-36.78-2.81c-3.79-.29-7.11,2.55-7.4,6.35s2.56,7.12,6.36,7.41Z"/>
        <path d="m690.66,896.69l36.64,4.13c.26.03.52.04.78.04,3.46,0,6.45-2.6,6.85-6.13.43-3.79-2.3-7.2-6.08-7.63l-36.64-4.13c-3.79-.44-7.2,2.3-7.63,6.08-.43,3.79,2.3,7.2,6.08,7.63Z"/>
        <path d="m725.55,848.17c-.89-3.71-4.62-5.99-8.32-5.09l-44.68,10.76c-3.71.89-5.99,4.62-5.09,8.32.76,3.16,3.59,5.29,6.7,5.29.53,0,1.08-.06,1.62-.19l44.68-10.76c3.71-.89,5.99-4.62,5.09-8.32Z"/>
        <path d="m574.98,867.44c3.56,0,6.58-2.74,6.87-6.34l3.82-47.34c.31-3.8-2.52-7.13-6.32-7.43-3.81-.3-7.13,2.52-7.43,6.32l-3.82,47.34c-.31,3.8,2.52,7.13,6.32,7.43.19.01.38.02.56.02Z"/>
        <path d="m662.64,842.75c1.62,0,3.25-.57,4.56-1.73l33.09-29.21c2.86-2.52,3.13-6.88.61-9.74-2.52-2.86-6.88-3.13-9.74-.61l-33.09,29.21c-2.86,2.52-3.13,6.88-.61,9.74,1.36,1.54,3.27,2.33,5.18,2.33Z"/>
        <path d="m563.8,782.22l32.93,16.58c1,.5,2.05.74,3.1.74,2.52,0,4.96-1.39,6.17-3.8,1.71-3.4.34-7.55-3.06-9.26l-32.93-16.58c-3.4-1.71-7.55-.34-9.27,3.06-1.71,3.4-.34,7.55,3.06,9.26Z"/>
        <path d="m532.39,802.33c1.28,2.2,3.59,3.43,5.97,3.43,1.18,0,2.37-.3,3.46-.94,3.29-1.92,4.41-6.14,2.49-9.43l-18.55-31.87c-1.92-3.29-6.14-4.41-9.43-2.49-3.29,1.92-4.41,6.14-2.49,9.43l18.55,31.87Z"/>
        <path d="m614.58,774.46c1.28,2.2,3.59,3.43,5.97,3.43,1.18,0,2.37-.3,3.46-.94,3.29-1.92,4.41-6.14,2.49-9.43l-18.55-31.87c-1.92-3.29-6.14-4.41-9.43-2.49-3.29,1.92-4.41,6.14-2.49,9.43l18.55,31.87Z"/>
        <path d="m522.11,868.85c1.33,1.23,3.01,1.84,4.69,1.84,1.85,0,3.7-.74,5.06-2.2l33.07-35.6c2.59-2.79,2.43-7.16-.36-9.75-2.79-2.59-7.16-2.43-9.75.36l-33.07,35.6c-2.59,2.79-2.43,7.16.36,9.75Z"/>
        <path d="m505.45,788.75c-3.72.84-6.05,4.53-5.22,8.25l9.79,43.5c.72,3.21,3.57,5.39,6.73,5.39.5,0,1.01-.05,1.52-.17,3.72-.84,6.05-4.53,5.22-8.25l-9.79-43.5c-.84-3.72-4.53-6.06-8.25-5.22Z"/>
        <path d="m608.75,836.73c1.18.8,2.52,1.18,3.85,1.18,2.22,0,4.39-1.07,5.73-3.04l20.62-30.56c2.13-3.16,1.3-7.45-1.86-9.58s-7.45-1.3-9.58,1.86l-20.62,30.56c-2.13,3.16-1.3,7.45,1.86,9.58Z"/>
        <path d="m575.28,894.31c1.24,0,2.49-.33,3.62-1.03l31.37-19.38c3.24-2,4.25-6.25,2.24-9.5-2-3.24-6.26-4.25-9.5-2.24l-31.37,19.38c-3.24,2-4.25,6.25-2.24,9.5,1.31,2.11,3.56,3.27,5.88,3.27Z"/>
        <path d="m747.2,909.03c.63,0,1.27-.09,1.91-.27l35.44-10.17c3.66-1.05,5.78-4.87,4.73-8.54-1.05-3.66-4.87-5.79-8.54-4.73l-35.44,10.17c-3.66,1.05-5.78,4.87-4.73,8.54.87,3.03,3.63,5,6.63,5Z"/>
        <path d="m718.38,956.29c-.64-3.76-4.19-6.28-7.96-5.65-3.76.64-6.29,4.2-5.65,7.96l6.17,36.35c.57,3.37,3.49,5.75,6.79,5.75.38,0,.77-.03,1.16-.1,3.76-.64,6.29-4.2,5.65-7.96l-6.17-36.35Z"/>
        <path d="m736.89,946.18l-13.59-34.28c-1.41-3.54-5.42-5.28-8.96-3.87-3.54,1.4-5.27,5.42-3.87,8.96l13.59,34.28c1.07,2.71,3.67,4.36,6.42,4.36.85,0,1.71-.16,2.54-.49,3.54-1.4,5.28-5.42,3.87-8.96Z"/>
        <path d="m693.49,932.6c-3.46-1.6-7.56-.1-9.16,3.35l-15.53,33.44c-1.61,3.46-.1,7.56,3.35,9.17.94.44,1.93.64,2.9.64,2.6,0,5.09-1.48,6.26-3.99l15.53-33.44c1.61-3.46.1-7.56-3.35-9.17Z"/>
        <path d="m761.33,966.14l-28.35,23.58c-2.93,2.44-3.33,6.79-.89,9.72,1.37,1.64,3.33,2.49,5.31,2.49,1.55,0,3.12-.52,4.41-1.59l28.35-23.58c2.93-2.44,3.33-6.79.89-9.72-2.44-2.93-6.79-3.33-9.72-.89Z"/>
        <path d="m630.73,922.93l-28.37-23.55c-2.93-2.43-7.28-2.03-9.72.9s-2.03,7.28.9,9.72l28.37,23.55c1.29,1.07,2.85,1.59,4.4,1.59,1.98,0,3.95-.85,5.31-2.49,2.43-2.93,2.03-7.28-.9-9.72Z"/>
        <path d="m641.81,889.22l4.72-49.59c.36-3.79-2.42-7.16-6.22-7.52-3.78-.37-7.16,2.42-7.52,6.22l-4.72,49.59c-.36,3.79,2.42,7.16,6.22,7.52.22.02.44.03.66.03,3.52,0,6.52-2.68,6.86-6.25Z"/>
        <path d="m672.56,882.93c-3.51-1.5-7.56.13-9.06,3.63l-14.5,33.9c-1.5,3.5.13,7.56,3.63,9.06.89.38,1.81.56,2.71.56,2.68,0,5.23-1.57,6.35-4.19l14.5-33.9c1.5-3.5-.13-7.56-3.63-9.06Z"/>
        <path d="m797.25,957.73l-28.5-23.39c-2.94-2.42-7.29-1.99-9.71.96s-1.99,7.29.96,9.71l28.5,23.39c1.28,1.05,2.83,1.57,4.37,1.57,1.99,0,3.97-.86,5.34-2.52,2.42-2.95,1.99-7.29-.96-9.71Z"/>
        <path d="m253.73,966.14l-28.35,23.58c-2.93,2.44-3.33,6.79-.89,9.72,1.36,1.64,3.33,2.49,5.31,2.49,1.55,0,3.12-.52,4.41-1.59l28.35-23.58c2.93-2.44,3.33-6.79.89-9.72-2.44-2.93-6.79-3.33-9.72-.89Z"/>
        <path d="m806.82,813.21c1.55,0,3.12-.52,4.41-1.59l28.35-23.57c2.93-2.44,3.33-6.79.9-9.72-2.44-2.93-6.79-3.33-9.72-.9l-28.35,23.57c-2.93,2.44-3.33,6.79-.9,9.72,1.37,1.64,3.33,2.49,5.31,2.49Z"/>
        <path d="m856.47,749.93c-1.93-3.29-6.16-4.39-9.44-2.46-3.29,1.93-4.39,6.16-2.46,9.44l18.58,31.65c1.29,2.19,3.59,3.41,5.96,3.41,1.19,0,2.39-.31,3.49-.95,3.29-1.93,4.39-6.16,2.46-9.44l-18.58-31.65Z"/>
        <path d="m872.85,900.82l-28.37-23.57c-2.93-2.44-7.28-2.03-9.72.9-2.44,2.93-2.03,7.28.9,9.72l28.37,23.57c1.29,1.07,2.85,1.59,4.41,1.59,1.98,0,3.95-.85,5.31-2.49,2.44-2.93,2.03-7.28-.9-9.72Z"/>
        <path d="m864.9,926.23l-34.55,26.54c-3.02,2.32-3.59,6.65-1.27,9.67,1.36,1.77,3.41,2.7,5.48,2.7,1.47,0,2.95-.47,4.2-1.43l34.55-26.54c3.02-2.32,3.59-6.65,1.27-9.67-2.32-3.02-6.65-3.59-9.67-1.27Z"/>
        <path d="m834.06,739.02c-.91-3.7-4.66-5.96-8.35-5.05l-4.96,1.22c-1.61-1.23-3.73-1.74-5.84-1.22l-35.8,8.82c-3.7.91-5.96,4.65-5.05,8.35.78,3.15,3.59,5.25,6.69,5.25.55,0,1.1-.07,1.66-.2l4.96-1.22c1.18.9,2.65,1.42,4.18,1.42.55,0,1.1-.07,1.66-.2l35.8-8.82c3.7-.91,5.96-4.65,5.05-8.35Z"/>
        <path d="m154.72,708.38v318.6h743.54v-318.6H154.72Zm723.54,149.73c-1.97.77-3.56,2.43-4.15,4.63-.92,3.43.92,6.94,4.15,8.2v87.39l-1.59-1.31c-2.94-2.42-7.29-1.99-9.71.96-2.42,2.95-1.99,7.29.96,9.71l10.35,8.49v30.8h-22.37l17.29-14.79c2.9-2.48,3.24-6.83.76-9.73-2.48-2.9-6.83-3.24-9.73-.76l-29.56,25.28h-58.72l25.45-5.56c3.72-.81,6.08-4.49,5.27-8.21-.81-3.72-4.49-6.08-8.21-5.27l-36.03,7.87c-3.72.81-6.08,4.49-5.27,8.21.25,1.13.77,2.13,1.47,2.96h-64.71l-20.91-21.2c-2.68-2.71-7.04-2.74-9.76-.07-2.71,2.68-2.74,7.04-.07,9.76l11.35,11.5h-41.34l5.44-21.59c.93-3.69-1.31-7.45-5-8.38-3.7-.94-7.45,1.31-8.38,5l-6.29,24.96h-30.61c-.05-1.93-.9-3.83-2.51-5.15l-28.5-23.39c-2.95-2.42-7.29-1.99-9.71.96-2.42,2.95-1.99,7.29.96,9.71l21.78,17.87h-17.92l-.6-3.15c-.72-3.74-4.33-6.2-8.08-5.48-3.74.72-6.2,4.33-5.48,8.08l.11.55h-36.54l6.1-17.32c1.27-3.59-.62-7.53-4.22-8.8-3.59-1.27-7.53.62-8.8,4.22l-7.71,21.9h-27.29c-1.62-3.1-5.35-4.53-8.66-3.21l-8.08,3.21h-48.95c-.26-1.8-1.22-3.5-2.82-4.64-3.1-2.21-7.41-1.49-9.62,1.62l-2.16,3.03h-31.33l17.29-14.79c2.9-2.48,3.24-6.83.76-9.73-2.48-2.9-6.83-3.24-9.73-.76l-29.56,25.28h-58.72l25.45-5.56c3.72-.81,6.08-4.49,5.27-8.21-.81-3.72-4.49-6.08-8.21-5.27l-36.03,7.87c-3.72.81-6.08,4.49-5.27,8.21.25,1.13.77,2.13,1.47,2.96h-64.71l-11.58-11.74v-22.2l14.53-31.28c1.61-3.46.1-7.56-3.35-9.17-3.46-1.6-7.56-.1-9.16,3.35l-2.01,4.33v-74.61l38.14-9.18c3.71-.89,5.99-4.62,5.09-8.32-.89-3.71-4.62-5.98-8.32-5.09l-34.91,8.4v-23.8l17.97-15.87c2.86-2.52,3.13-6.88.61-9.74-2.52-2.86-6.88-3.13-9.74-.61l-8.84,7.81v-24.52c.35.31.75.58,1.17.82l32.28,17.87c1.06.59,2.2.86,3.33.86,2.43,0,4.78-1.29,6.04-3.56,1.85-3.33.64-7.53-2.7-9.38l-32.28-17.87c-2.6-1.44-5.73-1.01-7.85.83v-45.94h15.78l-4.12,11.69c-1.27,3.59.62,7.54,4.22,8.8.76.27,1.53.39,2.29.39,2.85,0,5.51-1.77,6.51-4.61l5.73-16.28h32.34l3.56,6.75c1.24,2.34,3.63,3.68,6.11,3.68,1.09,0,2.19-.26,3.22-.8,3.37-1.78,4.66-5.95,2.88-9.32l-.16-.3h117.37l-2.91,2.39c-2.94,2.42-3.37,6.77-.95,9.71,1.36,1.66,3.34,2.52,5.33,2.52,1.54,0,3.09-.51,4.38-1.57l15.88-13.05h51.4l1.11,1.1c1.35,1.33,3.1,2,4.86,2s3.55-.68,4.9-2.04c.33-.33.61-.68.85-1.05h71.95l-.45,2.81c-.61,3.76,1.95,7.3,5.71,7.91.37.06.74.09,1.11.09,3.33,0,6.26-2.41,6.8-5.8l.81-5.01h33.2l-33.53,28c-2.93,2.44-3.32,6.79-.88,9.72,1.36,1.63,3.33,2.48,5.3,2.48,1.56,0,3.13-.53,4.42-1.6l33.96-28.35c2.93-2.44,3.32-6.79.88-9.72-.15-.18-.31-.35-.48-.52h39.65c-.43.84-.69,1.77-.74,2.77-.19,3.81,2.75,7.04,6.55,7.23l36.83,1.82c.12,0,.23,0,.35,0,3.65,0,6.7-2.87,6.89-6.56.1-2.05-.71-3.94-2.07-5.27h26.55l-4.12,11.69c-1.27,3.59.62,7.53,4.22,8.8.76.27,1.53.39,2.29.39,2.85,0,5.51-1.77,6.51-4.61l5.73-16.28h32.34l3.56,6.75c1.24,2.34,3.63,3.68,6.11,3.68,1.09,0,2.19-.26,3.22-.8,3.37-1.78,4.66-5.95,2.88-9.32l-.16-.3h117.38l-2.91,2.39c-2.94,2.42-3.37,6.77-.95,9.71,1.07,1.3,2.52,2.1,4.06,2.39v115.24Z"/>
        <path d="m823.04,897.19c-3.75-.71-7.35,1.76-8.06,5.5l-6.82,36.23c-.71,3.75,1.76,7.35,5.5,8.06.43.08.86.12,1.29.12,3.25,0,6.15-2.31,6.77-5.62l6.82-36.23c.71-3.75-1.76-7.35-5.5-8.06Z"/>
        <path d="m833.18,800.74c-3.26,1.98-4.3,6.22-2.32,9.48l23.69,39.03c1.3,2.14,3.57,3.32,5.91,3.32,1.22,0,2.45-.32,3.57-1,3.26-1.98,4.3-6.22,2.32-9.48l-23.69-39.03c-1.98-3.26-6.22-4.3-9.48-2.32Z"/>
        <path d="m617.36,953.36l-28.5,23.39c-2.95,2.42-3.37,6.77-.96,9.71,1.36,1.66,3.34,2.52,5.34,2.52,1.54,0,3.09-.51,4.37-1.57l28.5-23.39c2.95-2.42,3.37-6.77.96-9.71-2.42-2.95-6.77-3.37-9.71-.96Z"/>
        <path d="m814.72,877.54l19.14-31.53c1.98-3.26.94-7.5-2.32-9.48-3.26-1.98-7.5-.94-9.48,2.32l-19.14,31.53c-1.98,3.26-.94,7.5,2.32,9.48,1.12.68,2.35,1,3.57,1,2.33,0,4.61-1.18,5.91-3.32Z"/>
        <path d="m650,937.3c-.75-3.74-4.38-6.16-8.12-5.41-3.74.75-6.16,4.38-5.41,8.12l7.24,36.16c.66,3.28,3.54,5.55,6.76,5.55.45,0,.91-.04,1.36-.14,3.74-.75,6.16-4.38,5.41-8.12l-7.24-36.16Z"/>
        <path d="m315.44,897.19c-3.74-.71-7.35,1.76-8.06,5.5l-6.82,36.23c-.71,3.75,1.76,7.35,5.5,8.06.43.08.86.12,1.28.12,3.25,0,6.15-2.31,6.77-5.62l6.82-36.23c.71-3.75-1.76-7.35-5.5-8.06Z"/>
        <path d="m366.97,927.5c-2.32-3.02-6.65-3.59-9.68-1.27l-34.55,26.54c-3.02,2.32-3.59,6.65-1.27,9.67,1.36,1.77,3.41,2.7,5.48,2.7,1.47,0,2.95-.47,4.2-1.43l34.55-26.54c3.02-2.32,3.59-6.65,1.27-9.67Z"/>
        <path d="m397.57,980.42l-28.5-23.39c-2.95-2.42-7.29-1.99-9.71.96-2.42,2.95-1.99,7.29.96,9.71l28.5,23.39c1.28,1.05,2.83,1.57,4.37,1.57,1.99,0,3.97-.86,5.34-2.52,2.42-2.95,1.99-7.29-.96-9.71Z"/>
        <path d="m392.04,903.96c-1.19-3.62-5.09-5.59-8.71-4.39-3.62,1.19-5.59,5.09-4.39,8.71l14.83,44.99c.96,2.9,3.65,4.74,6.55,4.74.72,0,1.44-.11,2.16-.35,3.62-1.19,5.59-5.09,4.39-8.71l-14.83-44.99Z"/>
        <path d="m326.46,739.02c-.91-3.7-4.65-5.95-8.35-5.05l-4.96,1.22c-1.6-1.22-3.73-1.74-5.84-1.22l-35.8,8.82c-3.7.91-5.96,4.65-5.05,8.35.77,3.15,3.59,5.25,6.69,5.25.55,0,1.1-.07,1.66-.2l4.96-1.22c1.18.9,2.65,1.42,4.18,1.42.55,0,1.1-.07,1.66-.2l35.8-8.82c3.7-.91,5.96-4.65,5.05-8.35Z"/>
        <path d="m307.12,877.54l19.14-31.53c1.98-3.26.94-7.5-2.32-9.48-3.26-1.98-7.5-.94-9.48,2.32l-19.14,31.53c-1.98,3.26-.94,7.5,2.32,9.48,1.12.68,2.35,1,3.57,1,2.33,0,4.61-1.18,5.9-3.32Z"/>
        <path d="m289.65,957.73l-28.5-23.39c-2.95-2.42-7.29-1.99-9.71.96-2.42,2.95-1.99,7.29.96,9.71l28.5,23.39c1.28,1.05,2.83,1.57,4.37,1.57,1.99,0,3.97-.86,5.34-2.52,2.42-2.95,1.99-7.29-.96-9.71Z"/>
        <path d="m452.09,882.51c-1.05-3.66-4.88-5.78-8.54-4.73l-35.44,10.17c-3.66,1.05-5.78,4.87-4.73,8.54.87,3.03,3.63,5,6.63,5,.63,0,1.27-.09,1.91-.27l35.44-10.17c3.66-1.05,5.78-4.87,4.73-8.54Z"/>
        <path d="m299.22,813.21c1.55,0,3.12-.52,4.41-1.59l28.35-23.57c2.93-2.44,3.33-6.79.9-9.72-2.44-2.93-6.79-3.33-9.72-.9l-28.35,23.57c-2.93,2.44-3.33,6.79-.9,9.72,1.36,1.64,3.33,2.49,5.31,2.49Z"/>
        <path d="m530.43,938.06c-2.42-2.95-6.77-3.38-9.71-.96l-28.5,23.39c-2.95,2.42-3.37,6.77-.96,9.71,1.36,1.66,3.34,2.52,5.34,2.52,1.54,0,3.09-.51,4.37-1.57l28.5-23.39c2.95-2.42,3.37-6.77.96-9.71Z"/>
        <path d="m546.7,954.14c-3.31-1.9-7.52-.75-9.42,2.55l-18.35,31.99c-1.9,3.31-.75,7.52,2.55,9.42,1.08.62,2.26.92,3.43.92,2.39,0,4.72-1.25,5.99-3.47l18.35-31.99c1.9-3.31.75-7.52-2.55-9.42Z"/>
        <path d="m591.53,950.35l-14.5-33.9c-1.5-3.5-5.55-5.13-9.06-3.63-3.5,1.5-5.13,5.55-3.63,9.06l14.5,33.9c1.12,2.62,3.67,4.19,6.35,4.19.91,0,1.83-.18,2.71-.56,3.5-1.5,5.13-5.55,3.63-9.06Z"/>
        <path d="m554.34,881.93c-3.57-1.34-7.54.48-8.88,4.05l-12.89,34.55c-1.33,3.57.48,7.54,4.05,8.88.79.3,1.61.44,2.41.44,2.8,0,5.43-1.71,6.47-4.49l12.89-34.55c1.33-3.57-.48-7.54-4.05-8.88Z"/>
        <path d="m505.69,893.02c-3.26-1.97-7.5-.93-9.48,2.33l-19.09,31.54c-1.97,3.26-.93,7.5,2.33,9.48,1.12.68,2.35,1,3.57,1,2.33,0,4.61-1.19,5.91-3.33l19.09-31.54c1.97-3.26.93-7.5-2.33-9.48Z"/>
        <path d="m466.84,853.65c-3.81.18-6.75,3.4-6.57,7.21l1.92,41.54c.17,3.7,3.22,6.58,6.89,6.58.11,0,.22,0,.32,0,3.81-.18,6.75-3.4,6.57-7.21l-1.92-41.54c-.18-3.81-3.41-6.75-7.21-6.57Z"/>
        <path d="m431.81,951.59c-3.75-.71-7.35,1.76-8.06,5.5l-6.82,36.24c-.71,3.75,1.76,7.35,5.5,8.06.43.08.86.12,1.28.12,3.25,0,6.15-2.31,6.77-5.62l6.82-36.24c.71-3.75-1.76-7.35-5.5-8.06Z"/>
        <path d="m458.98,943.33c1.99,0,3.97-.86,5.34-2.52,2.42-2.95,1.99-7.29-.95-9.71l-28.49-23.39c-2.95-2.42-7.29-1.99-9.71.95-2.42,2.95-1.99,7.29.95,9.71l28.49,23.39c1.28,1.05,2.83,1.57,4.38,1.57Z"/>
        <path d="m460.31,961.87c-1.31-3.58-5.27-5.41-8.85-4.1-3.58,1.31-5.41,5.28-4.1,8.85l12.7,34.62c1.03,2.79,3.67,4.53,6.48,4.53.79,0,1.59-.14,2.38-.42,3.58-1.31,5.41-5.28,4.1-8.85l-12.7-34.62Z"/>
      </g>
      <path d="m417.83,548.43h3.12v2h-3.12v3.12h-2v-3.12h-3.12v-2h3.12v-3.12h2v3.12Zm0,28.88h-2v3.12h-3.12v2h3.12v3.12h2v-3.12h3.12v-2h-3.12v-3.12Zm-19.77-162.83h-2v3.12h-3.12v2h3.12v3.12h2v-3.12h3.12v-2h-3.12v-3.12Zm19.77,202.36h-2v3.12h-3.12v2h3.12v3.12h2v-3.12h3.12v-2h-3.12v-3.12Zm0-150.6h-2v3.12h-3.12v2h3.12v3.12h2v-3.12h3.12v-2h-3.12v-3.12Zm0-71.53h-2v3.12h-3.12v2h3.12v3.12h2v-3.12h3.12v-2h-3.12v-3.12Zm0,32h-2v3.12h-3.12v2h3.12v3.12h2v-3.12h3.12v-2h-3.12v-3.12Zm0,229.67h-2v3.12h-3.12v2h3.12v3.12h2v-3.12h3.12v-2h-3.12v-3.12Zm-19.77-360.5h-2v3.12h-3.12v2h3.12v3.12h2v-3.12h3.12v-2h-3.12v-3.12Zm0,39.53h-2v3.12h-3.12v2h3.12v3.12h2v-3.12h3.12v-2h-3.12v-3.12Zm0,39.54h-2v3.12h-3.12v2h3.12v3.12h2v-3.12h3.12v-2h-3.12v-3.12Zm19.77-19.77h-2v3.12h-3.12v2h3.12v3.12h2v-3.12h3.12v-2h-3.12v-3.12Zm-19.77-91.3h-2v3.12h-3.12v2h3.12v3.12h2v-3.12h3.12v-2h-3.12v-3.12Zm0-79.07h-2v3.12h-3.12v2h3.12v3.12h2v-3.12h3.12v-2h-3.12v-3.12Zm0,39.54h-2v3.12h-3.12v2h3.12v3.12h2v-3.12h3.12v-2h-3.12v-3.12Zm19.77,281.43h-2v3.12h-3.12v2h3.12v3.12h2v-3.12h3.12v-2h-3.12v-3.12Zm19.77-19.77h-2v3.12h-3.12v2h3.12v3.12h2v-3.12h3.12v-2h-3.12v-3.12Zm0-71.53h-2v3.12h-3.12v2h3.12v3.12h2v-3.12h3.12v-2h-3.12v-3.12Zm-19.77-98.84h-2v3.12h-3.12v2h3.12v3.12h2v-3.12h3.12v-2h-3.12v-3.12Zm19.77,209.9h-2v3.12h-3.12v2h3.12v3.12h2v-3.12h3.12v-2h-3.12v-3.12Zm0-79.07h-2v3.12h-3.12v2h3.12v3.12h2v-3.12h3.12v-2h-3.12v-3.12Zm0-150.6h-2v3.12h-3.12v2h3.12v3.12h2v-3.12h3.12v-2h-3.12v-3.12Zm0,39.53h-2v3.12h-3.12v2h3.12v3.12h2v-3.12h3.12v-2h-3.12v-3.12Zm0,39.54h-2v3.12h-3.12v2h3.12v3.12h2v-3.12h3.12v-2h-3.12v-3.12Zm0,190.13h-2v3.12h-3.12v2h3.12v3.12h2v-3.12h3.12v-2h-3.12v-3.12Zm-19.77-360.5h-2v3.12h-3.12v2h3.12v3.12h2v-3.12h3.12v-2h-3.12v-3.12Zm0,39.54h-2v3.12h-3.12v2h3.12v3.12h2v-3.12h3.12v-2h-3.12v-3.12Zm0,32h-2v3.12h-3.12v2h3.12v3.12h2v-3.12h3.12v-2h-3.12v-3.12Zm19.77,400.04h-2v3.12h-3.12v2h3.12v3.12h2v-3.12h3.12v-2h-3.12v-3.12Zm0-39.54h-2v3.12h-3.12v2h3.12v3.12h2v-3.12h3.12v-2h-3.12v-3.12Zm0-39.53h-2v3.12h-3.12v2h3.12v3.12h2v-3.12h3.12v-2h-3.12v-3.12Zm-19.77-432.03h-2v3.12h-3.12v2h3.12v3.12h2v-3.12h3.12v-2h-3.12v-3.12Zm-32,301.2h-2v3.12h-3.12v2h3.12v3.12h2v-3.12h3.12v-2h-3.12v-3.12Zm12.23-19.77h-2v3.12h-3.12v2h3.12v3.12h2v-3.12h3.12v-2h-3.12v-3.12Zm-32-261.67h-2v3.12h-3.12v2h3.12v3.12h2v-3.12h3.12v-2h-3.12v-3.12Zm0,39.54h-2v3.12h-3.12v2h3.12v3.12h2v-3.12h3.12v-2h-3.12v-3.12Zm19.77,320.97h-2v3.12h-3.12v2h3.12v3.12h2v-3.12h3.12v-2h-3.12v-3.12Zm0-39.54h-2v3.12h-3.12v2h3.12v3.12h2v-3.12h3.12v-2h-3.12v-3.12Zm0,111.07h-2v3.12h-3.12v2h3.12v3.12h2v-3.12h3.12v-2h-3.12v-3.12Zm0-39.54h-2v3.12h-3.12v2h3.12v3.12h2v-3.12h3.12v-2h-3.12v-3.12Zm-19.77-313.43h-2v3.12h-3.12v2h3.12v3.12h2v-3.12h3.12v-2h-3.12v-3.12Zm0,222.13h-2v3.12h-3.12v2h3.12v3.12h2v-3.12h3.12v-2h-3.12v-3.12Zm0-39.53h-2v3.12h-3.12v2h3.12v3.12h2v-3.12h3.12v-2h-3.12v-3.12Zm0,79.07h-2v3.12h-3.12v2h3.12v3.12h2v-3.12h3.12v-2h-3.12v-3.12Zm0-111.06h-2v3.12h-3.12v2h3.12v3.12h2v-3.12h3.12v-2h-3.12v-3.12Zm0-79.07h-2v3.12h-3.12v2h3.12v3.12h2v-3.12h3.12v-2h-3.12v-3.12Zm0,39.54h-2v3.12h-3.12v2h3.12v3.12h2v-3.12h3.12v-2h-3.12v-3.12Zm0-79.07h-2v3.12h-3.12v2h3.12v3.12h2v-3.12h3.12v-2h-3.12v-3.12Zm19.77,360.5h-2v3.12h-3.12v2h3.12v3.12h2v-3.12h3.12v-2h-3.12v-3.12Zm12.23-59.3h-2v3.12h-3.12v2h3.12v3.12h2v-3.12h3.12v-2h-3.12v-3.12Zm-32-32h-2v3.12h-3.12v2h3.12v3.12h2v-3.12h3.12v-2h-3.12v-3.12Zm32,111.06h-2v3.12h-3.12v2h3.12v3.12h2v-3.12h3.12v-2h-3.12v-3.12Zm0-39.54h-2v3.12h-3.12v2h3.12v3.12h2v-3.12h3.12v-2h-3.12v-3.12Zm0-71.53h-2v3.12h-3.12v2h3.12v3.12h2v-3.12h3.12v-2h-3.12v-3.12Zm0-79.07h-2v3.12h-3.12v2h3.12v3.12h2v-3.12h3.12v-2h-3.12v-3.12Zm0,39.54h-2v3.12h-3.12v2h3.12v3.12h2v-3.12h3.12v-2h-3.12v-3.12Zm-12.23-249.44h-2v3.12h-3.12v2h3.12v3.12h2v-3.12h3.12v-2h-3.12v-3.12Zm0,118.6h-2v3.12h-3.12v2h3.12v3.12h2v-3.12h3.12v-2h-3.12v-3.12Zm0-190.13h-2v3.12h-3.12v2h3.12v3.12h2v-3.12h3.12v-2h-3.12v-3.12Zm0,222.13h-2v3.12h-3.12v2h3.12v3.12h2v-3.12h3.12v-2h-3.12v-3.12Zm0-71.53h-2v3.12h-3.12v2h3.12v3.12h2v-3.12h3.12v-2h-3.12v-3.12Zm0-111.06h-2v3.12h-3.12v2h3.12v3.12h2v-3.12h3.12v-2h-3.12v-3.12Zm51.76,19.77h-2v3.12h-3.12v2h3.12v3.12h2v-3.12h3.12v-2h-3.12v-3.12Zm-51.76,51.76h-2v3.12h-3.12v2h3.12v3.12h2v-3.12h3.12v-2h-3.12v-3.12Zm0-150.6h-2v3.12h-3.12v2h3.12v3.12h2v-3.12h3.12v-2h-3.12v-3.12Zm111.06,39.53h-2v3.12h-3.12v2h3.12v3.12h2v-3.12h3.12v-2h-3.12v-3.12Zm19.77,320.97h-2v3.12h-3.12v2h3.12v3.12h2v-3.12h3.12v-2h-3.12v-3.12Zm-19.77,51.76h-2v3.12h-3.12v2h3.12v3.12h2v-3.12h3.12v-2h-3.12v-3.12Zm-59.3-352.96h-2v3.12h-3.12v2h3.12v3.12h2v-3.12h3.12v-2h-3.12v-3.12Zm59.3-59.3h-2v3.12h-3.12v2h3.12v3.12h2v-3.12h3.12v-2h-3.12v-3.12Zm19.77,400.04h-2v3.12h-3.12v2h3.12v3.12h2v-3.12h3.12v-2h-3.12v-3.12Zm0,32h-2v3.12h-3.12v2h3.12v3.12h2v-3.12h3.12v-2h-3.12v-3.12Zm0,39.53h-2v3.12h-3.12v2h3.12v3.12h2v-3.12h3.12v-2h-3.12v-3.12Zm-19.77-360.5h-2v3.12h-3.12v2h3.12v3.12h2v-3.12h3.12v-2h-3.12v-3.12Zm0,39.54h-2v3.12h-3.12v2h3.12v3.12h2v-3.12h3.12v-2h-3.12v-3.12Zm0,190.13h-2v3.12h-3.12v2h3.12v3.12h2v-3.12h3.12v-2h-3.12v-3.12Zm0,39.54h-2v3.12h-3.12v2h3.12v3.12h2v-3.12h3.12v-2h-3.12v-3.12Zm0-79.07h-2v3.12h-3.12v2h3.12v3.12h2v-3.12h3.12v-2h-3.12v-3.12Zm0-39.54h-2v3.12h-3.12v2h3.12v3.12h2v-3.12h3.12v-2h-3.12v-3.12Zm0-71.53h-2v3.12h-3.12v2h3.12v3.12h2v-3.12h3.12v-2h-3.12v-3.12Zm0,39.54h-2v3.12h-3.12v2h3.12v3.12h2v-3.12h3.12v-2h-3.12v-3.12Zm19.77,281.43h-2v3.12h-3.12v2h3.12v3.12h2v-3.12h3.12v-2h-3.12v-3.12Zm19.77-59.3h-2v3.12h-3.12v2h3.12v3.12h2v-3.12h3.12v-2h-3.12v-3.12Zm0,39.53h-2v3.12h-3.12v2h3.12v3.12h2v-3.12h3.12v-2h-3.12v-3.12Zm0-79.07h-2v3.12h-3.12v2h3.12v3.12h2v-3.12h3.12v-2h-3.12v-3.12Zm0-111.06h-2v3.12h-3.12v2h3.12v3.12h2v-3.12h3.12v-2h-3.12v-3.12Zm-19.77,19.77h-2v3.12h-3.12v2h3.12v3.12h2v-3.12h3.12v-2h-3.12v-3.12Zm0-301.2h-2v3.12h-3.12v2h3.12v3.12h2v-3.12h3.12v-2h-3.12v-3.12Zm19.77,320.97h-2v3.12h-3.12v2h3.12v3.12h2v-3.12h3.12v-2h-3.12v-3.12Zm0,39.54h-2v3.12h-3.12v2h3.12v3.12h2v-3.12h3.12v-2h-3.12v-3.12Zm-19.77-130.83h-2v3.12h-3.12v2h3.12v3.12h2v-3.12h3.12v-2h-3.12v-3.12Zm0,32h-2v3.12h-3.12v2h3.12v3.12h2v-3.12h3.12v-2h-3.12v-3.12Zm0-222.13h-2v3.12h-3.12v2h3.12v3.12h2v-3.12h3.12v-2h-3.12v-3.12Zm0,150.6h-2v3.12h-3.12v2h3.12v3.12h2v-3.12h3.12v-2h-3.12v-3.12Zm0-111.06h-2v3.12h-3.12v2h3.12v3.12h2v-3.12h3.12v-2h-3.12v-3.12Zm0,32h-2v3.12h-3.12v2h3.12v3.12h2v-3.12h3.12v-2h-3.12v-3.12Zm0,39.53h-2v3.12h-3.12v2h3.12v3.12h2v-3.12h3.12v-2h-3.12v-3.12Zm-19.77-91.3h-2v3.12h-3.12v2h3.12v3.12h2v-3.12h3.12v-2h-3.12v-3.12Zm-39.53,182.6h-2v3.12h-3.12v2h3.12v3.12h2v-3.12h3.12v-2h-3.12v-3.12Zm0-111.06h-2v3.12h-3.12v2h3.12v3.12h2v-3.12h3.12v-2h-3.12v-3.12Zm0,79.07h-2v3.12h-3.12v2h3.12v3.12h2v-3.12h3.12v-2h-3.12v-3.12Zm0-39.54h-2v3.12h-3.12v2h3.12v3.12h2v-3.12h3.12v-2h-3.12v-3.12Zm39.53,261.67h-2v3.12h-3.12v2h3.12v3.12h2v-3.12h3.12v-2h-3.12v-3.12Zm-39.53-372.73h-2v3.12h-3.12v2h3.12v3.12h2v-3.12h3.12v-2h-3.12v-3.12Zm0,32h-2v3.12h-3.12v2h3.12v3.12h2v-3.12h3.12v-2h-3.12v-3.12Zm0-111.06h-2v3.12h-3.12v2h3.12v3.12h2v-3.12h3.12v-2h-3.12v-3.12Zm0,491.33h-2v3.12h-3.12v2h3.12v3.12h2v-3.12h3.12v-2h-3.12v-3.12Zm0-190.13h-2v3.12h-3.12v2h3.12v3.12h2v-3.12h3.12v-2h-3.12v-3.12Zm-19.77-281.43h-2v3.12h-3.12v2h3.12v3.12h2v-3.12h3.12v-2h-3.12v-3.12Zm19.77,432.03h-2v3.12h-3.12v2h3.12v3.12h2v-3.12h3.12v-2h-3.12v-3.12Zm0-111.07h-2v3.12h-3.12v2h3.12v3.12h2v-3.12h3.12v-2h-3.12v-3.12Zm0,39.54h-2v3.12h-3.12v2h3.12v3.12h2v-3.12h3.12v-2h-3.12v-3.12Zm0,32h-2v3.12h-3.12v2h3.12v3.12h2v-3.12h3.12v-2h-3.12v-3.12Zm0-372.73h-2v3.12h-3.12v2h3.12v3.12h2v-3.12h3.12v-2h-3.12v-3.12Zm19.77,170.37h-2v3.12h-3.12v2h3.12v3.12h2v-3.12h3.12v-2h-3.12v-3.12Zm0-79.07h-2v3.12h-3.12v2h3.12v3.12h2v-3.12h3.12v-2h-3.12v-3.12Zm0,380.27h-2v3.12h-3.12v2h3.12v3.12h2v-3.12h3.12v-2h-3.12v-3.12Zm0-412.26h-2v3.12h-3.12v2h3.12v3.12h2v-3.12h3.12v-2h-3.12v-3.12Zm19.77,392.5h-2v3.12h-3.12v2h3.12v3.12h2v-3.12h3.12v-2h-3.12v-3.12Zm-19.77-471.57h-2v3.12h-3.12v2h3.12v3.12h2v-3.12h3.12v-2h-3.12v-3.12Zm0,39.54h-2v3.12h-3.12v2h3.12v3.12h2v-3.12h3.12v-2h-3.12v-3.12Zm0,111.06h-2v3.12h-3.12v2h3.12v3.12h2v-3.12h3.12v-2h-3.12v-3.12Zm0,261.67h-2v3.12h-3.12v2h3.12v3.12h2v-3.12h3.12v-2h-3.12v-3.12Zm0,39.53h-2v3.12h-3.12v2h3.12v3.12h2v-3.12h3.12v-2h-3.12v-3.12Zm0-71.53h-2v3.12h-3.12v2h3.12v3.12h2v-3.12h3.12v-2h-3.12v-3.12Zm0-118.6h-2v3.12h-3.12v2h3.12v3.12h2v-3.12h3.12v-2h-3.12v-3.12Zm0-32h-2v3.12h-3.12v2h3.12v3.12h2v-3.12h3.12v-2h-3.12v-3.12Zm0,71.53h-2v3.12h-3.12v2h3.12v3.12h2v-3.12h3.12v-2h-3.12v-3.12Zm0,39.54h-2v3.12h-3.12v2h3.12v3.12h2v-3.12h3.12v-2h-3.12v-3.12Zm-150.6,0h-2v3.12h-3.12v2h3.12v3.12h2v-3.12h3.12v-2h-3.12v-3.12Zm-91.3-360.5h-2v3.12h-3.12v2h3.12v3.12h2v-3.12h3.12v-2h-3.12v-3.12Zm12.23,471.56h-2v3.12h-3.12v2h3.12v3.12h2v-3.12h3.12v-2h-3.12v-3.12Zm0,39.54h-2v3.12h-3.12v2h3.12v3.12h2v-3.12h3.12v-2h-3.12v-3.12Zm-12.23-432.03h-2v3.12h-3.12v2h3.12v3.12h2v-3.12h3.12v-2h-3.12v-3.12Zm0-39.54h-2v3.12h-3.12v2h3.12v3.12h2v-3.12h3.12v-2h-3.12v-3.12Zm12.23,392.5h-2v3.12h-3.12v2h3.12v3.12h2v-3.12h3.12v-2h-3.12v-3.12Zm0-71.53h-2v3.12h-3.12v2h3.12v3.12h2v-3.12h3.12v-2h-3.12v-3.12Zm0,39.54h-2v3.12h-3.12v2h3.12v3.12h2v-3.12h3.12v-2h-3.12v-3.12Zm-12.23-138.37h-2v3.12h-3.12v2h3.12v3.12h2v-3.12h3.12v-2h-3.12v-3.12Zm12.23,59.3h-2v3.12h-3.12v2h3.12v3.12h2v-3.12h3.12v-2h-3.12v-3.12Zm-12.23-19.77h-2v3.12h-3.12v2h3.12v3.12h2v-3.12h3.12v-2h-3.12v-3.12Zm0,39.53h-2v3.12h-3.12v2h3.12v3.12h2v-3.12h3.12v-2h-3.12v-3.12Zm0-150.6h-2v3.12h-3.12v2h3.12v3.12h2v-3.12h3.12v-2h-3.12v-3.12Zm0,39.54h-2v3.12h-3.12v2h3.12v3.12h2v-3.12h3.12v-2h-3.12v-3.12Zm0-79.07h-2v3.12h-3.12v2h3.12v3.12h2v-3.12h3.12v-2h-3.12v-3.12Zm0-39.54h-2v3.12h-3.12v2h3.12v3.12h2v-3.12h3.12v-2h-3.12v-3.12Zm12.23,59.3h-2v3.12h-3.12v2h3.12v3.12h2v-3.12h3.12v-2h-3.12v-3.12Zm19.77,241.9h-2v3.12h-3.12v2h3.12v3.12h2v-3.12h3.12v-2h-3.12v-3.12Zm-19.77-130.83h-2v3.12h-3.12v2h3.12v3.12h2v-3.12h3.12v-2h-3.12v-3.12Zm19.77,170.37h-2v3.12h-3.12v2h3.12v3.12h2v-3.12h3.12v-2h-3.12v-3.12Zm0-222.13h-2v3.12h-3.12v2h3.12v3.12h2v-3.12h3.12v-2h-3.12v-3.12Zm0,261.66h-2v3.12h-3.12v2h3.12v3.12h2v-3.12h3.12v-2h-3.12v-3.12Zm0-190.13h-2v3.12h-3.12v2h3.12v3.12h2v-3.12h3.12v-2h-3.12v-3.12Zm0,39.53h-2v3.12h-3.12v2h3.12v3.12h2v-3.12h3.12v-2h-3.12v-3.12Zm0,39.54h-2v3.12h-3.12v2h3.12v3.12h2v-3.12h3.12v-2h-3.12v-3.12Zm-19.77-170.37h-2v3.12h-3.12v2h3.12v3.12h2v-3.12h3.12v-2h-3.12v-3.12Zm-12.23,170.37h-2v3.12h-3.12v2h3.12v3.12h2v-3.12h3.12v-2h-3.12v-3.12Zm12.23-130.83h-2v3.12h-3.12v2h3.12v3.12h2v-3.12h3.12v-2h-3.12v-3.12Zm0-229.67h-2v3.12h-3.12v2h3.12v3.12h2v-3.12h3.12v-2h-3.12v-3.12Zm0,111.07h-2v3.12h-3.12v2h3.12v3.12h2v-3.12h3.12v-2h-3.12v-3.12Zm0-71.53h-2v3.12h-3.12v2h3.12v3.12h2v-3.12h3.12v-2h-3.12v-3.12Zm0,39.54h-2v3.12h-3.12v2h3.12v3.12h2v-3.12h3.12v-2h-3.12v-3.12Zm19.77,162.83h-2v3.12h-3.12v2h3.12v3.12h2v-3.12h3.12v-2h-3.12v-3.12Zm-71.53-111.06h-2v3.12h-3.12v2h3.12v3.12h2v-3.12h3.12v-2h-3.12v-3.12Zm19.77,360.5h-2v3.12h-3.12v2h3.12v3.12h2v-3.12h3.12v-2h-3.12v-3.12Zm-19.77-400.04h-2v3.12h-3.12v2h3.12v3.12h2v-3.12h3.12v-2h-3.12v-3.12Zm0,118.6h-2v3.12h-3.12v2h3.12v3.12h2v-3.12h3.12v-2h-3.12v-3.12Zm0-229.67h-2v3.12h-3.12v2h3.12v3.12h2v-3.12h3.12v-2h-3.12v-3.12Zm0,79.07h-2v3.12h-3.12v2h3.12v3.12h2v-3.12h3.12v-2h-3.12v-3.12Zm0-39.54h-2v3.12h-3.12v2h3.12v3.12h2v-3.12h3.12v-2h-3.12v-3.12Zm0,150.6h-2v3.12h-3.12v2h3.12v3.12h2v-3.12h3.12v-2h-3.12v-3.12Zm0,261.67h-2v3.12h-3.12v2h3.12v3.12h2v-3.12h3.12v-2h-3.12v-3.12Zm0-39.54h-2v3.12h-3.12v2h3.12v3.12h2v-3.12h3.12v-2h-3.12v-3.12Zm0,79.07h-2v3.12h-3.12v2h3.12v3.12h2v-3.12h3.12v-2h-3.12v-3.12Zm39.54-79.07h-2v3.12h-3.12v2h3.12v3.12h2v-3.12h3.12v-2h-3.12v-3.12Zm-39.54-111.06h-2v3.12h-3.12v2h3.12v3.12h2v-3.12h3.12v-2h-3.12v-3.12Zm0,79.07h-2v3.12h-3.12v2h3.12v3.12h2v-3.12h3.12v-2h-3.12v-3.12Zm0-39.54h-2v3.12h-3.12v2h3.12v3.12h2v-3.12h3.12v-2h-3.12v-3.12Zm0-79.07h-2v3.12h-3.12v2h3.12v3.12h2v-3.12h3.12v-2h-3.12v-3.12Zm19.77-162.83h-2v3.12h-3.12v2h3.12v3.12h2v-3.12h3.12v-2h-3.12v-3.12Zm0,32h-2v3.12h-3.12v2h3.12v3.12h2v-3.12h3.12v-2h-3.12v-3.12Zm0-71.53h-2v3.12h-3.12v2h3.12v3.12h2v-3.12h3.12v-2h-3.12v-3.12Zm0,412.26h-2v3.12h-3.12v2h3.12v3.12h2v-3.12h3.12v-2h-3.12v-3.12Zm19.77-19.77h-2v3.12h-3.12v2h3.12v3.12h2v-3.12h3.12v-2h-3.12v-3.12Zm-19.77-281.43h-2v3.12h-3.12v2h3.12v3.12h2v-3.12h3.12v-2h-3.12v-3.12Zm0-150.6h-2v3.12h-3.12v2h3.12v3.12h2v-3.12h3.12v-2h-3.12v-3.12Zm19.77,471.57h-2v3.12h-3.12v2h3.12v3.12h2v-3.12h3.12v-2h-3.12v-3.12Zm-19.77-130.83h-2v3.12h-3.12v2h3.12v3.12h2v-3.12h3.12v-2h-3.12v-3.12Zm0,39.54h-2v3.12h-3.12v2h3.12v3.12h2v-3.12h3.12v-2h-3.12v-3.12Zm0,32h-2v3.12h-3.12v2h3.12v3.12h2v-3.12h3.12v-2h-3.12v-3.12Zm0-111.07h-2v3.12h-3.12v2h3.12v3.12h2v-3.12h3.12v-2h-3.12v-3.12Zm0-71.53h-2v3.12h-3.12v2h3.12v3.12h2v-3.12h3.12v-2h-3.12v-3.12Zm0,32h-2v3.12h-3.12v2h3.12v3.12h2v-3.12h3.12v-2h-3.12v-3.12Zm0-71.53h-2v3.12h-3.12v2h3.12v3.12h2v-3.12h3.12v-2h-3.12v-3.12Zm71.53,301.2h-2v3.12h-3.12v2h3.12v3.12h2v-3.12h3.12v-2h-3.12v-3.12Zm39.54-340.73h-2v3.12h-3.12v2h3.12v3.12h2v-3.12h3.12v-2h-3.12v-3.12Zm0,39.54h-2v3.12h-3.12v2h3.12v3.12h2v-3.12h3.12v-2h-3.12v-3.12Zm0-79.07h-2v3.12h-3.12v2h3.12v3.12h2v-3.12h3.12v-2h-3.12v-3.12Zm0,118.6h-2v3.12h-3.12v2h3.12v3.12h2v-3.12h3.12v-2h-3.12v-3.12Zm0-190.13h-2v3.12h-3.12v2h3.12v3.12h2v-3.12h3.12v-2h-3.12v-3.12Zm0,39.54h-2v3.12h-3.12v2h3.12v3.12h2v-3.12h3.12v-2h-3.12v-3.12Zm0-79.07h-2v3.12h-3.12v2h3.12v3.12h2v-3.12h3.12v-2h-3.12v-3.12Zm0,261.67h-2v3.12h-3.12v2h3.12v3.12h2v-3.12h3.12v-2h-3.12v-3.12Zm0,118.6h-2v3.12h-3.12v2h3.12v3.12h2v-3.12h3.12v-2h-3.12v-3.12Zm0,71.53h-2v3.12h-3.12v2h3.12v3.12h2v-3.12h3.12v-2h-3.12v-3.12Zm0,39.54h-2v3.12h-3.12v2h3.12v3.12h2v-3.12h3.12v-2h-3.12v-3.12Zm-19.77-511.1h-2v3.12h-3.12v2h3.12v3.12h2v-3.12h3.12v-2h-3.12v-3.12Zm229.67,261.66h-2v3.12h-3.12v2h3.12v3.12h2v-3.12h3.12v-2h-3.12v-3.12Zm-209.9,170.37h-2v3.12h-3.12v2h3.12v3.12h2v-3.12h3.12v-2h-3.12v-3.12Zm0-111.07h-2v3.12h-3.12v2h3.12v3.12h2v-3.12h3.12v-2h-3.12v-3.12Zm19.77,170.37h-2v3.12h-3.12v2h3.12v3.12h2v-3.12h3.12v-2h-3.12v-3.12Zm0-340.73h-2v3.12h-3.12v2h3.12v3.12h2v-3.12h3.12v-2h-3.12v-3.12Zm0-71.53h-2v3.12h-3.12v2h3.12v3.12h2v-3.12h3.12v-2h-3.12v-3.12Zm-39.53-39.54h-2v3.12h-3.12v2h3.12v3.12h2v-3.12h3.12v-2h-3.12v-3.12Zm39.53,412.27h-2v3.12h-3.12v2h3.12v3.12h2v-3.12h3.12v-2h-3.12v-3.12Zm0-412.27h-2v3.12h-3.12v2h3.12v3.12h2v-3.12h3.12v-2h-3.12v-3.12Zm19.77,432.03h-2v3.12h-3.12v2h3.12v3.12h2v-3.12h3.12v-2h-3.12v-3.12Zm-19.77-471.56h-2v3.12h-3.12v2h3.12v3.12h2v-3.12h3.12v-2h-3.12v-3.12Zm19.77,511.1h-2v3.12h-3.12v2h3.12v3.12h2v-3.12h3.12v-2h-3.12v-3.12Zm-19.77-400.04h-2v3.12h-3.12v2h3.12v3.12h2v-3.12h3.12v-2h-3.12v-3.12Zm0,269.2h-2v3.12h-3.12v2h3.12v3.12h2v-3.12h3.12v-2h-3.12v-3.12Zm0,32h-2v3.12h-3.12v2h3.12v3.12h2v-3.12h3.12v-2h-3.12v-3.12Zm0-71.53h-2v3.12h-3.12v2h3.12v3.12h2v-3.12h3.12v-2h-3.12v-3.12Zm0-150.6h-2v3.12h-3.12v2h3.12v3.12h2v-3.12h3.12v-2h-3.12v-3.12Zm0,111.07h-2v3.12h-3.12v2h3.12v3.12h2v-3.12h3.12v-2h-3.12v-3.12Zm0-71.53h-2v3.12h-3.12v2h3.12v3.12h2v-3.12h3.12v-2h-3.12v-3.12Zm0,32h-2v3.12h-3.12v2h3.12v3.12h2v-3.12h3.12v-2h-3.12v-3.12Zm-39.53-182.6h-2v3.12h-3.12v2h3.12v3.12h2v-3.12h3.12v-2h-3.12v-3.12Zm-19.77,281.43h-2v3.12h-3.12v2h3.12v3.12h2v-3.12h3.12v-2h-3.12v-3.12Zm0,71.53h-2v3.12h-3.12v2h3.12v3.12h2v-3.12h3.12v-2h-3.12v-3.12Zm0-111.07h-2v3.12h-3.12v2h3.12v3.12h2v-3.12h3.12v-2h-3.12v-3.12Zm0,79.07h-2v3.12h-3.12v2h3.12v3.12h2v-3.12h3.12v-2h-3.12v-3.12Zm0-118.6h-2v3.12h-3.12v2h3.12v3.12h2v-3.12h3.12v-2h-3.12v-3.12Zm0-71.53h-2v3.12h-3.12v2h3.12v3.12h2v-3.12h3.12v-2h-3.12v-3.12Zm0,39.54h-2v3.12h-3.12v2h3.12v3.12h2v-3.12h3.12v-2h-3.12v-3.12Zm79.07,182.6h-2v3.12h-3.12v2h3.12v3.12h2v-3.12h3.12v-2h-3.12v-3.12Zm-98.84-320.97h-2v3.12h-3.12v2h3.12v3.12h2v-3.12h3.12v-2h-3.12v-3.12Zm0,39.54h-2v3.12h-3.12v2h3.12v3.12h2v-3.12h3.12v-2h-3.12v-3.12Zm19.77,320.96h-2v3.12h-3.12v2h3.12v3.12h2v-3.12h3.12v-2h-3.12v-3.12Zm-19.77-392.5h-2v3.12h-3.12v2h3.12v3.12h2v-3.12h3.12v-2h-3.12v-3.12Zm19.77,91.3h-2v3.12h-3.12v2h3.12v3.12h2v-3.12h3.12v-2h-3.12v-3.12Zm-19.77-170.37h-2v3.12h-3.12v2h3.12v3.12h2v-3.12h3.12v-2h-3.12v-3.12Zm0,39.53h-2v3.12h-3.12v2h3.12v3.12h2v-3.12h3.12v-2h-3.12v-3.12Zm39.54,222.13h-2v3.12h-3.12v2h3.12v3.12h2v-3.12h3.12v-2h-3.12v-3.12Zm-39.54-71.53h-2v3.12h-3.12v2h3.12v3.12h2v-3.12h3.12v-2h-3.12v-3.12Zm39.54,111.07h-2v3.12h-3.12v2h3.12v3.12h2v-3.12h3.12v-2h-3.12v-3.12Zm0-71.53h-2v3.12h-3.12v2h3.12v3.12h2v-3.12h3.12v-2h-3.12v-3.12Zm-19.77-98.84h-2v3.12h-3.12v2h3.12v3.12h2v-3.12h3.12v-2h-3.12v-3.12Zm19.77-19.77h-2v3.12h-3.12v2h3.12v3.12h2v-3.12h3.12v-2h-3.12v-3.12Zm0,229.67h-2v3.12h-3.12v2h3.12v3.12h2v-3.12h3.12v-2h-3.12v-3.12Zm0-190.13h-2v3.12h-3.12v2h3.12v3.12h2v-3.12h3.12v-2h-3.12v-3.12Zm0,39.53h-2v3.12h-3.12v2h3.12v3.12h2v-3.12h3.12v-2h-3.12v-3.12Zm-19.77-130.83h-2v3.12h-3.12v2h3.12v3.12h2v-3.12h3.12v-2h-3.12v-3.12Zm0-39.54h-2v3.12h-3.12v2h3.12v3.12h2v-3.12h3.12v-2h-3.12v-3.12Zm0,79.07h-2v3.12h-3.12v2h3.12v3.12h2v-3.12h3.12v-2h-3.12v-3.12Zm19.77,313.43h-2v3.12h-3.12v2h3.12v3.12h2v-3.12h3.12v-2h-3.12v-3.12Zm0-32h-2v3.12h-3.12v2h3.12v3.12h2v-3.12h3.12v-2h-3.12v-3.12Zm0,111.06h-2v3.12h-3.12v2h3.12v3.12h2v-3.12h3.12v-2h-3.12v-3.12Zm0-39.53h-2v3.12h-3.12v2h3.12v3.12h2v-3.12h3.12v-2h-3.12v-3.12Zm241.9-392.5h-2v3.12h-3.12v2h3.12v3.12h2v-3.12h3.12v-2h-3.12v-3.12Zm209.9-19.77h-2v3.12h-3.12v2h3.12v3.12h2v-3.12h3.12v-2h-3.12v-3.12Zm0-39.53h-2v3.12h-3.12v2h3.12v3.12h2v-3.12h3.12v-2h-3.12v-3.12Zm19.77,511.1h-2v3.12h-3.12v2h3.12v3.12h2v-3.12h3.12v-2h-3.12v-3.12Zm-19.77-432.03h-2v3.12h-3.12v2h3.12v3.12h2v-3.12h3.12v-2h-3.12v-3.12Zm19.77,281.43h-2v3.12h-3.12v2h3.12v3.12h2v-3.12h3.12v-2h-3.12v-3.12Zm0,111.06h-2v3.12h-3.12v2h3.12v3.12h2v-3.12h3.12v-2h-3.12v-3.12Zm0-71.53h-2v3.12h-3.12v2h3.12v3.12h2v-3.12h3.12v-2h-3.12v-3.12Zm-19.77-288.97h-2v3.12h-3.12v2h3.12v3.12h2v-3.12h3.12v-2h-3.12v-3.12Zm19.77,320.97h-2v3.12h-3.12v2h3.12v3.12h2v-3.12h3.12v-2h-3.12v-3.12Zm-19.77-130.83h-2v3.12h-3.12v2h3.12v3.12h2v-3.12h3.12v-2h-3.12v-3.12Zm0,39.53h-2v3.12h-3.12v2h3.12v3.12h2v-3.12h3.12v-2h-3.12v-3.12Zm0,39.54h-2v3.12h-3.12v2h3.12v3.12h2v-3.12h3.12v-2h-3.12v-3.12Zm0-229.67h-2v3.12h-3.12v2h3.12v3.12h2v-3.12h3.12v-2h-3.12v-3.12Zm0,39.53h-2v3.12h-3.12v2h3.12v3.12h2v-3.12h3.12v-2h-3.12v-3.12Zm0,39.54h-2v3.12h-3.12v2h3.12v3.12h2v-3.12h3.12v-2h-3.12v-3.12Zm0,32h-2v3.12h-3.12v2h3.12v3.12h2v-3.12h3.12v-2h-3.12v-3.12Zm19.77-51.76h-2v3.12h-3.12v2h3.12v3.12h2v-3.12h3.12v-2h-3.12v-3.12Zm19.76,241.9h-2v3.12h-3.12v2h3.12v3.12h2v-3.12h3.12v-2h-3.12v-3.12Zm0,39.53h-2v3.12h-3.12v2h3.12v3.12h2v-3.12h3.12v-2h-3.12v-3.12Zm-19.76-471.57h-2v3.12h-3.12v2h3.12v3.12h2v-3.12h3.12v-2h-3.12v-3.12Zm19.76,392.5h-2v3.12h-3.12v2h3.12v3.12h2v-3.12h3.12v-2h-3.12v-3.12Zm0-111.06h-2v3.12h-3.12v2h3.12v3.12h2v-3.12h3.12v-2h-3.12v-3.12Zm0,39.53h-2v3.12h-3.12v2h3.12v3.12h2v-3.12h3.12v-2h-3.12v-3.12Zm0,39.54h-2v3.12h-3.12v2h3.12v3.12h2v-3.12h3.12v-2h-3.12v-3.12Zm-19.76-209.9h-2v3.12h-3.12v2h3.12v3.12h2v-3.12h3.12v-2h-3.12v-3.12Zm0,79.07h-2v3.12h-3.12v2h3.12v3.12h2v-3.12h3.12v-2h-3.12v-3.12Zm0-190.13h-2v3.12h-3.12v2h3.12v3.12h2v-3.12h3.12v-2h-3.12v-3.12Zm-19.77,352.96h-2v3.12h-3.12v2h3.12v3.12h2v-3.12h3.12v-2h-3.12v-3.12Zm19.77-130.83h-2v3.12h-3.12v2h3.12v3.12h2v-3.12h3.12v-2h-3.12v-3.12Zm0-182.6h-2v3.12h-3.12v2h3.12v3.12h2v-3.12h3.12v-2h-3.12v-3.12Zm0,222.13h-2v3.12h-3.12v2h3.12v3.12h2v-3.12h3.12v-2h-3.12v-3.12Zm0-190.13h-2v3.12h-3.12v2h3.12v3.12h2v-3.12h3.12v-2h-3.12v-3.12Zm-241.9,98.84h-2v3.12h-3.12v2h3.12v3.12h2v-3.12h3.12v-2h-3.12v-3.12Zm182.6-39.54h-2v3.12h-3.12v2h3.12v3.12h2v-3.12h3.12v-2h-3.12v-3.12Zm0-39.53h-2v3.12h-3.12v2h3.12v3.12h2v-3.12h3.12v-2h-3.12v-3.12Zm39.54,301.2h-2v3.12h-3.12v2h3.12v3.12h2v-3.12h3.12v-2h-3.12v-3.12Zm-39.54-340.73h-2v3.12h-3.12v2h3.12v3.12h2v-3.12h3.12v-2h-3.12v-3.12Zm0-71.53h-2v3.12h-3.12v2h3.12v3.12h2v-3.12h3.12v-2h-3.12v-3.12Zm-19.77,19.77h-2v3.12h-3.12v2h3.12v3.12h2v-3.12h3.12v-2h-3.12v-3.12Zm19.77,19.77h-2v3.12h-3.12v2h3.12v3.12h2v-3.12h3.12v-2h-3.12v-3.12Zm0,372.73h-2v3.12h-3.12v2h3.12v3.12h2v-3.12h3.12v-2h-3.12v-3.12Zm0,39.53h-2v3.12h-3.12v2h3.12v3.12h2v-3.12h3.12v-2h-3.12v-3.12Zm-19.77-471.57h-2v3.12h-3.12v2h3.12v3.12h2v-3.12h3.12v-2h-3.12v-3.12Zm19.77-19.77h-2v3.12h-3.12v2h3.12v3.12h2v-3.12h3.12v-2h-3.12v-3.12Zm0,412.26h-2v3.12h-3.12v2h3.12v3.12h2v-3.12h3.12v-2h-3.12v-3.12Zm0-71.53h-2v3.12h-3.12v2h3.12v3.12h2v-3.12h3.12v-2h-3.12v-3.12Zm0-39.53h-2v3.12h-3.12v2h3.12v3.12h2v-3.12h3.12v-2h-3.12v-3.12Zm0,79.07h-2v3.12h-3.12v2h3.12v3.12h2v-3.12h3.12v-2h-3.12v-3.12Zm0-150.6h-2v3.12h-3.12v2h3.12v3.12h2v-3.12h3.12v-2h-3.12v-3.12Zm19.77-98.84h-2v3.12h-3.12v2h3.12v3.12h2v-3.12h3.12v-2h-3.12v-3.12Zm0,39.53h-2v3.12h-3.12v2h3.12v3.12h2v-3.12h3.12v-2h-3.12v-3.12Zm59.3,91.3h-2v3.12h-3.12v2h3.12v3.12h2v-3.12h3.12v-2h-3.12v-3.12Zm-59.3-241.9h-2v3.12h-3.12v2h3.12v3.12h2v-3.12h3.12v-2h-3.12v-3.12Zm0,39.54h-2v3.12h-3.12v2h3.12v3.12h2v-3.12h3.12v-2h-3.12v-3.12Zm19.77,432.03h-2v3.12h-3.12v2h3.12v3.12h2v-3.12h3.12v-2h-3.12v-3.12Zm-19.77-281.43h-2v3.12h-3.12v2h3.12v3.12h2v-3.12h3.12v-2h-3.12v-3.12Zm0,71.53h-2v3.12h-3.12v2h3.12v3.12h2v-3.12h3.12v-2h-3.12v-3.12Zm0,150.6h-2v3.12h-3.12v2h3.12v3.12h2v-3.12h3.12v-2h-3.12v-3.12Zm0-182.6h-2v3.12h-3.12v2h3.12v3.12h2v-3.12h3.12v-2h-3.12v-3.12Zm0,222.13h-2v3.12h-3.12v2h3.12v3.12h2v-3.12h3.12v-2h-3.12v-3.12Zm0-71.53h-2v3.12h-3.12v2h3.12v3.12h2v-3.12h3.12v-2h-3.12v-3.12Zm0,111.06h-2v3.12h-3.12v2h3.12v3.12h2v-3.12h3.12v-2h-3.12v-3.12Zm0-150.6h-2v3.12h-3.12v2h3.12v3.12h2v-3.12h3.12v-2h-3.12v-3.12Zm0-39.54h-2v3.12h-3.12v2h3.12v3.12h2v-3.12h3.12v-2h-3.12v-3.12Zm-19.77-59.3h-2v3.12h-3.12v2h3.12v3.12h2v-3.12h3.12v-2h-3.12v-3.12Zm130.83-91.3h-2v3.12h-3.12v2h3.12v3.12h2v-3.12h3.12v-2h-3.12v-3.12Zm0,39.54h-2v3.12h-3.12v2h3.12v3.12h2v-3.12h3.12v-2h-3.12v-3.12Zm0,111.06h-2v3.12h-3.12v2h3.12v3.12h2v-3.12h3.12v-2h-3.12v-3.12Zm0-39.53h-2v3.12h-3.12v2h3.12v3.12h2v-3.12h3.12v-2h-3.12v-3.12Zm0-32h-2v3.12h-3.12v2h3.12v3.12h2v-3.12h3.12v-2h-3.12v-3.12Zm0-190.13h-2v3.12h-3.12v2h3.12v3.12h2v-3.12h3.12v-2h-3.12v-3.12Zm0,71.53h-2v3.12h-3.12v2h3.12v3.12h2v-3.12h3.12v-2h-3.12v-3.12Zm0-32h-2v3.12h-3.12v2h3.12v3.12h2v-3.12h3.12v-2h-3.12v-3.12Zm-12.23-59.3h-2v3.12h-3.12v2h3.12v3.12h2v-3.12h3.12v-2h-3.12v-3.12Zm0-39.53h-2v3.12h-3.12v2h3.12v3.12h2v-3.12h3.12v-2h-3.12v-3.12Zm12.23,360.5h-2v3.12h-3.12v2h3.12v3.12h2v-3.12h3.12v-2h-3.12v-3.12Zm0-340.73h-2v3.12h-3.12v2h3.12v3.12h2v-3.12h3.12v-2h-3.12v-3.12Zm0,491.33h-2v3.12h-3.12v2h3.12v3.12h2v-3.12h3.12v-2h-3.12v-3.12Zm0-111.06h-2v3.12h-3.12v2h3.12v3.12h2v-3.12h3.12v-2h-3.12v-3.12Zm0,71.53h-2v3.12h-3.12v2h3.12v3.12h2v-3.12h3.12v-2h-3.12v-3.12Zm0-39.53h-2v3.12h-3.12v2h3.12v3.12h2v-3.12h3.12v-2h-3.12v-3.12Zm17.77-273.2h2v-3.12h3.12v-2h-3.12v-3.12h-2v3.12h-3.12v2h3.12v3.12Zm0-71.53h2v-3.12h3.12v-2h-3.12v-3.12h-2v3.12h-3.12v2h3.12v3.12Zm0,32h2v-3.12h3.12v-2h-3.12v-3.12h-2v3.12h-3.12v2h3.12v3.12Zm0,79.07h2v-3.12h3.12v-2h-3.12v-3.12h-2v3.12h-3.12v2h3.12v3.12Zm-30-119.3h-2v3.12h-3.12v2h3.12v3.12h2v-3.12h3.12v-2h-3.12v-3.12Zm30,420.5h2v-3.12h3.12v-2h-3.12v-3.12h-2v3.12h-3.12v2h3.12v3.12Zm0-451.8h2v-3.12h3.12v-2h-3.12v-3.12h-2v3.12h-3.12v2h3.12v3.12Zm0-39.53h2v-3.12h3.12v-2h-3.12v-3.12h-2v3.12h-3.12v2h3.12v3.12Zm30.63-46.99v582.09H154.72V126.29h743.54Zm-20,20h-28.4v2.1h3.12v2h-3.12v3.12h-2v-3.12h-3.12v-2h3.12v-2.1h-30v2.1h3.12v2h-3.12v3.12h-2v-3.12h-3.12v-2h3.12v-2.1h-37.53v2.1h3.12v2h-3.12v3.12h-2v-3.12h-3.12v-2h3.12v-2.1h-37.54v2.1h3.12v2h-3.12v3.12h-2v-3.12h-3.12v-2h3.12v-2.1h-37.54v2.1h3.12v2h-3.12v3.12h-2v-3.12h-3.12v-2h3.12v-2.1h-30v2.1h3.12v2h-3.12v3.12h-2v-3.12h-3.12v-2h3.12v-2.1h-37.53v2.1h3.12v2h-3.12v3.12h-2v-3.12h-3.12v-2h3.12v-2.1h-37.54v2.1h3.12v2h-3.12v3.12h-2v-3.12h-3.12v-2h3.12v-2.1h-37.54v2.1h3.12v2h-3.12v3.12h-2v-3.12h-3.12v-2h3.12v-2.1h-30v2.1h3.12v2h-3.12v3.12h-2v-3.12h-3.12v-2h3.12v-2.1h-37.53v2.1h3.12v2h-3.12v3.12h-2v-3.12h-3.12v-2h3.12v-2.1h-37.54v2.1h3.12v2h-3.12v3.12h-2v-3.12h-3.12v-2h3.12v-2.1h-37.54v2.1h3.12v2h-3.12v3.12h-2v-3.12h-3.12v-2h3.12v-2.1h-30v2.1h3.12v2h-3.12v3.12h-2v-3.12h-3.12v-2h3.12v-2.1h-37.53v2.1h3.12v2h-3.12v3.12h-2v-3.12h-3.12v-2h3.12v-2.1h-37.54v2.1h3.12v2h-3.12v3.12h-2v-3.12h-3.12v-2h3.12v-2.1h-37.54v2.1h3.12v2h-3.12v3.12h-2v-3.12h-3.12v-2h3.12v-2.1h-30v2.1h3.12v2h-3.12v3.12h-2v-3.12h-3.12v-2h3.12v-2.1h-37.53v2.1h3.12v2h-3.12v3.12h-1.21v31.3h1.21v3.12h3.12v2h-3.12v3.12h-1.21v31.3h1.21v3.12h3.12v2h-3.12v3.12h-1.21v31.3h1.21v3.12h3.12v2h-3.12v3.12h-1.21v23.76h1.21v3.12h3.12v2h-3.12v3.12h-1.21v31.3h1.21v3.12h3.12v2h-3.12v3.12h-1.21v31.3h1.21v3.12h3.12v2h-3.12v3.12h-1.21v31.3h1.21v3.12h3.12v2h-3.12v3.12h-1.21v23.76h1.21v3.12h3.12v2h-3.12v3.12h-1.21v31.3h1.21v3.12h3.12v2h-3.12v3.12h-1.21v31.3h1.21v3.12h3.12v2h-3.12v3.12h-1.21v31.3h1.21v3.12h3.12v2h-3.12v3.12h-1.21v23.76h1.21v3.12h3.12v2h-3.12v3.12h-1.21v31.3h1.21v3.12h3.12v2h-3.12v3.12h-1.21v31.3h1.21v3.12h3.12v2h-3.12v3.12h-1.21v4h703.54V146.29Zm-10.63,439.25h2v-3.12h3.12v-2h-3.12v-3.12h-2v3.12h-3.12v2h3.12v3.12Zm0-32h2v-3.12h3.12v-2h-3.12v-3.12h-2v3.12h-3.12v2h3.12v3.12Zm0-150.6h2v-3.12h3.12v-2h-3.12v-3.12h-2v3.12h-3.12v2h3.12v3.12Zm0,222.13h2v-3.12h3.12v-2h-3.12v-3.12h-2v3.12h-3.12v2h3.12v3.12Zm0-190.13h2v-3.12h3.12v-2h-3.12v-3.12h-2v3.12h-3.12v2h3.12v3.12Zm0,79.07h2v-3.12h3.12v-2h-3.12v-3.12h-2v3.12h-3.12v2h3.12v3.12Zm0-39.53h2v-3.12h3.12v-2h-3.12v-3.12h-2v3.12h-3.12v2h3.12v3.12Zm-49.76-99.54h-2v3.12h-3.12v2h3.12v3.12h2v-3.12h3.12v-2h-3.12v-3.12Zm0,190.13h-2v3.12h-3.12v2h3.12v3.12h2v-3.12h3.12v-2h-3.12v-3.12Zm0-39.54h-2v3.12h-3.12v2h3.12v3.12h2v-3.12h3.12v-2h-3.12v-3.12Zm0,111.06h-2v3.12h-3.12v2h3.12v3.12h2v-3.12h3.12v-2h-3.12v-3.12Zm0-39.53h-2v3.12h-3.12v2h3.12v3.12h2v-3.12h3.12v-2h-3.12v-3.12Zm0-111.07h-2v3.12h-3.12v2h3.12v3.12h2v-3.12h3.12v-2h-3.12v-3.12Zm0-71.53h-2v3.12h-3.12v2h3.12v3.12h2v-3.12h3.12v-2h-3.12v-3.12Zm0,32h-2v3.12h-3.12v2h3.12v3.12h2v-3.12h3.12v-2h-3.12v-3.12Zm-19.77-51.76h-2v3.12h-3.12v2h3.12v3.12h2v-3.12h3.12v-2h-3.12v-3.12Zm0-79.07h-2v3.12h-3.12v2h3.12v3.12h2v-3.12h3.12v-2h-3.12v-3.12Zm0,39.53h-2v3.12h-3.12v2h3.12v3.12h2v-3.12h3.12v-2h-3.12v-3.12Zm19.77,320.97h-2v3.12h-3.12v2h3.12v3.12h2v-3.12h3.12v-2h-3.12v-3.12Zm19.77-400.04h-2v3.12h-3.12v2h3.12v3.12h2v-3.12h3.12v-2h-3.12v-3.12Zm-39.54-111.06h-2v3.12h-3.12v2h3.12v3.12h2v-3.12h3.12v-2h-3.12v-3.12Zm0,39.53h-2v3.12h-3.12v2h3.12v3.12h2v-3.12h3.12v-2h-3.12v-3.12Zm0,39.54h-2v3.12h-3.12v2h3.12v3.12h2v-3.12h3.12v-2h-3.12v-3.12Zm0,32h-2v3.12h-3.12v2h3.12v3.12h2v-3.12h3.12v-2h-3.12v-3.12Zm39.54,190.13h-2v3.12h-3.12v2h3.12v3.12h2v-3.12h3.12v-2h-3.12v-3.12Zm0-39.54h-2v3.12h-3.12v2h3.12v3.12h2v-3.12h3.12v-2h-3.12v-3.12Zm0,79.07h-2v3.12h-3.12v2h3.12v3.12h2v-3.12h3.12v-2h-3.12v-3.12Zm0-111.06h-2v3.12h-3.12v2h3.12v3.12h2v-3.12h3.12v-2h-3.12v-3.12Zm0-79.07h-2v3.12h-3.12v2h3.12v3.12h2v-3.12h3.12v-2h-3.12v-3.12Zm0,39.53h-2v3.12h-3.12v2h3.12v3.12h2v-3.12h3.12v-2h-3.12v-3.12Zm0,190.13h-2v3.12h-3.12v2h3.12v3.12h2v-3.12h3.12v-2h-3.12v-3.12Zm0,32h-2v3.12h-3.12v2h3.12v3.12h2v-3.12h3.12v-2h-3.12v-3.12Zm-19.77-352.96h-2v3.12h-3.12v2h3.12v3.12h2v-3.12h3.12v-2h-3.12v-3.12Zm0,39.54h-2v3.12h-3.12v2h3.12v3.12h2v-3.12h3.12v-2h-3.12v-3.12Zm0,32h-2v3.12h-3.12v2h3.12v3.12h2v-3.12h3.12v-2h-3.12v-3.12Zm19.77,320.97h-2v3.12h-3.12v2h3.12v3.12h2v-3.12h3.12v-2h-3.12v-3.12Zm-19.77-281.43h-2v3.12h-3.12v2h3.12v3.12h2v-3.12h3.12v-2h-3.12v-3.12Zm19.77,320.97h-2v3.12h-3.12v2h3.12v3.12h2v-3.12h3.12v-2h-3.12v-3.12Zm-19.77-471.57h-2v3.12h-3.12v2h3.12v3.12h2v-3.12h3.12v-2h-3.12v-3.12Zm-79.07,79.07h-2v3.12h-3.12v2h3.12v3.12h2v-3.12h3.12v-2h-3.12v-3.12Zm-150.6,182.6h-2v3.12h-3.12v2h3.12v3.12h2v-3.12h3.12v-2h-3.12v-3.12Zm0-71.53h-2v3.12h-3.12v2h3.12v3.12h2v-3.12h3.12v-2h-3.12v-3.12Zm0,39.54h-2v3.12h-3.12v2h3.12v3.12h2v-3.12h3.12v-2h-3.12v-3.12Zm0-118.6h-2v3.12h-3.12v2h3.12v3.12h2v-3.12h3.12v-2h-3.12v-3.12Zm0,39.53h-2v3.12h-3.12v2h3.12v3.12h2v-3.12h3.12v-2h-3.12v-3.12Zm39.54,261.67h-2v3.12h-3.12v2h3.12v3.12h2v-3.12h3.12v-2h-3.12v-3.12Zm-39.54-333.2h-2v3.12h-3.12v2h3.12v3.12h2v-3.12h3.12v-2h-3.12v-3.12Zm0-39.54h-2v3.12h-3.12v2h3.12v3.12h2v-3.12h3.12v-2h-3.12v-3.12Zm0,340.73h-2v3.12h-3.12v2h3.12v3.12h2v-3.12h3.12v-2h-3.12v-3.12Zm0,111.06h-2v3.12h-3.12v2h3.12v3.12h2v-3.12h3.12v-2h-3.12v-3.12Zm0-39.54h-2v3.12h-3.12v2h3.12v3.12h2v-3.12h3.12v-2h-3.12v-3.12Zm-19.77-471.56h-2v3.12h-3.12v2h3.12v3.12h2v-3.12h3.12v-2h-3.12v-3.12Zm19.77,360.5h-2v3.12h-3.12v2h3.12v3.12h2v-3.12h3.12v-2h-3.12v-3.12Zm0-39.54h-2v3.12h-3.12v2h3.12v3.12h2v-3.12h3.12v-2h-3.12v-3.12Zm0,111.07h-2v3.12h-3.12v2h3.12v3.12h2v-3.12h3.12v-2h-3.12v-3.12Zm19.77,59.3h-2v3.12h-3.12v2h3.12v3.12h2v-3.12h3.12v-2h-3.12v-3.12Zm0-190.13h-2v3.12h-3.12v2h3.12v3.12h2v-3.12h3.12v-2h-3.12v-3.12Zm0-222.13h-2v3.12h-3.12v2h3.12v3.12h2v-3.12h3.12v-2h-3.12v-3.12Zm0,71.53h-2v3.12h-3.12v2h3.12v3.12h2v-3.12h3.12v-2h-3.12v-3.12Zm0,301.2h-2v3.12h-3.12v2h3.12v3.12h2v-3.12h3.12v-2h-3.12v-3.12Zm0-340.73h-2v3.12h-3.12v2h3.12v3.12h2v-3.12h3.12v-2h-3.12v-3.12Zm0-111.06h-2v3.12h-3.12v2h3.12v3.12h2v-3.12h3.12v-2h-3.12v-3.12Zm19.77,471.56h-2v3.12h-3.12v2h3.12v3.12h2v-3.12h3.12v-2h-3.12v-3.12Zm0,39.54h-2v3.12h-3.12v2h3.12v3.12h2v-3.12h3.12v-2h-3.12v-3.12Zm-19.77-471.57h-2v3.12h-3.12v2h3.12v3.12h2v-3.12h3.12v-2h-3.12v-3.12Zm0,301.2h-2v3.12h-3.12v2h3.12v3.12h2v-3.12h3.12v-2h-3.12v-3.12Zm0,39.54h-2v3.12h-3.12v2h3.12v3.12h2v-3.12h3.12v-2h-3.12v-3.12Zm0-190.13h-2v3.12h-3.12v2h3.12v3.12h2v-3.12h3.12v-2h-3.12v-3.12Zm0,222.13h-2v3.12h-3.12v2h3.12v3.12h2v-3.12h3.12v-2h-3.12v-3.12Zm-39.54-372.73h-2v3.12h-3.12v2h3.12v3.12h2v-3.12h3.12v-2h-3.12v-3.12Zm39.54,190.13h-2v3.12h-3.12v2h3.12v3.12h2v-3.12h3.12v-2h-3.12v-3.12Zm0,32h-2v3.12h-3.12v2h3.12v3.12h2v-3.12h3.12v-2h-3.12v-3.12Zm-19.77-241.9h-2v3.12h-3.12v2h3.12v3.12h2v-3.12h3.12v-2h-3.12v-3.12Zm-39.54,380.27h-2v3.12h-3.12v2h3.12v3.12h2v-3.12h3.12v-2h-3.12v-3.12Zm0-39.54h-2v3.12h-3.12v2h3.12v3.12h2v-3.12h3.12v-2h-3.12v-3.12Zm0,71.53h-2v3.12h-3.12v2h3.12v3.12h2v-3.12h3.12v-2h-3.12v-3.12Zm0-182.6h-2v3.12h-3.12v2h3.12v3.12h2v-3.12h3.12v-2h-3.12v-3.12Zm0-39.54h-2v3.12h-3.12v2h3.12v3.12h2v-3.12h3.12v-2h-3.12v-3.12Zm0,261.66h-2v3.12h-3.12v2h3.12v3.12h2v-3.12h3.12v-2h-3.12v-3.12Zm0-190.13h-2v3.12h-3.12v2h3.12v3.12h2v-3.12h3.12v-2h-3.12v-3.12Zm0,39.53h-2v3.12h-3.12v2h3.12v3.12h2v-3.12h3.12v-2h-3.12v-3.12Zm0,190.13h-2v3.12h-3.12v2h3.12v3.12h2v-3.12h3.12v-2h-3.12v-3.12Zm-12.23-320.97h-2v3.12h-3.12v2h3.12v3.12h2v-3.12h3.12v-2h-3.12v-3.12Zm0-79.07h-2v3.12h-3.12v2h3.12v3.12h2v-3.12h3.12v-2h-3.12v-3.12Zm0,39.54h-2v3.12h-3.12v2h3.12v3.12h2v-3.12h3.12v-2h-3.12v-3.12Zm0-71.53h-2v3.12h-3.12v2h3.12v3.12h2v-3.12h3.12v-2h-3.12v-3.12Zm0-79.07h-2v3.12h-3.12v2h3.12v3.12h2v-3.12h3.12v-2h-3.12v-3.12Zm0,39.53h-2v3.12h-3.12v2h3.12v3.12h2v-3.12h3.12v-2h-3.12v-3.12Zm32,71.53h-2v3.12h-3.12v2h3.12v3.12h2v-3.12h3.12v-2h-3.12v-3.12Zm0,229.67h-2v3.12h-3.12v2h3.12v3.12h2v-3.12h3.12v-2h-3.12v-3.12Zm0-39.53h-2v3.12h-3.12v2h3.12v3.12h2v-3.12h3.12v-2h-3.12v-3.12Zm0-71.53h-2v3.12h-3.12v2h3.12v3.12h2v-3.12h3.12v-2h-3.12v-3.12Zm0,32h-2v3.12h-3.12v2h3.12v3.12h2v-3.12h3.12v-2h-3.12v-3.12Zm0-182.6h-2v3.12h-3.12v2h3.12v3.12h2v-3.12h3.12v-2h-3.12v-3.12Zm0,111.06h-2v3.12h-3.12v2h3.12v3.12h2v-3.12h3.12v-2h-3.12v-3.12Zm0-39.53h-2v3.12h-3.12v2h3.12v3.12h2v-3.12h3.12v-2h-3.12v-3.12Zm0,301.2h-2v3.12h-3.12v2h3.12v3.12h2v-3.12h3.12v-2h-3.12v-3.12Zm-19.77-352.96h-2v3.12h-3.12v2h3.12v3.12h2v-3.12h3.12v-2h-3.12v-3.12Zm0,32h-2v3.12h-3.12v2h3.12v3.12h2v-3.12h3.12v-2h-3.12v-3.12Zm0-111.07h-2v3.12h-3.12v2h3.12v3.12h2v-3.12h3.12v-2h-3.12v-3.12Zm0,150.6h-2v3.12h-3.12v2h3.12v3.12h2v-3.12h3.12v-2h-3.12v-3.12Zm19.77,320.97h-2v3.12h-3.12v2h3.12v3.12h2v-3.12h3.12v-2h-3.12v-3.12Zm0-79.07h-2v3.12h-3.12v2h3.12v3.12h2v-3.12h3.12v-2h-3.12v-3.12Zm0-32h-2v3.12h-3.12v2h3.12v3.12h2v-3.12h3.12v-2h-3.12v-3.12Zm79.07-269.2h-2v3.12h-3.12v2h3.12v3.12h2v-3.12h3.12v-2h-3.12v-3.12Zm39.54,269.2h-2v3.12h-3.12v2h3.12v3.12h2v-3.12h3.12v-2h-3.12v-3.12Zm0-39.54h-2v3.12h-3.12v2h3.12v3.12h2v-3.12h3.12v-2h-3.12v-3.12Zm0,111.07h-2v3.12h-3.12v2h3.12v3.12h2v-3.12h3.12v-2h-3.12v-3.12Zm0-150.6h-2v3.12h-3.12v2h3.12v3.12h2v-3.12h3.12v-2h-3.12v-3.12Zm0,111.06h-2v3.12h-3.12v2h3.12v3.12h2v-3.12h3.12v-2h-3.12v-3.12Zm0-222.13h-2v3.12h-3.12v2h3.12v3.12h2v-3.12h3.12v-2h-3.12v-3.12Zm0,71.53h-2v3.12h-3.12v2h3.12v3.12h2v-3.12h3.12v-2h-3.12v-3.12Zm0-111.06h-2v3.12h-3.12v2h3.12v3.12h2v-3.12h3.12v-2h-3.12v-3.12Zm0,79.07h-2v3.12h-3.12v2h3.12v3.12h2v-3.12h3.12v-2h-3.12v-3.12Zm-19.77-98.84h-2v3.12h-3.12v2h3.12v3.12h2v-3.12h3.12v-2h-3.12v-3.12Zm0,39.53h-2v3.12h-3.12v2h3.12v3.12h2v-3.12h3.12v-2h-3.12v-3.12Zm0,39.54h-2v3.12h-3.12v2h3.12v3.12h2v-3.12h3.12v-2h-3.12v-3.12Zm19.77,281.43h-2v3.12h-3.12v2h3.12v3.12h2v-3.12h3.12v-2h-3.12v-3.12Zm-19.77-392.5h-2v3.12h-3.12v2h3.12v3.12h2v-3.12h3.12v-2h-3.12v-3.12Zm0-79.07h-2v3.12h-3.12v2h3.12v3.12h2v-3.12h3.12v-2h-3.12v-3.12Zm0,39.54h-2v3.12h-3.12v2h3.12v3.12h2v-3.12h3.12v-2h-3.12v-3.12Zm32,222.13h-2v3.12h-3.12v2h3.12v3.12h2v-3.12h3.12v-2h-3.12v-3.12Zm-32-32h-2v3.12h-3.12v2h3.12v3.12h2v-3.12h3.12v-2h-3.12v-3.12Zm32,71.53h-2v3.12h-3.12v2h3.12v3.12h2v-3.12h3.12v-2h-3.12v-3.12Zm0-71.53h-2v3.12h-3.12v2h3.12v3.12h2v-3.12h3.12v-2h-3.12v-3.12Zm0-39.54h-2v3.12h-3.12v2h3.12v3.12h2v-3.12h3.12v-2h-3.12v-3.12Zm0-79.07h-2v3.12h-3.12v2h3.12v3.12h2v-3.12h3.12v-2h-3.12v-3.12Zm0,39.53h-2v3.12h-3.12v2h3.12v3.12h2v-3.12h3.12v-2h-3.12v-3.12Zm0,190.13h-2v3.12h-3.12v2h3.12v3.12h2v-3.12h3.12v-2h-3.12v-3.12Zm0,39.54h-2v3.12h-3.12v2h3.12v3.12h2v-3.12h3.12v-2h-3.12v-3.12Zm-12.23-400.04h-2v3.12h-3.12v2h3.12v3.12h2v-3.12h3.12v-2h-3.12v-3.12Zm0,39.53h-2v3.12h-3.12v2h3.12v3.12h2v-3.12h3.12v-2h-3.12v-3.12Zm0,39.54h-2v3.12h-3.12v2h3.12v3.12h2v-3.12h3.12v-2h-3.12v-3.12Zm12.23,352.96h-2v3.12h-3.12v2h3.12v3.12h2v-3.12h3.12v-2h-3.12v-3.12Zm0,79.07h-2v3.12h-3.12v2h3.12v3.12h2v-3.12h3.12v-2h-3.12v-3.12Zm-12.23-400.04h-2v3.12h-3.12v2h3.12v3.12h2v-3.12h3.12v-2h-3.12v-3.12Zm12.23,360.5h-2v3.12h-3.12v2h3.12v3.12h2v-3.12h3.12v-2h-3.12v-3.12Zm-51.76-91.3h-2v3.12h-3.12v2h3.12v3.12h2v-3.12h3.12v-2h-3.12v-3.12Zm0-39.54h-2v3.12h-3.12v2h3.12v3.12h2v-3.12h3.12v-2h-3.12v-3.12Zm-19.77-281.43h-2v3.12h-3.12v2h3.12v3.12h2v-3.12h3.12v-2h-3.12v-3.12Zm19.77,432.03h-2v3.12h-3.12v2h3.12v3.12h2v-3.12h3.12v-2h-3.12v-3.12Zm-19.77-392.5h-2v3.12h-3.12v2h3.12v3.12h2v-3.12h3.12v-2h-3.12v-3.12Zm0,301.2h-2v3.12h-3.12v2h3.12v3.12h2v-3.12h3.12v-2h-3.12v-3.12Zm19.77,12.23h-2v3.12h-3.12v2h3.12v3.12h2v-3.12h3.12v-2h-3.12v-3.12Zm0,39.54h-2v3.12h-3.12v2h3.12v3.12h2v-3.12h3.12v-2h-3.12v-3.12Zm-19.77-432.03h-2v3.12h-3.12v2h3.12v3.12h2v-3.12h3.12v-2h-3.12v-3.12Zm0,301.2h-2v3.12h-3.12v2h3.12v3.12h2v-3.12h3.12v-2h-3.12v-3.12Zm0-190.13h-2v3.12h-3.12v2h3.12v3.12h2v-3.12h3.12v-2h-3.12v-3.12Zm0,229.67h-2v3.12h-3.12v2h3.12v3.12h2v-3.12h3.12v-2h-3.12v-3.12Zm0-79.07h-2v3.12h-3.12v2h3.12v3.12h2v-3.12h3.12v-2h-3.12v-3.12Zm0-32h-2v3.12h-3.12v2h3.12v3.12h2v-3.12h3.12v-2h-3.12v-3.12Zm0-79.07h-2v3.12h-3.12v2h3.12v3.12h2v-3.12h3.12v-2h-3.12v-3.12Zm0,39.54h-2v3.12h-3.12v2h3.12v3.12h2v-3.12h3.12v-2h-3.12v-3.12Zm19.77,19.77h-2v3.12h-3.12v2h3.12v3.12h2v-3.12h3.12v-2h-3.12v-3.12Zm0-229.67h-2v3.12h-3.12v2h3.12v3.12h2v-3.12h3.12v-2h-3.12v-3.12Zm19.77,471.56h-2v3.12h-3.12v2h3.12v3.12h2v-3.12h3.12v-2h-3.12v-3.12Zm0,39.54h-2v3.12h-3.12v2h3.12v3.12h2v-3.12h3.12v-2h-3.12v-3.12Zm0-79.07h-2v3.12h-3.12v2h3.12v3.12h2v-3.12h3.12v-2h-3.12v-3.12Zm0-111.07h-2v3.12h-3.12v2h3.12v3.12h2v-3.12h3.12v-2h-3.12v-3.12Zm-19.77-19.77h-2v3.12h-3.12v2h3.12v3.12h2v-3.12h3.12v-2h-3.12v-3.12Zm19.77,59.3h-2v3.12h-3.12v2h3.12v3.12h2v-3.12h3.12v-2h-3.12v-3.12Zm0,39.54h-2v3.12h-3.12v2h3.12v3.12h2v-3.12h3.12v-2h-3.12v-3.12Zm0-118.6h-2v3.12h-3.12v2h3.12v3.12h2v-3.12h3.12v-2h-3.12v-3.12Zm-19.77-241.9h-2v3.12h-3.12v2h3.12v3.12h2v-3.12h3.12v-2h-3.12v-3.12Zm0,150.6h-2v3.12h-3.12v2h3.12v3.12h2v-3.12h3.12v-2h-3.12v-3.12Zm0,71.53h-2v3.12h-3.12v2h3.12v3.12h2v-3.12h3.12v-2h-3.12v-3.12Zm0-182.6h-2v3.12h-3.12v2h3.12v3.12h2v-3.12h3.12v-2h-3.12v-3.12Zm51.76,19.77h-2v3.12h-3.12v2h3.12v3.12h2v-3.12h3.12v-2h-3.12v-3.12Zm-51.76,51.76h-2v3.12h-3.12v2h3.12v3.12h2v-3.12h3.12v-2h-3.12v-3.12Z"/>
    </g>
  </g>
</svg>