<?xml version="1.0" encoding="UTF-8"?>
<svg id="Layer_8_copy" data-name="Layer 8 copy" xmlns="http://www.w3.org/2000/svg" viewBox="0 0 763.41 1117.31">
  <defs>
    <style>
      .cls-1 {
        fill: #ffff7c;
      }
    </style>
  </defs>
  <g id="Other_Shapes_copy" data-name="Other Shapes copy">
    <g>
      <path class="cls-1" d="m341.45,685.79c2.44-6.52,1.32-13.84-2.96-19.33-3.81-4.89-9.65-7.69-15.76-7.69-.75,0-1.51.04-2.27.13l-182.95,20.87L398.16,186.59l-42.12,250.39c-.92,5.47.47,11.08,3.85,15.49s8.43,7.21,13.96,7.74l225.32,21.68-350.02,450.03,92.3-246.12Z"/>
      <path d="m681.88,494.53l-38.96-3.75,10.15-13.05c4.48-5.76,5.47-13.5,2.58-20.19s-9.19-11.29-16.45-11.99l-196.72-18.93,46.93-278.98c1.53-9.08-10.87-13.28-15.17-5.14l-41.21,77.98,25.17-149.66c1.63-9.68-4.01-19.11-13.31-22.26-9.3-3.15-19.51.92-24.1,9.6L84.43,694.59c-3.47,6.56-3.02,14.5,1.17,20.62,4.18,6.12,11.42,9.43,18.78,8.59l66.65-7.6-2.44,4.62c-3.05,5.77,1.61,12.59,8.09,11.85l109.14-12.45-120.23,320.61c-3.47,9.25.34,19.65,8.96,24.48,3.07,1.72,6.43,2.55,9.75,2.54,6,0,11.89-2.7,15.8-7.72l97.18-124.95-34.98,93.28c-3.26,8.7,8.29,15.16,14,7.83l411.21-528.71c3.93-5.05.74-12.44-5.63-13.06Zm-340.44,191.26c2.44-6.52,1.32-13.84-2.96-19.33-3.81-4.89-9.65-7.69-15.76-7.69-.75,0-1.51.04-2.27.13l-182.95,20.87L398.16,186.59l-42.12,250.39c-.92,5.47.47,11.08,3.85,15.49s8.43,7.21,13.96,7.74l225.32,21.68-350.02,450.03,92.3-246.12Z"/>
    </g>
  </g>
</svg>