<?xml version="1.0" encoding="UTF-8"?>
<svg id="Layer_8_copy" data-name="Layer 8 copy" xmlns="http://www.w3.org/2000/svg" viewBox="0 0 813.37 782.96">
  <defs>
    <style>
      .cls-1 {
        fill: #ffa4ff;
      }

      .cls-2 {
        fill: #87ffff;
      }
    </style>
  </defs>
  <g id="Other_Shapes_copy" data-name="Other Shapes copy">
    <g>
      <g>
        <path class="cls-1" d="m710.67,548.79c-1.21,4.44-3.35,8.43-6.15,11.81L224.71,202.77c-13.06-9.74-28.78-13.93-44.27-11.81-11.15,1.53-21.25,5.99-29.52,12.64l8.33-35.74c2.38-10.2,9.42-18.27,18.8-22.1,2.47-1.01,5.11-1.72,7.86-2.1,8.05-1.1,16.7,1.27,23.73,6.51l488.62,364.41c10.8,8.06,15.79,21.8,12.41,34.2Z"/>
        <path class="cls-2" d="m696.59,589.62L207.97,225.22c-7.03-5.24-15.68-7.61-23.73-6.51-2.75.38-5.39,1.09-7.86,2.1-9.38,3.82-16.42,11.89-18.8,22.1l-77.42,332.28c-2.12,9.11-.13,18.62,5.47,26.12,5.6,7.49,14.16,12.1,23.49,12.64l567.49,33.22c14.85.87,28.47-8.94,32.39-23.32,3.38-12.4-1.61-26.14-12.41-34.2Zm-155.55-31.74c-1.88,5.15-5.75,9.05-10.54,11.01-2.55,1.04-5.36,1.53-8.27,1.36h0s-325.96-19.08-325.96-19.08c-8.94-.52-17.13-4.93-22.49-12.1-5.36-7.17-7.27-16.28-5.24-25l40.43-173.54c2.07-8.88,8.42-16.06,16.99-19.19,8.57-3.13,18.04-1.75,25.35,3.71l283.29,211.27c6.73,5.02,9.32,13.68,6.44,21.57Z"/>
        <path class="cls-1" d="m187.82,527.12c-.88-.05-1.41-.52-1.7-.91-.29-.39-.59-1.03-.39-1.88l10.21-43.81,218.86,12.81,68.51,51.09-295.48-17.29Z"/>
      </g>
      <path d="m267.15,218.61l2.89-1.18.75,1.85-2.89,1.18,1.18,2.89-1.85.75-1.18-2.89-2.89,1.18-.75-1.85,2.89-1.18-1.18-2.89,1.85-.75,1.18,2.89Zm-13.25-32.52l-1.85.75,1.18,2.89-2.89,1.18.75,1.85,2.89-1.18,1.18,2.89,1.85-.75-1.18-2.89,2.89-1.18-.75-1.85-2.89,1.18-1.18-2.89Zm63.61,51.32l-1.85.75,1.18,2.89-2.89,1.18.75,1.85,2.89-1.18,1.18,2.89,1.85-.75-1.18-2.89,2.89-1.18-.75-1.85-2.89,1.18-1.18-2.89Zm-25.76-10.85l-1.85.75,1.18,2.89-2.89,1.18.75,1.85,2.89-1.18,1.18,2.89,1.85-.75-1.18-2.89,2.89-1.18-.75-1.85-2.89,1.18-1.18-2.89Zm40.68,47.45l-1.85.75,1.18,2.89-2.89,1.18.75,1.85,2.89-1.18,1.18,2.89,1.85-.75-1.18-2.89,2.89-1.18-.75-1.85-2.89,1.18-1.18-2.89Zm-130.06-109.62l-1.85.75,1.18,2.89-2.89,1.18.75,1.85,2.89-1.18,1.18,2.89,1.85-.75-1.18-2.89,2.89-1.18-.75-1.85-2.89,1.18-1.18-2.89Zm25.77,10.84l-1.85.75,1.18,2.89-2.89,1.18.75,1.85,2.89-1.18,1.18,2.89,1.85-.75-1.18-2.89,2.89-1.18-.75-1.85-2.89,1.18-1.18-2.89Zm130.06,109.62l-1.85.75,1.18,2.89-2.89,1.18.75,1.85,2.89-1.18,1.18,2.89,1.85-.75-1.18-2.89,2.89-1.18-.75-1.85-2.89,1.18-1.18-2.89Zm-185.46-108.39l-1.85.75,1.18,2.89-2.89,1.18.75,1.85,2.89-1.18,1.18,2.89,1.85-.75-1.18-2.89,2.89-1.18-.75-1.85-2.89,1.18-1.18-2.89Zm3.86-22.92l-1.85.75,1.18,2.89-2.89,1.18.75,1.85,2.89-1.18,1.18,2.89,1.85-.75-1.18-2.89,2.89-1.18-.75-1.85-2.89,1.18-1.18-2.89Zm445.58,327.62l-1.85.75,1.18,2.89-2.89,1.18.75,1.85,2.89-1.18,1.18,2.89,1.85-.75-1.18-2.89,2.89-1.18-.75-1.85-2.89,1.18-1.18-2.89Zm-40.69-47.45l-1.85.75,1.18,2.89-2.89,1.18.75,1.85,2.89-1.18,1.18,2.89,1.85-.75-1.18-2.89,2.89-1.18-.75-1.85-2.89,1.18-1.18-2.89Zm14.92,36.61l-1.85.75,1.18,2.89-2.89,1.18.75,1.85,2.89-1.18,1.18,2.89,1.85-.75-1.18-2.89,2.89-1.18-.75-1.85-2.89,1.18-1.18-2.89Zm-212.46-174.62l-1.85.75,1.18,2.89-2.89,1.18.75,1.85,2.89-1.18,1.18,2.89,1.85-.75-1.18-2.89,2.89-1.18-.75-1.85-2.89,1.18-1.18-2.89Zm282.77,210l-1.85.75,1.18,2.89-2.89,1.18.75,1.85,2.89-1.18,1.18,2.89,1.85-.75-1.18-2.89,2.89-1.18-.75-1.85-2.89,1.18-1.18-2.89Zm25.77,10.85l-1.85.75,1.18,2.89-2.89,1.18.75,1.85,2.89-1.18,1.18,2.89,1.85-.75-1.18-2.89,2.89-1.18-.75-1.85-2.89,1.18-1.18-2.89Zm-136.77-93.68l-1.85.75,1.18,2.89-2.89,1.18.75,1.85,2.89-1.18,1.18,2.89,1.85-.75-1.18-2.89,2.89-1.18-.75-1.85-2.89,1.18-1.18-2.89Zm148.85,123.31l-1.85.75,1.18,2.89-2.89,1.18.75,1.85,2.89-1.18,1.18,2.89,1.85-.75-1.18-2.89,2.89-1.18-.75-1.85-2.89,1.18-1.18-2.89Zm-63.61-51.32l-1.85.75,1.18,2.89-2.89,1.18.75,1.85,2.89-1.18,1.18,2.89,1.85-.75-1.18-2.89,2.89-1.18-.75-1.85-2.89,1.18-1.18-2.89Zm-200.38-144.99l-1.85.75,1.18,2.89-2.89,1.18.75,1.85,2.89-1.18,1.18,2.89,1.85-.75-1.18-2.89,2.89-1.18-.75-1.85-2.89,1.18-1.18-2.89Zm-37.84-40.47l-1.85.75,1.18,2.89-2.89,1.18.75,1.85,2.89-1.18,1.18,2.89,1.85-.75-1.18-2.89,2.89-1.18-.75-1.85-2.89,1.18-1.18-2.89Zm115.14,73l-1.85.75,1.18,2.89-2.89,1.18.75,1.85,2.89-1.18,1.18,2.89,1.85-.75-1.18-2.89,2.89-1.18-.75-1.85-2.89,1.18-1.18-2.89Zm-92.22-69.14l-1.85.75,1.18,2.89-2.89,1.18.75,1.85,2.89-1.18,1.18,2.89,1.85-.75-1.18-2.89,2.89-1.18-.75-1.85-2.89,1.18-1.18-2.89Zm40.69,47.45l-1.85.75,1.18,2.89-2.89,1.18.75,1.85,2.89-1.18,1.18,2.89,1.85-.75-1.18-2.89,2.89-1.18-.75-1.85-2.89,1.18-1.18-2.89Zm66.46,58.3l-1.85.75,1.18,2.89-2.89,1.18.75,1.85,2.89-1.18,1.18,2.89,1.85-.75-1.18-2.89,2.89-1.18-.75-1.85-2.89,1.18-1.18-2.89Zm-40.69-47.46l-1.85.75,1.18,2.89-2.89,1.18.75,1.85,2.89-1.18,1.18,2.89,1.85-.75-1.18-2.89,2.89-1.18-.75-1.85-2.89,1.18-1.18-2.89Zm245.56,184.59c-2.37,8.69-6.64,16.49-12.25,23.02,11.24,14.74,15.48,34.05,10.58,52.01-5,18.36-18.41,32.76-35.25,39.62-8,3.26-16.77,4.82-25.79,4.29l-567.49-33.22c-17.59-1.03-33.74-9.72-44.29-23.83-10.55-14.13-14.31-32.07-10.31-49.23l7.6-32.61c-7.13-12.85-9.31-27.91-5.93-42.43l77.42-332.28c5.66-24.29,25.34-42.19,50.13-45.58,15.49-2.12,31.22,2.07,44.27,11.81l488.62,364.41c19.95,14.88,29.07,40.6,22.69,64.01ZM344.45,251.15l.36-.15-.61-.45.24.6Zm352.14,338.48L207.97,225.22c-7.03-5.24-15.68-7.61-23.73-6.51-2.75.38-5.39,1.09-7.86,2.1-9.38,3.82-16.42,11.89-18.8,22.1l-77.42,332.28c-2.12,9.11-.13,18.62,5.47,26.12,5.6,7.49,14.16,12.1,23.49,12.64l567.49,33.22c14.85.87,28.47-8.94,32.39-23.32,3.38-12.4-1.61-26.14-12.41-34.2Zm-281.69-245.09l-.08.03.13.09-.05-.12Zm263.99,196.31l-.57.23.95.71-.38-.94Zm19.36-26.25l-69.56-51.88-.71.29,1.18,2.89-1.85.75-1.18-2.89-2.89,1.18-.75-1.85,2.89-1.18-.98-2.4-14.21-10.6-.99.4,1.18,2.89-1.85.75-1.18-2.89-2.89,1.18-.75-1.85,2.89-1.18-1.16-2.86-59.29-44.22-1.22.5-.82-2.02-.87-.65-2.37.96-.75-1.85,1.25-.51-87.74-65.44-.9.37-.61-1.5-1.41-1.05-2.05.83-.75-1.85.93-.38-102.12-76.16-1.48.6,1.18,2.89-1.85.75-1.18-2.89-2.89,1.18-.75-1.85,2.89-1.18-1.18-2.89.47-.19-59.26-44.19-1.71.7-1.15-2.83-.05-.04-2.85,1.16-.75-1.85,1.74-.71-68.21-50.87c-7.03-5.24-15.68-7.61-23.73-6.51-2.75.38-5.39,1.09-7.86,2.1-9.38,3.82-16.42,11.89-18.8,22.1l-8.33,35.74c8.27-6.65,18.37-11.11,29.52-12.64,3.43-.47,6.87-.61,10.29-.47l.79-.32.15.36c11.71.67,23.14,4.86,33.04,12.24l17.28,12.89.38-.16-1.18-2.89,1.85-.75,1.18,2.89,2.89-1.18.75,1.85-2.89,1.18.76,1.85,60.3,44.97.62-.25.42,1.03,1.88,1.4,1.76-.72.75,1.85-.65.26,83.61,62.35.92-.37-1.18-2.89,1.85-.75,1.18,2.89,2.89-1.18.75,1.85-2.89,1.18,1.11,2.74,13.87,10.34,1.19-.49-1.18-2.89,1.85-.75,1.18,2.89,2.89-1.18.75,1.85-2.89,1.18,1.18,2.89-.18.08,87.74,65.44.88-.36-1.18-2.89,1.85-.75,1.18,2.89,2.89-1.18.75,1.85-2.89,1.18,1.09,2.67,59.48,44.36,1.11-.45.75,1.83,1.07.8,2.25-.92.75,1.85-1.13.46,102.11,76.16,1.68-.69-1.18-2.89,1.85-.75,1.18,2.89,2.89-1.18.75,1.85-2.89,1.18,1.18,2.89-.68.28,23.27,17.36c2.8-3.39,4.94-7.38,6.15-11.81,3.38-12.4-1.61-26.14-12.41-34.2Zm-173.74,25.63c6.73,5.02,9.32,13.68,6.44,21.57-1.88,5.15-5.75,9.05-10.54,11.01-2.55,1.04-5.36,1.53-8.27,1.36h0s-325.96-19.08-325.96-19.08c-8.94-.52-17.13-4.93-22.49-12.1-5.36-7.17-7.27-16.28-5.24-25l40.43-173.54c2.07-8.88,8.42-16.06,16.99-19.19,8.57-3.13,18.04-1.75,25.35,3.71l283.29,211.27Zm-322.13-87.38l171.6,10.04-148.19-110.52-23.41,100.48Zm280.92,91.57l-68.51-51.09-218.86-12.81-10.21,43.81c-.2.85.1,1.5.39,1.88.29.39.82.86,1.7.91l295.48,17.29Z"/>
    </g>
  </g>
</svg>