<?xml version="1.0" encoding="UTF-8"?>
<svg id="Layer_8_copy" data-name="Layer 8 copy" xmlns="http://www.w3.org/2000/svg" viewBox="0 0 876.99 972.35">
  <defs>
    <style>
      .cls-1 {
        fill: #fff;
      }

      .cls-2 {
        fill: #ffff47;
      }

      .cls-3 {
        fill: #87ffff;
      }
    </style>
  </defs>
  <g id="Other_Shapes_copy" data-name="Other Shapes copy">
    <g>
      <path class="cls-1" d="m727.93,715.91l-189,169.43-28.14-152.47c-1.38-8.89-2.8-18.06-4.26-27.48l162.63-95.6,58.77,106.12Z"/>
      <path class="cls-2" d="m503.48,685.73c-.52-3.33-1.03-6.68-1.55-10.05,0-.78,0-1.56-.02-2.38-.27-8.71-1.95-17.18-3.58-25.37-.76-3.84-1.48-7.47-2.02-10.93-3.65-23.63-7.29-47.26-10.94-70.89-7.52-48.79-15.03-97.58-22.52-146.38-12.04-78.37-24.72-161.06-38.69-252.31l236.04,426.2-156.72,92.12Z"/>
      <path class="cls-3" d="m167.23,616.26l222-472.56c.56,2.2,1.08,4.31,1.53,6.21,24.69,161.32,55.95,365.16,81.12,527.81-.06,1.52-.17,3.06-.28,4.65-.12,1.58-.24,3.24-.31,4.97-57.19-9.22-186.68-27.04-267.02-35.79l-51.59-7.12c3.01-6.67,7.54-14.99,9.72-18.98,2.08-3.83,3.73-6.85,4.83-9.19Z"/>
      <path class="cls-1" d="m136.99,674.16c3.66,1.43,7.62,2.29,11.69,2.49,55.09,2.73,269.92,32,329.58,42.26,12.91,83.32,22.58,145.09,28.82,184.2l-432.13-96.92,62.03-132.04Z"/>
      <path d="m378.45,500.52h-3.12v-2h3.12v-3.12h2v3.12h3.12v2h-3.12v3.12h-2v-3.12Zm0,74.65h2v-3.12h3.12v-2h-3.12v-3.12h-2v3.12h-3.12v2h3.12v3.12Zm-19.77-281.43h2v-3.12h3.12v-2h-3.12v-3.12h-2v3.12h-3.12v2h3.12v3.12Zm19.77,241.9h2v-3.12h3.12v-2h-3.12v-3.12h-2v3.12h-3.12v2h3.12v3.12Zm0,118.6h2v-3.12h3.12v-2h-3.12v-3.12h-2v3.12h-3.12v2h3.12v3.12Zm-19.77-400.04h2v-3.12h3.12v-2h-3.12v-3.12h-2v3.12h-3.12v2h3.12v3.12Zm0-32h2v-3.12h3.12v-2h-3.12v-3.12h-2v3.12h-3.12v2h3.12v3.12Zm19.77,392.5h2v-3.12h3.12v-2h-3.12v-3.12h-2v3.12h-3.12v2h3.12v3.12Zm0-340.73h2v-3.12h3.12v-2h-3.12v-3.12h-2v3.12h-3.12v2h3.12v3.12Zm0-39.54h2v-3.12h3.12v-2h-3.12v-3.12h-2v3.12h-3.12v2h3.12v3.12Zm0,79.07h2v-3.12h3.12v-2h-3.12v-3.12h-2v3.12h-3.12v2h3.12v3.12Zm0,150.6h2v-3.12h3.12v-2h-3.12v-3.12h-2v3.12h-3.12v2h3.12v3.12Zm0-39.53h2v-3.12h3.12v-2h-3.12v-3.12h-2v3.12h-3.12v2h3.12v3.12Zm0-39.54h2v-3.12h3.12v-2h-3.12v-3.12h-2v3.12h-3.12v2h3.12v3.12Zm0-32h2v-3.12h3.12v-2h-3.12v-3.12h-2v3.12h-3.12v2h3.12v3.12Zm-19.77,19.77h2v-3.12h3.12v-2h-3.12v-3.12h-2v3.12h-3.12v2h3.12v3.12Zm-19.77-98.84h2v-3.12h3.12v-2h-3.12v-3.12h-2v3.12h-3.12v2h3.12v3.12Zm0,39.53h2v-3.12h3.12v-2h-3.12v-3.12h-2v3.12h-3.12v2h3.12v3.12Zm19.77,320.97h2v-3.12h3.12v-2h-3.12v-3.12h-2v3.12h-3.12v2h3.12v3.12Zm-19.77-249.44h2v-3.12h3.12v-2h-3.12v-3.12h-2v3.12h-3.12v2h3.12v3.12Zm0,39.54h2v-3.12h3.12v-2h-3.12v-3.12h-2v3.12h-3.12v2h3.12v3.12Zm19.77,170.37h2v-3.12h3.12v-2h-3.12v-3.12h-2v3.12h-3.12v2h3.12v3.12Zm-19.77-241.9h2v-3.12h3.12v-2h-3.12v-3.12h-2v3.12h-3.12v2h3.12v3.12Zm19.77,202.36h2v-3.12h3.12v-2h-3.12v-3.12h-2v3.12h-3.12v2h3.12v3.12Zm0-150.6h2v-3.12h3.12v-2h-3.12v-3.12h-2v3.12h-3.12v2h3.12v3.12Zm0-71.53h2v-3.12h3.12v-2h-3.12v-3.12h-2v3.12h-3.12v2h3.12v3.12Zm0,111.06h2v-3.12h3.12v-2h-3.12v-3.12h-2v3.12h-3.12v2h3.12v3.12Zm19.77-241.9h2v-3.12h3.12v-2h-3.12v-3.12h-2v3.12h-3.12v2h3.12v3.12Zm-19.77,281.43h2v-3.12h3.12v-2h-3.12v-3.12h-2v3.12h-3.12v2h3.12v3.12Zm-19.77-19.77h2v-3.12h3.12v-2h-3.12v-3.12h-2v3.12h-3.12v2h3.12v3.12Zm19.77,59.3h2v-3.12h3.12v-2h-3.12v-3.12h-2v3.12h-3.12v2h3.12v3.12Zm51.76-170.37h2v-3.12h3.12v-2h-3.12v-3.12h-2v3.12h-3.12v2h3.12v3.12Zm0,182.6h2v-3.12h3.12v-2h-3.12v-3.12h-2v3.12h-3.12v2h3.12v3.12Zm0-150.6h2v-3.12h3.12v-2h-3.12v-3.12h-2v3.12h-3.12v2h3.12v3.12Zm0,39.54h2v-3.12h3.12v-2h-3.12v-3.12h-2v3.12h-3.12v2h3.12v3.12Zm0,79.07h2v-3.12h3.12v-2h-3.12v-3.12h-2v3.12h-3.12v2h3.12v3.12Zm0-39.54h2v-3.12h3.12v-2h-3.12v-3.12h-2v3.12h-3.12v2h3.12v3.12Zm19.77,170.37h2v-3.12h3.12v-2h-3.12v-3.12h-2v3.12h-3.12v2h3.12v3.12Zm0,39.54h2v-3.12h3.12v-2h-3.12v-3.12h-2v3.12h-3.12v2h3.12v3.12Zm19.77-59.3h2v-3.12h3.12v-2h-3.12v-3.12h-2v3.12h-3.12v2h3.12v3.12Zm0-39.53h2v-3.12h3.12v-2h-3.12v-3.12h-2v3.12h-3.12v2h3.12v3.12Zm0,79.07h2v-3.12h3.12v-2h-3.12v-3.12h-2v3.12h-3.12v2h3.12v3.12Zm-19.77-98.84h2v-3.12h3.12v-2h-3.12v-3.12h-2v3.12h-3.12v2h3.12v3.12Zm0,39.53h2v-3.12h3.12v-2h-3.12v-3.12h-2v3.12h-3.12v2h3.12v3.12Zm0-111.06h2v-3.12h3.12v-2h-3.12v-3.12h-2v3.12h-3.12v2h3.12v3.12Zm0,39.54h2v-3.12h3.12v-2h-3.12v-3.12h-2v3.12h-3.12v2h3.12v3.12Zm-39.54-150.6h2v-3.12h3.12v-2h-3.12v-3.12h-2v3.12h-3.12v2h3.12v3.12Zm0,111.06h2v-3.12h3.12v-2h-3.12v-3.12h-2v3.12h-3.12v2h3.12v3.12Zm0,39.54h2v-3.12h3.12v-2h-3.12v-3.12h-2v3.12h-3.12v2h3.12v3.12Zm0-79.07h2v-3.12h3.12v-2h-3.12v-3.12h-2v3.12h-3.12v2h3.12v3.12Zm0,111.07h2v-3.12h3.12v-2h-3.12v-3.12h-2v3.12h-3.12v2h3.12v3.12Zm0,79.07h2v-3.12h3.12v-2h-3.12v-3.12h-2v3.12h-3.12v2h3.12v3.12Zm0-39.54h2v-3.12h3.12v-2h-3.12v-3.12h-2v3.12h-3.12v2h3.12v3.12Zm0-190.13h2v-3.12h3.12v-2h-3.12v-3.12h-2v3.12h-3.12v2h3.12v3.12Zm19.77,209.9h2v-3.12h3.12v-2h-3.12v-3.12h-2v3.12h-3.12v2h3.12v3.12Zm-19.77-392.5h2v-3.12h3.12v-2h-3.12v-3.12h-2v3.12h-3.12v2h3.12v3.12Zm19.77,432.03h2v-3.12h3.12v-2h-3.12v-3.12h-2v3.12h-3.12v2h3.12v3.12Zm0-79.07h2v-3.12h3.12v-2h-3.12v-3.12h-2v3.12h-3.12v2h3.12v3.12Zm-19.77-281.43h2v-3.12h3.12v-2h-3.12v-3.12h-2v3.12h-3.12v2h3.12v3.12Zm0,39.54h2v-3.12h3.12v-2h-3.12v-3.12h-2v3.12h-3.12v2h3.12v3.12Zm0-79.07h2v-3.12h3.12v-2h-3.12v-3.12h-2v3.12h-3.12v2h3.12v3.12Zm0,419.8h2v-3.12h3.12v-2h-3.12v-3.12h-2v3.12h-3.12v2h3.12v3.12Zm-51.76-59.3h2v-3.12h3.12v-2h-3.12v-3.12h-2v3.12h-3.12v2h3.12v3.12Zm-79.07-79.07h2v-3.12h3.12v-2h-3.12v-3.12h-2v3.12h-3.12v2h3.12v3.12Zm0,39.54h2v-3.12h3.12v-2h-3.12v-3.12h-2v3.12h-3.12v2h3.12v3.12Zm-19.77-19.77h2v-3.12h3.12v-2h-3.12v-3.12h-2v3.12h-3.12v2h3.12v3.12Zm19.77,59.3h2v-3.12h3.12v-2h-3.12v-3.12h-2v3.12h-3.12v2h3.12v3.12Zm19.77-91.3h2v-3.12h3.12v-2h-3.12v-3.12h-2v3.12h-3.12v2h3.12v3.12Zm-39.54,0h2v-3.12h3.12v-2h-3.12v-3.12h-2v3.12h-3.12v2h3.12v3.12Zm19.77,130.83h2v-3.12h3.12v-2h-3.12v-3.12h-2v3.12h-3.12v2h3.12v3.12Zm0-150.6h2v-3.12h3.12v-2h-3.12v-3.12h-2v3.12h-3.12v2h3.12v3.12Zm19.77,91.3h2v-3.12h3.12v-2h-3.12v-3.12h-2v3.12h-3.12v2h3.12v3.12Zm0-39.53h2v-3.12h3.12v-2h-3.12v-3.12h-2v3.12h-3.12v2h3.12v3.12Zm0,79.07h2v-3.12h3.12v-2h-3.12v-3.12h-2v3.12h-3.12v2h3.12v3.12Zm-19.77-170.37h2v-3.12h3.12v-2h-3.12v-3.12h-2v3.12h-3.12v2h3.12v3.12Zm-19.77,19.77h2v-3.12h3.12v-2h-3.12v-3.12h-2v3.12h-3.12v2h3.12v3.12Zm-32,71.53h2v-3.12h3.12v-2h-3.12v-3.12h-2v3.12h-3.12v2h3.12v3.12Zm0,39.53h2v-3.12h3.12v-2h-3.12v-3.12h-2v3.12h-3.12v2h3.12v3.12Zm0,39.54h2v-3.12h3.12v-2h-3.12v-3.12h-2v3.12h-3.12v2h3.12v3.12Zm-39.53,0h2v-3.12h3.12v-2h-3.12v-3.12h-2v3.12h-3.12v2h3.12v3.12Zm19.76-19.77h2v-3.12h3.12v-2h-3.12v-3.12h-2v3.12h-3.12v2h3.12v3.12Zm39.54-79.07h2v-3.12h3.12v-2h-3.12v-3.12h-2v3.12h-3.12v2h3.12v3.12Zm0-32h2v-3.12h3.12v-2h-3.12v-3.12h-2v3.12h-3.12v2h3.12v3.12Zm12.23,130.83h2v-3.12h3.12v-2h-3.12v-3.12h-2v3.12h-3.12v2h3.12v3.12Zm0-39.54h2v-3.12h3.12v-2h-3.12v-3.12h-2v3.12h-3.12v2h3.12v3.12Zm-12.23,19.77h2v-3.12h3.12v-2h-3.12v-3.12h-2v3.12h-3.12v2h3.12v3.12Zm0-39.53h2v-3.12h3.12v-2h-3.12v-3.12h-2v3.12h-3.12v2h3.12v3.12Zm51.76-170.37h2v-3.12h3.12v-2h-3.12v-3.12h-2v3.12h-3.12v2h3.12v3.12Zm39.54,39.53h2v-3.12h3.12v-2h-3.12v-3.12h-2v3.12h-3.12v2h3.12v3.12Zm0,39.54h2v-3.12h3.12v-2h-3.12v-3.12h-2v3.12h-3.12v2h3.12v3.12Zm0-111.06h2v-3.12h3.12v-2h-3.12v-3.12h-2v3.12h-3.12v2h3.12v3.12Zm0,32h2v-3.12h3.12v-2h-3.12v-3.12h-2v3.12h-3.12v2h3.12v3.12Zm0,118.6h2v-3.12h3.12v-2h-3.12v-3.12h-2v3.12h-3.12v2h3.12v3.12Zm0,32h2v-3.12h3.12v-2h-3.12v-3.12h-2v3.12h-3.12v2h3.12v3.12Zm-39.54-71.53h2v-3.12h3.12v-2h-3.12v-3.12h-2v3.12h-3.12v2h3.12v3.12Zm39.54,111.06h2v-3.12h3.12v-2h-3.12v-3.12h-2v3.12h-3.12v2h3.12v3.12Zm0-261.66h2v-3.12h3.12v-2h-3.12v-3.12h-2v3.12h-3.12v2h3.12v3.12Zm19.76,202.36h2v-3.12h3.12v-2h-3.12v-3.12h-2v3.12h-3.12v2h3.12v3.12Zm0,39.54h2v-3.12h3.12v-2h-3.12v-3.12h-2v3.12h-3.12v2h3.12v3.12Zm0,79.07h2v-3.12h3.12v-2h-3.12v-3.12h-2v3.12h-3.12v2h3.12v3.12Zm-39.53-39.54h2v-3.12h3.12v-2h-3.12v-3.12h-2v3.12h-3.12v2h3.12v3.12Zm0-39.53h2v-3.12h3.12v-2h-3.12v-3.12h-2v3.12h-3.12v2h3.12v3.12Zm0,79.07h2v-3.12h3.12v-2h-3.12v-3.12h-2v3.12h-3.12v2h3.12v3.12Zm0-118.6h2v-3.12h3.12v-2h-3.12v-3.12h-2v3.12h-3.12v2h3.12v3.12Zm39.53-32h2v-3.12h3.12v-2h-3.12v-3.12h-2v3.12h-3.12v2h3.12v3.12Zm-59.3-59.3h2v-3.12h3.12v-2h-3.12v-3.12h-2v3.12h-3.12v2h3.12v3.12Zm19.77,19.77h2v-3.12h3.12v-2h-3.12v-3.12h-2v3.12h-3.12v2h3.12v3.12Zm0,39.54h2v-3.12h3.12v-2h-3.12v-3.12h-2v3.12h-3.12v2h3.12v3.12Zm0-118.6h2v-3.12h3.12v-2h-3.12v-3.12h-2v3.12h-3.12v2h3.12v3.12Zm0,39.54h2v-3.12h3.12v-2h-3.12v-3.12h-2v3.12h-3.12v2h3.12v3.12Zm0-71.53h2v-3.12h3.12v-2h-3.12v-3.12h-2v3.12h-3.12v2h3.12v3.12Zm19.77,281.43h2v-3.12h3.12v-2h-3.12v-3.12h-2v3.12h-3.12v2h3.12v3.12Zm437.71,95.8l-222.08,199.09c-2.8,2.54-6.41,3.88-10.07,3.88-1.67,0-3.34-.28-4.96-.85-1.54-.54-2.95-1.32-4.2-2.29l-460.82-103.35c-3.62-.81-6.68-3.22-8.31-6.56s-1.67-7.23-.09-10.59l73.52-156.5c-.22-11.82,7.83-26.61,16.22-42,1.7-3.12,3.3-6.06,4.02-7.59L381.76,89.08c.08-1.95.54-3.88,1.37-5.67l.7-1.51c2.37-5.13,7.43-8.48,13.07-8.69,5.66-.2,10.93,2.78,13.66,7.72l349.41,630.9c3.39,6.12,2.1,13.77-3.11,18.44Zm-398.17-59.38h-.4c.13.02.27.04.4.06v-.06Zm310.47-61.1l-2.59,1.52,12.51,25.32-8.21,4.06-12.22-24.72-12.08,7.1,7.87,32.08-8.9,2.18-7.22-29.42-43.1,25.33,30.65,1.91-.57,9.14-44.2-2.75-13.97,8.21-3.26,16.97-9-1.73,1.74-9.06-28.25,16.61,5.07,6.47-7.21,5.65-5.83-7.44-12.97,7.62,7.54,9.62-6.27,4.92c.71,4.56,1.4,9.05,2.09,13.48l3.45,18.67,7.64-12.28,7.78,4.84-12.95,20.82,6,32.5,5.22-2.51,3.97,8.25-7.47,3.59,3.21,17.41,19.79-11.06,4.47,8-22.5,12.57,9.54,51.67,7.3-6.55-6.13-6.66,31.84-29.31,6.2,6.74-25.5,23.47,50.53-45.3-4.53,1.18-2.3-8.87,21.69-5.62,83.53-74.88-2.48-21.45,9.1-1.05,1.73,15.01,12.12-10.86-2.04-8.15,5.56-1.39-13.04-23.55-4.88,3.72-5.56-7.28,5.95-4.54-6.5-11.73-15.38,9.76-4.91-7.73,15.84-10.06-2.73-4.93-4.05-4.05,1.16-1.16-22.32-40.31Zm-8.96-16.17l-236.04-426.2c13.97,91.25,26.65,173.94,38.69,252.31,7.5,48.8,15,97.59,22.52,146.38,3.64,23.63,7.29,47.26,10.94,70.89.54,3.46,1.25,7.09,2.02,10.93,1.62,8.19,3.31,16.67,3.58,25.37.03.82.02,1.6.02,2.38.52,3.37,1.04,6.72,1.55,10.05l156.72-92.12Zm-400.5-174.16h.15v-.32l-.15.32Zm-97.3,206.01c-2.18,3.99-6.71,12.32-9.72,18.98l33.91,4.68h1.73v-3.12h2v3.12h3.12v.94l10.84,1.5c7.47.81,15.36,1.71,23.57,2.66v-3.1h-3.12v-2h3.12v-3.12h2v3.12h3.12v2h-3.12v3.12h-1.86c28.2,3.28,60.23,7.31,92.18,11.53h.97v.13c11.55,1.53,23.08,3.07,34.41,4.62v-1.63h3.12v-3.12h2v3.12h3.12v2h-3.12v.33c17.37,2.38,34.18,4.74,49.76,6.98v-.2h2v.48c13.65,1.97,26.31,3.84,37.54,5.54v-.91h-3.12v-2h3.12v-3.12h2v3.12h3.12v2h-3.12v1.21c7.08,1.08,13.56,2.1,19.31,3.02.07-1.73.2-3.38.31-4.97.12-1.59.22-3.13.28-4.65-.19-1.24-.38-2.48-.58-3.72h-1.56v-3.12h-3.12v-2h3.12v-3.12h.29c-6.54-42.31-13.47-87.19-20.56-133.25h-2.62v-2h2.31c-4.56-29.65-9.2-59.76-13.84-89.98v.68h-3.12v3.12h-2v-3.12h-3.12v-2h3.12v-3.12h2v3.12h2.92c-1.92-12.5-3.84-25.02-5.77-37.53h-2.27v-2h1.96c-4.6-29.96-9.19-59.85-13.7-89.3h-2.91v3.12h-2v-3.12h-3.12v-2h3.12v-3.12h2v3.12h2.6c-1.93-12.6-3.85-25.12-5.75-37.53h-1.96v-2h1.66c-4.69-30.6-9.27-60.51-13.68-89.3h-2.63v3.12h-2v-3.12h-3.12v-2h3.12v-3.12h2v3.12h2.32c-1.43-9.34-2.84-18.55-4.23-27.64-.45-1.9-.98-4-1.53-6.21l-6.61,14.08h.94v2h-1.88l-1.24,2.63v.49h-.23l-59.06,125.71h3.11v2h-3.12v3.12h-2v-.84l-35.14,74.79h.72v2h-1.66l-1.46,3.11h0s0,0,0,0l-20.45,43.53h.69v3.12h3.12v2h-3.12v3.12h-2v-3.12h-1.09l-45.56,96.97v1.87h-.88l-22.01,46.85v2.92h3.12v2h-3.12v3.12h-2v-3.12h-.31l-20.77,44.21c-1.1,2.34-2.75,5.37-4.83,9.19Zm-87.44,180.75l31.27,7.01c.31-.49.57-.99.75-1.49,4-11.08,5.4-25.28,6.64-37.81,1.1-11.08,1.97-19.84,4.39-23.9l.88-1.46.93.47c1.75-1.13,7.54-7.17,9.81-9.54,1.51-1.57,2.79-2.92,3.66-3.75l3.48-3.37-4.85,61.88c-.87,5.36-6.4,8.11-10.85,10.32-1.65.82-4.71,2.34-4.88,3.06-.33,2.85-.79,5.32-1.37,7.51l27.09,6.08c.75-.88,1.48-1.83,2.21-2.76,2.81-3.61,5.45-7.02,9.01-7.02,1.65,0,3.25.77,4.75,2.29,2.61,2.64,3.11,6.33,1.42,10.41-.12.3-.26.59-.41.88l27.96,6.27c-.52-1.7-.39-3.96-.24-6.18.04-.67.11-1.73.11-2.39-9.66-3.48-15.48-8.96-16.86-15.88-1.59-7.99,2.92-17.57,12.07-25.62.31-.28.86-.6,1.68-.6,1.31,0,2.73.79,5.13,2.19,1.52.88,3.8,2.21,4.75,2.23,4.35-2.61,3.19-12,2.27-19.56-.79-6.46-1.13-9.92.49-11.75.6-.67,1.43-1.05,2.35-1.05,1.1,0,2.33.51,3.86,1.6l.08.05.14.12c2.6,2.78,6.5,6.39,10.89,6.39,3.54,0,7.11-2.42,10.61-7.2,2.64-3.61,2.09-9.79,1.55-15.77-.23-2.59-.47-5.25-.47-7.78v-.43l.19-.39c1.35-2.7,4.24-4.24,7.94-4.24,6.34,0,13.28,4.6,13.51,11.46.46,13.19-9.33,18.18-18.8,23-7.59,3.87-15.45,7.87-18.71,16.17-.27.69-.56,1.44-.85,2.22-1.96,5.23-3.81,10.17-7.1,10.46-14.41,1.3-18.42,11.58-22.66,22.46-.21.54-.42,1.08-.63,1.62,3.84,1.39,7.31,3.57,10.66,5.68,5.38,3.39,10.47,6.59,16.77,6.59.67,0,1.36-.04,2.04-.11l.74-.08,1.02,3.12-.64.37c-1.09.63-2.2,1.35-3.38,2.11-2.19,1.42-4.43,2.86-6.71,3.84l16.79,3.76c-.95-1.89-1.89-3.78-2.84-5.67l-1.55-3.12,3.45.49c9.01,1.27,14.62,6.5,19.4,12.45l48.7,10.92c1.36-.17,2.73-.3,4.06-.43,1.51-.15,2.98-.29,4.39-.47l4.15-.54-2.42,3.42c-.07.09-.14.17-.21.26l16.56,3.71c.05-.14.08-.3.14-.44.15-.39.34-.77.56-1.14.25-.95.5-1.96.75-3l.03-.1c.76-3.13,1.61-6.66,2.96-9.62l.99-2.17,3.47,2.85c1.8,1.49,3.58,2.95,5.39,4.45l1.95,1.62-2.15,1.35c-1.23.78-2.6,1.47-3.92,2.15-2.42,1.24-4.92,2.51-6.09,4.03-.09.31-.17.6-.26.88l37.6,8.43c-.5-.63-1.17-1.25-1.94-1.95-1.62-1.48-3.46-3.16-3.26-5.63.18-2.23,1.98-4.37,5.86-6.92,1.26-1.43,7.69-20,7.2-24.62l-.27-2.53,4.69,1.03c2.22.49,4.42.97,6.66,1.45l3.26.7-2.34,2.37c-6.91,6.99-8.59,16.28-10.23,25.26-.75,4.15-1.52,8.36-2.8,12.36l16.09,3.61c-.19-6.33,3.76-10.93,7.33-15.07,4.56-5.29,8.17-9.46,3.72-16.35l-1.11-1.72,1.83-.91c1.33-.67,2.69-1.55,4-2.41,3.18-2.07,6.46-4.21,10.42-4.21,2.49,0,4.88.84,7.32,2.57l2.13,1.51-2.15,1.49c-14.29,9.87-18.21,23.26-22.36,37.43-.01.05-.03.09-.04.14l37.54,8.42c11.97-15.54,20.65-34.91,24.85-49.59.79-2.73,4.96-3.24,9.8-3.83,1.49-.18,3.02-.37,4.29-.61l2.4-.46-.23,2.43c-1.31,13.91-11.21,31.21-19.17,45.1-2.15,3.76-4.18,7.32-5.92,10.56l21.41,4.8c-1.16-1.65-2.64-3.03-4.36-4l-2.11-1.18,12.32-12.32-1.09,5.82c-.68,3.61-.88,7.33-.62,11.36.25.46.47.93.67,1.4l27.02,6.06c2.76-6.75,3.87-13.45,3.54-21.22l-.03-.8,3.35-.62.25.75c.6,1.79,1.32,3.62,2.02,5.38,1.86,4.68,3.77,9.52,3.77,14.46,0,1.61-.42,3.17-1.03,4.69l3.86.87c-2.36-14.77-5.2-32.77-8.53-53.94-1.53.46-3.07.91-4.65,1.3-1.39.35-2.71.53-3.92.53-2.69,0-4.9-.86-6.59-2.57-2.46-2.49-3.62-6.55-3.55-12.41.07-4.44,4.81-8.96,9.4-8.96,1.82,0,3.47.69,4.79,2,.8.8,1.35,1.74,1.79,2.71-2.01-12.83-4.17-26.67-6.48-41.48-3.66-5.59-7.35-10.23-12.25-10.23-1.76,0-3.63.56-5.72,1.72-4.59,2.54-9.88,8.94-16,16.36l-1.81,2.18c-1.04,1.26-1.52,2.33-1.36,3.01.35,1.46,3.64,2.89,6.54,4.16,6.16,2.68,14.59,6.35,12.45,16.09l-.72,3.27-2.37-2.36c-1.28-1.28-2.49-2.59-3.66-3.87-2.89-3.15-5.63-6.11-9.11-8.35-1.4-.9-3.32-1.59-5.17-2.25-3.69-1.32-7.18-2.57-8.32-5.73-.72-2-.27-4.32,1.37-7.07,6.6-11.08,17.77-15.88,28.57-20.52,4.85-2.08,9.8-4.21,14.34-6.92-.35-2.26-.71-4.56-1.07-6.87l-1.06-.47.24-.78c.13-.43.28-.86.42-1.29-2.04-13.16-4.19-26.99-6.43-41.45-9.29-1.6-22.34-3.66-37.96-6-.41.34-.83.69-1.26,1.05-2.26,1.89-4.78,3.99-7.72,6.68-2.03,1.86-2.21,5.9-2.42,10.57-.29,6.43-.61,13.72-5.73,19.38l-1.29,1.43-1.36-1.36c-.69-.69-1.46-1.61-2.2-2.5-.5-.6-1.27-1.52-1.9-2.18-4.11,6.98-9.4,10.95-14.65,10.95-4.72,0-8.75-3.25-10.54-8.48l-4.3-8.6,2.54-.35c15.16-2.05,21.08-11.44,27.35-21.37,1.67-2.65,3.38-5.34,5.29-7.92-10.85-1.59-22.54-3.26-34.77-4.98-.44,1.49-.68,2.72-.65,3.45l.17,3.94s-2.48-1.92-2.9-2.25c-2.18.12-7.8,3.34-8.14,4.4-.66,13.61-3.41,27.58-18.76,27.58-1.25,0-2.59-.1-3.97-.29l-4.16-.58,3.26-2.65c11.66-9.48,18.63-22.09,24.48-35.09-8.49-1.18-17.19-2.38-26.02-3.58v1.11s-2.05-1.38-2.05-1.38c-20.22-2.75-41.04-5.5-61.38-8.11-.04.04-.08.1-.12.14-2.95,2.96-6.66,4.52-10.72,4.52-1.19,0-2.43-.14-3.67-.4-1.87-.4-3.29-2.06-3.62-4.23-.09-.57-.12-1.35.05-2.32-5.42-.68-10.78-1.35-16.05-1.99,3.16,3.78,5.22,7.12,3.24,10-.81,1.18-1.95,2.54-3.6,2.54-2.16,0-3.2-2.15-4.39-4.63-.75-1.56-1.68-3.5-2.95-5.06-2.73-1.02-5.7-2.83-8.23-4.79-15.4-1.84-29.85-3.5-42.75-4.87-1.26,1.84-2.45,3.74-3.56,5.74-1.86,3.36-1.34,7.5-.8,11.89.82,6.58,1.84,14.78-6.9,20.48l-2.51,1.64-.31-2.98c-1.34-12.7-1.84-26.27,1.83-38.04-13.91-1.39-25.4-2.36-33.46-2.76-4.08-.2-8.04-1.06-11.69-2.49l-8.07,17.17c-.55,5.73-1.62,8.22-4.58,9.74l-13.46,28.65c.95.01,1.9.05,2.82.1,1.05.05,2.12.1,3.13.1.52,0,1.04-.01,1.55-.05l3.38-.23-1.65,2.95c-3.1,5.52-7.57,8.09-14.06,8.09-.1,0-.21,0-.31,0l-12.98,27.64c4.05,1.06,7.01,4.19,7.44,8.22v.14c.01,3.95-1.92,7.14-3.78,10.21-.68,1.12-1.37,2.27-1.94,3.41l-.36.71-3.22-1.06.13-.78c.75-4.36-.59-8.09-2.55-11.76l-13.52,28.79Zm609.27-79.82l4.71-7.85-8.71-5.23-4.71,7.85,8.71,5.23Zm-107.38,34.94l39.02,29.28,5.5-7.33-39.02-29.28-5.5,7.33Zm-16.73,22.3l39.03,29.27,5.5-7.33-39.03-29.27-5.5,7.33Zm56.89-23.34l47.71,10.22,1.92-8.96-47.71-10.22-1.92,8.96Zm-20.39-16.91h9.16v-5.23h-9.16v5.23Zm26.52-.48l48.51,5.19.97-9.11-48.51-5.19-.97,9.11Zm11,39.83l5.23,6.97,7.33-5.5-5.23-6.97-7.33,5.5Zm19.92-52.91l22.56-43.26-8.12-4.24-22.56,43.26,8.12,4.24Zm-19.5-12.9l22.57-43.26-8.12-4.24-22.57,43.26,8.12,4.24Zm-90.87,53.7h10.46v-9.16h-10.46v9.16Zm43.98-69.13l-5.22-7.53-40.11,27.8,5.22,7.53,40.11-27.8Zm41.93-18.04l-1.04-9.1-48.48,5.54,1.04,9.1,48.48-5.54Zm-26.04,40.95l-5.22-7.53-40.11,27.81,5.22,7.53,40.11-27.81Zm-213.51,70.04c.08.65.16,1.29.23,1.95.76,6.44,1.55,13.09,5.25,17.88.37.48,1.11,1.05,2.5,1.05,1.18,0,2.66-.4,4.23-.81,1.45-.39,2.95-.79,3.92-.79.15,0,.25.01.31.02,1.4,1.38,3.54,2.88,5.81,4.46,4.37,3.05,9.8,6.84,10.49,10.37l.57,2.91,2.35-1.81c1.03-.79,2.31-1.61,3.56-2.42,3.7-2.36,7.2-4.6,7.22-7.8.04-7.39-10.99-9.98-22.66-12.73-4.13-.97-8.4-1.98-11.81-3.16-3.75-1.31-6.95-5.08-8.36-9.86-.2-1.59-.45-3.46-.82-5.33l-.16-.83-3.49.37.02.84c.04,1.92.33,3.83.85,5.68Zm-118.33,14.74l-.05-3.61-1.52-.02c-1.09,0-2.11.05-2.99.13-.69.02-1.37.03-2.06.03-6.1,0-13.1-.72-18.77-6.07l-.8-.75-1.04.35c-2.32.77-3.98,2.15-4.92,4.08-2.22,4.58.18,11.29,2.32,17.25.83,2.32,1.62,4.51,2.06,6.36,1.14,4.75,5.58,8.77,9.7,8.77h0c1.82,0,3.46-.76,4.74-2.18,2.76-3.07,2.23-7.55,1.72-11.88-.43-3.69-.88-7.5.9-9.71,1.15-1.43,3.23-2.27,6.29-2.57,1.17-.03,2.34-.08,3.52-.13l.89-.04Zm32.57-25.07c-4.08-.92-7.93-1.78-10.96-3.87-.89-1-1.91-1.96-3.04-2.88l-.63-.52-2.47,2.42.5.65c.9,1.15,1.96,2.19,3.17,3.07,9.34,10.88-.79,25.08-8.19,35.47-.88,1.23-1.72,2.41-2.47,3.51-1.91-.22-4.09-.44-6.19-.44-1.67,0-3.14.14-4.5.42l-.81.17.35,3.46h.83c1.15,0,2.5.11,3.83.23,1.37.11,2.79.23,4.07.23,1.2,0,2.13-.1,2.92-.31l.38.05c2.43.29,4.94.58,7.35.58,4.79,0,10.76-.98,14.35-8.67.76-1.66-.67-2.92-2.32-4.37-1.59-1.4-2.12-2.01-2.26-2.27l.07-.66c.67-6.58,1.56-10.89,7.69-10.89.68,0,1.43.06,2.21.17,1.7.25,3.53.37,5.75.37,1.23,0,2.47-.03,3.7-.07,1.21-.03,2.41-.07,3.63-.07h2.52l-.78-2.4c-3.2-9.88-11.43-11.73-18.69-13.37Zm27.47,13.44l-2.59-.05.82,2.47c.74,2.23,1.47,4.46,2.2,6.69,0,0,1.08,3.3,1.58,4.83.03,1.07.39,1.99,1.08,2.76l.5.55,2.84-1.65-.72-2.16c.14-.88.73-2.1,1.26-3.19,1.15-2.38,2.45-5.08,1.03-7.39-1.14-1.86-3.68-2.77-8-2.86Zm-167.75-40.23c-1.83-2.18-3.56-4.23-5.88-4.23h-.14c-6.56.3-11.37,2.76-14.31,7.32-5.79,8.98-2.1,23.37-.16,28.22l.07.13.04.06c2.89,4.8,7.86,8.42,11.56,8.42,1.54,0,2.86-.63,3.71-1.77,1.42-1.92,1.45-5.03.09-9.48-6.69-21.9-5.94-26.26-5.29-27.1.82,0,2.51.96,3.88,1.73,2,1.13,3.89,2.2,5.68,2.2.93,0,1.74-.29,2.4-.85l1.51-1.29-1.4-1.4c-.55-.55-1.14-1.25-1.74-1.97Zm54.74,47.83l-.1-.2c-.93-1.86-1.86-3.73-2.8-5.6l-.34-.68-3.2.95.09.76c.12,1.07-.34,2.67-.78,4.23-.78,2.73-1.66,5.83.05,8.1,1.17,1.55,3.24,2.3,6.34,2.3.84,0,1.79-.06,2.82-.17l2.63-.28-1.19-2.36c-1.18-2.35-2.35-4.69-3.52-7.04Zm186.19-23.93c5.92.13,12.04.27,16.24,2.83.21.96-.4,4.68-.61,5.96-.23,1.39-.47,2.83-.59,4.11l-.59,6.12,3.84-4.8c7.35-9.19,13.56-15.7,20.14-22.6,6.43-6.74,13.08-13.72,20.88-23.41.46-.58,3.32-6.29,5.45-11.12,4.73-10.74,4.17-12.8,3.19-14l-1.28-1.56-1.43,1.43c-5.11,5.11-10.84,12.38-16.9,20.07-10.23,12.98-21.81,27.67-32.12,33.7-.64-.11-2.27-1.15-3.5-1.94-3.05-1.95-6.85-4.38-11.06-4.38-.84,0-1.67.1-2.46.3-2.38.59-4.19,2.31-5.97,4.01-.61.58-1.24,1.18-1.86,1.68l-3.43,2.81,4.42.43c2.51.24,5.12.3,7.64.36Zm-51,2.2c-5.79,8.99-2.09,23.36-.15,28.22l.06.13.03.06c2.88,4.81,7.85,8.43,11.56,8.43,1.55,0,2.86-.63,3.71-1.78,1.43-1.93,1.46-5.03.09-9.49-6.7-21.9-5.95-26.25-5.3-27.09.82,0,2.51.96,3.87,1.73,2,1.14,3.9,2.21,5.7,2.21.93,0,1.74-.28,2.4-.84l1.52-1.29-1.41-1.41c-.56-.55-1.15-1.26-1.76-1.98-1.83-2.18-3.56-4.23-5.88-4.23h-.13c-6.55.3-11.37,2.77-14.31,7.33Zm67.95,72.75c-.9-1.81-1.81-3.63-2.72-5.45l-.34-.69-3.2.95.08.76c.12,1.07-.34,2.67-.78,4.23-.78,2.73-1.66,5.83.05,8.1,1.17,1.55,3.24,2.3,6.34,2.3.84,0,1.79-.06,2.82-.17l2.64-.28-1.2-2.36c-1.24-2.46-2.47-4.92-3.7-7.39Zm-183.66-90.99l-.97,2.14,2.31.42c2.9.53,5.1.77,7.12.77,6.5,0,10.97-2.57,14.06-8.09l1.66-2.95-3.38.23c-.51.04-1.03.05-1.55.05-1.01,0-2.09-.05-3.12-.1-1.02-.05-2.18-.11-3.3-.11-4.37,0-9.77.87-12.83,7.65Zm-36.31-39.75c.58-.18,1.09-.32,1.59-.46,1.16-.32,2.09-.58,2.87-1.11,16.81-6.08,17.74-9.28,21.17-21.09.38-1.3.79-2.7,1.26-4.24l1.24-4.07-3.81,1.9c-1.55.77-4.98,1.57-8.3,2.35-7.93,1.85-11.75,2.86-11.97,5.56-.32,3.88-.51,6.84-.66,9.22-.24,3.81-.41,6.42-.84,7.17-1.15.41-2.38.84-3.7,1.29l-.85.29,1.12,3.46.86-.27Zm-66,2.52c1.08-.59,2.08-1.18,2.93-1.71,3.33-1.73,8.52-3.79,14.32-3.79,1.18,0,2.34.09,3.46.26.47,1.03,1.31,4.17,1.73,5.76.87,3.29,1.77,6.69,2.86,8.88,1,1.98,1.98,3.94,2.95,5.9l.2.41c1.09,2.18,2.17,4.35,3.28,6.54l.33.65,3.14-.75v-.72c0-2.04.93-5.59,1.76-8.72.83-3.14,1.54-5.85,1.45-7.44-.69-11.38-3.09-26.92-15.78-30.54l-.63-.18-.6.26c-13.1,5.62-13.53,8.96-13.98,12.5-.27,2.15-.53,4.17-6.24,7.79-1.95,1.02-3.09,1.82-3.1,1.83l-.71.5,1.88,3.02.76-.42Zm170.06-12.51c8.5-2.13,17.28-4.33,23.16-12.64l2.42-3.42-4.15.54c-1.46.19-3.02.34-4.4.47-8.72.83-18.61,1.77-22.78,13.58l-1.15,3.27,3.35-.9c1.17-.31,2.36-.61,3.54-.91Zm-24.33,33.6c-.35.84-4.43,2.51-6.18,3.22-1.39.57-2.98,1.22-4.29,1.88l-2.27,1.14,1.8,1.79c.57.56,1.16,1.28,1.74,1.97,1.75,2.09,3.57,4.26,5.97,4.27h0c2.73,0,4.86-2.75,6.94-5.44.27-.35.54-.7.81-1.04,7.54-9.43,9.63-22.62,5.08-32.07-3.31-6.89-9.49-10.68-17.38-10.68-2.76,0-5.72.47-8.82,1.4l-5.71,1.72,5.69,1.78c8.49,2.66,18.26,10.04,16.61,30.04Zm29.29,3.24c-.14,4.86-.29,10.37-.76,16.31-.2,2.6,3.16,4.04,8.32,6.26,1.41.61,2.87,1.23,4.04,1.82l5.49,2.76-3.08-5.31c-.66-1.13-1.42-2.31-2.09-3.35-3.09-4.8-6.01-9.34-3.56-13.63.61-1.06,6.24-2.11,9.27-2.68,6.44-1.2,10.13-2.01,10.96-4.53,1.01-3.03-3.08-5.67-7.83-8.72-1.19-.77-4.08-2.63-5.14-3.6.45-.19,1.37-.42,3.22-.42,1.51,0,3.25.14,4.97.28,1.68.13,3.41.27,4.93.27,2.25,0,4.97-.27,6.04-2.34,1.11-2.15-.39-4.67-1.61-6.38l-.33-.47-.53-.19c-7.88-2.87-13.86-4.26-18.28-4.26-13.25,0-13.58,11.79-14.03,28.16Zm30.82,14.72l-2.19,1.17,1.76,1.75c.57.57,1.23,1.31,1.91,2.07,2.36,2.66,3.67,4.04,5.24,4.04h.02c.63.18,1.3.27,1.99.27,4.68,0,10.36-4.46,12.65-9.95,1.7-4.07,1.2-7.77-1.42-10.41-1.5-1.52-3.1-2.29-4.75-2.29-3.56,0-6.21,3.41-9.02,7.02-1.97,2.54-4.01,5.16-6.18,6.32Z"/>
    </g>
  </g>
</svg>