<?xml version="1.0" encoding="UTF-8"?>
<svg id="Layer_8_copy" data-name="Layer 8 copy" xmlns="http://www.w3.org/2000/svg" viewBox="0 0 1059.88 1114.18">
  <g id="Other_Shapes_copy" data-name="Other Shapes copy">
    <path d="m989.99,124.3H89.99c-9.13,0-16.53,7.4-16.53,16.53v141.51c-.87,1.96-1.36,4.12-1.36,6.41v750c0,3.48,1.13,6.69,3.03,9.31,2.68,5.51,8.32,9.31,14.85,9.31h900c9.13,0,16.53-7.4,16.53-16.53V140.84c0-9.13-7.4-16.53-16.53-16.53ZM403.85,722.88v-118.25h118.25v118.25h-118.25Zm118.25,31.75v118.25h-118.25v-118.25h118.25Zm-150-31.75h-118.25v-118.25h118.25v118.25Zm-150,0h-115.58v-118.25h115.58v118.25Zm-115.58,31.75h115.58v118.25h-115.58v-118.25Zm147.33,0h118.25v118.25h-118.25v-118.25Zm118.25,150v118.25h-118.25v-118.25h118.25Zm31.75,0h118.25v118.25h-118.25v-118.25Zm150,0h118.25v118.25h-118.25v-118.25Zm0-31.75v-118.25h118.25v118.25h-118.25Zm0-150v-118.25h118.25v118.25h-118.25Zm150-118.25h118.25v118.25h-118.25v-118.25Zm150,0h119.61v118.25h-119.61v-118.25Zm0-31.75v-118.25h119.61v118.25h-119.61Zm-31.75,0h-118.25v-118.25h118.25v118.25Zm-150,0h-118.25v-118.25h118.25v118.25Zm-118.25-150v-118.25h118.25v118.25h-118.25Zm-31.75,0h-118.25v-118.25h118.25v118.25Zm0,31.75v118.25h-118.25v-118.25h118.25Zm-150,118.25h-118.25v-118.25h118.25v118.25Zm-150,0h-115.58v-118.25h115.58v118.25Zm-115.58,331.75h115.58v118.25h-115.58v-118.25Zm597.33,118.25v-118.25h118.25v118.25h-118.25Zm0-150v-118.25h118.25v118.25h-118.25Zm150-118.25h119.61v118.25h-119.61v-118.25Zm119.61-331.75h-119.61v-118.25h119.61v118.25Zm-151.36,0h-118.25v-118.25h118.25v118.25Zm-118.25-150v-115.51h118.25v115.51h-118.25Zm-31.75,0h-118.25v-115.51h118.25v115.51Zm-150,0h-118.25v-115.51h118.25v115.51Zm-150,0h-118.25v-115.51h118.25v115.51Zm0,31.75v118.25h-118.25v-118.25h118.25Zm-150,118.25h-115.58v-118.25h115.58v118.25Zm631.75,600v-118.25h119.61v118.25h-119.61Zm119.61-750h-119.61v-115.51h119.61v115.51ZM222.1,157.37v115.51h-115.58v-115.51h115.58Z"/>
  </g>
</svg>