<?xml version="1.0" encoding="UTF-8"?>
<svg id="Layer_8_copy" data-name="Layer 8 copy" xmlns="http://www.w3.org/2000/svg" viewBox="0 0 717.4 1042.58">
  <defs>
    <style>
      .cls-1 {
        fill: #50f8c3;
      }
    </style>
  </defs>
  <g id="Other_Shapes_copy" data-name="Other Shapes copy">
    <g>
      <path class="cls-1" d="m343.89,756.62c1.67-5.47.56-11.41-2.97-15.92-3.33-4.24-8.41-6.7-13.76-6.7-.33,0-.66,0-.99.03l-160.1,9.04,119.44-206.28c3.01-5.2,3.14-11.58.35-16.9-2.79-5.32-8.12-8.84-14.11-9.31l-225.37-17.86L243.7,147.18l248.21,23.21-176.4,258.33c-3.56,5.21-4.04,11.92-1.26,17.58s8.39,9.39,14.68,9.76l189.4,11.13-133.66,182.04c-3.73,5.08-4.44,11.76-1.87,17.51,2.57,5.75,8.03,9.67,14.3,10.27l151.22,14.53-267.19,270.65,62.76-205.56Z"/>
      <path d="m655.21,680.98c-2.61-7.2-8.97-12.12-16.59-12.86l-40.78-3.92c-2.65-2.21-5.95-3.65-9.53-3.99l-93.61-8.99c-.41-1.02-.94-3.21.69-5.44l125.77-171.29c4.26-5.81,5.01-13.46,1.94-19.98-3.06-6.52-9.44-10.83-16.63-11.25l-41.21-2.42c-3.06-3.91-7.68-6.4-12.75-6.7l-127.35-7.48c.09-.8.36-1.67.97-2.56l168.45-246.69c3.96-5.8,4.55-13.07,1.56-19.43s-8.95-10.55-15.95-11.21l-45.64-4.27c-2.71-2.34-6.12-3.84-9.8-4.19l-289.01-27.03c-6.83-.66-13.42,2.78-16.83,8.75L2.3,499.31c-2.97,5.2-3.07,11.56-.27,16.86,2.8,5.3,8.12,8.79,14.09,9.26l225.19,17.84-121.78,210.33c-3.22,5.57-3.13,12.45.24,17.93,3.37,5.48,9.48,8.68,15.89,8.31l167.44-9.45-76.2,249.57c-2.35,7.7.86,16.02,7.78,20.14,2.79,1.66,5.88,2.47,8.96,2.47,4.56,0,9.08-1.78,12.46-5.21l78.57-79.58-4.92,16.1c-2.69,8.81.82,17.89,8.73,22.61,3.2,1.91,6.69,2.84,10.14,2.84,5.07,0,10.05-2.02,13.9-5.92l288.22-291.95c5.38-5.45,7.1-13.3,4.49-20.5Zm-311.31,75.64c1.67-5.47.56-11.41-2.97-15.92-3.33-4.24-8.41-6.7-13.76-6.7-.33,0-.66,0-.99.03l-160.1,9.04,119.44-206.28c3.01-5.2,3.14-11.58.35-16.9-2.79-5.32-8.12-8.84-14.11-9.31l-225.37-17.86L243.7,147.18l248.21,23.21-176.4,258.33c-3.56,5.21-4.04,11.92-1.26,17.58s8.39,9.39,14.68,9.76l189.4,11.13-133.66,182.04c-3.73,5.08-4.44,11.76-1.87,17.51,2.57,5.75,8.03,9.67,14.3,10.27l151.22,14.53-267.19,270.65,62.76-205.56Z"/>
    </g>
  </g>
</svg>