<?xml version="1.0" encoding="UTF-8"?>
<svg id="Layer_8_copy" data-name="Layer 8 copy" xmlns="http://www.w3.org/2000/svg" viewBox="0 0 1000 1000">
  <g id="Patterns_copy" data-name="Patterns copy">
    <path d="m1000,149.47v32.2c-2.11,2.19-4.76,3.95-7.96,5.1-9.12,3.26-13.01-11.23-3.99-14.46,3.25-1.16,3.37-6.07,2.78-8.86-1.08-5.13-6.06-8.07-10.7-9.63-13.99-4.7-29.33-.95-43.26-6.36-11.05-4.29-20.58-14.81-20.26-27.24.32-12.35,10.5-18.75,20.24-23.95,4.26-2.27,8.8-4.62,10.82-9.29,1.79-4.13,1.62-8.84.36-13.08-3.33-11.21-15.16-16.81-25.75-19.06-11.66-2.48-23.89-1.4-34.77-7.05-10.61-5.51-16.09-16.85-14.71-28.56.93-7.86,3.81-14.15,8-19.23h24.37c-4.29,1.84-8.21,4.3-11.38,7.71-7.14,7.68-9.75,21.66,1.28,27.13,10.31,5.11,23.19,3.33,34.15,6.24,11.81,3.13,23.39,9.88,29.73,20.63,5.77,9.77,6.83,22.6,1.67,32.84-5.45,10.82-16.3,12.96-25.12,19.75-9.27,7.15.43,17.32,8.49,19.8,12.5,3.84,26.04,1.17,38.67,4.81,6.67,1.92,12.97,5.45,17.34,10.56ZM119.14,824.9c-11.17,1.79-23.46-3.49-29.79-12.85-7.24-10.7-6.62-25.14.87-35.5,8.24-11.41,20.72-19.45,24.05-34,3.08-13.45-3.73-26.01-16.22-31.55-15.94-7.07-32.22-.74-47.14,5.84-3.73,1.65-4.53,7.03-2.69,10.26,2.19,3.85,6.58,4.32,10.26,2.69,10.93-4.82,25.81-11.44,36.82-3.22,11.45,8.55-.1,22.38-6.93,29.57-10.02,10.55-18.1,21.17-19.05,36.22-.82,13.01,4.25,26.5,13.88,35.37,10.9,10.03,25.44,13.97,39.94,11.64,3.99-.64,6.25-5.63,5.24-9.23-1.19-4.25-5.2-5.89-9.23-5.24Zm869.21-365.24c1.51,5.87,7.79,6.48,11.65,3.81v-19.32c-2.92-13.17-4.87-28.27,0-40.24v-24.05c-24.12,19.36-18.46,53.41-11.65,79.81ZM92.36,648.91l-15.93-70.78,66.28-29.5-15.93-70.78,43.81-19.5-24.39-54.82-88.75,39.5,15.93,70.78-66.28,29.5,15.93,70.79L0,624.34v55.98l3.6,8.1,88.76-39.5ZM539.57,65.92c7.08,6.4,16.15,10.08,25.59,11.02,4.76.47,9.4-.15,14.09-.95,5.39-.91,11.34-2.76,16.83-1.61,10.4,2.17,10.68,17.6,10.05,25.82-.87,11.47-6,22.43-13.87,30.73-6.64,7.01,3.95,17.63,10.61,10.61,15.74-16.61,23.91-43.46,14.95-65.39-4.73-11.59-15.02-17.77-27.5-16.93-10.83.72-20.91,4.98-31.61,1.08-7.48-2.73-15.13-9.17-14.81-17.81.28-7.61,5.73-14.1,10.48-19.58C560.39,15.96,567.47,8.4,571.59,0h-17.28c-.43.57-.86,1.13-1.3,1.67-5.04,6.29-10.79,11.95-15.57,18.46-10.53,14.34-11.96,33.06,2.12,45.79ZM684.46,0h-40.04l-1.5,31.82,39.96,1.88L684.46,0Zm-27.89,406.74c-6.35,7.22,4.22,17.87,10.61,10.61,8.82-10.04,21.16-23.48,36.11-19.65,15.4,3.94,10.05,18.93,6.97,30.09-4.1,14.86-3.02,30.14,11.26,39.01,15.29,9.49,33.19,4.27,48.69-1.61,8.94-3.39,5.06-17.9-3.99-14.46-8.65,3.28-18.18,7.32-27.64,6.33-5.66-.59-12.3-3.4-14.77-8.93-2.85-6.37.32-14.29,2.11-20.51,2.03-7.09,3.87-14.36,2.78-21.77-2.22-15.11-16.52-24.01-31.12-23.77-17.09.28-30.37,12.58-41,24.67Zm77.28-64.35l78.19-55.24-33.67-59.84,56.08-39.61-33.67-59.84,33.97-23.99-34.62-49.01-78.19,55.23,33.67,59.84-56.08,39.61,33.67,59.85-33.97,24,34.62,49Zm250.46-94.26l-51.51-61.21-84.26,70.9,23.94,80.41-64.2,54.02,23.93,80.42-44.14,37.14,51.51,61.21,84.26-70.91-23.93-80.42,64.2-54.02-23.93-80.41,44.13-37.13ZM49.37,811.45L0,799.85v141.29l32.26,32.53-6.19,26.34h61.64l10.57-44.97-66.82-67.38,17.91-76.19Zm887.43-30.22c-7.91,6.24-20.39-1.92-23.85-9.51-6.33-13.88,1.93-29.9,9.28-41.52,7.98-12.63,17.7-26.73,15.6-42.46-1.91-14.32-13.65-24.56-27.42-27.42-18.16-3.77-35,4.58-50.53,13.04-8.48,4.62-.92,17.58,7.57,12.95,12.73-6.93,27.44-15.25,42.34-10.66,5.66,1.74,10.73,5.56,12.61,11.33,2.17,6.66-.55,13.8-3.59,19.72-7.29,14.23-17.86,26.42-21.47,42.38-3.24,14.33-.99,30.51,10.77,40.41,11.44,9.63,27.15,11.9,39.28,2.34,3.21-2.53,2.6-7.95,0-10.61-3.11-3.18-7.44-2.49-10.61,0Zm-674.56-243.24l-69.85,70.58,28.69,81.93-61.06,61.7,28.69,81.93-52.27,52.82,28.43,28.13,69.85-70.59-28.69-81.93,61.06-61.7-28.69-81.93,52.27-52.81-28.43-28.14Zm92.86,247.68c-10.18-4.21-20.89-8.58-31.9-4.47-11.27,4.21-19.16,15.01-21.62,26.6-3.2,15.08,1.93,29.98,7.24,43.92,3.4,8.93,17.91,5.06,14.46-3.99-4.16-10.9-9.45-23.34-7.37-35.27,1.34-7.72,6.45-16.59,14.9-17.84,9.89-1.47,19.86,6.18,29.06,8.69,10.11,2.76,21.1,1.41,29.79-4.66,8.99-6.28,14.33-16.12,14.87-27.08.53-10.83-4.55-20.76-12.17-28.17-9.3-9.04-43.77-25.12-30.64-42.49,6.6-8.73,20.06-11.9,30.36-12.5,12.39-.73,24.53,1.95,35.37,7.98,8.44,4.7,16.02-8.25,7.57-12.95-21.11-11.74-47.79-13.82-69.9-3.45-9.98,4.68-18.93,13.07-20.68,24.38-1.84,11.93,4.71,22.89,13.11,30.83,8.16,7.71,18.77,12.54,26.28,20.96,7.04,7.89,8.01,20.15.11,27.9-8.49,8.33-19.05,5.67-28.85,1.61Zm139.17-471.82l64.43,39.59-14.95,50.47,57.53,17.04,28.01-94.55-64.43-39.59,21.48-72.5-64.43-39.59,14.95-50.46-57.53-17.04-28.01,94.55,64.43,39.59-21.48,72.5Zm133.16,378.95c-12.51-6.43-27.67-1.36-34.9,10.39-5.08,8.24,7.89,15.79,12.95,7.57,5.45-8.86,19.42-7.01,21.16,3.78.9,5.55-2.65,10.82-5.38,15.33-3.46,5.71-6.99,11.45-8.5,18.05-6.15,26.94,15.25,52.75,42.93,51.35,9.61-.49,9.66-15.49,0-15-12.97.66-24.95-7.05-28.24-19.92-3.81-14.94,7.25-24.72,12.23-37.58,4.89-12.63.08-27.61-12.26-33.95Zm-205.05-368.7c4.11-5.75,7.17-12.51,8.26-19.52,2-12.79-2.33-25.65-13.26-33.12-10.76-7.36-22.8-4.88-33.28,1.48-4.87,2.95-16.11,13.12-21.59,6.45-7.31-8.9,3.67-20.25,9.78-25.86,9.7-8.91,20.9-17.87,23.09-31.72,1.8-11.4-3.41-22.16-12.25-29.27-10.75-8.64-24.26-11.33-37.63-8.5-15.43,3.27-28.52,13.02-40.76,22.45-3.23,2.49-4.88,6.42-2.69,10.26,1.81,3.18,7.06,5.16,10.26,2.69,16.59-12.78,45.12-33.87,64.06-12.77,8.01,8.93,3.29,18.99-4.15,26.6-8.98,9.17-20.17,16.38-24.9,28.91-3.74,9.9-1.85,22.75,6.61,29.69,9.27,7.61,20.72,4.58,30.03-1.08,7.6-4.63,17.01-13.21,25.86-6.36,10.03,7.76,6.62,21.73.54,30.79-7.44,11.08-19.54,22.35-12.74,36.93,7.53,16.16,26.93,14.82,41.46,11.64,9.43-2.06,5.44-16.53-3.99-14.46-6.3,1.38-13.74,3.36-19.85.29-5.3-2.67-5.35-7.37-2.66-12.08,2.76-4.83,6.58-8.91,9.8-13.42Zm15.73,521.3l-89.28,45.1,12.05,77.27-63.81,32.23h129.56l-11.79-75.63,50.32-25.42-27.05-53.55Zm106.84,110.29c-15.36-2.29-29.94,4.04-43.65,10.15-3.73,1.66-4.54,7.02-2.69,10.26,2.18,3.83,6.58,4.33,10.26,2.69,10.23-4.56,21.93-10.01,33.45-8.44,7.34,1,16.31,5.89,17.59,13.91.92,5.79-2.18,11.21-5.6,15.74h17.28c3.58-7.3,4.93-15.22,1.38-23.92-4.64-11.38-16.15-18.63-28.02-20.39Zm-326.1,5.79c-13.07.63-24.53,9.76-28.16,22.28-2.69,9.29,11.78,13.26,14.46,3.99,2.41-8.31,12.24-13.94,20.42-10.03,8.68,4.14,10.72,14.47,6.15,22.28h16.18c1.74-5.6,1.96-11.57-.07-17.58-4.14-12.19-15.79-21.58-28.98-20.94Zm781.15-281.16v-55.98l-20.79,9.26,20.79,46.72Zm-34.56,225.97l34.56,34.85v-141.29l-9.04-2.12-25.52,108.56Zm-176.61-148.25l-3.36-106.22-84.99-63.78-2.75-87.02-79.96,2.53,3.97,125.41,84.99,63.78,3.36,106.21,85,63.79,2.76,87.02,79.96-2.53-3.97-125.42-85-63.79Zm-172.29,63.97l-74.69-34.13,3.23-68.51-39.96-1.88-4.5,95.53,74.69,34.13-3.86,82.03,74.69,34.13-1.73,36.7h40.04l2.91-61.83-74.69-34.13,3.86-82.03Zm311.76,157.38c-17.18,2.54-36.69,7.51-47.5,20.61h24.37c8.5-3.66,18.47-4.87,27.11-6.15,4-.59,6.24-5.67,5.24-9.23-1.2-4.29-5.19-5.84-9.23-5.24ZM207.17,191.35c8.66,4.18,16.27-8.75,7.57-12.95-10.3-4.97-22.38-11.13-26.52-22.62-4.09-11.36,2.39-18.14,11.51-23.72,9.28-5.68,18.19-11.33,22.43-21.84,3.8-9.43,3.19-20.23-.98-29.42-4.55-10.03-12.66-14.36-21.83-19.42-2.58-1.42-6.47-3.18-5.5-6.71,1.44-5.22,9.85-9.98,13.79-13.16,10.56-8.52,22.6-16.49,31.62-26.7C243.13,10.44,246.22,5.4,247.9,0h-16.18c-.06.1-.11.21-.17.31-6.12,9.98-17.82,17.13-26.75,24.34-8.84,7.13-22.65,14.93-25.62,26.81-2.73,10.93,4.82,18.79,13.74,23.5,7.99,4.22,14.5,7.84,16.38,17.42,1.57,8.02-1.16,15.58-7.56,20.61-7.73,6.07-17.19,9.46-23.46,17.36-8.15,10.28-7.79,24-2.02,35.35,6.26,12.34,18.89,19.85,30.91,25.65ZM5.69,161.7C4.96,156.93,2.9,152.86,0,149.47v32.2c4.89-5.07,6.86-12.45,5.69-19.97Zm4.95,228.81c9.57-6.7,22.25-5.14,33.28-6.06,10.42-.87,20.58-3.82,28.55-10.88,7.28-6.45,10.75-16.72,7.79-26.15-2.82-8.99-10.09-15.13-17.03-20.99-6.29-5.31-13.43-10.97-14.27-19.76-.87-9.13,3.83-18.47,11.11-23.86,22.42-16.58,52.54-2.65,74.27,7.68,8.67,4.12,16.29-8.81,7.57-12.95-23.27-11.06-49.2-22.52-75.31-14.43-21.84,6.77-39.32,30.28-30.57,53.51,3.7,9.83,11.77,16.24,19.49,22.86,5.26,4.5,13.6,11.18,9.93,19.08-4.36,9.38-17.76,10.78-26.67,11.21-12.76.61-26.09.82-36.88,8.62-.66.48-1.29.97-1.91,1.47v24.05c2.11-5.19,5.5-9.79,10.64-13.4Zm269.22-231.23l89.28-45.11-12.05-77.27L426.89,1.64,426.64,0h-129.56l-5.99,3.02,12.05,77.27-50.33,25.43,27.06,53.55Zm24.53,332.02c-8.43,8.56-22.05,9.02-30.38.02-9.02-9.75-3.95-24.39-10.13-35.52-6.2-11.15-20.4-14.41-31.99-10.76-13.08,4.12-21.36,15.57-28.75,26.4-5.46,7.99,7.54,15.51,12.95,7.57,6.05-8.86,14.15-21.33,26.47-20.4,13.07.98,9.87,17.71,11.9,26.82,2.71,12.2,12.41,22.3,24.23,26.07,12.76,4.07,27.05-.2,36.3-9.59,6.78-6.88-3.82-17.5-10.61-10.61Zm208.92-5.83l-88.43-23.38-23.38-88.43-88.43-23.38-17.43-65.93-77.34,20.44,29.32,110.93,88.43,23.38,23.37,88.43,88.44,23.38,17.44,65.94,77.34-20.45-29.33-110.94ZM2.82,455.68c-.92-3.56-1.91-7.45-2.82-11.53v19.32c2.28-1.58,3.72-4.31,2.82-7.8Zm56.64-246.05l58.41,13.73,25.52-108.57L76.56,47.41,87.71,0H26.07l-15.53,66.04,66.83,67.39-17.91,76.2Z"/>
  </g>
</svg>