<?xml version="1.0" encoding="UTF-8"?>
<svg id="Layer_8_copy" data-name="Layer 8 copy" xmlns="http://www.w3.org/2000/svg" viewBox="0 0 1000 1000">
  <g id="Patterns_copy" data-name="Patterns copy">
    <path d="m2.31,415.62c-.77,0-1.54-.11-2.31-.31v-19.7c2.34,1.22,4.72,2.37,7.14,3.43,3.67,1.61,5.46,4.94,4.68,8.69-.8,3.82-4.41,7.88-9.51,7.88h0Zm840.57,348.25c25.06-40.28,22.85-89.27,16.59-123.28-4.74-25.76-13.03-50.98-21.04-75.37-1.26-3.84-4.56-6.22-8.61-6.22-3.09,0-6.04,1.43-7.71,3.73-1.52,2.1-1.87,4.76-.98,7.46l.29.88c12.67,38.58,25.78,78.47,24.18,119.52-1.55,39.85-17.51,73.01-43.78,90.98-13.74,9.39-29.29,14.57-43.79,14.57-2.78,0-5.57-.19-8.28-.56-.58-.08-1.16-.12-1.73-.12-4.52,0-7.92,2.41-9.07,6.44-.69,2.4-.18,5.33,1.32,7.64,1.29,1.97,3.14,3.22,5.22,3.5,3.94.54,7.95.81,11.93.81h0c33.53,0,66.28-19.15,85.46-49.98ZM28.17,601.04c.79.19,1.57.29,2.33.29h0c5.1,0,8.28-4.17,8.79-8.28.46-3.77-1.35-8.13-6.44-9.39-8.57-2.12-17.49-3.2-26.52-3.2-2.11,0-4.22.07-6.33.18v17.92c2-.12,4-.19,5.99-.19,7.57,0,15.03.9,22.18,2.67Zm345.43-197.53c3.66-1.68,5.42-5.08,4.59-8.87-.97-4.42-4.99-7.74-9.36-7.74-1.34,0-2.67.3-3.96.89-26.59,12.23-59.58,30.28-78.93,61.51-17.19,27.75-18.68,62.97-3.7,87.65,17.78,29.3,52.98,35.45,79.38,35.45,1.94,0,3.92-.03,5.9-.1,7.26-.25,14.86-.88,22.21-1.49,9.79-.82,19.92-1.66,29.76-1.66,21.83,0,37.44,4.2,50.62,13.62,10.45,7.47,20.18,20.85,16.13,35.99-2.79,10.44-11.7,21.53-22.72,21.53-1.3,0-2.62-.15-3.92-.46-.74-.17-1.48-.26-2.21-.26-5.16,0-8.45,4.34-8.91,8.43-.43,3.74,1.42,8.04,6.5,9.22,2.76.64,5.55.96,8.3.96,11.75,0,23.15-6.03,31.28-16.54,9.26-11.98,12.83-27.79,9.33-41.25-8.72-33.5-45.75-47.32-74.8-48.98-2.63-.15-5.42-.23-8.31-.23-9.88,0-20.09.88-29.97,1.74-9.89.85-20.12,1.74-30.03,1.74-16.19,0-29.02-2.4-40.35-7.56-13.67-6.22-23.49-16.99-27.65-30.32-4.06-13.01-3.65-27.65,1.18-42.35,6.18-18.8,20.83-43.85,79.67-70.93Zm204.37,499.82c1.62,0,3.99-.53,6.11-3.05,29.78-35.41,76.26-56.54,124.31-56.54,4.77,0,9.58.21,14.31.63,14.09,1.24,28.31,4.64,42.24,10.12,1.1.43,2.2.65,3.26.65h0c3.81,0,6.9-2.84,7.71-7.07.75-3.95-.75-8.83-5.78-10.81-19.43-7.64-40.33-11.52-62.12-11.52-35.66,0-71.46,10.68-100.79,30.07-13.73,9.07-25.87,19.84-36.1,31.99-2.39,2.84-2.88,6.53-1.31,9.89,1.57,3.37,4.85,5.63,8.16,5.63Zm314.11-68.66c-13.55-5.38-27.9-8.11-42.67-8.11h-.24c-5.76.01-8.76,4.55-8.76,9.03,0,4.46,3.01,8.97,8.77,8.97h.2c27.47,0,55.21,12.17,76.1,33.38,20.92,21.24,32.67,49.2,32.25,76.7-.04,2.45.77,4.59,2.34,6.18,1.63,1.66,4.02,2.61,6.55,2.61h0c4.46,0,9.01-3,9.1-8.73.78-50.79-33.62-100.15-83.65-120.03Zm-859.69,8.63c16.18-13.32,36.04-21.08,55.92-21.88,5.81-.23,8.76-4.95,8.67-9.48-.08-4.1-2.75-8.52-8.41-8.52-.14,0-.28,0-.42,0C52.84,804.84,20.1,823.68,0,851.74v42.12c4.77-19.34,16.27-37.29,32.39-50.56ZM540.67,151.89h0c.28,0,.57-.02.86-.05,6.01-.76,12.14-1.15,18.22-1.15,26.25,0,52.09,7.1,74.73,20.52,31.34,18.58,51.64,45.2,55.69,73.03,2.24,15.4-1.85,29.07-11.51,38.5-5.55,5.41-12.27,9.67-18.77,13.8-7.36,4.68-14.98,9.51-21.2,16.13-21.89,23.25-27.31,59.4-13.19,87.91,12.35,24.93,40.42,41.68,69.86,41.68,6.68,0,13.23-.86,19.49-2.57,5.08-1.39,6.85-5.85,6.34-9.65-.54-4-3.66-8.05-8.59-8.05-.82,0-1.67.12-2.53.35-4.78,1.3-9.79,1.97-14.89,1.97-23.72,0-45.78-13.82-54.88-34.38-5.41-12.22-6.13-27.27-1.97-41.28,4.02-13.55,12.6-24.8,25.51-33.45,2.08-1.4,4.2-2.77,6.32-4.14,11.97-7.74,24.35-15.75,31.53-29.14,7.03-13.1,8.8-29.14,5.12-46.38-8.41-39.42-39.9-64.88-57.92-76.55-26.2-16.97-57.66-26.31-88.58-26.31-6.47,0-12.97.41-19.3,1.21-5.26.67-8.7,4.19-8.75,8.96-.02,2.3,1.03,4.75,2.83,6.56,1.59,1.61,3.57,2.5,5.57,2.5Zm46.02,228.68c-1.73-2.89-4.97-4.76-8.25-4.76-3.07,0-5.71,1.66-7.25,4.54-12.7,23.74-15.2,51.57-6.84,76.36,7.68,22.79,24.31,42.4,45.62,53.78,17.45,9.32,36.77,11.42,55.46,13.44,3.36.37,6.73.73,10.09,1.14,19.69,2.38,40.85,7.45,48.43,27.01,10.57,27.28-7.72,55.07-22.42,77.4-1.78,2.7-1.98,5.77-.56,8.41,1.6,2.97,5.03,4.97,8.54,4.97h0c3.06,0,5.7-1.46,7.45-4.11,12.46-18.93,29.52-44.86,27.81-73.6-1.45-24.44-16.31-43.94-39.75-52.17-12.51-4.39-25.79-5.71-38.63-6.98-8.31-.82-16.9-1.67-25.11-3.35-22.32-4.57-40.92-17.26-52.4-35.74-14.23-22.92-15.05-53.38-2.09-77.61,1.54-2.87,1.49-6.05-.12-8.74Zm-297.41,468.49c13.16,8.62,28.2,12.98,44.71,12.99h0c29.76,0,59.62-13.5,87.45-28.09l1.73-.91c24.94-13.08,50.73-26.61,79.21-27.04,5.78-.09,8.76-4.69,8.73-9.19-.03-4.38-3.01-8.82-8.63-8.82h-.16c-31.72.48-59.12,14.71-85.63,28.47-14.45,7.5-29.4,15.26-44.84,20.68-12.72,4.46-24.83,6.72-36.02,6.72-7.44,0-14.63-1-21.38-2.98-17.46-5.11-29.98-16.9-33.51-31.56-4.76-19.77,4.8-34.32,15.69-39.48,3.65-1.73,5.39-5.17,4.53-8.97-.98-4.37-4.97-7.67-9.28-7.67-1.36,0-2.72.31-4.03.94-15.84,7.5-26.06,25.35-26.04,45.47.02,20.01,10.03,38.02,27.44,49.43Zm-85.63.83c4.38-.82,7.05-4.34,6.64-8.76-.4-4.29-3.78-8.85-9.26-8.85-.6,0-1.22.06-1.84.17-44.86,8.4-88.46,26.46-126.09,52.21-20.14,13.79-37.62,28.62-51.94,44.09C12.36,938.26,5.33,947.58,0,956.83v43.17h5c.12-2.67.39-5.36.87-8.08,2.94-16.88,12.32-33.61,28.69-51.15,27.02-28.96,62.21-53.34,101.76-70.49,20.97-9.1,43.63-15.96,67.34-20.4Zm40.93-236.9c5.09,0,10.66-.24,17.02-.72,1.51-.12,3.04-.24,4.56-.36,6.59-.53,13.4-1.08,20.07-1.08,11.21,0,20.03,1.59,27.76,4.99,19.49,8.6,22.77,23.65,19.66,33.92-4.95,16.33-21.81,27.48-35.96,35.36-3.59,2-5.18,5.67-4.17,9.59,1.08,4.17,4.77,7.19,8.77,7.19,1.5,0,2.98-.4,4.41-1.2,30.38-16.93,57.24-46.16,41.52-77.41-6.32-12.56-19.69-22.53-36.69-27.35-7.34-2.08-15.21-3.05-24.76-3.05-7.35,0-14.79.58-21.99,1.15-3.34.26-6.8.53-10.17.74-3.31.2-6.51.3-9.52.3-14.59,0-27.09-2.41-38.22-7.36-13.22-5.88-25.41-14.97-35.24-26.29-19.58-22.55-26.97-52.61-19.79-80.39,8.55-33.05,34.34-60.13,65.72-68.99,5.08-1.44,6.83-5.93,6.3-9.76-.55-3.96-3.65-7.97-8.51-7.97-.85,0-1.72.13-2.6.37-29.83,8.43-56.03,30.74-70.1,59.7-14.53,29.9-15.23,62.51-1.97,91.82,12.74,28.17,38.07,51.11,67.77,61.36,10.73,3.71,22.21,5.43,36.13,5.43Zm699.51-280.74c-11.08-30.27-8.42-64.25,7.29-93.22,8.91-16.43,21.43-30.42,36.2-40.44,3.46-2.35,4.83-6.32,3.59-10.36-1.2-3.89-4.54-6.6-8.13-6.6-1.64,0-3.24.53-4.77,1.56-30.74,20.87-52.27,55.18-57.59,91.77-5.25,36.13,5.44,73.63,29.35,102.9,13.09,16.03,29.84,28.8,48.44,36.95.5.22,1.01.38,1.53.52v-19.7c-25.8-13.45-45.95-36.17-55.9-63.36ZM100.05,704.01h0c-14.52,0-29.29-4.55-41.58-12.82-1.52-1.02-3.12-1.54-4.75-1.54-3.62,0-6.98,2.73-8.17,6.63-1.23,4.03.16,7.99,3.63,10.32,15.03,10.11,33.16,15.67,51.06,15.67h0c18.6,0,35.21-5.96,48.04-17.24,25.58-22.5,30.19-61.16,10.27-86.17-9.48-11.9-22.66-19.69-35.39-27.22-1.51-.89-3.01-1.78-4.5-2.67-16.16-9.67-28.56-20.33-37.91-32.61-20.56-27-29.5-61.93-23.9-93.44,6.52-36.74,29.77-69.23,62.2-86.91,3.6-1.96,5.22-5.6,4.22-9.5-1.07-4.21-4.79-7.26-8.84-7.26-1.48,0-2.95.39-4.36,1.16-29.25,15.95-52.06,42.51-64.24,74.79-11.81,31.29-11.17,67.29,1.75,98.77,6.69,16.31,15.91,30.9,27.41,43.38,11.91,12.93,26.16,22.17,39.79,30.23l1,.59c13.28,7.85,27.01,15.97,33.78,29.72,5.33,10.82,4.8,25.33-1.38,37.86-8.86,17.95-26.39,28.24-48.1,28.24ZM269.91,14.82h0c1.35,0,2.69-.31,3.99-.91C283.82,9.29,294.13,4.5,304.7,0h-42.16c-1.82,1.84-2.56,4.37-1.96,7.1.97,4.4,4.98,7.71,9.33,7.72Zm-15.02,245.37c-6.76-13.67-6.74-30.59.07-46.42,6.86-15.95,19.22-27.69,33.91-32.21,5.08-1.56,6.77-6.15,6.19-10.01-.69-4.56-4.11-7.75-8.32-7.75-.9,0-1.83.15-2.77.43-30.71,9.46-52.54,41.03-51.91,75.06.72,38.84,32.01,62.56,61.06,71.81,25.36,8.08,51.83,8.2,77.42,8.32,9.58.04,19.49.09,29.18.56,47.72,2.29,76.81,16.63,88.94,43.85,8.38,18.81,6.91,41-3.83,57.91-10.46,16.48-29.01,27.49-48.39,28.73-5.84.38-8.75,5.2-8.6,9.77.16,4.85,3.52,8.24,8.19,8.24h0c.22,0,.44,0,.66-.02,19.38-1.25,37.74-9.49,51.7-23.23,14.09-13.86,22.44-32.14,23.5-51.47,1.11-20.1-5.66-40.5-18.55-55.98-10.56-12.67-26.06-22.45-44.83-28.29-24.57-7.64-50.22-7.7-75.03-7.75-11.49-.02-23.38-.05-34.96-.83-43.6-2.95-71.74-16.66-83.64-40.73ZM89.66,787.88c9.38,1.85,18.93,2.79,28.41,2.79h0c43.19,0,80.53-18.72,102.46-51.37,15.26-22.72,21.15-49.47,16.58-75.32-.73-4.14-3.73-6.71-7.82-6.71-2.88,0-5.81,1.37-7.66,3.58-1.75,2.09-2.45,4.77-1.96,7.55,3.38,19.12-.88,39.56-11.97,57.55-10.72,17.38-26.76,31.09-45.17,38.61-13.46,5.5-27.93,8.29-43.01,8.29-27.62,0-56.36-9.47-80.92-26.66C24.62,736.38,11.68,724.08,0,709.49v27.01c26.28,27.1,57.16,44.95,89.66,51.37Zm207.37,105.9c5.04-1.93,6.56-6.78,5.82-10.73-.79-4.27-3.91-7.13-7.76-7.13-1.05,0-2.13.21-3.21.63-19.27,7.39-40.49,12.95-61.02,18.33-52.87,13.85-107.54,28.16-141.11,75.28-6.59,9.26-11.44,19.37-14.49,29.85h18.64c11.5-31.27,41.49-51.35,64.73-62.72,24.24-11.85,50.94-18.61,76.77-25.15,10.92-2.76,22.21-5.62,33.16-8.83,10.31-3.02,19.63-6.13,28.49-9.53Zm422.8,11.82c-3.31-.23-6.69-.34-10.05-.34-26.76,0-54.17,7.22-79.27,20.87-3.6,1.96-5.22,5.6-4.23,9.5,1.07,4.21,4.79,7.26,8.85,7.27h0c1.48,0,2.95-.39,4.36-1.16,22.08-12.02,46.49-18.37,70.58-18.37,22.83,0,44.54,5.92,62.77,17.12,17.28,10.61,31.66,26.07,40.51,43.54,2.64,5.22,4.76,10.56,6.39,15.98h18.85c-1.07-4.46-2.44-8.86-4.12-13.18-17.83-45.78-62.83-77.66-114.65-81.22Zm3.2,83.7c-.55,0-1.12.05-1.68.14-20.11,3.41-43.49,7.04-66.48,7.04h0c-42.35,0-71.8-12.7-90.01-38.83-3.79-5.43-7.2-11.29-10.5-16.95-3.74-6.41-7.6-13.04-12.08-19.19-6.96-9.56-15.32-17.69-24.84-24.17-17.55-11.93-39.64-18.54-62.21-18.61h-.37c-25.93,0-50.49,8.89-69.15,25.05-2.74,2.37-3.66,5.7-2.47,8.91,1.36,3.65,5.17,6.31,9.05,6.31,2.16,0,4.21-.79,5.94-2.29,14.92-12.92,35.04-20.04,56.65-20.04s40.71,6.48,56.32,18.26c12.4,9.36,20.01,22.13,28.06,35.65,4.7,7.9,9.57,16.07,15.45,23.4,8.44,10.52,19.56,19.33,32.6,26.02h145.13c.05-.54.06-1.1.01-1.68-.37-4.44-3.99-9.03-9.41-9.03Zm-165.48-158.23c-5.05,1.88-6.59,6.68-5.89,10.62.78,4.32,3.93,7.23,7.85,7.23h0c1.03,0,2.08-.2,3.15-.6,13.21-4.91,19.87-17.93,17.39-33.98-2.8-18.09-16.21-28.67-26.05-35.04-2.25-1.46-4.58-2.89-6.84-4.27-11.59-7.1-22.54-13.81-27.42-26.52-5.15-13.45-4.1-29.93,2.88-45.23,8.49-18.6,23.01-33.7,37.06-48.32l.22-.23c2.55-2.65,3.23-6.21,1.83-9.51-1.48-3.48-4.98-5.9-8.51-5.9-2.27,0-4.38.95-6.1,2.74-26.07,27.13-49.4,54.44-48.49,90.21.45,17.76,7.21,33.41,19.03,44.08,6.19,5.58,13.34,9.93,20.25,14.14l2.26,1.37c5.93,3.58,12.07,7.28,16.41,12.4,3.65,4.3,7.65,14.45,5.88,21.23-.73,2.8-2.34,4.62-4.91,5.58ZM7.02,52.59c1.74,1.65,3.83,2.53,6.04,2.53h0c3.72,0,7.33-2.51,8.76-6.09,1.3-3.26.5-6.71-2.15-9.23C9.52,30.12,4.29,15.64,5,0H0v44.58c2.1,2.88,4.44,5.56,7.02,8.01Zm12.43,38.74c-1.59,3.37-1.13,7.08,1.23,9.95,24.29,29.5,47.08,61.13,36.03,94.92-3.92,11.97-11.48,23.39-18.8,34.43-13.34,20.13-27.13,40.95-20.85,66.95,4.66,19.29,19.68,32.93,37.38,33.95.2.01.4.02.6.02,4.72,0,8.11-3.42,8.25-8.32.13-4.56-2.79-9.35-8.62-9.69-11.82-.68-20.4-13.88-21-25.79-.89-17.64,9.93-33.87,19.47-48.19l.59-.88c9.75-14.63,19.83-29.75,22.75-47.56,2.66-16.24-.12-33.51-8.27-51.33-8.56-18.71-21.22-34.78-34.54-50.95-2.11-2.56-4.48-3.09-6.1-3.09-3.28,0-6.54,2.24-8.11,5.59Zm416.03,878.06c-14.42-5.43-29.93-8.19-46.09-8.19-44.73,0-90.69,21.38-124.25,36.99-1.03.48-1.89,1.09-2.61,1.81h42.16c26.75-11.38,55.25-20.87,83.84-20.87,10.76,0,21.25,1.37,31.16,4.06,13.34,3.63,25.2,9.4,34.82,16.8h25.73c-11.08-13.19-26.35-23.66-44.77-30.61Zm-9.61-727.97c5.05.88,10.19,1.3,15.71,1.3,14.04,0,28-2.87,41.5-5.64,10.65-2.19,21.67-4.45,32.58-5.26,2.66-.2,5.32-.3,7.93-.3,13.73,0,38.38,2.92,49.26,22.5,1.58,2.84,4.24,4.47,7.3,4.47,3.33,0,6.58-1.88,8.3-4.79,1.57-2.68,1.57-5.84,0-8.69-9.7-17.46-29.09-28.46-54.6-30.99-3.1-.31-6.34-.46-9.62-.46-14.16,0-28.19,2.87-41.75,5.64-8.52,1.74-17.33,3.54-26.03,4.6-4.3.52-8.56.79-12.64.79-15.42,0-36.2-3.8-47.67-21.88-5.16-8.14-6.01-16.98-2.4-24.89,3.89-8.5,11.92-14.1,18.48-18.03,6.21-3.71,12.81-6.95,19.18-10.09,12.06-5.93,24.53-12.05,34.99-21.66,15.97-14.66,27.47-35.05,31.55-55.95,4.42-22.59.55-44.92-10.89-62.88-2.04-3.21-4.31-6.28-6.78-9.22h-25.73c5.82,4.48,10.81,9.55,14.8,15.11,11.35,15.81,15.13,35.38,10.63,55.1-4.44,19.48-15.84,37.46-31.28,49.34-8.1,6.23-17.58,10.71-26.74,15.05-8.24,3.89-16.75,7.92-24.42,13.26-23.96,16.67-26.99,38.62-21.84,53.61,6.83,19.88,27,35.94,50.19,39.96Zm152.64-161.18c.18,0,.36,0,.55-.01,5.29-.28,10.62-.42,15.84-.42,28.83,0,55.39,4.16,78.96,12.36,26.88,9.35,49.06,23.77,65.92,42.87,18.46,20.9,29.86,46.36,32.11,71.69,1.21,13.59-.14,26.76-4.01,39.13-2.58,8.25-6.18,16.32-9.66,24.12-3,6.73-6.1,13.68-8.58,20.79-5.1,14.62-6.21,30.75-3.05,44.23,3.81,16.28,13.41,27.8,27.77,33.29,1.08.42,2.16.63,3.21.63,3.86,0,6.99-2.87,7.78-7.15.73-3.94-.79-8.78-5.83-10.71-12.16-4.66-15.63-18.93-16.56-24.85-2.13-13.59,2.37-27.1,7.06-38.53,1.67-4.08,3.5-8.21,5.27-12.19,4.68-10.54,9.52-21.45,12.15-33.04,3.03-13.4,3.66-27.28,1.86-41.28-3.56-27.66-15.7-54.28-35.12-76.96-18.01-21.05-43.38-37.87-73.37-48.65-25.44-9.15-54.04-13.78-85-13.78-5.57,0-11.28.15-16.98.45-5.83.31-8.75,5.08-8.63,9.64.11,4.03,2.75,8.37,8.29,8.37Zm-435.17,26.41c1.66,0,3.36-.06,5.04-.17,23.59-1.63,44.28-12.28,64.29-22.58,13.61-7.01,27.69-14.26,42.47-18.52,8.99-2.59,17.29-3.91,24.68-3.91,8.3,0,15.69,1.65,21.96,4.92,4.93,2.56,13.47,8.15,15.29,16.76,1.6,7.57-4.59,13.25-8.43,15.95-11.53,8.14-26.32,11.98-40.64,15.69-1.7.44-3.37.88-5.03,1.31-5.06,1.34-10.24,2.64-15.24,3.9-11.6,2.92-23.6,5.94-35.21,9.69-38.68,12.46-65.2,32.72-78.82,60.22-15.4,31.09-15.68,67.24-.75,96.72,14.88,29.37,44.69,51.12,77.8,56.75,6.13,1.04,12.21,1.57,18.06,1.57,2.19,0,4.4-.07,6.56-.22,5.78-.39,8.74-5.35,8.59-9.81-.16-4.83-3.52-8.2-8.16-8.2-.23,0-.46,0-.7.02-1.92.13-3.87.2-5.8.2-28.26,0-56.21-14.02-72.94-36.59-17.71-23.89-21.34-56.91-9.47-86.16,10.57-26.04,33.83-45.13,69.13-56.73,11.92-3.92,24.33-7.04,36.33-10.06,4.11-1.04,8.23-2.07,12.33-3.14l1.07-.28c15.51-4.04,31.55-8.21,45.85-15.69,14.17-7.41,27.57-21.95,22.65-40.51-4.95-18.69-23.69-29.16-38.24-32.46-5.55-1.26-11.3-1.89-17.12-1.89-26.21,0-50.49,12.43-73.98,24.45-3.27,1.67-6.51,3.33-9.72,4.93-15.34,7.67-33.28,15.85-52.03,15.85-14.35-.02-27.42-5.6-36.8-15.73-16.36-17.65-21.63-47.31-12.81-72.12.1-.28.21-.54.31-.82h-18.64c-5.48,18.83-5.13,38.84,1.49,57.25,10.95,30.47,36.47,49.4,66.59,49.4ZM655.09,14.79h0c23.99,0,47.72-4.02,70.66-7.91,3.79-.64,6.32-3.32,6.68-6.88h-145.13c10.6,5.44,22.46,9.49,35.21,11.9,10.25,1.94,20.91,2.88,32.58,2.88ZM987.12,0c-.53,16.74,3.98,32.4,12.88,44.58V0h-12.88Zm-194.77,114.6c1.65,0,3.27-.54,4.81-1.61C832.23,88.61,848.7,41.95,838.61,0h-18.85c4.16,13.84,5,28.16,2.35,42.16-4.38,23.14-16.88,43.35-34.29,55.46-3.44,2.39-4.78,6.39-3.51,10.45,1.22,3.91,4.46,6.53,8.06,6.53Zm76.92,7.19h0c1.58,0,3.14-.47,4.63-1.4,34.88-21.72,57.95-61.48,60.21-103.75.3-5.58.18-11.14-.32-16.64h-18.15c2.11,20.04-1.53,40.85-11,60.06-9.29,18.86-23.1,34.37-39.92,44.84-3.52,2.19-5,6.03-3.86,10.02,1.16,4.04,4.62,6.86,8.41,6.86Zm-410.04,573.22c-59.88,0-116.09,43.58-130.74,101.38-.7,2.75-.18,5.43,1.46,7.53,1.76,2.26,4.7,3.66,7.68,3.66h0c4.07,0,7.23-2.49,8.24-6.49,12.73-50.21,61.7-88.07,113.92-88.07,1.91,0,3.83.05,5.73.15.19.01.37.02.55.02,5.54,0,8.18-4.34,8.29-8.37.12-4.55-2.8-9.32-8.63-9.64-2.15-.11-4.34-.17-6.5-.17Zm408.75-440.46c1.45,1.79,3.65,2.78,6.2,2.78s4.99-.97,6.66-2.6c3.39-3.32,3.46-8.49.16-12.58-17.46-21.64-10.92-53.76,2.55-74.46,16.46-25.29,43.59-41.02,69.82-56.22l1.94-1.12c3.57-2.07,5.12-5.8,4.06-9.74-1.1-4.1-4.74-7.08-8.64-7.08-1.53,0-3.04.43-4.5,1.27-22.45,13.02-47.9,27.78-66.68,48.82-18.88,21.16-28.43,46.35-26.88,70.95.95,15.11,6.1,28.57,15.31,39.99Zm27.51,257.74c4.77,0,8.39-4.76,8.43-9.01.05-4.79-3.48-8.41-8.78-9.01-32.06-3.62-61.63-27.18-73.59-58.63-11.78-30.99-4.09-66.01,20.06-91.4,13.23-13.91,29.79-23.11,47.88-26.61,4.39-.85,7.05-4.39,6.62-8.82-.41-4.26-3.78-8.79-9.21-8.79-.62,0-1.26.06-1.89.19-38.26,7.41-71.63,38.59-83.04,77.59-10.97,37.53,1.78,79.56,32.49,107.1,17.17,15.39,37.99,24.85,60.22,27.36.27.03.53.04.79.04Zm8.3,88.11c4.09,0,7.08-2.57,7.8-6.72,2.61-14.9,13.58-26.48,22.39-35.78.94-.99,1.89-1.99,2.84-2.99,9.82-10.29,19.98-20.94,25.61-34.47,7.02-16.85,4.33-36.03-7.37-52.63-9.06-12.84-21.39-22.08-33.32-31.01-4.69-3.51-9.54-7.15-14.12-10.94-7.82-6.49-32.49-29.38-21.76-51.67,1.41-2.93,1.25-6.16-.44-8.86-1.78-2.83-4.97-4.66-8.13-4.66s-5.67,1.72-7.12,4.72c-8.34,17.32-5.14,38.49,8.56,56.65,8.53,11.3,19.84,19.66,30.77,27.74,5.88,4.35,11.97,8.85,17.5,13.73,21.92,19.33,23.12,35.66,20.26,45.96-3.38,12.19-12.69,21.85-21.7,31.19-1.04,1.08-2.08,2.16-3.1,3.23-13.67,14.36-25.23,27.68-28.33,45.39-.49,2.78.21,5.46,1.97,7.55,1.86,2.21,4.79,3.58,7.67,3.58Zm77.13,89.14c-3.53,0-6.98,2-8.57,4.98-1.41,2.64-1.19,5.69.61,8.38,8.29,12.39,17.35,23.62,27.04,33.6v-27.01c-4.02-5.02-7.9-10.32-11.62-15.88-1.75-2.62-4.4-4.07-7.46-4.07Zm6.2,310.45h12.88v-43.17c-5.78,10.01-9.57,19.94-11.44,29.94-.83,4.46-1.3,8.88-1.44,13.23Zm-76.79-372.69c-28.26,36.04-30.89,86.56-6.69,128.7,13.1,22.81,32.52,40.12,56.17,50.05.85.36,1.75.54,2.68.54,3.69,0,7.56-3.01,8.62-6.72,1.32-4.59-1.05-8.91-6.04-11.01-34.28-14.4-59-51.95-60.13-91.33-1.08-37.88,22.36-73.27,59.72-90.18,11.16-5.05,23.26-8.05,35.32-8.8v-17.92c-34.42,1.93-68.32,19.44-89.67,46.67Zm-29.35,282.27c-19.08-13.93-41.61-22.22-65.15-23.98-.26-.02-.52-.03-.77-.03-4.59,0-7.92,3.34-8.1,8.13-.17,4.47,2.78,9.46,8.57,9.89,34.79,2.6,67.9,23.61,86.4,54.82,7.61,12.83,12.17,27,13.71,41.59h18.15c-3.17-35.09-22.15-68.03-52.81-90.41Zm103.12-12.82c1.77,2.25,4.71,3.65,7.68,3.65,4.07,0,7.21-2.5,8.2-6.51,0-.01,0-.02,0-.04v-42.12c-8.02,11.2-14.04,23.86-17.39,37.48-.68,2.76-.14,5.44,1.5,7.54Zm-476.14-379.35c-5.78.4-8.74,5.36-8.59,9.83.17,4.82,3.52,8.19,8.15,8.19.23,0,.47,0,.71-.02,2.07-.14,4.18-.21,6.26-.21,22.24,0,43.31,7.88,59.33,22.18,18.03,16.09,28.65,39.39,29.14,63.92.29,14.65-4.09,28.78-8.33,42.44-3.53,11.37-7.18,23.13-8.25,35.36-2.17,24.82,10.11,48.95,31.29,61.47,9.19,5.44,19.88,8.31,30.91,8.31,17.14,0,33.84-6.85,45.8-18.8,2.6-2.59,3.34-6.1,1.98-9.38-1.46-3.53-5.01-5.99-8.62-5.99-2.25,0-4.35.91-6.08,2.64-8.6,8.59-20.56,13.52-32.81,13.52-9.3,0-18.13-2.79-25.52-8.07-8.24-5.88-14.58-14.75-17.4-24.33-3.67-12.47-1.01-25.56,1.72-35.57,1.33-4.89,2.91-9.83,4.43-14.6,2.47-7.74,5.02-15.75,6.67-23.91,2.52-12.45,2.81-25.23.84-37.98-3.8-24.69-16.57-47.83-35.02-63.49-19.56-16.6-44.27-25.75-69.57-25.75-2.35,0-4.72.08-7.06.24Zm235.85,163.79c-2.71,2.42-3.6,5.78-2.38,9,1.38,3.62,5.15,6.25,8.96,6.25h0c2.17,0,4.24-.81,5.97-2.36,23.86-21.23,40.31-51.45,45.13-82.92,4.85-31.67-1.56-64.38-18.05-92.09-9.07-15.25-21.12-28.7-35.8-39.99-1.24-.95-2.77-1.46-4.42-1.46-3.17,0-6.49,1.86-8.09,4.52-2.42,4.05-1.21,8.94,3.01,12.19,21.75,16.72,37.22,41.05,43.55,68.49,6.32,27.41,3.1,56.04-9.08,80.61-7.13,14.38-16.82,27.08-28.81,37.75Z"/>
  </g>
</svg>