<?xml version="1.0" encoding="UTF-8"?>
<svg id="Layer_8_copy" data-name="Layer 8 copy" xmlns="http://www.w3.org/2000/svg" viewBox="0 0 1000 1000">
  <g id="Patterns_copy" data-name="Patterns copy">
    <g>
      <path d="m881.19,320.76c1.2,1.42.74.86,2.29,3.2.99,1.51,1.92,3.06,2.8,4.64.85,1.53,1.65,3.08,2.41,4.66.38.79.74,1.6,1.11,2.39.15.31.26.55.36.74.07.2.17.46.3.8,5.45,14.21,8.84,29.08,14.13,43.33,5.86,15.77,13.96,30.09,27.85,40.09,17.13,12.32,38.63,12.72,58.63,9.23,3-.52,5.97-1.16,8.92-1.87v-28.84c-.74.2-1.48.39-2.22.58-9.62,2.48-17.32,4.18-26.83,4.21-8.21.03-15.2-1.44-22.26-6.04-.47-.31-.93-.64-1.39-.96-.32-.26-1.05-.83-1.3-1.07-1.21-1.13-2.4-2.25-3.53-3.46-.67-.72-1.3-1.47-1.94-2.23-.04-.06-.08-.12-.13-.19-1.15-1.72-2.3-3.41-3.34-5.21-1.57-2.72-2.97-5.55-4.23-8.44.14.26-1.24-3.23-1.48-3.88-.68-1.85-1.32-3.72-1.95-5.6-5.24-15.82-9.09-32.02-16.28-47.15-8-16.85-21.74-31.08-38.48-39.41-19.49-9.69-42.09-12.38-63.02-5.77-20.88,6.6-38.98,20.8-49.82,39.88-3.73,6.57-1.56,15.31,5.02,19.15,6.49,3.79,15.41,1.57,19.15-5.02,3.93-6.92,7.65-11.49,14.3-16.96-.17.15,1.46-1.12,1.74-1.32.8-.57,1.62-1.12,2.44-1.66,1.65-1.07,3.34-2.08,5.07-3.01,4.17-2.26,5.35-2.79,10.23-4.27,14.39-4.37,29.52-2.89,42.74,4.2,7.99,4.28,12.63,8.1,18.64,15.24Zm59.41,69.48c.41.54,1.07,1.58,0,0h0Z"/>
      <path d="m999.16,982.4c-.55,2.22-.85,4.46-1.55,6.65-.1.32-.21.63-.32.95.03-.02.05-.05.08-.07-.03.02-.06.07-.09.1-.08.22-.15.44-.22.67-.26.8-.36.58-.25.15-.3.69-.57,1.55-.75,1.9-.48.92-.98,1.83-1.53,2.7-.24.38-.49.74-.73,1.12,0,0,0,0,0,0-1.02,1.19-2.09,2.32-3.18,3.43h9.37v-69.77c-3.49-3.11-7.39-5.77-11.66-7.85-22.76-11.06-50.49-7.77-70.86,7.62-4.51,3.41-7.1,9.99-3.81,15.42,2.89,4.76,9.68,7.7,14.52,4.04,1.92-1.45,3.9-2.81,5.96-4.03,1.15-.68,2.31-1.32,3.49-1.92.47-.24.96-.46,1.43-.71.06-.03.11-.06.16-.08.07-.02.13-.05.21-.08,2.23-.86,4.45-1.71,6.74-2.37,1.27-.37,2.55-.69,3.83-.98.78-.17,1.79-.21,2.69-.38-.05-.06.2-.21.7-.26.1,0,.2-.02.31-.03.06-.02.12-.03.18-.06-.05.02-.08.03-.12.05.53-.05,1.06-.11,1.59-.15,1.17-.1,2.34-.16,3.52-.18,2.6-.05,5.19.1,7.78.37.26.03.45.05.58.06.29.08.58.16.81.21,1.14.23,2.27.49,3.4.8,1.12.3,2.23.65,3.33,1.03.61.21,1.22.43,1.82.67.13.05.26.1.39.16.43.55,2.57,1.26,3.07,1.54,1.03.58,2.04,1.19,3.03,1.84.92.61,1.8,1.28,2.69,1.93.47.44.95.86,1.42,1.3,1.43,1.38,2.7,2.87,3.97,4.4.27.39.72.98.8,1.1.71,1.08,1.38,2.18,2.01,3.31.46.82.9,1.66,1.31,2.51.2.4.97,2.73,1.37,3.18.08.24.17.48.25.72.41,1.24.78,2.5,1.11,3.77.27,1.04.51,2.08.71,3.13.09.48.17.96.26,1.45,0-.07.01-.14.02-.22,0,.08-.01.17-.02.25.02.09.03.19.05.28.15.76,0,1.27-.08,1,.06,1.71.42,3.57.41,5.21-.01,1.06-.05,2.12-.13,3.17-.02.32-.05.64-.08.96Zm-7.79-29.57s0,0,0,.01c.84,1,.39.5,0-.01Zm5.07,9.23c.03.1.07.21.11.31-.26-.65-.59-1.75-.11-.31Z"/>
      <polygon points="815.25 471.13 856.49 412.08 789.04 410.66 815.25 471.13"/>
      <path d="m733.64,725.73c.66-.07,1.12-.74.89-.71-.29.24-.6.49-.81.63-.03.03-.06.06-.09.09Z"/>
      <polygon points="760.02 235.96 720.62 251.49 753.21 274.12 760.02 235.96"/>
      <path d="m952.7,938.93c.05.06.39.02,1.07-.29-.02,0-.04,0-.06,0-.31.13-.65.22-1.01.29Z"/>
      <path d="m722.9,773.27c-.05-.64-.22-1.03-.34-1.14.16.4.28.79.33,1.12,0,0,0,.01.01.02Z"/>
      <rect x="789.04" y="633.79" width="50.18" height="50.18"/>
      <path d="m668.38,274.75c10.28-10.65-5.96-26.94-16.26-16.26-20.9,21.65-28.73,54.06-20.81,83.04,7.85,28.75,31.73,50.51,60.36,57.86,15.77,4.05,32.78,3.82,48.22-1.51,5.87-2.02,9.75-7.89,8.03-14.15-1.57-5.71-8.25-10.07-14.15-8.03-20.26,6.99-43.26,3.22-60.42-10.31-17.09-13.47-24.91-36.05-21.39-56.97,2.16-12.86,7.43-24.38,16.41-33.68Z"/>
      <path d="m587.79,966.1c-.24.23-.26.27.63-.54,0,0-.02.01-.02.02-.2.18-.4.35-.6.53Z"/>
      <polygon points="622.35 960.87 622.36 960.88 622.36 960.87 622.35 960.87"/>
      <path d="m999,971.76c-.08.75-.07,1.16-.03,1.31-.02-.44,0-.86.03-1.28v-.03Z"/>
      <path d="m747.93,790.43c-.54-.07-.91-.06-1.1,0,.37-.02.73-.02,1.07.01.01,0,.02,0,.03,0Z"/>
      <path d="m997.3,990c-.25.23-.41.58-.48.84.15-.35.31-.65.47-.82,0,0,0-.02,0-.03Z"/>
      <path d="m726.96,779.95c.03-.09-.19-.42-.8-.75,0,0,0,0,0,0,.26.16.52.42.79.74Z"/>
      <path d="m643.7,998.07c.36-.83.72-1.65,1.08-2.47,1.1-2.53,2.16-5.07,3.14-7.66,1.63-4.28,2.62-8.84,2.75-13.47.51-18.05-13.13-33.61-28.72-38.62-19.36-6.22-39.88,4.24-53.53,18.52-3.96,4.14-4.2,11.85,0,15.94,4.26,4.16,10.78,4.42,15,0,1.31-1.37,2.66-2.7,4.08-3.96.1-.09.2-.17.3-.26.16-.15.42-.39.58-.51,0,0,.02-.01.03-.02.03-.03.06-.05.09-.08-.02.02-.04.04-.07.06.79-.61,1.59-1.21,2.4-1.79,1.54-1.09,3.13-2.1,4.76-3.01.88-.49,1.79-.91,2.66-1.39.13-.07.21-.12.27-.16.24-.08.49-.16.7-.24,1.83-.71,3.71-1.3,5.62-1.75.38-.09,2.16-.72,2.46-.49.04.03-2.08.19-.76.13.69-.03,1.38-.13,2.08-.16.83-.04,1.67-.04,2.5-.02.56.02,1.12.07,1.67.09.33.02,1.62.31.21-.02-1.51-.36.79.17,1.17.26.96.22,1.9.5,2.83.83.28.1,1.39.61,1.57.66.41.22.83.46.97.54.65.37,1.29.77,1.91,1.2.31.21.6.43.9.64-.03-.04-.05-.08-.06-.11.01.04.04.08.06.12.11.08.21.15.32.23,1.16.81,0,.23-.32-.22.31.53,1.53,1.35,1.86,1.68.53.54,1.04,1.09,1.53,1.67.14.17.28.34.42.51.12.58,1.08,1.66,1.35,2.14.1.18.48.79.78,1.35,0,.01,0,.02.01.04.11.36.25.7.36,1.06.26.83.48,1.68.66,2.53.03.15.06.27.08.38.03.88.07,1.74.03,2.62,0,.2-.01.35-.01.48-.02.07-.03.13-.05.21-.43,1.86-.76,4.35-1.75,5.98.05-.08.75-1.8.25-.61-.18.41-.34.83-.52,1.24-.41.97-.83,1.92-1.26,2.88-1.11,2.53-2.17,5.08-3.16,7.66-.91,2.39-1.6,4.81-2.08,7.29h21.87c.15-.33.31-.64.5-.88-.03.04-.27.61-.38.88h.02c.03-.07.07-.15.12-.27.24-.55.46-1.11.7-1.66Zm-17.46-33.24c.07.09.15.18.23.27,1.1,1.32.1.22-.23-.27Zm2.45,4.39s-.21-.52-.35-.92c.23.44.41.83.35.92Z"/>
      <path d="m556.28,851.28c26.34-4.05,49.48-18.8,65.54-39.79,4.6-6.01.93-15.67-5.02-19.15-7.21-4.22-14.55-1-19.15,5.02,1.2-1.57-.72.81-1.01,1.15-.79.92-1.6,1.83-2.43,2.72-1.5,1.59-3.06,3.13-4.67,4.6-.9.82-1.83,1.6-2.74,2.39-.09.08-.74.6-1.02.82-2,1.5-4.08,2.9-6.21,4.21-8.27,5.1-13.82,7.38-23.55,9.66-1.9.45-3.82.82-5.75,1.14-.41.05-1.7.24-2.04.28-1.21.12-2.42.22-3.63.29-4.67.27-9.38.18-14.03-.34.09-.03-3.31-.55-3.99-.7-2.37-.49-4.72-1.09-7.04-1.79-2.06-.63-4.1-1.34-6.11-2.13-.24-.1-.39-.15-.5-.19-.21-.11-.46-.23-.77-.38-1.29-.63-2.58-1.25-3.86-1.92-8.62-4.57-13.22-8.12-19.93-15.19-1.57-1.65-3.07-3.37-4.5-5.13.11.08-1.96-2.65-2.35-3.23-2.73-3.98-4.98-8.17-7.15-12.47-.17-.34-.3-.59-.41-.81-.04-.11-.09-.25-.18-.46-.45-1.11-.87-2.23-1.27-3.36-.72-2.03-1.35-4.09-1.91-6.17-.56-2.08-1.03-4.19-1.42-6.31-.13-.72-.26-1.45-.37-2.18.05.09-.25-3.04-.27-3.46-.27-4.37-.18-8.75.24-13.1.04-.38.26-1.9.28-2.13.12-.69.23-1.39.36-2.08.51-2.63,1.14-5.23,1.88-7.8,1.59-5.51,2.69-8.23,4.72-12.27,2.32-4.61,5.03-9.08,8.14-13.21.22-.26.76-.95.84-1.04,1.11-1.29,2.21-2.58,3.37-3.83,1.82-1.95,3.73-3.83,5.73-5.6,3.44-3.06,6.36-5.09,11.38-7.97,6.55-3.76,8.82-12.67,5.02-19.15-3.85-6.59-12.57-8.8-19.15-5.02-40.5,23.23-61.85,75.69-45.35,120.1,8.15,21.95,23.23,40.81,43.2,53.17,20.2,12.5,43.81,16.38,67.11,12.8Z"/>
      <rect x="465.86" y="918.55" width="30.94" height="30.94"/>
      <path d="m842.61,810.05c.09-.92.03-2.29,0,0h0Z"/>
      <path d="m179.8,972.44c-6.25-1.72-12.19,2.11-14.15,8.03-2.1,6.36-3.35,12.91-3.86,19.52h23.07c.5-4.44,1.48-8.9,2.97-13.41,1.94-5.9-2.26-12.56-8.03-14.15Z"/>
      <path d="m700.47,586.86c-.22.4-.56,1.03-.75,1.26-.09.14-.16.25-.21.33-.37.41-.73.83-1.13,1.22-12.62,12.88,7.16,32.7,19.8,19.8,14.65-14.95,14.15-38.59,3.05-55.5-12.81-19.52-35.47-26.24-57.64-27.92-20.85-1.58-43.25,2.78-62.38-5.75-6.59-2.94-12.71-8.44-16.33-13.96-1.19-1.81-2.27-3.69-3.24-5.62-.16-.33-.88-1.92-.93-1.95-.26-.67-.5-1.34-.73-2.02-.78-2.3-1.28-4.61-1.85-6.95-.05-.19-.18-1.02-.24-1.33-.12-1.17-.2-2.35-.23-3.51-.06-2.1-.02-4.24.21-6.34.05-.09.35-1.72.43-2.11.36-1.64.8-3.26,1.31-4.86.23-.72.49-1.42.75-2.13.01.09,1.14-2.48,1.14-2.5,1.1-2.15,2.39-4.16,3.69-6.19.2-.32.35-.56.48-.77.08-.08.19-.21.37-.43.91-1.12,1.88-2.19,2.88-3.23.83-.87,1.69-1.71,2.58-2.52.24-.22,2.26-1.9,2.12-1.84,1.76-1.3,3.64-2.46,5.55-3.51,1.05-.58,2.12-1.12,3.21-1.62.88-.41.87-.4-.03.01.9-.34,1.81-.65,2.73-.94,7.18-2.36,11.85-9.68,9.78-17.22-1.93-7.03-10.01-12.15-17.22-9.78-21,6.9-37.2,23.05-44.57,43.86-7.01,19.81-2.93,43.09,9.27,60,14.31,19.84,35.61,28.28,59.43,30.17,21.28,1.69,42.55-1.97,62.01,5.28,1.55.58,3.69,1.68,6.04,3.11.89.54,1.78,1.11,2.63,1.72.12.18,1.74,1.61,1.84,1.71.62.62,1.19,1.27,1.78,1.91.12.14.22.26.31.37.36.5.7,1.01,1.02,1.54.54.96,1.14,1.87,1.65,2.85.19.37.85,2.07.98,2.33.51,1.56.94,3.14,1.29,4.75.07.44.15,1,.15,1.3,0,1.24.03,2.47-.04,3.71.02-1.04-.53,1.71-.95,3.26Z"/>
      <path d="m823.99,773.02s.22.11,1.05.35c-.02-.01-.05-.02-.07-.03-.33-.1-.66-.2-.98-.31Z"/>
      <path d="m842.58,810.34c-.46,2.69-1.22,5.23-2.04,7.82,0,.03-.01.04-.02.07-.31.65-.59,1.31-.91,1.95-.65,1.31-1.38,2.58-2.15,3.82-3.08,4.92-1.06,12.69,3.81,15.42,5.33,2.99,11.23,1.21,14.51-4.04,11.66-18.66,10.97-45.48-1.06-63.78-6.61-10.06-15.73-17.29-26.75-21.05-10.21-3.48-21.75-3.52-32.05-.42-10.44,3.14-19.62,9.58-26.47,18.49-2.03,2.64-3.95,5.36-5.87,8.09-.61.87-1.23,1.73-1.84,2.6-.02.03-.04.05-.06.08-.05.06-.09.12-.15.2-.48.62-.95,1.25-1.44,1.87-1.45,1.82-2.97,3.57-4.65,5.15-.19.17-.37.34-.56.52-.17.15-.3.26-.39.34-.18.11-.34.21-.41.26-.52.37-1.05.71-1.59,1.03-.43.26-2.21,1.73-1.02.64,1.07-.98-.13.05-.71.25-.44.16-.89.3-1.34.43-.48.14-.97.24-1.46.35.06,0,.11,0,.18.02-.07-.01-.15,0-.22-.01-.18.04-.36.08-.54.12-.65.15-.88-.04-.53-.13-.74.05-1.5.15-2.18.12-.44-.02-.88-.06-1.33-.09,0,0-.01,0-.02,0-1.16-.29-2.3-.52-3.44-.89-.46-.15-.91-.3-1.36-.47-.22-.09-.45-.17-.67-.26-1.08-.45-.9-.36.53.27-.8.04-2.24-1.14-2.93-1.55-1.17-.69-2.32-1.44-3.42-2.25-.2-.15-.58-.38-.87-.62-.16-.19-.32-.38-.45-.5-.74-.68-1.45-1.4-2.14-2.14-.44-.47-1.01-1.4-1.59-2.1-.03.1-.33-.04-.74-.66-.02-.03-.03-.06-.05-.09-.02-.01-.04-.03-.06-.05.02.01.04.02.06.04-.46-.69-.89-1.39-1.31-2.1-.47-.81-.91-1.63-1.32-2.47-.22-.45-.43-.9-.63-1.36,0,.07.02.13.02.21,0-.07-.02-.16-.03-.24-.08-.17-.16-.35-.24-.52-.25-.53-.21-.71-.09-.6-.27-.7-.62-1.43-.78-1.95-.34-1.11-.64-2.24-.9-3.38-.23-1.03-.25-3.01-.71-4.01-.04-.45-.08-.89-.11-1.34-.17-2.59-.15-5.19.04-7.77.04-.5.27-1.42.21-1.97.19-1.15.41-2.3.66-3.44.58-2.6,1.49-5.04,2.25-7.57.26-.57.5-1.15.77-1.71.55-1.16,1.13-2.3,1.76-3.41.62-1.11,1.28-2.2,1.99-3.26,0,.01.52-.68.71-.99.09-.11.18-.23.27-.34,1.52-1.9,3.2-3.57,4.93-5.24-.04,0-.08,0-.12,0,.04,0,.12-.04.2-.1.04-.04.09-.09.13-.13.37-.36.58-.49.67-.5.28-.23.52-.45.61-.51,1.1-.8,2.25-1.53,3.42-2.22,4.85-2.87,6.87-10.38,3.81-15.42-3.17-5.22-9.33-7.12-14.51-4.04-18.18,10.77-28.85,32.59-29.11,54.4-.29,23.72,12.75,45.69,34.12,53.62,10.89,4.04,23.7,2.74,33.13-4.54,5.23-4.04,9.21-8.91,13.13-14.32,1.47-2.03,2.93-4.08,4.37-6.14,0,0,0,0,0,0,.32-.42.63-.85.96-1.27.96-1.25,1.96-2.48,3-3.65.84-.94,1.71-1.85,2.63-2.71.3-.28.61-.55.91-.82,0,0,0,0,0,0,2.12-1.44,4.19-2.77,6.43-4,.15-.08.25-.15.33-.22.28-.09.55-.16.75-.24,1.01-.39,2.02-.74,3.05-1.05,1.14-.34,2.3-.64,3.47-.89.5-.11,1-.19,1.5-.29.21-.02.42-.05.63-.07,2.14-.2,4.29-.25,6.43-.14.79.04,4.64.74,1.45.03,1.28.28,2.58.45,3.86.77,1.75.43,3.41,1.16,5.1,1.74.05-.01.57.12.98.31.12.03.23.08.35.11-.1-.03-.19-.05-.28-.08,0,0,.01,0,.02.01.53.27,1.06.55,1.59.85,1.15.65,2.27,1.37,3.36,2.14.12.09.33.2.54.34.05.04.11.09.18.16.28.24.55.48.81.72.97.89,1.89,1.83,2.77,2.82.4.45.79.9,1.17,1.37.23.28.45.56.67.85.5.65.3.37-.58-.83.7.23,1.98,3.05,2.33,3.67.6,1.05,1.16,2.13,1.68,3.24.05.1.33.65.57,1.15.05.19.14.48.29.92.88,2.56,1.57,5.19,2.04,7.87.07.41.13.82.2,1.23,0,.14.02.31.04.55.11,1.36.18,2.72.18,4.08,0,1.48-.05,2.97-.17,4.45-.04.48-.14,1-.14,1.47,0-.13,0-.24,0-.36-.01.1-.02.2-.04.29Zm-122.33-46.78c0-.06,0-.11-.01-.17.07.71.12,1.49.01.17Zm34.39,23.8c.16-.13.37-.31.64-.53-.1.15-.37.35-.64.53Zm75.97-10.62c.37.23.76.49.86.72-.4-.34-.69-.58-.86-.72Z"/>
      <polygon points="156.68 410.66 182.89 471.13 224.13 412.08 156.68 410.66"/>
      <path d="m381.68,20.4c12.57,18.12,32.38,29.63,54.34,31.55,25.05,2.18,49.11-10.72,63.71-30.54,3.69-5,.83-12.83-4.13-15.73-5.84-3.42-12.04-.89-15.73,4.13-10.39,14.11-30,21.89-46.63,18.76C416.64,25.42,403.73,14.83,396.66,0h-24.47c2.31,7.16,5.13,14.11,9.5,20.4Z"/>
      <path d="m97.99,140.38c.11.01.19.02.27.03.11.02.24.05.39.08,1.44.29,2.89.54,4.32.88,2.45.58,4.89,1.28,7.27,2.14.62.23,1.24.46,1.86.71.77.31.98.32.94.24.97.48,2.38,1.41,2.64,1.56,1.15.66,2.28,1.37,3.37,2.14.15.11.63.38.96.64.09.11.19.22.31.33.88.8,1.73,1.64,2.52,2.54.34.39.66.79.99,1.19.16.24.31.48.46.72.61,1,1.12,2.05,1.64,3.11.11.24.22.49.27.66.25.72.47,1.45.69,2.18.85,2.96,1.43,6,1.97,9.05,2.28,12.8,5.35,25.27,15.65,33.49,10.29,8.21,28.83,6.11,34.48-7.35,2.26-5.37,1.64-12.37-3.81-15.42-4.62-2.6-12.1-1.71-14.51,4.04-.1.24-.29.54-.44.84-.06.02-.12.04-.19.06.03,0,.07.02.1.02.03-.03.05-.05.08-.08-.02.03-.03.06-.05.09.01,0,.03,0,.04,0,0,0-.02.01-.02.02-.01,0-.02,0-.03,0,0,.01-.02.03-.02.04-.06.05-.12.09-.16.13.02-.04.07-.1.13-.18-.08,0-.16,0-.25,0-.14.05-.28.1-.41.14-.48.15-.63.08-.55-.03.08,0,.08-.01.02-.02,0,0,0,0,0,0-.01,0-.02,0-.04,0-.19-.03-.71-.08-1.01-.15.09.15-.02.21-.48-.1-.06-.04-.13-.09-.2-.14-.26-.1-.51-.2-.62-.19,0,0,0,0,0,0,.11-.02.21-.02.32-.02-.21-.15-.42-.29-.63-.4-.03-.03-.04-.06-.07-.09-.33-.4-.73-.8-1.08-1.16-.07-.07-.12-.13-.18-.18-.02-.04-.03-.06-.06-.1-.63-1.05-1.23-2.09-1.75-3.2-.08-.16-.19-.37-.31-.57-.12-.34-.22-.7-.31-.97-.89-2.64-1.53-5.37-2.06-8.12-1.11-5.75-1.81-11.64-3.65-17.2-4.05-12.24-12.46-21.61-23.61-26.89-10.95-5.18-22.88-7.72-34.88-7.59-13.98.16-27.64,3.89-40.07,10.63-4.95,2.69-6.79,10.51-3.81,15.42,3.26,5.37,9.22,6.92,14.52,4.04,1.31-.71,2.63-1.38,3.97-2.03,0,0,.01,0,.02-.01.64-.27,1.28-.54,1.92-.79,2.75-1.08,5.56-2,8.41-2.74,1.28-.33,2.57-.63,3.87-.9.72-.15,1.44-.28,2.17-.41.22-.04.62-.12.93-.19,2.62-.47,5.46-.46,8.08-.49,2.64-.03,5.28.08,7.91.34.58.06,1.17.13,1.75.19Zm63.25,43.21c-.07.02-.22.11-.38.22-.04,0-.14.06-.31.22-.03.02-.06.04-.09.07-.07.02-.14.04-.22.07.22-.21.58-.47,1-.57Zm-35.35-27.01c-.41-.86-.23-.51,0,0h0Zm-62.8-11.28c1.28-.62.51-.24,0,0h0Z"/>
      <polygon points="604.98 77.1 566.39 73.44 585.1 111.44 604.98 77.1"/>
      <path d="m284.84,409.81c24.18,2.73,48.85-11.14,60.25-32.36,7.01-13.04-12.84-24.67-19.86-11.61-7.88,14.67-25.16,23.99-40.88,20.8-18.07-3.67-29.63-17.74-32.38-35.63-1.72-11.16-1.48-22.52-3.56-33.66-1.88-10.05-6.1-19.53-12.29-27.66-12.32-16.19-30.97-26.97-50.67-31.52-27.71-6.4-56.15-1.72-83.72,2.94-6.13,1.03-9.56,8.59-8.03,14.15,1.78,6.49,8,9.07,14.15,8.03,23.53-3.97,48.57-8.44,72.2-2.77,16.94,4.06,33.4,13.57,41.71,29.16,4.8,9,5.38,19.97,6.14,30.22.92,12.4,2.33,24.59,7.77,35.93,9.07,18.91,28.6,31.67,49.17,33.99Z"/>
      <path d="m157.76,184.19s.08.02.13.03c-.11-.17-.49-.44-.98-.46.1.07.2.14.3.21.22.09.44.18.55.21Z"/>
      <path d="m66.78,843.27c5-2.6,6.75-10.57,3.81-15.42-3.3-5.44-9.17-6.83-14.51-4.04-.71.37-1.42.72-2.14,1.08-.05.03-.09.04-.14.07-.27.11-.56.23-.6.24-.63.25-1.26.49-1.89.72-17.78-.13-36.37-3.3-51.3-13.18v31.69c3.28,1.61,6.69,2.99,10.23,4.09,18.76,5.86,39.05,3.87,56.56-5.24Zm-12.49-18.54s-.18.09-.4.18c.22-.1.4-.19.4-.18Z"/>
      <rect x="0" y="284.81" width="43.02" height="50.18"/>
      <polygon points="124.53 9.05 85.12 24.57 117.71 47.2 124.53 9.05"/>
      <path d="m68.78,71.98c-3.35-5.51-9.12-6.73-14.52-4.04-.71.35-1.41.7-2.13,1.04-.22.11-.75.35-1.06.5-.96.42-1.93.84-2.91,1.23-2.93,1.17-5.9,2.21-8.93,3.08-2.72.78-5.46,1.34-8.22,1.9-.14.03-.24.05-.35.07-.02,0-.04,0-.06,0-.77.08-1.54.18-2.32.25-1.55.14-3.1.22-4.65.25-1.99.03-4.71.31-6.83-.13-.24-.1-.63-.24-.95-.3-.66-.12-1.31-.25-1.96-.39-1.3-.28-2.6-.62-3.88-1-1.15-.35-2.29-.73-3.42-1.16-.3-.11-.66-.22-1-.34-.12-.06-.29-.15-.53-.27-1.73-.87-3.42-1.8-5.06-2.84v24.88c7.29,2.76,15.11,4.09,22.71,4.09,14.8,0,28.99-4.79,42.27-11.4,5.04-2.51,6.72-10.63,3.81-15.42Z"/>
      <path d="m160.18,184.28s0-.02.01-.03c-.01,0-.02,0-.03,0-.01.01-.02.02-.03.03.02,0,.03,0,.05,0Z"/>
      <path d="m0,21.23C5.54,16.1,10.94,10.97,14.54,3.81,15.17,2.57,15.74,1.29,16.28,0H0v21.23Z"/>
      <path d="m160.05,184.22c-.59-.1-.98.03-1.11.14.28-.02.62-.07.93-.08.06-.02.12-.04.18-.06Z"/>
      <rect x="896.71" y="991.86" width="30.94" height="8.14"/>
      <path d="m832.79,981.54c.09-.35-.17.08-.31.84,0-.01.01-.03.02-.04.06-.25.18-.53.3-.8Z"/>
      <path d="m383.6,961.03c-4.08-9.76-9.89-18.64-17.55-25.99-15.18-14.57-36.43-23.32-57.59-22.04-24.86,1.51-47.42,14.66-61.31,35.23-3.48,5.15-.99,12.74,4.13,15.73,5.66,3.31,12.25,1.04,15.73-4.13,21.33-31.6,69.48-31.36,90.34.35,7.89,11.99,10.47,26.27,14.84,39.81h24.47c-.94-1.98-1.79-4.03-2.52-6.15-3.75-10.89-6.08-22.17-10.53-32.82Z"/>
      <rect x="883.05" y="820.21" width="30.94" height="30.94"/>
      <path d="m18.52,714.2c5.36-1.51,9.16-8.11,7.41-13.87-1.79-5.86-7.3-9.49-13.05-7.87-4.46,1.25-8.77,2.97-12.88,5.05v28.27c5.51-4.21,11.43-7.87,17.51-11.28.34-.1.67-.21,1.01-.31Z"/>
      <path d="m848.47,916.22c-9.83-17.87-25.81-31.31-44.09-38.19-18.92-7.12-39.33-5.17-57.43,3.55-19.76,9.51-35.25,27.89-42.36,49.59-1.83,5.58,2.08,12.58,7.41,13.87,5.92,1.43,11.09-1.9,13.05-7.87.33-1,.69-1.98,1.03-2.97.03-.1.06-.19.08-.28.12-.25.25-.5.32-.66.84-1.91,1.76-3.78,2.76-5.6,1-1.82,2.07-3.59,3.22-5.31.5-.74,1.77-3.35.57-.88.47-.97,1.47-1.91,2.14-2.73,2.61-3.18,5.48-6.12,8.55-8.8.23-.2.39-.34.49-.44.09-.07.18-.14.3-.23.7-.55,1.41-1.09,2.13-1.61,1.74-1.27,3.54-2.45,5.38-3.56,1.73-1.04,3.5-2,5.31-2.88.28-.14.47-.23.6-.3,1.13-.47,2.27-.93,3.42-1.36,3.76-1.37,7.61-2.34,11.52-3.04.11-.02.19-.04.27-.06.27-.01.52-.02.6-.03.86-.09,1.73-.16,2.6-.21,2.11-.12,4.22-.14,6.34-.03.99.05,1.98.12,2.97.22.38.04.92.17,1.32.17.86.16,1.72.32,2.57.5,10.1,2.63,20.11,8.22,27.8,15.7,9.94,9.67,16.27,22.09,18.65,36.32,1.09,6.56,1.18,13.33.33,20-.1.48-.18.96-.28,1.44-.5,2.3-1.09,4.57-1.79,6.81-.38,1.24-.8,2.48-1.24,3.7-.06.15-.13.33-.21.5-.03.14-.12.38-.29.79,0,0,0,0,0,.01-.01.05-.03.11-.04.16,0-.04.02-.08.02-.12-.91,2.13-1.9,4.21-2.99,6.24-1.09,2.04-2.27,4.04-3.54,5.96-.28.43-.57.85-.86,1.27-.13.19-.26.44-.35.65-.5.7-1.18,1.37-1.67,1.96-.43.52-.89,1.03-1.33,1.54h26c4.03-7.37,7.05-15.39,8.84-23.86,4.3-20.32,1.86-41.83-8.09-59.92Zm-61.96-19.73c.11.02.23.04.34.07-.63-.08-1.94-.35-.34-.07Z"/>
      <path d="m20.44,973.67C19.16,956.94,11.96,940.9,0,930.23v69.77h16.28c3.38-8.23,4.85-17.41,4.17-26.33Z"/>
      <path d="m878.5,542.16c1.61.09,3.21.24,4.82.42.3.04.64.08.78.11,1.1.2,2.2.38,3.29.6,4.14.83,8.23,1.96,12.21,3.38.82.29,1.63.6,2.44.92.17.07.32.13.39.17,1.81.84,3.61,1.71,5.36,2.67,1.76.96,3.48,1.98,5.16,3.06.75.48,1.49.98,2.22,1.49.3.21,1.96,1.51,2.08,1.57,2.54,2.11,4.94,4.37,7.18,6.8.76.82,1.49,1.65,2.21,2.5.1.11.52.63.85,1.04.41.58,1.53,2.08,1.43,1.93.63.91,1.25,1.83,1.85,2.77,2.04,3.2,3.75,6.53,5.43,9.93.1.21.19.38.26.53.4.96.77,1.94,1.12,2.92.76,2.1,1.45,4.22,2.05,6.37,1.01,3.57,1.78,7.19,2.36,10.85.03.23.06.45.07.56.1,1.11.22,2.23.3,3.34.16,2.23.25,4.47.25,6.71,0,2.24-.07,4.47-.23,6.7-.06.89-.14,1.78-.23,2.67-.04.42-.09.84-.14,1.26-.01.09-.03.2-.05.33-.73,4.4-1.73,8.73-3.1,12.98-.27.85-.56,1.69-.86,2.52-.11.32-.8,2.09-1.03,2.7-.22.49-.53,1.19-.61,1.34-.58,1.2-1.16,2.39-1.79,3.57-1.05,1.96-2.18,3.88-3.39,5.74-.49.75-.98,1.49-1.5,2.22-.31.44-.63.88-.95,1.32-.14.17-.3.38-.52.65-4.77,5.86-5.73,14.07,0,19.8,4.93,4.93,15,5.89,19.8,0,25.82-31.7,29.38-76.64,10.57-112.79-19.26-37.03-60.99-54.16-101.25-48.55-21.79,3.04-42.65,13.14-57.74,29.3-5.16,5.52-5.47,14.33,0,19.8s14.62,5.54,19.8,0c2.6-2.78,5.35-5.42,8.33-7.78.02.04,2.52-1.76,3.06-2.12,1.85-1.22,3.75-2.37,5.7-3.44,1.75-.96,3.54-1.86,5.36-2.69.14-.06.72-.31,1.19-.52.67-.24,2.41-.91,2.25-.86,3.78-1.36,7.65-2.47,11.57-3.32,1.75-.38,3.51-.69,5.27-.98.14-.02.26-.04.38-.06.1,0,.28-.02.55-.04.89-.09,1.78-.18,2.67-.24,4.24-.33,8.5-.37,12.74-.12Zm63.43,59.6c-.1-.67-.06-.42,0,0h0Zm-5.29-19.32c.34.7.2.41,0,0h0Zm-34.65-34.86c-1.52-.59-.65-.26,0,0h0Z"/>
      <path d="m275.27,815.93c19.43,6.41,40.05,3.65,59.89,6.79,8.49,1.35,17.32,3.58,24.07,9.05,6.11,4.95,9.08,10.63,13.3,18.01,9.44,16.51,19.65,34.19,40.86,35.13,6.21.27,11.5-5.48,11.5-11.5,0-6.46-5.27-11.23-11.5-11.5-.45-.02-.75-.03-.95-.04-.64-.13-1.27-.3-1.9-.47-.14-.04-.59-.21-.96-.35-.35-.19-.87-.46-.99-.54-.57-.38-1.16-.72-1.72-1.11-.02-.02-.04-.02-.06-.04-.12-.12-.26-.26-.45-.44-1.17-1.13-2.28-2.28-3.34-3.51-.15-.18-.25-.29-.32-.35-.57-.75-1.1-1.52-1.63-2.29-.89-1.3-1.73-2.63-2.55-3.98-1.92-3.13-3.7-6.34-5.52-9.54-3.71-6.52-7.61-12.86-12.45-18.61-6.05-7.19-14.02-12.12-22.65-15.6-16.97-6.83-35.58-6.16-53.5-7.33-8.52-.56-17.15-1.62-25.17-4.71-3.02-1.16-6.09-2.77-8.7-4.7-1.39-1.03-2.65-2.3-3.83-3.57-.09-.1-.3-.37-.46-.59-.53-.78-1.03-1.6-1.48-2.43-.77-1.43-1.89-4.76-2.25-6.84-.01-.25-.13-1.39-.14-1.6-.04-.91-.08-1.82-.06-2.74.01-.73.07-1.44.11-2.17.01-.25.02-.42.02-.57.05-.12.12-.31.21-.6.21-.66.33-1.36.53-2.03.07-.25.73-1.78.72-1.85.18-.33.35-.67.53-1,.24-.44,2.07-2.59.5-.87.42-.46.87-1.02,1.36-1.4.76-.58.71-.53.52-.37.3-.2.84-.46,1.07-.58.73-.23,1.49-.4,2.24-.57,6.07-1.34,9.62-8.38,8.03-14.15-1.72-6.26-8.06-9.37-14.15-8.03-17.35,3.82-26.08,21.94-24.52,38.56,1.96,20.85,16.42,34.63,35.77,41.01Z"/>
      <rect x="559.58" y="561.47" width="30.94" height="30.94"/>
      <path d="m266.83,759.68s-.1.06-.13.09c-.57.48-.11.11.13-.09Z"/>
      <polygon points="589.12 666.69 555.57 721.16 625.47 721.16 589.12 666.69"/>
      <path d="m467.39,544.23c3.56-5.1.93-12.78-4.13-15.73-5.73-3.35-12.17-.98-15.73,4.13-9.43,13.51-27.37,20.13-42.81,16.22-8.11-2.05-15.27-6.36-20.98-12.46-6.61-7.08-9.38-16.22-11.9-25.36-4.96-18.04-10.97-34.51-26.13-46.4-13.34-10.47-29.85-16.16-46.81-16.56-18.46-.43-36.74,6.02-50.08,18.91-10.67,10.3,5.61,26.56,16.26,16.26,9.58-9.25,22.15-12.89,36.19-12.07.79.05,1.58.12,2.38.18.35.03.61.05.82.06.08.01.15.02.26.04,1.77.26,3.53.61,5.27,1.02,1.74.41,3.46.89,5.17,1.43.94.3,1.88.62,2.81.96.24.09,1.92.79,2.13.86,3.06,1.39,6.01,3.04,8.8,4.92,2.3,1.55,4.66,3.49,7.49,6.5,2.35,2.5,3.15,3.5,5.23,7.06,2.22,3.8,3.68,7.84,4.97,12.04,3.36,10.93,5.65,22.11,10.88,32.39,9.49,18.64,28.77,31.27,49.31,33.84,23.86,2.98,47.04-8.8,60.6-28.23Z"/>
      <path d="m566.83,171.28c-27.07,15.89-60.85,27.74-90.96,14.76-11.14-4.8-21.27-13-27.17-23.71-5.83-10.58-5.93-20.94-2.02-32.18,3.88-11.18,12.98-19.84,25.02-21.89,6.13-1.04,9.56-8.59,8.03-14.15-1.78-6.49-8-9.08-14.15-8.03-33.08,5.64-51.91,45.54-41.88,76.02,11.82,35.92,51.05,54.83,87.09,52.18,24.17-1.78,46.91-10.97,67.64-23.14,12.76-7.49,1.2-27.38-11.61-19.86Z"/>
      <path d="m815.97,5.86c-.25.22-.93.68-1.11.95-.08.06-.16.12-.24.19-4.46,3.48-7.13,9.94-3.81,15.42,2.85,4.69,9.73,7.78,14.51,4.04C834.48,19.32,842.1,10.3,847.73,0h-26c-1.06,1.21-2.14,2.39-3.28,3.52-.81.8-1.64,1.58-2.48,2.34Z"/>
      <rect x="992.84" y="284.81" width="7.16" height="50.18"/>
      <polygon points="813.52 142.92 847.32 84.53 781.71 78.31 813.52 142.92"/>
      <rect x="950.11" y="471.13" width="30.94" height="30.94"/>
      <path d="m901.82,189.41c11.38,10,25.54,14.56,40.27,14.1,17.35-.54,33.37-7.36,49.09-14.55,5.12-2.34,6.65-10.74,3.81-15.42-3.43-5.65-9.04-6.55-14.51-4.04-.89.4-1.77.81-2.66,1.21-.05.02-.09.04-.14.06-1.49.66-2.98,1.31-4.47,1.94-2.99,1.26-6,2.45-9.05,3.53-2.74.97-5.51,1.84-8.31,2.58-1.56.41-3.12.79-4.7,1.11-.61.13-1.23.25-1.85.36-.47.09-1.26.2-1.53.24-2.65.3-5.3.48-7.96.47-1.37,0-2.74-.06-4.11-.17-.68-.05-1.36-.14-2.05-.2-.49-.08-.97-.17-1.45-.27-2.69-.54-5.29-1.36-7.87-2.32-.1-.04-.19-.07-.27-.1-.6-.29-1.2-.59-1.78-.91-1.13-.62-2.22-1.29-3.29-2.01-.53-.36-1.06-.74-1.58-1.12-.19-.14-.46-.3-.68-.42-.68-.56-1.31-1.31-1.89-1.88-.83-.83-1.64-1.68-2.41-2.57-.43-.49-.85-1-1.26-1.51-.14-.17-.28-.35-.41-.53-1.32-2.02-2.59-4.04-3.66-6.22-.24-.48-.46-.96-.68-1.44-.02-.04-.13-.3-.26-.59-.16-.42-.42-1.1-.45-1.18-.26-.76-.51-1.52-.73-2.29-.51-1.74-1.38-4.12-1.51-6.11.04-.36.07-.85.04-1.17-.04-.54-.06-1.07-.08-1.61-.05-1.48-.03-2.95.07-4.43.01-.18,0-.5,0-.83.03-.13.06-.29.1-.52.24-1.3.47-2.6.79-3.88.28-1.15.61-2.29.98-3.42.06-.19.13-.48.2-.77.18-.44.37-.89.56-1.33,1.18-2.66,2.65-5.1,4.16-7.55.06-.1.15-.25.23-.39.29-.37.61-.73.9-1.09.98-1.2,2.02-2.36,3.11-3.45.66-.67,2.32-1.66,2.77-2.53.61-.46,1.23-.9,1.86-1.32,1.16-.78,2.35-1.5,3.57-2.16.42-.23.85-.43,1.28-.66.33-.14.67-.27,1.01-.4,5.2-2.02,9.27-7.75,7.41-13.87-1.65-5.43-7.47-10.04-13.05-7.87-12.34,4.78-22.69,13.68-29.45,25.7-6.84,12.18-9.04,26.29-6.67,40.18,2.18,12.78,9.18,25.37,18.59,33.64Zm75.99-18.71c.39-.18,1.69-.75,0,0h0Zm-71.83-39.28c-.15.36-.29.72-.44,1.08.11-.43.25-.88.44-1.08Zm-2.34,8.54s-.1.46-.16.85c.01-.36.05-.7.16-.85Z"/>
      <path d="m969.65,817.31c7.82,11.84,18.18,21.14,30.35,27.1v-31.69c-4.87-3.23-9.35-7.17-13.29-11.95-2.14-2.6-4.06-5.45-5.72-8.46-1.17-3.33-2.12-6.75-2.82-10.22-.16-.8-.31-1.61-.45-2.41-.16-.92-.07-3.47-.15-.65.05-1.73-.36-3.57-.44-5.3-.17-3.69-.04-7.36.32-11.04,0,0,0,0,0-.01.01-.07.03-.14.04-.24.17-.94.31-1.88.5-2.81.36-1.82.79-3.61,1.3-5.39.43-1.52.92-3.02,1.45-4.51.11-.3.18-.51.23-.66.35-.83.71-1.65,1.08-2.46,1.31-2.84,2.81-5.57,4.47-8.19,4.06-4.77,8.61-8.91,13.47-12.62v-28.27c-25.26,12.81-43.18,40.33-44.12,70.48-.54,17.23,4.45,35.2,13.78,49.32Z"/>
      <path d="m777.71,187.94c-1.95-6.41-7.14-8.78-13.05-7.87-.19.03-.34.05-.48.07,0,0,0,0-.02,0-.79.09-1.58.21-2.38.3-1.43.16-2.86.31-4.29.43-3.34.28-6.69.42-10.04.39-2.86-.02-5.72-.16-8.57-.45-.63-.06-1.26-.14-1.89-.21-.1-.01-.18-.02-.27-.03-.06-.01-.12-.03-.21-.05-1.71-.36-3.44-.63-5.14-1.03-2.57-.61-5.12-1.36-7.61-2.28-.91-.33-1.88-.66-2.79-1.06-.18-.1-.39-.22-.53-.29-.71-.37-1.43-.71-2.13-1.08-2.35-1.25-4.62-2.65-6.8-4.21-.64-.46-1.34-.9-1.97-1.41-.19-.2-.43-.43-.59-.57-.7-.62-1.39-1.26-2.06-1.92-1.72-1.69-3.3-3.51-4.81-5.41-.21-.26-.34-.43-.43-.53-.25-.4-.48-.83-.7-1.17-.72-1.15-1.4-2.34-2.03-3.55-.34-.66-.67-1.33-.98-2-.1-.23-.32-.67-.46-.96-.32-.85-.57-1.75-.84-2.61-.43-1.43-.8-2.88-1.11-4.35-.12-.59-.23-1.18-.34-1.77-.06-.33-.1-.65-.15-.98,0-.01,0-.02,0-.04-.12-2.87-.32-5.68-.13-8.56.04-.6.1-1.2.15-1.8.18-2.04-.03-.31-.04.21-.07-1.55.7-3.71,1.08-5.18.34-1.3.73-2.59,1.17-3.86.05-.13.1-.31.14-.5.17-.46.48-1.01.64-1.36.23-.5,2.61-4.72,3.61-6.35-.18.22-.26.3.1-.17.19-.31.32-.49.33-.48,0,0,0,.04-.03.09.02-.02.03-.04.05-.07.5-.63,1.01-1.25,1.54-1.85.97-1.11,1.98-2.16,3.04-3.17.38-.37.77-.73,1.17-1.08.17-.15.34-.29.51-.44.03-.02.05-.04.09-.07,1.2-.82,2.33-1.71,3.56-2.48,1.11-.7,2.25-1.35,3.41-1.95.03-.02.22-.11.46-.23.25-.08,1.8-.77,2.01-.84,2.69-1,5.45-1.69,8.26-2.15,5.5-.89,9.03-8.55,7.41-13.87-1.94-6.37-7.15-8.83-13.05-7.87-26.83,4.35-47.01,30.53-46.95,59.08.03,15.04,5.39,29.25,14.76,40.44,8.4,10.04,20.01,17.05,32.02,20.95,16.25,5.27,33.33,4.62,49.94,2.09,5.51-.84,9.02-8.58,7.41-13.87Z"/>
      <path d="m642.87,0c-.06.16-.08.22.02,0h-.02Z"/>
      <rect x="896.71" y="0" width="30.94" height="22.8"/>
      <path d="m643.01,15.81s0-.05-.01-.08c0,.03,0,.05.01.08,0,0,0,0,0,0Z"/>
      <path d="m986.03,41.83c.06.29.29-.08.13-.99,0,.03-.01.07-.02.1-.01.27-.06.59-.1.89Z"/>
      <path d="m986.78,87.58c4.05,2.99,8.53,5.36,13.22,7.13v-24.88c-.63-.4-1.25-.81-1.86-1.25-.44-.31-.86-.65-1.3-.96-.01,0-.02-.01-.03-.02,0,0,0,0,0,0-.88-.85-1.79-1.63-2.64-2.51-.85-.88-1.66-1.8-2.43-2.75-.12-.15-.31-.35-.49-.52-.34-.49-.64-1.07-.92-1.54-.57-.93-1.09-1.89-1.58-2.87-.29-.59-.54-1.2-.83-1.79,0-.03-.01-.04-.02-.07-.75-2.29-2.11-5.47-1.97-7.95.01.49.21,2.42.1.44-.03-.55-.08-1.1-.1-1.65-.06-1.37-.04-2.75.05-4.12,0-.12.03-.26.05-.43-.02-.11-.02-.32.05-.64.02-.08.03-.16.05-.24,0-.13,0-.24-.02-.32.02.08.03.15.04.22.3-1.35.56-2.68.98-4.01.11-.35.21-.74.33-1.11.08-.12.15-.25.21-.35.65-1.19,1.29-2.37,1.96-3.55.07-.13.13-.24.17-.35.23-.28.51-.57.67-.76.98-1.19,2.02-2.31,3.1-3.39,2.1-2.11,4.28-4.11,6.43-6.1V0h-9.37c-6.78,6.89-14.58,12.61-19.75,21.14-6.44,10.62-7.57,24.38-4.62,36.43,3.05,12.5,10.67,22.71,20.52,30.01Z"/>
      <polygon points="115.44 967.22 156.68 908.17 89.23 906.74 115.44 967.22"/>
      <rect x="34.95" y="536.39" width="50.18" height="50.18"/>
      <path d="m626.44,30.45c9.65,15.88,27.41,23.73,44.91,21.48,19.46-2.51,35.78-14.58,47.67-30.75,1.81-2.46,3.11-4.71,3.11-7.97,0-2.77-1.16-6.07-3.11-7.97-3.81-3.72-11.35-4.96-15,0-2.32,3.15-4.77,6.18-7.44,9-1.28,1.36-2.6,2.67-3.97,3.93-.73.68-1.5,1.32-2.24,1.98-.15.14-.23.2-.27.25-.21.14-.41.27-.57.38-2.89,2.18-6.52,5.08-9.98,6.1-.21.07-.44.15-.64.23-.94.37-1.88.7-2.84,1-1.93.61-3.88.98-5.84,1.43-.07.02-.12.03-.17.04-.16,0-.3,0-.41.01-.99.09-1.99.16-2.99.18-.85.02-1.71.02-2.56-.02-.77-.03-2.71.17-3.39-.27,0,0,1.99.39.72.08-.55-.13-1.11-.21-1.66-.34-.83-.19-1.65-.41-2.46-.65-.95-.29-1.88-.63-2.81-.98-.03-.01-.09-.03-.15-.06-.29-.15-.7-.37-.8-.42-.51-.27-3.7-2.79-4.32-2.81-.18-.17-.36-.33-.54-.5-.65-.62-1.28-1.28-1.89-1.96-.09-.1-.48-.56-.83-.97.11.06-1.05-1.51-1.22-1.78-.41-.67-.79-1.36-1.16-2.05-.18-.35-.35-.7-.52-1.06-.03-.06-.04-.1-.07-.16.02.1.04.21.05.32-.01-.11-.03-.21-.05-.32-.51-1.11-.18-.87-.01-.08-.26-1.46-1.08-3.06-1.39-4.49-.04-.17-.12-.68-.2-1.11-.04-.61-.12-1.75-.12-2.12,0-.77.07-1.54.07-2.31.03-.19.06-.38.1-.57.28-1.4.6-3.62,1.29-5.13h-21.87c-.38,1.98-.64,3.99-.76,6.04-.5,8.4,2.06,17.38,6.33,24.41Zm64.44-10.72c-.15.22-.42.42-.7.61.22-.18.68-.57.7-.61Zm-19.95,9.7c-.14.08-.36.1-.6.12.29-.05.59-.11.6-.12Zm-21.38-4.87c-.08-.07-.15-.14-.23-.21.43.32,1.57,1.47.23.21Z"/>
      <path d="m178.92,740.51c-2.87-14.58-10.59-28.6-21.04-38.51-11.43-10.84-25.6-16.98-40.88-17.92-17.22-1.05-34,5.27-47.29,16.74-4.33,3.74-3.93,12.11,0,15.94,4.59,4.48,10.39,3.98,15,0,.11-.1.2-.17.27-.24.02-.02.03-.02.06-.04.65-.47,1.28-.97,1.93-1.43,1.09-.77,2.2-1.49,3.34-2.17,1.37-.82,2.78-1.53,4.18-2.27.05-.03.09-.05.13-.07.81-.32,1.6-.66,2.42-.96,2.72-1,5.5-1.79,8.33-2.36.62-.12,1.39-.37,2.06-.4.21,0,.41,0,.56-.02,1.56-.16,3.13-.25,4.7-.28,1.31-.02,2.61,0,3.92.07.78.04,1.56.1,2.34.18.21.02.6.02.94.02,2.77.13,5.96,1.37,8.49,2.24,1.03.36,2.14.7,3.15,1.18.32.18.69.39.84.47.69.35,1.37.72,2.05,1.11,1.12.64,2.22,1.32,3.3,2.05.65.43,1.28.88,1.91,1.34.18.13,1.51,1.22,1.72,1.36.19.17.35.31.38.34.58.52,1.16,1.06,1.72,1.61.94.92,1.85,1.86,2.73,2.84,1.06,1.18,2.04,2.42,3.04,3.66.05.06.08.1.13.15.03.05.05.08.09.14.44.67.89,1.32,1.32,2,1.57,2.47,2.98,5.06,4.21,7.74.28.61.7,1.33.9,2,.05.21.11.4.15.53.54,1.52,1.02,3.06,1.45,4.62.35,1.3.66,2.61.93,3.93.16.79.31,1.59.44,2.39.04.27.08.53.12.8.18,1.26.15,1.07-.07-.58.47,1,.26,2.92.3,4.05.08,1.9.06,3.8-.05,5.69-.04.68-.09,1.35-.15,2.02-.03.3-.01.66.01.93-.15,1.23-.56,2.58-.8,3.68-.66,3-1.59,5.88-2.59,8.77,0,.02-.02.03-.03.06-.45.98-.87,1.96-1.34,2.93-.7,1.44-1.46,2.86-2.27,4.24-.8,1.37-1.65,3.03-2.69,4.28.38-.49.8-1.07-.1.06-.66.83-1.31,1.66-2,2.47-1.03,1.2-2.1,2.36-3.21,3.48-.56.56-1.12,1.1-1.7,1.63-.45.41-2.88,2.92-.82.79-2.27,2.35-5.65,4.05-8.44,5.55-4.96,2.66-6.78,10.52-3.81,15.42,3.27,5.39,9.2,6.89,14.51,4.04,26.61-14.27,41.26-47.47,35.21-78.29Z"/>
      <path d="m121.55,477.43c-.56-1.74-1.01-3.51-1.38-5.29-.15-.73-.28-1.46-.4-2.2-.04-.31-.09-.65-.1-.8-.33-5.12-.36-10.22-.38-15.35-.07-20.27-3.7-40.07-20.63-53.06-13.53-10.37-31.43-13.35-48.12-12.46C32.99,389.22,16.79,394.67,0,399.12v28.84c14.31-3.42,28.21-8.54,42.76-10.93-.11.05,3.3-.41,3.75-.45,1.78-.16,3.57-.28,5.36-.36,3.99-.16,7.92.05,11.89.28.19.01.59.06.92.1.58.09,1.15.18,1.72.29,1.65.31,3.28.68,4.9,1.13,1.57.43,3.09.96,4.63,1.5.02,0,.03.02.05.02,1.07.54,2.14,1.06,3.17,1.66.68.4,1.33.86,2.02,1.25.25.14.42.23.55.29.1.1.22.22.38.37,1.29,1.22,2.53,2.43,3.71,3.75.03.04.04.07.07.12.55.88,1.14,1.73,1.64,2.64,1.26,2.26,1.46,2.96,2.14,5.47.69,2.56,1.01,4.29,1.16,6.04.21,2.52.33,5.04.39,7.56.12,5.37-.03,10.74.17,16.11.78,20.86,9.27,43.61,31.08,50.11,7.24,2.16,15.25-2.6,17.22-9.78,2.04-7.44-2.51-15.05-9.78-17.22-.47-.14-.79-.23-1.01-.29-.66-.35-1.3-.74-1.94-1.14-.05-.05-.1-.11-.16-.18-.55-.58-1.11-1.14-1.65-1.72.19.07-1.69-2.64-1.93-3.08-.29-.53-.56-1.08-.83-1.63.18.27-.83-2.33-.87-2.45Zm-45.62-57.92c-2.27-.81-.59-.28,0,0h0Z"/>
      <polygon points="283.17 210.58 324.41 151.54 256.96 150.11 283.17 210.58"/>
      <polygon points="390.93 587.99 323.48 586.56 349.69 647.03 390.93 587.99"/>
      <path d="m161.8,0c-2.05,26.8,8.49,54.47,27.75,73.25,24.45,23.84,61.55,29.81,92.99,17.2,18.12-7.27,33.59-19.35,43.9-36.07,7.79-12.63-12.1-24.2-19.86-11.61-13.4,21.72-39.37,33.01-64.64,30.94-24.46-2.01-45.7-20.88-53.61-44.45C185.01,19.32,183.78,9.7,184.87,0h-23.07Z"/>
      <path d="m258.21,582.76c-13.83-13.83-33.1-21.41-52.5-22.12-26.11-.96-51.18,9.56-73.47,22.18-12.88,7.3-1.3,27.17,11.61,19.86,18.35-10.39,38.58-19.41,60.08-19.09,15.31.23,32.12,6.86,41.7,19.52,10.7,14.12,6.55,31.97,5.23,49.13-1.49,19.49,3.65,40.06,22.52,49.46,18.8,9.36,41.39,4.75,60.52-1.12,14.11-4.33,8.09-26.54-6.11-22.18-8.14,2.5-16.72,4.8-24.61,5.39-7.52.56-14.41.24-19.86-2.81-5.6-3.14-9.11-9.61-9.65-16.58-.71-9.31.93-18.67,1.74-27.92,1.78-20.17-2.52-39.03-17.2-53.71Z"/>
      <path d="m701.67,115.89c.14-.17.33-.42.4-.55-.12.16-.22.28-.3.38-.03.05-.07.11-.1.17Z"/>
      <polygon points="560.37 303.08 521.79 299.42 540.49 337.41 560.37 303.08"/>
      <path d="m464.87,375.32c5.68,1.56,12.91-1.92,14.15-8.03,7.46-36.78-3.46-75.21-28.23-103.28-25.58-28.99-64.78-41.28-102.61-36.02-21.32,2.97-40.93,11.69-57.66,25.16-4.84,3.9-4.06,12.2,0,16.26,4.78,4.78,11.41,3.91,16.26,0,23.66-19.05,56.97-24.23,85.5-16.09,28.73,8.2,51.18,31.04,60.73,58.87,5.47,15.95,7.11,32.83,3.83,48.97-1.23,6.08,1.75,12.42,8.03,14.15Z"/>
      <rect x="407.28" y="415.8" width="50.18" height="50.18"/>
    </g>
  </g>
</svg>