<?xml version="1.0" encoding="UTF-8"?>
<svg id="Layer_8_copy" data-name="Layer 8 copy" xmlns="http://www.w3.org/2000/svg" viewBox="0 0 1000 1000">
  <g id="Patterns_copy" data-name="Patterns copy">
    <path d="m804.9,5.94c-.89-1.93-1.44-3.93-1.69-5.94h62.23l-34,15.71c-2.71,1.25-5.57,1.85-8.38,1.85-7.56,0-14.79-4.31-18.17-11.62Zm-93,47.31c1.6,0,3.22-.19,4.84-.6,10.72-2.66,17.25-13.51,14.58-24.23L724.26,0h-41.22l9.46,38.07c2.26,9.1,10.42,15.18,19.39,15.18Zm-400.21-21.59c8.87,0,16.98-5.95,19.33-14.93,1.57-5.99.25-12.06-3.09-16.73h-139.5l118.18,31c1.7.45,3.41.66,5.09.66ZM6.58,97.63c-1.58-3.13-3.88-5.66-6.58-7.51v33.01c8.17-5.57,11.16-16.45,6.58-25.51Zm24.09,306.57c2.4,0,4.85-.44,7.23-1.36,10.3-3.99,15.41-15.58,11.41-25.88L0,249.82v110.61l12.02,31c3.07,7.92,10.64,12.77,18.65,12.77Zm9.43,24.04c-13.03,0-23.59,10.56-23.59,23.59s10.56,23.59,23.59,23.59,23.59-10.56,23.59-23.59-10.56-23.59-23.59-23.59ZM779.49,118.69c-9.56,5.53-12.83,17.76-7.3,27.33,3.71,6.41,10.42,9.99,17.33,9.99,3.4,0,6.84-.87,9.99-2.69l174.06-100.66c9.56-5.53,12.83-17.76,7.3-27.33-5.53-9.56-17.76-12.83-27.33-7.3l-174.06,100.66Zm-115.58,421.17c1.55,2.28,4.06,3.5,6.62,3.5,1.55,0,3.11-.45,4.49-1.38,3.65-2.48,4.6-7.46,2.12-11.11l-50.83-74.8c-2.48-3.65-7.46-4.6-11.11-2.12-3.65,2.48-4.6,7.46-2.12,11.11l50.83,74.8ZM928.48,12.76c1.16,0,2.34-.25,3.45-.79L956.9,0h-34.86c-1.71,2.31-2.11,5.45-.79,8.22,1.38,2.87,4.24,4.54,7.22,4.54Zm-151.56,27.61c.89,0,1.8-.15,2.69-.47,4.16-1.49,6.33-6.07,4.84-10.23L773.84,0h-16.99l12.54,35.06c1.17,3.27,4.25,5.31,7.53,5.31Zm6.85,205.51c.84,0,1.7-.13,2.54-.42,4.19-1.4,6.45-5.94,5.05-10.13l-25.97-77.59c-1.4-4.19-5.94-6.45-10.12-5.05-4.19,1.4-6.45,5.94-5.05,10.13l25.97,77.59c1.12,3.35,4.24,5.46,7.58,5.46ZM64.76,321.25l-26.69-88.78c-1.27-4.23-5.74-6.63-9.96-5.36-4.23,1.27-6.63,5.73-5.36,9.96l26.69,88.78c1.04,3.46,4.22,5.7,7.66,5.7.76,0,1.54-.11,2.31-.34,4.23-1.27,6.63-5.73,5.36-9.96Zm97.23-178.3c.57,0,1.16-.06,1.74-.19l74.78-16.6c4.31-.96,7.03-5.23,6.08-9.54-.96-4.31-5.23-7.03-9.54-6.08l-74.78,16.6c-4.31.96-7.03,5.23-6.08,9.54.83,3.73,4.13,6.27,7.8,6.27Zm148.68,64.35c0,13.03,10.56,23.59,23.59,23.59s23.59-10.56,23.59-23.59-10.56-23.59-23.59-23.59-23.59,10.56-23.59,23.59Zm357.82-48.8l48.09,113.24c3.23,7.62,10.63,12.19,18.42,12.19,2.61,0,5.26-.51,7.81-1.6,10.17-4.32,14.91-16.06,10.59-26.23l-48.09-113.24c-4.32-10.17-16.06-14.91-26.23-10.59-10.17,4.32-14.91,16.06-10.59,26.23ZM125.01,117.95c1.08,0,2.18-.09,3.28-.27l176.15-29.05c10.9-1.8,18.28-12.09,16.48-22.99-1.8-10.9-12.09-18.27-22.99-16.48l-176.15,29.05c-10.9,1.8-18.28,12.09-16.48,22.99,1.62,9.8,10.09,16.75,19.71,16.75Zm386.8,208.01c3.54,2.56,7.64,3.79,11.7,3.79,6.2,0,12.31-2.87,16.22-8.28l94.02-130.02c6.47-8.95,4.46-21.45-4.49-27.93-8.95-6.47-21.45-4.46-27.93,4.49l-94.02,130.02c-6.47,8.95-4.46,21.45,4.49,27.93Zm99.21,74.26c1.33.85,2.82,1.25,4.28,1.25,2.65,0,5.24-1.31,6.76-3.71,2.37-3.73,1.27-8.67-2.46-11.04l-82.49-52.43c-3.73-2.37-8.67-1.27-11.04,2.46-2.37,3.73-1.27,8.67,2.46,11.04l82.49,52.43ZM63.7,254.48c0,13.03,10.56,23.59,23.59,23.59s23.59-10.56,23.59-23.59-10.56-23.59-23.59-23.59-23.59,10.56-23.59,23.59ZM175.5,42.47l68.57,1.05s.08,0,.12,0c4.36,0,7.93-3.5,8-7.88.07-4.42-3.46-8.05-7.88-8.12l-68.57-1.05c-4.44-.05-8.05,3.46-8.12,7.88-.07,4.42,3.46,8.05,7.88,8.12ZM43.89,186.97c1.38,10.01,9.96,17.27,19.79,17.27.91,0,1.83-.06,2.76-.19,10.94-1.51,18.59-11.61,17.07-22.55L59.67,8.92C59.21,5.58,57.94,2.56,56.1,0H23.63c-2.89,4.02-4.31,9.1-3.58,14.39l23.84,172.58Zm53.19,173.32c3.96,4.75,9.65,7.21,15.39,7.21,4.51,0,9.04-1.52,12.78-4.63l111.15-92.46c8.49-7.06,9.65-19.67,2.58-28.17-7.06-8.49-19.67-9.65-28.17-2.58l-111.15,92.46c-8.49,7.06-9.65,19.67-2.58,28.17Zm37.3-141.42c3.61,6.71,10.51,10.53,17.63,10.53,3.2,0,6.44-.77,9.46-2.39l138.41-74.45c9.73-5.23,13.37-17.36,8.14-27.09-5.23-9.73-17.36-13.37-27.09-8.14l-138.41,74.45c-9.73,5.23-13.37,17.36-8.14,27.09ZM.32,577.62c-.1-.2-.22-.38-.32-.57v19.06c3.01-5.55,3.36-12.42.32-18.49ZM753.33,107.01c13.03,0,23.59-10.56,23.59-23.59s-10.56-23.59-23.59-23.59-23.59,10.56-23.59,23.59,10.56,23.59,23.59,23.59Zm43,420.3c3.91,3.91,9.02,5.86,14.14,5.86s10.24-1.95,14.14-5.86l121.63-121.63c7.81-7.81,7.81-20.47,0-28.28s-20.47-7.81-28.29,0l-121.63,121.63c-7.81,7.81-7.81,20.47,0,28.28ZM60.26,705.36c-4.42.18-7.84,3.91-7.66,8.32l3.11,75.06c.18,4.3,3.72,7.67,7.99,7.67.11,0,.22,0,.34,0,4.42-.18,7.84-3.91,7.66-8.32l-3.11-75.06c-.18-4.41-3.92-7.85-8.32-7.66Zm126.6-91.99c-3.73-10.4-15.18-15.8-25.58-12.08L0,659.1v42.49l174.78-62.65c10.4-3.73,15.81-15.18,12.08-25.58Zm633.14-51.5c-4.28-1.09-8.64,1.5-9.73,5.78l-22.37,87.9c-1.09,4.28,1.5,8.64,5.78,9.73.66.17,1.33.25,1.98.25,3.57,0,6.83-2.41,7.75-6.03l22.37-87.9c1.09-4.28-1.5-8.64-5.78-9.73Zm32.94-19.34c0,13.03,10.56,23.59,23.59,23.59s23.59-10.56,23.59-23.59-10.56-23.59-23.59-23.59-23.59,10.56-23.59,23.59Zm-607.42,159.61l-55.92,54.7c-3.16,3.09-3.21,8.15-.12,11.31,1.57,1.6,3.64,2.41,5.72,2.41s4.04-.76,5.59-2.28l55.92-54.7c3.16-3.09,3.21-8.15.12-11.31-3.09-3.16-8.16-3.21-11.31-.12Zm351.79,214.2c-10.61,3.07-16.72,14.16-13.65,24.77l17.04,58.9h41.64l-20.26-70.01c-3.07-10.61-14.16-16.72-24.77-13.65ZM255.49,374.13c3.93,5.27,9.95,8.05,16.05,8.05,4.16,0,8.35-1.29,11.93-3.96l213.9-159.38c8.86-6.6,10.69-19.13,4.09-27.99-6.6-8.86-19.13-10.69-27.99-4.09l-213.9,159.38c-8.86,6.6-10.69,19.13-4.09,27.99Zm592.21,333.72c-13.03,0-23.59,10.56-23.59,23.59s10.56,23.59,23.59,23.59,23.59-10.56,23.59-23.59-10.56-23.59-23.59-23.59Zm-190.65,104.66c-10.72,2.66-17.25,13.51-14.58,24.23l40.58,163.25h41.22l-42.98-172.9c-2.66-10.72-13.51-17.25-24.23-14.58Zm-313.97,142.58c-4.07,1.72-5.98,6.41-4.26,10.48l14.51,34.42h17.36l-17.13-40.64c-1.72-4.07-6.41-5.98-10.48-4.26Zm-13.83-110.87c-8.06-7.56-20.71-7.15-28.27.9-7.56,8.06-7.15,20.71.9,28.27l134.94,126.6h58.08c-.63-.81-1.31-1.59-2.08-2.31l-163.57-153.46ZM30.41,580.8c0,13.03,10.56,23.59,23.59,23.59s23.59-10.56,23.59-23.59-10.56-23.59-23.59-23.59-23.59,10.56-23.59,23.59ZM357.48,132.93c.95,0,1.91-.07,2.87-.21l205.51-29.51c10.93-1.57,18.52-11.71,16.95-22.64-1.57-10.93-11.71-18.53-22.64-16.95l-205.51,29.51c-10.93,1.57-18.52,11.71-16.95,22.64,1.43,9.97,9.99,17.16,19.77,17.16Zm585.11,173.51c0-13.03-10.56-23.59-23.59-23.59s-23.59,10.56-23.59,23.59,10.56,23.59,23.59,23.59,23.59-10.56,23.59-23.59ZM381.84,55.05c1.04,0,2.09-.2,3.1-.63,4.07-1.72,5.98-6.41,4.26-10.48L370.68,0h-17.36l21.14,50.16c1.29,3.06,4.25,4.89,7.38,4.89Zm97.29-22.78c5.33,0,10.65-2.12,14.59-6.32,6.83-7.28,7.14-18.32,1.18-25.96h-58.08l28.63,26.86c3.86,3.62,8.77,5.41,13.68,5.41Zm167.76,75.5c1.84,0,3.71-.26,5.57-.79,10.61-3.07,16.72-14.16,13.65-24.77L642.33,0h-41.64l27,93.32c2.53,8.75,10.52,14.45,19.2,14.45Zm-133.27-52.4c1.48,1.19,3.26,1.78,5.02,1.78,2.33,0,4.65-1.02,6.23-2.98L568.61,0h-20.56l-35.62,44.12c-2.78,3.44-2.24,8.47,1.2,11.25Zm466.09,33.41l-112.19,56.62c-9.86,4.98-13.82,17-8.84,26.87,3.52,6.97,10.56,10.99,17.87,10.99,3.03,0,6.11-.69,9-2.15l112.19-56.62c.8-.4,1.54-.87,2.26-1.36v-33.01c-5.82-3.96-13.55-4.73-20.28-1.34Zm6.07,342.04c.6,0,1.22-.07,1.83-.21,4.3-1.01,6.97-5.31,5.96-9.61l-18.17-77.59c-1.01-4.3-5.32-6.97-9.61-5.96-4.3,1.01-6.97,5.31-5.96,9.61l18.17,77.59c.86,3.69,4.15,6.18,7.78,6.18Zm-854.47,140.1c7.79,0,15.19-4.58,18.42-12.2,4.31-10.17-.43-21.91-10.6-26.22L0,473.49v43.45l123.52,52.39c2.55,1.08,5.2,1.59,7.8,1.59ZM397.36,198.7c1.19,0,2.4-.27,3.53-.83l74.12-36.57c3.96-1.96,5.59-6.75,3.63-10.71-1.96-3.96-6.75-5.59-10.71-3.63l-74.12,36.57c-3.96,1.96-5.59,6.75-3.63,10.71,1.39,2.82,4.23,4.46,7.18,4.46Zm558.97-6.17c-10.3,3.99-15.41,15.58-11.41,25.88l55.08,142.01v-110.61l-17.79-45.87c-3.99-10.3-15.58-15.41-25.88-11.41Zm-282.48,92.55c1.55,2.26,4.06,3.48,6.61,3.48,1.56,0,3.13-.45,4.51-1.4,3.65-2.5,4.58-7.47,2.08-11.12l-32.29-47.18c-2.5-3.65-7.47-4.58-11.12-2.08-3.65,2.5-4.58,7.47-2.08,11.12l32.29,47.18Zm-102.24-130.95c0-13.03-10.56-23.59-23.59-23.59s-23.59,10.56-23.59,23.59,10.56,23.59,23.59,23.59,23.59-10.56,23.59-23.59ZM170.26,874.12c3.75,3.15,8.32,4.69,12.86,4.69,5.7,0,11.36-2.42,15.32-7.13l107.27-127.55c7.11-8.45,6.02-21.07-2.43-28.18-8.45-7.11-21.07-6.02-28.18,2.43l-107.27,127.55c-7.11,8.45-6.02,21.07,2.43,28.18Zm73.93,40.11c13.03,0,23.59-10.56,23.59-23.59s-10.56-23.59-23.59-23.59-23.59,10.56-23.59,23.59,10.56,23.59,23.59,23.59Zm-127.95-143.99c3.77,3.22,8.39,4.8,12.98,4.8,5.65,0,11.26-2.38,15.21-7.01l102.76-120.24c7.18-8.4,6.19-21.02-2.21-28.2-8.4-7.18-21.02-6.19-28.2,2.21l-102.76,120.24c-7.18,8.4-6.19,21.02,2.21,28.2Zm13.51,58.13c0-13.03-10.56-23.59-23.59-23.59s-23.59,10.56-23.59,23.59,10.56,23.59,23.59,23.59,23.59-10.56,23.59-23.59Zm114.43,123.93c.46,0,.93-.04,1.4-.12l66.47-11.71c4.35-.77,7.26-4.92,6.49-9.27-.77-4.35-4.91-7.25-9.27-6.49l-66.47,11.71c-4.35.77-7.26,4.92-6.49,9.27.68,3.88,4.06,6.61,7.87,6.61Zm160.41-107.37c-3.89,2.1-5.33,6.96-3.23,10.84l36.35,67.17c1.45,2.68,4.2,4.19,7.04,4.19,1.29,0,2.59-.31,3.8-.97,3.89-2.1,5.33-6.96,3.23-10.84l-36.35-67.17c-2.1-3.89-6.96-5.33-10.84-3.23Zm114.06,87.66c-13.03,0-23.59,10.56-23.59,23.59s10.56,23.59,23.59,23.59,23.59-10.56,23.59-23.59-10.56-23.59-23.59-23.59Zm400.05-106.11c4.1,0,7.59-3.13,7.96-7.29l8.39-94.37c.39-4.4-2.86-8.29-7.26-8.68-4.38-.39-8.29,2.86-8.68,7.26l-8.39,94.37c-.39,4.4,2.86,8.29,7.26,8.68.24.02.48.03.72.03Zm-103.73,127.15l144.2-92.27c9.3-5.95,12.02-18.32,6.07-27.63-5.95-9.3-18.32-12.02-27.63-6.07l-144.2,92.27c-9.3,5.95-12.02,18.32-6.07,27.63,3.82,5.97,10.27,9.22,16.87,9.22,3.69,0,7.42-1.02,10.76-3.16Zm-810.26,5.71L0,961.59v17.75l11.62-5.57c3.98-1.91,5.67-6.69,3.75-10.67-1.91-3.98-6.69-5.66-10.67-3.75Zm11.27-201.19c-2.56-7.24-8.87-12.07-15.97-13.11v87.84l44.85,126.62c2.91,8.21,10.62,13.33,18.85,13.33,2.21,0,4.47-.37,6.68-1.15,10.41-3.69,15.86-15.12,12.18-25.53L15.97,758.14Zm737.36,85.32c-13.03,0-23.59,10.56-23.59,23.59s10.56,23.59,23.59,23.59,23.59-10.56,23.59-23.59-10.56-23.59-23.59-23.59Zm220.16-274.78l-134.21,67.11c-9.88,4.94-13.88,16.95-8.94,26.83,3.5,7.01,10.57,11.06,17.9,11.06,3,0,6.06-.68,8.93-2.12l134.21-67.11c3.81-1.9,6.73-4.87,8.62-8.35v-19.06c-5.12-9.45-16.82-13.21-26.51-8.37Zm-397.9,409.94c-3.44-2.77-8.47-2.24-11.25,1.2l-16.3,20.19h20.56l8.18-10.14c2.78-3.44,2.24-8.47-1.2-11.25Zm-258.84,13.69l-171.96-45.11c-10.68-2.8-21.62,3.59-24.42,14.27-2.8,10.68,3.59,21.62,14.27,24.42l53.78,14.11h139.5c-2.62-3.66-6.48-6.46-11.18-7.69Zm-279.63-.47c-5.65.78-10.41,3.86-13.49,8.16h32.48c-4.19-5.83-11.38-9.21-18.98-8.16Zm903.42-290.18c2.93,8.17,10.62,13.26,18.83,13.26,2.24,0,4.52-.38,6.75-1.18l33.88-12.15v-42.49l-47.38,16.98c-10.4,3.73-15.81,15.18-12.08,25.58Zm-402.7,208.98c5.71,0,11.37-2.43,15.33-7.14,7.1-8.46,6-21.07-2.45-28.18l-161.48-135.61c-8.46-7.1-21.07-6-28.18,2.45-7.1,8.46-6,21.07,2.45,28.18l161.48,135.61c3.75,3.15,8.31,4.68,12.85,4.68Zm384.2,89.36h34.86l43.1-20.67v-17.75l-74.99,35.96c-1.22.58-2.22,1.44-2.97,2.45Zm68.39-254.04c-10.41,3.69-15.86,15.12-12.18,25.53l21.74,61.38v-87.84c-3.12-.46-6.39-.19-9.56.93Zm-15.01,181.19c-4.63-10.03-16.52-14.4-26.54-9.77l-134.21,62.01c-8.09,3.74-12.5,12.21-11.46,20.61h62.23l100.22-46.3c10.03-4.63,14.4-16.52,9.77-26.54Zm-387.38-39.87c3.16,0,6.14-1.88,7.41-4.98l31.66-77.59c1.67-4.09-.29-8.76-4.38-10.43-4.1-1.67-8.76.29-10.43,4.38l-31.66,77.59c-1.67,4.09.29,8.76,4.38,10.43.99.4,2.01.59,3.02.59Zm-6.17-89.88c1.56,0,3.16-.19,4.74-.57,10.73-2.61,17.32-13.43,14.71-24.16l-37.75-155.18c-2.61-10.73-13.42-17.31-24.16-14.71-10.73,2.61-17.32,13.43-14.71,24.16l37.75,155.18c2.22,9.14,10.41,15.28,19.42,15.28Zm154.12,120.48c-4.16,1.49-6.33,6.07-4.84,10.23l25.7,71.89h16.99l-27.63-77.27c-1.49-4.16-6.07-6.33-10.23-4.84Zm-123.95-229.88c0,13.03,10.56,23.59,23.59,23.59s23.59-10.56,23.59-23.59-10.56-23.59-23.59-23.59-23.59,10.56-23.59,23.59ZM107.37,457.48l88.08,46.14c2.96,1.55,6.14,2.29,9.26,2.29,7.2,0,14.16-3.9,17.73-10.72,5.12-9.78,1.35-21.87-8.44-27l-88.08-46.14c-9.78-5.12-21.87-1.35-27,8.44s-1.35,21.87,8.44,27Zm107.15-76.42c-13.03,0-23.59,10.56-23.59,23.59s10.56,23.59,23.59,23.59,23.59-10.56,23.59-23.59-10.56-23.59-23.59-23.59Zm0,196.69c13.03,0,23.59-10.56,23.59-23.59s-10.56-23.59-23.59-23.59-23.59,10.56-23.59,23.59,10.56,23.59,23.59,23.59Zm407-255.75l42.52,136.31c2.67,8.56,10.57,14.05,19.09,14.05,1.97,0,3.98-.29,5.96-.91,10.54-3.29,16.43-14.5,13.14-25.05l-42.52-136.31c-3.29-10.54-14.51-16.43-25.05-13.14-10.54,3.29-16.43,14.5-13.14,25.05Zm-376.78,1.84l52.29-77.59c2.47-3.66,1.5-8.64-2.16-11.1-3.66-2.47-8.63-1.5-11.1,2.16l-52.29,77.59c-2.47,3.66-1.5,8.64,2.16,11.1,1.37.92,2.93,1.37,4.46,1.37,2.57,0,5.1-1.24,6.64-3.53Zm148.98,20.31c1.44,0,2.89-.39,4.21-1.2l85.98-53.29c3.75-2.33,4.91-7.26,2.58-11.01s-7.26-4.91-11.01-2.58l-85.98,53.29c-3.75,2.33-4.91,7.26-2.58,11.01,1.51,2.44,4.13,3.79,6.81,3.79Zm536.25,121.37c-4.31,10.17.43,21.91,10.6,26.22l59.42,25.2v-43.45l-43.8-18.58c-10.17-4.31-21.91.43-26.22,10.6Zm-206-159.07c-13.03,0-23.59,10.56-23.59,23.59s10.56,23.59,23.59,23.59,23.59-10.56,23.59-23.59-10.56-23.59-23.59-23.59Zm-349.37,58.14c-10.84,2.14-17.88,12.67-15.74,23.5l18.87,95.42c1.88,9.53,10.24,16.12,19.6,16.12,1.29,0,2.59-.12,3.9-.38,10.84-2.14,17.88-12.67,15.74-23.5l-18.87-95.42c-2.14-10.84-12.67-17.88-23.5-15.74Zm353.57,365.43c1.29,3.06,4.25,4.9,7.38,4.9,1.04,0,2.09-.2,3.1-.63l64.31-27.09c4.07-1.71,5.98-6.41,4.27-10.48s-6.41-5.99-10.48-4.27l-64.31,27.09c-4.07,1.71-5.98,6.41-4.27,10.48Zm1.5-277.89l-4.19,119.07c-.39,11.04,8.24,20.3,19.28,20.69.24,0,.48.01.72.01,10.72,0,19.59-8.5,19.97-19.3l4.19-119.07c.39-11.04-8.24-20.3-19.28-20.69-11.08-.4-20.3,8.24-20.69,19.28Zm137.58-256.91c-9.99-4.72-21.91-.44-26.62,9.54l-71.3,150.99c-4.72,9.99-.44,21.91,9.54,26.62,2.76,1.3,5.67,1.92,8.53,1.92,7.5,0,14.68-4.24,18.1-11.46l71.3-150.99c4.72-9.99.44-21.91-9.54-26.62Zm-53.42,237.02c2.77,0,5.47-1.44,6.95-4.02l48.93-85.28c2.2-3.83.88-8.72-2.96-10.92-3.84-2.2-8.72-.87-10.92,2.96l-48.93,85.28c-2.2,3.83-.88,8.72,2.96,10.92,1.26.72,2.62,1.06,3.97,1.06Zm-247.92,101.84c-3.03-3.21-8.1-3.36-11.31-.32l-85.28,80.56c-3.21,3.03-3.36,8.1-.32,11.31,1.57,1.67,3.69,2.51,5.82,2.51,1.97,0,3.95-.72,5.49-2.18l85.28-80.56c3.21-3.03,3.36-8.1.32-11.31Zm20.71-47.64c0-13.03-10.56-23.59-23.59-23.59s-23.59,10.56-23.59,23.59,10.56,23.59,23.59,23.59,23.59-10.56,23.59-23.59Zm204.37,356.82l66.06,1.05s.09,0,.13,0c4.36,0,7.93-3.5,8-7.87.07-4.42-3.45-8.06-7.87-8.13l-66.06-1.05s-.09,0-.13,0c-4.36,0-7.93,3.5-8,7.87-.07,4.42,3.45,8.06,7.87,8.13Zm-192.29-400.25c9.93,0,18.55-7.4,19.82-17.51,1.38-10.96-6.39-20.96-17.35-22.34l-150.28-18.87c-10.96-1.37-20.96,6.39-22.34,17.35-1.38,10.96,6.39,20.96,17.35,22.34l150.28,18.87c.85.11,1.69.16,2.52.16Zm-127.23,312.04c0,13.03,10.56,23.59,23.59,23.59s23.59-10.56,23.59-23.59-10.56-23.59-23.59-23.59-23.59,10.56-23.59,23.59Zm-168.56-324.13c-10.98-1.11-20.8,6.89-21.92,17.88l-20.97,206.72c-1.12,10.99,6.89,20.8,17.88,21.92.69.07,1.37.1,2.04.1,10.14,0,18.83-7.68,19.87-17.98l20.97-206.72c1.12-10.99-6.89-20.8-17.88-21.92Zm374.34,353.66l180.35,29.36c1.09.18,2.17.26,3.24.26,9.63,0,18.12-6.98,19.72-16.79,1.77-10.9-5.62-21.18-16.53-22.95l-180.35-29.36c-10.9-1.77-21.18,5.62-22.95,16.53-1.77,10.9,5.62,21.18,16.53,22.95Zm74.51-94.11c5.38,0,10.74-2.15,14.68-6.41,7.51-8.1,7.02-20.76-1.08-28.26l-142.6-132.12c-8.1-7.51-20.76-7.02-28.26,1.08-7.51,8.1-7.02,20.76,1.08,28.26l142.6,132.12c3.85,3.57,8.72,5.33,13.59,5.33Zm-396.35,24.47c1.95,0,3.93-.29,5.88-.89l121.63-37.4c10.56-3.25,16.49-14.44,13.24-24.99-3.25-10.56-14.43-16.49-25-13.24l-121.63,37.4c-10.56,3.25-16.49,14.44-13.24,25,2.64,8.6,10.56,14.13,19.11,14.13Zm86.9-201.8l51.38-50.33c3.16-3.09,3.21-8.16.12-11.31-3.09-3.16-8.16-3.21-11.31-.12l-51.38,50.33c-3.16,3.09-3.21,8.16-.12,11.31,1.57,1.6,3.64,2.4,5.72,2.4s4.04-.76,5.6-2.29Zm-105.76,111.28c2.82,0,5.69-.6,8.42-1.87l178.25-82.83c10.02-4.66,14.36-16.55,9.71-26.57-4.66-10.02-16.55-14.36-26.57-9.71l-178.25,82.83c-10.02,4.66-14.36,16.55-9.71,26.57,3.39,7.29,10.61,11.58,18.15,11.58Zm76.78,2.72c3.86-2.15,5.25-7.02,3.11-10.88s-7.02-5.25-10.88-3.11l-79.69,44.29c-3.86,2.15-5.25,7.02-3.11,10.88,1.46,2.63,4.19,4.11,7,4.11,1.32,0,2.65-.32,3.88-1.01l79.69-44.29Zm-84.68,129.69c-3.37-2.86-8.41-2.45-11.28.91l-55.68,65.47c-2.86,3.37-2.46,8.41.91,11.28,1.5,1.28,3.35,1.91,5.18,1.91,2.26,0,4.52-.96,6.1-2.82l55.68-65.47c2.86-3.37,2.46-8.41-.91-11.28Z"/>
  </g>
</svg>