<?xml version="1.0" encoding="UTF-8"?>
<svg id="Layer_8_copy" data-name="Layer 8 copy" xmlns="http://www.w3.org/2000/svg" viewBox="0 0 1029.05 438.33">
  <defs>
    <style>
      .cls-1 {
        fill: #ffff68;
      }

      .cls-2 {
        fill: #ee91ff;
      }

      .cls-3 {
        fill: #6785ff;
      }
    </style>
  </defs>
  <g id="Squiggles_copy" data-name="Squiggles copy">
    <g>
      <g>
        <path class="cls-2" d="m873.98,54.07c3.16-1.59,6.25-2.79,9.04-3.7,10.48-3.39,23.8-1.48,36.55,5.26,9.2,4.86,18.17,16.68,21.31,28.1,1.65,6,1.96,12.63,1.03,19.15-6.27,16.14-21.96,27.62-40.3,27.62-23.83,0-43.22-19.39-43.22-43.22,0-13.33,6.07-25.27,15.59-33.2Z"/>
        <path class="cls-1" d="m173.5,368.05l-6.53,8.46c-9.99,10.54-25.2,12.73-33.44,13.1-10.56.47-24.42-5.38-32.97-13.93l-.37-.36c-3.39-3.15-5.92-6.67-7.69-10.67-1.35-4.19-2.09-8.64-2.09-13.27,0-23.83,19.39-43.22,43.22-43.22s43.22,19.39,43.22,43.22c0,5.91-1.19,11.54-3.35,16.67Z"/>
        <path class="cls-3" d="m856.44,232.58c-12.41,13.88-25.39,26.58-38.59,37.74-19.72,16.67-37.63,29.74-54.74,39.96-17.83,10.64-37.96,19.88-61.54,28.23-22.67,8.03-46.34,11.8-66.51,14.42-18.16,2.36-35.73,2.7-52.21.99-19.84-2.05-43.05-5.28-64.78-13.69-23.41-9.06-42.28-18.92-59.37-31.02-13.08-9.26-26.01-19.47-38.52-29.36-1.64-1.29-3.29-2.6-4.96-3.92l.06-.08-12.44-9.61-.13.17c-10.46-7.6-21.96-15.25-34.36-21.81l.3-.7-14.68-6.19-.28.66c-5.83-1.89-11.78-3.5-17.81-4.83l.09-.69-16.28-2.19s-.03,0-.04,0h-.02s-.1.78-.1.78c-6.49-.29-13-.27-19.49.06l-.1-.69-16.27,2.19s-.03,0-.04,0h-.02s.1.78.1.78c-6.03,1.36-11.97,2.99-17.8,4.9l-.27-.63-14.68,6.2.31.72c-4.51,2.41-8.93,5.01-13.23,7.78l-.42-.54-12.4,9.58s0,0,0,0l-.03.02.44.57c-4.11,3.78-8.07,7.75-11.87,11.89l-.57-.44-9.61,12.44.48.38c-3.56,5.43-6.85,11.03-9.87,16.77l-.66-.28-6.19,14.68.62.26c-.27.82-.52,1.64-.78,2.46-10.7-18.49-30.68-30.97-53.53-30.97-15.62,0-29.89,5.83-40.78,15.42,1.52-6.16,3.37-12.28,5.67-18.29,6.1-15.92,13.92-34.44,25.58-51.07,22.2-31.65,47.96-55.65,76.56-71.33,32.77-17.97,70.04-27.7,107.76-28.13,6.79-.08,13.65.26,20.39,1,11.59,1.27,23.9,2.75,35.72,5.5,16.29,3.79,33.81,10.52,52.05,20.01,22.93,11.93,44.11,28.85,64.59,45.22,1.93,1.54,3.88,3.1,5.84,4.66l-.09.11,12.44,9.61.13-.17c10.75,7.82,22.64,15.72,35.55,22.51l-.29.68,14.68,6.19.25-.59c7.81,2.6,15.84,4.77,24.04,6.49l-.08.6,16.26,2.18s.05,0,.07,0h0s.09-.67.09-.67c10.6.62,21.38.55,32.25-.21l.07.54,16.34-2.2-.07-.54c13.84-2.76,27.58-6.57,41.07-11.42l.17.41,14.68-6.19-.2-.47c14.3-7.07,28.4-15.48,42.15-25.14l.22.29,12.4-9.58s.02-.01.03-.02h0s-.24-.32-.24-.32c18.94-16.08,37.21-34.77,54.54-55.82l.19.15,9.6-12.42s0,0,0,0h0s-.2-.16-.2-.16c9.33-12.84,18.37-26.4,27.28-40.88,4.05,30.19,29.96,53.56,61.25,53.56,6.7,0,13.15-1.09,19.19-3.06-19.83,31.84-41.4,60.87-64.36,86.56Z"/>
      </g>
      <path d="m967.77,76.32c-5.16-18.74-19.29-36.97-35.17-45.35-19.64-10.38-40.3-12.91-58.16-7.13-19.95,6.46-35.36,18.43-44.56,34.62-14.22,25.04-28.56,47.19-43.7,67.46-19.16,23.94-39.51,44.73-60.64,61.94-16.16,11.83-32.84,21.74-49.73,29.55-16.08,6.17-32.54,10.72-49.11,13.57-14.14,1.37-28.1,1.44-41.66.23-10.88-1.96-21.42-4.79-31.51-8.47-15.99-7.74-30.69-17.87-43.57-27.56-3.82-3.02-7.64-6.07-11.39-9.06-21.52-17.2-43.78-34.99-69.13-48.18-20.32-10.57-40.03-18.12-58.6-22.43-13.31-3.09-27.1-4.75-38.99-6.05-7.84-.86-15.83-1.25-23.75-1.17-42.29.48-84.08,11.4-120.85,31.56-32.38,17.76-61.31,44.6-85.99,79.77-13.48,19.22-22.47,40.61-28.79,57.1-8.28,21.6-11.45,43.47-13.63,63.88l-.07.96c-.4,10.49,1.74,20.45,6.34,29.64,3.23,9.32,8.58,17.52,15.91,24.38,13.42,13.32,33.76,21.94,51.41,21.94.79,0,1.57-.02,2.35-.05,21.82-.98,40.68-8.97,53.1-22.5l.4-.44,10.54-13.64.46-.8c6.19-10.68,9.61-22.27,10.19-34.5,1.62-8.07,3.88-16.08,6.73-23.93,4.02-8.33,8.71-16.34,14.02-23.95,5.72-6.7,11.92-12.92,18.53-18.59,6.67-4.62,13.68-8.72,20.96-12.27,8.49-3.06,17.28-5.45,26.27-7.14,9.51-.79,19.07-.79,28.57-.02,8.77,1.65,17.34,3.97,25.61,6.94,15.52,7.56,29.67,17.36,42.82,27.28,3.34,2.62,6.66,5.24,9.92,7.82,12.79,10.11,26.02,20.56,39.7,30.24,19.02,13.46,39.81,24.35,65.41,34.26,24.8,9.6,50.3,13.18,71.98,15.42,18.63,1.93,38.38,1.56,58.68-1.08,21.61-2.81,47.1-6.89,72.22-15.79,25.34-8.98,47.1-18.98,66.53-30.57,18.43-11,37.55-24.94,58.45-42.61,14.19-11.99,28.11-25.6,41.38-40.45,30.28-33.88,58.21-73.21,83.02-116.9,9.9-17.43,12.7-39.09,7.51-57.94Zm-93.79-22.25c3.16-1.59,6.25-2.79,9.04-3.7,10.48-3.39,23.8-1.48,36.55,5.26,9.2,4.86,18.17,16.68,21.31,28.1,1.65,6,1.96,12.63,1.03,19.15-6.27,16.14-21.96,27.62-40.3,27.62-23.83,0-43.22-19.39-43.22-43.22,0-13.33,6.07-25.27,15.59-33.2ZM173.5,368.05l-6.53,8.46c-9.99,10.54-25.2,12.73-33.44,13.1-10.56.47-24.42-5.38-32.97-13.93l-.37-.36c-3.39-3.15-5.92-6.67-7.69-10.67-1.35-4.19-2.09-8.64-2.09-13.27,0-23.83,19.39-43.22,43.22-43.22s43.22,19.39,43.22,43.22c0,5.91-1.19,11.54-3.35,16.67Zm682.94-135.47c-12.41,13.88-25.39,26.58-38.59,37.74-19.72,16.67-37.63,29.74-54.74,39.96-17.83,10.64-37.96,19.88-61.54,28.23-22.67,8.03-46.34,11.8-66.51,14.42-18.16,2.36-35.73,2.7-52.21.99-19.84-2.05-43.05-5.28-64.78-13.69-23.41-9.06-42.28-18.92-59.37-31.02-13.08-9.26-26.01-19.47-38.52-29.36-1.64-1.29-3.29-2.6-4.96-3.92l.06-.08-12.44-9.61-.13.17c-10.46-7.6-21.96-15.25-34.36-21.81l.3-.7-14.68-6.19-.28.66c-5.83-1.89-11.78-3.5-17.81-4.83l.09-.69-16.28-2.19s-.03,0-.04,0h-.02s-.1.78-.1.78c-6.49-.29-13-.27-19.49.06l-.1-.69-16.27,2.19s-.03,0-.04,0h-.02s.1.78.1.78c-6.03,1.36-11.97,2.99-17.8,4.9l-.27-.63-14.68,6.2.31.72c-4.51,2.41-8.93,5.01-13.23,7.78l-.42-.54-12.4,9.58s0,0,0,0l-.03.02.44.57c-4.11,3.78-8.07,7.75-11.87,11.89l-.57-.44-9.61,12.44.48.38c-3.56,5.43-6.85,11.03-9.87,16.77l-.66-.28-6.19,14.68.62.26c-.27.82-.52,1.64-.78,2.46-10.7-18.49-30.68-30.97-53.53-30.97-15.62,0-29.89,5.83-40.78,15.42,1.52-6.16,3.37-12.28,5.67-18.29,6.1-15.92,13.92-34.44,25.58-51.07,22.2-31.65,47.96-55.65,76.56-71.33,32.77-17.97,70.04-27.7,107.76-28.13,6.79-.08,13.65.26,20.39,1,11.59,1.27,23.9,2.75,35.72,5.5,16.29,3.79,33.81,10.52,52.05,20.01,22.93,11.93,44.11,28.85,64.59,45.22,1.93,1.54,3.88,3.1,5.84,4.66l-.09.11,12.44,9.61.13-.17c10.75,7.82,22.64,15.72,35.55,22.51l-.29.68,14.68,6.19.25-.59c7.81,2.6,15.84,4.77,24.04,6.49l-.08.6,16.26,2.18s.05,0,.07,0h0s.09-.67.09-.67c10.6.62,21.38.55,32.25-.21l.07.54,16.34-2.2-.07-.54c13.84-2.76,27.58-6.57,41.07-11.42l.17.41,14.68-6.19-.2-.47c14.3-7.07,28.4-15.48,42.15-25.14l.22.29,12.4-9.58s.02-.01.03-.02h0s-.24-.32-.24-.32c18.94-16.08,37.21-34.77,54.54-55.82l.19.15,9.6-12.42s0,0,0,0h0s-.2-.16-.2-.16c9.33-12.84,18.37-26.4,27.28-40.88,4.05,30.19,29.96,53.56,61.25,53.56,6.7,0,13.15-1.09,19.19-3.06-19.83,31.84-41.4,60.87-64.36,86.56Z"/>
    </g>
  </g>
</svg>