<?xml version="1.0" encoding="UTF-8"?>
<svg id="Layer_8_copy" data-name="Layer 8 copy" xmlns="http://www.w3.org/2000/svg" viewBox="0 0 760.04 910.21">
  <defs>
    <style>
      .cls-1 {
        fill: #ff4399;
      }
    </style>
  </defs>
  <g id="Squiggles_copy" data-name="Squiggles copy">
    <g>
      <path d="m617.49,655.45c-20.77-4.86-43.63-3.75-69.89,3.39-6.01,1.63-11.96,3.52-17.72,5.35-9.92,3.15-19.36,6.15-28.96,7.91-4.99.43-9.75.48-14.39.16-.77-.16-1.52-.34-2.27-.52,2.57-3.66,5.15-7.32,7.64-11,9.46-13.95,17.62-28.54,22.27-44.43,10.51-16.46,21.3-37.6,23.32-62.69,2.76-34.24-18.46-67.93-51.61-81.92-31.3-13.21-68.68-10.37-99.99,7.6-19.51,11.2-34.84,26.66-49.66,41.61-8.95,9.03-17.45,17.61-26.77,25.29-5.61,4.03-11.15,7.37-16.79,10.1-3.08,1.1-6.1,1.96-9.09,2.62-1.42.07-2.82.08-4.22.03-.85-.21-1.68-.43-2.5-.68-.56-.31-1.11-.63-1.65-.96-.56-.54-1.11-1.1-1.65-1.67-.89-1.4-1.73-2.86-2.52-4.39-1.08-3.17-1.95-6.47-2.62-9.95-.41-5.24-.39-10.6.07-16.02.11-.62.25-1.24.38-1.85,3.37-4.9,6.91-9.69,10.5-14.41,22.35-28.5,46.77-56.31,57.89-91.45,7.83-12.56,14.56-25.9,19.17-40.52,12-38.11,8.63-78.5-9.01-108.06-11.73-19.65-29.36-33.93-52.4-42.45-28.22-10.43-58.87-4.04-74.63.7-35.37,10.63-69.54,31.26-98.82,59.66-30.46,29.54-53.47,66.85-66.54,107.89-3.37,10.58-1.86,22.69,4.15,33.2.08.15.18.29.26.44-1.6,4.2-3.08,8.45-4.45,12.73-5.25,16.48,6.15,36.8,23.08,40.66,18.05,4.11,35.04-5.44,40.66-23.09,1.52-4.77,3.2-9.49,5.05-14.15,1.43-3.18,2.95-6.32,4.53-9.43,4.17-4.63,7.45-10.26,9.51-16.72.02-.06.04-.12.06-.18,2.99-4.76,6.15-9.42,9.5-13.96,9.91-12.26,21.04-23.43,33.3-33.35,12.32-9.13,25.53-16.91,39.51-23.19,7.74-2.99,15.67-5.4,23.84-6.93h.03c4.02-.34,8.03-.41,12.05-.15,2.24.48,4.44,1.07,6.62,1.79,1.55.81,3.05,1.69,4.52,2.64,1.23,1.12,2.4,2.3,3.51,3.53,1.02,1.54,1.94,3.14,2.82,4.77-.54,1.73-1.11,3.44-1.74,5.14-6.19,12.99-14.88,25.14-23.02,35.84-3.13,3.99-6.34,8-9.47,11.9-15.28,19.06-31.09,38.78-41.95,61.64-13.39,28.18-17.82,58.34-13.2,89.67-1.94,13.98-1.77,28.25.45,42.75,4.12,26.94,19.9,53.19,43.92,66.84,32.63,18.53,71.86,11.88,102.65-7.13,28.25-17.45,47.84-44.23,73.19-64.97,4.78-3.45,9.76-6.62,15.03-9.23,3.42-1.21,6.91-2.15,10.47-2.85,1.19-.08,2.39-.13,3.58-.16-1.74,2.54-3.5,5.08-5.29,7.66-11.63,16.72-23.65,34.01-29.96,55.06-4.88,16.29-5,33.55-.78,49.06-5.47,21.07-2.56,45.09,10.63,62.77,10.61,14.21,23.54,23.28,40.19,29.27,11.8,4.25,25.33,5.63,37.83,5.24,15.16-.48,30.01-3.53,44.48-7.92,14.51-4.4,33.28-13.93,48.69-11.17,11.94,2.15,17.32,11.59,14.8,22.52-2.62,11.37-7.11,18.85,2.68,30.22,19.4,22.55,50.14,10.23,61.55-13.24,3.54-7.27,5.93-14.77,6.65-22.71,4.84-4.61,8.93-10.12,11.92-16.25,5.44-11.19,8.02-21.97,7.87-32.97-.26-19.27-7.36-37.46-21.71-55.61-11.33-14.33-28.35-25.28-45.54-29.31Zm41.4,109.14c-5.08,10.44-14.88,18.02-24.98,19.33-7.71,1-14.44-1.77-20-8.24-4.75-5.53-4.1-7.93-1.94-15.88.45-1.67.97-3.56,1.43-5.57,1.9-8.22.63-16.24-3.55-22.58-4.14-6.27-10.97-10.55-19.23-12.03-2.53-.45-5.07-.66-7.63-.66-11.92,0-24.04,4.41-34.95,8.38-3.85,1.4-7.49,2.72-10.78,3.72-15.29,4.64-29,7.09-41.89,7.49-8.89.28-22.03-.3-34.13-4.65-15.39-5.54-26.35-13.51-35.56-25.84-11.13-14.91-14.3-36.66-8.28-56.77,9.82-32.77,36.08-57.93,51-88.31,7.47-15.22,4.41-30.19-14.03-33.53-11.47-2.08-23.45.67-33.8,6.02-16.28,8.41-29.19,22.9-41.97,35.72-13.88,13.93-27,27.08-43.06,37-31.4,19.39-65.97,21.99-92.46,6.94-20.16-11.45-35.09-34.31-38.97-59.65-5.45-35.59,5.42-70.82,23.41-101.33,17.94-30.42,48.24-53.92,62.17-86.45,5.89-13.75,8.52-28.91,7.37-43.83-.8-10.43-3.72-21.31-11.34-28.49-18.61-17.54-52.04-4.35-71.6,5.42-11.96,5.98-23.08,13.52-33.43,21.97-25.71,20.97-46.65,48.71-58.19,79.88-2.8,7.57-5.33,15.71-11.32,21.12-10.69,9.67-27.61,6.55-34.62-5.71-3.19-5.59-4.11-12.02-2.46-17.21,12.07-37.91,33.31-72.35,61.41-99.6,26.99-26.18,58.34-45.15,90.65-54.86,31.14-9.36,52.17-4.7,61.94-1.09,18.65,6.89,32.84,18.31,42.17,33.94,14.55,24.36,17.27,59.54,7.11,91.79-7.3,23.17-21.27,41.53-34.82,61.23-24.8,36.07-59.86,65.95-53.21,114.23,1.37,9.94,4.77,20.21,12.49,26.62,22.37,18.57,51.76-2.65,69.36-17.73,42.37-36.29,82.62-92.39,146.93-65.26,25.31,10.68,41.53,36.13,39.45,61.88-1.51,18.72-9.02,37.15-24.36,59.78-2.34,3.45-4.82,6.98-7.22,10.39-7.16,10.18-14.04,20.48-20.15,31.33-4.79,8.5-9.21,19.01-4.61,27.62,7.34,13.74,28.12,11.71,40.99,10.22,37.98-4.4,71.34-25.63,110.72-16.41,12.74,2.98,25.92,11.5,34.41,22.24,11.51,14.56,17.2,28.78,17.4,43.47.1,7.81-1.81,15.64-5.85,23.96Zm54.52-212.97c-6.52-10.12-15.58-16.94-25.52-19.2-8-1.82-15.01-1.24-20.99.26-1.12.05-2.24.28-3.34.73-1.41.57-2.84,1.06-4.29,1.45-.42,0-.85,0-1.27,0-1.02-.25-2.03-.53-3.04-.85-1.26-.67-2.49-1.39-3.69-2.17-.87-.8-1.7-1.63-2.5-2.48-.35-.56-.69-1.13-1.01-1.7-.04-.14-.08-.29-.12-.43,0-.53,0-1.08.03-1.62.88-3.93,2.2-8.09,4.05-12.84,1.23-2.8,2.5-5.6,3.73-8.34,2.61-5.8,5.31-11.8,7.8-17.87,4.16-10.15,6.78-20.73,8.51-34.31,2.76-21.74-1.21-44.69-11.81-68.2-18.4-40.79-61.21-68.69-109.07-71.07-16.87-.85-32.45,3.09-47.53,6.88-6.92,1.74-13.54,3.41-20.18,4.62-.6.04-1.19.07-1.78.1,3.71-6.58,8.43-12.77,13.37-19.23,6.36-8.32,12.93-16.93,17.77-27.05,11.31-23.68,14.42-48.24,9.5-75.09-7.51-41.04-39.28-81.73-79.07-101.25-41.33-20.28-89.8-24.29-152.53-12.6-42.3,7.88-82.2,19.58-118.6,34.76-53.95,22.51-93.94,50.13-122.26,84.43-5.48,6.63-11.76,15.95-11.76,29.24,0,8.35,2.74,17.03,7.3,23.85-4.16,5.76-6.87,11.87-6.87,19.49s3.53,17.41,9.48,22.87c11.9,10.93,34.24,13.94,45.75,0,9.66-11.7,20.52-22.26,32.34-31.76,18.91-14.01,39.61-25.29,61.16-34.68.07-.03.14-.06.21-.09,19.42-7.89,39.36-14.38,59.54-19.98,22.1-6.13,44.5-11.53,67.21-14.92,17.17-2.05,34.47-2.68,51.7-.86,9.98,1.64,19.75,4.15,29.21,7.73,5.81,2.77,11.33,6.04,16.58,9.76.02.02.04.04.06.05,5.41,4.54,10.39,9.52,14.91,14.94,2.63,3.72,5.03,7.59,7.2,11.58-3.24,5.04-6.96,9.93-10.81,14.99-2.4,3.16-4.89,6.42-7.28,9.76-12.89,18.02-20.06,37.55-21.3,58.07-.54,8.92.6,17.71,3.26,26.06-1.5,5.81-2.47,11.78-2.84,17.89-1.41,23.32,10.48,44.45,29.24,57.55,13.7,9.57,32.62,13.38,49.1,12.52,19.61-1.02,37.82-7.98,56.92-11.37h.02c4.51-.35,8.99-.37,13.5-.03,4.69.9,9.28,2.16,13.77,3.78,4.12,2,8.06,4.29,11.83,6.89,3.15,2.71,6.09,5.63,8.8,8.77,1.98,2.9,3.77,5.9,5.39,9.01-.01.03-.02.07-.04.1-1.19,2.7-2.41,5.39-3.6,8.03-2.7,5.98-5.48,12.16-8.03,18.43-4.25,10.47-6.83,21.02-8.13,33.2-1.07,10.07-.11,20.55,2.64,30.54-1.01,4.5-1.75,9.08-2.26,13.86-1.89,17.79,3.39,36.85,14.1,51.19,12.19,16.31,27.92,28.19,47.5,34.35,8.09,2.55,17.03,3.84,25.5,3.56,12.21-.4,21.97-3.42,32.97-8.27,6.93-3.06,12.95-12.37,14.87-19.34,1.3-4.72,1.44-10.39.36-15.66,9.21-4.92,16.38-16.05,18.85-25.03,3-10.91,1.2-24.17-4.5-33Zm-14.94,27.65c-.83,3.04-2.28,5.89-4.34,8.29-26.57,30.86-79.54,3.75-98.69-21.88-9.24-12.37-13.79-28.87-12.17-44.14,1.09-10.27,3.24-19.1,6.77-27.79,2.4-5.92,5.11-11.92,7.73-17.73.51-1.13,1.02-2.27,1.54-3.42.33-.5.62-1.04.86-1.61l3.26-7.73c.4-.94.64-1.91.74-2.88.4-1.22.78-2.43,1.13-3.63.9-1.28,1.52-2.78,1.74-4.44l1.15-8.6c.19-1.44.07-2.85-.32-4.16,0-.16,0-.32,0-.47.38-1.3.5-2.71.31-4.14l-1.16-8.6c-.21-1.53-.74-2.92-1.53-4.13-.08-.27-.15-.54-.23-.82-.02-1.25-.27-2.53-.79-3.75,0,0-3.25-7.71-3.26-7.73-.43-1.03-1.02-1.95-1.72-2.74-.34-.93-.83-1.82-1.47-2.65l-5.06-6.55c-.84-1.08-1.86-1.95-2.98-2.59-.62-1.01-1.42-1.92-2.41-2.68,0,0-6.54-5.05-6.55-5.06-1.07-.82-2.25-1.4-3.47-1.74-.85-.8-1.85-1.46-2.98-1.94l-7.73-3.26c-1.32-.56-2.69-.83-4.03-.79-.08-.02-.15-.04-.23-.06-1.19-.76-2.56-1.27-4.04-1.47l-8.6-1.16c-1.32-.18-2.61-.09-3.82.22-1.16-.28-2.39-.35-3.64-.18l-8.6,1.15c-1.17.16-2.27.51-3.26,1.02-5.06,1.1-10.03,2.35-14.89,3.58-11.56,2.91-22.47,5.67-33.74,6.26-16.01.84-32.03-3.18-42.85-10.74-16.78-11.72-26.12-29.94-24.98-48.75,1.01-16.7,6.93-32.73,17.6-47.64,2.21-3.1,4.5-6.1,6.92-9.28,13.08-17.18,23.88-33.01,20.2-55.92-2.93-18.28-13.96-34.71-28.44-46.24-50.68-40.36-120.69-21.76-176.83-6.2-20.16,5.58-38.34,11.57-55.26,18.21-.55.13-1.1.3-1.63.53l-7.73,3.26c-.5.21-.97.45-1.41.73-19.7,8.89-37.1,18.69-52.75,29.71-.69.31-1.35.71-1.99,1.21l-6.53,5.05c-.57.44-1.08.93-1.53,1.47-10.9,9.18-20.78,19.11-29.45,29.62-3.51,4.25-8.39,5.43-11.88,5.67-6.86.46-14.47-2.14-19.4-6.67-3.56-3.26-6.24-9.93-6.24-15.51s2.08-10.32,7.19-16.51c26.19-31.73,63.66-57.48,114.54-78.71,35.1-14.65,73.64-25.94,114.56-33.56,58.28-10.86,102.79-7.39,140.06,10.89,34.37,16.87,61.78,51.79,68.2,86.9,4.13,22.57,1.55,43.13-7.88,62.87-5.07,10.62-12.82,21.49-20.72,30.22-7.18,7.94-16.58,15-16.34,27.08.11,5.74,3.31,11.22,7.98,14.55,4.67,3.33,10.68,4.57,16.37,3.86,9.09-1.13,17.62-3.91,26.46-6.14,14.28-3.6,27.76-6.99,41.65-6.3,19.3.96,38.14,6.92,54.49,17.25,16.81,10.62,29.72,25.16,37.35,42.07,9.06,20.1,12.5,39.42,10.21,57.45-1.52,11.92-3.66,20.67-7.17,29.25-2.36,5.75-4.99,11.59-7.53,17.24-5.31,11.78-13.82,25.92-8.77,39.18,2.5,6.57,8.05,11.55,14.08,15.17,5.74,3.45,12.42,5.94,19.04,4.96,12.83-1.9,24.94-8.45,34.27,5.72,3.45,5.24,4.29,11.99,2.64,18.03Z"/>
      <g>
        <path class="cls-1" d="m658.89,764.59c-5.08,10.44-14.88,18.02-24.98,19.33-7.71,1-14.44-1.77-20-8.24-4.75-5.53-4.1-7.93-1.94-15.88.45-1.67.97-3.56,1.43-5.57,1.9-8.22.63-16.24-3.55-22.58-4.14-6.27-10.97-10.55-19.23-12.03-2.53-.45-5.07-.66-7.63-.66-11.92,0-24.04,4.41-34.95,8.38-3.85,1.4-7.49,2.72-10.78,3.72-15.29,4.64-29,7.09-41.89,7.49-8.89.28-22.03-.3-34.13-4.65-15.39-5.54-26.35-13.51-35.56-25.84-11.13-14.91-14.3-36.66-8.28-56.77,9.82-32.77,36.08-57.93,51-88.31,7.47-15.22,4.41-30.19-14.03-33.53-11.47-2.08-23.45.67-33.8,6.02-16.28,8.41-29.19,22.9-41.97,35.72-13.88,13.93-27,27.08-43.06,37-31.4,19.39-65.97,21.99-92.46,6.94-20.16-11.45-35.09-34.31-38.97-59.65-5.45-35.59,5.42-70.82,23.41-101.33,17.94-30.42,48.24-53.92,62.17-86.45,5.89-13.75,8.52-28.91,7.37-43.83-.8-10.43-3.72-21.31-11.34-28.49-18.61-17.54-52.04-4.35-71.6,5.42-11.96,5.98-23.08,13.52-33.43,21.97-25.71,20.97-46.65,48.71-58.19,79.88-2.8,7.57-5.33,15.71-11.32,21.12-10.69,9.67-27.61,6.55-34.62-5.71-3.19-5.59-4.11-12.02-2.46-17.21,12.07-37.91,33.31-72.35,61.41-99.6,26.99-26.18,58.34-45.15,90.65-54.86,31.14-9.36,52.17-4.7,61.94-1.09,18.65,6.89,32.84,18.31,42.17,33.94,14.55,24.36,17.27,59.54,7.11,91.79-7.3,23.17-21.27,41.53-34.82,61.23-24.8,36.07-59.86,65.95-53.21,114.23,1.37,9.94,4.77,20.21,12.49,26.62,22.37,18.57,51.76-2.65,69.36-17.73,42.37-36.29,82.62-92.39,146.93-65.26,25.31,10.68,41.53,36.13,39.45,61.88-1.51,18.72-9.02,37.15-24.36,59.78-2.34,3.45-4.82,6.98-7.22,10.39-7.16,10.18-14.04,20.48-20.15,31.33-4.79,8.5-9.21,19.01-4.61,27.62,7.34,13.74,28.12,11.71,40.99,10.22,37.98-4.4,71.34-25.63,110.72-16.41,12.74,2.98,25.92,11.5,34.41,22.24,11.51,14.56,17.2,28.78,17.4,43.47.1,7.81-1.81,15.64-5.85,23.96Z"/>
        <path class="cls-1" d="m698.47,579.27c-.83,3.04-2.28,5.89-4.34,8.29-26.57,30.86-79.54,3.75-98.69-21.88-9.24-12.37-13.79-28.87-12.17-44.14,1.09-10.27,3.24-19.1,6.77-27.79,2.4-5.92,5.11-11.92,7.73-17.73.51-1.13,1.02-2.27,1.54-3.42.33-.5.62-1.04.86-1.61l3.26-7.73c.4-.94.64-1.91.74-2.88.4-1.22.78-2.43,1.13-3.63.9-1.28,1.52-2.78,1.74-4.44l1.15-8.6c.19-1.44.07-2.85-.32-4.16,0-.16,0-.32,0-.47.38-1.3.5-2.71.31-4.14l-1.16-8.6c-.21-1.53-.74-2.92-1.53-4.13-.08-.27-.15-.54-.23-.82-.02-1.25-.27-2.53-.79-3.75,0,0-3.25-7.71-3.26-7.73-.43-1.03-1.02-1.95-1.72-2.74-.34-.93-.83-1.82-1.47-2.65l-5.06-6.55c-.84-1.08-1.86-1.95-2.98-2.59-.62-1.01-1.42-1.92-2.41-2.68,0,0-6.54-5.05-6.55-5.06-1.07-.82-2.25-1.4-3.47-1.74-.85-.8-1.85-1.46-2.98-1.94l-7.73-3.26c-1.32-.56-2.69-.83-4.03-.79-.08-.02-.15-.04-.23-.06-1.19-.76-2.56-1.27-4.04-1.47l-8.6-1.16c-1.32-.18-2.61-.09-3.82.22-1.16-.28-2.39-.35-3.64-.18l-8.6,1.15c-1.17.16-2.27.51-3.26,1.02-5.06,1.1-10.03,2.35-14.89,3.58-11.56,2.91-22.47,5.67-33.74,6.26-16.01.84-32.03-3.18-42.85-10.74-16.78-11.72-26.12-29.94-24.98-48.75,1.01-16.7,6.93-32.73,17.6-47.64,2.21-3.1,4.5-6.1,6.92-9.28,13.08-17.18,23.88-33.01,20.2-55.92-2.93-18.28-13.96-34.71-28.44-46.24-50.68-40.36-120.69-21.76-176.83-6.2-20.16,5.58-38.34,11.57-55.26,18.21-.55.13-1.1.3-1.63.53l-7.73,3.26c-.5.21-.97.45-1.41.73-19.7,8.89-37.1,18.69-52.75,29.71-.69.31-1.35.71-1.99,1.21l-6.53,5.05c-.57.44-1.08.93-1.53,1.47-10.9,9.18-20.78,19.11-29.45,29.62-3.51,4.25-8.39,5.43-11.88,5.67-6.86.46-14.47-2.14-19.4-6.67-3.56-3.26-6.24-9.93-6.24-15.51s2.08-10.32,7.19-16.51c26.19-31.73,63.66-57.48,114.54-78.71,35.1-14.65,73.64-25.94,114.56-33.56,58.28-10.86,102.79-7.39,140.06,10.89,34.37,16.87,61.78,51.79,68.2,86.9,4.13,22.57,1.55,43.13-7.88,62.87-5.07,10.62-12.82,21.49-20.72,30.22-7.18,7.94-16.58,15-16.34,27.08.11,5.74,3.31,11.22,7.98,14.55s10.68,4.57,16.37,3.86c9.09-1.13,17.62-3.91,26.46-6.14,14.28-3.6,27.76-6.99,41.65-6.3,19.3.96,38.14,6.92,54.49,17.25,16.81,10.62,29.72,25.16,37.35,42.07,9.06,20.1,12.5,39.42,10.21,57.45-1.52,11.92-3.66,20.67-7.17,29.25-2.36,5.75-4.99,11.59-7.53,17.24-5.31,11.78-13.82,25.92-8.77,39.18,2.5,6.57,8.05,11.55,14.08,15.17,5.74,3.45,12.42,5.94,19.04,4.96,12.83-1.9,24.94-8.45,34.27,5.72,3.45,5.24,4.29,11.99,2.64,18.03Z"/>
      </g>
    </g>
  </g>
</svg>