<?xml version="1.0" encoding="UTF-8"?>
<svg id="Layer_8_copy" data-name="Layer 8 copy" xmlns="http://www.w3.org/2000/svg" viewBox="0 0 1859.81 432.4">
  <defs>
    <style>
      .cls-1 {
        fill: #5bffff;
      }
    </style>
  </defs>
  <g id="Squiggles_copy" data-name="Squiggles copy">
    <g>
      <g>
        <path d="m1419.56,210.64c-.89-.45-1.73-1.09-2.47-1.95-.71-.82-1.2-1.71-1.52-2.62l3.98,4.57Z"/>
        <path d="m584.44,229.09c1.24,1.71,1.66,3.63,1.49,5.42l-5.78-8.42c1.61.45,3.14,1.42,4.29,3Z"/>
        <path d="m98.27,240.85c-1.07-.23-2.11-.68-3.04-1.37-.92-.68-1.66-1.52-2.2-2.46l5.24,3.82Z"/>
        <path d="m270.48,168.59s-.08.06-.12.09l-.13-.14-2.35-2.37c.99.39,1.94,1,2.78,1.87.08.09.16.18.23.27-.14.09-.27.18-.41.28Z"/>
        <path d="m293.5,154.93c-.04-.08-.08-.16-.12-.24-.15-.34-.27-.69-.37-1.03l.53,1.25s-.02.01-.03.02Z"/>
        <path d="m755.16,235.11c1.78-1.81,3.8-3.67,5.09-3.88.48-.08-3.41,2.68-5.09,3.88Z"/>
        <path d="m806.71,180.31l1.62-3.49c-.21,1.17-.72,2.37-1.62,3.49Z"/>
        <path d="m814,219.82c.39.11.81.23,1.26.35.06.19.12.37.18.56-.48-.32-.95-.64-1.43-.91Z"/>
        <path d="m816.92,198.85c-.08.04-.16.06-.24.09-.01-.02-.02-.05-.03-.07l1.5-.73c-.38.26-.78.5-1.23.71Z"/>
        <path d="m1121.33,213.44l-2.74-1.98c1.04.22,2.07.66,3.04,1.37.04.03.08.06.12.1-.14.17-.28.35-.42.52Z"/>
        <path d="m1132.46,259.03c.19-.25.39-.49.59-.74-6.32,8.7-2.48,3.14-.59.74Z"/>
        <path d="m1153.1,178.65s-.05.05-.08.08c-.05-.06-.11-.12-.16-.18-.61-.77-1.04-1.58-1.32-2.41l1.64,2.45s-.05.05-.08.07Z"/>
        <path d="m1672.7,215.91c1.7.34,3.39.91,4.97,1.65.25.12.49.24.74.36-1.89-.71-3.82-1.49-5.71-2.01Z"/>
        <path class="cls-1" d="m1765.07,216.97c-7.59,4.89-17.01,6.41-26.54,4.28-10.92-2.44-20.88-9.42-26.64-18.66-.03-.04-.05-.08-.08-.12-.25-1.24-.82-2.62-1.86-4.1-.43-.62-1.03-1.43-1.66-2.25-.68-.89-1.39-1.78-1.94-2.44-1.22-1.47-2.45-2.42-3.63-3.01-1.55-1.66-3.15-3.31-4.83-4.92-.24-.23-.49-.46-.73-.7-.48-.88-1.16-1.74-2.07-2.54-.27-.24-.66-.56-1.1-.93-.78-.64-1.78-1.43-2.62-2.07-.51-.39-.97-.73-1.31-.97-.99-.7-1.98-1.17-2.95-1.45-1.54-1.04-3.12-2.08-4.77-3.07-4.1-2.47-8.39-4.78-12.77-6.88l.02-.06c-.19-.07-.38-.14-.58-.21-.2-.09-.39-.19-.59-.28-2.19-1.03-4.48-1.79-6.79-2.25l-.12.52c-23.59-5.56-47.69-3.35-71.75,6.6-22.83,9.44-44.52,25.61-62.73,46.76-2.05,2.38-4.1,4.78-6.14,7.18-11.04,12.94-22.45,26.32-35.2,37.51-20.73,18.19-42.15,31.1-65.48,39.47-42.73,15.32-90.58,4.4-121.92-27.82-17.95-18.45-29.47-40.75-41.67-64.36-2.84-5.5-5.78-11.19-8.78-16.76-4.4-8.17-8.24-14.69-12.09-20.5-.33-.5-.75-1.08-1.24-1.74l.25-.22h0c-.75-.85-1.48-1.72-2.21-2.59-1.25-1.49-2.54-3.03-3.99-4.56-.8-.85-1.62-1.67-2.44-2.46-.89-1.06-2.01-1.98-3.16-2.92-.57-.51-1.14-1.02-1.71-1.52-.75-1.39-2.06-2.78-4.28-3.89-.84-.42-1.82-.84-2.49-1.12-1.1-.46-2.2-.88-3.09-1.17,0,0-.02,0-.03-.01v-.09s-.49-.07-.49-.07c-1.39-.41-2.62-.55-3.71-.5l-6.85-.92-.03-.2-.73.1-.67-.09-.03.18-11.06,1.49.09.69c-1.88.46-3.72.97-5.54,1.53l-.08.02c-1.27-.06-2.75.16-4.46.8-.76.29-1.74.69-2.71,1.11-.91.39-1.79.79-2.45,1.11-1.88.91-3.14,2-3.96,3.14-2.94,1.76-5.77,3.59-8.55,5.38-.62.4-1.23.79-1.83,1.18-1.39.16-2.86.72-4.36,1.85-.25.19-.63.48-1.13.87-.95.74-2.38,1.85-4.27,3.33l.15.22c-.29.25-.58.5-.87.76-1.59,1.4-3.23,2.9-4.88,4.46-3.88,3.68-7.93,7.88-12.38,12.85-3.5,3.91-7.07,8.09-10.92,12.79-1.51,1.84-3.06,3.78-4.81,5.98l-.04-.03c-.23.32-.45.61-.65.9-.2.25-.4.51-.6.76-1.42,1.8-2.64,3.36-3.48,4.87-22.77,31.3-50.81,68.02-87.46,88.4-44.36,24.67-93,27.21-130.1,6.79-36-19.81-50.35-57.8-63-98.3-1.39-4.45-2.91-9.23-4.56-13.99-.27-.77-.65-1.73-1.09-2.79l.35-.17c-1.29-2.65-2.17-4.43-2.72-5.55-.3-.6-.51-1.03-.65-1.3-.17-.34-.36-.66-.56-.96-.7-1.34-1.41-2.66-2.12-3.96-.06-1.48-.56-3.16-1.81-5.03-.5-.74-1.1-1.54-1.53-2.09-.67-.87-1.36-1.71-1.93-2.36-1.6-1.83-3.2-2.8-4.68-3.26-.58-.55-1.16-1.02-1.72-1.42v-.03s0,0,0,0c-.03,0-.06-.02-.09-.03-1.95-1.36-3.75-1.88-5.28-1.96-.15-.05-.29-.1-.44-.14l.1-.82-12.49-1.68-.13.94c-.68,0-1.36.01-2.04.03l-.1-.69-12.45,1.67s-.02,0-.03,0h-.02s.11.8.11.8c-2.48.62-4.91,1.31-7.3,2.07-1.22.04-2.63.32-4.23.95-.88.34-2.01.81-3.04,1.26-.81.35-1.57.69-2.11.95-1.42.68-2.48,1.47-3.26,2.32-2.85,1.55-5.65,3.21-8.38,4.95-2.87.78-5.33,2.8-8.1,5.57-.77.63-1.38,1.28-1.87,1.92-.02.02-.04.04-.06.06-.44.46-1.05,1.1-1.25,1.28-17.03,15.51-31.28,33.67-45.06,51.22-2.41,3.07-4.82,6.14-7.24,9.19-18.52,23.35-35.16,40.16-53.93,54.52-14.82,11.33-38.22,25.86-65.55,30.69-31.39,5.55-59.62,1.44-83.91-12.22-16.34-9.19-30.93-23.42-44.61-43.5-10.02-14.71-17.15-31.85-24.05-48.43l-1.32-3.16c-2.16-5.18-4.3-10.49-6.37-15.63-1.07-2.65-2.14-5.31-3.21-7.96-.04-.09-.07-.17-.11-.26-.15-.59-.36-1.21-.63-1.86-.4-.96-1.01-2.39-1.52-3.59-.26-.61-.5-1.16-.68-1.56-.25-.57-.52-1.08-.81-1.54-.85-1.89-1.68-3.73-2.55-5.57-4.27-9.05-8.45-16.76-12.76-23.58-.13-.21-.26-.42-.4-.62-.34-1.01-.91-2.09-1.77-3.23-.42-.55-1.08-1.42-2.08-2.71-.99-1.29-1.66-2.15-2.08-2.69-1.04-1.34-2.11-2.25-3.16-2.84-.06-.07-.13-.13-.2-.2-.09-.1-.19-.19-.28-.29-.57-1.12-1.49-2.26-2.89-3.37-.52-.41-1.35-1.06-2.57-2-1.29-1-2.16-1.66-2.71-2.08-.62-.47-1.23-.86-1.81-1.16l-.73-.58c-.94-.75-1.75-1.17-5.62-2.7-2.6-1.03-4.87-1.94-7.08-1.81-.16-.04-.32-.08-.48-.12l.09-.71-12.5-1.68-.12.86c-1.41-.02-2.82-.01-4.25.02l-.11-.79h0s0,0,0,0l-12.49,1.68.07.53c-5.55,1.22-11.06,2.76-16.48,4.59-.88.08-1.83.31-2.83.72-.32.13-.8.33-1.45.61-1.22.51-3.04,1.29-5.48,2.34l.13.31c-.88.43-1.77.86-2.66,1.32-5.27,2.71-10.49,5.72-15.5,8.94-2.13,1.36-4.27,2.8-6.36,4.26-.39.27-.8.58-1.24.93l-.08-.08s-.05.05-.08.08c-.37.37-.76.73-1.15,1.1-.4.34-.81.71-1.23,1.1-1.03.9-2.12,1.8-3.25,2.73-1.97,1.63-4.01,3.31-5.97,5.19-7.56,7.2-15.06,15.43-23.48,25.77-.4.37-.79.79-1.16,1.27l-3.97,5.16.07.06c-.95,1.27-1.9,2.55-2.84,3.83-3.43,4.69-7.04,9.77-11.36,15.96-3.64,5.23-7.29,10.56-10.82,15.72-3.2,4.68-6.41,9.36-9.64,14.02-15.65,22.56-32.91,46.27-52.98,66.83-12.77,13.09-36.97,16.56-55.33-.31-6.77-6.21-10.64-15.17-10.92-25.24-.3-11.11,3.9-22.23,11.24-29.75,5.39-5.52,10.52-11.16,15.26-16.75,1.65-1.95,3.31-3.95,5.03-6.08l.09.06s.02-.02.03-.04c.45-.62.92-1.22,1.38-1.83.34-.45.69-.9,1.03-1.35.01-.02.03-.03.04-.05.42-.54.82-1.06,1.18-1.57,7.85-10.52,15.29-21.28,22.26-31.43l1.13-1.64c16.64-24.26,33.85-49.35,53.36-71.7,34.14-39.12,78.41-65.28,121.45-71.77,30.81-4.64,56.17-2.15,79.81,7.83,21.42,9.04,39.38,23.76,56.51,46.33,8.44,11.11,15.72,24.2,23.62,42.45,4.2,9.69,8.54,20.13,13.67,32.87l.55,1.37c1.14,2.83,2.28,5.66,3.43,8.48l-.05.02s0,0,0,0l.05.12c.28.63.56,1.27.83,1.91.12.3.25.6.37.9.94,2.28,1.71,4.16,2.54,5.67,3.38,7.41,6.54,13.63,9.81,19.37,1.35,2.37,2.7,4.6,4.05,6.74.34,1,.9,2.06,1.75,3.18.43.56,1.11,1.46,2.14,2.79,1,1.29,1.67,2.17,2.09,2.71.71.92,1.44,1.64,2.16,2.19.44.7,1.01,1.41,1.74,2.09.2.19.46.42.75.67l-.14.29,5.52,3.99c.76.55,1.4.95,5.78,2.67.75.3,1.49.59,2.21.85l-.08.62h.02s.03,0,.04,0l11.65,1.57.04.29h.02s.01,0,.02,0l12.46-1.67-.08-.65c2.03-.5,4.03-1.04,5.99-1.65.16-.05.33-.1.49-.15,1.29.05,2.77-.19,4.48-.84.79-.3,1.79-.71,2.81-1.16.86-.38,1.69-.76,2.29-1.05,1.71-.84,2.89-1.85,3.69-2.91,5.41-3.08,10.99-6.57,17.22-10.76.77-.52,1.82-1.22,3.18-2.16.1-.07.19-.13.29-.2h0l-.33-.47c2.53-1.99,4.55-3.61,5.74-4.72,4.22-3.95,8.48-8.33,13.43-13.79,7.8-8.61,15.14-17.7,21.29-25.45,1.6-2.02,3.21-4.05,4.82-6.08,23.6-29.85,48-60.72,81.6-78.87,44.08-23.83,91.06-26.26,128.88-6.68,36.77,19.03,51.83,59.07,64.12,98.45,1.52,4.88,3.23,9.68,4.88,14.32,1.15,3.24,2.35,6.6,3.44,9.89l.26-.09c.31.7.59,1.3.86,1.82.68,1.31,1.39,2.58,2.12,3.81.16,1.5.76,3.21,2.06,5.14.59.88,1.38,1.95,2.17,2.94.59.74,1.11,1.36,1.56,1.85.93,1.01,1.89,1.73,2.85,2.22.95.87,2.24,1.66,3.97,2.31.79.3,1.83.67,2.84,1.03.17.09.34.18.52.27l-.08.59,2.13.29c1.27.43,2.55.63,3.92.53l6.45.87.12-.83c.71,0,1.43,0,2.16-.01l.11.74,12.5-1.68-.1-.77c1.71-.43,3.4-.89,5.06-1.38.74-.22,1.47-.45,2.19-.68,1.25.03,2.73-.22,4.41-.86.85-.32,1.91-.75,2.98-1.22.87-.38,1.69-.75,2.29-1.04,1.64-.8,2.79-1.76,3.59-2.76,2.38-1.29,4.77-2.64,7.13-4.13.3-.19.59-.38.88-.57,1.23-.31,2.58-.93,4.04-1.98.75-.54,1.71-1.27,2.63-2.01.71-.57,1.37-1.11,1.84-1.52,1.42-1.24,2.28-2.51,2.78-3.72,6.89-6.54,14.32-13.99,21.34-22.24,2.91-3.42,6-7.19,9.4-11.47.2-.2.39-.42.58-.66,0,0,0,0,0-.01.05-.07.11-.13.16-.2l3.86-5-.03-.02,2.74-3.58c1.99-2.61,3.98-5.24,5.97-7.87,12.68-16.76,25.79-34.09,40.86-48.61,18.56-17.89,39.61-31.47,64.37-41.5,44.13-17.89,93.04-9.42,127.65,22.1,20.13,18.34,33.05,43.55,45.55,67.92,2.54,4.95,5.16,10.07,7.8,15.05,4.44,8.36,8.09,14.7,11.85,20.54,1.36,2.11,2.77,4.1,4.14,6.04.76,1.07,1.51,2.14,2.26,3.22.03.05.07.1.1.15l.31-.22c.48.58.91,1.07,1.29,1.48.24.25.47.5.71.75.55,1.43,1.61,2.96,3.46,4.51.6.5,1.36,1.11,2.18,1.74.8,1.13,2.01,2.22,3.83,3.13.82.41,1.81.84,2.49,1.13,1.22.52,2.51,1.03,3.55,1.4l-.02.16.8.11c1.75.55,3.25.71,4.52.61l7.18.96.05-.34,11.48-1.54-.12-.93c.23-.06.46-.13.69-.19,1.29.17,2.73.04,4.28-.5.39-.14.94-.35,1.56-.6,1.12-.46,2.47-1.05,3.53-1.54.65-.3,1.22-.58,1.62-.8,1.07-.58,1.92-1.24,2.57-1.95,5.07-2.69,10.74-5.94,16.32-9.78l.15.17h0c.64-.56,1.31-1.09,1.98-1.62.66-.52,1.31-1.04,1.95-1.58,3.41-2.87,6.77-5.9,9.98-9.01,7.23-7,13.88-14.39,19.43-20.69,2.51-2.85,4.99-5.69,7.47-8.53,20.88-23.87,40.6-46.42,66.17-64.38,24.39-17.14,55.39-26.95,89.65-28.36,63.93-2.64,126.78,30.12,160.07,83.47,12.11,19.41,1.95,42.8-14.41,53.35Z"/>
        <path d="m1230.08,208c.4.35.74.65,1.03.91-.26-.23-.52-.47-.78-.7-.08-.07-.17-.14-.26-.21Z"/>
      </g>
      <g>
        <path d="m1798.9,203.1c-.49-.78-1-1.54-1.5-2.31,5.37-14.99,4.32-31.75-4.35-45.64-36.28-58.16-104.71-93.89-174.31-90.99-37.32,1.54-71.28,12.35-98.18,31.26-27.15,19.07-47.48,42.33-69.01,66.94-2.47,2.82-4.94,5.65-7.44,8.49-5.34,6.07-11.72,13.16-18.55,19.77-2.18,2.11-4.42,4.17-6.71,6.17-.84.53-1.55,1.14-2.13,1.63-.49.42-1.13.97-1.96,1.68-.26.2-.5.38-.69.51-6.55,4.55-13.43,8.29-19.11,11.17-.48.16-.95.33-1.43.5-1.35.47-2.62.91-3.86,1.28-2.1.62-4.27,1.17-6.55,1.66-2.06.1-4.09.12-6.12.07-1.46-.36-2.95-.77-4.5-1.23-.74-.39-1.44-.77-2.08-1.16-.58-.35-1.17-.73-1.79-1.13-1.72-1.57-3.43-3.19-5.02-4.88-.33-.35-1.65-1.84-4.87-6.34-.2-.27-.4-.53-.61-.77-.28-.42-.56-.85-.84-1.27-3.51-5.45-6.95-11.43-11.17-19.38-2.59-4.88-5.19-9.95-7.7-14.85-13.14-25.64-26.73-52.16-49.01-72.45-39.2-35.71-94.55-45.33-144.44-25.1-26.31,10.67-49.68,25.74-69.46,44.81-15.96,15.39-29.46,33.23-42.51,50.48-1.98,2.62-3.95,5.23-5.93,7.82l-4.54,5.96c-.48.61-.96,1.22-1.44,1.83-3.75,4.75-7.09,8.84-10.2,12.5-8.33,9.79-17.43,18.53-25.33,25.84-1.55,1.07-3.02,2.09-4.52,3.03-3.68,2.32-7.55,4.33-11.64,6.45l-.54.28c-2.22.79-4.32,1.54-6.43,2.17-2.92.87-5.92,1.61-9.08,2.25-3.06.19-6.05.23-9,.11-1.65-.4-3.31-.86-5.02-1.33-1.36-1.39-2.67-2.59-4.02-3.47,0-.01-.02-.02-.03-.03-1.61-2.56-3.12-4.98-4.42-7.49-.5-.97-1.34-3.13-1.96-4.81-.07-.21-.14-.4-.2-.57-.14-.42-.3-.88-.48-1.35-.01-.04-.02-.07-.03-.1,0,.03.02.06.03.09-.08-.2-.16-.4-.25-.6-.27-.75-.53-1.5-.8-2.25-1.6-4.5-3.26-9.15-4.68-13.73-13.29-42.6-29.79-86.03-72.03-107.89-42.6-22.05-95.03-19.57-143.85,6.81-36.5,19.73-61.94,51.91-86.54,83.03-1.6,2.02-3.2,4.05-4.8,6.06-5.99,7.55-13.12,16.38-20.62,24.65-4.65,5.13-8.62,9.21-12.51,12.85-.95.88-3.83,3.14-5.73,4.63-.98.76-1.86,1.46-2.49,1.96-.41.33-.79.67-1.12,1-7.02,4.63-13.15,8.29-19.27,11.52-1.71.61-3.36,1.19-5.01,1.69-2.69.82-5.45,1.53-8.34,2.13-2.5.13-4.96.15-7.39.06-2.02-.5-4.01-1.08-5.98-1.69-1.33-.72-2.6-1.42-3.79-2.16-.21-.13-.43-.27-.65-.42-2.41-2.26-4.68-4.42-6.73-6.74-.11-.13-.25-.29-.4-.46-2.12-3.08-4.18-6.37-6.27-10.03-3.07-5.36-6.04-11.24-9.25-18.3-.2-.52-.42-1.02-.63-1.5-.48-1.09-1.19-2.71-2.22-5.01-1.32-3.22-2.62-6.46-3.92-9.69l-.55-1.37c-5.18-12.87-9.57-23.43-13.83-33.25-8.43-19.47-16.31-33.58-25.56-45.76-18.9-24.89-38.93-41.22-63.04-51.4-26.48-11.17-54.57-14-88.42-8.91-46.73,7.04-94.52,35.13-131.12,77.07-20.12,23.05-37.6,48.53-54.5,73.17l-1.13,1.64c-6.55,9.55-13.53,19.64-20.82,29.48-.56.61-1.02,1.23-1.41,1.76-.44.59-1.04,1.41-1.85,2.52-2.08,2.59-4.03,4.96-5.97,7.25-4.5,5.31-9.38,10.67-14.51,15.92-10.46,10.71-16.21,25.79-15.78,41.36.4,14.43,6.11,27.42,16.09,36.59,1.47,1.35,3,2.61,4.58,3.79-.44,12.55,3.81,25.15,13.47,34.02,18.57,17.05,48.12,18.8,66.47,0,20.17-20.67,37.39-44.17,53.82-67.86,6.86-9.88,13.58-19.86,20.46-29.73,3.7-5.31,7.43-10.59,11.25-15.81,1.53-2.09,3.09-4.16,4.64-6.24.48-.61.96-1.22,1.45-1.82,7.59-9.42,15.59-18.6,24.36-26.95,2.91-2.77,6.17-5.23,9.19-7.89-2.81,2.57-4.81,4.91,1.48-1.3-.21.18-.43.36-.65.55.61-.55,1.21-1.11,1.79-1.68-.41.41-.78.78-1.14,1.13.49-.41.97-.79,1.4-1.08,2.01-1.4,4.05-2.76,6.11-4.09,4.81-3.09,9.77-5.95,14.85-8.56,2.15-1.11,4.35-2.12,6.53-3.17,8.04-3.02,16.27-5.33,24.68-6.91,5.58-.42,11.14-.48,16.71-.11,2.46.5,4.9,1.09,7.32,1.8,1.03.3,2.04.65,3.04,1,.63.24,1.2.45,1.5.61,2.05,1.07,4.07,2.23,6.02,3.47.46.29,1.41.96,2.38,1.65,0,0,.01,0,.02.01,1.61,1.44,3.17,2.92,4.68,4.46,1.51,1.54,2.97,3.13,4.38,4.75.16.18.35.42.57.68.02.02.03.05.05.07,1.24,1.78,2.44,3.59,3.61,5.42.53,1.31,1.06,2.62,1.59,3.94,2.09,5.18,4.24,10.54,6.44,15.81l1.31,3.15c6.49,15.6,13.19,31.68,22.45,46.46,6.37,15.21,13.1,30.39,22.39,44.04,12.54,18.4,27.68,34.93,47.29,45.96,27.77,15.62,58.27,18.6,89.22,13.13,24.89-4.4,49.06-16.96,69.01-32.21,21.32-16.3,38.7-34.92,55.34-55.9,16.28-20.52,31.98-41.76,51.42-59.47.65-.59,1.76-1.81,2.99-3.07.1-.07.22-.15.35-.24,1.3-.88,2.56-1.84,3.86-2.73,4.95-3.36,10.12-6.38,15.49-9.02.4-.2.8-.38,1.21-.57,1.77-.66,3.54-1.32,5.35-1.9,4.24-1.36,8.55-2.43,12.91-3.29,4.03-.28,8.06-.33,12.09-.11,1.03.22,2.05.47,3.07.74.18-.08,1.46.22,2.95.86.2.06.4.11.6.18.08.03.16.06.24.09-.28-.57.66-.4,1.96.74.03.01.06.02.09.04,0,.02.01.05.02.07-.04-.04-.08-.07-.12-.11-.66-.26-1.32-.52-1.96-.74.03.05.07.11.12.18-.32-.16-.64-.31-.95-.44-.98-.31-1.96-.6-2.95-.86-.19.08.84.58,4.11,1.54.37.39,1.06.94,2.14,1.61,7.16,22.51,15.44,45.05,28.17,64.41,11.45,30.49,27.38,58.89,57.5,75.46,43.35,23.86,95.95,16.5,137.85-6.81,39.36-21.89,67.97-60.24,93.93-96.05,1.79-2.27,3.59-4.53,5.41-6.76,3.47-4.25,7.01-8.43,10.68-12.51,3.83-4.27,7.78-8.44,11.94-12.39,1.53-1.45,3.07-2.87,4.65-4.26.59-.52,1.2-1.02,1.79-1.53,8.1-4.76,15.64-10.26,24.04-14.66,1.9-.68,3.8-1.35,5.73-1.94,3.19-.98,6.43-1.76,9.69-2.42,3.05-.18,6.09-.2,9.14-.07,2.36.55,4.7,1.19,7.06,1.86,1.14.61,2.29,1.21,3.4,1.88,1.08.64,2.38,1.62,3.5,2.52-.99-.88-2.31-2.06-4.03-3.62,1.43,1.29,2.87,2.55,4.29,3.83,2.15,1.74,3.45,3.04.78.7,1.46,1.32,2.89,2.67,4.26,4.12,2.11,2.23,3.99,4.65,6.01,6.95-11.41-12.95-2.21-2.75.33,1.09,4.25,6.41,8.07,13.1,11.71,19.87,15.52,28.85,28.55,59.04,51.76,82.91,33.65,34.59,84.92,46.06,130.36,29.77,25.65-9.19,47.61-23.04,68.06-40.99,15.54-13.64,28.67-29.85,42.13-45.48,32.39-37.62,81.65-64.59,133.12-49.03,4.1,1.97,8.11,4.11,12,6.46,3.14,1.89,6.11,4,9.11,6.09.11.09.2.18.32.28,1.61,1.39,3.18,2.82,4.72,4.29,3.15,3.01,6.02,6.22,8.89,9.47,1.3,1.93,2.61,3.85,3.84,5.83,13.01,20.85,42.54,30.89,64.3,16.86,20.89-13.47,30.78-41.99,16.86-64.3Zm-645.81-24.45s-.05.05-.08.08c-.05-.06-.11-.12-.16-.18-.61-.77-1.04-1.58-1.32-2.41l1.64,2.45s-.05.05-.08.07Zm-882.62-10.06s-.08.06-.12.09l-.13-.14h0s0,0,0,0l-2.35-2.37c.99.39,1.94,1,2.78,1.87.08.09.16.18.23.27-.14.09-.27.18-.41.28Zm23.02-13.67c-.04-.08-.08-.16-.12-.24-.15-.34-.27-.69-.37-1.03l.53,1.25s-.02.01-.03.02Zm513.22,25.38l1.62-3.49c-.21,1.17-.72,2.37-1.62,3.49Zm9.94,18.56l1.5-.73c-.38.26-.78.5-1.23.71-.08.04-.16.06-.24.09-.01-.02-.02-.05-.03-.07Zm304.68,14.57l-2.74-1.98c1.04.22,2.07.66,3.04,1.37.04.03.08.06.12.1-.14.17-.28.35-.42.52Zm298.23-2.81c-.89-.45-1.73-1.09-2.47-1.95-.71-.82-1.2-1.71-1.52-2.62l3.98,4.57Zm-835.11,18.46c1.24,1.71,1.66,3.63,1.49,5.42l-5.78-8.42c1.61.45,3.14,1.42,4.29,3Zm-486.17,11.76c-1.07-.23-2.11-.68-3.04-1.37-.92-.68-1.66-1.52-2.2-2.46l5.24,3.82Zm-27.81,55.3c-.3-11.11,3.9-22.23,11.24-29.75,5.39-5.52,10.52-11.16,15.26-16.75,1.65-1.95,3.31-3.95,5.03-6.08l.09.06s.02-.02.03-.04c.45-.62.92-1.22,1.38-1.83.34-.45.69-.9,1.03-1.35.01-.02.03-.03.04-.05.42-.54.82-1.06,1.18-1.57,7.85-10.52,15.29-21.28,22.26-31.43l1.13-1.64c16.64-24.26,33.85-49.35,53.36-71.7,34.14-39.12,78.41-65.28,121.45-71.77,30.81-4.64,56.17-2.15,79.81,7.83,21.42,9.04,39.38,23.76,56.51,46.33,8.44,11.11,15.72,24.2,23.62,42.45,4.2,9.69,8.54,20.13,13.67,32.87l.55,1.37c1.14,2.83,2.28,5.66,3.43,8.48l-.05.02s0,0,0,0l.05.12c.28.63.56,1.27.83,1.91.12.3.25.6.37.9.94,2.28,1.71,4.16,2.54,5.67,3.38,7.41,6.54,13.63,9.81,19.37,1.35,2.37,2.7,4.6,4.05,6.74.34,1,.9,2.06,1.75,3.18.43.56,1.11,1.46,2.14,2.79,1,1.29,1.67,2.17,2.09,2.71.71.92,1.44,1.64,2.16,2.19.44.7,1.01,1.41,1.74,2.09.2.19.46.42.75.67l-.14.29,5.52,3.99c.76.55,1.4.95,5.78,2.67.75.3,1.49.59,2.21.85l-.08.62h.02s.03,0,.04,0l11.65,1.57.04.29h.02s.01,0,.02,0l12.46-1.67-.08-.65c2.03-.5,4.03-1.04,5.99-1.65.16-.05.33-.1.49-.15,1.29.05,2.77-.19,4.48-.84.79-.3,1.79-.71,2.81-1.16.86-.38,1.69-.76,2.29-1.05,1.71-.84,2.89-1.85,3.69-2.91,5.41-3.08,10.99-6.57,17.22-10.76.77-.52,1.82-1.22,3.18-2.16.1-.07.19-.13.29-.2h0l-.33-.47c2.53-1.99,4.55-3.61,5.74-4.72,4.22-3.95,8.48-8.33,13.43-13.79,7.8-8.61,15.14-17.7,21.29-25.45,1.6-2.02,3.21-4.05,4.82-6.08,23.6-29.85,48-60.72,81.6-78.87,44.08-23.83,91.06-26.26,128.88-6.68,36.77,19.03,51.83,59.07,64.12,98.45,1.52,4.88,3.23,9.68,4.88,14.32,1.15,3.24,2.35,6.6,3.44,9.89l.26-.09c.31.7.59,1.3.86,1.82.68,1.31,1.39,2.58,2.12,3.81.16,1.5.76,3.21,2.06,5.14.59.88,1.38,1.95,2.17,2.94.59.74,1.11,1.36,1.56,1.85.93,1.01,1.89,1.73,2.85,2.22.95.87,2.24,1.66,3.97,2.31.79.3,1.83.67,2.84,1.03.17.09.34.18.52.27l-.08.59,2.13.29c1.27.43,2.55.63,3.92.53l6.45.87.12-.83c.71,0,1.43,0,2.16-.01l.11.74,12.5-1.68-.1-.77c1.71-.43,3.4-.89,5.06-1.38.74-.22,1.47-.45,2.19-.68,1.25.03,2.73-.22,4.41-.86.85-.32,1.91-.75,2.98-1.22.87-.38,1.69-.75,2.29-1.04,1.64-.8,2.79-1.76,3.59-2.76,2.38-1.29,4.77-2.64,7.13-4.13.3-.19.59-.38.88-.57,1.23-.31,2.58-.93,4.04-1.98.75-.54,1.71-1.27,2.63-2.01.71-.57,1.37-1.11,1.84-1.52,1.42-1.24,2.28-2.51,2.78-3.72,6.89-6.54,14.32-13.99,21.34-22.24,2.91-3.42,6-7.19,9.4-11.47.2-.2.39-.42.58-.66,0,0,0,0,0-.01.05-.07.11-.13.16-.2l3.86-5-.03-.02,2.74-3.58c1.99-2.61,3.98-5.24,5.97-7.87,12.68-16.76,25.79-34.09,40.86-48.61,18.56-17.89,39.61-31.47,64.37-41.5,44.13-17.89,93.04-9.42,127.65,22.1,20.13,18.34,33.05,43.55,45.55,67.92,2.54,4.95,5.16,10.07,7.8,15.05,4.44,8.36,8.09,14.7,11.85,20.54,1.36,2.11,2.77,4.1,4.14,6.04.76,1.07,1.51,2.14,2.26,3.22.03.05.07.1.1.15l.31-.22c.48.58.91,1.07,1.29,1.48.24.25.47.5.71.75.55,1.43,1.61,2.96,3.46,4.51.6.5,1.36,1.11,2.18,1.74.8,1.13,2.01,2.22,3.83,3.13.82.41,1.81.84,2.49,1.13,1.22.52,2.51,1.03,3.55,1.4l-.02.16.8.11c1.75.55,3.25.71,4.52.61l7.18.96.05-.34,11.48-1.54-.12-.93c.23-.06.46-.13.69-.19,1.29.17,2.73.04,4.28-.5.39-.14.94-.35,1.56-.6,1.12-.46,2.47-1.05,3.53-1.54.65-.3,1.22-.58,1.62-.8,1.07-.58,1.92-1.24,2.57-1.95,5.07-2.69,10.74-5.94,16.32-9.78l.15.17h0c.64-.56,1.31-1.09,1.98-1.62.66-.52,1.31-1.04,1.95-1.58,3.41-2.87,6.77-5.9,9.98-9.01,7.23-7,13.88-14.39,19.43-20.69,2.51-2.85,4.99-5.69,7.47-8.53,20.88-23.87,40.6-46.42,66.17-64.38,24.39-17.14,55.39-26.95,89.65-28.36,63.93-2.64,126.78,30.12,160.07,83.47,12.11,19.41,1.95,42.8-14.41,53.35-7.59,4.89-17.01,6.41-26.54,4.28-10.92-2.44-20.88-9.42-26.64-18.66-.03-.04-.05-.08-.08-.12-.25-1.24-.82-2.62-1.86-4.1-.43-.62-1.03-1.43-1.66-2.25-.68-.89-1.39-1.78-1.94-2.44-1.22-1.47-2.45-2.42-3.63-3.01-1.55-1.66-3.15-3.31-4.83-4.92-.24-.23-.49-.46-.73-.7-.48-.88-1.16-1.74-2.07-2.54-.27-.24-.66-.56-1.1-.93-.78-.64-1.78-1.43-2.62-2.07-.51-.39-.97-.73-1.31-.97-.99-.7-1.98-1.17-2.95-1.45-1.54-1.04-3.12-2.08-4.77-3.07-4.1-2.47-8.39-4.78-12.77-6.88l.02-.06c-.19-.07-.38-.14-.58-.21-.2-.09-.39-.19-.59-.28-2.19-1.03-4.48-1.79-6.79-2.25l-.12.52c-23.59-5.56-47.69-3.35-71.75,6.6-22.83,9.44-44.52,25.61-62.73,46.76-2.05,2.38-4.1,4.78-6.14,7.18-11.04,12.94-22.45,26.32-35.2,37.51-20.73,18.19-42.15,31.1-65.48,39.47-42.73,15.32-90.58,4.4-121.92-27.82-17.95-18.45-29.47-40.75-41.67-64.36-2.84-5.5-5.78-11.19-8.78-16.76-4.4-8.17-8.24-14.69-12.09-20.5-.33-.5-.75-1.08-1.24-1.74l.25-.22h0c-.75-.85-1.48-1.72-2.21-2.59-1.25-1.49-2.54-3.03-3.99-4.56-.8-.85-1.62-1.67-2.44-2.46-.89-1.06-2.01-1.98-3.16-2.92-.57-.51-1.14-1.02-1.71-1.52-.75-1.39-2.06-2.78-4.28-3.89-.84-.42-1.82-.84-2.49-1.12-1.1-.46-2.2-.88-3.09-1.17,0,0-.02,0-.03-.01v-.09s-.49-.07-.49-.07c-1.39-.41-2.62-.55-3.71-.5l-6.85-.92-.03-.2-.73.1-.67-.09-.03.18-11.06,1.49.09.69c-1.88.46-3.72.97-5.54,1.53l-.08.02c-1.27-.06-2.75.16-4.46.8-.76.29-1.74.69-2.71,1.11-.91.39-1.79.79-2.45,1.11-1.88.91-3.14,2-3.96,3.14-2.94,1.76-5.77,3.59-8.55,5.38-.62.4-1.23.79-1.83,1.18-1.39.16-2.86.72-4.36,1.85-.25.19-.63.48-1.13.87-.95.74-2.38,1.85-4.27,3.33l.15.22c-.29.25-.58.5-.87.76-1.59,1.4-3.23,2.9-4.88,4.46-3.88,3.68-7.93,7.88-12.38,12.85-3.5,3.91-7.07,8.09-10.92,12.79-1.51,1.84-3.06,3.78-4.81,5.98l-.04-.03c-.23.32-.45.61-.65.9-.2.25-.4.51-.6.76-1.42,1.8-2.64,3.36-3.48,4.87-22.77,31.3-50.81,68.02-87.46,88.4-44.36,24.67-93,27.21-130.1,6.79-36-19.81-50.35-57.8-63-98.3-1.39-4.45-2.91-9.23-4.56-13.99-.27-.77-.65-1.73-1.09-2.79l.35-.17c-1.29-2.65-2.17-4.43-2.72-5.55-.3-.6-.51-1.03-.65-1.3-.17-.34-.36-.66-.56-.96-.7-1.34-1.41-2.66-2.12-3.96-.06-1.48-.56-3.16-1.81-5.03-.5-.74-1.1-1.54-1.53-2.09-.67-.87-1.36-1.71-1.93-2.36-1.6-1.83-3.2-2.8-4.68-3.26-.58-.55-1.16-1.02-1.72-1.42v-.03s0,0,0,0c-.03,0-.06-.02-.09-.03-1.95-1.36-3.75-1.88-5.28-1.96-.15-.05-.29-.1-.44-.14l.1-.82-12.49-1.68-.13.94c-.68,0-1.36.01-2.04.03l-.1-.69-12.45,1.67s-.02,0-.03,0h-.02s.11.8.11.8c-2.48.62-4.91,1.31-7.3,2.07-1.22.04-2.63.32-4.23.95-.88.34-2.01.81-3.04,1.26-.81.35-1.57.69-2.11.95-1.42.68-2.48,1.47-3.26,2.32-2.85,1.55-5.65,3.21-8.38,4.95-2.87.78-5.33,2.8-8.1,5.57-.77.63-1.38,1.28-1.87,1.92-.02.02-.04.04-.06.06-.44.46-1.05,1.1-1.25,1.28-17.03,15.51-31.28,33.67-45.06,51.22-2.41,3.07-4.82,6.14-7.24,9.19-18.52,23.35-35.16,40.16-53.93,54.52-14.82,11.33-38.22,25.86-65.55,30.69-31.39,5.55-59.62,1.44-83.91-12.22-16.34-9.19-30.93-23.42-44.61-43.5-10.02-14.71-17.15-31.85-24.05-48.43l-1.32-3.16c-2.16-5.18-4.3-10.49-6.37-15.63-1.07-2.65-2.14-5.31-3.21-7.96-.04-.09-.07-.17-.11-.26-.15-.59-.36-1.21-.63-1.86-.4-.96-1.01-2.39-1.52-3.59-.26-.61-.5-1.16-.68-1.56-.25-.57-.52-1.08-.81-1.54-.85-1.89-1.68-3.73-2.55-5.57-4.27-9.05-8.45-16.76-12.76-23.58-.13-.21-.26-.42-.4-.62-.34-1.01-.91-2.09-1.77-3.23-.42-.55-1.08-1.42-2.08-2.71-.99-1.29-1.66-2.15-2.08-2.69-1.04-1.34-2.11-2.25-3.16-2.84-.06-.07-.13-.13-.2-.2-.09-.1-.19-.19-.28-.29-.57-1.12-1.49-2.26-2.89-3.37-.52-.41-1.35-1.06-2.57-2-1.29-1-2.16-1.66-2.71-2.08-.62-.47-1.23-.86-1.81-1.16l-.73-.58c-.94-.75-1.75-1.17-5.62-2.7-2.6-1.03-4.87-1.94-7.08-1.81-.16-.04-.32-.08-.48-.12l.09-.71-12.5-1.68-.12.86c-1.41-.02-2.82-.01-4.25.02l-.11-.79h0s0,0,0,0l-12.49,1.68.07.53c-5.55,1.22-11.06,2.76-16.48,4.59-.88.08-1.83.31-2.83.72-.32.13-.8.33-1.45.61-1.22.51-3.04,1.29-5.48,2.34l.13.31c-.88.43-1.77.86-2.66,1.32-5.27,2.71-10.49,5.72-15.5,8.94-2.13,1.36-4.27,2.8-6.36,4.26-.39.27-.8.58-1.24.93l-.08-.08s-.05.05-.08.08c-.37.37-.76.73-1.15,1.1-.4.34-.81.71-1.23,1.1-1.03.9-2.12,1.8-3.25,2.73-1.97,1.63-4.01,3.31-5.97,5.19-7.56,7.2-15.06,15.43-23.48,25.77-.4.37-.79.79-1.16,1.27l-3.97,5.16.07.06c-.95,1.27-1.9,2.55-2.84,3.83-3.43,4.69-7.04,9.77-11.36,15.96-3.64,5.23-7.29,10.56-10.82,15.72-3.2,4.68-6.41,9.36-9.64,14.02-15.65,22.56-32.91,46.27-52.98,66.83-12.77,13.09-36.97,16.56-55.33-.31-6.77-6.21-10.64-15.17-10.92-25.24Zm684.7-61.04c1.78-1.81,3.8-3.67,5.09-3.88.48-.08-3.41,2.68-5.09,3.88Zm58.84-15.29c.39.11.81.23,1.26.35.06.19.12.37.18.56-.48-.32-.95-.64-1.43-.91Zm318.46,39.21c.19-.25.39-.49.59-.74-6.32,8.7-2.48,3.14-.59.74Zm540.23-43.12c1.7.34,3.39.91,4.97,1.65.25.12.49.24.74.36-1.89-.71-3.82-1.49-5.71-2.01Z"/>
        <path d="m1230.08,208c.4.35.74.65,1.03.91-.26-.23-.52-.47-.78-.7-.08-.07-.17-.14-.26-.21Z"/>
      </g>
    </g>
  </g>
</svg>