<?xml version="1.0" encoding="UTF-8"?>
<svg id="Layer_8_copy" data-name="Layer 8 copy" xmlns="http://www.w3.org/2000/svg" viewBox="0 0 1085.66 594.84">
  <defs>
    <style>
      .cls-1 {
        fill: #5bffff;
      }
    </style>
  </defs>
  <g id="Zig_zags_copy" data-name="Zig zags copy">
    <g>
      <g>
        <path class="cls-1" d="m970.31,493.43c-2.67,5.06-9.19,9.99-15.5,11.73-6.4,1.76-13.37.78-20.74-2.92l-102.57-51.5c-1.27-.64-2.65-.96-4.04-.96s-2.77.32-4.04.96l-94.07,47.23-2.41,1.21c-1.54.78-3.08,1.55-4.62,2.32-.23.11-.46.23-.68.34-.18.09-.37.19-.55.28-9.91,4.72-18.27,4.73-27.93.03-3.01-1.47-6.09-3.03-9.06-4.54-1.56-.79-3.11-1.58-4.67-2.36l-88.65-44.51c-2.54-1.28-5.54-1.28-8.08,0l-94.06,47.23-2.41,1.21c-1.54.78-3.08,1.55-4.62,2.32-.23.11-.46.23-.69.35-.18.09-.37.19-.55.28-9.91,4.72-18.27,4.73-27.93.03-3.02-1.47-6.1-3.03-9.08-4.54-1.55-.79-3.1-1.57-4.65-2.35l-88.65-44.51c-2.54-1.28-5.54-1.28-8.08,0l-94.06,47.23-2.41,1.21c-1.54.78-3.08,1.55-4.62,2.32-.23.11-.45.23-.68.34-.19.09-.37.19-.56.28-9.91,4.72-18.27,4.73-27.93.03-3.02-1.47-6.1-3.03-9.08-4.54-1.55-.79-3.1-1.57-4.65-2.35l-106.45-53.45c-6.45-3.24-9.38-8.87-10.71-13.02-2.36-7.38-1.6-16.17,1.99-22.96,2.67-5.06,9.19-9.99,15.5-11.73,6.39-1.76,13.37-.78,20.73,2.92l102.57,51.5c2.54,1.27,5.54,1.27,8.08,0l94.06-47.23,2.37-1.2c1.55-.78,3.1-1.57,4.66-2.33.23-.11.46-.23.69-.35.18-.09.36-.19.54-.27,9.91-4.72,18.27-4.73,27.93-.03,3.03,1.48,6.12,3.04,9.12,4.56,1.54.78,3.08,1.56,4.62,2.33l88.65,44.51c2.54,1.27,5.54,1.27,8.08,0l94.06-47.23,2.37-1.2c1.55-.78,3.1-1.57,4.66-2.33.23-.11.46-.23.69-.35.18-.09.36-.19.54-.27,9.92-4.72,18.27-4.73,27.93-.03,3.03,1.48,6.13,3.05,9.12,4.56,1.54.78,3.07,1.56,4.61,2.33l88.65,44.51c2.54,1.28,5.54,1.28,8.08,0l94.07-47.23,2.35-1.18c1.56-.79,3.11-1.57,4.68-2.34.23-.12.46-.23.7-.35.18-.09.36-.18.54-.27,9.92-4.72,18.27-4.73,27.93-.03,3.02,1.47,6.11,3.04,9.1,4.55,1.55.78,3.09,1.57,4.64,2.35l106.45,53.45c6.45,3.24,9.38,8.87,10.71,13.02,2.36,7.38,1.6,16.17-1.99,22.96Z"/>
        <path class="cls-1" d="m970.31,323.43c-2.67,5.06-9.19,9.99-15.5,11.73-6.4,1.76-13.37.78-20.74-2.92l-102.57-51.5c-1.27-.64-2.65-.96-4.04-.96s-2.77.32-4.04.96l-94.07,47.23-2.41,1.21c-1.54.78-3.08,1.55-4.62,2.32-.23.11-.46.23-.68.34-.18.09-.37.19-.55.28-9.91,4.72-18.27,4.73-27.93.03-3.01-1.47-6.09-3.03-9.06-4.54-1.56-.79-3.11-1.58-4.67-2.36l-88.65-44.51c-2.54-1.28-5.54-1.28-8.08,0l-94.06,47.23-2.41,1.21c-1.54.78-3.08,1.55-4.62,2.32-.23.11-.46.23-.69.35-.18.09-.37.19-.55.28-9.91,4.72-18.27,4.73-27.93.03-3.02-1.47-6.1-3.03-9.08-4.54-1.55-.79-3.1-1.57-4.65-2.35l-88.65-44.51c-2.54-1.28-5.54-1.28-8.08,0l-94.06,47.23-2.41,1.21c-1.54.78-3.08,1.55-4.62,2.32-.23.11-.45.23-.68.34-.19.09-.37.19-.56.28-9.91,4.72-18.27,4.73-27.93.03-3.02-1.47-6.1-3.03-9.08-4.54-1.55-.79-3.1-1.57-4.65-2.35l-106.45-53.45c-6.45-3.24-9.38-8.87-10.71-13.02-2.36-7.38-1.6-16.17,1.99-22.96,2.67-5.06,9.19-9.99,15.5-11.73,6.39-1.76,13.37-.78,20.73,2.92l102.57,51.5c2.54,1.27,5.54,1.28,8.08,0l94.06-47.23,2.37-1.2c1.55-.78,3.1-1.57,4.66-2.33.23-.11.46-.23.69-.35.18-.09.36-.19.54-.27,9.91-4.72,18.27-4.73,27.93-.03,3.03,1.48,6.12,3.04,9.12,4.56,1.54.78,3.08,1.56,4.62,2.33l88.65,44.51c2.54,1.27,5.54,1.28,8.08,0l94.06-47.23,2.37-1.2c1.55-.78,3.1-1.57,4.66-2.33.23-.11.46-.23.69-.35.18-.09.36-.19.54-.27,9.92-4.72,18.27-4.73,27.93-.03,3.03,1.48,6.13,3.05,9.12,4.56,1.54.78,3.07,1.56,4.61,2.33l88.65,44.51c2.54,1.28,5.54,1.28,8.08,0l94.07-47.23,2.35-1.18c1.56-.79,3.11-1.57,4.68-2.34.23-.12.46-.23.7-.35.18-.09.36-.18.54-.27,9.92-4.72,18.27-4.73,27.93-.03,3.02,1.47,6.11,3.04,9.1,4.55,1.55.78,3.09,1.57,4.64,2.35l106.45,53.45c6.45,3.24,9.38,8.87,10.71,13.02,2.36,7.38,1.6,16.17-1.99,22.96Z"/>
        <path class="cls-1" d="m82.83,65.82c2.67-5.06,9.19-9.99,15.5-11.73,6.39-1.76,13.37-.78,20.73,2.92l102.57,51.5c2.54,1.27,5.54,1.28,8.08,0l94.06-47.23,2.37-1.2c1.55-.78,3.1-1.57,4.66-2.33.23-.11.46-.23.69-.35.18-.09.36-.19.54-.27,9.91-4.72,18.27-4.73,27.93-.03,3.03,1.48,6.12,3.04,9.12,4.56,1.54.78,3.08,1.56,4.62,2.33l88.65,44.51c2.54,1.27,5.54,1.28,8.08,0l94.06-47.23,2.37-1.2c1.55-.78,3.1-1.57,4.66-2.33.23-.11.46-.23.69-.35.18-.09.36-.19.54-.27,9.92-4.72,18.27-4.73,27.93-.03,3.03,1.48,6.13,3.05,9.12,4.56,1.54.78,3.07,1.56,4.61,2.33l88.65,44.51c2.54,1.28,5.54,1.28,8.08,0l94.07-47.23,2.35-1.18c1.56-.79,3.11-1.57,4.68-2.34.23-.12.46-.23.7-.35.18-.09.36-.18.54-.27,9.92-4.72,18.27-4.73,27.93-.03,3.02,1.47,6.11,3.04,9.1,4.55,1.55.78,3.09,1.57,4.64,2.35l106.45,53.45c6.45,3.24,9.38,8.87,10.71,13.02,2.36,7.38,1.6,16.17-1.99,22.96-2.67,5.06-9.19,9.99-15.5,11.73-6.4,1.76-13.37.78-20.74-2.92l-102.57-51.5c-1.27-.64-2.65-.96-4.04-.96s-2.77.32-4.04.96l-94.07,47.23-2.41,1.21c-1.54.78-3.08,1.55-4.62,2.32-.23.11-.46.23-.68.34-.18.09-.37.19-.55.28-9.91,4.72-18.27,4.73-27.93.03-3.01-1.47-6.09-3.03-9.06-4.54-1.56-.79-3.11-1.58-4.67-2.36l-88.65-44.51c-2.54-1.28-5.54-1.28-8.08,0l-94.06,47.23-2.41,1.21c-1.54.78-3.08,1.55-4.62,2.32-.23.11-.46.23-.69.35-.18.09-.37.19-.55.28-9.91,4.72-18.27,4.73-27.93.03-3.02-1.47-6.1-3.03-9.08-4.54-1.55-.79-3.1-1.57-4.65-2.35l-88.65-44.51c-2.54-1.28-5.54-1.27-8.08,0l-94.06,47.23-2.41,1.21c-1.54.78-3.08,1.55-4.62,2.32-.23.11-.45.23-.68.34-.19.09-.37.19-.56.28-9.91,4.72-18.27,4.73-27.93.03-3.02-1.47-6.1-3.03-9.08-4.54-1.55-.79-3.1-1.57-4.65-2.35l-106.45-53.45c-6.45-3.24-9.38-8.87-10.71-13.02-2.36-7.38-1.6-16.17,1.99-22.96Z"/>
      </g>
      <path d="m991.43,474.84c-.32-3.36-.97-6.67-1.99-9.86-3.37-10.52-10.39-18.91-19.78-23.62l-106.45-53.45c-1.53-.77-3.05-1.54-4.57-2.31-3.05-1.55-6.21-3.15-9.37-4.69-14.52-7.06-28.76-7.07-43.55-.03-.33.16-.67.33-1,.5l-.44.23c-1.62.8-3.23,1.61-4.85,2.43l-92.33,46.36-84.62-42.49c-1.52-.76-3.03-1.53-4.54-2.3-3.06-1.55-6.22-3.16-9.39-4.7-14.52-7.06-28.76-7.07-43.55-.03-.34.16-.67.33-1,.5l-.44.22c-1.61.79-3.22,1.6-4.82,2.42l-92.35,46.38-84.62-42.49c-1.52-.76-3.03-1.53-4.55-2.3-3.06-1.55-6.22-3.16-9.39-4.7-14.52-7.06-28.77-7.07-43.54-.03-.34.16-.67.33-1.01.5l-.44.22c-1.61.79-3.22,1.6-4.82,2.42l-92.35,46.38-98.53-49.47c-11.47-5.76-22.77-7.17-33.59-4.19-11.17,3.08-21.62,11.19-26.63,20.67-5.85,11.08-7.05,24.85-3.21,36.85,3.37,10.52,10.39,18.91,19.78,23.62l20.25,10.17c2.39,2.72,5.31,5.04,8.79,6.79,35.48,17.82,70.96,35.63,106.45,53.45,4.61,2.31,9.2,4.69,13.84,6.95,12.34,6,23.54,5.81,35.74,0,.45-.21.89-.45,1.34-.67,2.37-1.17,4.73-2.37,7.09-3.56,20.62-10.35,41.24-20.71,61.85-31.06l32.2-16.17c29.55,14.84,59.1,29.68,88.65,44.51,4.61,2.31,9.2,4.69,13.84,6.95,12.34,6,23.54,5.81,35.74,0,.45-.21.89-.45,1.34-.67,2.37-1.17,4.73-2.37,7.09-3.56,20.62-10.35,41.24-20.71,61.86-31.06l32.2-16.17c29.55,14.84,59.1,29.68,88.65,44.51,4.61,2.31,9.2,4.69,13.84,6.95,12.34,6,23.54,5.81,35.74,0,.45-.21.89-.45,1.34-.67,2.37-1.17,4.73-2.37,7.09-3.56,20.62-10.35,41.24-20.71,61.86-31.06,10.74-5.39,21.47-10.78,32.21-16.17,29.15,14.64,58.3,29.27,87.45,43.91,5.04,2.53,10.08,5.06,15.12,7.59,8.5,4.27,17.77,6.14,27.16,3.55,8.18-2.25,17.04-8.57,21.07-16.2,8.32-15.75,5.04-38.65-11.84-47.79Zm-21.12,18.59c-2.67,5.06-9.19,9.99-15.5,11.73-6.4,1.76-13.37.78-20.74-2.92l-102.57-51.5c-1.27-.64-2.65-.96-4.04-.96s-2.77.32-4.04.96l-94.07,47.23-2.41,1.21c-1.54.78-3.08,1.55-4.62,2.32-.23.11-.46.23-.68.34-.18.09-.37.19-.55.28-9.91,4.72-18.27,4.73-27.93.03-3.01-1.47-6.09-3.03-9.06-4.54-1.56-.79-3.11-1.58-4.67-2.36l-88.65-44.51c-2.54-1.28-5.54-1.28-8.08,0l-94.06,47.23-2.41,1.21c-1.54.78-3.08,1.55-4.62,2.32-.23.11-.46.23-.69.35-.18.09-.37.19-.55.28-9.91,4.72-18.27,4.73-27.93.03-3.02-1.47-6.1-3.03-9.08-4.54-1.55-.79-3.1-1.57-4.65-2.35l-88.65-44.51c-2.54-1.28-5.54-1.28-8.08,0l-94.06,47.23-2.41,1.21c-1.54.78-3.08,1.55-4.62,2.32-.23.11-.45.23-.68.34-.19.09-.37.19-.56.28-9.91,4.72-18.27,4.73-27.93.03-3.02-1.47-6.1-3.03-9.08-4.54-1.55-.79-3.1-1.57-4.65-2.35l-106.45-53.45c-6.45-3.24-9.38-8.87-10.71-13.02-2.36-7.38-1.6-16.17,1.99-22.96,2.67-5.06,9.19-9.99,15.5-11.73,6.39-1.76,13.37-.78,20.73,2.92l102.57,51.5c2.54,1.27,5.54,1.27,8.08,0l94.06-47.23,2.37-1.2c1.55-.78,3.1-1.57,4.66-2.33.23-.11.46-.23.69-.35.18-.09.36-.19.54-.27,9.91-4.72,18.27-4.73,27.93-.03,3.03,1.48,6.12,3.04,9.12,4.56,1.54.78,3.08,1.56,4.62,2.33l88.65,44.51c2.54,1.27,5.54,1.27,8.08,0l94.06-47.23,2.37-1.2c1.55-.78,3.1-1.57,4.66-2.33.23-.11.46-.23.69-.35.18-.09.36-.19.54-.27,9.92-4.72,18.27-4.73,27.93-.03,3.03,1.48,6.13,3.05,9.12,4.56,1.54.78,3.07,1.56,4.61,2.33l88.65,44.51c2.54,1.28,5.54,1.28,8.08,0l94.07-47.23,2.35-1.18c1.56-.79,3.11-1.57,4.68-2.34.23-.12.46-.23.7-.35.18-.09.36-.18.54-.27,9.92-4.72,18.27-4.73,27.93-.03,3.02,1.47,6.11,3.04,9.1,4.55,1.55.78,3.09,1.57,4.64,2.35l106.45,53.45c6.45,3.24,9.38,8.87,10.71,13.02,2.36,7.38,1.6,16.17-1.99,22.96Zm21.12-188.59c-.32-3.36-.97-6.67-1.99-9.86-3.37-10.52-10.39-18.91-19.78-23.62l-106.45-53.45c-1.53-.77-3.05-1.54-4.57-2.31-3.05-1.55-6.21-3.15-9.37-4.69-14.52-7.06-28.76-7.07-43.55-.03-.33.16-.67.33-1,.5l-.44.23c-1.62.8-3.23,1.61-4.85,2.43l-92.33,46.36-84.62-42.49c-1.52-.76-3.03-1.53-4.54-2.3-3.06-1.55-6.22-3.16-9.39-4.7-14.52-7.06-28.76-7.07-43.55-.03-.34.16-.67.33-1,.5l-.44.22c-1.61.79-3.22,1.6-4.82,2.42l-92.35,46.38-84.62-42.49c-1.52-.76-3.03-1.53-4.55-2.3-3.06-1.55-6.22-3.16-9.39-4.7-14.52-7.06-28.77-7.07-43.54-.03-.34.16-.67.33-1.01.5l-.44.22c-1.61.79-3.22,1.6-4.82,2.42l-92.35,46.38-98.53-49.47c-11.47-5.76-22.77-7.17-33.59-4.19-11.17,3.08-21.62,11.19-26.63,20.67-5.85,11.08-7.05,24.85-3.21,36.85,3.37,10.52,10.39,18.91,19.78,23.62l20.25,10.17c2.39,2.72,5.31,5.04,8.79,6.79,35.48,17.82,70.96,35.63,106.45,53.45,4.61,2.31,9.2,4.69,13.84,6.95,12.34,6,23.54,5.81,35.74,0,.45-.21.89-.45,1.34-.67,2.37-1.17,4.73-2.37,7.09-3.56,20.62-10.35,41.24-20.71,61.85-31.06l32.2-16.17c29.55,14.84,59.1,29.68,88.65,44.51,4.61,2.31,9.2,4.69,13.84,6.95,12.34,6,23.54,5.81,35.74,0,.45-.21.89-.45,1.34-.67,2.37-1.17,4.73-2.37,7.09-3.56,20.62-10.35,41.24-20.71,61.86-31.06l32.2-16.17c29.55,14.84,59.1,29.68,88.65,44.51,4.61,2.31,9.2,4.69,13.84,6.95,12.34,6,23.54,5.81,35.74,0,.45-.21.89-.45,1.34-.67,2.37-1.17,4.73-2.37,7.09-3.56,20.62-10.35,41.24-20.71,61.86-31.06,10.74-5.39,21.47-10.78,32.21-16.17,29.15,14.64,58.3,29.27,87.45,43.91,5.04,2.53,10.08,5.06,15.12,7.59,8.5,4.27,17.77,6.14,27.16,3.55,8.18-2.25,17.04-8.57,21.07-16.2,8.32-15.75,5.04-38.65-11.84-47.79Zm-21.12,18.59c-2.67,5.06-9.19,9.99-15.5,11.73-6.4,1.76-13.37.78-20.74-2.92l-102.57-51.5c-1.27-.64-2.65-.96-4.04-.96s-2.77.32-4.04.96l-94.07,47.23-2.41,1.21c-1.54.78-3.08,1.55-4.62,2.32-.23.11-.46.23-.68.34-.18.09-.37.19-.55.28-9.91,4.72-18.27,4.73-27.93.03-3.01-1.47-6.09-3.03-9.06-4.54-1.56-.79-3.11-1.58-4.67-2.36l-88.65-44.51c-2.54-1.28-5.54-1.28-8.08,0l-94.06,47.23-2.41,1.21c-1.54.78-3.08,1.55-4.62,2.32-.23.11-.46.23-.69.35-.18.09-.37.19-.55.28-9.91,4.72-18.27,4.73-27.93.03-3.02-1.47-6.1-3.03-9.08-4.54-1.55-.79-3.1-1.57-4.65-2.35l-88.65-44.51c-2.54-1.28-5.54-1.28-8.08,0l-94.06,47.23-2.41,1.21c-1.54.78-3.08,1.55-4.62,2.32-.23.11-.45.23-.68.34-.19.09-.37.19-.56.28-9.91,4.72-18.27,4.73-27.93.03-3.02-1.47-6.1-3.03-9.08-4.54-1.55-.79-3.1-1.57-4.65-2.35l-106.45-53.45c-6.45-3.24-9.38-8.87-10.71-13.02-2.36-7.38-1.6-16.17,1.99-22.96,2.67-5.06,9.19-9.99,15.5-11.73,6.39-1.76,13.37-.78,20.73,2.92l102.57,51.5c2.54,1.27,5.54,1.28,8.08,0l94.06-47.23,2.37-1.2c1.55-.78,3.1-1.57,4.66-2.33.23-.11.46-.23.69-.35.18-.09.36-.19.54-.27,9.91-4.72,18.27-4.73,27.93-.03,3.03,1.48,6.12,3.04,9.12,4.56,1.54.78,3.08,1.56,4.62,2.33l88.65,44.51c2.54,1.27,5.54,1.28,8.08,0l94.06-47.23,2.37-1.2c1.55-.78,3.1-1.57,4.66-2.33.23-.11.46-.23.69-.35.18-.09.36-.19.54-.27,9.92-4.72,18.27-4.73,27.93-.03,3.03,1.48,6.13,3.05,9.12,4.56,1.54.78,3.07,1.56,4.61,2.33l88.65,44.51c2.54,1.28,5.54,1.28,8.08,0l94.07-47.23,2.35-1.18c1.56-.79,3.11-1.57,4.68-2.34.23-.12.46-.23.7-.35.18-.09.36-.18.54-.27,9.92-4.72,18.27-4.73,27.93-.03,3.02,1.47,6.11,3.04,9.1,4.55,1.55.78,3.09,1.57,4.64,2.35l106.45,53.45c6.45,3.24,9.38,8.87,10.71,13.02,2.36,7.38,1.6,16.17-1.99,22.96ZM83.48,117.89l20.25,10.17c2.39,2.72,5.31,5.04,8.79,6.79,35.48,17.82,70.96,35.63,106.45,53.45,4.61,2.31,9.2,4.69,13.84,6.95,12.34,6,23.54,5.81,35.74,0,.45-.21.89-.45,1.34-.67,2.37-1.17,4.73-2.37,7.09-3.56,20.62-10.35,41.24-20.71,61.85-31.06l32.2-16.17c29.55,14.84,59.1,29.68,88.65,44.51,4.61,2.31,9.2,4.69,13.84,6.95,12.34,6,23.54,5.81,35.74,0,.45-.21.89-.45,1.34-.67,2.37-1.17,4.73-2.37,7.09-3.56,20.62-10.35,41.24-20.71,61.86-31.06l32.2-16.17c29.55,14.84,59.1,29.68,88.65,44.51,4.61,2.31,9.2,4.69,13.84,6.95,12.34,6,23.54,5.81,35.74,0,.45-.21.89-.45,1.34-.67,2.37-1.17,4.73-2.37,7.09-3.56,20.62-10.35,41.24-20.71,61.86-31.06,10.74-5.39,21.47-10.78,32.21-16.17,29.15,14.64,58.3,29.27,87.45,43.91,5.04,2.53,10.08,5.06,15.12,7.59,8.5,4.27,17.77,6.14,27.16,3.55,8.18-2.25,17.04-8.57,21.07-16.2,8.32-15.75,5.04-38.65-11.84-47.79-.32-3.36-.97-6.67-1.99-9.86-3.37-10.52-10.39-18.91-19.78-23.62l-106.45-53.45c-1.53-.77-3.05-1.54-4.57-2.31-3.05-1.55-6.21-3.15-9.37-4.69-14.52-7.06-28.76-7.07-43.55-.03-.33.16-.67.33-1,.5l-.44.23c-1.62.8-3.23,1.61-4.85,2.43l-92.33,46.36-84.62-42.49c-1.52-.76-3.03-1.53-4.54-2.3-3.06-1.55-6.22-3.16-9.39-4.7-14.52-7.06-28.76-7.07-43.55-.03-.34.16-.67.33-1,.5l-.44.22c-1.61.79-3.22,1.6-4.82,2.42l-92.35,46.38-84.62-42.49c-1.52-.76-3.03-1.53-4.55-2.3-3.06-1.55-6.22-3.16-9.39-4.7-14.52-7.06-28.77-7.07-43.54-.03-.34.16-.67.33-1.01.5l-.44.22c-1.61.79-3.22,1.6-4.82,2.42l-92.35,46.38-98.53-49.47c-11.47-5.76-22.77-7.17-33.59-4.19-11.17,3.08-21.62,11.19-26.63,20.67-5.85,11.08-7.05,24.85-3.21,36.85,3.37,10.52,10.39,18.91,19.78,23.62Zm-.65-52.07c2.67-5.06,9.19-9.99,15.5-11.73,6.39-1.76,13.37-.78,20.73,2.92l102.57,51.5c2.54,1.27,5.54,1.28,8.08,0l94.06-47.23,2.37-1.2c1.55-.78,3.1-1.57,4.66-2.33.23-.11.46-.23.69-.35.18-.09.36-.19.54-.27,9.91-4.72,18.27-4.73,27.93-.03,3.03,1.48,6.12,3.04,9.12,4.56,1.54.78,3.08,1.56,4.62,2.33l88.65,44.51c2.54,1.27,5.54,1.28,8.08,0l94.06-47.23,2.37-1.2c1.55-.78,3.1-1.57,4.66-2.33.23-.11.46-.23.69-.35.18-.09.36-.19.54-.27,9.92-4.72,18.27-4.73,27.93-.03,3.03,1.48,6.13,3.05,9.12,4.56,1.54.78,3.07,1.56,4.61,2.33l88.65,44.51c2.54,1.28,5.54,1.28,8.08,0l94.07-47.23,2.35-1.18c1.56-.79,3.11-1.57,4.68-2.34.23-.12.46-.23.7-.35.18-.09.36-.18.54-.27,9.92-4.72,18.27-4.73,27.93-.03,3.02,1.47,6.11,3.04,9.1,4.55,1.55.78,3.09,1.57,4.64,2.35l106.45,53.45c6.45,3.24,9.38,8.87,10.71,13.02,2.36,7.38,1.6,16.17-1.99,22.96-2.67,5.06-9.19,9.99-15.5,11.73-6.4,1.76-13.37.78-20.74-2.92l-102.57-51.5c-1.27-.64-2.65-.96-4.04-.96s-2.77.32-4.04.96l-94.07,47.23-2.41,1.21c-1.54.78-3.08,1.55-4.62,2.32-.23.11-.46.23-.68.34-.18.09-.37.19-.55.28-9.91,4.72-18.27,4.73-27.93.03-3.01-1.47-6.09-3.03-9.06-4.54-1.56-.79-3.11-1.58-4.67-2.36l-88.65-44.51c-2.54-1.28-5.54-1.28-8.08,0l-94.06,47.23-2.41,1.21c-1.54.78-3.08,1.55-4.62,2.32-.23.11-.46.23-.69.35-.18.09-.37.19-.55.28-9.91,4.72-18.27,4.73-27.93.03-3.02-1.47-6.1-3.03-9.08-4.54-1.55-.79-3.1-1.57-4.65-2.35l-88.65-44.51c-2.54-1.28-5.54-1.27-8.08,0l-94.06,47.23-2.41,1.21c-1.54.78-3.08,1.55-4.62,2.32-.23.11-.45.23-.68.34-.19.09-.37.19-.56.28-9.91,4.72-18.27,4.73-27.93.03-3.02-1.47-6.1-3.03-9.08-4.54-1.55-.79-3.1-1.57-4.65-2.35l-106.45-53.45c-6.45-3.24-9.38-8.87-10.71-13.02-2.36-7.38-1.6-16.17,1.99-22.96Z"/>
    </g>
  </g>
</svg>