<?xml version="1.0" encoding="UTF-8"?>
<svg id="Layer_8_copy" data-name="Layer 8 copy" xmlns="http://www.w3.org/2000/svg" viewBox="0 0 1486.87 594.84">
  <defs>
    <style>
      .cls-1 {
        fill: #ffff47;
      }
    </style>
  </defs>
  <g id="Zig_zags_copy" data-name="Zig zags copy">
    <g>
      <path class="cls-1" d="m1330.7,450.93l-169.76-102.54c-4.77-2.88-10.74-2.88-15.51,0l-234.6,141.7-234.6-141.7c-4.77-2.88-10.74-2.88-15.51,0l-234.59,141.7-281.51-170.04,104-172.17,169.76,102.54c4.77,2.88,10.74,2.88,15.51,0l234.59-141.7,234.6,141.71c4.77,2.88,10.74,2.88,15.51,0l234.6-141.7,281.51,170.04-104,172.17Z"/>
      <path d="m1469.86,270.08c-.95-3.86-3.4-7.19-6.81-9.25l-47.26-28.54,5.58-9.24-302.11-182.48-242.35,146.39-242.35-146.39-242.35,146.39-182.6-110.3-119.51,197.85,34.42,20.79-13.34,22.08c-4.28,7.09-2.01,16.31,5.08,20.6l302.11,182.48c2.38,1.44,5.07,2.16,7.76,2.16s5.37-.72,7.76-2.16l234.59-141.7,234.6,141.7c4.77,2.88,10.74,2.88,15.51,0l234.6-141.7,174.84,105.61c7.09,4.28,16.31,2.01,20.6-5.08l119.51-197.85c2.06-3.41,2.68-7.49,1.72-11.35Zm-139.15,180.85l-169.76-102.54c-4.77-2.88-10.74-2.88-15.51,0l-234.6,141.7-234.6-141.7c-4.77-2.88-10.74-2.88-15.51,0l-234.59,141.7-281.51-170.04,104-172.17,169.76,102.54c4.77,2.88,10.74,2.88,15.51,0l234.59-141.7,234.6,141.71c4.77,2.88,10.74,2.88,15.51,0l234.6-141.7,281.51,170.04-104,172.17Z"/>
    </g>
  </g>
</svg>