<?xml version="1.0" encoding="UTF-8"?>
<svg id="Layer_8_copy" data-name="Layer 8 copy" xmlns="http://www.w3.org/2000/svg" viewBox="0 0 1019.93 660.78">
  <defs>
    <style>
      .cls-1 {
        fill: #ffff1e;
      }

      .cls-2 {
        fill: #8e88ff;
      }

      .cls-3 {
        fill: #50f8c3;
      }
    </style>
  </defs>
  <g id="Zig_zags_copy" data-name="Zig zags copy">
    <circle class="cls-1" cx="894.57" cy="506.38" r="54.7"/>
    <g>
      <circle class="cls-3" cx="132.18" cy="471.17" r="54.7" transform="translate(-170.25 86.45) rotate(-22.5)"/>
      <path class="cls-2" d="m699.89,327c-3.29-4.73-8.69-7.54-14.44-7.54h-.11c-5.8.04-11.2,2.92-14.46,7.71l-128.36,189.02c-.21.3-.4.61-.59.93-5.53,9.34-12.75,16.57-22.08,22.11-9.67,5.59-19.82,8.33-30.96,8.37-21.44,0-41.79-11.71-53.1-30.57l-109.92-183.24c-3.07-5.12-8.54-8.34-14.51-8.54-.2,0-.39,0-.59,0-5.75,0-11.16,2.82-14.46,7.56l-78.06,112.44c-11.16-36.97-45.53-63.98-86.09-63.98-6.84,0-13.5.77-19.91,2.23l149.76-215.71c.24-.35.47-.71.69-1.08,5.53-9.34,12.75-16.58,22.09-22.11,9.67-5.59,19.82-8.33,30.95-8.36,21.44,0,41.79,11.71,53.1,30.57l109.17,181.98c3.09,5.15,8.59,8.37,14.6,8.54,6.02.19,11.68-2.74,15.06-7.71l124.07-182.71c.21-.3.4-.61.59-.93,5.53-9.34,12.75-16.57,22.08-22.11,9.67-5.6,19.82-8.33,30.96-8.37,27.09,0,44.06,16.99,53.53,31.25,13.4,20.17,26.87,40.17,40.04,59.46,35.59,52.1,72.61,104.28,110.47,155.73-3.62-.44-7.3-.68-11.03-.68-43.33,0-79.6,30.81-88.05,71.67-5.11-6.89-10.16-13.75-15.13-20.53-25.17-34.33-50.51-69.79-75.32-105.41Z"/>
      <path d="m954.08,409.85h0c-50.26-66.72-99.41-135.19-146.06-203.5-13.09-19.16-26.47-39.04-39.79-59.08-20.12-30.29-49.55-46.98-82.91-46.98-17.31.05-33.67,4.48-48.64,13.16-.04.03-.09.05-.13.08-14.23,8.42-25.74,19.86-34.22,34.03l-108.29,159.48-94.99-158.35c-17.64-29.4-49.55-47.66-83.34-47.66-17.31.05-33.67,4.48-48.64,13.16-.04.03-.09.05-.13.08-14.2,8.4-25.69,19.82-34.18,33.95L41.95,423.04c-.13.19-.26.39-.39.59-7.14,11.21-11.18,23.47-12.02,36.48-2.63,12.92-1.95,25.96,2.02,38.8,6.68,23.9,24.71,47.09,44.96,57.79,25.17,13.3,51.63,16.54,74.5,9.14.48-.16.96-.33,1.42-.53l18.86-7.96c.73-.31,1.44-.67,2.12-1.07,14.2-8.4,25.69-19.82,34.17-33.94l102.11-147.07,95.9,159.87c17.64,29.4,49.55,47.66,83.34,47.66,17.31-.05,33.67-4.48,48.64-13.16.04-.03.09-.05.13-.08,14.23-8.42,25.74-19.86,34.22-34.02l113.72-167.47c20.25,28.78,40.76,57.34,61.15,85.16,13.57,18.51,27.7,37.53,42.01,56.53,6.06,10.8,14.25,19.71,24.36,26.53,6.36,5.61,13.47,10.05,21.23,13.29,13.01,7.32,28.01,11.51,43.97,11.51,49.58,0,89.91-40.33,89.91-89.91,0-1.93-.07-3.84-.19-5.74,2.06-30.12-8.61-48.39-14.02-55.58Zm-20.99,61.32c0,30.16-24.54,54.7-54.7,54.7s-54.7-24.54-54.7-54.7,24.54-54.7,54.7-54.7,54.7,24.54,54.7,54.7Zm-800.91,54.7c-30.16,0-54.7-24.54-54.7-54.7s24.54-54.7,54.7-54.7,54.7,24.54,54.7,54.7-24.54,54.7-54.7,54.7Zm567.71-198.88c-3.29-4.73-8.69-7.54-14.44-7.54h-.11c-5.8.04-11.2,2.92-14.46,7.71l-128.36,189.02c-.21.3-.4.61-.59.93-5.53,9.34-12.75,16.57-22.08,22.11-9.67,5.59-19.82,8.33-30.96,8.37-21.44,0-41.79-11.71-53.1-30.57l-109.92-183.24c-3.07-5.12-8.54-8.34-14.51-8.54-.2,0-.39,0-.59,0-5.75,0-11.16,2.82-14.46,7.56l-78.06,112.44c-11.16-36.97-45.53-63.98-86.09-63.98-6.84,0-13.5.77-19.91,2.23l149.76-215.71c.24-.35.47-.71.69-1.08,5.53-9.34,12.75-16.58,22.09-22.11,9.67-5.59,19.82-8.33,30.95-8.36,21.44,0,41.79,11.71,53.1,30.57l109.17,181.98c3.09,5.15,8.59,8.37,14.6,8.54,6.02.19,11.68-2.74,15.06-7.71l124.07-182.71c.21-.3.4-.61.59-.93,5.53-9.34,12.75-16.57,22.08-22.11,9.67-5.6,19.82-8.33,30.96-8.37,27.09,0,44.06,16.99,53.53,31.25,13.4,20.17,26.87,40.17,40.04,59.46,35.59,52.1,72.61,104.28,110.47,155.73-3.62-.44-7.3-.68-11.03-.68-43.33,0-79.6,30.81-88.05,71.67-5.11-6.89-10.16-13.75-15.13-20.53-25.17-34.33-50.51-69.79-75.32-105.41Z"/>
    </g>
  </g>
</svg>