<?xml version="1.0" encoding="UTF-8"?>
<svg id="Layer_8_copy" data-name="Layer 8 copy" xmlns="http://www.w3.org/2000/svg" viewBox="0 0 1924.98 398.84">
  <defs>
    <style>
      .cls-1 {
        fill: #ffa4ff;
      }

      .cls-2 {
        fill: #8e88ff;
      }

      .cls-3 {
        fill: #50f8c3;
      }
    </style>
  </defs>
  <g id="Zig_zags_copy" data-name="Zig zags copy">
    <g>
      <path class="cls-2" d="m1765.12,199c25.56,0,46.35,20.79,46.35,46.35s-20.79,46.35-46.35,46.35-46.35-20.79-46.35-46.35,20.79-46.35,46.35-46.35Z"/>
      <path class="cls-3" d="m238.64,169.54c-25.56,0-46.35-20.79-46.35-46.35s20.79-46.35,46.35-46.35,46.35,20.79,46.35,46.35-20.79,46.35-46.35,46.35Z"/>
      <path class="cls-1" d="m1454.26,184.37c-22.05,8.59-44.67,17-66.55,25.13-13.41,4.99-27.28,10.14-40.9,15.3l-156.62,59.26c-2.16.82-4.29,1.65-6.41,2.48-16.95,6.63-27.16,10.17-39.93,5.83-7.76-2.64-15.37-5.61-23.42-8.77-3.98-1.56-8.09-3.17-12.19-4.72l-249.96-94.58c-1.89-.72-3.88-1.07-5.87-1.07s-4.08.38-6.02,1.13c-22.05,8.59-44.67,17-66.55,25.14-13.41,4.99-27.28,10.14-40.9,15.3l-156.62,59.26c-2.16.82-4.29,1.65-6.41,2.48-16.95,6.63-27.16,10.17-39.93,5.83-7.76-2.64-15.37-5.62-23.43-8.77-3.98-1.56-8.09-3.17-12.19-4.72l-225.08-85.16c25.46-13.27,42.89-39.9,42.89-70.55,0-5.26-.53-10.4-1.5-15.37l225.34,85.26c3.83,1.45,8.07,1.43,11.89-.06,22.05-8.59,44.68-17,66.56-25.14,13.41-4.99,27.27-10.14,40.89-15.3l156.62-59.26c2.16-.82,4.29-1.65,6.42-2.48,16.95-6.63,27.16-10.17,39.93-5.83,7.76,2.64,15.36,5.61,23.42,8.77,3.98,1.56,8.1,3.17,12.2,4.72l249.96,94.58c3.83,1.45,8.07,1.43,11.89-.06,22.06-8.59,44.69-17,66.57-25.14,13.4-4.98,27.26-10.14,40.88-15.29l156.62-59.26c2.16-.82,4.29-1.65,6.42-2.48,16.95-6.63,27.16-10.17,39.93-5.83,7.76,2.64,15.37,5.61,23.42,8.77,3.98,1.56,8.1,3.17,12.19,4.72l213.27,80.69c-21.36,14.27-35.46,38.6-35.46,66.16,0,8.12,1.23,15.95,3.5,23.33l-222.96-84.36c-3.83-1.45-8.07-1.43-11.89.06Z"/>
      <path d="m535.91,248.65h3.12v2h-3.12v3.12h-2v-3.12h-3.12v-2h3.12v-3.12h2v3.12Zm-79.07-82.19h-2v3.12h-3.12v2h3.12v3.12h2v-3.12h3.12v-2h-3.12v-3.12Zm19.77,59.3h-2v3.12h-3.12v2h3.12v3.12h2v-3.12h3.12v-2h-3.12v-3.12Zm0-39.53h-2v3.12h-3.12v2h3.12v3.12h2v-3.12h3.12v-2h-3.12v-3.12Zm19.77,59.3h-2v3.12h-3.12v2h3.12v3.12h2v-3.12h3.12v-2h-3.12v-3.12Zm19.77-59.3h-2v3.12h-3.12v2h3.12v3.12h2v-3.12h3.12v-2h-3.12v-3.12Zm0,79.07h-2v3.12h-3.12v2h3.12v3.12h2v-3.12h3.12v-2h-3.12v-3.12Zm-19.77-59.3h-2v3.12h-3.12v2h3.12v3.12h2v-3.12h3.12v-2h-3.12v-3.12Zm19.77,19.77h-2v3.12h-3.12v2h3.12v3.12h2v-3.12h3.12v-2h-3.12v-3.12Zm-130.83-91.3h-2v3.12h-3.12v2h3.12v3.12h2v-3.12h3.12v-2h-3.12v-3.12Zm-19.77,51.76h-2v3.12h-3.12v2h3.12v3.12h2v-3.12h3.12v-2h-3.12v-3.12Zm39.54,0h-2v3.12h-3.12v2h3.12v3.12h2v-3.12h3.12v-2h-3.12v-3.12Zm0,39.53h-2v3.12h-3.12v2h3.12v3.12h2v-3.12h3.12v-2h-3.12v-3.12Zm-19.77-59.3h-2v3.12h-3.12v2h3.12v3.12h2v-3.12h3.12v-2h-3.12v-3.12Zm71.53,39.53h-2v3.12h-3.12v2h3.12v3.12h2v-3.12h3.12v-2h-3.12v-3.12Zm-71.53,0h-2v3.12h-3.12v2h3.12v3.12h2v-3.12h3.12v-2h-3.12v-3.12Zm-19.77-59.3h-2v3.12h-3.12v2h3.12v3.12h2v-3.12h3.12v-2h-3.12v-3.12Zm71.53,79.07h-2v3.12h-3.12v2h3.12v3.12h2v-3.12h3.12v-2h-3.12v-3.12Zm0-39.53h-2v3.12h-3.12v2h3.12v3.12h2v-3.12h3.12v-2h-3.12v-3.12Zm19.77,59.3h-2v3.12h-3.12v2h3.12v3.12h2v-3.12h3.12v-2h-3.12v-3.12Zm-39.54-39.54h-2v3.12h-3.12v2h3.12v3.12h2v-3.12h3.12v-2h-3.12v-3.12Zm-12.23-59.3h-2v3.12h-3.12v2h3.12v3.12h2v-3.12h3.12v-2h-3.12v-3.12Zm12.23,19.77h-2v3.12h-3.12v2h3.12v3.12h2v-3.12h3.12v-2h-3.12v-3.12Zm118.6,39.53h-2v3.12h-3.12v2h3.12v3.12h2v-3.12h3.12v-2h-3.12v-3.12Zm130.83-19.76h-2v3.12h-3.12v2h3.12v3.12h2v-3.12h3.12v-2h-3.12v-3.12Zm19.77-19.77h-2v3.12h-3.12v2h3.12v3.12h2v-3.12h3.12v-2h-3.12v-3.12Zm0,39.53h-2v3.12h-3.12v2h3.12v3.12h2v-3.12h3.12v-2h-3.12v-3.12Zm-19.77,19.77h-2v3.12h-3.12v2h3.12v3.12h2v-3.12h3.12v-2h-3.12v-3.12Zm-19.77-59.3h-2v3.12h-3.12v2h3.12v3.12h2v-3.12h3.12v-2h-3.12v-3.12Zm59.3,19.77h-2v3.12h-3.12v2h3.12v3.12h2v-3.12h3.12v-2h-3.12v-3.12Zm12.23-19.77h-2v3.12h-3.12v2h3.12v3.12h2v-3.12h3.12v-2h-3.12v-3.12Zm0,39.53h-2v3.12h-3.12v2h3.12v3.12h2v-3.12h3.12v-2h-3.12v-3.12Zm-162.83,59.3h-2v3.12h-3.12v2h3.12v3.12h2v-3.12h3.12v-2h-3.12v-3.12Zm150.6-39.54h-2v3.12h-3.12v2h3.12v3.12h2v-3.12h3.12v-2h-3.12v-3.12Zm-59.3-19.77h-2v3.12h-3.12v2h3.12v3.12h2v-3.12h3.12v-2h-3.12v-3.12Zm59.3-59.3h-2v3.12h-3.12v2h3.12v3.12h2v-3.12h3.12v-2h-3.12v-3.12Zm-118.6,118.6h-2v3.12h-3.12v2h3.12v3.12h2v-3.12h3.12v-2h-3.12v-3.12Zm59.3-19.77h-2v3.12h-3.12v2h3.12v3.12h2v-3.12h3.12v-2h-3.12v-3.12Zm-59.3-19.77h-2v3.12h-3.12v2h3.12v3.12h2v-3.12h3.12v-2h-3.12v-3.12Zm-19.77,19.77h-2v3.12h-3.12v2h3.12v3.12h2v-3.12h3.12v-2h-3.12v-3.12Zm-12.23-19.77h-2v3.12h-3.12v2h3.12v3.12h2v-3.12h3.12v-2h-3.12v-3.12Zm12.23-19.77h-2v3.12h-3.12v2h3.12v3.12h2v-3.12h3.12v-2h-3.12v-3.12Zm19.77-19.76h-2v3.12h-3.12v2h3.12v3.12h2v-3.12h3.12v-2h-3.12v-3.12Zm39.54,0h-2v3.12h-3.12v2h3.12v3.12h2v-3.12h3.12v-2h-3.12v-3.12Zm0,39.53h-2v3.12h-3.12v2h3.12v3.12h2v-3.12h3.12v-2h-3.12v-3.12Zm-19.77,19.77h-2v3.12h-3.12v2h3.12v3.12h2v-3.12h3.12v-2h-3.12v-3.12Zm0-39.54h-2v3.12h-3.12v2h3.12v3.12h2v-3.12h3.12v-2h-3.12v-3.12Zm1000.43,28h2v-3.12h3.12v-2h-3.12v-3.12h-2v3.12h-3.12v2h3.12v3.12Zm71.53-39.53h2v-3.12h3.12v-2h-3.12v-3.12h-2v3.12h-3.12v2h3.12v3.12ZM266.7,94.93h-2v3.12h-3.12v2h3.12v3.12h2v-3.12h3.12v-2h-3.12v-3.12Zm-12.23,51.76h-2v3.12h-3.12v2h3.12v3.12h2v-3.12h3.12v-2h-3.12v-3.12Zm12.23-12.23h-2v3.12h-3.12v2h3.12v3.12h2v-3.12h3.12v-2h-3.12v-3.12Zm-12.23-19.77h-2v3.12h-3.12v2h3.12v3.12h2v-3.12h3.12v-2h-3.12v-3.12Zm1405.16,60h2v-3.12h3.12v-2h-3.12v-3.12h-2v3.12h-3.12v2h3.12v3.12Zm19.77,59.3h2v-3.12h3.12v-2h-3.12v-3.12h-2v3.12h-3.12v2h3.12v3.12Zm-59.3-19.77h2v-3.12h3.12v-2h-3.12v-3.12h-2v3.12h-3.12v2h3.12v3.12Zm19.77,19.77h2v-3.12h3.12v-2h-3.12v-3.12h-2v3.12h-3.12v2h3.12v3.12Zm19.77,19.77h2v-3.12h3.12v-2h-3.12v-3.12h-2v3.12h-3.12v2h3.12v3.12Zm-19.77-59.3h2v-3.12h3.12v-2h-3.12v-3.12h-2v3.12h-3.12v2h3.12v3.12Zm19.77,19.76h2v-3.12h3.12v-2h-3.12v-3.12h-2v3.12h-3.12v2h3.12v3.12ZM345.77,134.46h-2v3.12h-3.12v2h3.12v3.12h2v-3.12h3.12v-2h-3.12v-3.12Zm1426.92,111.06h-2v3.12h-3.12v2h3.12v3.12h2v-3.12h3.12v-2h-3.12v-3.12Zm-12.23-19.77h-2v3.12h-3.12v2h3.12v3.12h2v-3.12h3.12v-2h-3.12v-3.12Zm0,39.54h-2v3.12h-3.12v2h3.12v3.12h2v-3.12h3.12v-2h-3.12v-3.12Zm12.23-59.3h-2v3.12h-3.12v2h3.12v3.12h2v-3.12h3.12v-2h-3.12v-3.12Zm-32,39.54h-2v3.12h-3.12v2h3.12v3.12h2v-3.12h3.12v-2h-3.12v-3.12Zm51.76-19.77h-2v3.12h-3.12v2h3.12v3.12h2v-3.12h3.12v-2h-3.12v-3.12ZM214.94,114.7h-2v3.12h-3.12v2h3.12v3.12h2v-3.12h3.12v-2h-3.12v-3.12Zm19.77,19.77h-2v3.12h-3.12v2h3.12v3.12h2v-3.12h3.12v-2h-3.12v-3.12Zm0-39.54h-2v3.12h-3.12v2h3.12v3.12h2v-3.12h3.12v-2h-3.12v-3.12Zm-19.77,51.76h-2v3.12h-3.12v2h3.12v3.12h2v-3.12h3.12v-2h-3.12v-3.12Zm1577.53,118.6h-2v3.12h-3.12v2h3.12v3.12h2v-3.12h3.12v-2h-3.12v-3.12Zm-172.37-90.6h2v-3.12h3.12v-2h-3.12v-3.12h-2v3.12h-3.12v2h3.12v3.12Zm-130.83-51.76h2v-3.12h3.12v-2h-3.12v-3.12h-2v3.12h-3.12v2h3.12v3.12Zm118.6,32h2v-3.12h3.12v-2h-3.12v-3.12h-2v3.12h-3.12v2h3.12v3.12Zm-118.6,0h2v-3.12h3.12v-2h-3.12v-3.12h-2v3.12h-3.12v2h3.12v3.12Zm39.54,39.54h2v-3.12h3.12v-2h-3.12v-3.12h-2v3.12h-3.12v2h3.12v3.12Zm-19.77-51.76h2v-3.12h3.12v-2h-3.12v-3.12h-2v3.12h-3.12v2h3.12v3.12Zm-1183.03,3.99h-2v3.12h-3.12v2h3.12v3.12h2v-3.12h3.12v-2h-3.12v-3.12Zm0,39.54h-2v3.12h-3.12v2h3.12v3.12h2v-3.12h3.12v-2h-3.12v-3.12Zm19.77-19.77h-2v3.12h-3.12v2h3.12v3.12h2v-3.12h3.12v-2h-3.12v-3.12Zm0,39.53h-2v3.12h-3.12v2h3.12v3.12h2v-3.12h3.12v-2h-3.12v-3.12Zm1183.03-51.06h2v-3.12h3.12v-2h-3.12v-3.12h-2v3.12h-3.12v2h3.12v3.12ZM326.01,114.7h-2v3.12h-3.12v2h3.12v3.12h2v-3.12h3.12v-2h-3.12v-3.12Zm1183.03,60h2v-3.12h3.12v-2h-3.12v-3.12h-2v3.12h-3.12v2h3.12v3.12Zm79.07-32h2v-3.12h3.12v-2h-3.12v-3.12h-2v3.12h-3.12v2h3.12v3.12Zm0,32h2v-3.12h3.12v-2h-3.12v-3.12h-2v3.12h-3.12v2h3.12v3.12Zm19.77,19.77h2v-3.12h3.12v-2h-3.12v-3.12h-2v3.12h-3.12v2h3.12v3.12Zm-889.37-60h-2v3.12h-3.12v2h3.12v3.12h2v-3.12h3.12v-2h-3.12v-3.12Zm869.6,79.76h2v-3.12h3.12v-2h-3.12v-3.12h-2v3.12h-3.12v2h3.12v3.12Zm-39.53-71.53h2v-3.12h3.12v-2h-3.12v-3.12h-2v3.12h-3.12v2h3.12v3.12Zm0,32h2v-3.12h3.12v-2h-3.12v-3.12h-2v3.12h-3.12v2h3.12v3.12Zm0,39.53h2v-3.12h3.12v-2h-3.12v-3.12h-2v3.12h-3.12v2h3.12v3.12Zm-19.77-91.3h2v-3.12h3.12v-2h-3.12v-3.12h-2v3.12h-3.12v2h3.12v3.12Zm39.53,32h2v-3.12h3.12v-2h-3.12v-3.12h-2v3.12h-3.12v2h3.12v3.12Zm0,39.54h2v-3.12h3.12v-2h-3.12v-3.12h-2v3.12h-3.12v2h3.12v3.12Zm-711.46-79.77h-2v3.12h-3.12v2h3.12v3.12h2v-3.12h3.12v-2h-3.12v-3.12Zm392.5,91.3h-2v3.12h-3.12v2h3.12v3.12h2v-3.12h3.12v-2h-3.12v-3.12Zm0,39.54h-2v3.12h-3.12v2h3.12v3.12h2v-3.12h3.12v-2h-3.12v-3.12Zm-511.1-59.3h-2v3.12h-3.12v2h3.12v3.12h2v-3.12h3.12v-2h-3.12v-3.12Zm491.33,0h-2v3.12h-3.12v2h3.12v3.12h2v-3.12h3.12v-2h-3.12v-3.12Zm39.53,39.53h-2v3.12h-3.12v2h3.12v3.12h2v-3.12h3.12v-2h-3.12v-3.12Zm-39.53,0h-2v3.12h-3.12v2h3.12v3.12h2v-3.12h3.12v-2h-3.12v-3.12Zm39.53-39.53h-2v3.12h-3.12v2h3.12v3.12h2v-3.12h3.12v-2h-3.12v-3.12Zm39.54,39.53h-2v3.12h-3.12v2h3.12v3.12h2v-3.12h3.12v-2h-3.12v-3.12Zm0-39.53h-2v3.12h-3.12v2h3.12v3.12h2v-3.12h3.12v-2h-3.12v-3.12Zm-19.77,19.76h-2v3.12h-3.12v2h3.12v3.12h2v-3.12h3.12v-2h-3.12v-3.12Zm0-39.53h-2v3.12h-3.12v2h3.12v3.12h2v-3.12h3.12v-2h-3.12v-3.12Zm-79.07,39.53h-2v3.12h-3.12v2h3.12v3.12h2v-3.12h3.12v-2h-3.12v-3.12Zm-19.77,19.77h-2v3.12h-3.12v2h3.12v3.12h2v-3.12h3.12v-2h-3.12v-3.12Zm-51.76-19.77h-2v3.12h-3.12v2h3.12v3.12h2v-3.12h3.12v-2h-3.12v-3.12Zm19.77,19.77h-2v3.12h-3.12v2h3.12v3.12h2v-3.12h3.12v-2h-3.12v-3.12Zm0,39.54h-2v3.12h-3.12v2h3.12v3.12h2v-3.12h3.12v-2h-3.12v-3.12Zm-19.77-19.77h-2v3.12h-3.12v2h3.12v3.12h2v-3.12h3.12v-2h-3.12v-3.12Zm-19.77-59.3h-2v3.12h-3.12v2h3.12v3.12h2v-3.12h3.12v-2h-3.12v-3.12Zm0,39.53h-2v3.12h-3.12v2h3.12v3.12h2v-3.12h3.12v-2h-3.12v-3.12Zm51.76-19.77h-2v3.12h-3.12v2h3.12v3.12h2v-3.12h3.12v-2h-3.12v-3.12Zm-51.76,59.3h-2v3.12h-3.12v2h3.12v3.12h2v-3.12h3.12v-2h-3.12v-3.12Zm190.13-118.6h-2v3.12h-3.12v2h3.12v3.12h2v-3.12h3.12v-2h-3.12v-3.12Zm-118.6,39.54h-2v3.12h-3.12v2h3.12v3.12h2v-3.12h3.12v-2h-3.12v-3.12Zm0,79.07h-2v3.12h-3.12v2h3.12v3.12h2v-3.12h3.12v-2h-3.12v-3.12Zm19.77-19.77h-2v3.12h-3.12v2h3.12v3.12h2v-3.12h3.12v-2h-3.12v-3.12Zm-39.54,0h-2v3.12h-3.12v2h3.12v3.12h2v-3.12h3.12v-2h-3.12v-3.12Zm269.2-79.07h-2v3.12h-3.12v2h3.12v3.12h2v-3.12h3.12v-2h-3.12v-3.12Zm-19.77-51.76h-2v3.12h-3.12v2h3.12v3.12h2v-3.12h3.12v-2h-3.12v-3.12Zm-98.84,91.3h-2v3.12h-3.12v2h3.12v3.12h2v-3.12h3.12v-2h-3.12v-3.12Zm118.6-111.06h-2v3.12h-3.12v2h3.12v3.12h2v-3.12h3.12v-2h-3.12v-3.12Zm-19.77,91.3h-2v3.12h-3.12v2h3.12v3.12h2v-3.12h3.12v-2h-3.12v-3.12Zm0-39.54h-2v3.12h-3.12v2h3.12v3.12h2v-3.12h3.12v-2h-3.12v-3.12Zm51.76-51.76h-2v3.12h-3.12v2h3.12v3.12h2v-3.12h3.12v-2h-3.12v-3.12Zm0,39.54h-2v3.12h-3.12v2h3.12v3.12h2v-3.12h3.12v-2h-3.12v-3.12Zm-71.53,0h-2v3.12h-3.12v2h3.12v3.12h2v-3.12h3.12v-2h-3.12v-3.12Zm71.53,32h-2v3.12h-3.12v2h3.12v3.12h2v-3.12h3.12v-2h-3.12v-3.12Zm-12.23-19.77h-2v3.12h-3.12v2h3.12v3.12h2v-3.12h3.12v-2h-3.12v-3.12Zm0-32h-2v3.12h-3.12v2h3.12v3.12h2v-3.12h3.12v-2h-3.12v-3.12Zm-19.77,19.77h-2v3.12h-3.12v2h3.12v3.12h2v-3.12h3.12v-2h-3.12v-3.12Zm-98.84,12.23h-2v3.12h-3.12v2h3.12v3.12h2v-3.12h3.12v-2h-3.12v-3.12Zm19.77,59.3h-2v3.12h-3.12v2h3.12v3.12h2v-3.12h3.12v-2h-3.12v-3.12Zm-19.77-19.76h-2v3.12h-3.12v2h3.12v3.12h2v-3.12h3.12v-2h-3.12v-3.12Zm-19.77-51.76h-2v3.12h-3.12v2h3.12v3.12h2v-3.12h3.12v-2h-3.12v-3.12Zm0,32h-2v3.12h-3.12v2h3.12v3.12h2v-3.12h3.12v-2h-3.12v-3.12Zm39.54-32h-2v3.12h-3.12v2h3.12v3.12h2v-3.12h3.12v-2h-3.12v-3.12Zm19.77,12.23h-2v3.12h-3.12v2h3.12v3.12h2v-3.12h3.12v-2h-3.12v-3.12Zm-19.77,19.77h-2v3.12h-3.12v2h3.12v3.12h2v-3.12h3.12v-2h-3.12v-3.12Zm19.77-51.76h-2v3.12h-3.12v2h3.12v3.12h2v-3.12h3.12v-2h-3.12v-3.12Zm0,71.53h-2v3.12h-3.12v2h3.12v3.12h2v-3.12h3.12v-2h-3.12v-3.12Zm19.77-19.77h-2v3.12h-3.12v2h3.12v3.12h2v-3.12h3.12v-2h-3.12v-3.12Zm-150.6,0h-2v3.12h-3.12v2h3.12v3.12h2v-3.12h3.12v-2h-3.12v-3.12Zm-412.27-71.53h-2v3.12h-3.12v2h3.12v3.12h2v-3.12h3.12v-2h-3.12v-3.12Zm19.77,51.76h-2v3.12h-3.12v2h3.12v3.12h2v-3.12h3.12v-2h-3.12v-3.12Zm12.23-12.23h-2v3.12h-3.12v2h3.12v3.12h2v-3.12h3.12v-2h-3.12v-3.12Zm0,32h-2v3.12h-3.12v2h3.12v3.12h2v-3.12h3.12v-2h-3.12v-3.12Zm39.54-32h-2v3.12h-3.12v2h3.12v3.12h2v-3.12h3.12v-2h-3.12v-3.12Zm-71.53,0h-2v3.12h-3.12v2h3.12v3.12h2v-3.12h3.12v-2h-3.12v-3.12Zm51.76,12.23h-2v3.12h-3.12v2h3.12v3.12h2v-3.12h3.12v-2h-3.12v-3.12Zm0-32h-2v3.12h-3.12v2h3.12v3.12h2v-3.12h3.12v-2h-3.12v-3.12Zm-19.77-19.77h-2v3.12h-3.12v2h3.12v3.12h2v-3.12h3.12v-2h-3.12v-3.12Zm39.54,71.53h-2v3.12h-3.12v2h3.12v3.12h2v-3.12h3.12v-2h-3.12v-3.12Zm-91.3-51.76h-2v3.12h-3.12v2h3.12v3.12h2v-3.12h3.12v-2h-3.12v-3.12Zm71.53,71.53h-2v3.12h-3.12v2h3.12v3.12h2v-3.12h3.12v-2h-3.12v-3.12Zm-51.76-19.77h-2v3.12h-3.12v2h3.12v3.12h2v-3.12h3.12v-2h-3.12v-3.12Zm-79.07,0h-2v3.12h-3.12v2h3.12v3.12h2v-3.12h3.12v-2h-3.12v-3.12Zm0-32h-2v3.12h-3.12v2h3.12v3.12h2v-3.12h3.12v-2h-3.12v-3.12Zm19.77,51.76h-2v3.12h-3.12v2h3.12v3.12h2v-3.12h3.12v-2h-3.12v-3.12Zm-19.77,19.76h-2v3.12h-3.12v2h3.12v3.12h2v-3.12h3.12v-2h-3.12v-3.12Zm59.3-59.3h-2v3.12h-3.12v2h3.12v3.12h2v-3.12h3.12v-2h-3.12v-3.12Zm-79.07,0h-2v3.12h-3.12v2h3.12v3.12h2v-3.12h3.12v-2h-3.12v-3.12Zm59.3-12.23h-2v3.12h-3.12v2h3.12v3.12h2v-3.12h3.12v-2h-3.12v-3.12Zm19.77,51.76h-2v3.12h-3.12v2h3.12v3.12h2v-3.12h3.12v-2h-3.12v-3.12Zm-39.53-71.53h-2v3.12h-3.12v2h3.12v3.12h2v-3.12h3.12v-2h-3.12v-3.12Zm19.77,51.76h-2v3.12h-3.12v2h3.12v3.12h2v-3.12h3.12v-2h-3.12v-3.12Zm-19.77-19.77h-2v3.12h-3.12v2h3.12v3.12h2v-3.12h3.12v-2h-3.12v-3.12Zm320.97,59.3h-2v3.12h-3.12v2h3.12v3.12h2v-3.12h3.12v-2h-3.12v-3.12Zm-59.3,19.77h-2v3.12h-3.12v2h3.12v3.12h2v-3.12h3.12v-2h-3.12v-3.12Zm19.77,19.77h-2v3.12h-3.12v2h3.12v3.12h2v-3.12h3.12v-2h-3.12v-3.12Zm-39.54-79.07h-2v3.12h-3.12v2h3.12v3.12h2v-3.12h3.12v-2h-3.12v-3.12Zm19.77,19.77h-2v3.12h-3.12v2h3.12v3.12h2v-3.12h3.12v-2h-3.12v-3.12Zm-19.77,19.76h-2v3.12h-3.12v2h3.12v3.12h2v-3.12h3.12v-2h-3.12v-3.12Zm-12.23-59.3h-2v3.12h-3.12v2h3.12v3.12h2v-3.12h3.12v-2h-3.12v-3.12Zm-79.07,39.54h-2v3.12h-3.12v2h3.12v3.12h2v-3.12h3.12v-2h-3.12v-3.12Zm79.07,0h-2v3.12h-3.12v2h3.12v3.12h2v-3.12h3.12v-2h-3.12v-3.12Zm91.3,59.3h-2v3.12h-3.12v2h3.12v3.12h2v-3.12h3.12v-2h-3.12v-3.12Zm-19.77-19.77h-2v3.12h-3.12v2h3.12v3.12h2v-3.12h3.12v-2h-3.12v-3.12Zm-19.77-59.3h-2v3.12h-3.12v2h3.12v3.12h2v-3.12h3.12v-2h-3.12v-3.12Zm0,39.53h-2v3.12h-3.12v2h3.12v3.12h2v-3.12h3.12v-2h-3.12v-3.12Zm19.77-19.76h-2v3.12h-3.12v2h3.12v3.12h2v-3.12h3.12v-2h-3.12v-3.12Zm-130.83,19.76h-2v3.12h-3.12v2h3.12v3.12h2v-3.12h3.12v-2h-3.12v-3.12Zm0-39.53h-2v3.12h-3.12v2h3.12v3.12h2v-3.12h3.12v-2h-3.12v-3.12Zm-19.77-19.77h-2v3.12h-3.12v2h3.12v3.12h2v-3.12h3.12v-2h-3.12v-3.12Zm0-32h-2v3.12h-3.12v2h3.12v3.12h2v-3.12h3.12v-2h-3.12v-3.12Zm19.77,19.77h-2v3.12h-3.12v2h3.12v3.12h2v-3.12h3.12v-2h-3.12v-3.12Zm19.76,12.23h-2v3.12h-3.12v2h3.12v3.12h2v-3.12h3.12v-2h-3.12v-3.12Zm19.77-12.23h-2v3.12h-3.12v2h3.12v3.12h2v-3.12h3.12v-2h-3.12v-3.12Zm0,32h-2v3.12h-3.12v2h3.12v3.12h2v-3.12h3.12v-2h-3.12v-3.12Zm19.77,59.3h-2v3.12h-3.12v2h3.12v3.12h2v-3.12h3.12v-2h-3.12v-3.12Zm-39.54-39.53h-2v3.12h-3.12v2h3.12v3.12h2v-3.12h3.12v-2h-3.12v-3.12Zm19.77,19.76h-2v3.12h-3.12v2h3.12v3.12h2v-3.12h3.12v-2h-3.12v-3.12Zm854.44,61c-4.35,19.08-19.01,38.35-37.37,49.09-16.42,9.61-43.61,15.33-63.83,7.68l-280.6-106.17c-20.37,7.87-41.04,15.56-61.08,23.01-13.37,4.97-27.19,10.11-40.73,15.23l-156.62,59.26c-2.04.77-4.06,1.56-6.06,2.35-12.24,4.79-25.61,10.02-40.89,10.02-6.86,0-14.1-1.05-21.8-3.67-8.47-2.88-16.79-6.14-24.84-9.29-3.89-1.52-7.92-3.1-11.84-4.58l-244.02-92.33c-20.37,7.87-41.04,15.56-61.08,23.01-13.37,4.97-27.19,10.11-40.72,15.23l-156.62,59.26c-2.04.77-4.06,1.56-6.06,2.35-17.73,6.94-37.82,14.8-62.69,6.35-8.47-2.88-16.8-6.14-24.85-9.29-3.89-1.52-7.91-3.1-11.83-4.58l-267.36-101.16c-21.27-8.05-35.62-19.18-46.53-36.1-2.28-3.53-4.19-7.3-5.78-11.24-6.25-11.35-9.82-24.38-9.82-38.23,0-43.85,35.67-79.52,79.52-79.52,19.29,0,37,6.91,50.78,18.38l258.37,97.76c20.38-7.87,41.04-15.56,61.09-23.01,13.36-4.97,27.18-10.11,40.72-15.23l156.62-59.26c2.04-.77,4.06-1.56,6.07-2.35,17.73-6.94,37.82-14.8,62.69-6.35,8.47,2.88,16.79,6.13,24.83,9.28,3.9,1.52,7.92,3.1,11.85,4.58l244.02,92.33c20.38-7.88,41.05-15.56,61.1-23.02,13.36-4.97,27.17-10.11,40.7-15.22l156.62-59.26c2.04-.77,4.06-1.56,6.07-2.35,17.73-6.94,37.82-14.8,62.69-6.35,8.47,2.88,16.79,6.14,24.84,9.29,3.89,1.52,7.92,3.1,11.84,4.58l267.37,101.16c.87.33,1.7.67,2.55,1.01,18.99,6.12,34.88,19.19,44.66,36.22,10.34,16.77,13.21,38.41,8.04,61.12Zm-31.45-13.22h-.46v-3.12h-3.12v-2h3.12v-3.12h1.23c0-.06,0-.12,0-.18,0-25.56-20.79-46.35-46.35-46.35-8.97,0-17.34,2.57-24.44,6.99h.02v3.12h3.12v2h-3.12v3.12h-2v-3.12h-3.12v-1.45c-6.11,5.07-10.9,11.67-13.78,19.22h2.24v2h-2.95c-.05.16-.11.32-.17.49v2.63h-.75c-.92,3.64-1.41,7.44-1.41,11.35,0,25.56,20.79,46.35,46.35,46.35,1.89,0,3.75-.13,5.58-.35v-1.17h-3.12v-2h3.12v-3.12h2v3.12h3.12v2h-3.12v.89c19.22-3.17,34.48-18.21,37.99-37.31Zm-71.99-44.65v-1.81c-.83.58-1.64,1.18-2.43,1.81h2.43Zm-96.84-59.3h1.53l-1.53-.58v.58Zm-1356.87-26.62c0-.09,0-.17,0-.26h-.52v-3.12h-3.12v-2h3.12v-1.59c-2.47-16.32-13.49-29.87-28.33-35.94h-1.67v3.12h-2v-3.12h-3.12v-2h.77c-3.67-.94-7.52-1.44-11.48-1.44-8.66,0-16.76,2.39-23.71,6.54v.02h-.03c-13.53,8.1-22.61,22.9-22.61,39.79,0,3.89.49,7.66,1.39,11.28h1.49v3.12h3.12v2h-2.99c5.96,15.71,20.22,27.35,37.41,29.56v-2.68h2v2.9c1.3.11,2.61.18,3.94.18,25.56,0,46.35-20.79,46.35-46.35Zm-2.29,66.16h1.77v-1.23c-.59.41-1.17.83-1.77,1.23Zm20.47-19.77h1.07v-1.5c-.35.51-.71,1-1.07,1.5Zm1162.97,14.74l23.12,8.75v-1.72h-3.12v-2h3.12v-3.12h2v3.12h3.12v2h-3.12v2.48l188.89,71.47h1.24v.47l7.7,2.91c-2.27-7.38-3.5-15.21-3.5-23.33,0-27.56,14.1-51.88,35.46-66.16l-19.89-7.53v3.03h-2v-3.12h-3.12v-1.85l-51.07-19.32v1.4h-3.12v3.12h-2v-3.12h-3.12v-2h3.12v-1.34l-17.77-6.72v.95h-2v-1.71l-49.76-18.83v.77h-2v-1.52l-56.46-21.36h-.84v3.12h-2v-3.12h-3.12v-2h.69c-3.71-1.41-7.42-2.86-11.01-4.27-8.06-3.15-15.67-6.13-23.42-8.77-4.48-1.52-8.65-2.06-12.91-1.85v.23h-2v-.08c-7.26.75-14.95,3.59-25.02,7.53-2.12.83-4.26,1.67-6.42,2.48l-25.86,9.78v.05h-.13l-127.58,48.27v.37h-.98l-2.06.78s-.05.02-.08.03v2.31h-2v-1.56c-12.95,4.89-26.08,9.78-38.8,14.51-21.89,8.14-44.52,16.55-66.57,25.14-1.2.47-2.44.77-3.69.95v.49h-2v-.32c-2.1.04-4.2-.31-6.2-1.06l-51.1-19.34v.95h-2v-1.71l-55.97-21.18h-1.34v3.12h-2v-3.12h-3.12v-2h1.17l-126.88-48.01v1.36h-2v-2.12l-2.64-1h-.48v-.18l-3.61-1.37c-4.1-1.55-8.22-3.16-12.2-4.72-8.05-3.15-15.66-6.13-23.42-8.77-2.55-.87-5-1.41-7.42-1.68v.07h-2v-.24c-8.99-.47-17.88,2.75-30.5,7.69-2.12.83-4.26,1.67-6.42,2.48l-17.26,6.53v.19h-.49l-2.62.99v2.12h-2v-1.37l-126.89,48.01h1.18v2h-3.12v3.12h-2v-3.12h-1.34l-2.06.78c-13.62,5.15-27.48,10.31-40.89,15.3-3.28,1.22-6.58,2.45-9.89,3.68h0s-.04.01-.04.01c-1.03.38-2.05.77-3.08,1.15v1.97h-2v-1.22c-15.48,5.77-31.18,11.67-46.65,17.65v.22h-.57c-.85.33-1.7.66-2.55.99v2.13h-2v-1.37c-3.76,1.41-7.91,1.41-11.67-.02l-104.93-39.7v1.55h-2v-2.31l-2.14-.81h-.98v-.37l-115.29-43.62c.98,4.98,1.5,10.11,1.5,15.37,0,15.95-4.74,30.81-12.86,43.27h.93v3.12h3.12v2h-3.12v3.12h-2v-3.12h-2.55c-4.37,5.68-9.49,10.77-15.21,15.09v2.67h3.12v2h-3.12v3.12h-2v-3.12h-3.12v-1.13c-1.97,1.26-4,2.43-6.08,3.52l88.26,33.4v-1.37h2v2.13l2.62.99h.5v.19l46.65,17.65v-1.19h2v1.95l3.1,1.17h.02s52.22,19.77,52.22,19.77h1.96v-3.12h2v3.12h3.12v2h-1.79l22.42,8.48c4.1,1.55,8.21,3.16,12.19,4.72,7.34,2.87,14.32,5.59,21.37,8.05v-1.48h-3.12v-2h3.12v-3.12h2v3.12h3.12v2h-3.12v2.18s.04.01.06.02c10.05,3.42,18.53,1.94,29.94-2.07v-.13h-3.12v-2h3.12v-3.12h2v3.12h3.12v.25c1.57-.6,3.18-1.22,4.88-1.88,2.12-.83,4.26-1.67,6.41-2.48l39.78-15.05v-.6h1.59l1.52-.58v-2.54h2v1.78l109.06-41.27v-.05h.14l2.52-.95c13.62-5.15,27.49-10.31,40.9-15.3,21.88-8.14,44.5-16.55,66.55-25.14,1.93-.75,3.98-1.13,6.02-1.13s3.98.36,5.87,1.07l109.52,41.44h.15v.06l109.07,41.27v-1.79h2v2.55l1.51.57h1.6v.61l26.1,9.88c4.1,1.55,8.21,3.16,12.19,4.72,4.36,1.71,8.58,3.35,12.77,4.93v-.36h3.12v-3.12h2v3.12h3.12v2h-3.12v.26c1.84.67,3.69,1.32,5.54,1.95,8.37,2.85,15.66,2.29,24.46-.3v-1.91h-3.12v-2h3.12v-3.12h2v3.12h3.12v2h-3.12v1.3c4.07-1.3,8.47-2.97,13.47-4.93,2.12-.83,4.26-1.67,6.41-2.48l36.09-13.65h-1.79v-2h3.12v-3.12h2v3.12h1.95l52.23-19.76h0s.02,0,.02,0l3.1-1.17v-1.94h2v1.19l46.65-17.65v-.19h.5l2.62-.99v-2.13h2v1.37l6.14-2.32c13.62-5.15,27.49-10.31,40.9-15.3,21.88-8.14,44.5-16.55,66.55-25.13,3.82-1.49,8.05-1.51,11.89-.06Z"/>
    </g>
  </g>
</svg>