<?xml version="1.0" encoding="iso-8859-1"?><!-- Generator: Adobe Illustrator 22.1.0, SVG Export Plug-In . SVG Version: 6.00 Build 0)  --><svg xmlns="http://www.w3.org/2000/svg" xmlns:xlink="http://www.w3.org/1999/xlink" viewBox="0 0 64 64" width="64px" height="64px"><ellipse style="fill:none;stroke:#000000;stroke-miterlimit:10;" cx="32" cy="32.174" rx="31" ry="18.174"/><path d="M42.435,26.435l-2.733,14.826h3.566l0.71-4.043h2.219c4.645,0,7.172-1.076,8.117-5.062c0.813-3.425-1.264-5.72-4.69-5.72H42.435z M46.786,34.522h-2.305l1.018-5.391h2.778c2.302,0,2.786,1.038,2.666,2.193C50.634,34.297,48.78,34.522,46.786,34.522z"/><path d="M14.13,26.435l-2.733,14.826h3.566l0.71-4.043h2.219c4.645,0,7.172-1.076,8.117-5.062c0.813-3.425-1.264-5.72-4.69-5.72H14.13z M18.481,34.522h-2.305l1.018-5.391h2.778c2.302,0,2.786,1.038,2.666,2.193C22.329,34.297,20.476,34.522,18.481,34.522z"/><path d="M39.311,27.415c-0.762-0.698-2.104-0.98-4.105-0.98h-3.153l1.124-5.391H29.64l-3.379,16.174h3.538l1.706-8.087h2.828c0.902,0,1.497,0.151,1.775,0.449c0.276,0.301,0.337,0.867,0.177,1.686l-1.291,5.952h3.593l1.399-6.44C40.286,29.234,40.059,28.102,39.311,27.415z"/><ellipse style="fill:none;stroke:#000000;stroke-width:2;stroke-miterlimit:10;" cx="32" cy="32.174" rx="31" ry="18.174"/><g><g><line style="fill:none;stroke:#000000;stroke-width:2;stroke-linecap:round;stroke-miterlimit:10;" x1="58.693" y1="49.667" x2="57.618" y2="47.98"/></g><g><line style="fill:none;stroke:#000000;stroke-width:2;stroke-linecap:round;stroke-miterlimit:10;" x1="54.446" y1="52.004" x2="53.592" y2="50.195"/></g><g><line style="fill:none;stroke:#000000;stroke-width:2;stroke-linecap:round;stroke-miterlimit:10;" x1="49.969" y1="53.817" x2="49.315" y2="51.927"/></g><g><line style="fill:none;stroke:#000000;stroke-width:2;stroke-linecap:round;stroke-miterlimit:10;" x1="45.344" y1="55.171" x2="44.875" y2="53.227"/></g><g><line style="fill:none;stroke:#000000;stroke-width:2;stroke-linecap:round;stroke-miterlimit:10;" x1="40.622" y1="56.093" x2="40.327" y2="54.114"/></g><g><line style="fill:none;stroke:#000000;stroke-width:2;stroke-linecap:round;stroke-miterlimit:10;" x1="35.841" y1="56.595" x2="35.712" y2="54.599"/></g></g><path style="fill:none;stroke:#000000;stroke-width:2;stroke-linecap:round;stroke-miterlimit:10;" d="M21.863,20.161c1.276-0.317,2.652-0.597,4.137-0.828"/><path style="fill:none;stroke:#000000;stroke-width:2;stroke-linecap:round;stroke-miterlimit:10;" d="M7,29c0,0,2.486-4.558,10.89-7.631"/></svg>