<?xml version="1.0" encoding="iso-8859-1"?><!-- Generator: Adobe Illustrator 21.1.0, SVG Export Plug-In . SVG Version: 6.00 Build 0)  --><svg xmlns="http://www.w3.org/2000/svg" xmlns:xlink="http://www.w3.org/1999/xlink" viewBox="0 0 64 64" width="64px" height="64px"><g id="Layer_1"><g><path d="M55.028,16.78c-0.073-0.154-0.152-0.301-0.24-0.44c-0.182-0.287-0.402-0.542-0.637-0.781C48.853,8.544,40.448,4,31,4C19.901,4,10.243,10.271,5.37,19.452c-0.018,0.034-0.038,0.066-0.052,0.102C3.203,23.576,2,28.149,2,33c0,12.578,8.052,23.307,19.27,27.316c0.039,0.015,0.076,0.029,0.116,0.039C24.397,61.416,27.631,62,31,62c15.99,0,29-13.01,29-29C60,26.996,58.166,21.413,55.028,16.78z M31,6c7.479,0,14.255,3.058,19.15,7.987c-0.354,0.003-0.712,0.024-1.076,0.088c-2.549,0.443-4.488,2.312-5.062,4.875c-0.628,2.806,0.489,4.986,1.569,7.095c1.109,2.164,2.156,4.208,1.344,6.883l-3.688,9.462L35.452,22H37c0.553,0,1-0.447,1-1s-0.447-1-1-1h-2.966c0,0-0.001,0-0.001,0L23,20c-0.553,0-1,0.447-1,1s0.447,1,1,1h1.981l3.602,9.241l-4.346,11.148L16.452,22H19c0.553,0,1-0.447,1-1s-0.447-1-1-1h-3.966c0,0-0.001,0-0.001,0l-7.685,0l-0.001-0.003C11.948,11.661,20.824,6,31,6z M4,33c0-3.745,0.768-7.314,2.153-10.56l13.698,35.14C10.512,53.328,4,43.913,4,33z M31,60c-2.604,0-5.12-0.378-7.505-1.069l7.941-20.371l7.849,20.134C36.673,59.539,33.89,60,31,60z M32.368,35.443c-0.003-0.007-0.009-0.011-0.011-0.018c-0.031-0.075-0.083-0.138-0.131-0.204c-0.029-0.039-0.049-0.086-0.083-0.121c-0.038-0.038-0.091-0.061-0.135-0.094c-0.062-0.044-0.12-0.093-0.19-0.122c-0.006-0.003-0.01-0.008-0.017-0.011c-0.048-0.019-0.097-0.015-0.145-0.026c-0.073-0.017-0.143-0.038-0.219-0.038c-0.076,0-0.147,0.022-0.22,0.039c-0.048,0.011-0.096,0.007-0.143,0.025c-0.006,0.003-0.01,0.008-0.017,0.011c-0.073,0.03-0.134,0.08-0.198,0.127c-0.042,0.031-0.091,0.052-0.128,0.088c-0.036,0.036-0.057,0.085-0.087,0.126c-0.047,0.065-0.098,0.125-0.128,0.199c-0.003,0.007-0.009,0.011-0.011,0.018l-8.569,21.98L8.127,22h6.184l8.982,23.524c0.004,0.009,0.011,0.016,0.014,0.025c0.012,0.029,0.031,0.052,0.045,0.079c0.042,0.079,0.089,0.151,0.148,0.214c0.026,0.028,0.054,0.052,0.083,0.077c0.068,0.058,0.142,0.105,0.223,0.143c0.021,0.01,0.035,0.028,0.057,0.036c0.01,0.004,0.021,0.002,0.032,0.006c0.106,0.038,0.217,0.062,0.331,0.062c0.112,0,0.221-0.023,0.326-0.06c0.01-0.003,0.021-0.002,0.031-0.006c0.022-0.008,0.036-0.026,0.057-0.036c0.082-0.037,0.156-0.084,0.226-0.143c0.029-0.025,0.057-0.048,0.083-0.076c0.059-0.062,0.107-0.134,0.149-0.212c0.015-0.028,0.035-0.052,0.047-0.081c0.004-0.009,0.01-0.015,0.014-0.024l5.408-13.874c0.004-0.009,0.007-0.018,0.01-0.027l0.01-0.026c0.011-0.028,0.007-0.057,0.015-0.085c0.027-0.092,0.05-0.184,0.049-0.282c0-0.067-0.02-0.129-0.034-0.194c-0.011-0.054-0.007-0.108-0.028-0.161L27.128,22h6.184l8.982,23.524c0.004,0.009,0.011,0.016,0.014,0.025c0.012,0.029,0.031,0.052,0.045,0.079c0.042,0.079,0.089,0.151,0.148,0.214c0.026,0.028,0.054,0.052,0.083,0.077c0.068,0.058,0.142,0.105,0.223,0.143c0.021,0.01,0.035,0.028,0.057,0.036c0.01,0.004,0.021,0.002,0.031,0.005c0.107,0.038,0.218,0.063,0.333,0.063c0.004,0,0.008-0.002,0.011-0.002c0.052-0.001,0.099-0.019,0.149-0.027c0.065-0.011,0.131-0.011,0.196-0.036c0.008-0.003,0.012-0.009,0.02-0.012c0.071-0.029,0.13-0.077,0.193-0.122c0.044-0.032,0.096-0.055,0.134-0.093c0.037-0.037,0.06-0.086,0.091-0.129c0.046-0.063,0.095-0.123,0.125-0.195c0.003-0.008,0.01-0.012,0.013-0.02l4.654-11.948c1.074-3.521-0.268-6.14-1.451-8.45c-1.002-1.956-1.868-3.646-1.398-5.745c0.399-1.786,1.69-3.035,3.454-3.343c1.262-0.219,2.454,0.108,3.228,0.835c0.204,0.273,0.4,0.553,0.593,0.834c1.488,3.194-1.438,12.436-3.735,17.729l-8.569,21.98L32.368,35.443z M43.223,57.063l8.13-20.858c0.484-1.114,3.649-8.581,4.206-14.401C57.122,25.217,58,29.007,58,33C58,43.49,51.983,52.595,43.223,57.063z"/><path d="M31.012,13c0.553,0,1-0.447,1-1v-2c0-0.553-0.447-1-1-1s-1,0.447-1,1v2C30.012,12.553,30.459,13,31.012,13z"/><path d="M24.999,12.923c0.119,0.447,0.523,0.741,0.965,0.741c0.086,0,0.173-0.011,0.26-0.034c0.533-0.143,0.85-0.691,0.707-1.225l-0.518-1.932c-0.142-0.534-0.689-0.85-1.225-0.707c-0.533,0.143-0.85,0.691-0.707,1.225L24.999,12.923z"/><path d="M40.262,15.479c0.157,0.091,0.329,0.134,0.499,0.134c0.346,0,0.682-0.179,0.867-0.5l1-1.731c0.276-0.479,0.112-1.09-0.366-1.366c-0.478-0.276-1.09-0.113-1.366,0.366l-1,1.731C39.619,14.591,39.783,15.202,40.262,15.479z"/><path d="M20.396,15.112c0.186,0.321,0.521,0.5,0.867,0.5c0.17,0,0.342-0.043,0.499-0.134c0.479-0.276,0.643-0.888,0.366-1.366l-1-1.731c-0.277-0.479-0.89-0.643-1.366-0.366c-0.479,0.276-0.643,0.888-0.366,1.366L20.396,15.112z"/><path d="M35.8,13.63c0.087,0.023,0.174,0.034,0.26,0.034c0.441,0,0.846-0.294,0.965-0.741l0.518-1.932c0.143-0.533-0.174-1.082-0.707-1.225c-0.531-0.142-1.082,0.173-1.225,0.707l-0.518,1.932C34.95,12.938,35.267,13.487,35.8,13.63z"/></g></g><g id="&#x421;&#x43B;&#x43E;&#x439;_2"></g><g id="&#x421;&#x43B;&#x43E;&#x439;_3"></g><g id="&#x421;&#x43B;&#x43E;&#x439;_4"></g><g id="&#x421;&#x43B;&#x43E;&#x439;_5"></g></svg>