<svg aria-hidden="true"  xmlns="http://www.w3.org/2000/svg"  xmlns:xlink="http://www.w3.org/1999/xlink">
    <defs>
        <symbol id='icon-js90s' viewBox="0 0 64 64">
            <path fill="#f6d397" d="M5.015,7.244l5.466,45.246c0.194,1.603,1.337,2.935,2.9,3.379l17.535,4.977	c0.709,0.201,1.46,0.206,2.172,0.013l18.442-4.996c1.614-0.437,2.789-1.817,2.955-3.471l4.549-45.187C59.153,6.024,58.22,5,57.025,5	H7.019C5.809,5,4.87,6.051,5.015,7.244z"/><path fill="#f9e3ae" d="M52.357,10H32v46c0.298,0.002,0.595-0.039,0.885-0.123l15.002-4.371	c1.313-0.382,2.269-1.59,2.404-3.037l3.701-36.539C54.088,10.896,53.329,10,52.357,10z"/><path fill="#8d6c9f" d="M32.025,62c-0.465,0-0.93-0.064-1.382-0.191l-17.536-4.978c-1.956-0.556-3.377-2.213-3.619-4.221	L4.021,7.364c-0.103-0.85,0.165-1.705,0.733-2.347C5.328,4.371,6.153,4,7.019,4h50.007c0.854,0,1.672,0.363,2.244,0.995	c0.567,0.628,0.845,1.47,0.76,2.311L55.48,52.492c-0.206,2.051-1.688,3.794-3.688,4.336L33.35,61.824	C32.916,61.941,32.471,62,32.025,62z M7.019,6c-0.298,0-0.57,0.122-0.767,0.344C6.06,6.561,5.973,6.838,6.008,7.124l0,0	l5.467,45.246c0.146,1.206,1.001,2.202,2.18,2.537l17.535,4.977c0.533,0.152,1.103,0.155,1.637,0.009l18.442-4.996	c1.205-0.326,2.098-1.374,2.222-2.605l4.549-45.187c0.028-0.284-0.062-0.557-0.253-0.769C57.59,6.119,57.319,6,57.025,6H7.019z"/><path fill="#8d6c9f" d="M57,12c-0.553,0-1-0.448-1-1V9c0-0.552,0.447-1,1-1s1,0.448,1,1v2C58,11.552,57.553,12,57,12z M52,12	c-0.553,0-1-0.448-1-1V9c0-0.552,0.447-1,1-1s1,0.448,1,1v2C53,11.552,52.553,12,52,12z M47,12c-0.553,0-1-0.448-1-1V9	c0-0.552,0.447-1,1-1s1,0.448,1,1v2C48,11.552,47.553,12,47,12z M42,12c-0.553,0-1-0.448-1-1V9c0-0.552,0.447-1,1-1s1,0.448,1,1v2	C43,11.552,42.553,12,42,12z M37,12c-0.553,0-1-0.448-1-1V9c0-0.552,0.447-1,1-1s1,0.448,1,1v2C38,11.552,37.553,12,37,12z M32,12	c-0.553,0-1-0.448-1-1V9c0-0.552,0.447-1,1-1s1,0.448,1,1v2C33,11.552,32.553,12,32,12z M27,12c-0.553,0-1-0.448-1-1V9	c0-0.552,0.447-1,1-1s1,0.448,1,1v2C28,11.552,27.553,12,27,12z M22,12c-0.553,0-1-0.448-1-1V9c0-0.552,0.447-1,1-1s1,0.448,1,1v2	C23,11.552,22.553,12,22,12z M17,12c-0.553,0-1-0.448-1-1V9c0-0.552,0.447-1,1-1s1,0.448,1,1v2C18,11.552,17.553,12,17,12z M12,12	c-0.553,0-1-0.448-1-1V9c0-0.552,0.447-1,1-1s1,0.448,1,1v2C13,11.552,12.553,12,12,12z M7,12c-0.553,0-1-0.448-1-1V9	c0-0.552,0.447-1,1-1s1,0.448,1,1v2C8,11.552,7.553,12,7,12z"/><path fill="#faefde" d="M24,19c0,8.333,0,16.667,0,25c-3-0.667-6-1.333-9-2c0.205,2,0.41,4,0.615,6	c4.462,1.272,8.923,2.543,13.385,3.815V19C27.333,19,25.667,19,24,19z"/><path fill="#faefde" d="M49.821,24.048L50.256,19C45.171,19,40.085,19,35,19c0,7.333,0,14.667,0,22	c2.982-0.689,5.964-1.378,8.946-2.066l-0.316,4.733C40.754,44.444,37.877,45.222,35,46c0,2,0,4,0,6	c4.244-1.219,8.488-2.437,12.732-3.656l1.33-15.461C46.042,33.255,43.021,33.628,40,34c0-3.333,0-6.667,0-10	C43.274,24.016,46.547,24.032,49.821,24.048z"/><path fill="#8d6c9f" d="M29,52.815c-0.092,0-0.184-0.013-0.274-0.038l-13.385-3.815c-0.394-0.112-0.679-0.453-0.721-0.86	l-0.615-6c-0.032-0.32,0.091-0.636,0.33-0.849c0.241-0.214,0.567-0.299,0.882-0.229L23,42.753V19c0-0.552,0.447-1,1-1h5	c0.553,0,1,0.448,1,1v32.815c0,0.313-0.147,0.609-0.397,0.798C29.427,52.746,29.215,52.815,29,52.815z M16.541,47.224L28,50.49V20	h-3v24c0,0.303-0.138,0.59-0.374,0.78c-0.237,0.19-0.546,0.262-0.843,0.196l-7.647-1.699L16.541,47.224z"/><path fill="#8d6c9f" d="M35,53c-0.215,0-0.426-0.069-0.602-0.201C34.147,52.61,34,52.314,34,52v-6	c0-0.452,0.303-0.848,0.739-0.965l7.94-2.147l0.179-2.677l-7.634,1.763c-0.293,0.071-0.607-0.001-0.847-0.191S34,41.305,34,41V19	c0-0.552,0.447-1,1-1h15.257c0.28,0,0.548,0.118,0.737,0.324c0.189,0.207,0.283,0.483,0.259,0.762l-0.436,5.048	c-0.044,0.519-0.521,0.946-1.001,0.914L41,25.005v7.864l7.94-0.979c0.296-0.036,0.599,0.063,0.816,0.272	c0.217,0.209,0.328,0.505,0.302,0.806l-1.33,15.461c-0.035,0.413-0.322,0.761-0.72,0.875l-12.732,3.655	C35.186,52.987,35.093,53,35,53z M36,46.766v3.907l10.795-3.1l1.165-13.546l-7.838,0.966c-0.281,0.034-0.569-0.054-0.784-0.244	S39,34.287,39,34V24c0-0.266,0.106-0.521,0.295-0.709s0.413-0.286,0.71-0.291l8.899,0.044L49.167,20H36v19.743l7.722-1.783	c0.307-0.073,0.632,0.007,0.873,0.213c0.241,0.205,0.37,0.512,0.35,0.828l-0.316,4.733c-0.028,0.426-0.325,0.787-0.737,0.898	L36,46.766z"/>
        </symbol>
        <symbol id='icon-css' viewBox="0 0 64 64" > 
            <path fill="#7bbeeb" d="M5.015,7.244l5.466,45.246c0.194,1.603,1.337,2.935,2.9,3.379l17.535,4.977 c0.709,0.201,1.46,0.206,2.172,0.013l18.442-4.996c1.614-0.437,2.789-1.817,2.955-3.471l4.549-45.187C59.153,6.024,58.22,5,57.025,5 H7.019C5.809,5,4.87,6.051,5.015,7.244z"/><path fill="#ace3ff" d="M57.025,5H32v56c0.366,0.002,0.732-0.045,1.088-0.141l18.442-4.996 c1.614-0.437,2.789-1.817,2.955-3.471l4.549-45.187C59.153,6.024,58.22,5,57.025,5z"/><path fill="#8d6c9f" d="M32.025,62c-0.465,0-0.931-0.064-1.383-0.192l-17.535-4.977c-1.955-0.555-3.376-2.211-3.62-4.221 L4.021,7.364c-0.103-0.85,0.165-1.705,0.733-2.347C5.328,4.371,6.153,4,7.02,4h50.006c0.854,0,1.672,0.362,2.244,0.995 c0.567,0.628,0.845,1.47,0.76,2.311L55.48,52.493c-0.208,2.052-1.69,3.794-3.69,4.334l-18.44,4.996 C32.916,61.941,32.471,62,32.025,62z M7.02,6C6.721,6,6.448,6.122,6.252,6.344C6.06,6.561,5.973,6.838,6.008,7.124l0,0l5.466,45.246 c0.146,1.207,1.002,2.203,2.18,2.537l17.536,4.977c0.535,0.151,1.1,0.155,1.637,0.01l18.441-4.996 c1.205-0.326,2.099-1.373,2.223-2.605l4.549-45.188c0.028-0.283-0.062-0.556-0.253-0.769C57.59,6.119,57.319,6,57.025,6H7.02z"/><path fill="#8d6c9f" d="M7 12c-.553 0-1-.447-1-1V9c0-.553.447-1 1-1s1 .447 1 1v2C8 11.553 7.553 12 7 12zM12 12c-.553 0-1-.447-1-1V9c0-.553.447-1 1-1s1 .447 1 1v2C13 11.553 12.553 12 12 12zM17 12c-.553 0-1-.447-1-1V9c0-.553.447-1 1-1s1 .447 1 1v2C18 11.553 17.553 12 17 12zM22 12c-.553 0-1-.447-1-1V9c0-.553.447-1 1-1s1 .447 1 1v2C23 11.553 22.553 12 22 12zM27 12c-.553 0-1-.447-1-1V9c0-.553.447-1 1-1s1 .447 1 1v2C28 11.553 27.553 12 27 12zM32 12c-.553 0-1-.447-1-1V9c0-.553.447-1 1-1s1 .447 1 1v2C33 11.553 32.553 12 32 12zM37 12c-.553 0-1-.447-1-1V9c0-.553.447-1 1-1s1 .447 1 1v2C38 11.553 37.553 12 37 12zM42 12c-.553 0-1-.447-1-1V9c0-.553.447-1 1-1s1 .447 1 1v2C43 11.553 42.553 12 42 12zM47 12c-.553 0-1-.447-1-1V9c0-.553.447-1 1-1s1 .447 1 1v2C48 11.553 47.553 12 47 12zM52 12c-.553 0-1-.447-1-1V9c0-.553.447-1 1-1s1 .447 1 1v2C53 11.553 52.553 12 52 12zM57 12c-.553 0-1-.447-1-1V9c0-.553.447-1 1-1s1 .447 1 1v2C58 11.553 57.553 12 57 12zM39.999 54.806c-.44 0-.844-.293-.964-.738-.145-.533.17-1.082.703-1.227l2-.542c.534-.146 1.083.17 1.227.703.145.533-.17 1.082-.703 1.227l-2 .542C40.174 54.795 40.086 54.806 39.999 54.806zM32.024 57.003l-5.298-1.504c-.531-.15-.84-.704-.688-1.235.15-.531.701-.842 1.235-.688l4.763 1.352 3.702-1.002c.534-.148 1.083.17 1.227.703.145.533-.17 1.083-.703 1.227L32.024 57.003z"/><path fill="#fff8f8" d="M15.5 30l1.238 2.262L19 33.5l-2.262 1.238L15.5 37l-1.238-2.262L12 33.5l2.262-1.238L15.5 30zM47.502 47l.876 1.61L50 49.502l-1.622.876L47.502 52l-.892-1.622L45 49.502l1.61-.892L47.502 47zM52.504 23l.531.962L54 24.498l-.966.529L52.504 26l-.538-.973L51 24.498l.966-.536L52.504 23z"/><path fill="#faefde" d="M47.018,17H17c-0.614,0-1.083,0.548-0.987,1.155L16.776,23h24.598l-0.709,6H25v6h14.956l-0.901,7.625 l-6.961,2.122l-6.147-2.082l-0.444-2.821C25.426,39.358,25.007,39,24.515,39h-4.049c-0.614,0-1.083,0.549-0.988,1.156l1.014,6.439 c0.057,0.362,0.31,0.663,0.658,0.78l10.553,3.574C31.804,50.983,31.908,51,32.013,51c0.095,0,0.19-0.014,0.282-0.042l11.643-3.548 c0.374-0.114,0.646-0.439,0.691-0.827l2.891-24.465l0.475-4.019C48.064,17.514,47.607,17,47.018,17z"/><path fill="#8d6c9f" d="M32.014,52c-0.211,0-0.421-0.034-0.624-0.102l-10.56-3.576c-0.701-0.236-1.209-0.838-1.325-1.57 l-1.015-6.441c-0.091-0.578,0.075-1.165,0.455-1.61c0.381-0.445,0.935-0.7,1.521-0.7h4.05c0.991,0,1.822,0.711,1.976,1.69 l0.35,2.222l5.27,1.784l6.029-1.837L38.831,36H25c-0.553,0-1-0.447-1-1v-6c0-0.553,0.447-1,1-1h14.776l0.473-4H16.775 c-0.492,0-0.911-0.358-0.988-0.845l-0.763-4.846c-0.091-0.577,0.075-1.164,0.455-1.609C15.86,16.255,16.414,16,17,16h30.019 c0.566,0,1.106,0.243,1.483,0.666c0.375,0.423,0.553,0.988,0.486,1.551l-3.365,28.482c-0.093,0.782-0.639,1.437-1.393,1.666 l-11.643,3.55C32.402,51.972,32.209,52,32.014,52z M20.466,40l1.015,6.439l10.543,3.563l11.623-3.55L47,18H17l0.63,4h23.744 c0.286,0,0.558,0.122,0.747,0.336c0.19,0.213,0.279,0.498,0.246,0.781l-0.709,6C41.599,29.621,41.172,30,40.665,30H26v4h13.956 c0.285,0,0.558,0.122,0.747,0.336c0.19,0.213,0.279,0.498,0.246,0.781l-0.9,7.625c-0.047,0.395-0.322,0.724-0.701,0.839 l-6.961,2.122c-0.201,0.062-0.415,0.059-0.612-0.009l-6.147-2.082c-0.353-0.119-0.609-0.424-0.668-0.792L24.515,40H20.466z"/>
        </symbol>
        <symbol id='icon-html' viewBox='0 0 64 64'>
            <path fill="#f6d397" d="M5.015,7.244l5.466,45.246c0.194,1.603,1.337,2.935,2.9,3.379l17.535,4.977 c0.709,0.201,1.46,0.206,2.172,0.013l18.442-4.996c1.614-0.437,2.789-1.817,2.955-3.471l4.549-45.187C59.153,6.024,58.22,5,57.025,5 H7.019C5.809,5,4.87,6.051,5.015,7.244z"/><path fill="#f9e3ae" d="M57.025,5H32v56c0.366,0.002,0.732-0.045,1.088-0.141l18.442-4.996 c1.614-0.437,2.789-1.817,2.955-3.471l4.549-45.187C59.153,6.024,58.22,5,57.025,5z"/><path fill="#8d6c9f" d="M32.025,62c-0.465,0-0.931-0.064-1.383-0.192l-17.535-4.977c-1.955-0.555-3.376-2.211-3.62-4.221 L4.021,7.364c-0.103-0.85,0.165-1.705,0.733-2.347C5.328,4.371,6.153,4,7.02,4h50.006c0.854,0,1.672,0.362,2.244,0.995 c0.567,0.628,0.845,1.47,0.76,2.311L55.48,52.493c-0.208,2.052-1.69,3.794-3.69,4.334l-18.44,4.996 C32.916,61.941,32.471,62,32.025,62z M7.02,6C6.721,6,6.448,6.122,6.252,6.344C6.06,6.561,5.973,6.838,6.008,7.124l0,0l5.466,45.246 c0.146,1.207,1.002,2.203,2.18,2.537l17.536,4.977c0.535,0.151,1.1,0.155,1.637,0.01l18.441-4.996 c1.205-0.326,2.099-1.373,2.223-2.605l4.549-45.188c0.028-0.283-0.062-0.556-0.253-0.769C57.59,6.119,57.319,6,57.025,6H7.02z"/><path fill="#8d6c9f" d="M7 12c-.553 0-1-.447-1-1V9c0-.553.447-1 1-1s1 .447 1 1v2C8 11.553 7.553 12 7 12zM12 12c-.553 0-1-.447-1-1V9c0-.553.447-1 1-1s1 .447 1 1v2C13 11.553 12.553 12 12 12zM17 12c-.553 0-1-.447-1-1V9c0-.553.447-1 1-1s1 .447 1 1v2C18 11.553 17.553 12 17 12zM22 12c-.553 0-1-.447-1-1V9c0-.553.447-1 1-1s1 .447 1 1v2C23 11.553 22.553 12 22 12zM27 12c-.553 0-1-.447-1-1V9c0-.553.447-1 1-1s1 .447 1 1v2C28 11.553 27.553 12 27 12zM32 12c-.553 0-1-.447-1-1V9c0-.553.447-1 1-1s1 .447 1 1v2C33 11.553 32.553 12 32 12zM37 12c-.553 0-1-.447-1-1V9c0-.553.447-1 1-1s1 .447 1 1v2C38 11.553 37.553 12 37 12zM42 12c-.553 0-1-.447-1-1V9c0-.553.447-1 1-1s1 .447 1 1v2C43 11.553 42.553 12 42 12zM47 12c-.553 0-1-.447-1-1V9c0-.553.447-1 1-1s1 .447 1 1v2C48 11.553 47.553 12 47 12zM52 12c-.553 0-1-.447-1-1V9c0-.553.447-1 1-1s1 .447 1 1v2C53 11.553 52.553 12 52 12zM57 12c-.553 0-1-.447-1-1V9c0-.553.447-1 1-1s1 .447 1 1v2C58 11.553 57.553 12 57 12z"/><path fill="#faefde" d="M47.018,17H17c-0.614,0-1.083,0.548-0.987,1.155l2.52,16.001C18.61,34.642,19.029,35,19.521,35h19.31 c0.599,0,1.063,0.523,0.993,1.117l-0.769,6.508l-6.961,2.122l-6.147-2.082l-0.444-2.821C25.426,39.358,25.007,39,24.515,39h-4.049 c-0.614,0-1.083,0.549-0.988,1.156l1.014,6.439c0.057,0.362,0.31,0.663,0.658,0.78l10.553,3.574C31.804,50.983,31.908,51,32.013,51 c0.095,0,0.19-0.014,0.282-0.042l11.643-3.548c0.374-0.114,0.646-0.439,0.691-0.827l1.945-16.465C46.645,29.523,46.181,29,45.582,29 H24.65c-0.492,0-0.911-0.358-0.988-0.844l-0.63-4C22.936,23.549,23.405,23,24.02,23h22.507c0.507,0,0.934-0.379,0.993-0.883 l0.475-4.019C48.064,17.514,47.607,17,47.018,17z"/><path fill="#8d6c9f" d="M32.014 52c-.211 0-.421-.034-.624-.102l-10.56-3.576c-.701-.236-1.209-.838-1.325-1.57l-1.015-6.441c-.091-.578.075-1.165.455-1.61.381-.445.935-.7 1.521-.7h4.05c.991 0 1.822.711 1.976 1.69l.35 2.222 5.27 1.784 6.029-1.837L38.831 36H19.521c-.991 0-1.822-.711-1.976-1.69l-2.521-16c-.091-.577.075-1.164.455-1.609C15.86 16.255 16.414 16 17 16h30.019c.565 0 1.105.242 1.481.665.376.422.554.987.488 1.55l-.475 4.02C48.395 23.241 47.541 24 46.527 24H24.02l.631 4h20.932c.571 0 1.116.245 1.495.672.379.426.559.996.491 1.563l-1.945 16.465c-.093.784-.64 1.438-1.395 1.667l-11.641 3.549C32.402 51.972 32.209 52 32.014 52zM20.466 40l1.015 6.439 10.543 3.563 11.623-3.55L45.582 30H24.649c-.991 0-1.822-.711-1.976-1.69l-.63-3.999c-.091-.578.075-1.165.455-1.61.381-.445.935-.7 1.521-.7h22.508L47 18H17l2.521 16h19.31c.571 0 1.116.245 1.495.672.379.426.559.996.491 1.563l-.769 6.508c-.047.395-.322.724-.701.839l-6.961 2.122c-.201.062-.415.059-.612-.009l-6.147-2.082c-.353-.119-.609-.424-.668-.792L24.515 40H20.466zM39.999 54.806c-.44 0-.844-.293-.964-.738-.145-.533.17-1.082.703-1.227l2-.542c.534-.146 1.083.17 1.227.703.145.533-.17 1.082-.703 1.227l-2 .542C40.174 54.795 40.086 54.806 39.999 54.806zM32.024 57.003l-5.298-1.504c-.531-.15-.84-.704-.688-1.235.15-.531.701-.842 1.235-.688l4.763 1.352 3.702-1.002c.534-.148 1.083.17 1.227.703.145.533-.17 1.083-.703 1.227L32.024 57.003z"/><path fill="#faefde" d="M50.5 23l1.238 2.262L54 26.5l-2.262 1.238L50.5 30l-1.238-2.262L47 26.5l2.262-1.238L50.5 23zM47.502 47l.876 1.61L50 49.502l-1.622.876L47.502 52l-.892-1.622L45 49.502l1.61-.892L47.502 47zM12.498 35l.529.962.962.536-.962.529L12.498 38l-.536-.973L11 36.498l.962-.536L12.498 35z"/>
        </symbol>
        <symbol id='icon-react' viewBox='0 0 64 64'>
            <circle cx="32" cy="33" r="6" fill="#ed7899"/><path fill="#8d6c9f" d="M32,40c-3.859,0-7-3.141-7-7s3.141-7,7-7s7,3.141,7,7S35.859,40,32,40z M32,28 c-2.757,0-5,2.243-5,5s2.243,5,5,5s5-2.243,5-5S34.757,28,32,28z"/><path fill="#8d6c9f" d="M32,46C15.178,46,2,40.29,2,33s13.178-13,30-13s30,5.71,30,13S48.822,46,32,46z M32,22 C16.822,22,4,27.037,4,33s12.822,11,28,11s28-5.037,28-11S47.178,22,32,22z"/><path fill="#8d6c9f" d="M20.316,59.827c-1.222,0-2.335-0.28-3.316-0.847c-3.149-1.818-4.425-6.291-3.593-12.596 c0.793-6.004,3.397-13.065,7.334-19.885c3.938-6.819,8.752-12.606,13.555-16.295C39.341,6.332,43.853,5.202,47,7.02l0,0 c3.149,1.818,4.425,6.291,3.593,12.596C49.8,25.619,47.195,32.681,43.259,39.5c-3.938,6.819-8.752,12.606-13.555,16.295 C26.232,58.46,23.013,59.827,20.316,59.827z M43.684,8.179c-2.234,0-5.079,1.239-8.17,3.613c-4.6,3.532-9.23,9.11-13.04,15.708 c-3.809,6.598-6.324,13.396-7.084,19.146c-0.709,5.371,0.243,9.234,2.61,10.602s6.187,0.26,10.486-3.04 c4.6-3.532,9.23-9.11,13.04-15.708c3.809-6.598,6.324-13.396,7.084-19.146c0.709-5.371-0.243-9.234-2.61-10.602l0,0 C45.336,8.368,44.556,8.179,43.684,8.179z"/><path fill="#8d6c9f" d="M43.684,59.827c-2.696,0-5.916-1.367-9.388-4.032c-4.803-3.688-9.617-9.476-13.555-16.295 c-3.937-6.819-6.541-13.881-7.334-19.885C12.575,13.311,13.851,8.838,17,7.02c3.15-1.816,7.661-0.686,12.704,3.186 c4.803,3.688,9.617,9.476,13.555,16.295c3.937,6.819,6.541,13.881,7.334,19.885C51.425,52.689,50.149,57.162,47,58.98 C46.019,59.547,44.904,59.827,43.684,59.827z M20.316,8.179c-0.873,0-1.651,0.189-2.316,0.573l0,0 c-2.367,1.367-3.319,5.23-2.61,10.602c0.76,5.75,3.275,12.549,7.084,19.146c3.81,6.598,8.44,12.176,13.04,15.708 c4.298,3.3,8.119,4.407,10.486,3.04s3.319-5.23,2.61-10.602c-0.76-5.75-3.275-12.549-7.084-19.146 c-3.81-6.598-8.44-12.176-13.04-15.708C25.396,9.419,22.551,8.179,20.316,8.179z"/><path fill="#8d6c9f" d="M10.463,46.972c-0.044,0-0.088-0.003-0.133-0.009l-1.982-0.264 c-0.548-0.073-0.933-0.575-0.859-1.123c0.072-0.548,0.572-0.933,1.123-0.859l1.982,0.264c0.548,0.073,0.933,0.575,0.859,1.123 C11.387,46.606,10.957,46.972,10.463,46.972z"/><path fill="#8d6c9f" d="M8.194,51.885c-0.536,0-0.98-0.426-0.998-0.967c-0.019-0.552,0.413-1.014,0.966-1.032 l1.998-0.067c0.551-0.037,1.015,0.413,1.033,0.966c0.019,0.552-0.413,1.014-0.966,1.032l-1.999,0.067 C8.218,51.885,8.206,51.885,8.194,51.885z"/><path fill="#8d6c9f" d="M9.009,57.093c-0.429,0-0.825-0.277-0.956-0.708c-0.161-0.528,0.136-1.087,0.664-1.248 l1.913-0.584c0.53-0.166,1.088,0.136,1.248,0.664c0.162,0.528-0.136,1.087-0.664,1.248l-1.913,0.584 C9.203,57.079,9.105,57.093,9.009,57.093z"/><path fill="#8d6c9f" d="M11.552,61.852c-0.281,0-0.561-0.118-0.759-0.349c-0.359-0.419-0.312-1.051,0.107-1.41 l1.518-1.303c0.418-0.358,1.049-0.312,1.41,0.107c0.359,0.419,0.312,1.051-0.107,1.41l-1.518,1.303 C12.015,61.772,11.783,61.852,11.552,61.852z"/><path fill="#8d6c9f" d="M55.771,18.718c-0.02,0-0.039-0.001-0.059-0.002l-1.996-0.115 c-0.552-0.031-0.973-0.504-0.94-1.056c0.031-0.551,0.507-0.971,1.056-0.94l1.996,0.115c0.552,0.031,0.973,0.504,0.94,1.056 C56.737,18.307,56.296,18.718,55.771,18.718z"/><path fill="#8d6c9f" d="M53.591,13.797c-0.487,0-0.913-0.355-0.988-0.852c-0.082-0.546,0.295-1.056,0.841-1.138 l1.978-0.297c0.548-0.072,1.056,0.296,1.138,0.841c0.082,0.546-0.295,1.056-0.841,1.138l-1.978,0.297 C53.69,13.793,53.64,13.797,53.591,13.797z"/><path fill="#8d6c9f" d="M52.215,9.336c-0.36,0-0.708-0.194-0.887-0.536c-0.257-0.488-0.067-1.093,0.422-1.35l1.771-0.929 c0.488-0.256,1.093-0.068,1.35,0.422c0.257,0.488,0.067,1.093-0.422,1.35l-1.771,0.929C52.53,9.299,52.371,9.336,52.215,9.336z"/><path fill="#8d6c9f" d="M49.266,5.919c-0.2,0-0.402-0.06-0.578-0.185c-0.45-0.32-0.556-0.944-0.236-1.395l1.158-1.631 c0.32-0.45,0.943-0.557,1.395-0.236c0.45,0.32,0.556,0.944,0.236,1.395l-1.158,1.631C49.887,5.772,49.579,5.919,49.266,5.919z"/>
        </symbol>
        <symbol id='icon-wordpress' viewBox='0 0 64 64'>
            <path fill="#ace3ff" d="M31 5A28 28 0 1 0 31 61A28 28 0 1 0 31 5Z"/><path fill="#85cbf8" d="M31,55A22,22,0,1,1,53,33,22,22,0,0,1,31,55Z"/><path fill="#faefde" d="M7,21h8l9.11,23.56,5.67-13.11-4-10.11,8.89-.44,8.44,23.56,5-13-1.56-6.11-1.89-5.22s.78-4.56,2.89-4.56S53.22,15,54.11,17s.78,5.89-.56,10.11S41.22,58.67,41.22,58.67l-.89.11L31.56,36,22.11,59.33l-1-.33Z"/><path fill="#8d6c9f" d="M55,16.78a4.19,4.19,0,0,0-.24-.44,4.74,4.74,0,0,0-.64-.78A29,29,0,0,0,5.37,19.45l-.05.1a29,29,0,0,0,16,40.76l.12,0A29,29,0,0,0,55,16.78ZM49.5,35.44l-8.57,22-8.57-22v0a1,1,0,0,0-.13-.2A.43.43,0,0,0,32,35a1,1,0,0,0-.19-.12h0a.94.94,0,0,0-.15,0,.64.64,0,0,0-.44,0,.93.93,0,0,0-.14,0h0a1,1,0,0,0-.2.13.43.43,0,0,0-.21.21,1,1,0,0,0-.13.2v0l-8.57,22L8.13,22h6.18l9,23.52v0l0,.08a1,1,0,0,0,.15.21l.08.08a1,1,0,0,0,.22.14l.06,0h0a.91.91,0,0,0,.66,0h0l.06,0a1,1,0,0,0,.23-.14l.08-.08a1,1,0,0,0,.15-.21l0-.08v0l5.41-13.87V31.6s0-.06,0-.08a.7.7,0,0,0,0-.48.94.94,0,0,0,0-.16L27.13,22h6.18l9,23.52v0l0,.08a1,1,0,0,0,.15.21l.08.08a1,1,0,0,0,.22.14l.06,0h0a1,1,0,0,0,.33.06h0l.15,0a.94.94,0,0,0,.2,0h0A1,1,0,0,0,43.8,46a.46.46,0,0,0,.22-.22,1,1,0,0,0,.13-.19v0l4.65-11.95c1.07-3.52-.27-6.14-1.45-8.45-1-2-1.87-3.65-1.4-5.75A4.21,4.21,0,0,1,49.42,16a3.75,3.75,0,0,1,3.23.84c.2.27.4.55.59.83C54.73,20.91,51.8,30.15,49.5,35.44ZM31,6a26.92,26.92,0,0,1,19.15,8,6.48,6.48,0,0,0-1.08.09A6.22,6.22,0,0,0,44,19c-.63,2.81.49,5,1.57,7.09s2.16,4.21,1.34,6.88l-3.69,9.46L35.45,22H37a1,1,0,0,0,0-2H23a1,1,0,0,0,0,2h2l3.6,9.24L24.24,42.39,16.45,22H19a1,1,0,0,0,0-2H7.35A27,27,0,0,1,31,6ZM4,33A26.85,26.85,0,0,1,6.15,22.44l13.7,35.14A27,27,0,0,1,4,33ZM23.5,58.93l7.94-20.37,7.85,20.13a26.91,26.91,0,0,1-15.79.24Zm19.73-1.87,8.13-20.86c.48-1.11,3.65-8.58,4.21-14.4A27,27,0,0,1,43.22,57.06Z"/><path fill="#8d6c9f" d="M31 13a1 1 0 0 0 1-1V10a1 1 0 0 0-2 0v2A1 1 0 0 0 31 13zM25 12.92a1 1 0 1 0 1.93-.52l-.52-1.93a1 1 0 0 0-1.93.52zM40.26 15.48a1 1 0 0 0 1.37-.37l1-1.73a1 1 0 1 0-1.73-1l-1 1.73A1 1 0 0 0 40.26 15.48zM20.4 15.11a1 1 0 0 0 1.73-1l-1-1.73a1 1 0 0 0-1.73 1zM35.8 13.63A1 1 0 0 0 37 12.92L37.54 11a1 1 0 0 0-1.93-.52l-.52 1.93A1 1 0 0 0 35.8 13.63z"/>
        </symbol>
        <symbol id='icon-codepen' viewBox="0,0,256,256" width="48px" height="48px" fill-rule="nonzero"><g fill="#000501" fill-rule="nonzero" stroke="none" stroke-width="1" stroke-linecap="butt" stroke-linejoin="miter" stroke-miterlimit="10" stroke-dasharray="" stroke-dashoffset="0" font-family="none" font-weight="none" font-size="none" text-anchor="none" style="mix-blend-mode: normal">
           <g transform="scale(5.33333,5.33333)"><path d="M24,43.4l-19,-12.3v-14.2l19,-12.3l19,12.3v14.2zM9,28.9l15,9.7l15,-9.7v-9.8l-15,-9.7l-15,9.7z"></path><path d="M24,32.4l-18.2,-12.8l2.4,-3.2l15.8,11.2l15.8,-11.2l2.4,3.2z"></path><path d="M39.9,31.6l-15.9,-11l-15.9,11l-2.2,-3.2l18.1,-12.6l18.1,12.6z"></path><path d="M22,8h4v10.1h-4zM22,29.9h4v10.1h-4z"></path></g></g>
        </symbol>
        <symbol id='icon-linkedin' viewBox='0 0 64 64'>
            <rect width="50" height="50" x="7" y="7" fill="#58b5e8" rx="6" ry="6"/><path fill="#faefde" d="M19.5 19A3.5 3.5 0 1 0 19.5 26 3.5 3.5 0 1 0 19.5 19zM39.76 28c-2.21 0-5 1.78-6.19 2.79V29.46a1 1 0 0 0-1-1H27.48a1 1 0 0 0-1 1v21a1 1 0 0 0 1 1h5.4a1 1 0 0 0 1-1V39.88c0-3.16 1.78-5.34 3.89-5.34s3.37 2.39 3.37 5.51V50.48a1 1 0 0 0 1 1h5.4a1 1 0 0 0 1-1V38.77C48.4 33.44 47.37 28 39.76 28zM16 29H23V51H16z"/><path fill="#65c5ef" d="M11,7H53a4,4,0,0,1,4,4v0a3,3,0,0,1-3,3H10a3,3,0,0,1-3-3v0a4,4,0,0,1,4-4Z"/><path fill="#8d6c9f" d="M23 28H16a1 1 0 0 0-1 1V51a1 1 0 0 0 1 1h7a1 1 0 0 0 1-1V29A1 1 0 0 0 23 28zM22 50H17V30h5zM39.88 27.44a8.47 8.47 0 0 0-5.44 1.88V29a1 1 0 0 0-1-1H27a1 1 0 0 0-1 1V51a1 1 0 0 0 1 1h6.7a1 1 0 0 0 1-1V39.89c0-3.31.82-4.55 3-4.55s2.49 1.46 2.49 4.72V51a1 1 0 0 0 1 1h6.71a1 1 0 0 0 1-1V38.72C48.92 33.14 47.85 27.44 39.88 27.44zm7 22.56H42.21V40.06c0-2.35 0-6.72-4.49-6.72-5 0-5 4.93-5 6.55V50H28V30h4.43v2a1.08 1.08 0 0 0 1.09 1 1 1 0 0 0 .88-.53 6.07 6.07 0 0 1 5.46-3c5.87 0 7 3.55 7 9.29zM19.5 18A4.5 4.5 0 1 0 24 22.5 4.5 4.5 0 0 0 19.5 18zm0 7.33a2.83 2.83 0 1 1 2.83-2.83A2.83 2.83 0 0 1 19.5 25.33z"/><path fill="#8d6c9f" d="M51,6H13a7,7,0,0,0-7,7V51a7,7,0,0,0,7,7H51a7,7,0,0,0,7-7V13A7,7,0,0,0,51,6Zm5,45a5,5,0,0,1-5,5H13a5,5,0,0,1-5-5V13a5,5,0,0,1,5-5H51a5,5,0,0,1,5,5Z"/><path fill="#8d6c9f" d="M17 16a1 1 0 0 0 1-1V13a1 1 0 0 0-2 0v2A1 1 0 0 0 17 16zM12 12a1 1 0 0 0-1 1v2a1 1 0 0 0 2 0V13A1 1 0 0 0 12 12zM32 16a1 1 0 0 0 1-1V13a1 1 0 0 0-2 0v2A1 1 0 0 0 32 16zM37 16a1 1 0 0 0 1-1V13a1 1 0 0 0-2 0v2A1 1 0 0 0 37 16zM42 16a1 1 0 0 0 1-1V13a1 1 0 0 0-2 0v2A1 1 0 0 0 42 16zM47 16a1 1 0 0 0 1-1V13a1 1 0 0 0-2 0v2A1 1 0 0 0 47 16zM52 12a1 1 0 0 0-1 1v2a1 1 0 0 0 2 0V13A1 1 0 0 0 52 12zM22 16a1 1 0 0 0 1-1V13a1 1 0 0 0-2 0v2A1 1 0 0 0 22 16zM27 16a1 1 0 0 0 1-1V13a1 1 0 0 0-2 0v2A1 1 0 0 0 27 16z"/>
        </symbol>
        <symbol id='icon-github' viewBox='0 0 64 64'>
            <path fill="#8b8e98" d="M31 3A28 28 0 1 0 31 59A28 28 0 1 0 31 3Z"/><path fill="#7e8189" d="M31,54A23,23,0,1,1,54,31,23,23,0,0,1,31,54Z"/><path fill="#faefde" d="M36.08,43.35A11,11,0,0,1,39,50v5.25c0,.55.23,2.13.9,2.31L31,59.18l-9-1.61c.72-.16,1-1.77,1-2.32s0-.91,0-3.25c-7.79,1.69-9.4-4.3-9.4-4.3-1.28-3.23-3.11-4.1-3.11-4.1-2.54-1.73.19-1.7.19-1.7A5.89,5.89,0,0,1,15,44.79c2.5,4.27,6.44,3.92,8,3.21.26-1.81,2.1-3.93,2.9-4.63-6.22-.71-12.76-3.11-12.76-13.84A10.83,10.83,0,0,1,16,22a10.09,10.09,0,0,1,.28-7.41s2.35-.75,7.7,2.87a26.61,26.61,0,0,1,14,0c5.34-3.62,7.69-2.87,7.69-2.87A10.09,10.09,0,0,1,46,22a10.83,10.83,0,0,1,2.87,7.51C48.86,40.29,42.32,42.66,36.08,43.35Z"/><path fill="#8d6c9f" d="M31,2a29,29,0,0,0-9.54,56.38,1,1,0,0,0,.55.19A29,29,0,1,0,31,2ZM23.7,57a6.22,6.22,0,0,0,.3-1.74v-.54c0-.45,0-1.06,0-2.72a1,1,0,0,0-1.21-1c-6.72,1.46-8.17-3.38-8.23-3.58l0-.11a9.44,9.44,0,0,0-3-4.24,5.37,5.37,0,0,1,2.56,2.2c2.64,4.53,7,4.65,9.3,3.62a1,1,0,0,0,.58-.77,8.62,8.62,0,0,1,2.56-4A1,1,0,0,0,26,42.38c-5.87-.67-11.87-2.72-11.87-12.84a9.82,9.82,0,0,1,2.62-6.84A1,1,0,0,0,17,21.64,8.84,8.84,0,0,1,17,15.55c.85,0,2.92.39,6.42,2.76a1,1,0,0,0,.83.14,25.56,25.56,0,0,1,13.48,0,1,1,0,0,0,.83-.14c3.51-2.38,5.59-2.74,6.41-2.77a8.87,8.87,0,0,1,.07,6.1,1,1,0,0,0,.19,1.05,9.82,9.82,0,0,1,2.61,6.84c0,10.13-6,12.17-11.89,12.82a1,1,0,0,0-.54,1.75A10.2,10.2,0,0,1,38,50v5.25A6.28,6.28,0,0,0,38.29,57,26.86,26.86,0,0,1,23.7,57Zm16.5-.6a4.13,4.13,0,0,1-.2-1.13V50a11.66,11.66,0,0,0-2-5.91c5.55-.94,11.89-3.82,11.89-14.56a11.76,11.76,0,0,0-2.74-7.73,11.44,11.44,0,0,0-.48-7.56,1,1,0,0,0-.62-.58c-.28-.09-2.85-.76-8.18,2.74a27.61,27.61,0,0,0-13.66,0c-5.33-3.5-7.9-2.83-8.18-2.74a1,1,0,0,0-.62.58,11.42,11.42,0,0,0-.48,7.56,11.75,11.75,0,0,0-2.74,7.73c0,10.65,6.23,13.58,11.73,14.56a9.51,9.51,0,0,0-1.74,3.16c-1.42.4-4.34.41-6.29-2.94a6.9,6.9,0,0,0-5.15-3.4c-.54,0-1.9.09-2.22,1.13s.91,2,1.46,2.4l.13.07c.06,0,1.52.8,2.6,3.53.23.71,2.22,6.1,9.35,5.15,0,.79,0,1.19,0,1.5v.56a4,4,0,0,1-.21,1.13,27,27,0,1,1,18.41,0Z"/><path fill="#8d6c9f" d="M31 37a1 1 0 0 0-1 1v2a1 1 0 0 0 2 0V38A1 1 0 0 0 31 37zM35.6 39.53A1 1 0 0 0 37.53 39L37 37.08a1 1 0 0 0-1.93.52zM21.75 34.52a1 1 0 0 0-1.37.37l-1 1.73a1 1 0 0 0 1.73 1l1-1.73A1 1 0 0 0 21.75 34.52zM40.88 37.62a1 1 0 1 0 1.73-1l-1-1.73a1 1 0 0 0-1.73 1zM26.21 36.37a1 1 0 0 0-1.22.71L24.47 39a1 1 0 1 0 1.93.52l.52-1.93A1 1 0 0 0 26.21 36.37zM41.35 9.46a22.71 22.71 0 0 0-2.3-1 1 1 0 0 0-.7 1.87 21.1 21.1 0 0 1 2.1.92 1 1 0 0 0 .45.11 1 1 0 0 0 .45-1.89zM34.65 7.29a23.08 23.08 0 0 0-15 2.72 1 1 0 0 0 .5 1.87 1 1 0 0 0 .49-.13A21.1 21.1 0 0 1 34.34 9.27a1 1 0 1 0 .32-2z"/>
        </symbol>
        <symbol id='icon-connect' viewbox='0 0 64 64'>
            <path fill="#72caaf" d="M48,43a7,7,0,0,0-4.06,1.3L23,32.6c0-.2,0-.4,0-.6s0-.4,0-.6l21-11.7A7,7,0,1,0,41,14a7.08,7.08,0,0,0,0,.71L20.15,26.37a7,7,0,1,0,0,11.26L41,49.29A7.08,7.08,0,0,0,41,50a7,7,0,1,0,7-7Z"/><path fill="#81d6bb" d="M48 7A7 7 0 1 0 48 21 7 7 0 1 0 48 7zM48 43A7 7 0 1 0 48 57 7 7 0 1 0 48 43z"/><path fill="#8d6c9f" d="M48 42a7.94 7.94 0 0 0-4.1 1.13L24 32V32L43.9 20.87l.18.09.56.29.39.17.54.19.43.13c.2.05.4.09.6.12l.39.07A7.93 7.93 0 0 0 48 22a8 8 0 1 0-8-8s0 .1 0 .14L20.2 25.2A7.92 7.92 0 0 0 16 24a8 8 0 0 0 0 16 7.92 7.92 0 0 0 4.2-1.2L40 49.86S40 50 40 50a8 8 0 0 0 .07 1c0 .09 0 .18 0 .27q.06.38.16.75c0 .08 0 .16.06.24a7.93 7.93 0 0 0 .32.9l.11.24c.1.21.21.42.33.63s.06.12.09.18l.06.07A8 8 0 1 0 48 42zm0 14a6 6 0 0 1-5.17-3q-.14-.23-.25-.47l-.09-.18a6 6 0 0 1-.24-.67l0-.19q-.07-.28-.12-.56c0-.07 0-.14 0-.21a5.67 5.67 0 0 1 0-1.36h0a6 6 0 0 1 .44-1.72 1 1 0 1 0-1.84-.78 8 8 0 0 0-.3.86l-19.69-11a1 1 0 0 0-1.08.07A6 6 0 0 1 16 38a6 6 0 0 1 0-12 6 6 0 0 1 3.55 1.17 1 1 0 0 0 1.08.07L41.52 15.58a1 1 0 0 0 .51-1 6.06 6.06 0 1 1 5.14 5.32l-.27 0-.56-.13-.27-.08a5.94 5.94 0 0 1-.67-.27l-.09 0a6.08 6.08 0 0 1-.76-.46 6 6 0 0 1-1.42-1.39 1 1 0 1 0-1.62 1.17 7.94 7.94 0 0 0 .71.84l-19.73 11a1 1 0 0 0-.51 1c0 .17 0 .34 0 .51s0 .34 0 .51a1 1 0 0 0 .51 1l21 11.7a1 1 0 0 0 1.07-.06A6 6 0 1 1 48 56zM16 21a1 1 0 0 0 1-1V18a1 1 0 0 0-2 0v2A1 1 0 0 0 16 21zM9.13 22.11a1 1 0 0 0 1.73-1l-1-1.73a1 1 0 1 0-1.73 1zM6.11 25.13l-1.73-1a1 1 0 1 0-1 1.73l1.73 1a1 1 0 0 0 .5.13 1 1 0 0 0 .5-1.87zM5 32a1 1 0 0 0-1-1H2a1 1 0 0 0 0 2H4A1 1 0 0 0 5 32zM16 43a1 1 0 0 0-1 1v2a1 1 0 0 0 2 0V44A1 1 0 0 0 16 43zM10.5 41.53a1 1 0 0 0-1.37.37l-1 1.73a1 1 0 0 0 1.73 1l1-1.73A1 1 0 0 0 10.5 41.53zM5.11 37.13l-1.73 1a1 1 0 1 0 1 1.73l1.73-1a1 1 0 1 0-1-1.73z"/>
        </symbol>
        <symbol id='icon-line' width="100%" height="9" viewBox="0 0 101 9">
            <path d="M.426 1.973C4.144 1.567 17.77-.514 21.443 1.48 24.296 3.026 24.844 4.627 27.5 7c3.075 2.748 6.642-4.141 10.066-4.688 7.517-1.2 13.237 5.425 17.59 2.745C58.5 3 60.464-1.786 66 2c1.996 1.365 3.174 3.737 5.286 4.41 5.423 1.727 25.34-7.981 29.14-1.294" pathLength="1" fill="none" stroke="#08f7bf"/>
        </symbol>
        <symbol id='icon-mailbox'  viewBox="0 0 64 64" width="64px" height="64px">
           <path fill="#ced8ed" d="M47,11H17C9.268,11,3,17.268,3,25v22h58V25C61,17.268,54.732,11,47,11z"/><path fill="#c2cde7" d="M17.38,11L17.38,11C24.902,11,31,17.098,31,24.62c0,0,0,0,0,0V47l0,0H3l0,0V25.38 C3,17.438,9.438,11,17.38,11z"/><path fill="#c4939c" d="M29 53H37V64H29z"/><path fill="#c2cde7" d="M35,42h22c2.209,0,4,1.791,4,4v1l0,0H31l0,0v-1C31,43.791,32.791,42,35,42z"/><path fill="#f9dd8f" d="M61,47H3c-1.105,0-2,0.895-2,2l0,0c0,1.105,0.895,2,2,2h58c1.105,0,2-0.895,2-2l0,0 C63,47.895,62.105,47,61,47z"/><path fill="#cda1a7" d="M39.76,55H26.24c-0.759,0-1.452-0.43-1.79-1.11L23,51h20l-1.45,2.89C41.212,54.57,40.519,55,39.76,55 z"/><path fill="#ed7899" d="M62,35c0.552,0,1-0.448,1-1v-8c0-0.552-0.448-1-1-1H40c-1.105,0-2,0.895-2,2l0,0c0,1.105,0.895,2,2,2 h17c0.483-0.01,0.904,0.327,1,0.8l0.88,4.39c0.096,0.473,0.517,0.81,1,0.8L62,35z"/><path fill="#f9dd8f" d="M38.999 24.005A3 3 0 1 0 38.999 30.005A3 3 0 1 0 38.999 24.005Z" transform="rotate(-45.001 38.999 27.005)"/><path fill="#8d6c9f" d="M51 40c-.552 0-1 .448-1 1v2c0 .552.448 1 1 1s1-.448 1-1v-2C52 40.448 51.552 40 51 40zM46 40c-.552 0-1 .448-1 1v2c0 .552.448 1 1 1s1-.448 1-1v-2C47 40.448 46.552 40 46 40zM56 40c-.552 0-1 .448-1 1v2c0 .552.448 1 1 1s1-.448 1-1v-2C57 40.448 56.552 40 56 40zM41 40c-.552 0-1 .448-1 1v2c0 .552.448 1 1 1s1-.448 1-1v-2C42 40.448 41.552 40 41 40zM36 40c-.552 0-1 .448-1 1v2c0 .552.448 1 1 1s1-.448 1-1v-2C37 40.448 36.552 40 36 40zM21 24h-8c-.552 0-1 .448-1 1s.448 1 1 1h8c.552 0 1-.448 1-1S21.552 24 21 24z"/><path fill="#8d6c9f" d="M64,34v-8c0-1.105-0.895-2-2-2l0,0c-0.527-7.891-7.091-14.018-15-14H17C8.716,10,2,16.716,2,25v21.18 c-1.557,0.565-2.362,2.286-1.797,3.843C0.631,51.202,1.746,51.99,3,52h19.38l1.17,2.34c0.509,1.019,1.551,1.662,2.69,1.66H28v7 c0,0.552,0.448,1,1,1s1-0.448,1-1v-7h6v7c0,0.552,0.448,1,1,1s1-0.448,1-1v-7h1.76c1.135-0.002,2.173-0.644,2.68-1.66L43.62,52H61 c1.657-0.013,2.989-1.366,2.977-3.023c-0.01-1.254-0.798-2.369-1.977-2.797V36C63.105,36,64,35.105,64,34z M30,46H4V25 c0-7.18,5.82-13,13-13s13,5.82,13,13V46z M40.66,53.45c-0.169,0.336-0.513,0.549-0.89,0.55H26.24 c-0.377-0.001-0.721-0.214-0.89-0.55L24.62,52h16.76L40.66,53.45z M61,50H3c-0.552,0-1-0.448-1-1s0.448-1,1-1h58 c0.552,0,1,0.448,1,1S61.552,50,61,50z M60,46H32V25c-0.007-5.373-2.887-10.332-7.55-13H47c6.807-0.02,12.476,5.213,13,12H41.64 c-0.729-0.643-1.668-0.999-2.64-1c-2.209,0-4,1.791-4,4s1.791,4,4,4c0.972-0.001,1.911-0.357,2.64-1H57l0.88,4.39 c0.189,0.95,1.031,1.629,2,1.61H60V46z M41,27c0.005,0.353-0.093,0.7-0.28,1c-0.083,0.151-0.187,0.289-0.31,0.41 c-0.78,0.775-2.04,0.775-2.82,0c-0.217-0.226-0.378-0.5-0.47-0.8c-0.044-0.068-0.084-0.138-0.12-0.21 c-0.053-0.261-0.053-0.529,0-0.79c0.02-0.068,0.043-0.135,0.07-0.2c0.093-0.304,0.258-0.582,0.48-0.81c0.78-0.775,2.04-0.775,2.82,0 c0.123,0.121,0.227,0.259,0.31,0.41C40.88,26.302,40.991,26.646,41,27z M60,34h-0.18l-0.88-4.39c-0.184-0.928-0.994-1.6-1.94-1.61 H42.87c0.173-0.655,0.173-1.345,0-2H62v8H60z"/>
        </symbol>
        <symbol id='icon-twitter'  viewBox="0 0 64 64" width="64px" height="64px">
           <path fill="#85cbf8" d="M32 5A27 27 0 1 0 32 59A27 27 0 1 0 32 5Z"/><path fill="#8d6c9f" d="M32,61C16.009,61,3,47.99,3,32S16.009,3,32,3s29,13.01,29,29S47.991,61,32,61z M32,5 C17.112,5,5,17.112,5,32s12.112,27,27,27s27-12.112,27-27S46.888,5,32,5z"/><path fill="#8d6c9f" d="M53.512 41.155c-.118 0-.238-.021-.354-.065-.517-.195-.776-.772-.581-1.289C53.521 37.312 54 34.687 54 32c0-2.252-.339-4.473-1.007-6.602-.166-.527.127-1.089.654-1.254.527-.164 1.088.128 1.254.654C55.63 27.122 56 29.545 56 32c0 2.93-.522 5.793-1.553 8.51C54.296 40.909 53.916 41.155 53.512 41.155zM37.719 56.304c-.45 0-.858-.306-.97-.762L36.273 53.6c-.131-.537.197-1.078.733-1.21.531-.132 1.077.197 1.209.733l.476 1.942c.131.537-.197 1.078-.733 1.21C37.878 56.295 37.798 56.304 37.719 56.304zM42.275 54.692c-.374 0-.733-.211-.904-.571l-.857-1.807c-.237-.499-.024-1.096.475-1.332.5-.236 1.096-.023 1.332.475l.857 1.807c.237.499.024 1.096-.475 1.332C42.564 54.661 42.418 54.692 42.275 54.692zM46.408 52.191c-.304 0-.604-.138-.8-.399l-1.202-1.599c-.332-.441-.243-1.068.198-1.4.442-.33 1.069-.242 1.4.199l1.202 1.599c.332.441.243 1.068-.198 1.4C46.828 52.126 46.617 52.191 46.408 52.191zM49.954 48.914c-.236 0-.473-.083-.663-.252l-1.496-1.327c-.413-.366-.451-.998-.084-1.412.367-.413.998-.451 1.412-.084l1.496 1.327c.413.366.451.998.084 1.412C50.504 48.801 50.23 48.914 49.954 48.914zM52.776 44.997c-.17 0-.342-.043-.5-.135l-1.731-1.002c-.478-.276-.641-.888-.365-1.366.277-.478.888-.644 1.367-.364l1.731 1.002c.478.276.641.888.365 1.366C53.458 44.818 53.122 44.997 52.776 44.997z"/><g><path fill="#8d6c9f" d="M32,56c-5.896,0-11.565-2.158-15.962-6.078c-0.412-0.367-0.448-0.999-0.081-1.411 c0.367-0.413,0.999-0.449,1.412-0.081c4.46,3.976,10.348,5.968,16.379,5.502c0.547-0.046,1.032,0.369,1.075,0.92 c0.043,0.55-0.369,1.031-0.919,1.074C33.27,55.975,32.629,56,32,56z"/></g><g><path fill="#8d6c9f" d="M9.782,38.971c-0.441,0-0.846-0.294-0.965-0.741C8.275,36.209,8,34.113,8,32C8,18.767,18.767,8,32,8 c6.225,0,12.125,2.373,16.615,6.681c0.398,0.383,0.412,1.016,0.029,1.414c-0.382,0.399-1.016,0.41-1.414,0.029 C43.115,12.175,37.706,10,32,10c-12.131,0-22,9.869-22,22c0,1.938,0.252,3.859,0.749,5.712c0.143,0.533-0.173,1.082-0.707,1.225 C9.955,38.96,9.868,38.971,9.782,38.971z"/></g><g><path fill="#faefde" d="M26.713,47c-3.604-0.008-7.095-0.994-10.146-2.856c0.375,0.03,0.758,0.046,1.139,0.046 c2.358,0,4.699-0.595,6.771-1.721l2.042-1.11l-2.21-0.72c-2.016-0.656-3.62-2.231-4.315-4.23l1.577-0.577l-1.415-1.108 c-1.625-1.273-2.575-3.179-2.616-5.238l2.687,1.089l-1.625-2.595c-1.274-2.086-1.333-4.684-0.166-6.821 c3.307,3.973,7.95,6.469,13.093,7.037l1.11,0.122V26.58c0-1.736,0.653-3.391,1.84-4.657c1.302-1.389,3.067-2.153,4.972-2.153 c1.734,0,3.388,0.653,4.654,1.84l0.391,0.366l0.521-0.122c1.283-0.301,2.512-0.779,3.659-1.424 c-0.177,0.489-0.418,0.972-0.713,1.422l-1.763,2.683l3.347-1.358c-0.796,1.125-1.758,2.126-2.858,2.972L46.3,26.448v0.962 c-0.043,4.859-1.836,9.554-5.051,13.21c-3.561,4.059-8.699,6.386-14.097,6.386C27.006,47.006,26.86,47.004,26.713,47z"/><path fill="#8d6c9f" d="M49.49,22.12L48.8,22.4c0.407-0.619,0.723-1.292,0.94-2c0.129-0.469-0.147-0.953-0.616-1.082 c-0.224-0.061-0.462-0.032-0.664,0.082c-1.141,0.678-2.378,1.177-3.67,1.48c-3.148-2.949-8.09-2.788-11.039,0.359 c-1.356,1.448-2.111,3.357-2.111,5.341c0,0.207,0,0.413,0,0.62c-4.91-0.542-9.412-2.987-12.54-6.81 c-0.307-0.376-0.862-0.433-1.238-0.125c-0.081,0.066-0.149,0.145-0.202,0.235c-1.44,2.481-1.405,5.552,0.09,8 c-0.451-0.182-0.964,0.035-1.146,0.486c-0.04,0.1-0.062,0.207-0.064,0.314v0.1c0.016,2.388,1.121,4.637,3,6.11 c-0.438,0.16-0.674,0.634-0.54,1.08c0.772,2.37,2.63,4.228,5,5c-2.391,1.3-5.127,1.827-7.83,1.51 c-0.483-0.053-0.918,0.295-0.971,0.778c-0.036,0.329,0.115,0.65,0.391,0.832c3.308,2.139,7.161,3.281,11.1,3.29 c5.847,0.137,11.453-2.324,15.31-6.72c3.374-3.838,5.255-8.76,5.3-13.87c0-0.16,0-0.31,0-0.47c1.286-0.988,2.4-2.181,3.3-3.53 c0.265-0.408,0.149-0.953-0.259-1.217c-0.245-0.159-0.552-0.186-0.821-0.073L49.49,22.12z M45.87,25.8 c-0.238,0.174-0.373,0.455-0.36,0.75c0,0.28,0,0.57,0,0.86c-0.009,10.405-8.452,18.832-18.857,18.823 c-2.414-0.002-4.805-0.468-7.043-1.373c2.644-0.323,5.151-1.36,7.25-3c0.381-0.302,0.446-0.855,0.144-1.236 c-0.163-0.207-0.411-0.329-0.674-0.334c-2.085-0.036-4.005-1.143-5.08-2.93c0.659-0.008,1.314-0.098,1.95-0.27 c0.468-0.13,0.742-0.616,0.612-1.084c-0.089-0.318-0.348-0.56-0.672-0.626c-2.343-0.481-4.184-2.294-4.7-4.63 c0.674,0.21,1.374,0.328,2.08,0.35c0.393,0.021,0.749-0.232,0.86-0.61c0.12-0.374-0.023-0.782-0.35-1 c-2.261-1.508-3.242-4.336-2.4-6.92c3.648,3.901,8.666,6.235,14,6.51c0.276,0.018,0.544-0.097,0.72-0.31 c0.175-0.211,0.242-0.492,0.18-0.76c-0.75-3.262,1.287-6.514,4.549-7.263c2.094-0.481,4.285,0.182,5.761,1.743 c0.207,0.22,0.513,0.318,0.81,0.26c0.713-0.141,1.415-0.335,2.1-0.58c-0.4,0.438-0.861,0.815-1.37,1.12 c-0.396,0.282-0.488,0.831-0.206,1.227c0.188,0.264,0.505,0.403,0.826,0.363c0.42-0.053,0.837-0.12,1.25-0.2 C46.816,25.084,46.355,25.459,45.87,25.8z"/></g>
        </symbol>
        <!-- <symbol id='icon-codepen' viewBox="0 0 50 50">
          <path d="M 25 2.8125 L 24.464844 3.15625 L 3 16.796875 L 3 33.203125 L 25 47.1875 L 47 33.203125 L 47 16.796875 Z M 25 5.1875 L 45 17.894531 L 45 32.105469 L 25 44.8125 L 5 32.105469 L 5 17.894531 Z M 24 8.128906 L 7.761719 18.449219 L 15.582031 23.871094 L 24 18.136719 Z M 26 8.128906 L 26 18.136719 L 26.4375 18.433594 L 34.417969 23.871094 L 42.238281 18.449219 Z M 22 11.769531 L 22 17.078125 L 15.59375 21.445313 L 11.375 18.519531 Z M 28 11.769531 L 38.625 18.519531 L 34.40625 21.441406 L 28 17.078125 Z M 25 19.8125 L 17.300781 25.0625 L 25 30.398438 L 25.570313 30.003906 L 32.699219 25.0625 Z M 7 20.292969 L 7 29.722656 L 13.859375 25.046875 L 12.660156 24.21875 Z M 43 20.296875 L 36.140625 25.046875 L 37.34375 25.871094 L 43 29.722656 Z M 25 22.234375 L 29.167969 25.078125 L 25 27.964844 L 20.832031 25.078125 Z M 9 24.113281 L 10.328125 25.035156 L 9 25.9375 Z M 41 24.113281 L 41 25.9375 L 39.671875 25.035156 Z M 15.574219 26.238281 L 15.003906 26.625 L 7.773438 31.558594 L 24 41.871094 L 24 32.078125 Z M 34.425781 26.238281 L 26 32.078125 L 26 41.871094 L 42.226563 31.558594 Z M 15.5625 28.667969 L 22 33.125 L 22 38.230469 L 11.40625 31.5 Z M 34.4375 28.667969 L 38.59375 31.5 L 28 38.230469 L 28 33.125 Z"/>
        </symbol> -->
</svg>