<svg aria-hidden="true"  xmlns="http://www.w3.org/2000/svg"  xmlns:xlink="http://www.w3.org/1999/xlink">
    <defs>
        <symbol id='icon-paper-plane' viewBox="0 0 512 512">
            <!--! Font Awesome Pro 6.4.0 by @fontawesome - https://fontawesome.com License - https://fontawesome.com/license (Commercial License) Copyright 2023 Fonticons, Inc. -->
            <path d="M16.1 260.2c-22.6 12.9-20.5 47.3 3.6 57.3L160 376V479.3c0 18.1 14.6 32.7 32.7 32.7c9.7 0 18.9-4.3 25.1-11.8l62-74.3 123.9 51.6c18.9 7.9 40.8-4.5 43.9-24.7l64-416c1.9-12.1-3.4-24.3-13.5-31.2s-23.3-7.5-34-1.4l-448 256zm52.1 25.5L409.7 90.6 190.1 336l1.2 1L68.2 285.7zM403.3 425.4L236.7 355.9 450.8 116.6 403.3 425.4z"/>
        </symbol>
        <symbol id='icon-codepen' viewBox="0 0 512 512">
            <!--! Font Awesome Pro 6.4.0 by @fontawesome - https://fontawesome.com License - https://fontawesome.com/license (Commercial License) Copyright 2023 Fonticons, Inc. -->
            <path d="M502.285 159.704l-234-156c-7.987-4.915-16.511-4.96-24.571 0l-234 156C3.714 163.703 0 170.847 0 177.989v155.999c0 7.143 3.714 14.286 9.715 18.286l234 156.022c7.987 4.915 16.511 4.96 24.571 0l234-156.022c6-3.999 9.715-11.143 9.715-18.286V177.989c-.001-7.142-3.715-14.286-9.716-18.285zM278 63.131l172.286 114.858-76.857 51.429L278 165.703V63.131zm-44 0v102.572l-95.429 63.715-76.857-51.429L234 63.131zM44 219.132l55.143 36.857L44 292.846v-73.714zm190 229.715L61.714 333.989l76.857-51.429L234 346.275v102.572zm22-140.858l-77.715-52 77.715-52 77.715 52-77.715 52zm22 140.858V346.275l95.429-63.715 76.857 51.429L278 448.847zm190-156.001l-55.143-36.857L468 219.132v73.714z"/>
        </symbol>
        <symbol id='icon-linkedin' viewBox="0 0 448 512">
            <!--! Font Awesome Pro 6.4.0 by @fontawesome - https://fontawesome.com License - https://fontawesome.com/license (Commercial License) Copyright 2023 Fonticons, Inc. -->
            <path d="M416 32H31.9C14.3 32 0 46.5 0 64.3v383.4C0 465.5 14.3 480 31.9 480H416c17.6 0 32-14.5 32-32.3V64.3c0-17.8-14.4-32.3-32-32.3zM135.4 416H69V202.2h66.5V416zm-33.2-243c-21.3 0-38.5-17.3-38.5-38.5S80.9 96 102.2 96c21.2 0 38.5 17.3 38.5 38.5 0 21.3-17.2 38.5-38.5 38.5zm282.1 243h-66.4V312c0-24.8-.5-56.7-34.5-56.7-34.6 0-39.9 27-39.9 54.9V416h-66.4V202.2h63.7v29.2h.9c8.9-16.8 30.6-34.5 62.9-34.5 67.2 0 79.7 44.3 79.7 101.9V416z"/>
        </symbol>
        <symbol id='icon-square-github' viewBox="0 0 448 512">
            <!--! Font Awesome Pro 6.4.0 by @fontawesome - https://fontawesome.com License - https://fontawesome.com/license (Commercial License) Copyright 2023 Fonticons, Inc. -->
            <path d="M400 32H48C21.5 32 0 53.5 0 80v352c0 26.5 21.5 48 48 48h352c26.5 0 48-21.5 48-48V80c0-26.5-21.5-48-48-48zM277.3 415.7c-8.4 1.5-11.5-3.7-11.5-8 0-5.4.2-33 .2-55.3 0-15.6-5.2-25.5-11.3-30.7 37-4.1 76-9.2 76-73.1 0-18.2-6.5-27.3-17.1-39 1.7-4.3 7.4-22-1.7-45-13.9-4.3-45.7 17.9-45.7 17.9-13.2-3.7-27.5-5.6-41.6-5.6-14.1 0-28.4 1.9-41.6 5.6 0 0-31.8-22.2-45.7-17.9-9.1 22.9-3.5 40.6-1.7 45-10.6 11.7-15.6 20.8-15.6 39 0 63.6 37.3 69 74.3 73.1-4.8 4.3-9.1 11.7-10.6 22.3-9.5 4.3-33.8 11.7-48.3-13.9-9.1-15.8-25.5-17.1-25.5-17.1-16.2-.2-1.1 10.2-1.1 10.2 10.8 5 18.4 24.2 18.4 24.2 9.7 29.7 56.1 19.7 56.1 19.7 0 13.9.2 36.5.2 40.6 0 4.3-3 9.5-11.5 8-66-22.1-112.2-84.9-112.2-158.3 0-91.8 70.2-161.5 162-161.5S388 165.6 388 257.4c.1 73.4-44.7 136.3-110.7 158.3zm-98.1-61.1c-1.9.4-3.7-.4-3.9-1.7-.2-1.5 1.1-2.8 3-3.2 1.9-.2 3.7.6 3.9 1.9.3 1.3-1 2.6-3 3zm-9.5-.9c0 1.3-1.5 2.4-3.5 2.4-2.2.2-3.7-.9-3.7-2.4 0-1.3 1.5-2.4 3.5-2.4 1.9-.2 3.7.9 3.7 2.4zm-13.7-1.1c-.4 1.3-2.4 1.9-4.1 1.3-1.9-.4-3.2-1.9-2.8-3.2.4-1.3 2.4-1.9 4.1-1.5 2 .6 3.3 2.1 2.8 3.4zm-12.3-5.4c-.9 1.1-2.8.9-4.3-.6-1.5-1.3-1.9-3.2-.9-4.1.9-1.1 2.8-.9 4.3.6 1.3 1.3 1.8 3.3.9 4.1zm-9.1-9.1c-.9.6-2.6 0-3.7-1.5s-1.1-3.2 0-3.9c1.1-.9 2.8-.2 3.7 1.3 1.1 1.5 1.1 3.3 0 4.1zm-6.5-9.7c-.9.9-2.4.4-3.5-.6-1.1-1.3-1.3-2.8-.4-3.5.9-.9 2.4-.4 3.5.6 1.1 1.3 1.3 2.8.4 3.5zm-6.7-7.4c-.4.9-1.7 1.1-2.8.4-1.3-.6-1.9-1.7-1.5-2.6.4-.6 1.5-.9 2.8-.4 1.3.7 1.9 1.8 1.5 2.6z"/>
        </symbol>
        <symbol id='icon-square-twitter' viewBox="0 0 448 512">
            <!--! Font Awesome Pro 6.4.0 by @fontawesome - https://fontawesome.com License - https://fontawesome.com/license (Commercial License) Copyright 2023 Fonticons, Inc. -->
            <path d="M400 32H48C21.5 32 0 53.5 0 80v352c0 26.5 21.5 48 48 48h352c26.5 0 48-21.5 48-48V80c0-26.5-21.5-48-48-48zm-48.9 158.8c.2 2.8.2 5.7.2 8.5 0 86.7-66 186.6-186.6 186.6-37.2 0-71.7-10.8-100.7-29.4 5.3.6 10.4.8 15.8.8 30.7 0 58.9-10.4 81.4-28-28.8-.6-53-19.5-61.3-45.5 10.1 1.5 19.2 1.5 29.6-1.2-30-6.1-52.5-32.5-52.5-64.4v-.8c8.7 4.9 18.9 7.9 29.6 8.3a65.447 65.447 0 0 1-29.2-54.6c0-12.2 3.2-23.4 8.9-33.1 32.3 39.8 80.8 65.8 135.2 68.6-9.3-44.5 24-80.6 64-80.6 18.9 0 35.9 7.9 47.9 20.7 14.8-2.8 29-8.3 41.6-15.8-4.9 15.2-15.2 28-28.8 36.1 13.2-1.4 26-5.1 37.8-10.2-8.9 13.1-20.1 24.7-32.9 34z"/>
        </symbol>
        <symbol id='icon-linkedin90s' viewBox="0 0 64 64">
            <path d="M 13 6 C 9.140625 6 6 9.140625 6 13 L 6 51 C 6 54.859375 9.140625 58 13 58 L 51 58 C 54.859375 58 58 54.859375 58 51 L 58 13 C 58 9.140625 54.859375 6 51 6 Z M 13 8 L 51 8 C 53.757813 8 56 10.242188 56 13 L 56 51 C 56 53.757813 53.757813 56 51 56 L 13 56 C 10.242188 56 8 53.757813 8 51 L 8 13 C 8 10.242188 10.242188 8 13 8 Z M 12 12 C 11.445313 12 11 12.449219 11 13 L 11 15 C 11 15.550781 11.445313 16 12 16 C 12.554688 16 13 15.550781 13 15 L 13 13 C 13 12.449219 12.554688 12 12 12 Z M 17 12 C 16.445313 12 16 12.449219 16 13 L 16 15 C 16 15.550781 16.445313 16 17 16 C 17.554688 16 18 15.550781 18 15 L 18 13 C 18 12.449219 17.554688 12 17 12 Z M 22 12 C 21.445313 12 21 12.449219 21 13 L 21 15 C 21 15.550781 21.445313 16 22 16 C 22.554688 16 23 15.550781 23 15 L 23 13 C 23 12.449219 22.554688 12 22 12 Z M 27 12 C 26.445313 12 26 12.449219 26 13 L 26 15 C 26 15.550781 26.445313 16 27 16 C 27.554688 16 28 15.550781 28 15 L 28 13 C 28 12.449219 27.554688 12 27 12 Z M 32 12 C 31.445313 12 31 12.449219 31 13 L 31 15 C 31 15.550781 31.445313 16 32 16 C 32.554688 16 33 15.550781 33 15 L 33 13 C 33 12.449219 32.554688 12 32 12 Z M 37 12 C 36.445313 12 36 12.449219 36 13 L 36 15 C 36 15.550781 36.445313 16 37 16 C 37.554688 16 38 15.550781 38 15 L 38 13 C 38 12.449219 37.554688 12 37 12 Z M 42 12 C 41.445313 12 41 12.449219 41 13 L 41 15 C 41 15.550781 41.445313 16 42 16 C 42.554688 16 43 15.550781 43 15 L 43 13 C 43 12.449219 42.554688 12 42 12 Z M 47 12 C 46.445313 12 46 12.449219 46 13 L 46 15 C 46 15.550781 46.445313 16 47 16 C 47.554688 16 48 15.550781 48 15 L 48 13 C 48 12.449219 47.554688 12 47 12 Z M 52 12 C 51.445313 12 51 12.449219 51 13 L 51 15 C 51 15.550781 51.445313 16 52 16 C 52.554688 16 53 15.550781 53 15 L 53 13 C 53 12.449219 52.554688 12 52 12 Z M 19.5 18 C 17.019531 18 15 20.019531 15 22.5 C 15 24.980469 17.019531 27 19.5 27 C 21.980469 27 24 24.980469 24 22.5 C 24 20.019531 21.980469 18 19.5 18 Z M 19.5 19.671875 C 21.058594 19.671875 22.328125 20.941406 22.328125 22.5 C 22.328125 24.058594 21.058594 25.328125 19.5 25.328125 C 17.941406 25.328125 16.671875 24.058594 16.671875 22.5 C 16.671875 20.941406 17.941406 19.671875 19.5 19.671875 Z M 39.875 27.4375 C 37.558594 27.4375 35.726563 28.253906 34.433594 29.3125 L 34.433594 28.972656 C 34.433594 28.421875 33.988281 27.972656 33.433594 27.972656 L 27 27.972656 C 26.449219 27.972656 26 28.421875 26 28.972656 L 26 51 C 26 51.550781 26.449219 52 27 52 L 33.703125 52 C 34.257813 52 34.703125 51.550781 34.703125 51 L 34.703125 39.886719 C 34.703125 36.574219 35.523438 35.34375 37.730469 35.34375 C 39.855469 35.34375 40.214844 36.800781 40.214844 40.066406 L 40.214844 51 C 40.214844 51.550781 40.660156 52 41.214844 52 L 47.921875 52 C 48.476563 52 48.921875 51.550781 48.921875 51 L 48.921875 38.722656 C 48.925781 33.144531 47.851563 27.4375 39.875 27.4375 Z M 16 28 C 15.445313 28 15 28.449219 15 29 L 15 51 C 15 51.550781 15.445313 52 16 52 L 23 52 C 23.554688 52 24 51.550781 24 51 L 24 29 C 24 28.449219 23.554688 28 23 28 Z M 39.875 29.4375 C 45.746094 29.4375 46.925781 32.988281 46.925781 38.722656 L 46.925781 50 L 42.214844 50 L 42.214844 40.0625 C 42.214844 37.714844 42.214844 33.339844 37.730469 33.339844 C 32.703125 33.339844 32.703125 38.265625 32.703125 39.886719 L 32.703125 50 L 28 50 L 28 29.972656 L 32.4375 29.972656 L 32.4375 31.925781 C 32.4375 32.476563 32.972656 32.925781 33.527344 32.925781 C 33.898438 32.925781 34.238281 32.71875 34.410156 32.390625 C 35.128906 31.027344 36.992188 29.4375 39.875 29.4375 Z M 17 30 L 22 30 L 22 50 L 17 50 Z"/>
        </symbol>
        <symbol id='icon-js90s' viewBox="0 0 64 64">
            <path d="M 7.0195312 4 C 5.2304679 4 3.805608 5.5890925 4.0214844 7.3652344 L 9.4882812 52.609375 C 9.730631 54.611882 11.161987 56.27744 13.107422 56.830078 L 30.642578 61.808594 C 31.525667 62.058948 32.462021 62.06481 33.349609 61.824219 L 51.791016 56.828125 C 53.79946 56.284327 55.273165 54.557728 55.480469 52.492188 L 60.029297 7.3046875 C 60.206348 5.5475668 58.79166 4 57.025391 4 L 7.0195312 4 z M 7.0195312 6 L 57.025391 6 C 57.649121 6 58.100011 6.5005893 58.039062 7.1054688 L 57.894531 8.5410156 A 1.0001 1.0001 0 0 0 56.984375 7.9863281 A 1.0001 1.0001 0 0 0 56 9 L 56 11 A 1.0001 1.0001 0 0 0 57.5625 11.839844 L 53.490234 52.291016 A 1.0001 1.0001 0 0 0 53.490234 52.292969 C 53.365538 53.535428 52.489086 54.568235 51.269531 54.898438 A 1.0001 1.0001 0 0 0 51.267578 54.898438 L 32.826172 59.894531 C 32.28976 60.039935 31.724364 60.036447 31.189453 59.884766 L 13.654297 54.90625 C 12.473732 54.570888 11.62026 53.572633 11.474609 52.369141 L 6.5878906 11.923828 A 1.0001 1.0001 0 0 0 8 11 L 8 9 A 1.0001 1.0001 0 0 0 6.984375 7.9863281 A 1.0001 1.0001 0 0 0 6.1660156 8.4355469 L 6.0078125 7.125 A 1.0001 1.0001 0 0 0 6.0078125 7.1230469 C 5.9336889 6.5131856 6.3885947 6 7.0195312 6 z M 11.984375 7.9863281 A 1.0001 1.0001 0 0 0 11 9 L 11 11 A 1.0001 1.0001 0 1 0 13 11 L 13 9 A 1.0001 1.0001 0 0 0 11.984375 7.9863281 z M 16.984375 7.9863281 A 1.0001 1.0001 0 0 0 16 9 L 16 11 A 1.0001 1.0001 0 1 0 18 11 L 18 9 A 1.0001 1.0001 0 0 0 16.984375 7.9863281 z M 21.984375 7.9863281 A 1.0001 1.0001 0 0 0 21 9 L 21 11 A 1.0001 1.0001 0 1 0 23 11 L 23 9 A 1.0001 1.0001 0 0 0 21.984375 7.9863281 z M 26.984375 7.9863281 A 1.0001 1.0001 0 0 0 26 9 L 26 11 A 1.0001 1.0001 0 1 0 28 11 L 28 9 A 1.0001 1.0001 0 0 0 26.984375 7.9863281 z M 31.984375 7.9863281 A 1.0001 1.0001 0 0 0 31 9 L 31 11 A 1.0001 1.0001 0 1 0 33 11 L 33 9 A 1.0001 1.0001 0 0 0 31.984375 7.9863281 z M 36.984375 7.9863281 A 1.0001 1.0001 0 0 0 36 9 L 36 11 A 1.0001 1.0001 0 1 0 38 11 L 38 9 A 1.0001 1.0001 0 0 0 36.984375 7.9863281 z M 41.984375 7.9863281 A 1.0001 1.0001 0 0 0 41 9 L 41 11 A 1.0001 1.0001 0 1 0 43 11 L 43 9 A 1.0001 1.0001 0 0 0 41.984375 7.9863281 z M 46.984375 7.9863281 A 1.0001 1.0001 0 0 0 46 9 L 46 11 A 1.0001 1.0001 0 1 0 48 11 L 48 9 A 1.0001 1.0001 0 0 0 46.984375 7.9863281 z M 51.984375 7.9863281 A 1.0001 1.0001 0 0 0 51 9 L 51 11 A 1.0001 1.0001 0 1 0 53 11 L 53 9 A 1.0001 1.0001 0 0 0 51.984375 7.9863281 z M 24 18 A 1.0001 1.0001 0 0 0 23 19 L 23 42.753906 C 20.405407 42.177244 17.81108 41.600233 15.216797 41.023438 A 1.0001 1.0001 0 0 0 14.005859 42.101562 L 14.621094 48.101562 A 1.0001 1.0001 0 0 0 15.341797 48.960938 C 19.803892 50.232965 24.264658 51.505371 28.726562 52.777344 A 1.0001 1.0001 0 0 0 30 51.814453 L 30 19 A 1.0001 1.0001 0 0 0 29 18 L 24 18 z M 35 18 A 1.0001 1.0001 0 0 0 34 19 L 34 41 A 1.0001 1.0001 0 0 0 35.224609 41.974609 C 37.769109 41.386695 40.313073 40.798196 42.857422 40.210938 L 42.679688 42.886719 C 40.033084 43.601846 37.385535 44.319284 34.738281 45.035156 A 1.0001 1.0001 0 0 0 34 46 L 34 52 A 1.0001 1.0001 0 0 0 35.275391 52.960938 C 39.519251 51.741977 43.763673 50.523727 48.007812 49.304688 A 1.0001 1.0001 0 0 0 48.728516 48.429688 L 50.058594 32.96875 A 1.0001 1.0001 0 0 0 48.939453 31.890625 C 46.293542 32.216545 43.646463 32.543069 41 32.869141 L 41 25.005859 C 43.938555 25.020219 46.877684 25.034468 49.816406 25.048828 A 1.0001 1.0001 0 0 0 50.816406 24.134766 L 51.251953 19.085938 A 1.0001 1.0001 0 0 0 50.255859 18 L 35 18 z M 25 20 L 28 20 L 28 50.490234 C 24.180069 49.401377 20.360876 48.313495 16.541016 47.224609 L 16.134766 43.277344 C 18.684337 43.843982 21.23393 44.409774 23.783203 44.976562 A 1.0001 1.0001 0 0 0 25 44 L 25 20 z M 36 20 L 49.166016 20 L 48.904297 23.044922 C 45.937795 23.030424 42.972517 23.014498 40.005859 23 A 1.0001 1.0001 0 0 0 39 24 L 39 34 A 1.0001 1.0001 0 0 0 40.123047 34.992188 C 42.736586 34.670361 45.348348 34.347381 47.960938 34.025391 L 46.794922 47.572266 C 43.196353 48.605796 39.598769 49.638357 36 50.671875 L 36 46.765625 C 38.630854 46.054193 41.260806 45.343303 43.890625 44.632812 A 1.0001 1.0001 0 0 0 44.626953 43.734375 L 44.943359 39 A 1.0001 1.0001 0 0 0 43.720703 37.958984 C 41.146782 38.552833 38.573767 39.147526 36 39.742188 L 36 20 z"/>
        </symbol>
        <symbol id='icon-css' viewBox="0 0 64 64" > 
            <path style="fill:none;stroke:#000000;stroke-width:2;stroke-linejoin:round;stroke-miterlimit:10;" d="M5.015,7.244l5.466,45.246c0.194,1.603,1.337,2.935,2.9,3.379l17.535,4.977c0.709,0.201,1.46,0.206,2.172,0.013l18.442-4.996c1.614-0.437,2.789-1.817,2.955-3.471l4.549-45.187C59.153,6.024,58.22,5,57.025,5H7.019C5.809,5,4.87,6.051,5.015,7.244z"/><line style="fill:none;stroke:#000000;stroke-width:2;stroke-linecap:round;stroke-linejoin:round;stroke-miterlimit:10;" x1="7" y1="9" x2="7" y2="11"/><line style="fill:none;stroke:#000000;stroke-width:2;stroke-linecap:round;stroke-linejoin:round;stroke-miterlimit:10;" x1="12" y1="9" x2="12" y2="11"/><line style="fill:none;stroke:#000000;stroke-width:2;stroke-linecap:round;stroke-linejoin:round;stroke-miterlimit:10;" x1="17" y1="9" x2="17" y2="11"/><line style="fill:none;stroke:#000000;stroke-width:2;stroke-linecap:round;stroke-linejoin:round;stroke-miterlimit:10;" x1="22" y1="9" x2="22" y2="11"/><line style="fill:none;stroke:#000000;stroke-width:2;stroke-linecap:round;stroke-linejoin:round;stroke-miterlimit:10;" x1="27" y1="9" x2="27" y2="11"/><line style="fill:none;stroke:#000000;stroke-width:2;stroke-linecap:round;stroke-linejoin:round;stroke-miterlimit:10;" x1="32" y1="9" x2="32" y2="11"/><line style="fill:none;stroke:#000000;stroke-width:2;stroke-linecap:round;stroke-linejoin:round;stroke-miterlimit:10;" x1="37" y1="9" x2="37" y2="11"/><line style="fill:none;stroke:#000000;stroke-width:2;stroke-linecap:round;stroke-linejoin:round;stroke-miterlimit:10;" x1="42" y1="9" x2="42" y2="11"/><line style="fill:none;stroke:#000000;stroke-width:2;stroke-linecap:round;stroke-linejoin:round;stroke-miterlimit:10;" x1="47" y1="9" x2="47" y2="11"/><line style="fill:none;stroke:#000000;stroke-width:2;stroke-linecap:round;stroke-linejoin:round;stroke-miterlimit:10;" x1="52" y1="9" x2="52" y2="11"/><line style="fill:none;stroke:#000000;stroke-width:2;stroke-linecap:round;stroke-linejoin:round;stroke-miterlimit:10;" x1="57" y1="9" x2="57" y2="11"/><line style="fill:none;stroke:#000000;stroke-width:2;stroke-linecap:round;stroke-miterlimit:10;" x1="40" y1="53.805" x2="42" y2="53.264"/><polyline style="fill:none;stroke:#000000;stroke-width:2;stroke-linecap:round;stroke-miterlimit:10;" points="27,54.537 32.03,55.965 36,54.889 "/><path style="fill:none;stroke:#000000;stroke-width:2;stroke-linejoin:round;stroke-miterlimit:10;" d="M47.018,17H17c-0.614,0-1.083,0.548-0.987,1.155L16.776,23h24.598l-0.709,6H25v6h14.956l-0.901,7.625l-6.961,2.122l-6.147-2.082l-0.444-2.821C25.426,39.358,25.007,39,24.515,39h-4.049c-0.614,0-1.083,0.549-0.988,1.156l1.014,6.439c0.057,0.362,0.31,0.663,0.658,0.78l10.553,3.574C31.804,50.983,31.908,51,32.013,51c0.095,0,0.19-0.014,0.282-0.042l11.643-3.548c0.374-0.114,0.646-0.439,0.691-0.827l2.891-24.465l0.475-4.019C48.064,17.514,47.607,17,47.018,17z"/>
        </symbol>
        <symbol id='icon-html' viewBox='0 0 64 64'>
            <path d="M 7.0195312 4 C 5.2304679 4 3.805608 5.5890925 4.0214844 7.3652344 L 9.4882812 52.609375 C 9.7306311 54.611882 11.161987 56.27744 13.107422 56.830078 L 30.642578 61.808594 C 31.525667 62.058948 32.462021 62.06481 33.349609 61.824219 L 51.791016 56.828125 C 53.79946 56.284327 55.273165 54.557728 55.480469 52.492188 L 60.029297 7.3046875 C 60.206348 5.5475668 58.79166 4 57.025391 4 L 7.0195312 4 z M 7.0195312 6 L 57.025391 6 C 57.649121 6 58.100011 6.5005893 58.039062 7.1054688 L 57.894531 8.5410156 A 1.0001 1.0001 0 0 0 56.984375 7.9863281 A 1.0001 1.0001 0 0 0 56 9 L 56 11 A 1.0001 1.0001 0 0 0 57.5625 11.839844 L 53.490234 52.291016 A 1.0001 1.0001 0 0 0 53.490234 52.292969 C 53.365538 53.535428 52.489086 54.568235 51.269531 54.898438 A 1.0001 1.0001 0 0 0 51.267578 54.898438 L 32.826172 59.894531 C 32.28976 60.039935 31.724364 60.036447 31.189453 59.884766 L 13.654297 54.90625 C 12.473732 54.570888 11.62026 53.572633 11.474609 52.369141 L 6.5878906 11.923828 A 1.0001 1.0001 0 0 0 8 11 L 8 9 A 1.0001 1.0001 0 0 0 6.984375 7.9863281 A 1.0001 1.0001 0 0 0 6.1660156 8.4355469 L 6.0078125 7.125 A 1.0001 1.0001 0 0 0 6.0078125 7.1230469 C 5.9336889 6.5131856 6.3885947 6 7.0195312 6 z M 11.984375 7.9863281 A 1.0001 1.0001 0 0 0 11 9 L 11 11 A 1.0001 1.0001 0 1 0 13 11 L 13 9 A 1.0001 1.0001 0 0 0 11.984375 7.9863281 z M 16.984375 7.9863281 A 1.0001 1.0001 0 0 0 16 9 L 16 11 A 1.0001 1.0001 0 1 0 18 11 L 18 9 A 1.0001 1.0001 0 0 0 16.984375 7.9863281 z M 21.984375 7.9863281 A 1.0001 1.0001 0 0 0 21 9 L 21 11 A 1.0001 1.0001 0 1 0 23 11 L 23 9 A 1.0001 1.0001 0 0 0 21.984375 7.9863281 z M 26.984375 7.9863281 A 1.0001 1.0001 0 0 0 26 9 L 26 11 A 1.0001 1.0001 0 1 0 28 11 L 28 9 A 1.0001 1.0001 0 0 0 26.984375 7.9863281 z M 31.984375 7.9863281 A 1.0001 1.0001 0 0 0 31 9 L 31 11 A 1.0001 1.0001 0 1 0 33 11 L 33 9 A 1.0001 1.0001 0 0 0 31.984375 7.9863281 z M 36.984375 7.9863281 A 1.0001 1.0001 0 0 0 36 9 L 36 11 A 1.0001 1.0001 0 1 0 38 11 L 38 9 A 1.0001 1.0001 0 0 0 36.984375 7.9863281 z M 41.984375 7.9863281 A 1.0001 1.0001 0 0 0 41 9 L 41 11 A 1.0001 1.0001 0 1 0 43 11 L 43 9 A 1.0001 1.0001 0 0 0 41.984375 7.9863281 z M 46.984375 7.9863281 A 1.0001 1.0001 0 0 0 46 9 L 46 11 A 1.0001 1.0001 0 1 0 48 11 L 48 9 A 1.0001 1.0001 0 0 0 46.984375 7.9863281 z M 51.984375 7.9863281 A 1.0001 1.0001 0 0 0 51 9 L 51 11 A 1.0001 1.0001 0 1 0 53 11 L 53 9 A 1.0001 1.0001 0 0 0 51.984375 7.9863281 z M 17 16 C 15.790995 16 14.836382 17.115459 15.025391 18.310547 L 17.544922 34.3125 C 17.697783 35.277313 18.54439 36 19.521484 36 L 38.830078 36 L 38.138672 41.859375 L 32.109375 43.697266 L 26.839844 41.912109 L 26.490234 39.689453 A 1.0001 1.0001 0 0 0 26.490234 39.6875 C 26.337373 38.722734 25.49272 38 24.515625 38 L 20.466797 38 C 19.256706 38 18.303248 39.115803 18.490234 40.310547 A 1.0001 1.0001 0 0 0 18.490234 40.3125 L 19.503906 46.75 C 19.61829 47.47644 20.130602 48.086437 20.830078 48.322266 L 31.382812 51.896484 A 1.0001 1.0001 0 0 0 31.384766 51.896484 C 31.586917 51.964504 31.800735 52 32.013672 52 C 32.206917 52 32.399318 51.970864 32.585938 51.914062 L 44.230469 48.367188 C 44.982161 48.138061 45.532281 47.479866 45.623047 46.697266 L 47.566406 30.236328 C 47.70631 29.063892 46.763112 28 45.582031 28 L 24.650391 28 L 24.019531 24 L 46.527344 24 C 47.532089 24 48.395784 23.233383 48.513672 22.234375 L 48.513672 22.232422 L 48.988281 18.214844 C 49.125673 17.052038 48.188355 16 47.017578 16 L 17 16 z M 17 18 L 47 18 L 46.527344 22 L 24.019531 22 C 22.809409 22 21.855886 23.117245 22.044922 24.3125 L 22.673828 28.3125 C 22.826689 29.277313 23.673296 30 24.650391 30 L 45.580078 30 L 43.638672 46.455078 L 32.013672 49.998047 L 21.478516 46.429688 L 20.466797 40.001953 L 20.466797 40 L 24.515625 40 L 24.958984 42.820312 A 1.0001 1.0001 0 0 0 25.626953 43.611328 L 31.773438 45.693359 A 1.0001 1.0001 0 0 0 32.384766 45.703125 L 39.345703 43.582031 A 1.0001 1.0001 0 0 0 40.048828 42.742188 L 40.816406 36.234375 C 40.954504 35.062531 40.011159 34 38.830078 34 L 19.521484 34 L 17 18 z M 42.005859 52.259766 A 1.0001 1.0001 0 0 0 41.738281 52.298828 L 39.738281 52.839844 A 1.0001 1.0001 0 1 0 40.261719 54.769531 L 42.261719 54.228516 A 1.0001 1.0001 0 0 0 42.005859 52.259766 z M 26.976562 53.533203 A 1.0001 1.0001 0 0 0 26.726562 55.498047 L 32.023438 57.001953 L 36.261719 55.853516 A 1.0001 1.0001 0 1 0 35.738281 53.923828 L 32.037109 54.927734 L 27.273438 53.574219 A 1.0001 1.0001 0 0 0 26.976562 53.533203 z"/>
        </symbol>
        <symbol id='icon-react' viewBox='0 0 64 64'>
            <path d="M 50.257812 1.3007812 C 50.005563 1.3436562 49.769375 1.4820312 49.609375 1.7070312 L 48.451172 3.3398438 C 48.131172 3.7908438 48.2375 4.414375 48.6875 4.734375 C 48.8635 4.859375 49.065625 4.9199219 49.265625 4.9199219 C 49.578625 4.9199219 49.886031 4.7720469 50.082031 4.4980469 L 51.240234 2.8671875 C 51.560234 2.4161875 51.455859 1.7926563 51.005859 1.4726562 C 50.779859 1.3121562 50.510062 1.2579063 50.257812 1.3007812 z M 20.576172 5.1777344 C 19.288873 5.1382179 18.073531 5.3977747 17 6.0175781 C 15.28235 7.0092636 14.179781 8.780195 13.625 10.945312 C 13.070219 13.11043 13.022816 15.708872 13.40625 18.613281 C 13.531931 19.56528 13.721046 20.56135 13.939453 21.574219 C 12.954105 21.891255 11.997781 22.223035 11.111328 22.589844 C 8.404321 23.709986 6.1777317 25.050268 4.5800781 26.613281 C 2.9824245 28.176295 2 30.01663 2 32 C 2 33.98337 2.9824245 35.823705 4.5800781 37.386719 C 6.1777317 38.949732 8.404321 40.290014 11.111328 41.410156 C 11.997781 41.776965 12.954105 42.108745 13.939453 42.425781 C 13.721047 43.43865 13.53193 44.432767 13.40625 45.384766 C 13.022818 48.289174 13.070217 50.887619 13.625 53.052734 C 14.179783 55.21785 15.282351 56.988784 17 57.980469 C 18.717649 58.972154 20.802641 59.041555 22.955078 58.439453 C 25.107513 57.837351 27.381503 56.579188 29.705078 54.794922 C 30.466405 54.210301 31.232325 53.548792 32 52.853516 C 32.767341 53.548444 33.533925 54.210554 34.294922 54.794922 C 36.618497 56.57919 38.892485 57.837349 41.044922 58.439453 C 43.197359 59.041558 45.28235 58.972155 47 57.980469 C 48.71765 56.988784 49.820219 55.217852 50.375 53.052734 C 50.929781 50.887617 50.977184 48.289175 50.59375 45.384766 C 50.468239 44.434052 50.278535 43.43916 50.060547 42.427734 C 51.046093 42.110649 52.002055 41.777032 52.888672 41.410156 C 55.595679 40.290014 57.822268 38.949732 59.419922 37.386719 C 61.017575 35.823705 62 33.98337 62 32 C 62 30.01663 61.017575 28.176295 59.419922 26.613281 C 57.822268 25.050268 55.595679 23.709986 52.888672 22.589844 C 52.002055 22.222968 51.046093 21.889351 50.060547 21.572266 C 50.278593 20.560639 50.468216 19.566126 50.59375 18.615234 C 50.977182 15.710827 50.929782 13.112382 50.375 10.947266 C 49.820217 8.782151 48.717649 7.0112162 47 6.0195312 C 45.282351 5.0278462 43.197359 4.9584458 41.044922 5.5605469 C 38.892487 6.1626493 36.618497 7.4208123 34.294922 9.2050781 C 33.533925 9.7894451 32.767341 10.451556 32 11.146484 C 31.232325 10.451208 30.466405 9.7877461 29.705078 9.203125 C 27.381503 7.4188566 25.107514 6.1606978 22.955078 5.5585938 C 22.147914 5.3328048 21.348551 5.2014442 20.576172 5.1777344 z M 53.902344 5.4101562 C 53.772984 5.420875 53.643484 5.4574844 53.521484 5.5214844 L 51.75 6.4492188 C 51.261 6.7062187 51.071125 7.3127813 51.328125 7.8007812 C 51.507125 8.1427813 51.854844 8.3359375 52.214844 8.3359375 C 52.370844 8.3359375 52.529734 8.2996562 52.677734 8.2226562 L 54.449219 7.2929688 C 54.938219 7.0359687 55.128094 6.4313594 54.871094 5.9433594 C 54.678344 5.5758594 54.290422 5.378 53.902344 5.4101562 z M 20.529297 7.171875 C 21.111026 7.1923624 21.740386 7.2973333 22.416016 7.4863281 C 24.217695 7.9903139 26.303331 9.1161957 28.484375 10.791016 C 29.161249 11.310786 29.850722 11.900408 30.541016 12.521484 C 28.562518 14.485878 26.599906 16.80011 24.71875 19.388672 C 21.536473 19.723474 18.551776 20.266877 15.861328 20.998047 C 15.668539 20.089458 15.50235 19.197848 15.390625 18.351562 C 15.030711 15.625312 15.098125 13.255652 15.5625 11.443359 C 16.026875 9.6310671 16.847892 8.41517 18 7.75 C 18.720067 7.3342687 19.559749 7.1377293 20.529297 7.171875 z M 43.46875 7.1738281 C 44.438299 7.1396823 45.279933 7.3362222 46 7.7519531 C 47.152107 8.4171226 47.973124 9.6310687 48.4375 11.443359 C 48.901876 13.25565 48.967334 15.627268 48.607422 18.353516 C 48.495711 19.199702 48.331429 20.089571 48.138672 20.998047 C 45.448224 20.266877 42.463527 19.723474 39.28125 19.388672 C 37.400262 16.800114 35.437349 14.487945 33.458984 12.523438 C 34.149258 11.902382 34.836816 11.312724 35.513672 10.792969 C 37.694716 9.1181515 39.780353 7.9903121 41.582031 7.4863281 C 42.257661 7.2973341 42.887021 7.1943156 43.46875 7.1738281 z M 55.421875 10.509766 L 53.443359 10.806641 C 52.897359 10.888641 52.521516 11.399313 52.603516 11.945312 C 52.678516 12.442313 53.104797 12.796875 53.591797 12.796875 C 53.640797 12.796875 53.689234 12.792156 53.740234 12.785156 L 55.71875 12.488281 C 56.26475 12.406281 56.642547 11.897562 56.560547 11.351562 C 56.478547 10.806563 55.969875 10.437766 55.421875 10.509766 z M 32 13.896484 C 33.548476 15.431453 35.102944 17.198827 36.619141 19.164062 C 35.109922 19.065811 33.575415 19 32 19 C 30.423909 19 28.88874 19.065728 27.378906 19.164062 C 28.895457 17.198368 30.451166 15.431702 32 13.896484 z M 53.832031 15.605469 C 53.283031 15.574469 52.806391 15.993922 52.775391 16.544922 C 52.742391 17.096922 53.164797 17.570563 53.716797 17.601562 L 55.712891 17.716797 C 55.732891 17.717797 55.751484 17.71875 55.771484 17.71875 C 56.296484 17.71875 56.736578 17.306391 56.767578 16.775391 C 56.800578 16.223391 56.380125 15.751703 55.828125 15.720703 L 53.832031 15.605469 z M 32 21 C 34.126956 21 36.193271 21.104303 38.185547 21.287109 C 39.339785 22.920819 40.4621 24.658327 41.525391 26.5 C 42.589111 28.342418 43.533132 30.182832 44.371094 32 C 43.533132 33.817168 42.589112 35.657581 41.525391 37.5 C 40.4621 39.341674 39.339785 41.07918 38.185547 42.712891 C 36.193271 42.895697 34.126956 43 32 43 C 29.873044 43 27.806729 42.895697 25.814453 42.712891 C 24.659703 41.078591 23.536392 39.342444 22.472656 37.5 C 21.408936 35.657582 20.466868 33.815215 19.628906 31.998047 C 20.466432 30.18214 21.409696 28.341101 22.472656 26.5 C 23.536393 24.657554 24.659703 22.92141 25.814453 21.287109 C 27.806729 21.104303 29.873044 21 32 21 z M 23.193359 21.580078 C 22.353311 22.838428 21.528254 24.135109 20.740234 25.5 C 19.952796 26.863883 19.243551 28.226342 18.574219 29.582031 C 17.630316 27.286243 16.877372 25.057814 16.322266 22.949219 C 18.426118 22.37557 20.732907 21.910562 23.193359 21.580078 z M 40.804688 21.580078 C 43.265867 21.910579 45.573328 22.375419 47.677734 22.949219 C 47.122628 25.057866 46.369708 27.288129 45.425781 29.583984 C 44.756015 28.227239 44.045871 26.864958 43.257812 25.5 C 42.470075 24.135599 41.644419 22.838017 40.804688 21.580078 z M 14.402344 23.525391 C 15.114448 26.220987 16.136241 29.07669 17.4375 32 C 16.136199 34.923401 15.114451 37.77894 14.402344 40.474609 C 13.519423 40.187359 12.665448 39.886821 11.876953 39.560547 C 9.3359972 38.509116 7.3158177 37.265338 5.9785156 35.957031 C 4.6412136 34.648724 4 33.330339 4 32 C 4 30.669661 4.6412136 29.351276 5.9785156 28.042969 C 7.3158177 26.734662 9.3359972 25.490884 11.876953 24.439453 C 12.665448 24.113179 13.519423 23.812641 14.402344 23.525391 z M 49.595703 23.525391 C 50.479265 23.812803 51.334031 24.112964 52.123047 24.439453 C 54.664003 25.490884 56.684182 26.734662 58.021484 28.042969 C 59.358786 29.351276 60 30.669661 60 32 C 60 33.330339 59.358786 34.648724 58.021484 35.957031 C 56.684182 37.265338 54.664003 38.509116 52.123047 39.560547 C 51.334552 39.886821 50.480577 40.187359 49.597656 40.474609 C 48.885654 37.778841 47.861826 34.923571 46.560547 32 C 47.861498 29.077167 48.883729 26.220559 49.595703 23.525391 z M 32 25 C 28.145849 25 25 28.145852 25 32 C 25 35.854148 28.145849 39 32 39 C 35.854151 39 39 35.854148 39 32 C 39 28.145852 35.854151 25 32 25 z M 32 27 C 34.773271 27 37 29.226731 37 32 C 37 34.773269 34.773271 37 32 37 C 29.226729 37 27 34.773269 27 32 C 27 29.226731 29.226729 27 32 27 z M 45.425781 34.416016 C 46.369708 36.711871 47.122627 38.942133 47.677734 41.050781 C 45.573328 41.624581 43.265867 42.089421 40.804688 42.419922 C 41.644419 41.161982 42.470075 39.864402 43.257812 38.5 C 44.045872 37.135041 44.756015 35.772761 45.425781 34.416016 z M 18.574219 34.417969 C 19.243456 35.773426 19.952933 37.136354 20.740234 38.5 C 21.528254 39.86489 22.353311 41.161572 23.193359 42.419922 C 20.732907 42.089438 18.426118 41.62443 16.322266 41.050781 C 16.877372 38.942187 17.630316 36.713757 18.574219 34.417969 z M 15.861328 43.001953 C 18.551776 43.733123 21.536473 44.276526 24.71875 44.611328 C 26.599906 47.199889 28.562518 49.514121 30.541016 51.478516 C 29.850722 52.099591 29.161249 52.687262 28.484375 53.207031 C 26.303331 54.881848 24.217694 56.009688 22.416016 56.513672 C 20.614338 57.017656 19.152107 56.91517 18 56.25 C 16.847893 55.584831 16.024924 54.368932 15.560547 52.556641 C 15.096171 50.74435 15.030713 48.372732 15.390625 45.646484 C 15.502349 44.8002 15.66854 43.910542 15.861328 43.001953 z M 48.138672 43.001953 C 48.331429 43.91043 48.49571 44.800297 48.607422 45.646484 C 48.967336 48.372734 48.901876 50.744348 48.4375 52.556641 C 47.973126 54.368933 47.152108 55.582877 46 56.248047 C 44.847892 56.913217 43.385662 57.017658 41.583984 56.513672 C 39.782305 56.009686 37.694716 54.881851 35.513672 53.207031 C 34.836797 52.687261 34.149278 52.097639 33.458984 51.476562 C 35.437349 49.512056 37.400262 47.199887 39.28125 44.611328 C 42.463527 44.276526 45.448224 43.733123 48.138672 43.001953 z M 8.6113281 43.716797 C 8.0603281 43.642797 7.5602813 44.028172 7.4882812 44.576172 C 7.4142813 45.124172 7.7996562 45.626219 8.3476562 45.699219 L 10.330078 45.962891 C 10.375078 45.968891 10.418891 45.972656 10.462891 45.972656 C 10.956891 45.972656 11.387125 45.605516 11.453125 45.103516 C 11.527125 44.555516 11.14175 44.053469 10.59375 43.980469 L 8.6113281 43.716797 z M 27.378906 44.835938 C 28.88874 44.934272 30.423909 45 32 45 C 33.575415 45 35.109922 44.934189 36.619141 44.835938 C 35.102908 46.801221 33.548512 48.568522 32 50.103516 C 30.451204 48.568335 28.895421 46.801574 27.378906 44.835938 z M 10.160156 48.818359 L 8.1621094 48.886719 C 7.6091094 48.904719 7.1763125 49.365969 7.1953125 49.917969 C 7.2133125 50.458969 7.6573594 50.884766 8.1933594 50.884766 C 8.2053594 50.884766 8.2185156 50.885766 8.2285156 50.884766 L 10.226562 50.816406 C 10.779563 50.798406 11.212359 50.337156 11.193359 49.785156 C 11.175359 49.232156 10.711156 48.781359 10.160156 48.818359 z M 11.025391 53.511719 C 10.896047 53.4985 10.763359 53.511234 10.630859 53.552734 L 8.7167969 54.136719 C 8.1887969 54.297719 7.8917344 54.856766 8.0527344 55.384766 C 8.1837344 55.815766 8.5807656 56.09375 9.0097656 56.09375 C 9.1057656 56.09375 9.2027812 56.078828 9.3007812 56.048828 L 11.214844 55.464844 C 11.742844 55.303844 12.040906 54.744797 11.878906 54.216797 C 11.758906 53.820797 11.413422 53.551375 11.025391 53.511719 z M 13.144531 57.552734 C 12.889406 57.533609 12.626969 57.610062 12.417969 57.789062 L 10.900391 59.09375 C 10.481391 59.45275 10.433969 60.084906 10.792969 60.503906 C 10.990969 60.734906 11.271734 60.851562 11.552734 60.851562 C 11.783734 60.851562 12.015125 60.771375 12.203125 60.609375 L 13.720703 59.306641 C 14.139703 58.947641 14.187125 58.315484 13.828125 57.896484 C 13.647625 57.686984 13.399656 57.571859 13.144531 57.552734 z"/>
        </symbol>
        <symbol id='icon-wordpress' viewBox='0 0 64 64'>
            <path d="M 31 4 C 19.902344 4 10.242188 10.269531 5.367188 19.453125 C 5.351563 19.484375 5.332031 19.519531 5.320313 19.554688 C 3.203125 23.578125 2 28.148438 2 33 C 2 45.578125 10.050781 56.308594 21.269531 60.316406 C 21.308594 60.332031 21.347656 60.34375 21.386719 60.355469 C 24.398438 61.417969 27.632813 62 31 62 C 46.988281 62 60 48.988281 60 33 C 60 26.996094 58.164063 21.414063 55.027344 16.78125 C 54.953125 16.625 54.875 16.480469 54.785156 16.339844 C 54.605469 16.054688 54.386719 15.796875 54.152344 15.558594 C 48.851563 8.542969 40.449219 4 31 4 Z M 31 6 C 38.480469 6 45.253906 9.058594 50.152344 13.984375 C 49.796875 13.988281 49.4375 14.011719 49.074219 14.074219 C 46.523438 14.515625 44.585938 16.386719 44.011719 18.949219 C 43.382813 21.753906 44.5 23.9375 45.578125 26.046875 C 46.6875 28.207031 47.738281 30.253906 46.925781 32.925781 L 43.234375 42.390625 L 35.453125 22 L 37 22 C 37.554688 22 38 21.554688 38 21 C 38 20.445313 37.554688 20 37 20 L 23 20 C 22.445313 20 22 20.445313 22 21 C 22 21.554688 22.445313 22 23 22 L 24.980469 22 L 28.582031 31.238281 L 24.234375 42.390625 L 16.453125 22 L 19 22 C 19.554688 22 20 21.554688 20 21 C 20 20.445313 19.554688 20 19 20 L 7.347656 20 L 7.347656 19.996094 C 11.949219 11.660156 20.824219 6 31 6 Z M 31.011719 9 C 30.457031 9 30.011719 9.445313 30.011719 10 L 30.011719 12 C 30.011719 12.554688 30.457031 13 31.011719 13 C 31.566406 13 32.011719 12.554688 32.011719 12 L 32.011719 10 C 32.011719 9.445313 31.566406 9 31.011719 9 Z M 25.585938 9.742188 C 25.457031 9.722656 25.320313 9.730469 25.1875 9.765625 C 24.65625 9.910156 24.335938 10.457031 24.480469 10.988281 L 25 12.921875 C 25.117188 13.371094 25.523438 13.664063 25.964844 13.664063 C 26.050781 13.664063 26.136719 13.652344 26.222656 13.628906 C 26.757813 13.488281 27.074219 12.9375 26.933594 12.40625 L 26.410156 10.472656 C 26.304688 10.070313 25.972656 9.792969 25.585938 9.742188 Z M 36.441406 9.742188 C 36.054688 9.796875 35.71875 10.070313 35.609375 10.472656 L 35.09375 12.40625 C 34.949219 12.9375 35.269531 13.488281 35.800781 13.628906 C 35.886719 13.652344 35.972656 13.664063 36.0625 13.664063 C 36.5 13.664063 36.90625 13.371094 37.027344 12.921875 L 37.542969 10.988281 C 37.6875 10.457031 37.367188 9.910156 36.835938 9.765625 C 36.703125 9.730469 36.570313 9.722656 36.441406 9.742188 Z M 20.136719 11.890625 C 20.007813 11.90625 19.878906 11.945313 19.761719 12.015625 C 19.28125 12.292969 19.121094 12.902344 19.394531 13.378906 L 20.394531 15.109375 C 20.582031 15.433594 20.917969 15.609375 21.265625 15.609375 C 21.433594 15.609375 21.605469 15.570313 21.761719 15.480469 C 22.242188 15.203125 22.40625 14.589844 22.128906 14.109375 L 21.128906 12.378906 C 20.921875 12.023438 20.523438 11.839844 20.136719 11.890625 Z M 41.886719 11.890625 C 41.5 11.839844 41.101563 12.023438 40.894531 12.382813 L 39.894531 14.113281 C 39.621094 14.589844 39.78125 15.203125 40.261719 15.480469 C 40.417969 15.570313 40.589844 15.613281 40.761719 15.613281 C 41.109375 15.613281 41.445313 15.433594 41.628906 15.113281 L 42.628906 13.382813 C 42.90625 12.902344 42.738281 12.292969 42.261719 12.015625 C 42.140625 11.945313 42.015625 11.90625 41.886719 11.890625 Z M 50.347656 15.980469 C 51.25 16.015625 52.066406 16.332031 52.644531 16.878906 C 52.851563 17.152344 53.046875 17.433594 53.238281 17.714844 C 54.726563 20.90625 51.804688 30.148438 49.503906 35.441406 L 40.9375 57.421875 L 32.367188 35.441406 C 32.363281 35.4375 32.359375 35.433594 32.359375 35.425781 C 32.328125 35.351563 32.273438 35.285156 32.226563 35.21875 C 32.199219 35.183594 32.175781 35.132813 32.140625 35.097656 C 32.105469 35.0625 32.050781 35.039063 32.007813 35.003906 C 31.945313 34.960938 31.886719 34.914063 31.816406 34.886719 C 31.8125 34.882813 31.808594 34.875 31.800781 34.875 C 31.753906 34.855469 31.703125 34.859375 31.65625 34.847656 C 31.582031 34.832031 31.511719 34.808594 31.4375 34.808594 C 31.363281 34.808594 31.289063 34.832031 31.21875 34.847656 C 31.167969 34.859375 31.121094 34.855469 31.074219 34.875 C 31.066406 34.875 31.0625 34.882813 31.058594 34.886719 C 30.984375 34.914063 30.921875 34.964844 30.859375 35.011719 C 30.816406 35.042969 30.765625 35.0625 30.730469 35.097656 C 30.695313 35.136719 30.675781 35.183594 30.644531 35.222656 C 30.597656 35.289063 30.546875 35.351563 30.515625 35.421875 C 30.511719 35.429688 30.507813 35.433594 30.503906 35.441406 L 21.9375 57.421875 L 8.125 22 L 14.3125 22 L 23.292969 45.523438 C 23.296875 45.53125 23.304688 45.539063 23.308594 45.546875 C 23.320313 45.578125 23.335938 45.601563 23.351563 45.628906 C 23.394531 45.707031 23.441406 45.777344 23.5 45.84375 C 23.527344 45.871094 23.554688 45.894531 23.582031 45.921875 C 23.648438 45.976563 23.726563 46.023438 23.808594 46.0625 C 23.828125 46.074219 23.839844 46.089844 23.863281 46.097656 C 23.875 46.101563 23.882813 46.097656 23.894531 46.105469 C 24 46.140625 24.113281 46.167969 24.226563 46.167969 C 24.339844 46.167969 24.449219 46.140625 24.550781 46.105469 C 24.5625 46.101563 24.570313 46.105469 24.582031 46.097656 C 24.605469 46.089844 24.621094 46.074219 24.640625 46.0625 C 24.722656 46.027344 24.796875 45.980469 24.863281 45.921875 C 24.894531 45.898438 24.921875 45.875 24.949219 45.84375 C 25.007813 45.785156 25.054688 45.710938 25.097656 45.632813 C 25.113281 45.605469 25.132813 45.582031 25.144531 45.550781 C 25.148438 45.542969 25.152344 45.535156 25.15625 45.527344 L 30.566406 31.65625 C 30.570313 31.644531 30.574219 31.636719 30.578125 31.625 L 30.589844 31.601563 C 30.597656 31.574219 30.59375 31.542969 30.601563 31.515625 C 30.628906 31.421875 30.652344 31.332031 30.652344 31.234375 C 30.652344 31.167969 30.632813 31.105469 30.617188 31.039063 C 30.605469 30.984375 30.609375 30.933594 30.589844 30.878906 L 27.128906 22 L 33.3125 22 L 42.296875 45.523438 C 42.300781 45.53125 42.304688 45.539063 42.308594 45.546875 C 42.320313 45.578125 42.339844 45.601563 42.355469 45.628906 C 42.394531 45.707031 42.441406 45.777344 42.5 45.84375 C 42.527344 45.871094 42.554688 45.894531 42.582031 45.921875 C 42.652344 45.976563 42.726563 46.023438 42.808594 46.0625 C 42.828125 46.074219 42.839844 46.089844 42.863281 46.097656 C 42.875 46.101563 42.882813 46.101563 42.894531 46.105469 C 43 46.140625 43.113281 46.167969 43.230469 46.167969 C 43.234375 46.167969 43.234375 46.164063 43.238281 46.164063 C 43.289063 46.164063 43.339844 46.144531 43.390625 46.136719 C 43.453125 46.125 43.519531 46.125 43.582031 46.101563 C 43.59375 46.097656 43.59375 46.09375 43.605469 46.089844 C 43.675781 46.0625 43.734375 46.011719 43.796875 45.96875 C 43.839844 45.933594 43.894531 45.910156 43.933594 45.875 C 43.96875 45.835938 43.992188 45.789063 44.019531 45.746094 C 44.066406 45.679688 44.117188 45.621094 44.144531 45.550781 C 44.148438 45.542969 44.15625 45.539063 44.160156 45.53125 L 48.8125 33.582031 C 49.886719 30.0625 48.546875 27.441406 47.363281 25.132813 C 46.359375 23.175781 45.496094 21.484375 45.964844 19.386719 C 46.363281 17.601563 47.65625 16.351563 49.421875 16.046875 C 49.734375 15.988281 50.046875 15.96875 50.347656 15.980469 Z M 55.558594 21.804688 C 57.121094 25.21875 58 29.007813 58 33 C 58 43.488281 51.984375 52.59375 43.222656 57.0625 L 51.355469 36.203125 C 51.835938 35.089844 55 27.625 55.558594 21.804688 Z M 6.152344 22.4375 L 19.851563 57.578125 C 10.511719 53.328125 4 43.914063 4 33 C 4 29.253906 4.765625 25.683594 6.152344 22.4375 Z M 31.4375 38.5625 L 39.285156 58.691406 C 36.671875 59.539063 33.890625 60 31 60 C 28.394531 60 25.878906 59.621094 23.496094 58.933594 Z"/>
        </symbol>
</svg>