<?xml version="1.0" encoding="utf-8"?>
<!-- Generator: Adobe Illustrator 25.3.1, SVG Export Plug-In . SVG Version: 6.00 Build 0)  -->
<!DOCTYPE svg PUBLIC "-//W3C//DTD SVG 1.1//EN" "http://www.w3.org/Graphics/SVG/1.1/DTD/svg11.dtd" [
	<!ENTITY ns_extend "http://ns.adobe.com/Extensibility/1.0/">
	<!ENTITY ns_ai "http://ns.adobe.com/AdobeIllustrator/10.0/">
	<!ENTITY ns_graphs "http://ns.adobe.com/Graphs/1.0/">
	<!ENTITY ns_vars "http://ns.adobe.com/Variables/1.0/">
	<!ENTITY ns_imrep "http://ns.adobe.com/ImageReplacement/1.0/">
	<!ENTITY ns_sfw "http://ns.adobe.com/SaveForWeb/1.0/">
	<!ENTITY ns_custom "http://ns.adobe.com/GenericCustomNamespace/1.0/">
	<!ENTITY ns_adobe_xpath "http://ns.adobe.com/XPath/1.0/">
]>
<svg version="1.1" id="Capa_1" xmlns:x="&ns_extend;" xmlns:i="&ns_ai;" xmlns:graph="&ns_graphs;"
	 xmlns="http://www.w3.org/2000/svg" xmlns:xlink="http://www.w3.org/1999/xlink" x="0px" y="0px" viewBox="0 0 4000 2000"
	 style="enable-background:new 0 0 4000 4000;" xml:space="preserve">
<style type="text/css">
	.st0{fill:#E8FFA8;}
	.st1{fill:#7801EF;}
	.st2{fill:#EF81A3;}
	.st3{fill:#A5F3DE;}
</style>
<metadata>
	<sfw  xmlns="&ns_sfw;">
		<slices></slices>
		<sliceSourceBounds  bottomLeftOrigin="true" height="1894.6" width="3842.2" x="94.3" y="-1381.8"></sliceSourceBounds>
	</sfw>
</metadata>
<path d="M1662.1,198.6c0,23.3-17.7,42.2-39.5,42.2s-39.5-18.9-39.5-42.2c0-23.3,17.7-42.2,39.5-42.2S1662.1,175.3,1662.1,198.6z
	 M1998.1,738.5c-21.8,0-39.5,18.9-39.5,42.2c0,23.3,17.7,42.2,39.5,42.2c21.8,0,39.5-18.9,39.5-42.2
	C2037.6,757.4,2019.9,738.5,1998.1,738.5z M942.9,957.8c-21.8,0-39.5,18.9-39.5,42.2s17.7,42.2,39.5,42.2
	c21.8,0,39.5-18.9,39.5-42.2S964.7,957.8,942.9,957.8z M608.9,1401.6c-21.8,0-39.5,18.9-39.5,42.2c0,23.3,17.7,42.2,39.5,42.2
	c21.8,0,39.5-18.9,39.5-42.2C648.4,1420.5,630.7,1401.6,608.9,1401.6z M1429.5,1513.3c-21.8,0-39.5,18.9-39.5,42.2
	c0,23.3,17.7,42.2,39.5,42.2c21.8,0,39.5-18.9,39.5-42.2C1469.1,1532.1,1451.4,1513.3,1429.5,1513.3z M2610.3,1491.8
	c-21.8,0-39.5,18.9-39.5,42.2c0,23.3,17.7,42.2,39.5,42.2c21.8,0,39.5-18.9,39.5-42.2C2649.8,1510.7,2632.1,1491.8,2610.3,1491.8z
	 M1820.7,1535.7c-21.8,0-39.5,18.9-39.5,42.2c0,23.3,17.7,42.2,39.5,42.2c21.8,0,39.5-18.9,39.5-42.2
	C1860.2,1554.6,1842.5,1535.7,1820.7,1535.7z M3812.4,769.6c-21.8,0-39.5,18.9-39.5,42.2c0,23.3,17.7,42.2,39.5,42.2
	c21.8,0,39.5-18.9,39.5-42.2C3851.9,788.5,3834.2,769.6,3812.4,769.6z M3799.7,1774.1c-21.8,0-39.5,18.9-39.5,42.2
	c0,23.3,17.7,42.2,39.5,42.2s39.5-18.9,39.5-42.2C3839.2,1792.9,3821.5,1774.1,3799.7,1774.1z M3400.2,1392.4
	c-21.8,0-39.5,18.9-39.5,42.2s17.7,42.2,39.5,42.2c21.8,0,39.5-18.9,39.5-42.2S3422.1,1392.4,3400.2,1392.4z M2892.2,90.4
	c-21.8,0-39.5,18.9-39.5,42.2c0,23.3,17.7,42.2,39.5,42.2c21.8,0,39.5-18.9,39.5-42.2C2931.7,109.3,2914,90.4,2892.2,90.4z
	 M3004.9,647.7c-21.8,0-39.5,18.9-39.5,42.2c0,23.3,17.7,42.2,39.5,42.2c21.8,0,39.5-18.9,39.5-42.2
	C3044.4,666.5,3026.7,647.7,3004.9,647.7z M1469.1,1262.1c-21.8,0-39.5,18.9-39.5,42.2c0,23.3,17.7,42.2,39.5,42.2
	s39.5-18.9,39.5-42.2C1508.6,1281,1490.9,1262.1,1469.1,1262.1z M1011.6,514.6c-21.8,0-39.5,18.9-39.5,42.2
	c0,23.3,17.7,42.2,39.5,42.2s39.5-18.9,39.5-42.2C1051.2,533.5,1033.5,514.6,1011.6,514.6z M150.9,509.4
	c-21.8,0-39.5,18.9-39.5,42.2c0,23.3,17.7,42.2,39.5,42.2s39.5-18.9,39.5-42.2C190.4,528.3,172.7,509.4,150.9,509.4z M133.8,1130.5
	c-21.8,0-39.5,18.9-39.5,42.2c0,23.3,17.7,42.2,39.5,42.2s39.5-18.9,39.5-42.2C173.3,1149.4,155.6,1130.5,133.8,1130.5z
	 M1241.9,1837.8c-21.8,0-39.5,18.9-39.5,42.2c0,23.3,17.7,42.2,39.5,42.2s39.5-18.9,39.5-42.2
	C1281.4,1856.7,1263.7,1837.8,1241.9,1837.8z M3068.7,1837.8c-21.8,0-39.5,18.9-39.5,42.2c0,23.3,17.7,42.2,39.5,42.2
	c21.8,0,39.5-18.9,39.5-42.2C3108.3,1856.7,3090.6,1837.8,3068.7,1837.8z M2270.5,114.2c-21.8,0-39.5,18.9-39.5,42.2
	c0,23.3,17.7,42.2,39.5,42.2c21.8,0,39.5-18.9,39.5-42.2C2310,133.1,2292.3,114.2,2270.5,114.2z M2084.9,416.8
	c-13.4,0-24.3,11.6-24.3,25.9c0,14.3,10.9,25.9,24.3,25.9c13.4,0,24.3-11.6,24.3-25.9C2109.2,428.4,2098.4,416.8,2084.9,416.8z
	 M2661.2,736.6c-13.4,0-24.3,11.6-24.3,25.9c0,14.3,10.9,25.9,24.3,25.9c13.4,0,24.3-11.6,24.3-25.9
	C2685.6,748.2,2674.7,736.6,2661.2,736.6z M3158.9,785.8c-13.4,0-24.3,11.6-24.3,25.9c0,14.3,10.9,25.9,24.3,25.9
	s24.3-11.6,24.3-25.9C3183.3,797.4,3172.4,785.8,3158.9,785.8z M1116,1037c-13.4,0-24.3,11.6-24.3,25.9s10.9,25.9,24.3,25.9
	c13.4,0,24.3-11.6,24.3-25.9S1129.4,1037,1116,1037z M2796.1,1196.4c-13.4,0-24.3,11.6-24.3,25.9c0,14.3,10.9,25.9,24.3,25.9
	c13.4,0,24.3-11.6,24.3-25.9C2820.4,1208,2809.5,1196.4,2796.1,1196.4z M3439.8,779c-13.4,0-24.3,11.6-24.3,25.9
	c0,14.3,10.9,25.9,24.3,25.9s24.3-11.6,24.3-25.9C3464.1,790.6,3453.2,779,3439.8,779z M3827.6,1424.8c-13.4,0-24.3,11.6-24.3,25.9
	s10.9,25.9,24.3,25.9c13.4,0,24.3-11.6,24.3-25.9S3841,1424.8,3827.6,1424.8z M3900.5,1595.2c-13.4,0-24.3,11.6-24.3,25.9
	s10.9,25.9,24.3,25.9c13.4,0,24.3-11.6,24.3-25.9S3913.9,1595.2,3900.5,1595.2z M3235.1,1196.4c-13.4,0-24.3,11.6-24.3,25.9
	c0,14.3,10.9,25.9,24.3,25.9c13.4,0,24.3-11.6,24.3-25.9C3259.4,1208,3248.6,1196.4,3235.1,1196.4z M1702.6,1134.1
	c-13.4,0-24.3,11.6-24.3,25.9c0,14.3,10.9,25.9,24.3,25.9s24.3-11.6,24.3-25.9C1726.9,1145.7,1716,1134.1,1702.6,1134.1z
	 M1891.6,588.2c-13.4,0-24.3,11.6-24.3,25.9c0,14.3,10.9,25.9,24.3,25.9c13.4,0,24.3-11.6,24.3-25.9
	C1915.9,599.8,1905,588.2,1891.6,588.2z M2189.2,858.8c-13.4,0-24.3,11.6-24.3,25.9c0,14.3,10.9,25.9,24.3,25.9s24.3-11.6,24.3-25.9
	C2213.5,870.4,2202.6,858.8,2189.2,858.8z M1860.2,106.6c-13.4,0-24.3,11.6-24.3,25.9c0,14.3,10.9,25.9,24.3,25.9
	c13.4,0,24.3-11.6,24.3-25.9C1884.5,118.2,1873.6,106.6,1860.2,106.6z M2394.9,312.7c-13.4,0-24.3,11.6-24.3,25.9
	c0,14.3,10.9,25.9,24.3,25.9c13.4,0,24.3-11.6,24.3-25.9C2419.2,324.3,2408.3,312.7,2394.9,312.7z M2796.1,286.8
	c-13.4,0-24.3,11.6-24.3,25.9c0,14.3,10.9,25.9,24.3,25.9c13.4,0,24.3-11.6,24.3-25.9C2820.4,298.4,2809.5,286.8,2796.1,286.8z
	 M3145.2,88.3c-13.4,0-24.3,11.6-24.3,25.9s10.9,25.9,24.3,25.9s24.3-11.6,24.3-25.9S3158.6,88.3,3145.2,88.3z M872.7,377.9
	c-13.4,0-24.3,11.6-24.3,25.9s10.9,25.9,24.3,25.9c13.4,0,24.3-11.6,24.3-25.9S886.1,377.9,872.7,377.9z M989.3,779
	c-13.4,0-24.3,11.6-24.3,25.9c0,14.3,10.9,25.9,24.3,25.9c13.4,0,24.3-11.6,24.3-25.9C1013.6,790.6,1002.7,779,989.3,779z
	 M336.8,340.2c-13.4,0-24.3,11.6-24.3,25.9c0,14.3,10.9,25.9,24.3,25.9c13.4,0,24.3-11.6,24.3-25.9
	C361.1,351.9,350.2,340.2,336.8,340.2z M1091.7,39c-13.4,0-24.3,11.6-24.3,25.9s10.9,25.9,24.3,25.9c13.4,0,24.3-11.6,24.3-25.9
	S1105.1,39,1091.7,39z M150.9,88.3c-13.4,0-24.3,11.6-24.3,25.9s10.9,25.9,24.3,25.9c13.4,0,24.3-11.6,24.3-25.9
	S164.3,88.3,150.9,88.3z M743.1,39c-13.4,0-24.3,11.6-24.3,25.9s10.9,25.9,24.3,25.9c13.4,0,24.3-11.6,24.3-25.9S756.5,39,743.1,39z
	 M903.3,195.1c-13.4,0-24.3,11.6-24.3,25.9c0,14.3,10.9,25.9,24.3,25.9s24.3-11.6,24.3-25.9C927.6,206.7,916.8,195.1,903.3,195.1z
	 M703.9,1196.4c-13.4,0-24.3,11.6-24.3,25.9c0,14.3,10.9,25.9,24.3,25.9c13.4,0,24.3-11.6,24.3-25.9
	C728.2,1208,717.3,1196.4,703.9,1196.4z M1346.4,1381.1c-13.4,0-24.3,11.6-24.3,25.9s10.9,25.9,24.3,25.9s24.3-11.6,24.3-25.9
	S1359.8,1381.1,1346.4,1381.1z M119,1409.2c-13.4,0-24.3,11.6-24.3,25.9s10.9,25.9,24.3,25.9c13.4,0,24.3-11.6,24.3-25.9
	S132.4,1409.2,119,1409.2z M1891.6,1854c-13.4,0-24.3,11.6-24.3,25.9c0,14.3,10.9,25.9,24.3,25.9c13.4,0,24.3-11.6,24.3-25.9
	C1915.9,1865.6,1905,1854,1891.6,1854z M2480.2,1860.1c-13.4,0-24.3,11.6-24.3,25.9s10.9,25.9,24.3,25.9c13.4,0,24.3-11.6,24.3-25.9
	S2493.6,1860.1,2480.2,1860.1z M2394.9,989.6c-13.4,0-24.3,11.6-24.3,25.9c0,14.3,10.9,25.9,24.3,25.9c13.4,0,24.3-11.6,24.3-25.9
	C2419.2,1001.3,2408.3,989.6,2394.9,989.6z M3851.9,1170.5c-13.4,0-24.3,11.6-24.3,25.9c0,14.3,10.9,25.9,24.3,25.9
	s24.3-11.6,24.3-25.9C3876.2,1182.1,3865.3,1170.5,3851.9,1170.5z M3803.3,503.3c-13.4,0-24.3,11.6-24.3,25.9s10.9,25.9,24.3,25.9
	c13.4,0,24.3-11.6,24.3-25.9S3816.7,503.3,3803.3,503.3z M1508.6,360.7c-13.4,0-24.3,11.6-24.3,25.9c0,14.3,10.9,25.9,24.3,25.9
	s24.3-11.6,24.3-25.9C1532.9,372.3,1522,360.7,1508.6,360.7z M453.9,885.4c-13.4,0-24.3,11.6-24.3,25.9c0,14.3,10.9,25.9,24.3,25.9
	c13.4,0,24.3-11.6,24.3-25.9C478.2,897,467.3,885.4,453.9,885.4z M649.4,1765.9c-13.4,0-24.3,11.6-24.3,25.9
	c0,14.3,10.9,25.9,24.3,25.9c13.4,0,24.3-11.6,24.3-25.9C673.8,1777.5,662.9,1765.9,649.4,1765.9z M119.9,1869.2
	c-13.4,0-24.3,11.6-24.3,25.9s10.9,25.9,24.3,25.9s24.3-11.6,24.3-25.9S133.3,1869.2,119.9,1869.2z M2534,1697.6
	c-13.4,0-24.3,11.6-24.3,25.9c0,14.3,10.9,25.9,24.3,25.9s24.3-11.6,24.3-25.9C2558.3,1709.2,2547.4,1697.6,2534,1697.6z
	 M3535.9,1880c-13.4,0-24.3,11.6-24.3,25.9s10.9,25.9,24.3,25.9c13.4,0,24.3-11.6,24.3-25.9S3549.3,1880,3535.9,1880z
	 M2059.9,1342.9c-13.4,0-24.3,11.6-24.3,25.9c0,14.3,10.9,25.9,24.3,25.9c13.4,0,24.3-11.6,24.3-25.9
	C2084.3,1354.5,2073.4,1342.9,2059.9,1342.9z M2005.2,1011c-13.4,0-24.3,11.6-24.3,25.9c0,14.3,10.9,25.9,24.3,25.9
	s24.3-11.6,24.3-25.9C2029.5,1022.6,2018.6,1011,2005.2,1011z M3696.1,1671.7c-13.4,0-24.3,11.6-24.3,25.9
	c0,14.3,10.9,25.9,24.3,25.9c13.4,0,24.3-11.6,24.3-25.9C3720.4,1683.3,3709.5,1671.7,3696.1,1671.7z M1370.7,1697.6
	c-13.4,0-24.3,11.6-24.3,25.9c0,14.3,10.9,25.9,24.3,25.9c13.4,0,24.3-11.6,24.3-25.9C1395,1709.2,1384.1,1697.6,1370.7,1697.6z
	 M3431.1,148.8c-13.4,0-24.3,11.6-24.3,25.9c0,14.3,10.9,25.9,24.3,25.9c13.4,0,24.3-11.6,24.3-25.9
	C3455.5,160.4,3444.6,148.8,3431.1,148.8z M3049.1,438.6c-13.4,0-24.3,11.6-24.3,25.9s10.9,25.9,24.3,25.9
	c13.4,0,24.3-11.6,24.3-25.9S3062.6,438.6,3049.1,438.6z"/>
<path class="st0" d="M2703.7,588.9l80.2-217.7l135.7,47.5l59.8-187.7l197.2,49.7L3307,104.9l31.4,21l-150.3,193.8l-185.3-38.9
	l-65.7,185.5l-132.8-47.5l-58.4,181L2703.7,588.9z M1484.5,619.6l-49.7-131l-73.3,131.9L1211.4,502l44.7,190.8L1108.5,759L1246,808
	l-34.6,127.8l119.1-30.5l-3.7,126.9l120.8-95.7l87.5,111.7l25.4-133.1l175.4,66.2l-84.2-167.1l187.1-65.9L1610,700l5.5-144.4
	L1484.5,619.6z M3543.2,952.2l-37.6-99.2l-55.5,99.9l-113.6-89.7l33.8,144.4l-111.7,50.1l104.1,37l-26.2,96.7l90.2-23.1l-2.8,96.1
	l91.5-72.4l66.2,84.6l19.3-100.8l132.7,50.1l-63.7-126.5l141.6-49.9l-173.3-36.6l4.2-109.3L3543.2,952.2z M2211.1,1540.8l-33-87
	l-48.7,87.6l-99.7-78.7l29.7,126.7l-98,44l91.3,32.5l-23,84.9l79.1-20.3l-2.4,84.3l80.2-63.5l58.1,74.2l16.9-88.4l116.4,44
	l-55.9-110.9l124.2-43.7l-152-32.1l3.7-95.9L2211.1,1540.8z"/>
<path class="st1" d="M1400.6,231.5c0,90.2-68.6,163.3-153.1,163.3c-84.6,0-153.1-73.1-153.1-163.3c0-90.2,68.6-163.3,153.1-163.3
	C1332.1,68.2,1400.6,141.3,1400.6,231.5z M168.9,362.4l38.3-119l87.2,31.2l43.1-121.9l121.7,25.6l98.7-127.3l-20.6-13.8l-85.6,115.5
	l-129.6-32.7L283,243.5l-89.1-31.2l-52.7,143L168.9,362.4z M862.8,1214.3l-60.2,619.1l532.7-253.9L862.8,1214.3z M3233.9,1289.9
	L2910,1217l-68.4,345.4l323.9,72.9L3233.9,1289.9z M3544.4,301.6L3216.8,352l47.2,349.4l327.6-50.4L3544.4,301.6z"/>
<path class="st2" d="M1770.5,1746.4c0,77.7-59.1,140.8-132,140.8s-132-63-132-140.8c0-77.7,59.1-140.8,132-140.8
	S1770.5,1668.6,1770.5,1746.4z M687.2,116.3L303.1,584.9l572.5,120.5L687.2,116.3z M2583.7,423l-324.2-71l-66.5,345.9l324.2,71
	L2583.7,423z M2797.7,964.7l-183.2-17.8l-51.6,212.8l-211.5-3.7l-59.4,206.3l81.8,13.8l39.4-175.6l204.2,20.3l49-205.7l167,25.2
	l65.8-227.8l-57.2-28.6L2797.7,964.7z M688.3,985.6L530,970.2l-44.5,183.9l-182.7-3.2l-51.3,178.3l70.7,11.9l34-151.7l176.4,17.5
	l42.3-177.7l144.3,21.8L776,854.2l-49.4-24.8L688.3,985.6z M3640.2,1533.3l-127.6-12.4l-35.9,148.2l-147.3-2.6l-41.4,143.7l57,9.6
	l27.4-122.3l142.2,14.1l34.1-143.2l116.3,17.5l45.9-158.6l-39.8-20L3640.2,1533.3z"/>
<path class="st3" d="M1289.5,1187.1c0,53.3-40.5,96.6-90.5,96.6s-90.5-43.2-90.5-96.6c0-53.3,40.5-96.6,90.5-96.6
	S1289.5,1133.8,1289.5,1187.1z M2587.5,96.8c-50,0-90.5,43.2-90.5,96.6s40.5,96.6,90.5,96.6c50,0,90.5-43.2,90.5-96.6
	S2637.5,96.8,2587.5,96.8z M243.4,746.2c-50,0-90.5,43.2-90.5,96.6s40.5,96.6,90.5,96.6c50,0,90.5-43.2,90.5-96.6
	S293.3,746.2,243.4,746.2z M3082.1,861.5c-60.7,0-110,52.5-110,117.3s49.2,117.3,110,117.3c60.7,0,110-52.5,110-117.3
	S3142.8,861.5,3082.1,861.5z M2775.7,1669.9c-48.8,0-88.3,42.2-88.3,94.2c0,52,39.5,94.2,88.3,94.2s88.3-42.2,88.3-94.2
	C2864,1712.1,2824.5,1669.9,2775.7,1669.9z M1619.4,1500.2l67.4-209.1l153.3,54.9l75.8-214.2l214,44.9l173.5-223.8l-36.2-24.3
	l-150.5,203.1l-227.7-57.4l-69.1,216.8l-156.7-54.9l-92.7,251.4L1619.4,1500.2z M376.9,1551.1l-33-87l-48.7,87.6l-99.7-78.7
	l29.7,126.7l-98,44l91.3,32.5l-23,84.9l79.1-20.3l-2.4,84.3l80.2-63.5l58.1,74.2l16.9-88.4l116.4,44L488,1680.3l124.2-43.7
	l-152-32.1l3.7-95.9L376.9,1551.1z M3757.3,121.9l-25.1-66.2l-37.1,66.7l-75.9-59.9l22.6,96.5l-74.6,33.5l69.5,24.7l-17.5,64.6
	l60.2-15.4l-1.9,64.1l61.1-48.4l44.2,56.5l12.9-67.3l88.6,33.5l-42.5-84.4l94.6-33.3l-115.7-24.5l2.8-73L3757.3,121.9z M2047.2,203
	l-127.6-12.4l-35.9,148.2l-147.3-2.6L1695,480l57,9.6l27.4-122.3l142.2,14.1l34.1-143.2l116.3,17.5l45.9-158.6l-39.8-20L2047.2,203z
	"/>
</svg>
